<?xml version="1.0" standalone="no"?>
<!DOCTYPE svg PUBLIC "-//W3C//DTD SVG 1.1//EN" "http://www.w3.org/Graphics/SVG/1.1/DTD/svg11.dtd" >
<svg xmlns="http://www.w3.org/2000/svg">
<metadata></metadata>
<defs>
<font id="function_capslight" horiz-adv-x="500" >
<font-face units-per-em="1000" ascent="753" descent="-247" />
<missing-glyph horiz-adv-x="250" />
<glyph unicode="&#xfb01;" horiz-adv-x="556" d="M426 0v443h40v-443h-40zM90 0v443h200v-38h-160v-144h155v-38h-155v-223h-40z" />
<glyph unicode="&#xfb02;" horiz-adv-x="602" d="M426 0v443h40v-405h123v-38h-163zM90 0v443h200v-38h-160v-144h155v-38h-155v-223h-40z" />
<glyph horiz-adv-x="0" />
<glyph horiz-adv-x="333" />
<glyph unicode=" "  horiz-adv-x="250" />
<glyph unicode="&#x09;" horiz-adv-x="250" />
<glyph unicode="&#xa0;" horiz-adv-x="250" />
<glyph unicode="!" horiz-adv-x="259" d="M108 120v323h43v-323h-43zM93 30q0 15 11 25.5t26 10.5t25.5 -10.5t10.5 -25.5t-11 -26t-25 -11q-15 0 -26 11t-11 26z" />
<glyph unicode="&#x22;" horiz-adv-x="360" d="M216 438l-7 229h45l-7 -229h-31zM112 438l-7 229h46l-8 -229h-31z" />
<glyph unicode="#" horiz-adv-x="600" d="M136 3l27 217h-118v40h123l20 160h-118v40h123l25 210l43 -6l-25 -204h160l26 210l43 -6l-25 -204h115v-40h-119l-20 -160h114v-40h-119l-28 -223l-42 6l27 217h-162l-28 -223zM211 260h161l19 160h-160z" />
<glyph unicode="$" horiz-adv-x="547" d="M73 134l37 17q50 -119 158 -119v306q-58 28 -78 41q-42 27 -60 57t-18 73q0 67 43.5 112.5t112.5 50.5v93h39v-94q43 -6 79.5 -31t55.5 -62l-32 -26q-42 69 -103 78v-264q82 -40 105 -58q63 -45 63 -122q0 -70 -47.5 -123.5t-120.5 -67.5v-102h-39v99q-142 3 -195 142z M268 384v248q-48 -4 -80 -39.5t-32 -85.5q0 -40 22.5 -64.5t89.5 -58.5zM307 36q54 13 89 55t35 94q0 43 -27 72t-97 62v-283z" />
<glyph unicode="%" horiz-adv-x="605" d="M89 1l395 681l29 -15l-396 -682zM166 411q-56 0 -94.5 38.5t-38.5 94.5q0 54 39 91.5t95 37.5q58 0 96.5 -37.5t38.5 -93.5t-39 -93.5t-97 -37.5zM168 448q38 0 66 28t28 67t-28 66.5t-67 27.5q-38 0 -66 -27.5t-28 -65.5q0 -40 27.5 -68t67.5 -28zM302 127q0 54 39 91.5 t95 37.5q58 0 96.5 -37.5t38.5 -93.5t-39 -93.5t-97 -37.5q-56 0 -94.5 38.5t-38.5 94.5zM341 126q0 -40 27.5 -68t67.5 -28q39 0 67 28t28 67t-28 66.5t-67 27.5t-67 -27.5t-28 -65.5z" />
<glyph unicode="&#x26;" horiz-adv-x="453" d="M50 102q0 46 29.5 81t109.5 83l-18 28q-22 35 -22 66q0 36 26.5 61.5t63.5 25.5q36 0 60 -24.5t24 -60.5q0 -30 -16.5 -53t-60.5 -54l98 -131q26 28 48 56l36 -17q-38 -49 -61 -72l68 -91h-51l-48 64q-94 -74 -162 -74q-51 0 -87.5 33t-36.5 79zM223 286q37 27 48.5 42.5 t11.5 35.5t-12.5 33t-31.5 13q-21 0 -35.5 -15t-14.5 -37q0 -14 5.5 -25.5t28.5 -46.5zM90 106q0 -34 24 -56.5t60 -22.5q56 0 139 69l-102 140l-40 -25q-82 -51 -81 -105z" />
<glyph unicode="'" horiz-adv-x="245" d="M104 438l-7 229h46l-8 -229h-31z" />
<glyph unicode="(" horiz-adv-x="269" d="M157 -174q-30 75 -50 205t-20 254q0 123 20 253.5t50 204.5l33 -23q-62 -218 -62 -435q0 -218 62 -436z" />
<glyph unicode=")" horiz-adv-x="269" d="M80 -151q62 216 62 436t-62 435l33 23q30 -74 50 -204.5t20 -253.5q0 -124 -20 -254t-50 -205z" />
<glyph unicode="*" horiz-adv-x="547" d="M198 430l-35 25l81 106l-128 38l13 41l126 -44l-3 133h43l-3 -133l125 44l14 -41l-128 -38l81 -106l-35 -25l-76 110z" />
<glyph unicode="+" horiz-adv-x="547" d="M253 101v219h-222v40h222v219h40v-219h222v-40h-222v-219h-40z" />
<glyph unicode="," horiz-adv-x="203" d="M98 65l40 -12l-74 -200l-26 10z" />
<glyph unicode="-" horiz-adv-x="168" d="M0 187v40h168v-40h-168z" />
<glyph unicode="." horiz-adv-x="203" d="M65 30q0 14 11 25t26 11t25.5 -10.5t10.5 -25.5t-11 -26t-25 -11q-15 0 -26 11t-11 26z" />
<glyph unicode="/" horiz-adv-x="544" d="M7 -158l507 901l31 -16l-506 -901z" />
<glyph unicode="0" horiz-adv-x="580" d="M48 255q0 107 72 184.5t172 77.5t170 -76t70 -185q0 -110 -71 -188t-171 -78t-171 77.5t-71 187.5zM88 254q0 -97 58.5 -162t144.5 -65q82 0 141.5 67t59.5 159q0 94 -59 160.5t-143 66.5t-143 -66t-59 -160z" />
<glyph unicode="1" horiz-adv-x="380" d="M195 0v470h-108l20 37h128v-507h-40z" />
<glyph unicode="2" horiz-adv-x="553" d="M68 0l239 188q70 55 94 87.5t24 71.5q0 55 -43.5 93.5t-104.5 38.5q-65 0 -103.5 -41t-41.5 -114h-40q3 61 25 101q24 43 67 67t95 24q77 0 131.5 -50.5t54.5 -121.5q0 -45 -22 -79.5t-79 -79.5l-187 -148h298v-37h-407z" />
<glyph unicode="3" horiz-adv-x="560" d="M76 4h42q5 -48 22 -74q17 -28 51.5 -46t69.5 -18q63 0 109 47t46 111q0 41 -20 74.5t-55 50.5q-32 15 -79 18v39q52 4 84 26q60 39 60 112q0 58 -38 97t-94 39q-34 0 -63.5 -14.5t-45.5 -39.5t-23 -77h-41q7 56 25 90q19 36 58 57t86 21q74 0 125 -50.5t51 -123.5 q0 -104 -100 -154q110 -46 110 -165q0 -82 -57 -138.5t-139 -56.5q-50 0 -94.5 24t-67.5 64q-21 37 -22 87z" />
<glyph unicode="4" horiz-adv-x="540" d="M27 0l368 529v-492h94v-37h-94v-160h-40v160h-328zM97 37h258v369z" />
<glyph unicode="5" horiz-adv-x="567" d="M40 -59l39 16q59 -90 161 -90q83 0 140.5 57t57.5 139t-57 137.5t-141 55.5q-50 0 -101 -29l87 280h253v-37h-225l-56 -183q26 6 51 6q97 0 163 -65.5t66 -163.5q0 -100 -69 -167t-170 -67q-130 0 -199 111z" />
<glyph unicode="6" horiz-adv-x="580" d="M53 225q0 75 43 136l221 314l33 -25l-150 -211q50 18 92 18q97 0 165.5 -68.5t68.5 -164.5q0 -97 -69 -165.5t-167 -68.5q-100 0 -168.5 68.5t-68.5 166.5zM93 223q0 -81 58 -138.5t140 -57.5t137 58q58 60 58 136q0 83 -57 141t-139 58t-139.5 -57.5t-57.5 -139.5z" />
<glyph unicode="7" horiz-adv-x="525" d="M52 -142l404 612h-378v37h447l-443 -672z" />
<glyph unicode="8" horiz-adv-x="580" d="M97 177q0 114 109 170q-92 53 -92 154q0 74 51.5 125t126.5 51q76 0 127.5 -50.5t51.5 -124.5q0 -47 -26 -88.5t-71 -66.5q109 -52 109 -166q0 -80 -56 -135.5t-138 -55.5q-81 0 -136.5 54t-55.5 133zM291 364q58 0 98.5 40t40.5 97q0 58 -40.5 98.5t-98.5 40.5 q-55 0 -96 -41t-41 -96q0 -58 40 -98.5t97 -40.5zM137 181q0 -64 44.5 -109t107.5 -45q64 0 109 44.5t45 107.5t-45 107t-109 44q-62 0 -107 -44t-45 -105z" />
<glyph unicode="9" horiz-adv-x="580" d="M231 -143l149 210q-51 -17 -92 -17q-96 0 -164.5 68.5t-68.5 164.5q0 97 69.5 165.5t167.5 68.5q99 0 167.5 -68.5t68.5 -166.5q0 -75 -43 -137l-221 -313zM95 286q0 -83 57 -141t139 -58t139.5 57.5t57.5 139.5q0 81 -58 138.5t-140 57.5t-137 -58q-26 -26 -42 -63.5 t-16 -72.5z" />
<glyph unicode=":" horiz-adv-x="203" d="M102 344q-15 0 -26 11t-11 26q0 14 11 25t26 11t25.5 -10.5t10.5 -25.5t-11 -26t-25 -11zM65 30q0 14 11 25t26 11t25.5 -10.5t10.5 -25.5t-11 -26t-25 -11q-15 0 -26 11t-11 26z" />
<glyph unicode=";" horiz-adv-x="203" d="M106 344q-16 0 -26.5 11t-10.5 26q0 14 11 25t26 11q14 0 25 -10.5t11 -25.5t-11 -26t-25 -11zM98 65l40 -12l-74 -200l-26 10z" />
<glyph unicode="&#x3c;" d="M33 315v40l433 193v-44l-386 -169l386 -170v-44z" />
<glyph unicode="=" horiz-adv-x="547" d="M31 373v40h484v-40h-484zM31 267v40h484v-40h-484z" />
<glyph unicode="&#x3e;" d="M34 121v44l386 170l-386 169v44l433 -193v-40z" />
<glyph unicode="?" horiz-adv-x="355" d="M177 96q-40 0 -66 26t-26 64q0 50 45 72l62 20q49 12 49 66q0 29 -18 46.5t-47 17.5t-45.5 -17.5t-16.5 -47.5q0 -10 3 -28h-40q-4 20 -4 34q0 42 30 70t74 28q46 0 75.5 -30t29.5 -77q0 -60 -41 -84q-16 -9 -65 -22q-28 -8 -38.5 -18.5t-10.5 -32.5q0 -23 13.5 -36 t36.5 -13q25 0 37 14t15 44h40q-5 -96 -92 -96zM142 30q0 14 11 25t26 11t25.5 -10.5t10.5 -25.5t-11 -26t-25 -11q-15 0 -26 11t-11 26z" />
<glyph unicode="@" horiz-adv-x="768" d="M52 334q0 144 100.5 243t247.5 99q135 0 226 -84.5t91 -209.5q0 -91 -47.5 -157.5t-111.5 -66.5q-27 0 -46.5 17.5t-19.5 41.5v10q-33 -40 -62 -55.5t-69 -15.5q-68 0 -112.5 46.5t-44.5 118.5q0 82 50.5 137t126.5 55q44 0 75 -18t60 -61l9 70h40l-35 -276 q0 -15 10.5 -25t26.5 -10q46 0 80 55.5t34 128.5q0 114 -80 188.5t-202 74.5q-130 0 -219.5 -89t-89.5 -218q0 -131 88.5 -219t233.5 -88q110 0 221 55l14 -34q-113 -56 -234 -56q-160 0 -260.5 98t-100.5 245zM245 323q0 -56 34 -93t86 -37q58 0 100.5 47.5t42.5 111.5 q0 54 -34.5 88.5t-87.5 34.5q-60 0 -100.5 -43.5t-40.5 -108.5z" />
<glyph unicode="A" horiz-adv-x="584" d="M13 0l280 687l278 -687h-49l-88 219h-284l-89 -219h-48zM166 259h252l-125 316z" />
<glyph unicode="B" horiz-adv-x="533" d="M90 0v667h144q92 0 139 -51q45 -50 45 -124q0 -48 -17.5 -79.5t-60.5 -58.5q49 -13 78 -36q61 -48 61 -133q0 -86 -67 -141q-54 -44 -141 -44h-181zM133 365h85q46 0 68 5.5t43 22.5q44 34 44 100q0 71 -44 106q-38 28 -111 28h-85v-262zM133 40h112q59 0 88.5 8t55.5 32 q46 41 46 105q0 40 -20 73.5t-53 47.5q-44 19 -125 19h-104v-285z" />
<glyph unicode="C" horiz-adv-x="677" d="M202 107q91 -77 196 -77q85 0 167 51q27 17 58 49v-58q-106 -83 -222 -83q-141 0 -244.5 102t-103.5 241q0 140 102.5 242t243.5 102q122 0 224 -86v-60q-41 44 -78 65q-71 40 -147 40q-121 0 -210.5 -91t-89.5 -214q0 -135 104 -223z" />
<glyph unicode="D" horiz-adv-x="617" d="M90 0v667h132q151 0 244 -92q98 -98 98 -241q0 -145 -98 -241q-93 -93 -244 -93h-132zM133 40h88q127 0 208 77q90 84 90 217q0 132 -90 216q-81 77 -208 77h-88v-587z" />
<glyph unicode="E" horiz-adv-x="463" d="M90 0v667h319v-40h-276v-242h270v-40h-270v-305h276v-40h-319z" />
<glyph unicode="F" horiz-adv-x="406" d="M90 0v667h269v-40h-226v-242h220v-40h-220v-345h-43z" />
<glyph unicode="G" horiz-adv-x="771" d="M53 331q0 143 102 244t246 101q119 0 209 -72q32 -25 80 -84l-35 -27q-32 42 -64 71q-84 71 -192 71q-123 0 -212.5 -90.5t-89.5 -214.5q0 -122 89 -211t211 -89q73 0 141.5 36t102.5 92q27 44 30 122h-234v40h281q0 -64 -8 -102.5t-29 -74.5q-40 -69 -118 -111.5 t-165 -42.5q-142 0 -243.5 101t-101.5 241z" />
<glyph unicode="H" horiz-adv-x="671" d="M90 0v667h43v-283h405v283h43v-667h-43v344h-405v-344h-43z" />
<glyph unicode="I" horiz-adv-x="223" d="M90 0v667h43v-667h-43z" />
<glyph unicode="J" horiz-adv-x="265" d="M-21 -43q29 -55 83 -55q70 0 70 100v665h43v-665q0 -63 -22 -96q-31 -45 -93 -45q-76 0 -113 72z" />
<glyph unicode="K" horiz-adv-x="539" d="M90 0v667h43v-310l313 310h59l-326 -322l347 -345h-64l-313 317l-16 -16v-301h-43z" />
<glyph unicode="L" horiz-adv-x="315" d="M90 0v667h43v-627h169v-40h-212z" />
<glyph unicode="M" horiz-adv-x="897" d="M83 0l75 690l288 -617l291 617l76 -690h-44l-60 536l-263 -560l-261 560l-58 -536h-44z" />
<glyph unicode="N" horiz-adv-x="783" d="M90 0v674l560 -586v579h43v-684l-560 586v-569h-43z" />
<glyph unicode="O" horiz-adv-x="798" d="M53 338q0 136 103 237t242 101q142 0 244 -101.5t102 -241.5q0 -142 -102.5 -243t-245.5 -101q-141 0 -242 103t-101 246zM195 111q89 -81 201 -81q125 0 214 89t89 214q0 124 -89 213t-212 89q-122 0 -211 -88.5t-89 -209.5q0 -137 97 -226z" />
<glyph unicode="P" horiz-adv-x="445" d="M90 0v667h128q98 0 146 -51q48 -50 48 -124q0 -82 -51.5 -128.5t-141.5 -46.5h-86v-317h-43zM133 357h87q67 0 107 37t40 98q0 62 -36 98q-37 37 -117 37h-81v-270z" />
<glyph unicode="Q" horiz-adv-x="798" d="M53 332q0 141 102 242.5t244 101.5t243.5 -101t101.5 -242q0 -66 -22.5 -121.5t-74.5 -118.5l87 -93h-57l-60 68q-103 -79 -221 -79q-141 0 -242 101t-101 242zM98 331q0 -124 88.5 -212.5t212.5 -88.5q96 0 188 69l-166 174h60l135 -148q46 54 64.5 100t18.5 104 q0 127 -87.5 216.5t-211.5 89.5t-213 -89.5t-89 -214.5z" />
<glyph unicode="R" horiz-adv-x="467" d="M90 0v667h94q93 0 141 -34q67 -47 67 -143q0 -107 -84 -153q-33 -18 -106 -22l218 -315h-53l-214 315h-20v-315h-43zM133 355h64q72 0 111.5 35.5t39.5 100.5q0 39 -16 70t-43 46q-36 20 -101 20h-55v-272z" />
<glyph unicode="S" horiz-adv-x="512" d="M53 132l37 18q21 -44 37 -64q46 -56 123 -56q67 0 115 46t48 109q0 64 -65 103q-11 6 -124 63q-76 38 -104 71.5t-28 87.5q0 72 48.5 119t122.5 47q107 0 162 -95l-32 -26q-29 44 -58.5 62t-72.5 18q-53 0 -89 -36.5t-36 -89.5q0 -40 25 -67t93 -60q97 -46 133 -69 q70 -46 70 -128q0 -81 -61.5 -138.5t-147.5 -57.5q-137 0 -196 143z" />
<glyph unicode="T" horiz-adv-x="415" d="M184 0v627h-171v40h388v-40h-174v-627h-43z" />
<glyph unicode="U" horiz-adv-x="633" d="M125 80q-21 29 -28 61t-7 97v429h43v-417q0 -62 5 -91.5t19 -51.5q22 -34 66.5 -55.5t92.5 -21.5q49 0 93.5 21.5t66.5 55.5q14 22 19 51.5t5 91.5v417h43v-429q0 -66 -7 -98t-28 -60q-30 -42 -81.5 -66.5t-110.5 -24.5q-58 0 -109.5 24.5t-81.5 66.5z" />
<glyph unicode="V" horiz-adv-x="508" d="M256 -27l-243 694h48l195 -563l192 563h46z" />
<glyph unicode="W" horiz-adv-x="982" d="M237 -25l-224 692h49l181 -564l242 600l226 -600l208 564h49l-257 -692l-226 605z" />
<glyph unicode="X" horiz-adv-x="462" d="M23 0l182 341l-175 326h49l151 -281l150 281h50l-175 -326l184 -341h-49l-160 296l-158 -296h-49z" />
<glyph unicode="Y" horiz-adv-x="514" d="M231 0v285l-218 382h50l190 -335l195 335h51l-225 -382v-285h-43z" />
<glyph unicode="Z" horiz-adv-x="555" d="M37 0l407 627h-368v40h443l-408 -627h396v-40h-470z" />
<glyph unicode="[" horiz-adv-x="277" d="M130 -121h107v-39h-150v889h150v-40h-107v-810z" />
<glyph unicode="\" horiz-adv-x="544" d="M505 -174l-506 901l31 16l507 -901z" />
<glyph unicode="]" horiz-adv-x="277" d="M40 -120h107v810h-107v39h150v-889h-150v40z" />
<glyph unicode="^" d="M36 381l185 286h58l185 -286h-50l-165 252l-164 -252h-49z" />
<glyph unicode="_" d="M0 -76h500v-41h-500v41z" />
<glyph unicode="`" d="M248 489l-105 128l44 25l91 -137z" />
<glyph unicode="a" horiz-adv-x="419" d="M13 0l197 466l195 -466h-44l-59 142h-186l-59 -142h-44zM133 180h152l-75 185z" />
<glyph unicode="b" horiz-adv-x="421" d="M90 0v443h106q66 0 100 -35q32 -34 32 -81q0 -67 -58 -90q43 -8 70 -39.5t27 -72.5q0 -55 -41.5 -90t-105.5 -35h-130zM130 248h55q51 0 74 17q28 21 28 59q0 42 -24.5 61.5t-77.5 19.5h-55v-157zM130 38h73q39 0 58.5 5t36.5 19q29 24 29 64q0 52 -46 72q-30 12 -83 12 h-68v-172z" />
<glyph unicode="c" horiz-adv-x="494" d="M47 218q0 94 70 161.5t167 67.5q84 0 157 -60v-57q-70 80 -157 80q-79 0 -137.5 -57.5t-58.5 -135.5q0 -76 58.5 -133t137.5 -57q87 0 157 76v-56q-76 -57 -155 -57q-97 0 -168 67.5t-71 160.5z" />
<glyph unicode="d" horiz-adv-x="469" d="M90 0v443h98q104 0 167 -62q67 -64 67 -159t-67 -160q-63 -62 -167 -62h-98zM130 38h57q85 0 139.5 51.5t54.5 131.5q0 81 -54.5 132.5t-139.5 51.5h-57v-367z" />
<glyph unicode="e" horiz-adv-x="375" d="M90 0v443h232v-38h-192v-144h188v-38h-188v-185h192v-38h-232z" />
<glyph unicode="f" horiz-adv-x="336" d="M90 0v443h200v-38h-160v-144h155v-38h-155v-223h-40z" />
<glyph unicode="g" horiz-adv-x="552" d="M47 217q0 95 70 162.5t168 67.5q61 0 108 -25.5t94 -83.5l-32 -25q-28 36 -46 52q-51 45 -125 45q-80 0 -138 -57.5t-58 -136.5q0 -77 57.5 -133t137.5 -56q47 0 91.5 23t66.5 58q18 26 19 70h-151v38h194q0 -81 -26 -124q-27 -45 -81 -73.5t-113 -28.5q-97 0 -166.5 67 t-69.5 160z" />
<glyph unicode="h" horiz-adv-x="523" d="M90 0v443h40v-183h263v183h40v-443h-40v222h-263v-222h-40z" />
<glyph unicode="i" horiz-adv-x="220" d="M90 0v443h40v-443h-40z" />
<glyph unicode="j" horiz-adv-x="211" d="M-23 -13q23 -40 59 -40q46 0 46 60v436h40v-436q0 -97 -87 -97q-59 0 -88 54z" />
<glyph unicode="k" horiz-adv-x="419" d="M90 0v443h40v-198l207 198h56l-224 -211l237 -232h-58l-210 206l-8 -8v-198h-40z" />
<glyph unicode="l" horiz-adv-x="266" d="M90 0v443h40v-405h122v-38h-162z" />
<glyph unicode="m" horiz-adv-x="666" d="M83 0l55 474l193 -410l195 410l56 -474h-41l-40 334l-170 -357l-169 357l-39 -334h-40z" />
<glyph unicode="n" horiz-adv-x="595" d="M90 0v457l375 -379v365h40v-463l-375 379v-359h-40z" />
<glyph unicode="o" horiz-adv-x="566" d="M47 222q0 91 70.5 158t165.5 67q97 0 167 -67.5t70 -160.5q0 -94 -70 -161.5t-168 -67.5q-97 0 -166 68.5t-69 163.5zM88 222q0 -80 57 -137.5t137 -57.5q81 0 139 56.5t58 135.5q0 78 -58 134.5t-138 56.5q-79 0 -137 -56t-58 -132z" />
<glyph unicode="p" horiz-adv-x="357" d="M90 0v443h96q68 0 104 -35q34 -34 34 -84q0 -55 -37 -87t-101 -32h-56v-205h-40zM130 243h57q44 0 70 22t26 59q0 81 -100 81h-53v-162z" />
<glyph unicode="q" horiz-adv-x="566" d="M47 218q0 94 69.5 161.5t167.5 67.5q97 0 166.5 -67t69.5 -160q0 -81 -68 -156l60 -64h-53l-35 39q-67 -49 -143 -49q-96 0 -165 67.5t-69 160.5zM88 218q0 -78 57.5 -134.5t136.5 -56.5q60 0 114 41l-112 118h55l85 -93q55 58 55 125q0 79 -57.5 135.5t-137.5 56.5 t-138 -56.5t-58 -135.5z" />
<glyph unicode="r" horiz-adv-x="381" d="M90 0v443h74q65 0 99 -23q48 -33 48 -97q0 -54 -37 -88q-29 -25 -88 -30l148 -205h-48l-146 204h-10v-204h-40zM130 242h42q99 0 99 82q0 81 -105 81h-36v-163z" />
<glyph unicode="s" horiz-adv-x="396" d="M53 92l35 16q14 -30 27 -46q29 -35 80 -35q43 0 74.5 28.5t31.5 67.5q0 26 -17.5 43t-70.5 41q-57 25 -86 43q-47 30 -47 83q0 49 35 81.5t88 32.5q79 0 120 -69l-30 -25q-22 32 -41.5 44.5t-49.5 12.5q-35 0 -58 -22t-23 -55q0 -24 16 -39.5t62 -36.5q64 -29 92 -46 q51 -32 51 -88q0 -55 -43.5 -94t-104.5 -39q-98 0 -141 102z" />
<glyph unicode="t" horiz-adv-x="303" d="M131 0v405h-118v38h276v-38h-118v-405h-40z" />
<glyph unicode="u" horiz-adv-x="499" d="M115 51q-15 20 -20 41.5t-5 64.5v286h40v-278q0 -67 15 -91q14 -21 43 -34t62 -13q32 0 61 13t42 34q16 23 16 91v278h40v-286q0 -43 -5 -64.5t-20 -41.5q-45 -61 -134 -61q-90 0 -135 61z" />
<glyph unicode="v" horiz-adv-x="368" d="M186 -30l-173 473h44l129 -355l126 355h43z" />
<glyph unicode="w" horiz-adv-x="675" d="M169 -28l-156 471h44l117 -357l159 391l150 -391l133 357h45l-178 -471l-150 396z" />
<glyph unicode="x" horiz-adv-x="349" d="M23 0l128 226l-123 217h45l101 -179l100 179h45l-122 -217l128 -226h-45l-106 188l-106 -188h-45z" />
<glyph unicode="y" horiz-adv-x="376" d="M165 0v189l-152 254h46l127 -213l129 213h47l-157 -255v-188h-40z" />
<glyph unicode="z" horiz-adv-x="420" d="M37 0l276 405h-246v38h317l-277 -405h264v-38h-334z" />
<glyph unicode="{" horiz-adv-x="240" d="M94 -40v222q0 39 -13 58.5t-45 29.5v30q23 6 37 19q13 13 17 35t4 82v173q0 53 13 80q23 44 81 44h23v-36q-7 -1 -15 -1q-26 -1 -34 -6q-25 -16 -25 -79v-176q0 -76 -7.5 -102t-36.5 -48q25 -20 34.5 -42t9.5 -60v-225q0 -74 35 -83q7 -2 39 -2v-37h-23q-57 0 -81 44 q-13 26 -13 80z" />
<glyph unicode="|" d="M228 -167v834h43v-834h-43z" />
<glyph unicode="}" horiz-adv-x="240" d="M103 -42v177q0 75 7.5 101t36.5 49q-25 19 -34.5 41t-9.5 60v225q0 63 -25 79q-8 5 -34 6q-9 0 -15 1v36h23q58 0 81 -44q13 -27 13 -80v-222q0 -39 13 -58.5t45 -28.5v-30q-25 -8 -37 -20q-13 -13 -17 -35t-4 -82v-173q0 -54 -13 -80q-24 -44 -81 -44h-23v37q31 0 43 3 q31 11 31 82z" />
<glyph unicode="~" horiz-adv-x="667" d="M120 593q-9 0 -26 19q29 55 59 79t71 24q43 0 116 -38q71 -36 104 -36t58 23q26 26 34 42q5 12 10 12q8 0 26 -18q-56 -102 -129 -102q-26 0 -51.5 8.5t-81.5 37.5q-56 28 -91 28q-32 0 -55 -23q-26 -26 -35 -44q-5 -12 -9 -12z" />
<glyph unicode="&#xa1;" horiz-adv-x="259" d="M129 377q-15 0 -25.5 10.5t-10.5 25.5t11 26t26 11q14 0 25 -11t11 -26t-11 -25.5t-26 -10.5zM108 0v323h43v-323h-43z" />
<glyph unicode="&#xa2;" horiz-adv-x="547" d="M279 13v114q-83 11 -134 69t-51 141q0 86 51 145t134 70v103h39v-102q73 -3 129 -52v-52q-57 60 -129 67v-352q36 2 72.5 21.5t61.5 50.5v-53q-27 -24 -64 -39.5t-70 -17.5v-113h-39zM279 165v349q-65 -11 -104.5 -59.5t-39.5 -116.5q0 -66 41.5 -116t102.5 -57z" />
<glyph unicode="&#xa3;" horiz-adv-x="547" d="M68 22q22 26 56 42t63 15q56 53 56 107q0 3 -2 25h-110v40h99q-30 58 -72 123q-48 72 -48 130q0 71 51.5 120.5t126.5 49.5q74 0 122 -50t48 -127h-42q-3 45 -17 72q-16 30 -47 47t-68 17q-54 0 -92 -38.5t-38 -93.5q0 -28 10 -50t57 -98q41 -67 55 -102h120v-40h-113 q3 -17 3 -28q0 -60 -50 -113l64 -22q51 -18 72 -18q55 0 95 70l36 -22q-54 -91 -126 -91q-30 0 -109 28q-60 21 -82 21q-41 0 -94 -46z" />
<glyph unicode="&#xa4;" horiz-adv-x="667" d="M99 89l-26 27l90 89q-55 67 -55 146q0 77 52 143l-90 90l26 26l90 -90q69 56 147 56q79 0 146 -55l91 89l26 -26l-90 -90q53 -66 53 -144q0 -76 -54 -143l91 -91l-25 -26l-92 91q-67 -55 -145 -55q-76 0 -145 53zM334 165q76 0 130 55t54 133q0 75 -54.5 129.5 t-129.5 54.5q-77 0 -131 -54.5t-54 -131.5t54 -131.5t131 -54.5z" />
<glyph unicode="&#xa5;" horiz-adv-x="547" d="M248 0v248h-200v40h198l-59 103h-139v40h116l-134 236h51l189 -335l195 335h52l-139 -236h121v-40h-145l-61 -103h206v-40h-208v-248h-43z" />
<glyph unicode="&#xa6;" d="M228 341v326h43v-326h-43zM228 153h43v-320h-43v320z" />
<glyph unicode="&#xa7;" horiz-adv-x="547" d="M115 3h44q0 -75 26 -104t88 -29q55 0 86.5 30t31.5 81q0 65 -56 97q-19 11 -100 40q-70 25 -102.5 65t-32.5 101q0 112 108 162q-50 26 -71 58t-21 82q0 70 45 111.5t121 41.5q103 0 139 -71q15 -29 20 -101h-45q0 132 -115 132q-55 0 -87.5 -31.5t-32.5 -84.5 q0 -52 41 -84q16 -13 30.5 -19t64.5 -21q83 -26 116.5 -66t33.5 -107q0 -106 -108 -161q97 -43 97 -146q0 -70 -43 -109.5t-120 -39.5q-106 0 -140 67q-15 28 -18 106zM274 156q53 0 90.5 38t37.5 91t-38 91t-91 38q-52 0 -90 -37.5t-38 -89.5q0 -55 37.5 -93t91.5 -38z" />
<glyph unicode="&#xa8;" d="M334 511q-16 0 -26.5 11t-10.5 26q0 14 11 25t26 11q14 0 25 -10.5t11 -25.5t-11 -26t-25 -11zM168 511q-15 0 -26 11t-11 26t11 25.5t26 10.5t25.5 -10.5t10.5 -25.5t-11 -26t-25 -11z" />
<glyph unicode="&#xa9;" horiz-adv-x="740" d="M27 336q0 142 102 241.5t247 99.5q138 0 238 -101.5t100 -241.5q0 -142 -100.5 -243t-242.5 -101q-143 0 -243.5 101t-100.5 245zM75 336q0 -124 86 -211t210 -87q122 0 208.5 87t86.5 209q0 120 -86.5 207.5t-204.5 87.5q-135 0 -224 -98q-76 -85 -76 -195zM187 329 q0 80 58.5 138t138.5 58q70 0 130 -51v-53q-58 68 -130 68q-64 0 -111.5 -48.5t-47.5 -113.5q0 -63 47.5 -110.5t111.5 -47.5q73 0 130 66v-52q-62 -49 -129 -49q-80 0 -139 58t-59 137z" />
<glyph unicode="&#xaa;" horiz-adv-x="337" d="M160 386q-57 0 -94 40.5t-37 102.5q0 61 36.5 99.5t93.5 38.5q65 0 105 -52v46h26v-268h-26v48q-37 -55 -104 -55zM161 410q46 0 75.5 34t29.5 86q0 55 -33 84q-32 29 -72 29q-44 0 -74.5 -32.5t-30.5 -80.5q0 -52 29.5 -86t75.5 -34z" />
<glyph unicode="&#xab;" horiz-adv-x="347" d="M139 207l129 149l26 -24l-107 -125l107 -126l-26 -24zM162 57l-129 150l129 149l25 -24l-106 -125l106 -126z" />
<glyph unicode="&#xac;" d="M33 227v40h433v-267h-43v227h-390z" />
<glyph unicode="&#xad;" horiz-adv-x="168" d="M0 187v40h168v-40h-168z" />
<glyph unicode="&#xae;" horiz-adv-x="740" d="M27 336q0 142 102 241.5t247 99.5q138 0 238 -101.5t100 -241.5q0 -142 -100.5 -243t-242.5 -101q-143 0 -243.5 101t-100.5 245zM75 336q0 -125 86 -211.5t210 -86.5q122 0 208.5 87t86.5 209q0 120 -86.5 207.5t-204.5 87.5q-135 0 -224 -98q-76 -84 -76 -195zM293 140 v380h58q122 0 122 -104q0 -47 -31 -76q-22 -21 -69 -25l121 -175h-46l-118 174v-174h-37zM330 349h28q77 0 77 68t-82 68h-23v-136z" />
<glyph unicode="&#xaf;" d="M133 515v39h233v-39h-233z" />
<glyph unicode="&#xb0;" horiz-adv-x="547" d="M274 400q-55 0 -94.5 39t-39.5 94q0 56 39.5 95t95.5 39q54 0 93 -39.5t39 -93.5q0 -55 -39 -94.5t-94 -39.5zM274 440q38 0 65.5 27.5t27.5 66.5q0 38 -27.5 65.5t-64.5 27.5q-40 0 -67.5 -27t-27.5 -66t27.5 -66.5t66.5 -27.5z" />
<glyph unicode="&#xb1;" horiz-adv-x="547" d="M253 101v219h-222v40h222v219h40v-219h222v-40h-222v-219h-40zM31 0v40h484v-40h-484z" />
<glyph unicode="&#xb2;" horiz-adv-x="273" d="M30 394l121 124q48 49 48 76q0 22 -18.5 37.5t-43.5 15.5q-20 0 -36.5 -11t-20.5 -27q-2 -6 -3 -24h-32q1 23 4 36q8 24 33.5 40t56.5 16q38 0 65 -24t27 -59q0 -24 -12 -42.5t-53 -61.5l-64 -67h127v-29h-199z" />
<glyph unicode="&#xb3;" horiz-adv-x="273" d="M132 390q-27 0 -49 13t-31 33q-5 10 -7 36h31l1 -6q8 -46 55 -46q24 0 41.5 16t17.5 38q0 47 -65 50v29h6q26 2 40.5 15t14.5 33t-14 33t-35 13q-24 0 -35.5 -11.5t-15.5 -38.5h-31q3 25 7 34q17 46 74 46q35 0 58.5 -22t23.5 -54q0 -38 -35 -61q39 -22 39 -66 q0 -35 -26.5 -59.5t-64.5 -24.5z" />
<glyph unicode="&#xb4;" d="M242 489l-29 16l91 137l44 -25z" />
<glyph unicode="&#xb5;" horiz-adv-x="436" d="M111 32v-271h-40v647h40v-243q0 -63 13 -90q11 -22 37 -35.5t56 -13.5q31 0 57 13.5t37 35.5q13 27 13 90v243h40v-257q0 -77 -30 -112q-42 -50 -115 -50q-62 0 -108 43z" />
<glyph unicode="&#xb6;" horiz-adv-x="547" d="M225 -102v440q-60 0 -100 24q-31 20 -49.5 57t-18.5 81q0 76 47 123q42 44 135 44h243l-18 -37h-44v-732h-40v732h-115v-732h-40z" />
<glyph unicode="&#xb7;" horiz-adv-x="206" d="M104 170q-15 0 -26 11t-11 26q0 14 11 25t26 11t25.5 -10.5t10.5 -25.5t-11 -26t-25 -11z" />
<glyph unicode="&#xb8;" d="M184 -178l82 128l49 -20l-97 -124z" />
<glyph unicode="&#xb9;" horiz-adv-x="273" d="M129 393v251h-49l15 29h66v-280h-32z" />
<glyph unicode="&#xba;" horiz-adv-x="339" d="M168 387q-58 0 -98.5 41.5t-40.5 100.5q0 57 41.5 97.5t98.5 40.5q59 0 99.5 -40.5t40.5 -99.5t-41 -99.5t-100 -40.5zM167 411q49 0 82 33.5t33 82.5t-33 82.5t-81 33.5q-46 0 -79 -33.5t-33 -80.5q0 -49 32 -83.5t79 -34.5z" />
<glyph unicode="&#xbb;" horiz-adv-x="347" d="M159 81l107 126l-107 125l25 24l130 -149l-130 -150zM78 57l-25 24l107 126l-107 125l25 24l129 -149z" />
<glyph unicode="&#xbc;" horiz-adv-x="904" d="M240 1l396 681l28 -15l-395 -682zM189 267v370h-68l16 30h86v-400h-34zM539 75l263 345v-315h59v-30h-59v-75h-34v75h-229zM602 105h166v218z" />
<glyph unicode="&#xbd;" horiz-adv-x="904" d="M240 1l396 681l28 -15l-395 -682zM189 267v370h-68l16 30h86v-400h-34zM569 0l167 172q40 41 55.5 66.5t15.5 50.5q0 35 -28 60t-68 25q-25 0 -47.5 -11t-33.5 -29q-12 -18 -13 -52h-34q1 46 18 69q16 24 47.5 39t64.5 15q53 0 90.5 -34t37.5 -83q0 -34 -18 -62.5 t-74 -86.5l-105 -109h195v-30h-270z" />
<glyph unicode="&#xbe;" horiz-adv-x="904" d="M240 1l395 681l29 -15l-395 -682zM188 261q-33 0 -61.5 14.5t-43.5 38.5q-14 22 -15 56h33q4 -31 14 -43q11 -15 32 -25t41 -10q38 0 65.5 26t27.5 61q0 75 -95 80v30q42 2 65.5 22.5t23.5 54.5q0 32 -22 53.5t-56 21.5q-71 0 -80 -75h-33q4 37 17 58q29 48 94 48 q48 0 81 -30.5t33 -75.5q0 -61 -58 -91q29 -12 46.5 -38t17.5 -58q0 -49 -37 -83.5t-90 -34.5zM538 75l263 345v-315h60v-30h-60v-75h-34v75h-229zM601 105h166v218z" />
<glyph unicode="&#xbf;" horiz-adv-x="355" d="M176 377q-15 0 -25.5 10.5t-10.5 25.5t11 26t26 11q14 0 25 -11t11 -26t-11 -25.5t-26 -10.5zM73 104q0 59 41 83q17 10 65 23q28 7 38.5 18t10.5 32q0 23 -13.5 36t-36.5 13q-48 0 -52 -58h-40q5 96 92 96q40 0 66 -26t26 -64q0 -62 -77 -83q-48 -14 -57 -21 q-22 -17 -22 -53q0 -29 18 -46.5t47 -17.5t45.5 17t16.5 48q0 11 -3 27h40q4 -20 4 -34q0 -41 -30 -69t-74 -28q-46 0 -75.5 30t-29.5 77z" />
<glyph unicode="&#xc0;" horiz-adv-x="584" d="M297 713l-133 103l46 31l122 -108zM13 0l280 687l278 -687h-49l-88 219h-284l-89 -219h-48zM166 259h252l-125 316z" />
<glyph unicode="&#xc1;" horiz-adv-x="584" d="M298 713l-35 26l122 108l46 -31zM13 0l280 687l278 -687h-49l-88 219h-284l-89 -219h-48zM166 259h252l-125 316z" />
<glyph unicode="&#xc2;" horiz-adv-x="584" d="M210 714l-36 28l125 105l124 -105l-36 -28l-88 75zM13 0l280 687l278 -687h-49l-88 219h-284l-89 -219h-48zM166 259h252l-125 316z" />
<glyph unicode="&#xc3;" horiz-adv-x="584" d="M198 734l-29 22q15 33 31 46.5t40 13.5q23 0 62 -17q40 -18 57 -18q14 0 22.5 8t18.5 30l28 -22q-19 -60 -71 -60q-20 0 -59 16q-47 19 -61 19t-22.5 -8t-16.5 -30zM13 0l280 687l278 -687h-49l-88 219h-284l-89 -219h-48zM166 259h252l-125 316z" />
<glyph unicode="&#xc4;" horiz-adv-x="584" d="M389 738q-17 0 -28 11t-11 28q0 16 11.5 27t27.5 11t27 -11t11 -27t-11 -27.5t-27 -11.5zM203 738q-17 0 -28 11t-11 28q0 16 11.5 27t27.5 11t27 -11t11 -27t-11 -27.5t-27 -11.5zM13 0l280 687l278 -687h-49l-88 219h-284l-89 -219h-48zM166 259h252l-125 316z" />
<glyph unicode="&#xc5;" horiz-adv-x="584" d="M298 707q-33 0 -56.5 23.5t-23.5 57.5q0 32 24 55.5t56 23.5q33 0 56.5 -23.5t23.5 -56.5t-23.5 -56.5t-56.5 -23.5zM298 746q17 0 29 12t12 29t-12 29t-29 12q-16 0 -28.5 -12t-12.5 -28q0 -17 12 -29.5t29 -12.5zM13 0l280 687l278 -687h-49l-88 219h-284l-89 -219h-48 zM166 259h252l-125 316z" />
<glyph unicode="&#xc6;" horiz-adv-x="851" d="M13 0l269 667h290l16 -40h-275l99 -242h268l16 -40h-267l123 -305h276l16 -40h-323l-88 219h-286l-86 -219h-48zM164 259h252l-127 314z" />
<glyph unicode="&#xc7;" horiz-adv-x="677" d="M202 107q91 -77 196 -77q85 0 167 51q27 17 58 49v-58q-106 -83 -222 -83q-141 0 -244.5 102t-103.5 241q0 140 102.5 242t243.5 102q122 0 224 -86v-60q-41 44 -78 65q-71 40 -147 40q-121 0 -210.5 -91t-89.5 -214q0 -135 104 -223zM286 -180l87 133l51 -25l-103 -126z " />
<glyph unicode="&#xc8;" horiz-adv-x="463" d="M276 713l-133 103l46 31l122 -108zM90 0v667h319v-40h-276v-242h270v-40h-270v-305h276v-40h-319z" />
<glyph unicode="&#xc9;" horiz-adv-x="463" d="M244 713l-35 26l122 108l46 -31zM90 0v667h319v-40h-276v-242h270v-40h-270v-305h276v-40h-319z" />
<glyph unicode="&#xca;" horiz-adv-x="463" d="M169 714l-36 28l125 105l124 -105l-36 -28l-88 75zM90 0v667h319v-40h-276v-242h270v-40h-270v-305h276v-40h-319z" />
<glyph unicode="&#xcb;" horiz-adv-x="463" d="M348 738q-16 0 -27.5 11t-11.5 28q0 16 11.5 27t27.5 11t27 -11t11 -27t-11 -27.5t-27 -11.5zM162 738q-16 0 -27.5 11t-11.5 28q0 16 11.5 27t27.5 11t27 -11t11 -27t-11 -27.5t-27 -11.5zM90 0v667h319v-40h-276v-242h270v-40h-270v-305h276v-40h-319z" />
<glyph unicode="&#xcc;" horiz-adv-x="223" d="M112 713l-119 103l45 31l109 -108zM90 0v667h43v-667h-43z" />
<glyph unicode="&#xcd;" horiz-adv-x="223" d="M117 713l-35 26l110 108l44 -31zM90 0v667h43v-667h-43z" />
<glyph unicode="&#xce;" horiz-adv-x="223" d="M34 714l-34 28l115 105l114 -105l-34 -28l-80 75zM90 0v667h43v-667h-43z" />
<glyph unicode="&#xcf;" horiz-adv-x="223" d="M179 738q-16 0 -27.5 11.5t-11.5 27.5t11.5 27t27.5 11t27 -11t11 -27t-11.5 -27.5t-26.5 -11.5zM53 738q-17 0 -28 11t-11 28q0 16 11.5 27t27.5 11t27 -11t11 -27t-11 -27.5t-27 -11.5zM90 0v667h43v-667h-43z" />
<glyph unicode="&#xd0;" horiz-adv-x="617" d="M90 0v343h-67v40h67v284h132q151 0 244 -92q98 -98 98 -242t-98 -240q-93 -93 -244 -93h-132zM133 40h88q127 0 208 77q90 84 90 216q0 129 -83.5 211.5t-214.5 82.5h-88v-244h167v-40h-167v-303z" />
<glyph unicode="&#xd1;" horiz-adv-x="783" d="M304 734l-29 22q15 33 31 46.5t40 13.5q23 0 62 -17q40 -18 57 -18q14 0 22.5 8t18.5 30l28 -22q-19 -60 -71 -60q-20 0 -59 16q-47 19 -61 19t-22.5 -8t-16.5 -30zM90 0v674l560 -586v579h43v-684l-560 586v-569h-43z" />
<glyph unicode="&#xd2;" horiz-adv-x="798" d="M419 713l-133 103l46 31l122 -108zM53 338q0 136 103 237t242 101q142 0 244 -101.5t102 -241.5q0 -142 -102.5 -243t-245.5 -101q-141 0 -242 103t-101 246zM195 111q89 -81 201 -81q125 0 214 89t89 214q0 124 -89 213t-212 89q-122 0 -211 -88.5t-89 -209.5 q0 -137 97 -226z" />
<glyph unicode="&#xd3;" horiz-adv-x="798" d="M398 713l-35 26l122 108l46 -31zM53 338q0 136 103 237t242 101q142 0 244 -101.5t102 -241.5q0 -142 -102.5 -243t-245.5 -101q-141 0 -242 103t-101 246zM195 111q89 -81 201 -81q125 0 214 89t89 214q0 124 -89 213t-212 89q-122 0 -211 -88.5t-89 -209.5 q0 -137 97 -226z" />
<glyph unicode="&#xd4;" horiz-adv-x="798" d="M317 714l-36 28l125 105l124 -105l-36 -28l-88 75zM53 338q0 136 103 237t242 101q142 0 244 -101.5t102 -241.5q0 -142 -102.5 -243t-245.5 -101q-141 0 -242 103t-101 246zM195 111q89 -81 201 -81q125 0 214 89t89 214q0 124 -89 213t-212 89q-122 0 -211 -88.5 t-89 -209.5q0 -137 97 -226z" />
<glyph unicode="&#xd5;" horiz-adv-x="798" d="M311 734l-29 22q15 33 31 46.5t40 13.5q23 0 62 -17q40 -18 57 -18q14 0 22.5 8t18.5 30l28 -22q-19 -60 -71 -60q-20 0 -59 16q-47 19 -61 19t-22.5 -8t-16.5 -30zM53 338q0 136 103 237t242 101q142 0 244 -101.5t102 -241.5q0 -142 -102.5 -243t-245.5 -101 q-141 0 -242 103t-101 246zM195 111q89 -81 201 -81q125 0 214 89t89 214q0 124 -89 213t-212 89q-122 0 -211 -88.5t-89 -209.5q0 -137 97 -226z" />
<glyph unicode="&#xd6;" horiz-adv-x="798" d="M496 738q-16 0 -27.5 11t-11.5 28q0 16 11.5 27t27.5 11t27 -11t11 -27t-11 -27.5t-27 -11.5zM310 738q-16 0 -27.5 11t-11.5 28q0 16 11.5 27t27.5 11t27 -11t11 -27t-11 -27.5t-27 -11.5zM53 338q0 136 103 237t242 101q142 0 244 -101.5t102 -241.5 q0 -142 -102.5 -243t-245.5 -101q-141 0 -242 103t-101 246zM195 111q89 -81 201 -81q125 0 214 89t89 214q0 124 -89 213t-212 89q-122 0 -211 -88.5t-89 -209.5q0 -137 97 -226z" />
<glyph unicode="&#xd7;" horiz-adv-x="547" d="M104 144l-27 27l169 169l-169 169l27 28l169 -170l170 170l27 -28l-169 -169l169 -169l-27 -27l-170 169z" />
<glyph unicode="&#xd8;" horiz-adv-x="798" d="M60 23l79 83q-86 100 -86 228q0 139 102.5 240.5t242.5 101.5q124 0 225 -84l81 81l27 -26l-80 -81q93 -102 93 -234q0 -139 -102.5 -241t-242.5 -102q-126 0 -233 91l-81 -84zM171 135l421 428q-86 72 -194 72q-122 0 -211 -89.5t-89 -212.5q0 -113 73 -198zM197 108 q90 -78 202 -78q122 0 211 89.5t89 212.5q0 118 -80 206z" />
<glyph unicode="&#xd9;" horiz-adv-x="633" d="M331 713l-133 103l46 31l122 -108zM125 80q-21 29 -28 61t-7 97v429h43v-417q0 -62 5 -91.5t19 -51.5q22 -34 66.5 -55.5t92.5 -21.5q49 0 93.5 21.5t66.5 55.5q14 22 19 51.5t5 91.5v417h43v-429q0 -66 -7 -98t-28 -60q-30 -42 -81.5 -66.5t-110.5 -24.5 q-58 0 -109.5 24.5t-81.5 66.5z" />
<glyph unicode="&#xda;" horiz-adv-x="633" d="M312 713l-35 26l122 108l46 -31zM125 80q-21 29 -28 61t-7 97v429h43v-417q0 -62 5 -91.5t19 -51.5q22 -34 66.5 -55.5t92.5 -21.5q49 0 93.5 21.5t66.5 55.5q14 22 19 51.5t5 91.5v417h43v-429q0 -66 -7 -98t-28 -60q-30 -42 -81.5 -66.5t-110.5 -24.5 q-58 0 -109.5 24.5t-81.5 66.5z" />
<glyph unicode="&#xdb;" horiz-adv-x="633" d="M235 714l-36 28l125 105l124 -105l-36 -28l-88 75zM125 80q-21 29 -28 61t-7 97v429h43v-417q0 -62 5 -91.5t19 -51.5q22 -34 66.5 -55.5t92.5 -21.5q49 0 93.5 21.5t66.5 55.5q14 22 19 51.5t5 91.5v417h43v-429q0 -66 -7 -98t-28 -60q-30 -42 -81.5 -66.5t-110.5 -24.5 q-58 0 -109.5 24.5t-81.5 66.5z" />
<glyph unicode="&#xdc;" horiz-adv-x="633" d="M417 738q-17 0 -28 11t-11 28q0 16 11.5 27t27.5 11t27 -11t11 -27t-11 -27.5t-27 -11.5zM231 738q-17 0 -28 11t-11 28q0 16 11.5 27t27.5 11t27 -11t11 -27t-11 -27.5t-27 -11.5zM125 80q-21 29 -28 61t-7 97v429h43v-417q0 -62 5 -91.5t19 -51.5q22 -34 66.5 -55.5 t92.5 -21.5q49 0 93.5 21.5t66.5 55.5q14 22 19 51.5t5 91.5v417h43v-429q0 -66 -7 -98t-28 -60q-30 -42 -81.5 -66.5t-110.5 -24.5q-58 0 -109.5 24.5t-81.5 66.5z" />
<glyph unicode="&#xdd;" horiz-adv-x="514" d="M252 713l-35 26l122 108l46 -31zM231 0v285l-218 382h50l190 -335l195 335h51l-225 -382v-285h-43z" />
<glyph unicode="&#xde;" horiz-adv-x="445" d="M90 0v667h43v-100h85q98 0 146 -51q48 -50 48 -124q0 -82 -51.5 -128.5t-141.5 -46.5h-86v-217h-43zM133 257h87q67 0 107 37t40 98q0 62 -36 98q-37 37 -117 37h-81v-270z" />
<glyph unicode="&#xdf;" horiz-adv-x="792" d="M449 92l35 16q14 -30 27 -46q29 -35 80 -35q43 0 74.5 28.5t31.5 67.5q0 26 -17.5 43t-70.5 41q-57 25 -86 43q-47 30 -47 83q0 49 35 81.5t88 32.5q79 0 119 -69l-30 -25q-21 32 -40.5 44.5t-49.5 12.5q-35 0 -58 -22t-23 -55q0 -24 16 -39.5t62 -36.5q64 -29 92 -46 q51 -32 51 -88q0 -55 -43.5 -94t-104.5 -39q-98 0 -141 102zM53 92l35 16q14 -30 27 -46q29 -35 80 -35q43 0 74.5 28.5t31.5 67.5q0 26 -17.5 43t-70.5 41q-57 25 -86 43q-47 30 -47 83q0 49 35 81.5t88 32.5q79 0 120 -69l-30 -25q-22 32 -41.5 44.5t-49.5 12.5 q-35 0 -58 -22t-23 -55q0 -24 16 -39.5t62 -36.5q64 -29 92 -46q51 -32 51 -88q0 -55 -43.5 -94t-104.5 -39q-98 0 -141 102z" />
<glyph unicode="&#xe0;" horiz-adv-x="419" d="M203 489l-105 128l44 25l91 -137zM13 0l197 466l195 -466h-44l-59 142h-186l-59 -142h-44zM133 180h152l-75 185z" />
<glyph unicode="&#xe1;" horiz-adv-x="419" d="M211 489l-29 16l91 137l44 -25zM13 0l197 466l195 -466h-44l-59 142h-186l-59 -142h-44zM133 180h152l-75 185z" />
<glyph unicode="&#xe2;" horiz-adv-x="419" d="M123 489l-32 25l121 94l122 -94l-33 -25l-89 68zM13 0l197 466l195 -466h-44l-59 142h-186l-59 -142h-44zM133 180h152l-75 185z" />
<glyph unicode="&#xe3;" horiz-adv-x="419" d="M117 509l-26 19q25 57 70 57q20 0 59 -17q43 -18 57 -18q28 0 43 37l26 -20q-9 -26 -28.5 -41.5t-43.5 -15.5q-16 0 -56 17q-42 18 -62 18q-26 0 -39 -36zM13 0l197 466l195 -466h-44l-59 142h-186l-59 -142h-44zM133 180h152l-75 185z" />
<glyph unicode="&#xe4;" horiz-adv-x="419" d="M296 511q-16 0 -26.5 11t-10.5 26q0 14 11 25t26 11q14 0 25 -10.5t11 -25.5t-11 -26t-25 -11zM130 511q-15 0 -26 11t-11 26t11 25.5t26 10.5t25.5 -10.5t10.5 -25.5t-11 -26t-25 -11zM13 0l197 466l195 -466h-44l-59 142h-186l-59 -142h-44zM133 180h152l-75 185z" />
<glyph unicode="&#xe5;" horiz-adv-x="419" d="M213 495q-32 0 -54.5 22.5t-22.5 54.5q0 31 22.5 53.5t53.5 22.5q32 0 54.5 -22t22.5 -54t-22.5 -54.5t-53.5 -22.5zM213 530q17 0 29 12t12 29t-12.5 29t-29.5 12q-16 0 -28.5 -12t-12.5 -28q0 -17 12.5 -29.5t29.5 -12.5zM13 0l197 466l195 -466h-44l-59 142h-186 l-59 -142h-44zM133 180h152l-75 185z" />
<glyph unicode="&#xe6;" horiz-adv-x="589" d="M13 0l179 443h209l15 -38h-184l59 -144h180l15 -38h-180l76 -185h184l16 -38h-229l-57 141h-183l-56 -141h-44zM129 179h151l-76 190z" />
<glyph unicode="&#xe7;" horiz-adv-x="494" d="M47 218q0 94 70 161.5t167 67.5q84 0 157 -60v-57q-70 80 -157 80q-79 0 -137.5 -57.5t-58.5 -135.5q0 -76 58.5 -133t137.5 -57q87 0 157 76v-56q-76 -57 -155 -57q-97 0 -168 67.5t-71 160.5zM195 -178l82 128l49 -20l-97 -124z" />
<glyph unicode="&#xe8;" horiz-adv-x="375" d="M202 489l-105 128l44 25l91 -137zM90 0v443h232v-38h-192v-144h188v-38h-188v-185h192v-38h-232z" />
<glyph unicode="&#xe9;" horiz-adv-x="375" d="M210 489l-29 16l91 137l44 -25zM90 0v443h232v-38h-192v-144h188v-38h-188v-185h192v-38h-232z" />
<glyph unicode="&#xea;" horiz-adv-x="375" d="M121 489l-32 25l121 94l122 -94l-33 -25l-89 68zM90 0v443h232v-38h-192v-144h187v-38h-187v-185h192v-38h-232z" />
<glyph unicode="&#xeb;" horiz-adv-x="375" d="M298 511q-16 0 -26.5 11t-10.5 26q0 14 11 25t26 11q14 0 25 -10.5t11 -25.5t-11 -26t-25 -11zM132 511q-15 0 -26 11t-11 26t11 25.5t26 10.5t25.5 -10.5t10.5 -25.5t-11 -26t-25 -11zM90 0v443h232v-38h-192v-144h188v-38h-188v-185h192v-38h-232z" />
<glyph unicode="&#xec;" horiz-adv-x="220" d="M104 489l-105 128l44 25l91 -137zM90 0v443h40v-443h-40z" />
<glyph unicode="&#xed;" horiz-adv-x="220" d="M112 489l-29 16l91 137l44 -25zM90 0v443h40v-443h-40z" />
<glyph unicode="&#xee;" horiz-adv-x="220" d="M24 489l-32 25l121 94l122 -94l-33 -25l-89 68zM90 0v443h40v-443h-40z" />
<glyph unicode="&#xef;" horiz-adv-x="220" d="M173 511q-15 0 -26 11t-11 26t11 25.5t26 10.5t25.5 -10.5t10.5 -25.5t-11 -26t-25 -11zM54 511q-15 0 -26 11t-11 26t11 25.5t26 10.5t25.5 -10.5t10.5 -25.5t-11 -26t-25 -11zM90 0v443h40v-443h-40z" />
<glyph unicode="&#xf0;" horiz-adv-x="469" d="M90 0v204h-57v38h57v201h98q104 0 167 -62q67 -64 67 -159t-67 -160q-63 -62 -167 -62h-98zM130 38h57q85 0 139.5 51.5t54.5 131.5q0 81 -54.5 132.5t-139.5 51.5h-57v-163h112v-38h-112v-166z" />
<glyph unicode="&#xf1;" horiz-adv-x="595" d="M206 509l-26 19q25 57 70 57q20 0 59 -17q43 -18 57 -18q28 0 43 37l26 -20q-9 -26 -28.5 -41.5t-43.5 -15.5q-16 0 -56 17q-42 18 -62 18q-26 0 -39 -36zM90 0v457l375 -379v365h40v-463l-375 379v-359h-40z" />
<glyph unicode="&#xf2;" horiz-adv-x="566" d="M278 489l-105 128l44 25l91 -137zM47 222q0 91 70.5 158t165.5 67q97 0 167 -67.5t70 -160.5q0 -94 -70 -161.5t-168 -67.5q-97 0 -166 68.5t-69 163.5zM88 222q0 -80 57 -137.5t137 -57.5q81 0 139 56.5t58 135.5q0 78 -58 134.5t-138 56.5q-79 0 -137 -56t-58 -132z " />
<glyph unicode="&#xf3;" horiz-adv-x="566" d="M286 489l-29 16l91 137l44 -25zM47 222q0 91 70.5 158t165.5 67q97 0 167 -67.5t70 -160.5q0 -94 -70 -161.5t-168 -67.5q-97 0 -166 68.5t-69 163.5zM88 222q0 -80 57 -137.5t137 -57.5q81 0 139 56.5t58 135.5q0 78 -58 134.5t-138 56.5q-79 0 -137 -56t-58 -132z" />
<glyph unicode="&#xf4;" horiz-adv-x="566" d="M200 489l-32 25l121 94l122 -94l-33 -25l-89 68zM47 222q0 91 70.5 158t165.5 67q97 0 167 -67.5t70 -160.5q0 -94 -70 -161.5t-168 -67.5q-97 0 -166 68.5t-69 163.5zM88 222q0 -80 57 -137.5t137 -57.5q81 0 139 56.5t58 135.5q0 78 -58 134.5t-138 56.5 q-79 0 -137 -56t-58 -132z" />
<glyph unicode="&#xf5;" horiz-adv-x="566" d="M192 509l-26 19q25 57 70 57q20 0 59 -17q43 -18 57 -18q28 0 43 37l26 -20q-9 -26 -28.5 -41.5t-43.5 -15.5q-16 0 -56 17q-42 18 -62 18q-26 0 -39 -36zM47 222q0 91 70.5 158t165.5 67q97 0 167 -67.5t70 -160.5q0 -94 -70 -161.5t-168 -67.5q-97 0 -166 68.5 t-69 163.5zM88 222q0 -80 57 -137.5t137 -57.5q81 0 139 56.5t58 135.5q0 78 -58 134.5t-138 56.5q-79 0 -137 -56t-58 -132z" />
<glyph unicode="&#xf6;" horiz-adv-x="566" d="M370 511q-16 0 -26.5 11t-10.5 26q0 14 11 25t26 11q14 0 25 -10.5t11 -25.5t-11 -26t-25 -11zM204 511q-15 0 -26 11t-11 26t11 25.5t26 10.5t25.5 -10.5t10.5 -25.5t-11 -26t-25 -11zM47 222q0 91 70.5 158t165.5 67q97 0 167 -67.5t70 -160.5q0 -94 -70 -161.5 t-168 -67.5q-97 0 -166 68.5t-69 163.5zM88 222q0 -80 57 -137.5t137 -57.5q81 0 139 56.5t58 135.5q0 78 -58 134.5t-138 56.5q-79 0 -137 -56t-58 -132z" />
<glyph unicode="&#xf7;" horiz-adv-x="547" d="M273 407q-15 0 -26 11t-11 26q0 14 11 25t26 11t25.5 -10.5t10.5 -25.5t-11 -26t-25 -11zM31 320v40h484v-40h-484zM236 231q0 14 11 25t26 11t25.5 -10.5t10.5 -25.5t-11 -26t-25 -11q-15 0 -26 11t-11 26z" />
<glyph unicode="&#xf8;" horiz-adv-x="579" d="M58 11l56 55q-61 67 -61 153q0 93 70 160.5t166 67.5q82 0 151 -54l56 56l25 -25l-55 -55q60 -64 60 -151q0 -93 -70 -160.5t-166 -67.5q-83 0 -151 53l-57 -56zM141 94l271 272q-57 44 -123 44q-80 0 -137.5 -56.5t-57.5 -134.5q0 -70 47 -125zM166 71q58 -44 124 -44 q80 0 137.5 56.5t57.5 134.5q0 68 -47 124z" />
<glyph unicode="&#xf9;" horiz-adv-x="499" d="M244 489l-105 128l44 25l91 -137zM115 51q-15 20 -20 41.5t-5 64.5v286h40v-278q0 -67 15 -91q14 -21 43 -34t62 -13q32 0 61 13t42 34q16 23 16 91v278h40v-286q0 -43 -5 -64.5t-20 -41.5q-45 -61 -134 -61q-90 0 -135 61z" />
<glyph unicode="&#xfa;" horiz-adv-x="499" d="M252 489l-29 16l91 137l44 -25zM115 51q-15 20 -20 41.5t-5 64.5v286h40v-278q0 -67 15 -91q14 -21 43 -34t62 -13q32 0 61 13t42 34q16 23 16 91v278h40v-286q0 -43 -5 -64.5t-20 -41.5q-45 -61 -134 -61q-90 0 -135 61z" />
<glyph unicode="&#xfb;" horiz-adv-x="499" d="M166 489l-32 25l121 94l122 -94l-33 -25l-89 68zM115 51q-15 20 -20 41.5t-5 64.5v286h40v-278q0 -67 15 -91q14 -21 43 -34t62 -13q32 0 61 13t42 34q16 23 16 91v278h40v-286q0 -43 -5 -64.5t-20 -41.5q-45 -61 -134 -61q-90 0 -135 61z" />
<glyph unicode="&#xfc;" horiz-adv-x="499" d="M336 511q-16 0 -26.5 11t-10.5 26q0 14 11 25t26 11q14 0 25 -10.5t11 -25.5t-11 -26t-25 -11zM170 511q-15 0 -26 11t-11 26t11 25.5t26 10.5t25.5 -10.5t10.5 -25.5t-11 -26t-25 -11zM115 51q-15 20 -20 41.5t-5 64.5v286h40v-278q0 -67 15 -91q14 -21 43 -34t62 -13 q32 0 61 13t42 34q16 23 16 91v278h40v-286q0 -43 -5 -64.5t-20 -41.5q-45 -61 -134 -61q-90 0 -135 61z" />
<glyph unicode="&#xfd;" horiz-adv-x="376" d="M190 489l-29 16l91 137l44 -25zM165 0v189l-152 254h46l127 -213l129 213h47l-157 -255v-188h-40z" />
<glyph unicode="&#xfe;" horiz-adv-x="357" d="M90 0v443h40v-100h56q68 0 104 -35q34 -34 34 -84q0 -55 -37 -87t-101 -32h-56v-105h-40zM130 143h57q44 0 70 22t26 59q0 81 -100 81h-53v-162z" />
<glyph unicode="&#xff;" horiz-adv-x="376" d="M275 511q-16 0 -26.5 11t-10.5 26q0 14 11 25t26 11q14 0 25 -10.5t11 -25.5t-11 -26t-25 -11zM109 511q-15 0 -26 11t-11 26t11 25.5t26 10.5t25.5 -10.5t10.5 -25.5t-11 -26t-25 -11zM165 0v189l-152 254h46l127 -213l129 213h47l-157 -255v-188h-40z" />
<glyph unicode="&#x152;" horiz-adv-x="1071" d="M53 333q0 140 102.5 241.5t244.5 101.5q95 0 175 -48.5t124 -133.5v173h319v-40h-276v-242h269v-40h-269v-305h276v-40h-319v172q-44 -85 -124 -134t-174 -49q-142 0 -245 102t-103 242zM198 109q88 -79 198 -79q124 0 213 89t89 214t-87.5 213.5t-210.5 88.5 q-121 0 -211.5 -89.5t-90.5 -209.5q0 -136 100 -227z" />
<glyph unicode="&#x153;" horiz-adv-x="749" d="M47 218q0 94 69 161t165 67q71 0 127 -38q29 -19 64 -63v98h224v-38h-184v-144h180v-38h-180v-185h184v-38h-224v91q-48 -57 -86 -76q-50 -25 -105 -25q-95 0 -164.5 68t-69.5 160zM88 220q0 -79 56.5 -136t134.5 -57q80 0 136.5 56t56.5 135q0 78 -56 134.5t-135 56.5 q-77 0 -135 -56.5t-58 -132.5z" />
<glyph unicode="&#x178;" horiz-adv-x="514" d="M353 738q-17 0 -28 11t-11 28q0 16 11.5 27t27.5 11t27 -11t11 -27t-11 -27.5t-27 -11.5zM167 738q-17 0 -28 11t-11 28q0 16 11.5 27t27.5 11t27 -11t11 -27t-11 -27.5t-27 -11.5zM231 0v285l-218 382h50l190 -335l195 335h51l-225 -382v-285h-43z" />
<glyph unicode="&#x2c6;" d="M160 489l-32 25l121 94l122 -94l-33 -25l-89 68z" />
<glyph unicode="&#x2dc;" d="M149 509l-26 19q25 57 70 57q20 0 59 -17q43 -18 57 -18q28 0 43 37l26 -20q-9 -26 -28.5 -41.5t-43.5 -15.5q-16 0 -56 17q-42 18 -62 18q-26 0 -39 -36z" />
<glyph unicode="&#x2000;" horiz-adv-x="433" />
<glyph unicode="&#x2001;" horiz-adv-x="867" />
<glyph unicode="&#x2002;" horiz-adv-x="433" />
<glyph unicode="&#x2003;" horiz-adv-x="867" />
<glyph unicode="&#x2004;" horiz-adv-x="289" />
<glyph unicode="&#x2005;" horiz-adv-x="216" />
<glyph unicode="&#x2006;" horiz-adv-x="144" />
<glyph unicode="&#x2007;" horiz-adv-x="144" />
<glyph unicode="&#x2008;" horiz-adv-x="108" />
<glyph unicode="&#x2009;" horiz-adv-x="173" />
<glyph unicode="&#x200a;" horiz-adv-x="48" />
<glyph unicode="&#x2010;" horiz-adv-x="168" d="M0 187v40h168v-40h-168z" />
<glyph unicode="&#x2011;" horiz-adv-x="168" d="M0 187v40h168v-40h-168z" />
<glyph unicode="&#x2012;" horiz-adv-x="168" d="M0 187v40h168v-40h-168z" />
<glyph unicode="&#x2013;" horiz-adv-x="547" d="M125 187v40h297v-40h-297z" />
<glyph unicode="&#x2014;" horiz-adv-x="505" d="M0 187v40h505v-40h-505z" />
<glyph unicode="&#x2018;" horiz-adv-x="227" d="M103 493l-40 12l74 200l26 -10z" />
<glyph unicode="&#x2019;" horiz-adv-x="227" d="M89 493l-26 9l60 203l40 -12z" />
<glyph unicode="&#x201a;" horiz-adv-x="227" d="M123 65l40 -12l-74 -200l-26 10z" />
<glyph unicode="&#x201c;" horiz-adv-x="343" d="M179 505l74 200l26 -10l-60 -202zM103 493l-40 12l74 200l26 -10z" />
<glyph unicode="&#x201d;" horiz-adv-x="343" d="M179 502l60 203l40 -12l-74 -200zM89 493l-26 9l60 203l40 -12z" />
<glyph unicode="&#x201e;" horiz-adv-x="343" d="M179 -137l60 202l40 -12l-74 -200zM123 65l40 -12l-74 -200l-26 10z" />
<glyph unicode="&#x2022;" horiz-adv-x="667" d="M335 200q-57 0 -98 41t-41 97q0 58 41 98.5t100 40.5q55 0 95.5 -41t40.5 -97q0 -58 -40.5 -98.5t-97.5 -40.5z" />
<glyph unicode="&#x2026;" horiz-adv-x="641" d="M497 30q0 14 11 25t26 11t25.5 -10.5t10.5 -25.5t-11 -26t-25 -11q-15 0 -26 11t-11 26zM283 30q0 15 11 25.5t26 10.5t25.5 -10.5t10.5 -25.5t-11 -26t-25 -11q-15 0 -26 11t-11 26zM70 30q0 15 11 25.5t26 10.5t25.5 -10.5t10.5 -25.5t-11 -26t-25 -11q-15 0 -26 11 t-11 26z" />
<glyph unicode="&#x202f;" horiz-adv-x="173" />
<glyph unicode="&#x2039;" horiz-adv-x="241" d="M162 57l-129 150l129 149l25 -24l-106 -125l106 -126z" />
<glyph unicode="&#x203a;" horiz-adv-x="241" d="M78 57l-25 24l107 126l-107 125l25 24l129 -149z" />
<glyph unicode="&#x205f;" horiz-adv-x="216" />
<glyph unicode="&#x20ac;" horiz-adv-x="561" d="M48 193l17 41h34q-1 8 -1 19v12h-50l17 41h38q20 94 86 152.5t154 58.5q97 0 170 -78l-17 -41q-64 82 -156 82q-71 0 -125 -48t-71 -126h312l-17 -41h-301v-15q0 -7 1 -16h287l-17 -41h-265q19 -74 73 -120t124 -46q94 0 154 82v-58q-70 -61 -155 -61q-83 0 -150.5 58.5 t-84.5 144.5h-57z" />
<glyph unicode="&#x2122;" horiz-adv-x="721" d="M267 287l45 411l162 -348l164 347l45 -410h-37l-31 277l-141 -299l-140 299l-30 -277h-37zM95 287v345h-94v35h227v-35h-96v-345h-37z" />
<glyph unicode="&#x25fc;" horiz-adv-x="445" d="M0 445h445v-445h-445v445z" />
</font>
</defs>
</svg>
