<?xml version="1.0" standalone="no"?>
<!DOCTYPE svg PUBLIC "-//W3C//DTD SVG 1.1//EN" "http://www.w3.org/Graphics/SVG/1.1/DTD/svg11.dtd" >
<svg xmlns="http://www.w3.org/2000/svg">
<metadata></metadata>
<defs>
<font id="function_prolight_condensed" horiz-adv-x="366" >
<font-face units-per-em="1000" ascent="753" descent="-247" />
<missing-glyph horiz-adv-x="187" />
<glyph unicode="&#xfb01;" horiz-adv-x="350" d="M67 0v400h-51v53h51v168q0 60 23 88q22 27 62 27q27 0 51 -10v-62q-26 19 -41 19q-20 0 -30 -15q-8 -10 -8 -47v-168h79v-53h-79v-400h-57zM272 545q-18 0 -30.5 13t-12.5 30q0 18 12.5 30.5t30.5 12.5t30.5 -13t12.5 -30t-13 -30t-30 -13zM243 0v453h57v-453h-57z" />
<glyph unicode="&#xfb02;" horiz-adv-x="350" d="M67 0v400h-51v53h51v168q0 60 23 88q22 27 62 27q27 0 51 -10v-62q-26 19 -41 19q-20 0 -30 -15q-8 -10 -8 -47v-168h79v-53h-79v-400h-57zM243 0v729h57v-729h-57z" />
<glyph horiz-adv-x="1000" />
<glyph horiz-adv-x="1000" />
<glyph unicode="&#xd;" horiz-adv-x="1000" />
<glyph unicode=" "  horiz-adv-x="187" />
<glyph unicode="&#x09;" horiz-adv-x="187" />
<glyph unicode="&#xa0;" horiz-adv-x="187" />
<glyph unicode="!" horiz-adv-x="237" d="M88 167v500h60v-500h-60zM73 38q0 19 13 32t32 13t32 -13t13 -32t-13.5 -32t-32.5 -13q-18 0 -31 13.5t-13 31.5z" />
<glyph unicode="&#x22;" horiz-adv-x="313" d="M200 402l-14 265h74l-13 -265h-47zM66 402l-13 265h74l-13 -265h-48z" />
<glyph unicode="#" horiz-adv-x="367" d="M52 0l29 220h-77v56h84l17 128h-76v56h83l28 207h53l-28 -207h69l28 207h54l-28 -207h74v-56h-81l-17 -128h75v-56h-83l-28 -220h-54l29 220h-69l-29 -220h-53zM141 276h70l16 128h-69z" />
<glyph unicode="$" d="M41 49l36 43q55 -44 97 -44q44 0 73.5 33t29.5 82q0 43 -23 74q-16 23 -86 65q-43 25 -62.5 40t-35.5 35q-39 49 -39 116q0 131 122 161v77h49v-76q55 -2 105 -39l-31 -47q-49 31 -88 31q-44 0 -71.5 -28.5t-27.5 -74.5q0 -51 31 -87q22 -23 88 -62q73 -41 96 -76 q31 -43 31 -106q0 -66 -37 -114t-96 -58v-85h-49v83q-39 7 -63 19t-49 38z" />
<glyph unicode="%" horiz-adv-x="503" d="M121 329q-81 0 -81 165q0 86 22.5 132t64.5 46q39 0 57 -39.5t18 -123.5q0 -180 -81 -180zM89 0l289 667h36l-289 -667h-36zM123 363q42 0 42 151q0 124 -40 124q-22 0 -35 -38.5t-13 -104.5q0 -132 46 -132zM301 160q0 86 22.5 132t64.5 46q39 0 57 -39.5t18 -123.5 q0 -180 -81 -180t-81 165zM338 161q0 -132 46 -132q42 0 42 151q0 124 -40 124q-22 0 -35 -38.5t-13 -104.5z" />
<glyph unicode="&#x26;" horiz-adv-x="444" d="M343 0l-19 37q-50 -46 -111 -46q-67 0 -113.5 52.5t-46.5 128.5q0 55 23 100t76 92q-62 110 -62 168q0 55 38.5 93t93.5 38q52 0 86 -35.5t34 -88.5q0 -45 -26 -86t-91 -99l115 -218q9 10 46 56l41 -42q-25 -33 -59 -69l41 -81h-66zM196 402l6 5q36 27 58.5 64.5 t22.5 69.5q0 29 -18.5 48.5t-45.5 19.5q-31 0 -51.5 -21.5t-20.5 -53.5q0 -25 8.5 -48.5t33.5 -69.5zM295 90l-116 220q-69 -73 -69 -139q0 -49 29.5 -84t71.5 -35t84 38z" />
<glyph unicode="'" horiz-adv-x="180" d="M66 402l-13 265h74l-13 -265h-48z" />
<glyph unicode="(" horiz-adv-x="260" d="M171 -181q-54 98 -86 222t-32 237q0 114 32 238t86 222l49 -24q-110 -223 -110 -436q0 -212 110 -435z" />
<glyph unicode=")" horiz-adv-x="260" d="M40 -157q111 226 111 435q0 210 -111 436l49 24q55 -98 86.5 -221.5t31.5 -238.5q0 -114 -31.5 -238t-86.5 -221z" />
<glyph unicode="*" horiz-adv-x="367" d="M113 458l-29 21l70 97l-113 37l10 33l114 -36v119h35v-119l114 36l11 -33l-114 -37l70 -97l-29 -21l-69 97z" />
<glyph unicode="+" horiz-adv-x="367" d="M155 191v122h-122v55h122v121h57v-121h121v-55h-121v-122h-57z" />
<glyph unicode="," horiz-adv-x="177" d="M75 83l62 -28l-88 -197l-43 20z" />
<glyph unicode="-" horiz-adv-x="138" d="M0 202v70h138v-70h-138z" />
<glyph unicode="." horiz-adv-x="177" d="M43 39q0 18 13.5 31t31.5 13q19 0 32 -13t13 -32t-13 -32t-32 -13t-32 13.5t-13 32.5z" />
<glyph unicode="/" horiz-adv-x="408" d="M-13 -173l391 902h57l-390 -902h-58z" />
<glyph unicode="0" d="M182 -9q-73 0 -111 84t-38 244q0 173 41.5 265t119.5 92q72 0 105.5 -78.5t33.5 -247.5q0 -359 -151 -359zM122 104q20 -56 64 -56q34 0 53 39q14 28 24 108t10 167q0 257 -82 257q-37 0 -57 -41q-41 -82 -41 -255q0 -135 29 -219z" />
<glyph unicode="1" d="M162 0v609h-86l13 58h135v-667h-62z" />
<glyph unicode="2" horiz-adv-x="365" d="M37 0l137 283q48 98 64.5 148t16.5 95q0 44 -18.5 68.5t-52.5 24.5q-77 0 -77 -119q0 -8 1 -15h-61q1 66 10 95q12 45 45 70.5t80 25.5q62 0 99 -40.5t37 -108.5q0 -56 -17 -108t-71 -158l-102 -202h182v-59h-273z" />
<glyph unicode="3" d="M41 157l1 26h61q1 -73 18 -102.5t59 -29.5q40 0 59 34t19 107q0 146 -111 146h-30v55h26q53 0 75 21q32 29 32 103q0 99 -73 99q-37 0 -53 -24.5t-17 -80.5h-58q1 79 34 122t94 43q66 0 103 -45q30 -38 30 -109q0 -117 -76 -153q44 -19 64 -63.5t20 -124.5 q0 -190 -137 -190q-70 0 -106.5 42t-33.5 124z" />
<glyph unicode="4" d="M37 179v63l176 425h61v-431h50v-57h-50v-179h-61v179h-176zM96 236h117v210q0 38 7 123q-11 -45 -38 -114z" />
<glyph unicode="5" d="M48 29l17 61q52 -38 96 -38q42 0 68 40.5t26 105.5q0 71 -28 110.5t-78 39.5q-40 0 -90 -27l41 346h199v-58h-144l-24 -204q24 3 36 3q68 0 109.5 -57.5t41.5 -152.5q0 -94 -43 -150.5t-114 -56.5q-61 0 -113 38z" />
<glyph unicode="6" d="M264 667l-130 -312q35 23 66 23q57 0 89 -52.5t32 -146.5q0 -188 -134 -188q-67 0 -104 50.5t-37 142.5q0 112 54 241l100 242h64zM189 45q72 0 72 143q0 137 -78 137q-37 0 -57 -36t-20 -103q0 -68 21.5 -104.5t61.5 -36.5z" />
<glyph unicode="7" d="M59 0l188 609h-192v58h274l-205 -667h-65z" />
<glyph unicode="8" d="M180 -9q-65 0 -101 51t-36 143q0 150 84 184q-69 45 -69 143q0 76 36 120t98 44q59 0 92.5 -43t33.5 -119q0 -105 -70 -145q40 -22 58 -64t18 -115q0 -97 -37 -148t-107 -51zM189 397q33 0 51 28.5t18 81.5t-18.5 82.5t-52.5 29.5q-69 0 -69 -103q0 -119 71 -119zM183 48 q81 0 81 150q0 68 -21 105.5t-59 37.5t-59.5 -39.5t-21.5 -110.5q0 -143 80 -143z" />
<glyph unicode="9" d="M102 0l131 312q-35 -23 -66 -23q-57 0 -89 52.5t-32 146.5q0 188 134 188q67 0 104 -50.5t37 -142.5q0 -111 -54 -241l-100 -242h-65zM184 342q37 0 57 36.5t20 103.5t-21.5 104t-61.5 37q-72 0 -72 -143q0 -138 78 -138z" />
<glyph unicode=":" horiz-adv-x="177" d="M88 370q-19 0 -32 13.5t-13 32.5q0 18 13.5 31t31.5 13q19 0 32 -13t13 -32t-13 -32t-32 -13zM43 39q0 18 13.5 31t31.5 13q19 0 32 -13t13 -32t-13 -32t-32 -13t-32 13.5t-13 32.5z" />
<glyph unicode=";" horiz-adv-x="177" d="M92 370q-19 0 -32 13.5t-13 32.5q0 18 13.5 31t31.5 13q19 0 32 -13t13 -32t-13 -32t-32 -13zM75 83l62 -28l-88 -197l-43 20z" />
<glyph unicode="&#x3c;" horiz-adv-x="500" d="M33 309v53l433 199v-60l-368 -165l368 -166v-59z" />
<glyph unicode="=" d="M33 366v55h300v-55h-300zM33 260v55h300v-55h-300z" />
<glyph unicode="&#x3e;" horiz-adv-x="500" d="M34 110v61l368 165l-368 165v60l433 -199v-53z" />
<glyph unicode="?" horiz-adv-x="332" d="M104 167v214h42q44 0 57.5 26t13.5 110q0 59 -11.5 82t-40.5 23q-53 0 -53 -82v-42h-59v47q0 131 115 131q61 0 87 -39q23 -34 23 -114q0 -124 -34 -162q-26 -31 -81 -34v-160h-59zM91 38q0 18 13 31.5t32 13.5t32 -13t13 -32t-13.5 -32t-32.5 -13q-18 0 -31 13.5 t-13 31.5z" />
<glyph unicode="@" horiz-adv-x="661" d="M527 96l24 -51q-95 -54 -198 -54q-98 0 -172 47q-70 44 -110 123.5t-40 172.5q0 145 88 243.5t217 98.5q118 0 199 -84.5t81 -208.5q0 -97 -46 -167.5t-109 -70.5q-23 0 -42 16t-23 38l-3 14q-26 -42 -44 -56t-46 -14q-49 0 -81.5 50t-32.5 126q0 82 39.5 137.5 t98.5 55.5q44 0 67 -40l14 -28l7 59h52l-26 -222q-4 -36 -4 -46q0 -40 34 -40q37 0 66 55.5t29 125.5q0 107 -65 176.5t-166 69.5q-104 0 -175 -83.5t-71 -205.5q0 -79 33 -146.5t91 -105.5q59 -38 139 -38q91 0 175 53zM307 195q35 0 62 46t27 107q0 49 -18 80.5t-46 31.5 q-36 0 -60 -41t-24 -102q0 -53 16.5 -87.5t42.5 -34.5z" />
<glyph unicode="A" horiz-adv-x="325" d="M1 0l131 667h58l134 -667h-66l-26 137h-141l-24 -137h-66zM101 190h122l-44 236q-15 82 -19 157q-8 -108 -17 -157z" />
<glyph unicode="B" horiz-adv-x="351" d="M55 0v667h98q68 0 97 -22q52 -41 52 -147q0 -63 -19.5 -99t-63.5 -57q55 -15 76.5 -51t21.5 -111q0 -111 -54 -152q-22 -16 -46 -22t-70 -6h-92zM117 372h33q50 0 69.5 27t19.5 95t-17.5 94t-64.5 26h-40v-242zM117 53h33q56 0 80 29.5t24 96.5q0 138 -101 138h-36v-264z " />
<glyph unicode="C" horiz-adv-x="320" d="M302 82v-63q-43 -28 -87 -28q-34 0 -66.5 18t-53.5 48q-57 82 -57 255q0 206 59 298q45 67 125 67q48 0 80 -22v-68q-44 30 -77 30q-29 0 -52.5 -16.5t-36.5 -44.5q-34 -73 -34 -219q0 -172 43 -244q25 -41 75 -41q36 0 82 30z" />
<glyph unicode="D" horiz-adv-x="371" d="M55 0v667h78q116 0 158 -69.5t42 -264.5q0 -117 -12 -179t-43 -101q-43 -53 -141 -53h-82zM117 57h29q52 0 77 28q27 29 37 76.5t10 147.5q0 164 -20 226q-13 40 -38 57.5t-68 17.5h-27v-553z" />
<glyph unicode="E" horiz-adv-x="301" d="M55 0v667h209v-57h-147v-235h143v-57h-143v-261h147v-57h-209z" />
<glyph unicode="F" horiz-adv-x="295" d="M55 0v667h213v-57h-151v-235h143v-57h-143v-318h-62z" />
<glyph unicode="G" horiz-adv-x="374" d="M336 352v-134q0 -98 -16 -140q-35 -87 -126 -87q-68 0 -106 50q-50 67 -50 306q0 179 41 257q18 34 50 53t71 19q65 0 101 -47q21 -29 34 -79l-61 -24q-10 49 -27 69.5t-48 20.5q-52 0 -75 -62t-23 -199q0 -167 21 -239q19 -64 75 -64q44 0 63 39q14 31 14 142v62h-91v57 h153z" />
<glyph unicode="H" horiz-adv-x="385" d="M55 0v667h62v-266h152v266h62v-667h-62v344h-152v-344h-62z" />
<glyph unicode="I" horiz-adv-x="171" d="M55 0v667h62v-667h-62z" />
<glyph unicode="J" horiz-adv-x="224" d="M1 8v64q32 -29 61 -29q34 0 41 27q4 10 4 57v540h62v-553q0 -43 -2.5 -60t-12.5 -30q-23 -34 -82 -34q-34 0 -71 18z" />
<glyph unicode="K" horiz-adv-x="329" d="M55 0v667h62v-303l134 303h69l-144 -317l145 -350h-70l-134 336v-336h-62z" />
<glyph unicode="L" horiz-adv-x="263" d="M55 0v667h62v-610h145v-57h-207z" />
<glyph unicode="M" horiz-adv-x="499" d="M21 0l94 667h53l72 -457q10 -57 12 -106q4 53 13 104l78 459h53l81 -667h-60l-47 433q-5 50 -6 121q0 -3 -0.5 -6.5t-1.5 -5.5v-2l-2 -27q-2 -29 -10 -80l-75 -433h-50l-71 434q-7 47 -10 98q0 1 -0.5 4.5t-1 8.5t-0.5 9q-2 -89 -6 -120l-54 -434h-61z" />
<glyph unicode="N" horiz-adv-x="387" d="M55 0v667h54l151 -453l24 -79q-6 54 -6 97v435h54v-667h-54l-147 440q-4 12 -28 94q6 -74 6 -118v-416h-54z" />
<glyph unicode="O" horiz-adv-x="404" d="M202 -9q-164 0 -164 343q0 208 62 291q39 51 102 51q84 0 124 -84.5t40 -261.5q0 -339 -164 -339zM203 52q53 0 76.5 66t23.5 214q0 150 -23.5 217t-76.5 67q-102 0 -102 -282t102 -282z" />
<glyph unicode="P" horiz-adv-x="329" d="M55 0v667h80q92 0 130.5 -40.5t38.5 -136.5q0 -95 -36 -133t-125 -38h-26v-319h-62zM117 376h41q46 0 64.5 25t18.5 89q0 67 -20.5 93.5t-72.5 26.5h-31v-234z" />
<glyph unicode="Q" horiz-adv-x="404" d="M317 -49l-40 62q-29 -22 -76 -22q-163 0 -163 343q0 342 164 342t164 -336q0 -207 -49 -282l49 -76zM234 188l46 -72q23 75 23 213q0 153 -23.5 220t-76.5 67q-102 0 -102 -282t103 -282q23 0 40 12l-59 92z" />
<glyph unicode="R" horiz-adv-x="376" d="M59 0v667h83q56 0 86.5 -7.5t52.5 -27.5q48 -42 48 -142q0 -82 -31.5 -123.5t-99.5 -46.5l154 -320h-71l-155 326v-326h-67zM126 375h42q51 0 72 26t21 90q0 67 -22.5 93t-78.5 26h-34v-235z" />
<glyph unicode="S" horiz-adv-x="347" d="M50 25v80q53 -54 108 -54q44 0 72.5 33.5t28.5 85.5q0 44 -21 72.5t-84 71.5q-70 47 -96.5 87.5t-26.5 97.5q0 76 43.5 126.5t109.5 50.5q55 0 105 -35v-79q-27 30 -49 42t-50 12q-42 0 -69 -31t-27 -78q0 -41 20 -71.5t67 -61.5q83 -57 112 -97t29 -99q0 -79 -48 -133.5 t-119 -54.5q-60 0 -105 35z" />
<glyph unicode="T" horiz-adv-x="265" d="M101 0v610h-100v57h262v-57h-100v-610h-62z" />
<glyph unicode="U" horiz-adv-x="390" d="M336 667v-467q0 -108 -22 -146q-35 -63 -119 -63q-90 0 -123 73q-17 35 -17 136v467h62v-462q0 -63 4 -88t16 -40q22 -25 59 -25q39 0 60 29q18 24 18 124v462h62z" />
<glyph unicode="V" horiz-adv-x="326" d="M135 0l-134 667h63l84 -442q9 -48 16 -134q8 85 16 132l81 444h63l-135 -667h-54z" />
<glyph unicode="W" horiz-adv-x="506" d="M107 0l-106 667h63l61 -420q5 -29 10 -108q0 -8 1 -17l4 31l3 21q7 56 12 78l72 415h53l62 -422q4 -29 7.5 -56t6.5 -47l3 -20q2 36 16 126l66 419h63l-118 -667h-56l-65 434q-9 60 -12 124q0 -4 -0.5 -8t-1 -6t-0.5 -3l-2 -21q-5 -59 -11 -89l-74 -431h-57z" />
<glyph unicode="X" horiz-adv-x="318" d="M1 0l129 339l-129 328h66l60 -165q21 -56 32 -117q4 32 32 113l59 169h67l-127 -328l127 -339h-67l-65 189q-22 63 -26 95q-3 -19 -29 -97l-63 -187h-66z" />
<glyph unicode="Y" horiz-adv-x="316" d="M131 0v292l-130 375h67l63 -195q18 -54 31 -119q8 50 29 122l57 192h67l-122 -375v-292h-62z" />
<glyph unicode="Z" horiz-adv-x="279" d="M8 0l185 610h-167v57h245l-186 -610h168v-57h-245z" />
<glyph unicode="[" horiz-adv-x="267" d="M132 -126h102v-47h-161v902h161v-47h-102v-808z" />
<glyph unicode="\" horiz-adv-x="408" d="M363 -173l-390 902h57l391 -902h-58z" />
<glyph unicode="]" horiz-adv-x="267" d="M33 -126h102v808h-102v47h161v-902h-161v47z" />
<glyph unicode="^" horiz-adv-x="500" d="M30 372l181 296h79l180 -296h-66l-155 249l-153 -249h-66z" />
<glyph unicode="_" horiz-adv-x="500" d="M0 -70h500v-56h-500v56z" />
<glyph unicode="`" horiz-adv-x="500" d="M249 507l-104 104l50 41l90 -118z" />
<glyph unicode="a" horiz-adv-x="331" d="M224 0v36q-33 -43 -78 -43q-52 0 -76 42q-31 53 -31 196q0 122 26.5 175.5t86.5 53.5q41 0 72 -38v31h57v-453h-57zM164 40q37 0 51 41t14 153q0 100 -14 139.5t-50 39.5q-35 0 -51 -41.5t-16 -133.5q0 -112 14.5 -155t51.5 -43z" />
<glyph unicode="b" horiz-adv-x="325" d="M50 0v729h57v-307q30 38 72 38q61 0 87 -52.5t26 -174.5q0 -129 -24.5 -184.5t-82.5 -55.5q-45 0 -78 43v-36h-57zM167 40q37 0 51.5 42.5t14.5 155.5q0 92 -16 133.5t-51 41.5t-49.5 -39.5t-14.5 -135.5q0 -115 13.5 -156.5t51.5 -41.5z" />
<glyph unicode="c" horiz-adv-x="248" d="M228 87v-71q-29 -23 -65 -23q-51 0 -85 47q-45 61 -45 178q0 115 35 178.5t98 63.5q33 0 62 -17v-67q-30 31 -56 31q-38 0 -59 -48.5t-21 -135.5q0 -80 21.5 -128.5t56.5 -48.5q28 0 58 41z" />
<glyph unicode="d" horiz-adv-x="325" d="M218 0v36q-33 -43 -78 -43q-52 0 -76 42q-31 53 -31 196q0 122 26.5 175.5t86.5 53.5q41 0 72 -38v307h57v-729h-57zM158 40q37 0 51 41.5t14 152.5q0 99 -14.5 139t-49.5 40t-51 -41.5t-16 -133.5q0 -112 14.5 -155t51.5 -43z" />
<glyph unicode="e" horiz-adv-x="317" d="M222 154h57q-3 -79 -32 -120t-82 -41q-64 0 -98 59.5t-34 172.5q0 110 34 172.5t93 62.5q58 0 90.5 -57t32.5 -160v-28h-192q-1 -81 17.5 -125t52.5 -44q29 0 43.5 25.5t17.5 82.5zM92 263h134q-1 47 -10 87q-6 26 -20.5 41.5t-33.5 15.5q-64 0 -70 -144z" />
<glyph unicode="f" horiz-adv-x="206" d="M67 0v400h-51v53h51v168q0 60 23 88q22 27 62 27q27 0 51 -10v-62q-26 19 -41 19q-20 0 -30 -15q-8 -10 -8 -47v-168h79v-53h-79v-400h-57z" />
<glyph unicode="g" horiz-adv-x="335" d="M50 -37h57q0 -48 14.5 -69t46.5 -21q39 0 52 28q8 17 8 95v36q-31 -32 -73 -32q-61 0 -88.5 56t-27.5 180q0 224 114 224q43 0 75 -38v31h57v-480q0 -52 -5.5 -76.5t-20.5 -41.5q-32 -35 -92 -35q-57 0 -87 32.5t-30 93.5v17zM169 47q37 0 50.5 40.5t13.5 147.5 q0 96 -16 137t-53 41q-32 0 -45 -28q-21 -42 -21 -163q0 -92 17 -133.5t54 -41.5z" />
<glyph unicode="h" horiz-adv-x="334" d="M50 0v729h57v-312q38 43 88 43q49 0 72 -33q17 -26 17 -93v-334h-57v325q0 51 -10 67q-13 21 -41 21q-35 0 -54 -29q-15 -23 -15 -79v-305h-57z" />
<glyph unicode="i" horiz-adv-x="157" d="M79 545q-18 0 -30.5 13t-12.5 30q0 18 12.5 30.5t30.5 12.5t30.5 -13t12.5 -30t-13 -30t-30 -13zM50 0v453h57v-453h-57z" />
<glyph unicode="j" horiz-adv-x="161" d="M82 545q-17 0 -30 13t-13 30q0 18 12.5 30.5t31.5 12.5q17 0 29.5 -13t12.5 -30t-13 -30t-30 -13zM53 -173v626h57v-626h-57z" />
<glyph unicode="k" horiz-adv-x="314" d="M50 0v729h57v-460l112 184h65l-130 -203l166 -250h-72l-141 217v-217h-57z" />
<glyph unicode="l" horiz-adv-x="157" d="M50 0v729h57v-729h-57z" />
<glyph unicode="m" horiz-adv-x="514" d="M50 0v453h57v-38q41 45 88 45q57 0 83 -53q22 29 43.5 41t50.5 12q51 0 74 -34q18 -28 18 -89v-337h-57v335q0 78 -52 78q-39 0 -59 -36q-11 -22 -11 -88v-289h-57v334q0 43 -11 61t-37 18q-37 0 -56 -29q-17 -26 -17 -103v-281h-57z" />
<glyph unicode="n" horiz-adv-x="334" d="M50 0v453h57v-36q38 43 88 43q46 0 67.5 -30.5t21.5 -95.5v-334h-57v325q0 51 -10 67q-13 21 -41 21q-35 0 -54 -29q-15 -23 -15 -79v-305h-57z" />
<glyph unicode="o" horiz-adv-x="327" d="M166 -7q-133 0 -133 234q0 113 34 173t98 60q128 0 128 -239q0 -228 -127 -228zM164 46q35 0 50 38q20 48 20 140q0 183 -70 183q-72 0 -72 -185q0 -176 72 -176z" />
<glyph unicode="p" horiz-adv-x="325" d="M107 36v-209h-57v626h57v-31q31 38 72 38q60 0 86.5 -53.5t26.5 -175.5q0 -143 -31 -196q-24 -42 -76 -42q-45 0 -78 43zM167 40q37 0 51.5 42.5t14.5 155.5q0 92 -16 133.5t-51 41.5t-49.5 -39.5t-14.5 -135.5q0 -115 13.5 -156.5t51.5 -41.5z" />
<glyph unicode="q" horiz-adv-x="331" d="M224 -173v209q-33 -43 -78 -43q-52 0 -76 42q-31 53 -31 196q0 122 26.5 175.5t86.5 53.5q41 0 72 -38v31h57v-626h-57zM164 40q37 0 51 41.5t14 152.5q0 99 -14.5 139t-49.5 40t-51 -41.5t-16 -133.5q0 -112 14.5 -155t51.5 -43z" />
<glyph unicode="r" horiz-adv-x="197" d="M50 0v453h57v-60q30 67 77 67v-67q-5 1 -12 1q-20 0 -37.5 -15t-22.5 -37q-5 -20 -5 -67v-275h-57z" />
<glyph unicode="s" horiz-adv-x="251" d="M28 24v67q44 -45 81 -45q29 0 47.5 20t18.5 51q0 25 -13 44t-53 54q-44 39 -62.5 68.5t-18.5 62.5q0 50 31.5 82t80.5 32q40 0 81 -29v-70q-37 46 -77 46q-24 0 -40 -17t-16 -42q0 -24 13.5 -43.5t50.5 -50.5q49 -40 65.5 -67.5t16.5 -65.5q0 -55 -35 -91.5t-87 -36.5 q-43 0 -84 31z" />
<glyph unicode="t" horiz-adv-x="201" d="M67 0v400h-48v53h48v124h57v-124h76v-53h-76v-400h-57z" />
<glyph unicode="u" horiz-adv-x="336" d="M50 110v343h57v-295q0 -63 11 -84q14 -28 50 -28q38 0 52 32q9 18 9 80v295h57v-343q0 -54 -31.5 -85.5t-86.5 -31.5t-86.5 31.5t-31.5 85.5z" />
<glyph unicode="v" horiz-adv-x="280" d="M111 0l-104 453h59l60 -271q6 -28 17 -97q5 43 15 95l56 273h59l-100 -453h-62z" />
<glyph unicode="w" horiz-adv-x="445" d="M101 0l-91 453h58l51 -275q10 -51 13 -95l13 92l46 278h58l44 -273l4 -26l9 -71q8 62 15 96l56 274h58l-99 -453h-59l-49 306q-8 52 -9 71l-9 -72l-50 -305h-59z" />
<glyph unicode="x" horiz-adv-x="283" d="M7 0l104 231l-93 222h63l41 -111q16 -41 23 -81q7 35 26 84l42 108h64l-102 -222l102 -231h-64l-51 129q-17 42 -21 67q-8 -39 -20 -68l-50 -128h-64z" />
<glyph unicode="y" horiz-adv-x="293" d="M115 12l-108 441h59l57 -251q15 -65 20 -114q2 11 23 105l61 260h60l-155 -617h-61z" />
<glyph unicode="z" horiz-adv-x="275" d="M5 0l179 400h-155v53h242l-184 -400h154v-53h-236z" />
<glyph unicode="{" horiz-adv-x="275" d="M108 -27v184q0 43 -13 64t-44 30v59q31 7 44 28t13 60v196q0 70 29 103.5t91 33.5h16v-50h-10q-43 0 -56.5 -19t-13.5 -81v-187q0 -49 -13 -73.5t-48 -42.5q34 -19 47.5 -45t13.5 -73v-181q0 -65 13 -83.5t58 -19.5q4 0 9 -1v-49q-76 -1 -106 31.5t-30 115.5z" />
<glyph unicode="|" horiz-adv-x="500" d="M220 -167v834h60v-834h-60z" />
<glyph unicode="}" horiz-adv-x="275" d="M110 -24v187q0 48 13 73t48 43q-34 19 -47.5 45t-13.5 73v181q0 65 -13 84t-58 19h-8v50h15q64 0 92 -34.5t28 -112.5v-185q0 -43 13 -64t45 -29v-59q-31 -8 -44.5 -28.5t-13.5 -60.5v-195q0 -70 -29 -103.5t-91 -33.5h-15v49q5 1 10 1h13q32 0 44 21.5t12 78.5z" />
<glyph unicode="~" horiz-adv-x="667" d="M132 587l-38 24q32 62 61.5 86.5t72.5 24.5q38 0 114 -36q70 -33 99 -33t50 15.5t44 54.5l39 -22q-55 -108 -140 -108q-21 0 -45 8.5t-94 40.5q-43 20 -71 20q-51 0 -92 -75z" />
<glyph unicode="&#xa1;" horiz-adv-x="237" d="M118 410q-18 0 -31.5 13.5t-13.5 31.5q0 19 13.5 32t32.5 13q18 0 31 -13.5t13 -31.5t-13.5 -31.5t-31.5 -13.5zM88 -173v500h60v-500h-60z" />
<glyph unicode="&#xa2;" d="M188 25v88q-105 40 -105 222q0 121 40 187q22 35 65 50v81h50v-79q23 -5 40 -15v-66q-30 30 -56 30q-38 0 -59 -48.5t-21 -134.5q0 -80 21.5 -128.5t56.5 -48.5q29 0 58 41v-71q-16 -13 -40 -20v-88h-50z" />
<glyph unicode="&#xa3;" d="M29 30q35 69 87 69q3 0 15 -2q26 39 26 78q0 47 -25 84h-93v42h72q-68 107 -68 190q0 73 42.5 119t109.5 46q59 0 98 -40.5t41 -105.5l-58 -11q-1 45 -23 71t-60 26q-40 0 -63.5 -28t-23.5 -77q0 -81 73 -190h104v-42h-84q18 -37 18 -71q0 -60 -37 -107l10.5 -7l13.5 -9 q36 -25 53 -25q31 0 35 49l53 -17q-5 -41 -28.5 -66t-59.5 -25q-20 0 -34.5 6.5t-60.5 35.5q-26 17 -39 17q-27 0 -42 -40z" />
<glyph unicode="&#xa4;" horiz-adv-x="667" d="M98 85l-35 35l92 93q-53 65 -53 144q0 73 51 141l-93 94l35 35l94 -93q69 53 145 53q75 0 144 -52l93 92l36 -35l-93 -93q51 -68 51 -143q0 -74 -51 -142l94 -94l-35 -35l-94 94q-69 -53 -144 -53q-73 0 -145 51zM333 181q73 0 124 51.5t51 123.5t-51 124t-121 52 q-74 0 -125.5 -51t-51.5 -125q0 -72 51.5 -123.5t122.5 -51.5z" />
<glyph unicode="&#xa5;" d="M159 0v270h-143v41h136l-22 65h-114v41h100l-87 250h64l63 -195q20 -62 31 -119q9 49 30 121l57 193h64l-81 -250h94v-41h-108l-21 -65h129v-41h-135v-270h-57z" />
<glyph unicode="&#xa6;" horiz-adv-x="500" d="M220 337v330h60v-330h-60zM220 153h60v-320h-60v320z" />
<glyph unicode="&#xa7;" horiz-adv-x="367" d="M57 -29h58q6 -94 68 -94q31 0 50 25t19 65t-20.5 67t-70.5 53q-60 32 -80 58q-39 51 -39 138q0 70 26.5 115t74.5 59q-82 53 -82 145q0 61 35 99.5t90 38.5q33 0 61.5 -16.5t44.5 -44.5t20 -77h-59q-10 85 -68 85q-29 0 -48 -25t-19 -64q0 -36 18 -61t66 -56 q51 -33 67 -45.5t27 -30.5q29 -47 29 -128q0 -70 -24 -114.5t-68 -58.5q76 -48 76 -139q0 -62 -35 -101.5t-90 -39.5q-37 0 -66.5 20t-44.5 54q-12 29 -16 73zM183 140q85 0 85 128q0 151 -85 151q-40 0 -62 -37t-22 -102q0 -68 21.5 -104t62.5 -36z" />
<glyph unicode="&#xa8;" horiz-adv-x="500" d="M312 517q-17 0 -30 13t-13 31q0 17 13 30t31 13q17 0 30 -13t13 -30q0 -19 -13 -31.5t-31 -12.5zM188 517q-17 0 -30 13t-13 31q0 17 13 30t31 13q17 0 30 -13t13 -30q0 -19 -13 -31.5t-31 -12.5z" />
<glyph unicode="&#xa9;" horiz-adv-x="756" d="M33 333q0 145 101.5 245.5t247.5 100.5q139 0 239.5 -102t100.5 -244q0 -143 -101 -244t-243 -101t-243.5 101t-101.5 244zM72 333q0 -127 90 -218t216 -91t215.5 90.5t89.5 218.5q0 127 -89 218.5t-212 91.5q-130 0 -220 -90t-90 -220zM434 199v-52q-31 -19 -61 -19 q-51 0 -82 41q-37 48 -37 155q0 215 123 215q30 0 57 -15v-55l-10 6q-26 16 -45 16q-72 0 -72 -155q0 -159 69 -159q20 0 58 22z" />
<glyph unicode="&#xaa;" horiz-adv-x="240" d="M151 372v18q-21 -22 -47 -22q-38 0 -55 36.5t-17 118.5q0 79 18 113.5t58 34.5q24 0 43 -19v15h42v-295h-42zM115 403q22 0 30.5 25.5t8.5 95.5q0 62 -8.5 87t-29.5 25q-41 0 -41 -109q0 -69 9 -96.5t31 -27.5zM27 284v33h187v-33h-187z" />
<glyph unicode="&#xab;" horiz-adv-x="325" d="M253 43l-108 194l108 188l39 -21l-95 -167l95 -171zM141 43l-108 194l108 188l39 -21l-95 -167l95 -171z" />
<glyph unicode="&#xac;" horiz-adv-x="500" d="M33 211v56h433v-267h-60v211h-373z" />
<glyph unicode="&#xad;" horiz-adv-x="138" d="M0 202v70h138v-70h-138z" />
<glyph unicode="&#xae;" horiz-adv-x="756" d="M33 333q0 145 101.5 245.5t247.5 100.5q139 0 239.5 -102t100.5 -244q0 -143 -101 -244t-243 -101t-243.5 101t-101.5 244zM72 333q0 -127 90 -218t216 -91t215.5 90.5t89.5 218.5q0 127 -89 218.5t-212 91.5q-130 0 -220 -90t-90 -220zM291 133v400h55q62 0 88.5 -25 t26.5 -84q0 -94 -73 -104l90 -187h-56l-79 166v-166h-52zM343 364h17q27 0 37.5 13.5t10.5 47.5q0 35 -11 48.5t-41 13.5h-13v-123z" />
<glyph unicode="&#xaf;" horiz-adv-x="500" d="M146 530v53h209v-53h-209z" />
<glyph unicode="&#xb0;" horiz-adv-x="367" d="M183 389q-61 0 -105 43t-44 102q0 61 44 103.5t107 42.5q60 0 103.5 -43t43.5 -103t-43.5 -102.5t-105.5 -42.5zM183 436q40 0 68.5 29t28.5 69t-28.5 69.5t-67.5 29.5q-41 0 -70 -29t-29 -70q0 -40 28.5 -69t69.5 -29z" />
<glyph unicode="&#xb1;" d="M155 191v122h-122v55h122v121h57v-121h121v-55h-121v-122h-57zM33 93v55h300v-55h-300z" />
<glyph unicode="&#xb2;" horiz-adv-x="252" d="M30 266l88 172q31 59 41 87.5t10 55.5q0 52 -42 52q-45 0 -45 -68q0 -7 1 -12h-44q0 42 6 61q16 59 81 59q40 0 64 -25t24 -67q0 -33 -11 -65.5t-44 -93.5l-62 -115h112v-41h-179z" />
<glyph unicode="&#xb3;" horiz-adv-x="252" d="M82 569h-42q0 104 83 104q41 0 63.5 -24.5t22.5 -69.5q0 -35 -9.5 -55t-33.5 -36q26 -16 37 -40.5t11 -70.5q0 -115 -89 -115q-90 0 -90 101v18h44q1 -44 10.5 -61t34.5 -17q46 0 46 80q0 84 -67 84h-21v38h19q35 0 49.5 16t14.5 54q0 56 -42 56q-23 0 -32 -14t-9 -48z " />
<glyph unicode="&#xb4;" horiz-adv-x="500" d="M251 507l-36 27l90 118l50 -41z" />
<glyph unicode="&#xb5;" horiz-adv-x="336" d="M104 16l3 -183h-57v620h57v-299q0 -61 13 -84.5t48 -23.5q38 0 52 32q9 18 9 80v295h57v-343q0 -52 -31.5 -84.5t-82.5 -32.5q-37 0 -68 23z" />
<glyph unicode="&#xb6;" horiz-adv-x="367" d="M115 -99v437h-14q-47 0 -75.5 44t-28.5 117q0 81 36.5 124.5t103.5 43.5h210l-13 -58h-41v-708h-60v708h-58v-708h-60z" />
<glyph unicode="&#xb7;" horiz-adv-x="177" d="M88 192q-19 0 -32 13.5t-13 32.5q0 18 13.5 31t31.5 13q19 0 32 -13t13 -32t-13 -32t-32 -13z" />
<glyph unicode="&#xb8;" horiz-adv-x="500" d="M192 -172l72 135l46 -26l-84 -130z" />
<glyph unicode="&#xb9;" horiz-adv-x="253" d="M110 267v359h-55l10 41h90v-400h-45z" />
<glyph unicode="&#xba;" horiz-adv-x="240" d="M122 368q-88 0 -88 152q0 73 22.5 112t65.5 39q85 0 85 -155q0 -148 -85 -148zM121 407q42 0 42 111q0 114 -42 114q-44 0 -44 -116q0 -109 44 -109zM27 284v33h187v-33h-187z" />
<glyph unicode="&#xbb;" horiz-adv-x="325" d="M145 66l95 171l-95 167l38 21l109 -188l-109 -194zM33 66l95 171l-95 167l38 21l109 -188l-109 -194z" />
<glyph unicode="&#xbc;" horiz-adv-x="622" d="M147 0l289 667h40l-288 -667h-41zM111 267v359h-55l10 41h90v-400h-45zM401 106v40l111 254h44v-255h31v-39h-31v-106h-45v106h-110zM445 145h66v121q0 21 2 44l-9 -24l-7 -16z" />
<glyph unicode="&#xbd;" horiz-adv-x="622" d="M147 0l289 667h40l-288 -667h-41zM111 267v359h-55l10 41h90v-400h-45zM399 0l88 172q31 59 41 88t10 55q0 52 -42 52q-45 0 -45 -69q0 -6 1 -11h-44q0 37 6 60q18 59 81 59q40 0 64 -25t24 -66q0 -33 -11 -65.5t-44 -93.5l-62 -115h112v-41h-179z" />
<glyph unicode="&#xbe;" horiz-adv-x="621" d="M82 569h-42q0 104 83 104q41 0 63.5 -24.5t22.5 -69.5q0 -35 -9.5 -55t-33.5 -36q26 -16 37 -40.5t11 -70.5q0 -115 -89 -115q-90 0 -90 101v18h44q1 -44 10.5 -61t34.5 -17q46 0 46 80q0 84 -67 84h-21v38h19q35 0 49.5 16t14.5 54q0 56 -42 56q-23 0 -32 -14t-9 -48z M146 0l289 667h40l-288 -667h-41zM400 106v40l111 254h44v-255h30v-39h-30v-106h-45v106h-110zM444 145h66v121q0 21 2 44l-9 -24l-7 -16z" />
<glyph unicode="&#xbf;" horiz-adv-x="331" d="M195 410q-18 0 -31.5 13t-13.5 32t13.5 32t32.5 13q18 0 31 -13.5t13 -31.5t-13 -31.5t-32 -13.5zM278 -5v-47q0 -130 -115 -130q-61 0 -87 39q-23 34 -23 113q0 124 34 162q27 33 81 34v161h59v-215h-42q-44 0 -58 -26t-14 -109q0 -59 11.5 -82t40.5 -23q54 0 54 82v41 h59z" />
<glyph unicode="&#xc0;" horiz-adv-x="325" d="M152 713l-104 104l50 42l90 -119zM1 0l131 667h58l134 -667h-66l-26 137h-141l-24 -137h-66zM101 190h122l-44 236q-15 82 -19 157q-8 -108 -17 -157z" />
<glyph unicode="&#xc1;" horiz-adv-x="325" d="M172 713l-36 27l90 119l50 -42zM1 0l131 667h58l134 -667h-66l-26 137h-141l-24 -137h-66zM101 190h122l-44 236q-15 82 -19 157q-8 -108 -17 -157z" />
<glyph unicode="&#xc2;" horiz-adv-x="325" d="M87 713l-37 39l111 107l115 -107l-41 -39l-74 70zM1 0l131 667h58l134 -667h-66l-26 137h-141l-24 -137h-66zM101 190h122l-44 236q-15 82 -19 157q-8 -108 -17 -157z" />
<glyph unicode="&#xc3;" horiz-adv-x="325" d="M54 733q11 76 68 76q17 0 48 -14q31 -15 41 -15q17 0 17 25h56q-6 -76 -69 -76q-22 0 -67 21q-16 8 -21 8q-17 0 -17 -20v-5h-56zM1 0l131 667h58l134 -667h-66l-26 137h-141l-24 -137h-66zM101 190h122l-44 236q-15 82 -19 157q-8 -108 -17 -157z" />
<glyph unicode="&#xc4;" horiz-adv-x="325" d="M229 723q-17 0 -30 13t-13 31q0 17 13 30t31 13q17 0 30 -13t13 -30q0 -19 -13 -31.5t-31 -12.5zM101 723q-17 0 -30 13t-13 31q0 17 13 30t31 13q17 0 30 -13t13 -30q0 -19 -13 -31.5t-31 -12.5zM1 0l131 667h58l134 -667h-66l-26 137h-141l-24 -137h-66zM101 190h122 l-44 236q-15 82 -19 157q-8 -108 -17 -157z" />
<glyph unicode="&#xc5;" horiz-adv-x="325" d="M165 710q-31 0 -53.5 23t-22.5 54q0 32 22.5 54t54.5 22t54 -22.5t22 -53.5q0 -32 -22.5 -54.5t-54.5 -22.5zM165 750q16 0 26.5 10.5t10.5 26.5q0 15 -10.5 25.5t-25.5 10.5q-16 0 -26.5 -10.5t-10.5 -25.5t11 -26t25 -11zM1 0l131 667h58l134 -667h-66l-26 137h-141 l-24 -137h-66zM101 190h122l-44 236q-15 82 -19 157q-8 -108 -17 -157z" />
<glyph unicode="&#xc6;" horiz-adv-x="462" d="M1 0l131 667h222l10 -57h-143l43 -235h135l10 -57h-135l47 -261h140l9 -57h-206l-22 137h-152l-23 -137h-66zM101 190h132l-47 282q-8 48 -16 123q-9 -70 -19 -122z" />
<glyph unicode="&#xc7;" horiz-adv-x="320" d="M302 82v-63q-43 -28 -87 -28q-34 0 -66.5 18t-53.5 48q-57 81 -57 256q0 207 59 297q45 67 125 67q48 0 80 -22v-68q-44 30 -77 30q-29 0 -53 -16.5t-37 -44.5q-34 -73 -34 -219q0 -174 43 -244q25 -41 76 -41q38 0 82 30zM191 -40l49 -27l-89 -140l-37 21z" />
<glyph unicode="&#xc8;" horiz-adv-x="301" d="M170 713l-104 104l50 42l90 -119zM55 0v667h209v-57h-147v-235h143v-57h-143v-261h147v-57h-209z" />
<glyph unicode="&#xc9;" horiz-adv-x="301" d="M162 713l-36 27l90 119l50 -42zM55 0v667h209v-57h-147v-235h143v-57h-143v-261h147v-57h-209z" />
<glyph unicode="&#xca;" horiz-adv-x="301" d="M90 713l-37 39l111 107l115 -107l-41 -39l-74 70zM55 0v667h208v-57h-146v-235h142v-57h-142v-261h146v-57h-208z" />
<glyph unicode="&#xcb;" horiz-adv-x="301" d="M226 723q-17 0 -30 13t-13 31q0 17 13 30t31 13q17 0 30 -13t13 -30q0 -19 -13 -31.5t-31 -12.5zM98 723q-17 0 -30 13t-13 31q0 17 13 30t31 13q17 0 30 -13t13 -30q0 -19 -13 -31.5t-31 -12.5zM55 0v667h209v-57h-147v-235h143v-57h-143v-261h147v-57h-209z" />
<glyph unicode="&#xcc;" horiz-adv-x="171" d="M77 713l-98 105l50 41l83 -119zM55 0v667h62v-667h-62z" />
<glyph unicode="&#xcd;" horiz-adv-x="171" d="M95 713l-36 27l83 119l51 -41zM55 0v667h62v-667h-62z" />
<glyph unicode="&#xce;" horiz-adv-x="171" d="M20 713l-37 39l105 107l107 -107l-40 -39l-67 70zM54 0v667h62v-667h-62z" />
<glyph unicode="&#xcf;" horiz-adv-x="171" d="M149 723q-17 0 -30 13t-13 31q0 17 13 30t31 13q17 0 30 -13t13 -30q0 -19 -13 -31.5t-31 -12.5zM29 723q-17 0 -30 13t-13 31q0 17 13 30t31 13q17 0 30 -13t13 -30q0 -19 -13 -31.5t-31 -12.5zM55 0v667h62v-667h-62z" />
<glyph unicode="&#xd0;" horiz-adv-x="371" d="M55 0v321h-47v50h47v296h78q116 0 158 -69.5t42 -263.5q0 -118 -12 -180t-43 -101q-43 -53 -141 -53h-82zM117 57h29q52 0 77 28q27 29 37 76.5t10 147.5q0 164 -20 226q-13 40 -38 57.5t-68 17.5h-27v-239h90v-50h-90v-264z" />
<glyph unicode="&#xd1;" horiz-adv-x="387" d="M91 733q11 76 68 76q17 0 48 -14q31 -15 41 -15q17 0 17 25h56q-6 -76 -69 -76q-22 0 -67 21q-16 8 -21 8q-17 0 -17 -20v-5h-56zM55 0v667h54l151 -453l24 -79q-6 54 -6 97v435h54v-667h-54l-147 440q-4 12 -28 94q6 -74 6 -118v-416h-54z" />
<glyph unicode="&#xd2;" horiz-adv-x="404" d="M203 713l-104 104l50 42l90 -119zM202 -9q-164 0 -164 343q0 208 62 291q39 51 102 51q84 0 124 -84.5t40 -261.5q0 -339 -164 -339zM203 52q53 0 76.5 66t23.5 214q0 150 -23.5 217t-76.5 67q-102 0 -102 -282t102 -282z" />
<glyph unicode="&#xd3;" horiz-adv-x="404" d="M208 713l-36 27l90 119l50 -42zM202 -9q-164 0 -164 343q0 208 62 291q39 51 102 51q84 0 124 -84.5t40 -261.5q0 -339 -164 -339zM203 52q53 0 76.5 66t23.5 214q0 150 -23.5 217t-76.5 67q-102 0 -102 -282t102 -282z" />
<glyph unicode="&#xd4;" horiz-adv-x="404" d="M127 713l-37 39l111 107l115 -107l-41 -39l-74 70zM202 -9q-164 0 -164 343q0 208 62 291q39 51 102 51q84 0 124 -84.5t40 -261.5q0 -339 -164 -339zM203 52q53 0 76.5 66t23.5 214q0 150 -23.5 217t-76.5 67q-102 0 -102 -282t102 -282z" />
<glyph unicode="&#xd5;" horiz-adv-x="404" d="M98 733q11 76 68 76q17 0 48 -14q31 -15 41 -15q17 0 17 25h56q-6 -76 -69 -76q-22 0 -67 21q-16 8 -21 8q-17 0 -17 -20v-5h-56zM202 -9q-164 0 -164 343q0 208 62 291q39 51 102 51q84 0 124 -84.5t40 -261.5q0 -339 -164 -339zM203 52q53 0 76.5 66t23.5 214 q0 150 -23.5 217t-76.5 67q-102 0 -102 -282t102 -282z" />
<glyph unicode="&#xd6;" horiz-adv-x="404" d="M269 723q-17 0 -30 13t-13 31q0 17 13 30t31 13q17 0 30 -13t13 -30q0 -19 -13 -31.5t-31 -12.5zM141 723q-17 0 -30 13t-13 31q0 17 13 30t31 13q17 0 30 -13t13 -30q0 -19 -13 -31.5t-31 -12.5zM202 -9q-164 0 -164 343q0 208 62 291q39 51 102 51q84 0 124 -84.5 t40 -261.5q0 -339 -164 -339zM203 52q53 0 76.5 66t23.5 214q0 150 -23.5 217t-76.5 67q-102 0 -102 -282t102 -282z" />
<glyph unicode="&#xd7;" d="M92 210l-39 38l91 92l-91 91l39 39l92 -91l91 91l38 -39l-91 -91l92 -91l-39 -39l-92 91z" />
<glyph unicode="&#xd8;" horiz-adv-x="417" d="M33 11l43 89q-31 84 -31 236q0 340 163 340q72 0 110 -59l28 58l39 -19l-42 -89q30 -79 30 -235q0 -341 -163 -341q-69 0 -109 60l-29 -59zM118 180l167 373q-23 63 -75 63q-102 0 -102 -280q0 -76 10 -156zM135 114q25 -62 74 -62q54 0 77.5 66.5t23.5 220.5 q0 72 -9 147z" />
<glyph unicode="&#xd9;" horiz-adv-x="390" d="M196 713l-104 104l50 42l90 -119zM336 667v-467q0 -108 -22 -146q-35 -63 -119 -63q-90 0 -123 73q-17 35 -17 136v467h62v-462q0 -63 4 -88t16 -40q22 -25 59 -25q39 0 60 29q18 24 18 124v462h62z" />
<glyph unicode="&#xda;" horiz-adv-x="390" d="M205 713l-36 27l90 119l50 -42zM336 667v-467q0 -108 -22 -146q-35 -63 -119 -63q-90 0 -123 73q-17 35 -17 136v467h62v-462q0 -63 4 -88t16 -40q22 -25 59 -25q39 0 60 29q18 24 18 124v462h62z" />
<glyph unicode="&#xdb;" horiz-adv-x="390" d="M127 713l-37 39l111 107l115 -107l-41 -39l-74 70zM336 667v-467q0 -108 -22 -146q-35 -63 -119 -63q-90 0 -123 73q-17 35 -17 136v467h62v-462q0 -63 4 -88t16 -40q22 -25 59 -25q39 0 60 29q18 24 18 124v462h62z" />
<glyph unicode="&#xdc;" horiz-adv-x="390" d="M262 723q-17 0 -30 13t-13 31q0 17 13 30t31 13q17 0 30 -13t13 -30q0 -19 -13 -31.5t-31 -12.5zM134 723q-17 0 -30 13t-13 31q0 17 13 30t31 13q17 0 30 -13t13 -30q0 -19 -13 -31.5t-31 -12.5zM336 667v-467q0 -108 -22 -146q-35 -63 -119 -63q-90 0 -123 73 q-17 35 -17 136v467h62v-462q0 -63 4 -88t16 -40q22 -25 59 -25q39 0 60 29q18 24 18 124v462h62z" />
<glyph unicode="&#xdd;" horiz-adv-x="316" d="M167 713l-36 27l90 119l50 -42zM131 0v292l-130 375h67l63 -195q18 -54 31 -119q8 50 29 122l57 192h67l-122 -375v-292h-62z" />
<glyph unicode="&#xde;" horiz-adv-x="329" d="M55 0v667h62v-117h18q91 0 130 -40.5t39 -135.5t-36 -133t-125 -38h-26v-203h-62zM117 260h41q46 0 64.5 25t18.5 88q0 67 -20.5 93.5t-72.5 26.5h-31v-233z" />
<glyph unicode="&#xdf;" horiz-adv-x="340" d="M56 0v409h-52v59h52v89q0 98 28 138q28 41 91 41q60 0 91.5 -40.5t31.5 -117.5q0 -110 -65 -139q41 -18 57 -66t16 -152q0 -120 -35 -173q-31 -48 -93 -48h-21v57h17q41 0 57 38.5t16 139.5q0 97 -16 135.5t-56 38.5h-18v59h17q34 0 49.5 23t15.5 74q0 118 -65 118 q-34 0 -47.5 -27t-13.5 -92v-564h-57z" />
<glyph unicode="&#xe0;" horiz-adv-x="331" d="M177 507l-104 104l50 41l90 -118zM224 0v36q-33 -43 -78 -43q-52 0 -76 42q-31 53 -31 196q0 122 26.5 175.5t86.5 53.5q41 0 72 -38v31h57v-453h-57zM164 40q37 0 51 41t14 153q0 100 -14 139.5t-50 39.5q-35 0 -51 -41.5t-16 -133.5q0 -112 14.5 -155t51.5 -43z" />
<glyph unicode="&#xe1;" horiz-adv-x="331" d="M176 507l-36 27l90 118l50 -41zM224 0v36q-33 -43 -78 -43q-52 0 -76 42q-31 53 -31 196q0 122 26.5 175.5t86.5 53.5q41 0 72 -38v31h57v-453h-57zM164 40q37 0 51 41t14 153q0 100 -14 139.5t-50 39.5q-35 0 -51 -41.5t-16 -133.5q0 -112 14.5 -155t51.5 -43z" />
<glyph unicode="&#xe2;" horiz-adv-x="331" d="M95 507l-38 38l109 108l110 -108l-38 -38l-72 70zM224 0v36q-33 -43 -78 -43q-52 0 -76 42q-31 53 -31 196q0 122 26.5 175.5t86.5 53.5q41 0 72 -38v31h57v-453h-57zM164 40q37 0 51 41t14 153q0 100 -14 139.5t-50 39.5q-35 0 -51 -41.5t-16 -133.5q0 -112 14.5 -155 t51.5 -43z" />
<glyph unicode="&#xe3;" horiz-adv-x="331" d="M66 526q11 77 68 77q17 0 48 -14q32 -15 41 -15q17 0 17 25h56q-6 -77 -69 -77q-21 0 -67 21q-16 8 -21 8q-17 0 -17 -20v-5h-56zM224 0v36q-33 -43 -78 -43q-52 0 -76 42q-31 53 -31 196q0 122 26.5 175.5t86.5 53.5q41 0 72 -38v31h57v-453h-57zM164 40q37 0 51 41 t14 153q0 100 -14 139.5t-50 39.5q-35 0 -51 -41.5t-16 -133.5q0 -112 14.5 -155t51.5 -43z" />
<glyph unicode="&#xe4;" horiz-adv-x="331" d="M232 517q-17 0 -30 13t-13 31q0 17 13 30t31 13q17 0 30 -13t13 -30q0 -19 -13 -31.5t-31 -12.5zM108 517q-17 0 -30 13t-13 31q0 17 13 30t31 13q17 0 30 -13t13 -30q0 -19 -13 -31.5t-31 -12.5zM224 0v36q-33 -43 -78 -43q-52 0 -76 42q-31 53 -31 196 q0 122 26.5 175.5t86.5 53.5q41 0 72 -38v31h57v-453h-57zM164 40q37 0 51 41t14 153q0 100 -14 139.5t-50 39.5q-35 0 -51 -41.5t-16 -133.5q0 -112 14.5 -155t51.5 -43z" />
<glyph unicode="&#xe5;" horiz-adv-x="331" d="M169 507q-31 0 -53.5 23t-22.5 54q0 32 22.5 54t54.5 22t54 -22t22 -54t-22.5 -54.5t-54.5 -22.5zM169 547q16 0 26.5 10.5t10.5 26.5q0 15 -10.5 25.5t-25.5 10.5q-16 0 -26.5 -10.5t-10.5 -25.5t11 -26t25 -11zM224 0v36q-33 -43 -78 -43q-52 0 -76 42q-31 53 -31 196 q0 122 26.5 175.5t86.5 53.5q41 0 72 -38v31h57v-453h-57zM164 40q37 0 51 41t14 153q0 100 -14 139.5t-50 39.5q-35 0 -51 -41.5t-16 -133.5q0 -112 14.5 -155t51.5 -43z" />
<glyph unicode="&#xe6;" horiz-adv-x="514" d="M420 157h54q-2 -74 -35 -119t-83 -45q-64 0 -98 76q-14 -35 -43 -55.5t-66 -20.5q-53 0 -84.5 43t-31.5 116q0 70 30.5 110t83.5 40q50 0 81 -37q0 56 -9 80q-21 61 -80 61q-32 0 -79 -35v63q42 26 82 26q82 0 116 -76q14 35 40 55.5t57 20.5q85 0 115 -126 q10 -44 10 -117h-200q1 -82 22 -126.5t58 -44.5q57 0 60 111zM282 265h141q-1 65 -20.5 103.5t-51.5 38.5q-30 0 -49 -39.5t-20 -102.5zM156 46q33 0 53 27.5t20 72.5q0 51 -19 80t-53 29q-69 0 -69 -103q0 -50 18 -78t50 -28z" />
<glyph unicode="&#xe7;" horiz-adv-x="248" d="M228 87v-71q-29 -23 -65 -23q-51 0 -85 47q-45 61 -45 178q0 115 35 178.5t98 63.5q33 0 62 -17v-67q-30 31 -56 31q-38 0 -59 -48.5t-21 -135.5q0 -80 21.5 -128.5t56.5 -48.5q28 0 58 41zM140 -37l46 -26l-84 -130l-34 21z" />
<glyph unicode="&#xe8;" horiz-adv-x="317" d="M161 507l-104 104l50 41l90 -118zM222 154h57q-3 -79 -32 -120t-82 -41q-64 0 -98 59.5t-34 172.5q0 110 34 172.5t93 62.5q58 0 90.5 -57t32.5 -160v-28h-192q-1 -81 17.5 -125t52.5 -44q29 0 43.5 25.5t17.5 82.5zM92 263h134q-1 47 -10 87q-6 26 -20.5 41.5 t-33.5 15.5q-64 0 -70 -144z" />
<glyph unicode="&#xe9;" horiz-adv-x="317" d="M167 507l-36 27l90 118l50 -41zM222 154h57q-3 -79 -32 -120t-82 -41q-64 0 -98 59.5t-34 172.5q0 110 34 172.5t93 62.5q58 0 90.5 -57t32.5 -160v-28h-192q-1 -81 17.5 -125t52.5 -44q29 0 43.5 25.5t17.5 82.5zM92 263h134q-1 47 -10 87q-6 26 -20.5 41.5t-33.5 15.5 q-64 0 -70 -144z" />
<glyph unicode="&#xea;" horiz-adv-x="317" d="M91 507l-38 38l109 108l110 -108l-38 -38l-72 70zM222 154h57q-3 -79 -32 -120t-82 -41q-64 0 -98 59.5t-34 172.5q0 110 34 172.5t93 62.5q58 0 90.5 -57t32.5 -160v-28h-192q-1 -81 17.5 -125t52.5 -44q29 0 43.5 25.5t17.5 82.5zM92 263h134q-1 47 -10 87 q-6 26 -20.5 41.5t-33.5 15.5q-64 0 -70 -144z" />
<glyph unicode="&#xeb;" horiz-adv-x="317" d="M226 517q-17 0 -30 13t-13 31q0 17 13 30t31 13q17 0 30 -13t13 -30q0 -19 -13 -31.5t-31 -12.5zM102 517q-17 0 -30 13t-13 31q0 17 13 30t31 13q17 0 30 -13t13 -30q0 -19 -13 -31.5t-31 -12.5zM222 154h57q-3 -79 -32 -120t-82 -41q-64 0 -98 59.5t-34 172.5 q0 110 34 172.5t93 62.5q58 0 90.5 -57t32.5 -160v-28h-192q-1 -81 17.5 -125t52.5 -44q29 0 43.5 25.5t17.5 82.5zM92 263h134q-1 47 -10 87q-6 26 -20.5 41.5t-33.5 15.5q-64 0 -70 -144z" />
<glyph unicode="&#xec;" horiz-adv-x="157" d="M73 507l-98 105l50 40l83 -118zM50 0v453h57v-453h-57z" />
<glyph unicode="&#xed;" horiz-adv-x="157" d="M88 507l-36 27l83 118l50 -40zM50 0v453h57v-453h-57z" />
<glyph unicode="&#xee;" horiz-adv-x="157" d="M14 507l-38 38l103 108l103 -108l-38 -38l-65 70zM50 0v453h57v-453h-57z" />
<glyph unicode="&#xef;" horiz-adv-x="157" d="M137 517q-17 0 -28.5 11.5t-11.5 28.5t11.5 28.5t28.5 11.5t28.5 -11.5t11.5 -28.5t-11.5 -28.5t-28.5 -11.5zM28 517q-16 0 -28 11.5t-12 28.5t12 28.5t28 11.5t28 -11.5t12 -28.5t-12 -28.5t-28 -11.5zM50 0v453h57v-453h-57z" />
<glyph unicode="&#xf0;" horiz-adv-x="327" d="M270 676l-57 -36q38 -48 55 -109q25 -88 25 -302q0 -122 -34 -180q-31 -56 -94 -56q-29 0 -55.5 15t-40.5 40q-36 64 -36 180q0 110 34 171t96 61q44 0 63 -34q-6 72 -18 112t-38 74l-66 -44l-24 38l57 38q-29 25 -86 49l23 36q54 -18 105 -57l67 41zM164 46q35 0 50 38 q20 48 20 140q0 183 -70 183q-72 0 -72 -185q0 -176 72 -176z" />
<glyph unicode="&#xf1;" horiz-adv-x="334" d="M59 526q11 77 68 77q17 0 48 -14q32 -15 41 -15q17 0 17 25h56q-6 -77 -69 -77q-21 0 -67 21q-16 8 -21 8q-17 0 -17 -20v-5h-56zM50 0v453h57v-36q38 43 88 43q46 0 67.5 -30.5t21.5 -95.5v-334h-57v325q0 51 -10 67q-13 21 -41 21q-35 0 -54 -29q-15 -23 -15 -79v-305 h-57z" />
<glyph unicode="&#xf2;" horiz-adv-x="327" d="M164 507l-104 104l50 41l90 -118zM166 -7q-133 0 -133 234q0 113 34 173t98 60q128 0 128 -239q0 -228 -127 -228zM164 46q35 0 50 38q20 48 20 140q0 183 -70 183q-72 0 -72 -185q0 -176 72 -176z" />
<glyph unicode="&#xf3;" horiz-adv-x="327" d="M169 507l-36 27l90 118l50 -41zM166 -7q-133 0 -133 234q0 113 34 173t98 60q128 0 128 -239q0 -228 -127 -228zM164 46q35 0 50 38q20 48 20 140q0 183 -70 183q-72 0 -72 -185q0 -176 72 -176z" />
<glyph unicode="&#xf4;" horiz-adv-x="327" d="M95 507l-38 38l109 108l110 -108l-38 -38l-72 70zM166 -7q-133 0 -133 234q0 113 34 173t98 60q128 0 128 -239q0 -228 -127 -228zM164 46q35 0 50 38q20 48 20 140q0 183 -70 183q-72 0 -72 -185q0 -176 72 -176z" />
<glyph unicode="&#xf5;" horiz-adv-x="327" d="M58 526q11 77 68 77q17 0 48 -14q32 -15 41 -15q17 0 17 25h56q-6 -77 -69 -77q-21 0 -67 21q-16 8 -21 8q-17 0 -17 -20v-5h-56zM166 -7q-133 0 -133 234q0 113 34 173t98 60q128 0 128 -239q0 -228 -127 -228zM164 46q35 0 50 38q20 48 20 140q0 183 -70 183 q-72 0 -72 -185q0 -176 72 -176z" />
<glyph unicode="&#xf6;" horiz-adv-x="327" d="M228 517q-17 0 -30 13t-13 31q0 17 13 30t31 13q17 0 30 -13t13 -30q0 -19 -13 -31.5t-31 -12.5zM104 517q-17 0 -30 13t-13 31q0 17 13 30t31 13q17 0 30 -13t13 -30q0 -19 -13 -31.5t-31 -12.5zM166 -7q-133 0 -133 234q0 113 34 173t98 60q128 0 128 -239 q0 -228 -127 -228zM164 46q35 0 50 38q20 48 20 140q0 183 -70 183q-72 0 -72 -185q0 -176 72 -176z" />
<glyph unicode="&#xf7;" d="M183 421q-18 0 -30.5 12.5t-12.5 30.5q0 17 12.5 29.5t30.5 12.5q17 0 29.5 -12.5t12.5 -29.5q0 -18 -12.5 -30.5t-29.5 -12.5zM33 313v55h300v-55h-300zM183 173q-18 0 -30.5 12.5t-12.5 31.5q0 17 13 29.5t30 12.5q18 0 30.5 -12.5t12.5 -30.5t-12.5 -30.5t-30.5 -12.5 z" />
<glyph unicode="&#xf8;" horiz-adv-x="340" d="M24 12l38 66q-22 60 -22 148q0 114 34 174t98 60q52 0 86 -43l26 46l31 -19l-37 -65q22 -55 22 -155q0 -231 -127 -231q-58 0 -91 45l-26 -45zM104 141l117 225q-15 41 -50 41q-72 0 -72 -180q0 -41 5 -86zM118 89q18 -43 53 -43q70 0 70 178q0 35 -7 87z" />
<glyph unicode="&#xf9;" horiz-adv-x="336" d="M166 507l-104 104l50 41l90 -118zM50 110v343h57v-295q0 -63 11 -84q14 -28 50 -28q38 0 52 32q9 18 9 80v295h57v-343q0 -54 -31.5 -85.5t-86.5 -31.5t-86.5 31.5t-31.5 85.5z" />
<glyph unicode="&#xfa;" horiz-adv-x="336" d="M177 507l-36 27l90 118l50 -41zM50 110v343h57v-295q0 -63 11 -84q14 -28 50 -28q38 0 52 32q9 18 9 80v295h57v-343q0 -54 -31.5 -85.5t-86.5 -31.5t-86.5 31.5t-31.5 85.5z" />
<glyph unicode="&#xfb;" horiz-adv-x="336" d="M103 507l-38 38l109 108l110 -108l-38 -38l-72 70zM50 110v343h57v-295q0 -63 11 -84q14 -28 50 -28q38 0 52 32q9 18 9 80v295h57v-343q0 -54 -31.5 -85.5t-86.5 -31.5t-86.5 31.5t-31.5 85.5z" />
<glyph unicode="&#xfc;" horiz-adv-x="336" d="M233 517q-17 0 -30 13t-13 31q0 17 13 30t31 13q17 0 30 -13t13 -30q0 -19 -13 -31.5t-31 -12.5zM109 517q-17 0 -30 13t-13 31q0 17 13 30t31 13q17 0 30 -13t13 -30q0 -19 -13 -31.5t-31 -12.5zM50 110v343h57v-295q0 -63 11 -84q14 -28 50 -28q38 0 52 32q9 18 9 80 v295h57v-343q0 -54 -31.5 -85.5t-86.5 -31.5t-86.5 31.5t-31.5 85.5z" />
<glyph unicode="&#xfd;" horiz-adv-x="293" d="M158 507l-36 27l90 118l50 -41zM115 12l-108 441h59l57 -251q15 -65 20 -114q2 11 23 105l61 260h60l-155 -617h-61z" />
<glyph unicode="&#xfe;" horiz-adv-x="325" d="M107 36v-209h-57v902h57v-307q31 38 72 38q60 0 86.5 -53.5t26.5 -175.5q0 -143 -31 -196q-24 -42 -76 -42q-45 0 -78 43zM167 40q37 0 51.5 42.5t14.5 155.5q0 92 -16 133.5t-51 41.5t-49.5 -39.5t-14.5 -135.5q0 -115 13.5 -156.5t51.5 -41.5z" />
<glyph unicode="&#xff;" horiz-adv-x="293" d="M215 517q-17 0 -30 13t-13 31q0 17 13 30t31 13q17 0 30 -13t13 -30q0 -19 -13 -31.5t-31 -12.5zM91 517q-17 0 -30 13t-13 31q0 17 13 30t31 13q17 0 30 -13t13 -30q0 -19 -13 -31.5t-31 -12.5zM115 12l-108 441h59l57 -251q15 -65 20 -114q2 11 23 105l61 260h60 l-155 -617h-61z" />
<glyph unicode="&#x152;" horiz-adv-x="541" d="M297 0v70q-19 -42 -44 -61t-62 -19q-153 0 -153 349q0 337 158 337q63 0 101 -69v60h206v-57h-147v-235h143v-57h-143v-261h147v-57h-206zM125 114q9 -28 29.5 -45.5t44.5 -17.5q50 0 73 63.5t23 200.5q0 183 -32 255q-21 46 -63 46t-62 -43q-37 -84 -37 -260 q0 -129 24 -199z" />
<glyph unicode="&#x153;" horiz-adv-x="508" d="M465 156v-13q0 -67 -31 -108.5t-80 -41.5q-36 0 -63 25.5t-38 70.5q-25 -96 -96 -96q-58 0 -91 62.5t-33 174.5q0 114 37 176q15 24 39 39t48 15q35 0 60.5 -25t35.5 -70q10 43 38 69t65 26q38 0 66 -29.5t41 -83.5q12 -44 12 -130h-196q3 -100 28 -138q21 -33 49 -33 q26 0 41 25.5t15 70.5v14h53zM281 265h139v8q0 58 -19.5 96t-48.5 38q-32 0 -51 -37.5t-20 -104.5zM159 46q31 0 49.5 48t18.5 129q0 88 -18 136t-51 48q-32 0 -51 -47t-19 -127q0 -87 19 -137t52 -50z" />
<glyph unicode="&#x178;" horiz-adv-x="316" d="M225 723q-17 0 -30 13t-13 31q0 17 13 30t31 13q17 0 30 -13t13 -30q0 -19 -13 -31.5t-31 -12.5zM97 723q-17 0 -30 13t-13 31q0 17 13 30t31 13q17 0 30 -13t13 -30q0 -19 -13 -31.5t-31 -12.5zM131 0v292l-130 375h67l63 -195q18 -54 31 -119q8 50 29 122l57 192h67 l-122 -375v-292h-62z" />
<glyph unicode="&#x2c6;" horiz-adv-x="500" d="M179 507l-38 38l109 108l110 -108l-38 -38l-72 70z" />
<glyph unicode="&#x2dc;" horiz-adv-x="500" d="M135 526q11 77 68 77q17 0 48 -14q32 -15 41 -15q17 0 17 25h56q-6 -77 -69 -77q-21 0 -67 21q-16 8 -21 8q-17 0 -17 -20v-5h-56z" />
<glyph unicode="&#x2000;" horiz-adv-x="431" />
<glyph unicode="&#x2001;" horiz-adv-x="863" />
<glyph unicode="&#x2002;" horiz-adv-x="431" />
<glyph unicode="&#x2003;" horiz-adv-x="863" />
<glyph unicode="&#x2004;" horiz-adv-x="287" />
<glyph unicode="&#x2005;" horiz-adv-x="215" />
<glyph unicode="&#x2006;" horiz-adv-x="143" />
<glyph unicode="&#x2007;" horiz-adv-x="143" />
<glyph unicode="&#x2008;" horiz-adv-x="107" />
<glyph unicode="&#x2009;" horiz-adv-x="172" />
<glyph unicode="&#x200a;" horiz-adv-x="47" />
<glyph unicode="&#x2010;" horiz-adv-x="138" d="M0 202v70h138v-70h-138z" />
<glyph unicode="&#x2011;" horiz-adv-x="138" d="M0 202v70h138v-70h-138z" />
<glyph unicode="&#x2012;" horiz-adv-x="138" d="M0 202v70h138v-70h-138z" />
<glyph unicode="&#x2013;" horiz-adv-x="367" d="M66 202v70h234v-70h-234z" />
<glyph unicode="&#x2014;" horiz-adv-x="414" d="M0 202v70h414v-70h-414z" />
<glyph unicode="&#x2018;" horiz-adv-x="205" d="M102 450l-62 28l88 198l43 -20z" />
<glyph unicode="&#x2019;" horiz-adv-x="205" d="M83 450l-43 20l69 206l62 -29z" />
<glyph unicode="&#x201a;" horiz-adv-x="205" d="M33 -122l69 205l62 -28l-88 -197z" />
<glyph unicode="&#x201c;" horiz-adv-x="323" d="M220 450l-62 28l88 198l43 -20zM102 450l-62 28l88 198l43 -20z" />
<glyph unicode="&#x201d;" horiz-adv-x="323" d="M201 450l-43 20l69 206l62 -29zM83 450l-43 20l69 206l62 -29z" />
<glyph unicode="&#x201e;" horiz-adv-x="323" d="M151 -122l69 205l62 -28l-88 -197zM33 -122l69 205l62 -28l-88 -197z" />
<glyph unicode="&#x2022;" horiz-adv-x="667" d="M335 200q-57 0 -98 41t-41 97q0 58 41 98.5t100 40.5q55 0 95.5 -41t40.5 -97q0 -58 -40.5 -98.5t-97.5 -40.5z" />
<glyph unicode="&#x2026;" horiz-adv-x="490" d="M364 39q0 18 13.5 31t31.5 13q19 0 32 -13t13 -32t-13 -32t-32 -13t-32 13.5t-13 32.5zM200 39q0 18 13.5 31t31.5 13q19 0 32 -13t13 -32t-13 -32t-32 -13t-32 13.5t-13 32.5zM37 39q0 18 13.5 31t31.5 13q19 0 32 -13t13 -32t-13 -32t-32 -13t-32 13.5t-13 32.5z" />
<glyph unicode="&#x202f;" horiz-adv-x="172" />
<glyph unicode="&#x2039;" horiz-adv-x="213" d="M141 43l-108 194l108 188l39 -21l-95 -167l95 -171z" />
<glyph unicode="&#x203a;" horiz-adv-x="213" d="M33 66l95 171l-95 167l38 21l109 -188l-109 -194z" />
<glyph unicode="&#x205f;" horiz-adv-x="215" />
<glyph unicode="&#x20ac;" horiz-adv-x="376" d="M331 73v-62q-37 -20 -74 -20q-50 0 -90.5 33.5t-62.5 93.5q-19 57 -24 157h-47l9 41h37q0 29 1 41h-47l9 41h41q9 122 39 182q46 97 141 97q46 0 80 -22l-12 -60q-37 22 -64 22q-80 0 -107 -106q-8 -30 -15 -113h145l-9 -41h-138v-20v-21h129l-8 -41h-119 q7 -116 34.5 -169.5t81.5 -53.5q33 0 70 21z" />
<glyph unicode="&#x2122;" horiz-adv-x="455" d="M170 287l53 380h36l44 -281l48 281h36l46 -380h-41l-28 261l-45 -261h-34l-42 256l-32 -256h-41zM67 287v341h-56v39h154v-39h-56v-341h-42z" />
</font>
</defs>
</svg>
