<?xml version="1.0" standalone="no"?>
<!DOCTYPE svg PUBLIC "-//W3C//DTD SVG 1.1//EN" "http://www.w3.org/Graphics/SVG/1.1/DTD/svg11.dtd" >
<svg xmlns="http://www.w3.org/2000/svg">
<metadata></metadata>
<defs>
<font id="function_prodemi_oblique" horiz-adv-x="567" >
<font-face units-per-em="1000" ascent="753" descent="-247" />
<missing-glyph horiz-adv-x="250" />
<glyph unicode="&#xfb01;" horiz-adv-x="524" d="M42 0l38 310h-50l12 94h50l18 149q13 104 45.5 143.5t105.5 39.5q35 0 75 -9l-13 -106q-17 4 -31 4q-31 0 -42.5 -16t-18.5 -69l-17 -136h86l-12 -94h-85l-39 -310h-122zM445 483q-31 0 -52.5 21.5t-21.5 52.5t21.5 52t53.5 21q29 0 50.5 -22t21.5 -51q0 -31 -21.5 -52.5 t-51.5 -21.5zM315 0l50 404h122l-49 -404h-123z" />
<glyph unicode="&#xfb02;" horiz-adv-x="524" d="M42 0l38 310h-50l12 94h50l18 149q13 104 45.5 143.5t105.5 39.5q35 0 75 -9l-13 -106q-17 4 -31 4q-31 0 -42.5 -16t-18.5 -69l-17 -136h86l-12 -94h-85l-39 -310h-122zM315 0l90 729h123l-90 -729h-123z" />
<glyph horiz-adv-x="1000" />
<glyph horiz-adv-x="1000" />
<glyph unicode="&#xd;" horiz-adv-x="1000" />
<glyph unicode=" "  horiz-adv-x="250" />
<glyph unicode="&#x09;" horiz-adv-x="250" />
<glyph unicode="&#xa0;" horiz-adv-x="250" />
<glyph unicode="!" horiz-adv-x="273" d="M80 208l56 459h109l-56 -459h-109zM40 65q0 31 23 53.5t55 22.5q31 0 53.5 -23t22.5 -54q0 -32 -23 -54.5t-54 -22.5q-32 0 -54.5 23t-22.5 55z" />
<glyph unicode="&#x22;" horiz-adv-x="380" d="M261 392l15 275h118l-52 -275h-81zM79 392l15 275h118l-52 -275h-81z" />
<glyph unicode="#" d="M95 3l36 193h-96l11 93h103l19 102h-96l11 94h103l35 192l93 -13l-33 -179h88l36 192l93 -13l-33 -179h93l-11 -94h-99l-19 -102h93l-11 -94h-99l-38 -205l-93 13l35 192h-89l-38 -205zM245 289h88l19 102h-89z" />
<glyph unicode="$" d="M28 54l47 125q101 -61 197 -61q59 0 90.5 19.5t31.5 56.5q0 27 -19.5 40.5t-80.5 29.5q-95 24 -130 40q-97 43 -97 156q0 59 28.5 106.5t78.5 73.5q47 25 122 30l12 95h79l-11 -95q77 -12 142 -51l-41 -120q-92 48 -172 48q-53 0 -83.5 -19.5t-30.5 -54.5 q0 -28 23.5 -44.5t81.5 -30.5q80 -18 111 -29.5t57 -30.5q62 -48 62 -136q0 -56 -27.5 -102t-75.5 -72q-49 -26 -130 -31l-13 -110h-80l14 110q-100 14 -186 57z" />
<glyph unicode="%" horiz-adv-x="788" d="M257 11l246 663l53 -18l-245 -663zM175 326q-56 0 -87 38.5t-31 108.5q0 88 41.5 144t106.5 56q54 0 85 -38.5t31 -105.5q0 -92 -40 -147.5t-106 -55.5zM177 386q32 0 53 39.5t21 101.5q0 40 -13.5 63t-36.5 23q-31 0 -52.5 -40.5t-21.5 -99.5q0 -87 50 -87zM492 141 q0 88 41.5 144t106.5 56q54 0 85 -38.5t31 -105.5q0 -92 -40 -147.5t-106 -55.5q-56 0 -87 38.5t-31 108.5zM562 141q0 -87 50 -87q32 0 53 40t21 101q0 40 -13.5 63t-36.5 23q-31 0 -52.5 -40.5t-21.5 -99.5z" />
<glyph unicode="&#x26;" horiz-adv-x="613" d="M448 0l-49 70q-60 -48 -94.5 -64t-79.5 -16q-79 0 -131 48.5t-52 122.5q0 65 36 115t118 100q-31 46 -42 73t-11 61q0 71 50 119t126 48q71 0 115.5 -43.5t44.5 -112.5q0 -74 -53 -121q-26 -23 -70 -50l73 -109l71 63l70 -97l-76 -62l97 -145h-143zM299 427 q38 28 54 49.5t16 46.5q0 24 -16 39t-41 15q-26 0 -42 -15t-16 -40q0 -40 45 -95zM338 163l-85 126q-59 -43 -76 -63t-17 -47q0 -28 19.5 -47t48.5 -19q45 0 110 50z" />
<glyph unicode="'" horiz-adv-x="198" d="M79 392l15 275h118l-52 -275h-81z" />
<glyph unicode="(" horiz-adv-x="326" d="M245 -118l-81 -52q-103 173 -103 362q0 174 73 331q44 97 138 216l77 -53q-91 -140 -130.5 -257.5t-39.5 -250.5q0 -149 66 -296z" />
<glyph unicode=")" horiz-adv-x="326" d="M-9 -117q91 139 130.5 257t39.5 251q0 148 -66 295l81 53q103 -174 103 -363q0 -170 -73 -330q-45 -99 -138 -216z" />
<glyph unicode="*" d="M226 362l-73 68l96 94l-124 50l42 91l119 -63l9 134l100 -12l-23 -132l130 32l19 -98l-133 -19l71 -114l-88 -48l-59 120z" />
<glyph unicode="+" d="M250 98v196h-196v93h196v190h95v-190h196v-93h-196v-196h-95z" />
<glyph unicode="," horiz-adv-x="267" d="M61 120h129l-129 -284h-68z" />
<glyph unicode="-" horiz-adv-x="215" d="M-9 156l13 102h215l-13 -102h-215z" />
<glyph unicode="." horiz-adv-x="267" d="M36 65q0 31 23 53.5t55 22.5q31 0 53.5 -23t22.5 -54q0 -32 -23 -54.5t-54 -22.5q-32 0 -54.5 23t-22.5 55z" />
<glyph unicode="/" horiz-adv-x="379" d="M12 -142l279 881l94 -29l-278 -880z" />
<glyph unicode="0" d="M97 71q-52 72 -52 205q0 177 80 290.5t204 113.5q101 0 159.5 -76t58.5 -207q0 -164 -66 -282q-35 -61 -90.5 -94.5t-122.5 -33.5q-112 0 -171 84zM271 98q37 0 67.5 25t47.5 70q36 92 36 200q0 82 -26.5 128t-73.5 48q-32 1 -62.5 -23.5t-48.5 -66.5q-41 -91 -41 -204 q0 -177 101 -177z" />
<glyph unicode="1" d="M203 0l68 556h-86l14 111h211l-82 -667h-125z" />
<glyph unicode="2" d="M13 0l227 238q96 101 126 148t30 97q0 41 -23 63.5t-63 22.5q-49 0 -74.5 -29t-33.5 -91h-122q8 76 33 123q27 50 80 79t118 29q92 0 151 -56.5t59 -145.5q0 -76 -53.5 -152t-204.5 -215h235l-14 -111h-471z" />
<glyph unicode="3" d="M219 478h-123q14 98 70.5 150t149.5 52q90 0 143.5 -47.5t53.5 -127.5q0 -68 -42 -112q-21 -22 -69 -43q52 -24 74.5 -59t22.5 -90q0 -99 -72 -165q-55 -49 -160 -49q-129 0 -177 76q-28 41 -29 129h123q3 -41 14 -60q24 -38 76 -38q47 0 74 29t27 78q0 48 -29 69.5 t-94 21.5l13 101h23q107 0 107 96q0 38 -22 60.5t-60 22.5q-52 0 -76 -39q-12 -18 -18 -55z" />
<glyph unicode="4" d="M28 142l14 112l324 413h140l-53 -429h76l-11 -96h-77l-17 -142h-124l18 142h-290zM145 238h184l36 289z" />
<glyph unicode="5" d="M26 52l34 110q109 -64 187 -64q59 0 96 34.5t37 89.5t-41 88t-108 33q-42 0 -107 -19l75 343h315l-14 -111h-217l-28 -128q39 3 52 3q92 0 145 -52t53 -143q0 -113 -71.5 -181t-191.5 -68q-60 0 -109 15t-107 50z" />
<glyph unicode="6" d="M300 419h28q92 0 144 -51.5t52 -142.5q0 -103 -71 -170.5t-181 -67.5q-100 0 -166 59t-66 148q0 84 66 174q13 18 64 78l188 221h152zM165 207q0 -50 29 -79.5t79 -29.5q56 0 91 34t35 89q0 49 -30.5 80t-80.5 31q-53 0 -88 -35t-35 -90z" />
<glyph unicode="7" d="M66 0l327 556h-275l14 111h461l-384 -667h-143z" />
<glyph unicode="8" d="M54 179q0 48 20 88t55 62q27 17 83 29q-49 24 -70.5 57t-21.5 83q0 80 60.5 131.5t153.5 51.5q86 0 140 -48t54 -126q0 -73 -45 -118q-21 -21 -71 -40q98 -52 98 -153q0 -86 -66 -149q-63 -60 -162 -60q-103 0 -165.5 52.5t-62.5 139.5zM320 393q42 0 67.5 27t25.5 71 q0 40 -23 63.5t-61 23.5q-42 0 -68 -26.5t-26 -69.5q0 -41 23 -65t62 -24zM178 195q0 -44 28 -72t72 -28q47 0 77.5 31t30.5 79q0 43 -27 69t-72 26q-47 0 -78 -30t-31 -75z" />
<glyph unicode="9" d="M82 0l211 248q-13 -1 -29 -1q-91 0 -143 51.5t-52 142.5q0 104 71 171.5t181 67.5q100 0 166 -59t66 -148q0 -82 -66 -174q-1 -2 -65 -78l-187 -221h-153zM305 334q53 0 88 35.5t35 89.5q0 51 -29 80.5t-79 29.5q-56 0 -91 -34.5t-35 -89.5q0 -49 31 -80t80 -31z" />
<glyph unicode=":" horiz-adv-x="267" d="M147 264q-32 0 -54.5 23t-22.5 55q0 31 23 53.5t55 22.5q31 0 53.5 -23t22.5 -54t-23 -54t-54 -23zM36 65q0 31 23 53.5t55 22.5q31 0 53.5 -23t22.5 -54q0 -32 -23 -54.5t-54 -22.5q-32 0 -54.5 23t-22.5 55z" />
<glyph unicode=";" horiz-adv-x="267" d="M159 217q-32 0 -54.5 23t-22.5 55q0 31 23 53.5t55 22.5q31 0 53.5 -23t22.5 -54q0 -32 -23 -54.5t-54 -22.5zM61 120h129l-129 -284h-68z" />
<glyph unicode="&#x3c;" horiz-adv-x="500" d="M45 280v109l433 220v-128l-296 -147l295 -148l1 -128z" />
<glyph unicode="=" d="M54 376v89h487v-89h-487zM54 215v89h487v-89h-487z" />
<glyph unicode="&#x3e;" horiz-adv-x="500" d="M45 58v129l296 147l-295 147l-1 128l433 -221v-109z" />
<glyph unicode="?" horiz-adv-x="470" d="M163 202l23 186q25 -3 39 -3q56 0 86 25t30 72q0 37 -22 59t-59 22q-76 0 -87 -87h-109q11 91 44 132q55 72 161 72q90 0 144.5 -53t54.5 -141q0 -110 -78 -168q-37 -28 -94 -32l-11 -84h-122zM131 65q0 31 23 53.5t55 22.5q31 0 53.5 -23t22.5 -54q0 -32 -22.5 -54.5 t-54.5 -22.5t-54.5 23t-22.5 55z" />
<glyph unicode="@" horiz-adv-x="764" d="M641 116l29 -70q-121 -61 -248 -61q-116 0 -198 47q-80 46 -126.5 126.5t-46.5 174.5q0 148 104 248.5t257 100.5q141 0 236 -87t95 -215q0 -98 -52.5 -170.5t-124.5 -72.5q-26 0 -46.5 14.5t-29.5 40.5q-49 -56 -116 -56q-70 0 -117 52.5t-47 132.5q0 83 52 139t130 56 q74 0 108 -42l4 34h81l-27 -227q-3 -24 -3 -46q0 -26 20 -26q36 0 66 52t30 115q0 103 -73 170t-185 67q-118 0 -198.5 -80.5t-80.5 -198.5q0 -77 35.5 -140.5t98.5 -99.5q62 -36 153 -36q104 0 204 50zM297 316q0 -45 23 -74.5t59 -29.5q44 0 77 38.5t33 90.5 q0 41 -25.5 68t-65.5 27q-44 0 -72.5 -33.5t-28.5 -86.5z" />
<glyph unicode="A" horiz-adv-x="620" d="M-15 0l336 667h129l142 -667h-138l-22 109h-246l-54 -109h-147zM241 232h167l-33 166q-9 46 -9 73q0 15 2 34l-9 1q-10 -50 -44 -120z" />
<glyph unicode="B" horiz-adv-x="572" d="M49 0l82 667h148q120 0 169 -32q66 -41 66 -132q0 -69 -42 -114q-24 -25 -77 -40q62 -14 89 -35q48 -37 48 -115q0 -57 -26 -102t-72 -69q-55 -28 -190 -28h-195zM230 388h33q49 0 72 10q48 21 48 83q0 41 -21.5 57t-76.5 16h-35zM196 113h57q62 0 90 14q21 10 33.5 32.5 t12.5 48.5q0 44 -32 62q-23 14 -92 14h-48z" />
<glyph unicode="C" horiz-adv-x="593" d="M544 186l-19 -155q-68 -44 -161 -44q-63 0 -122.5 24.5t-101.5 68.5q-86 88 -86 230q0 161 100.5 265.5t254.5 104.5q106 0 189 -53l-18 -147q-85 67 -169 67q-91 0 -152.5 -68t-61.5 -168q0 -84 49.5 -137.5t128.5 -53.5t169 66z" />
<glyph unicode="D" horiz-adv-x="652" d="M49 0l82 667h170q83 0 131.5 -10.5t86.5 -36.5q106 -72 106 -255q0 -111 -44 -198.5t-118 -125.5q-82 -41 -229 -41h-185zM197 120h30q96 0 146 25q52 26 80.5 86t28.5 142q0 126 -82 160q-35 14 -114 14h-36z" />
<glyph unicode="E" horiz-adv-x="469" d="M49 0l82 667h345l-15 -123h-212l-18 -148h204l-15 -123h-204l-18 -150h212l-16 -123h-345z" />
<glyph unicode="F" horiz-adv-x="426" d="M49 0l82 667h315l-15 -123h-182l-18 -148h182l-15 -123h-182l-33 -273h-134z" />
<glyph unicode="G" horiz-adv-x="720" d="M369 347h321q-7 -142 -56 -220q-42 -66 -112 -103t-153 -37q-63 0 -122.5 22.5t-100.5 62.5q-92 87 -92 236q0 160 99 266t249 106q183 0 268 -158l-115 -65q-31 47 -67 68.5t-86 21.5q-86 0 -145.5 -68t-59.5 -168q0 -85 49.5 -138.5t129.5 -53.5q123 0 147 105h-170z " />
<glyph unicode="H" horiz-adv-x="664" d="M49 0l82 667h133l-32 -267h243l33 267h133l-82 -667h-133l34 277h-243l-35 -277h-133z" />
<glyph unicode="I" horiz-adv-x="287" d="M49 0l82 667h134l-82 -667h-134z" />
<glyph unicode="J" horiz-adv-x="420" d="M-6 124l103 54q13 -36 23.5 -47t30.5 -11q26 0 37.5 17t17.5 66l56 464h136l-61 -493q-12 -99 -52 -143t-118 -44q-70 0 -110.5 32.5t-62.5 104.5z" />
<glyph unicode="K" horiz-adv-x="593" d="M49 0l82 667h133l-37 -301l222 301h154l-244 -331l207 -336h-166l-178 322l-40 -322h-133z" />
<glyph unicode="L" horiz-adv-x="424" d="M49 0l82 667h133l-66 -544h200l-15 -123h-334z" />
<glyph unicode="M" horiz-adv-x="835" d="M19 0l205 667h125l63 -348q7 -44 7 -66q0 -17 -2 -39l8 -1q5 39 30 91l172 363h127l12 -667h-134l-6 327q0 43 10 92l-8 2q-11 -49 -27 -83l-161 -338h-91l-61 326q-8 43 -8 77q0 14 1 28h-8q-7 -61 -21 -107l-100 -324h-133z" />
<glyph unicode="N" horiz-adv-x="749" d="M49 0l82 667h134l228 -379q32 -52 47 -106l8 2q-4 31 -4 51q0 25 5 68l44 364h134l-82 -667h-134l-222 365q-42 68 -54 117l-7 -2q5 -31 5 -53q0 -19 -3 -43l-48 -384h-133z" />
<glyph unicode="O" horiz-adv-x="760" d="M140 80q-86 89 -86 234q0 157 102 261.5t254 104.5q145 0 234 -88.5t89 -231.5q0 -153 -97 -261q-101 -112 -258 -112q-147 0 -238 93zM197 313q0 -87 51 -140t134 -53q96 0 153 74q55 71 55 162q0 86 -49 138.5t-128 52.5q-92 0 -154 -67t-62 -167z" />
<glyph unicode="P" horiz-adv-x="535" d="M49 0l82 667h155q114 0 169 -29q39 -21 61 -66.5t22 -104.5q0 -65 -25.5 -113t-71.5 -72q-60 -32 -169 -32h-59l-31 -250h-133zM227 365h40q61 0 88 18q40 27 40 85q0 43 -25 62q-18 14 -80 14h-41z" />
<glyph unicode="Q" horiz-adv-x="760" d="M591 -46l-53 69q-75 -36 -160 -36q-145 0 -234.5 89.5t-89.5 232.5q0 161 101 266t255 105q145 0 234 -88.5t89 -231.5q0 -161 -109 -274l73 -94zM486 263l51 -66q53 73 53 159t-49 138.5t-128 52.5q-94 0 -155 -67t-61 -170q0 -85 52 -137.5t137 -52.5q34 0 67 12 l-72 93z" />
<glyph unicode="R" horiz-adv-x="574" d="M49 0l82 667h163q114 0 164 -31q71 -43 71 -149q0 -102 -66 -162q-37 -32 -95 -42l167 -283h-155l-164 276l-34 -276h-133zM227 365h42q55 0 79 18q38 28 38 87q0 41 -20.5 57.5t-69.5 16.5h-47z" />
<glyph unicode="S" horiz-adv-x="477" d="M11 50l69 112q78 -42 135 -42q37 0 60 20t23 52q0 23 -14.5 40t-64.5 52q-61 43 -87 66q-53 49 -53 124q0 88 61 147t153 59q100 0 177 -58l-60 -119q-64 44 -119 44q-31 0 -50 -16.5t-19 -43.5q0 -23 14 -38.5t66 -48.5q80 -50 110 -91t30 -101q0 -93 -67.5 -157 t-165.5 -64q-47 0 -88 13t-110 50z" />
<glyph unicode="T" horiz-adv-x="411" d="M115 0l67 544h-137l15 123h397l-15 -123h-127l-67 -544h-133z" />
<glyph unicode="U" horiz-adv-x="664" d="M641 667l-48 -392q-18 -144 -59 -199q-68 -89 -219 -89q-112 0 -179 53q-60 47 -60 143q0 42 8 106l47 378h133l-45 -368q-7 -59 -7 -79q0 -100 112 -100q86 0 115 69q15 35 24 113l45 365h133z" />
<glyph unicode="V" horiz-adv-x="595" d="M204 0l-150 667h136l80 -353q11 -46 11 -84q0 -15 -1 -26l6 -2q17 61 52 130l168 335h143l-338 -667h-107z" />
<glyph unicode="W" horiz-adv-x="878" d="M147 0l-93 667h134l47 -340q6 -48 6 -64q0 -15 -3 -48l8 -2q10 51 31 99l153 355h121l48 -343q5 -34 5 -68q0 -14 -3 -45l9 -1q8 46 35 109l148 348h139l-287 -667h-123l-51 356q-6 40 -6 73q0 13 3 40l-8 2q-9 -50 -28 -94l-163 -377h-122z" />
<glyph unicode="X" horiz-adv-x="592" d="M-4 0l233 345l-176 322h153l62 -115q24 -45 32 -67t10 -52l7 -1q16 52 60 119l76 116h154l-222 -328l186 -339h-152l-76 138q-33 61 -39 112l-7 1q-6 -28 -16 -49.5t-37 -60.5l-96 -141h-152z" />
<glyph unicode="Y" horiz-adv-x="560" d="M189 0l36 293l-178 374h152l100 -229l153 229h162l-256 -374l-36 -293h-133z" />
<glyph unicode="Z" horiz-adv-x="549" d="M19 0l306 544h-253l15 123h465l-308 -544h272l-16 -123h-481z" />
<glyph unicode="[" horiz-adv-x="337" d="M26 -160l109 889h237l-10 -83h-120l-89 -723h120l-10 -83h-237z" />
<glyph unicode="\" horiz-adv-x="379" d="M174 -170l-62 900l102 9l62 -901z" />
<glyph unicode="]" horiz-adv-x="337" d="M-11 -77h120l89 723h-120l10 83h237l-109 -889h-237z" />
<glyph unicode="^" horiz-adv-x="500" d="M17 334l160 337h171l160 -337h-136l-109 233l-110 -233h-136z" />
<glyph unicode="_" horiz-adv-x="500" d="M12 -46h500v-117h-500v117z" />
<glyph unicode="`" horiz-adv-x="500" d="M279 467l-112 124l107 52l76 -143z" />
<glyph unicode="a" horiz-adv-x="535" d="M324 0l11 57q-36 -38 -67.5 -54t-71.5 -16q-74 0 -119 52t-45 137q0 104 58 173t145 69q43 0 72.5 -16t62.5 -56l7 58h121l-49 -404h-125zM165 193q0 -44 23 -70.5t62 -26.5q45 0 75 36.5t30 90.5q0 44 -22.5 70.5t-60.5 26.5q-44 0 -75.5 -37t-31.5 -90z" />
<glyph unicode="b" horiz-adv-x="528" d="M30 0l90 729h123l-48 -388q37 43 67.5 59.5t70.5 16.5q73 0 116.5 -52.5t43.5 -140.5q0 -103 -56.5 -170t-144.5 -67q-42 0 -72 16t-60 54l-7 -57h-123zM171 186q0 -44 23 -71t60 -27q44 0 75 37t31 90q0 44 -23 70t-61 26q-44 0 -74.5 -36t-30.5 -89z" />
<glyph unicode="c" horiz-adv-x="376" d="M335 128l-23 -126q-52 -15 -94 -15q-87 0 -137.5 53t-50.5 145q0 104 60.5 168t157.5 64q58 0 120 -25l-21 -112q-46 20 -86 20q-46 0 -72.5 -29.5t-26.5 -79.5q0 -41 22.5 -63t64.5 -22q38 0 86 22z" />
<glyph unicode="d" horiz-adv-x="534" d="M325 0l8 61q-31 -40 -62.5 -57t-75.5 -17q-76 0 -121 51.5t-45 138.5q0 103 57.5 171.5t144.5 68.5q45 0 76.5 -16.5t59.5 -55.5l48 384h122l-90 -729h-122zM162 192q0 -44 23 -71t60 -27q44 0 75 37t31 90q0 44 -23 70t-61 26q-44 0 -74.5 -36t-30.5 -89z" />
<glyph unicode="e" horiz-adv-x="483" d="M316 121l106 -42q-53 -92 -183 -92q-95 0 -151.5 55.5t-56.5 148.5q0 99 63.5 162.5t161.5 63.5q90 0 141.5 -54.5t51.5 -150.5q0 -20 -2 -37h-296q5 -35 18 -52q25 -30 73 -30q36 0 74 28zM162 258h176q-7 68 -74 68q-36 0 -59 -15.5t-43 -52.5z" />
<glyph unicode="f" horiz-adv-x="287" d="M42 0l38 310h-50l12 94h50l18 149q13 104 45.5 143.5t105.5 39.5q35 0 75 -9l-13 -106q-17 4 -31 4q-31 0 -42.5 -16t-18.5 -69l-17 -136h86l-12 -94h-85l-39 -310h-122z" />
<glyph unicode="g" horiz-adv-x="531" d="M24 -61h123q10 -51 75 -51q62 0 86 62q10 24 19 95q-31 -28 -57 -38.5t-67 -10.5q-83 0 -129 46.5t-46 130.5q0 102 58.5 173t143.5 71q46 0 75 -19.5t57 -67.5l9 74h123l-47 -383q-8 -66 -20 -98.5t-38 -59.5q-64 -67 -183 -67q-83 0 -129.5 36.5t-52.5 106.5zM160 181 q0 -44 23 -71t60 -27q44 0 75 37.5t31 90.5q0 44 -23 70t-61 26q-44 0 -74.5 -36.5t-30.5 -89.5z" />
<glyph unicode="h" horiz-adv-x="499" d="M30 0l90 729h122l-46 -377q42 38 70 52t65 14q56 0 87 -28t31 -79q0 -14 -4 -46l-32 -265h-123l25 203q6 53 6 55q0 49 -55 49q-50 0 -73 -46q-10 -22 -18 -81l-22 -180h-123z" />
<glyph unicode="i" horiz-adv-x="239" d="M160 483q-31 0 -52.5 21.5t-21.5 52.5t21.5 52t53.5 21q29 0 50.5 -22t21.5 -51q0 -31 -21.5 -52.5t-51.5 -21.5zM30 0l50 404h122l-49 -404h-123z" />
<glyph unicode="j" horiz-adv-x="239" d="M160 483q-31 0 -52.5 21.5t-21.5 52.5t21.5 52t53.5 21q29 0 50.5 -22t21.5 -51q0 -31 -21.5 -52.5t-51.5 -21.5zM7 -187l72 591h123l-72 -591h-123z" />
<glyph unicode="k" horiz-adv-x="461" d="M30 0l90 729h122l-59 -486l132 161h147l-163 -193l140 -211h-148l-113 207l-25 -207h-123z" />
<glyph unicode="l" horiz-adv-x="239" d="M30 0l90 729h123l-90 -729h-123z" />
<glyph unicode="m" horiz-adv-x="761" d="M30 0l50 404h123l-8 -60q34 40 65 56.5t72 16.5q42 0 68 -16t43 -52q34 39 64 53.5t73 14.5q62 0 96 -29.5t34 -83.5q0 -22 -3 -46l-32 -258h-123l28 223q2 13 2 34q0 50 -57 50q-47 0 -70 -39q-12 -20 -18 -71l-24 -197h-123l28 221q2 12 2 34q0 52 -56 52 q-49 0 -71 -43q-9 -17 -16 -71l-24 -193h-123z" />
<glyph unicode="n" horiz-adv-x="500" d="M30 0l50 404h122l-7 -61q37 43 65.5 59t67.5 16q61 0 96 -33q25 -25 25 -74q0 -29 -2 -43l-34 -268h-122l27 222q0 4 1 12t1.5 14t0.5 9q0 51 -55 51q-50 0 -71 -41q-9 -17 -16 -67l-25 -200h-124z" />
<glyph unicode="o" horiz-adv-x="513" d="M31 193q0 95 66 159.5t163 64.5q95 0 155.5 -58t60.5 -150q0 -95 -64.5 -158.5t-160.5 -63.5q-98 0 -159 57t-61 149zM163 194q0 -44 23.5 -71t60.5 -27q43 0 70 33t27 83q0 43 -23 69.5t-61 26.5q-42 0 -69.5 -32.5t-27.5 -81.5z" />
<glyph unicode="p" horiz-adv-x="534" d="M160 59l-30 -246h-123l73 591h122l-7 -61q64 74 139 74q74 0 119 -52t45 -138q0 -103 -58 -172t-145 -69q-41 0 -69 15t-66 58zM177 185q0 -44 23 -70t61 -26q44 0 74 36.5t30 88.5q0 44 -23 71.5t-60 27.5q-44 0 -74.5 -37.5t-30.5 -90.5z" />
<glyph unicode="q" horiz-adv-x="533" d="M302 -185l31 252q-34 -44 -65 -62t-75 -18q-74 0 -118.5 52.5t-44.5 139.5q0 102 57.5 170t144.5 68q47 0 78.5 -16.5t56.5 -55.5l7 59h123l-72 -589h-123zM163 196q0 -44 23.5 -71t61.5 -27q46 0 75.5 36t29.5 91q0 46 -22 71.5t-62 25.5q-44 0 -75 -37t-31 -89z" />
<glyph unicode="r" horiz-adv-x="332" d="M30 0l50 404h122l-9 -78q38 55 64 74t65 18l21 -1l-15 -126q-28 7 -46 7q-51 0 -75.5 -26t-31.5 -90l-22 -182h-123z" />
<glyph unicode="s" horiz-adv-x="374" d="M9 27l30 97q48 -25 73 -33.5t54 -8.5q48 0 48 34q0 16 -11 23t-63 25q-57 19 -78 42.5t-21 67.5q0 66 43.5 104.5t117.5 38.5q69 0 144 -38l-43 -86q-54 33 -100 33q-22 0 -35 -9t-13 -24q0 -16 11.5 -23t70.5 -24q54 -16 76 -41t22 -71q0 -68 -44 -107.5t-120 -39.5 q-85 0 -162 40z" />
<glyph unicode="t" horiz-adv-x="257" d="M36 0l38 310h-51l12 94h51l17 137h122l-16 -137h54l-11 -94h-55l-38 -310h-123z" />
<glyph unicode="u" horiz-adv-x="505" d="M469 404l-26 -211q-12 -101 -43 -141q-49 -65 -163 -65q-90 0 -138 41t-48 117q0 31 4 59l25 200h122l-26 -215q0 -5 -1 -12t-1.5 -12.5t-0.5 -7.5q0 -30 18 -46.5t51 -16.5q37 0 54.5 22.5t24.5 79.5l25 208h123z" />
<glyph unicode="v" horiz-adv-x="451" d="M137 0l-124 404h124l49 -166q18 -59 18 -99v-8l6 -1q12 48 45 107l94 167h127l-230 -404h-109z" />
<glyph unicode="w" horiz-adv-x="735" d="M120 0l-107 404h121l41 -157q14 -52 14 -88q0 -14 -2 -25l8 -2q13 49 44 104l96 168h98l41 -157q12 -46 12 -90v-24l8 -1q9 44 47 110l93 162h126l-232 -404h-98l-42 162q-17 65 -16 99l1 22l-8 1q-12 -49 -45 -107l-102 -177h-98z" />
<glyph unicode="x" horiz-adv-x="434" d="M-27 0l168 215l-118 189h141l53 -109l74 109h148l-157 -197l132 -207h-142l-70 123l-88 -123h-141z" />
<glyph unicode="y" horiz-adv-x="440" d="M142 14l-129 390h131l73 -253l118 253h130l-290 -588h-129z" />
<glyph unicode="z" horiz-adv-x="386" d="M1 0l187 306h-156l12 98h333l-186 -306h161l-12 -98h-339z" />
<glyph unicode="{" horiz-adv-x="316" d="M54 -13l24 195q-2 48 -49 56l12 99q31 7 46.5 28t20.5 63l23 185q8 67 39.5 96.5t93.5 29.5q20 0 70 -2l-13 -102h-12q-47 0 -60 -26q-8 -17 -12 -51l-20 -168q-5 -45 -20.5 -66.5t-53.5 -39.5q48 -35 48 -95q0 -9 -1 -13l-21 -173q-2 -20 -2 -30q0 -23 13.5 -30.5 t54.5 -8.5l-13 -103h-24q-10 0 -24 -0.5t-16 -0.5q-58 0 -82.5 25t-24.5 84q0 24 3 48z" />
<glyph unicode="|" horiz-adv-x="500" d="M197 -167v834h130v-834h-130z" />
<glyph unicode="}" horiz-adv-x="316" d="M10 -66q48 0 62.5 14t20.5 63l21 168q6 45 21 66.5t52 39.5q-48 35 -48 95q0 7 1 12l21 174q2 9 2 30q0 18 -5 23q-11 16 -50 16h-12l12 102q11 1 25 1q17 1 39 1q58 0 82.5 -25t24.5 -84q0 -27 -3 -48l-24 -196v-4q0 -41 50 -52l-13 -98q-30 -8 -46 -29t-21 -63 l-22 -185q-7 -66 -39 -95.5t-95 -29.5q-3 0 -18 0.5t-26 0.5h-25z" />
<glyph unicode="~" horiz-adv-x="667" d="M173 560l-71 47l8 17q19 44 31 62.5t32 33.5q34 26 81 26q31 0 103 -26q65 -24 87 -24q24 0 39 11t32 41l74 -43q-23 -47 -38 -69t-36 -37q-38 -28 -85 -28q-25 0 -103 28q-61 22 -81 22q-27 0 -44 -17q-11 -9 -29 -44z" />
<glyph unicode="&#xa1;" horiz-adv-x="273" d="M164 367q-32 0 -54.5 23t-22.5 55q0 31 23 53.5t55 22.5q31 0 53.5 -23t22.5 -54q0 -32 -22.5 -54.5t-54.5 -22.5zM35 -160l56 459h109l-56 -459h-109z" />
<glyph unicode="&#xa2;" d="M249 16l14 113q-56 16 -84 46q-54 56 -54 149q0 121 79 187q40 35 112 46l11 94h77l-11 -94q32 -6 59 -17l-14 -116q-56 18 -86 18q-47 0 -75.5 -29.5t-28.5 -79.5q0 -43 24 -66.5t68 -23.5q39 0 78 16l-15 -124q-22 -7 -63 -11l-14 -108h-77z" />
<glyph unicode="&#xa3;" d="M17 1l14 113q72 23 111.5 60t39.5 83q0 5 -2 23h-133l11 85h88q-39 75 -39 123q0 83 68 138t171 55q167 0 230 -144l-109 -59q-22 49 -47.5 68t-69.5 19q-46 0 -72.5 -24t-26.5 -66q0 -28 21 -71q10 -22 14 -39h167l-11 -85h-138q2 -22 2 -27q0 -65 -85 -127 q33 -3 82 -12q43 -7 66 -7q55 0 108 28l31 -118q-66 -30 -126 -30q-36 0 -153 24q-54 12 -96 12q-46 0 -116 -22z" />
<glyph unicode="&#xa4;" horiz-adv-x="667" d="M90 67l-70 70l103 103q-44 63 -44 138q0 72 44 137l-104 104l71 71l104 -104q67 44 140 44q71 0 137 -43l103 102l70 -70l-102 -102q45 -73 45 -140q0 -69 -43 -136l103 -103l-70 -71l-103 103q-65 -45 -142 -45q-68 0 -139 44zM333 241q56 0 96 40t40 97q0 56 -39.5 96 t-94.5 40q-58 0 -98 -39.5t-40 -97.5q0 -56 40 -96t96 -40z" />
<glyph unicode="&#xa5;" d="M191 0l26 209h-159l11 91h154l-29 63h-117l11 91h62l-101 213h148l100 -229l153 229h158l-145 -213h71l-11 -91h-123l-42 -63h157l-11 -91h-162l-26 -209h-125z" />
<glyph unicode="&#xa6;" horiz-adv-x="500" d="M197 320v347h130v-347h-130zM197 153h130v-320h-130v320z" />
<glyph unicode="&#xa7;" d="M52 33h120q5 -54 13 -67q18 -30 71 -30q81 0 81 74q0 29 -13.5 41t-71.5 32q-73 27 -107 52q-60 44 -60 133q0 64 26.5 105t91.5 79q-51 59 -51 119q0 74 55 121t140 47q97 0 139 -53q35 -44 35 -134v-21h-103v13q0 49 -17 71t-54 22q-35 0 -57 -22t-22 -57t29 -53 q18 -11 72 -31q68 -26 88 -45q49 -44 49 -126q0 -58 -26.5 -99.5t-84.5 -76.5q58 -48 58 -122q0 -79 -55.5 -127t-146.5 -48q-60 0 -108 23t-70 61q-20 35 -21 119zM197 284q0 -43 27.5 -71t69.5 -28q43 0 72 28.5t29 71.5t-28.5 71.5t-71.5 28.5q-41 0 -69.5 -29t-28.5 -72 z" />
<glyph unicode="&#xa8;" horiz-adv-x="500" d="M382 480q-28 0 -47.5 20t-19.5 48q0 27 20 46.5t48 19.5q27 0 46.5 -20t19.5 -47q0 -28 -19.5 -47.5t-47.5 -19.5zM194 480q-27 0 -46.5 19.5t-19.5 47.5q0 27 19.5 46.5t47.5 19.5q27 0 46.5 -19.5t19.5 -47.5q0 -27 -19.5 -46.5t-47.5 -19.5z" />
<glyph unicode="&#xa9;" horiz-adv-x="733" d="M33 333q0 146 102 247.5t250 101.5q140 0 240.5 -103t100.5 -246q0 -144 -101.5 -246t-244.5 -102t-245 102.5t-102 245.5zM102 333q0 -118 81.5 -202t196.5 -84q114 0 195 84t81 202q0 117 -80.5 201.5t-191.5 84.5q-118 0 -200 -83t-82 -203zM504 261l-13 -106 q-47 -29 -107 -29q-86 0 -142.5 55t-56.5 140q0 95 64 157.5t161 62.5q69 0 124 -34l-12 -101q-36 26 -59 35.5t-52 9.5q-53 0 -88.5 -37t-35.5 -92q0 -46 29.5 -76t76.5 -30q28 0 50 9t61 36z" />
<glyph unicode="&#xaa;" horiz-adv-x="339" d="M242 419l2 19q-39 -27 -74 -27q-49 0 -79 32.5t-30 84.5q0 63 38 105t94 42q24 0 39.5 -6t37.5 -25l5 23h89l-31 -248h-91zM204 487q25 0 41 18.5t16 47.5q0 24 -12.5 38t-33.5 14q-24 0 -41 -19t-17 -47q0 -24 12.5 -38t34.5 -14zM40 307l7 55h279l-7 -55h-279z" />
<glyph unicode="&#xab;" horiz-adv-x="455" d="M211 207l158 194l61 -53l-121 -145l83 -135l-67 -44zM145 24l-114 183l158 194l61 -53l-121 -145l84 -135z" />
<glyph unicode="&#xac;" horiz-adv-x="500" d="M45 150v117h433v-267h-130v150h-303z" />
<glyph unicode="&#xad;" horiz-adv-x="215" d="M-9 156l13 102h215l-13 -102h-215z" />
<glyph unicode="&#xae;" horiz-adv-x="733" d="M33 333q0 146 102 247.5t250 101.5q140 0 240.5 -103t100.5 -246q0 -144 -101.5 -246t-244.5 -102t-245 102.5t-102 245.5zM102 333q0 -118 81.5 -202t196.5 -84q114 0 195 84t81 202q0 117 -80.5 201.5t-191.5 84.5q-118 0 -200 -83t-82 -203zM214 133l50 400h107 q80 0 116 -26t36 -85q0 -47 -25 -80t-69 -43l107 -166h-113l-95 147l-18 -147h-96zM338 355h19q67 0 67 56q0 23 -11.5 32t-40.5 9h-22z" />
<glyph unicode="&#xaf;" horiz-adv-x="500" d="M130 504l10 80h320l-9 -80h-321z" />
<glyph unicode="&#xb0;" d="M323 413q-56 0 -95 39.5t-39 95.5q0 54 39.5 93t93.5 39q55 0 94.5 -39t39.5 -94t-39 -94.5t-94 -39.5zM323 480q27 0 46.5 19.5t19.5 47.5q0 27 -19.5 46.5t-47.5 19.5q-27 0 -46.5 -19.5t-19.5 -46.5q0 -28 19.5 -47.5t47.5 -19.5z" />
<glyph unicode="&#xb1;" d="M250 98v196h-196v93h196v190h95v-190h196v-93h-196v-196h-95zM54 -27v93h487v-93h-487z" />
<glyph unicode="&#xb2;" horiz-adv-x="387" d="M40 267l145 145q58 58 76.5 85.5t18.5 56.5q0 23 -13.5 36t-37.5 13q-29 0 -43.5 -17t-19.5 -55h-82q5 49 21 78q17 31 50.5 48.5t74.5 17.5q59 0 96.5 -34.5t37.5 -89.5q0 -44 -31.5 -87.5t-121.5 -124.5h141l-9 -72h-303z" />
<glyph unicode="&#xb3;" horiz-adv-x="387" d="M177 549h-83q17 126 140 126q58 0 92 -29t34 -78q0 -62 -63 -91q56 -26 56 -89q0 -59 -40 -94t-107 -35q-82 0 -113 46q-18 26 -19 82h83q1 -31 14 -44.5t40 -13.5t42.5 16t15.5 43q0 24 -15.5 37.5t-43.5 13.5h-18l8 67q7 -1 18 -1q62 0 62 53q0 22 -13 34.5t-35 12.5 q-24 0 -37 -13t-18 -43z" />
<glyph unicode="&#xb4;" horiz-adv-x="500" d="M292 467l-64 44l124 132l90 -74z" />
<glyph unicode="&#xb5;" horiz-adv-x="505" d="M138 14l-8 -201h-123l72 591h123l-26 -215q0 -5 -1 -12.5t-1.5 -12.5t-0.5 -8q0 -30 18 -46.5t51 -16.5q37 0 54.5 23t24.5 80l25 208h123l-26 -211q-12 -101 -43 -141q-49 -66 -154 -66q-60 0 -108 28z" />
<glyph unicode="&#xb6;" d="M128 -92l53 430h-10q-56 0 -89.5 41t-33.5 110q0 178 214 178h326l-14 -113h-73l-80 -646h-103l79 646h-86l-79 -646h-104z" />
<glyph unicode="&#xb7;" horiz-adv-x="267" d="M131 130q-32 0 -54.5 23t-22.5 55q0 31 23 53.5t55 22.5q31 0 53.5 -23t22.5 -54t-23 -54t-54 -23z" />
<glyph unicode="&#xb8;" horiz-adv-x="500" d="M152 -166l86 121l72 -45l-101 -115z" />
<glyph unicode="&#xb9;" horiz-adv-x="387" d="M175 267l40 328h-53l9 72h138l-50 -400h-84z" />
<glyph unicode="&#xba;" horiz-adv-x="339" d="M205 411q-64 0 -104 35.5t-40 91.5q0 58 43 97.5t106 39.5q62 0 101 -36t39 -92q0 -58 -41.5 -97t-103.5 -39zM203 487q23 0 37.5 17t14.5 43q0 23 -13 37t-34 14q-23 0 -37.5 -16.5t-14.5 -42.5q0 -23 13 -37.5t34 -14.5zM40 307l7 55h279l-7 -55h-279z" />
<glyph unicode="&#xbb;" horiz-adv-x="455" d="M200 65l121 146l-84 135l67 43l115 -182l-159 -195zM20 65l121 146l-83 135l67 43l114 -182l-158 -195z" />
<glyph unicode="&#xbc;" horiz-adv-x="925" d="M320 11l249 665l62 -20l-248 -665zM172 267l40 328h-53l9 72h138l-50 -400h-84zM562 84l9 70l201 246h92l-31 -253h47l-8 -63h-47l-10 -84h-84l11 84h-180zM645 147h105l19 156z" />
<glyph unicode="&#xbd;" horiz-adv-x="925" d="M320 11l249 665l62 -20l-248 -665zM172 267l40 328h-53l9 72h138l-50 -400h-84zM549 0l145 146q58 58 76.5 85.5t18.5 56.5q0 23 -13.5 35.5t-37.5 12.5q-29 0 -44 -17t-19 -54h-82q4 47 21 77q39 66 125 66q59 0 96.5 -34.5t37.5 -88.5q0 -45 -30.5 -87t-123.5 -126h142 l-10 -72h-302z" />
<glyph unicode="&#xbe;" horiz-adv-x="925" d="M320 11l248 665l62 -20l-247 -665zM173 549h-83q17 126 140 126q58 0 92 -29t34 -78q0 -62 -63 -91q56 -26 56 -89q0 -59 -40 -94t-107 -35q-82 0 -113 46q-18 26 -19 82h83q1 -31 14 -44.5t40 -13.5t42.5 16t15.5 43q0 24 -15.5 37.5t-43.5 13.5h-18l8 67q7 -1 18 -1 q62 0 62 53q0 22 -13 34.5t-35 12.5q-24 0 -37 -13t-18 -43zM562 84l9 70l201 246h92l-31 -253h47l-8 -63h-47l-11 -84h-83l10 84h-179zM644 147h105l19 156z" />
<glyph unicode="&#xbf;" horiz-adv-x="470" d="M269 367q-32 0 -54.5 23t-22.5 55q0 31 23 53.5t55 22.5q31 0 53.5 -23t22.5 -54q0 -32 -23 -54.5t-54 -22.5zM303 31h109q-11 -92 -43 -133q-57 -72 -162 -72q-89 0 -144 53.5t-55 140.5q0 109 78 168q37 28 95 32l10 84h122l-23 -186q-25 3 -38 3q-117 0 -117 -97 q0 -37 22 -59t59 -22q77 0 87 88z" />
<glyph unicode="&#xc0;" horiz-adv-x="620" d="M365 717l-113 105l99 53l80 -125zM-15 0l336 667h129l142 -667h-138l-22 109h-246l-54 -109h-147zM241 232h167l-33 166q-9 46 -9 73q0 15 2 34l-9 1q-10 -50 -44 -120z" />
<glyph unicode="&#xc1;" horiz-adv-x="620" d="M397 717l-52 50l139 108l73 -83zM-15 0l336 667h129l142 -667h-138l-22 109h-246l-54 -109h-147zM241 232h167l-33 166q-9 46 -9 73q0 15 2 34l-9 1q-10 -50 -44 -120z" />
<glyph unicode="&#xc2;" horiz-adv-x="620" d="M282 717l-42 61l184 99l123 -108l-61 -52l-80 66zM-15 0l336 667h129l142 -667h-138l-22 109h-246l-54 -109h-147zM241 232h167l-33 166q-9 46 -9 73q0 15 2 34l-9 1q-10 -50 -44 -120z" />
<glyph unicode="&#xc3;" horiz-adv-x="620" d="M223 734q31 120 122 120q30 0 71 -24q36 -20 55 -20q18 0 28 8t20 30h68q-31 -120 -124 -120q-31 0 -70 20q-42 22 -61 22q-16 0 -24.5 -7.5t-17.5 -28.5h-67zM-15 0l336 667h129l142 -667h-138l-22 109h-246l-54 -109h-147zM241 232h167l-33 166q-9 46 -9 73q0 15 2 34 l-9 1q-10 -50 -44 -120z" />
<glyph unicode="&#xc4;" horiz-adv-x="620" d="M495 723q-29 0 -49.5 21t-20.5 50q0 28 21 48.5t50 20.5q28 0 48.5 -21t20.5 -49q0 -29 -20.5 -49.5t-49.5 -20.5zM302 723q-29 0 -49.5 21t-20.5 50q0 28 21 48.5t50 20.5q28 0 48.5 -21t20.5 -49q0 -29 -21 -49.5t-49 -20.5zM-15 0l336 667h129l142 -667h-138l-22 109 h-246l-54 -109h-147zM241 232h167l-33 166q-9 46 -9 73q0 15 2 34l-9 1q-10 -50 -44 -120z" />
<glyph unicode="&#xc5;" horiz-adv-x="620" d="M398 713q-41 0 -70.5 29.5t-29.5 71.5q0 41 29.5 70t72.5 29q40 0 69 -29.5t29 -70.5t-29.5 -70.5t-70.5 -29.5zM398 775q16 0 27 11t11 27t-11 27t-26 11q-16 0 -27.5 -11t-11.5 -27t11 -27t27 -11zM-15 0l336 667h129l142 -667h-138l-22 109h-246l-54 -109h-147z M241 232h167l-33 166q-9 46 -9 73q0 15 2 34l-9 1q-10 -50 -44 -120z" />
<glyph unicode="&#xc6;" horiz-adv-x="894" d="M-15 0l345 667h352l31 -123h-221l33 -149h224l30 -123h-225l34 -149h228l30 -123h-368l-24 107h-267l-57 -107h-145zM244 230h183l-41 186q-8 35 -8 68q0 16 1 30l-7 1q-6 -39 -32 -92z" />
<glyph unicode="&#xc7;" horiz-adv-x="593" d="M544 186l-19 -155q-68 -44 -161 -44q-63 0 -122.5 24.5t-101.5 68.5q-86 88 -86 230q0 161 100.5 265.5t254.5 104.5q106 0 189 -53l-18 -147q-85 67 -169 67q-91 0 -152.5 -68t-61.5 -168q0 -84 49.5 -137.5t128.5 -53.5t169 66zM206 -166l107 119l77 -52l-116 -112z " />
<glyph unicode="&#xc8;" horiz-adv-x="469" d="M312 717l-113 105l99 53l80 -125zM49 0l82 667h345l-15 -123h-212l-18 -148h204l-15 -123h-204l-18 -150h212l-16 -123h-345z" />
<glyph unicode="&#xc9;" horiz-adv-x="469" d="M302 717l-52 50l139 108l73 -83zM49 0l82 667h345l-15 -123h-212l-18 -148h204l-15 -123h-204l-18 -150h212l-16 -123h-345z" />
<glyph unicode="&#xca;" horiz-adv-x="469" d="M210 717l-42 61l184 99l123 -108l-61 -52l-80 66zM49 0l82 667h345l-15 -123h-212l-18 -148h204l-15 -123h-204l-18 -150h212l-16 -123h-345z" />
<glyph unicode="&#xcb;" horiz-adv-x="469" d="M420 723q-29 0 -49.5 21t-20.5 50q0 28 21 48.5t50 20.5q28 0 48.5 -21t20.5 -49q0 -29 -21 -49.5t-49 -20.5zM227 723q-29 0 -49.5 21t-20.5 50q0 28 21 48.5t50 20.5q28 0 48.5 -21t20.5 -49q0 -29 -20.5 -49.5t-49.5 -20.5zM49 0l82 667h345l-15 -123h-212l-18 -148 h204l-15 -123h-204l-18 -150h212l-16 -123h-345z" />
<glyph unicode="&#xcc;" horiz-adv-x="287" d="M189 717l-113 105l99 53l80 -125zM49 0l82 667h134l-82 -667h-134z" />
<glyph unicode="&#xcd;" horiz-adv-x="287" d="M211 717l-52 50l122 108l70 -79zM49 0l82 667h134l-82 -667h-134z" />
<glyph unicode="&#xce;" horiz-adv-x="287" d="M99 717l-41 61l177 99l117 -108l-61 -52l-74 66zM49 0l82 667h134l-82 -667h-134z" />
<glyph unicode="&#xcf;" horiz-adv-x="287" d="M301 725q-28 0 -48 20t-20 49q0 28 20 47.5t49 19.5q27 0 47 -20t20 -48t-20 -48t-48 -20zM126 725q-28 0 -48 20t-20 49q0 28 20 47.5t49 19.5q27 0 47 -20t20 -48t-20 -48t-48 -20zM49 0l82 667h134l-82 -667h-134z" />
<glyph unicode="&#xd0;" horiz-adv-x="652" d="M48 0l36 290h-58l12 100h58l35 277h170q83 0 131 -10.5t86 -36.5q106 -72 106 -255q0 -111 -44 -198.5t-118 -125.5q-81 -41 -228 -41h-186zM197 120h30q95 0 145 25q51 25 80 86t29 142q0 126 -82 160q-35 14 -114 14h-36l-19 -157h133l-12 -100h-133z" />
<glyph unicode="&#xd1;" horiz-adv-x="749" d="M279 734q31 120 122 120q30 0 71 -24q36 -20 55 -20q18 0 28 8t20 30h68q-32 -120 -124 -120q-31 0 -70 20q-42 22 -61 22q-16 0 -24.5 -7.5t-17.5 -28.5h-67zM49 0l82 667h134l228 -379q32 -52 47 -106l8 2q-4 31 -4 51q0 25 5 68l44 364h134l-82 -667h-134l-222 365 q-42 68 -54 117l-7 -2q5 -31 5 -53q0 -19 -3 -43l-48 -384h-133z" />
<glyph unicode="&#xd2;" horiz-adv-x="760" d="M434 717l-113 105l99 53l80 -125zM140 80q-86 89 -86 234q0 157 102 261.5t254 104.5q145 0 234 -88.5t89 -231.5q0 -153 -97 -261q-101 -112 -258 -112q-147 0 -238 93zM197 313q0 -87 51 -140t134 -53q96 0 153 74q55 71 55 162q0 86 -49 138.5t-128 52.5 q-92 0 -154 -67t-62 -167z" />
<glyph unicode="&#xd3;" horiz-adv-x="760" d="M450 717l-52 50l139 108l73 -83zM140 80q-86 89 -86 234q0 157 102 261.5t254 104.5q145 0 234 -88.5t89 -231.5q0 -153 -97 -261q-101 -112 -258 -112q-147 0 -238 93zM197 313q0 -87 51 -140t134 -53q96 0 153 74q55 71 55 162q0 86 -49 138.5t-128 52.5 q-92 0 -154 -67t-62 -167z" />
<glyph unicode="&#xd4;" horiz-adv-x="760" d="M336 717l-42 61l184 99l123 -108l-61 -52l-80 66zM140 80q-86 89 -86 234q0 157 102 261.5t254 104.5q145 0 234 -88.5t89 -231.5q0 -153 -97 -261q-101 -112 -258 -112q-147 0 -238 93zM197 313q0 -87 51 -140t134 -53q96 0 153 74q55 71 55 162q0 86 -49 138.5 t-128 52.5q-92 0 -154 -67t-62 -167z" />
<glyph unicode="&#xd5;" horiz-adv-x="760" d="M283 734q31 120 122 120q30 0 71 -24q36 -20 55 -20q18 0 28 8t20 30h68q-31 -120 -124 -120q-31 0 -70 20q-42 22 -61 22q-16 0 -24.5 -7.5t-17.5 -28.5h-67zM140 80q-86 89 -86 234q0 157 102 261.5t254 104.5q145 0 234 -88.5t89 -231.5q0 -153 -97 -261 q-101 -112 -258 -112q-147 0 -238 93zM197 313q0 -87 51 -140t134 -53q96 0 153 74q55 71 55 162q0 86 -49 138.5t-128 52.5q-92 0 -154 -67t-62 -167z" />
<glyph unicode="&#xd6;" horiz-adv-x="760" d="M548 723q-29 0 -49.5 21t-20.5 50q0 28 21 48.5t50 20.5q28 0 48.5 -21t20.5 -49q0 -29 -21 -49.5t-49 -20.5zM355 723q-29 0 -49.5 21t-20.5 50q0 28 21 48.5t50 20.5q28 0 48.5 -21t20.5 -49q0 -29 -20.5 -49.5t-49.5 -20.5zM140 80q-86 89 -86 234q0 157 102 261.5 t254 104.5q145 0 234 -88.5t89 -231.5q0 -153 -97 -261q-101 -112 -258 -112q-147 0 -238 93zM197 313q0 -87 51 -140t134 -53q96 0 153 74q55 71 55 162q0 86 -49 138.5t-128 52.5q-92 0 -154 -67t-62 -167z" />
<glyph unicode="&#xd7;" d="M149 121l-67 66l153 156l-158 159l61 59l156 -157l156 158l69 -67l-157 -158l156 -157l-61 -59l-155 154z" />
<glyph unicode="&#xd8;" horiz-adv-x="773" d="M27 65l77 72q-25 46 -34 83t-9 88q0 161 101 266.5t255 105.5q122 0 211 -67l80 72l67 -75l-81 -73q46 -87 46 -176q0 -154 -97 -262q-101 -112 -259 -112q-64 0 -114 17t-101 57l-79 -72zM217 235l303 285q-46 27 -99 27q-94 0 -155.5 -67t-61.5 -171q0 -38 13 -74z M278 154q45 -34 113 -34q94 0 151 74q55 71 55 163q0 38 -15 82z" />
<glyph unicode="&#xd9;" horiz-adv-x="664" d="M392 717l-113 105l99 53l80 -125zM641 667l-48 -392q-18 -144 -59 -199q-68 -89 -219 -89q-112 0 -179 53q-60 47 -60 143q0 42 8 106l47 378h133l-45 -368q-7 -59 -7 -79q0 -100 112 -100q86 0 115 69q15 35 24 113l45 365h133z" />
<glyph unicode="&#xda;" horiz-adv-x="664" d="M399 717l-52 50l139 108l73 -83zM641 667l-48 -392q-18 -144 -59 -199q-68 -89 -219 -89q-112 0 -179 53q-60 47 -60 143q0 42 8 106l47 378h133l-45 -368q-7 -59 -7 -79q0 -100 112 -100q86 0 115 69q15 35 24 113l45 365h133z" />
<glyph unicode="&#xdb;" horiz-adv-x="664" d="M283 717l-42 61l184 99l123 -108l-61 -52l-80 66zM641 667l-48 -392q-18 -144 -59 -199q-68 -89 -219 -89q-112 0 -179 53q-60 47 -60 143q0 42 8 106l47 378h133l-45 -368q-7 -59 -7 -79q0 -100 112 -100q86 0 115 69q15 35 24 113l45 365h133z" />
<glyph unicode="&#xdc;" horiz-adv-x="664" d="M493 723q-29 0 -49.5 21t-20.5 50q0 28 21 48.5t50 20.5q28 0 48.5 -21t20.5 -49q0 -29 -20.5 -49.5t-49.5 -20.5zM300 723q-29 0 -49.5 21t-20.5 50q0 28 21 48.5t50 20.5q28 0 48.5 -21t20.5 -49q0 -29 -21 -49.5t-49 -20.5zM641 667l-48 -392q-18 -144 -59 -199 q-68 -89 -219 -89q-112 0 -179 53q-60 47 -60 143q0 42 8 106l47 378h133l-45 -368q-7 -59 -7 -79q0 -100 112 -100q86 0 115 69q15 35 24 113l45 365h133z" />
<glyph unicode="&#xdd;" horiz-adv-x="560" d="M344 717l-52 50l139 108l73 -83zM189 0l36 293l-178 374h152l100 -229l153 229h162l-256 -374l-36 -293h-133z" />
<glyph unicode="&#xde;" horiz-adv-x="535" d="M49 0l82 667h134l-12 -94h22q115 0 169 -29q39 -20 61 -65.5t22 -104.5q0 -65 -25.5 -113t-71.5 -72q-60 -32 -170 -32h-58l-20 -157h-133zM216 272h40q61 0 88 18q40 27 40 85q0 43 -25 62q-18 14 -80 14h-41z" />
<glyph unicode="&#xdf;" horiz-adv-x="527" d="M30 0l58 473q17 140 53 189q57 79 172 79q85 0 134.5 -45.5t49.5 -124.5q0 -76 -37 -121q-22 -27 -78 -47q52 -26 72 -50q40 -46 40 -122q0 -72 -34.5 -129.5t-92.5 -81.5q-47 -19 -156 -20l14 117h21q54 0 85 34t31 93q0 51 -26.5 75t-82.5 24l14 115h16q42 0 68 29.5 t26 77.5q0 37 -17.5 57.5t-49.5 20.5q-60 0 -82 -77q-9 -31 -18 -104l-57 -462h-123z" />
<glyph unicode="&#xe0;" horiz-adv-x="535" d="M289 467l-112 124l107 52l76 -143zM324 0l11 57q-36 -38 -67.5 -54t-71.5 -16q-74 0 -119 52t-45 137q0 104 58 173t145 69q43 0 72.5 -16t62.5 -56l7 58h121l-49 -404h-125zM165 193q0 -44 23 -70.5t62 -26.5q45 0 75 36.5t30 90.5q0 44 -22.5 70.5t-60.5 26.5 q-44 0 -75.5 -37t-31.5 -90z" />
<glyph unicode="&#xe1;" horiz-adv-x="535" d="M316 467l-64 44l124 132l90 -74zM324 0l11 57q-36 -38 -67.5 -54t-71.5 -16q-74 0 -119 52t-45 137q0 104 58 173t145 69q43 0 72.5 -16t62.5 -56l7 58h121l-49 -404h-125zM165 193q0 -44 23 -70.5t62 -26.5q45 0 75 36.5t30 90.5q0 44 -22.5 70.5t-60.5 26.5 q-44 0 -75.5 -37t-31.5 -90z" />
<glyph unicode="&#xe2;" horiz-adv-x="535" d="M215 467l-50 67l177 111l121 -133l-73 -45l-66 73zM324 0l11 57q-36 -38 -67.5 -54t-71.5 -16q-74 0 -119 52t-45 137q0 104 58 173t145 69q43 0 72.5 -16t62.5 -56l7 58h121l-49 -404h-125zM165 193q0 -44 23 -70.5t62 -26.5q45 0 75 36.5t30 90.5q0 44 -22.5 70.5 t-60.5 26.5q-44 0 -75.5 -37t-31.5 -90z" />
<glyph unicode="&#xe3;" horiz-adv-x="535" d="M151 491q15 58 45 89t71 31q28 0 71 -24q35 -20 55 -20q29 0 46 38h67q-32 -120 -122 -120q-30 0 -68 20q-41 22 -58 22q-29 0 -40 -36h-67zM324 0l11 57q-36 -38 -67.5 -54t-71.5 -16q-74 0 -119 52t-45 137q0 104 58 173t145 69q43 0 72.5 -16t62.5 -56l7 58h121 l-49 -404h-125zM165 193q0 -44 23 -70.5t62 -26.5q45 0 75 36.5t30 90.5q0 44 -22.5 70.5t-60.5 26.5q-44 0 -75.5 -37t-31.5 -90z" />
<glyph unicode="&#xe4;" horiz-adv-x="535" d="M413 480q-28 0 -47.5 20t-19.5 48q0 27 20 46.5t48 19.5q27 0 46.5 -20t19.5 -47q0 -28 -19.5 -47.5t-47.5 -19.5zM225 480q-27 0 -46.5 19.5t-19.5 47.5q0 27 19.5 46.5t47.5 19.5q27 0 46.5 -19.5t19.5 -47.5q0 -27 -19.5 -46.5t-47.5 -19.5zM324 0l11 57 q-36 -38 -67.5 -54t-71.5 -16q-74 0 -119 52t-45 137q0 104 58 173t145 69q43 0 72.5 -16t62.5 -56l7 58h121l-49 -404h-125zM165 193q0 -44 23 -70.5t62 -26.5q45 0 75 36.5t30 90.5q0 44 -22.5 70.5t-60.5 26.5q-44 0 -75.5 -37t-31.5 -90z" />
<glyph unicode="&#xe5;" horiz-adv-x="535" d="M309 464q-41 0 -69 28t-28 69q0 40 28.5 68t69.5 28q39 0 67 -28.5t28 -67.5q0 -40 -28 -68.5t-68 -28.5zM309 522q16 0 27 11.5t11 27.5q0 15 -11 26.5t-27 11.5t-27.5 -11t-11.5 -27q0 -17 11 -28t28 -11zM324 0l11 57q-36 -38 -67.5 -54t-71.5 -16q-74 0 -119 52 t-45 137q0 104 58 173t145 69q43 0 72.5 -16t62.5 -56l7 58h121l-49 -404h-125zM165 193q0 -44 23 -70.5t62 -26.5q45 0 75 36.5t30 90.5q0 44 -22.5 70.5t-60.5 26.5q-44 0 -75.5 -37t-31.5 -90z" />
<glyph unicode="&#xe6;" horiz-adv-x="753" d="M608 131l90 -34q-68 -110 -184 -110q-98 0 -156 65q-38 -35 -75 -50t-87 -15q-81 0 -130 38t-49 102q0 61 46.5 100.5t118.5 39.5q83 0 140 -56q1 10 1 28q0 49 -33 71q-35 22 -83 22q-42 0 -122 -29l11 91q68 23 125 23q62 0 101 -18.5t63 -58.5q36 42 70.5 59.5 t82.5 17.5q83 0 132 -53.5t49 -143.5q0 -19 -2 -43h-296q1 -39 10 -58q19 -42 79 -42q31 0 52.5 12t45.5 42zM442 252h162q-1 41 -16 59t-49 18t-55.5 -17t-41.5 -60zM126 126q0 -22 24 -35.5t62 -13.5t63.5 15t25.5 37t-23.5 34.5t-62.5 12.5q-40 0 -64.5 -14t-24.5 -36z " />
<glyph unicode="&#xe7;" horiz-adv-x="376" d="M335 128l-23 -126q-52 -15 -94 -15q-87 0 -137.5 53t-50.5 145q0 104 60.5 168t157.5 64q58 0 120 -25l-21 -112q-46 20 -86 20q-46 0 -72.5 -29.5t-26.5 -79.5q0 -41 22.5 -63t64.5 -22q38 0 86 22zM162 -45l71 -45l-101 -115l-56 39z" />
<glyph unicode="&#xe8;" horiz-adv-x="483" d="M264 467l-112 124l107 52l76 -143zM316 121l106 -42q-53 -92 -183 -92q-95 0 -151.5 55.5t-56.5 148.5q0 99 63.5 162.5t161.5 63.5q90 0 141.5 -54.5t51.5 -150.5q0 -20 -2 -37h-296q5 -35 18 -52q25 -30 73 -30q36 0 74 28zM162 258h176q-7 68 -74 68q-36 0 -59 -15.5 t-43 -52.5z" />
<glyph unicode="&#xe9;" horiz-adv-x="483" d="M284 467l-64 44l124 132l90 -74zM316 121l106 -42q-53 -92 -183 -92q-95 0 -151.5 55.5t-56.5 148.5q0 99 63.5 162.5t161.5 63.5q90 0 141.5 -54.5t51.5 -150.5q0 -20 -2 -37h-296q5 -35 18 -52q25 -30 73 -30q36 0 74 28zM162 258h176q-7 68 -74 68q-36 0 -59 -15.5 t-43 -52.5z" />
<glyph unicode="&#xea;" horiz-adv-x="483" d="M186 467l-50 67l177 111l121 -133l-73 -45l-66 73zM316 121l106 -42q-53 -92 -183 -92q-95 0 -151.5 55.5t-56.5 148.5q0 99 63.5 162.5t161.5 63.5q90 0 141.5 -54.5t51.5 -150.5q0 -20 -2 -37h-296q5 -35 18 -52q25 -30 73 -30q36 0 74 28zM162 258h176q-7 68 -74 68 q-36 0 -59 -15.5t-43 -52.5z" />
<glyph unicode="&#xeb;" horiz-adv-x="483" d="M384 480q-28 0 -47.5 20t-19.5 48q0 27 20 46.5t48 19.5q27 0 46.5 -20t19.5 -47q0 -28 -19.5 -47.5t-47.5 -19.5zM196 480q-27 0 -46.5 19.5t-19.5 47.5q0 27 19.5 46.5t47.5 19.5q27 0 46.5 -19.5t19.5 -47.5q0 -27 -19.5 -46.5t-47.5 -19.5zM316 121l106 -42 q-53 -92 -183 -92q-95 0 -151.5 55.5t-56.5 148.5q0 99 63.5 162.5t161.5 63.5q90 0 141.5 -54.5t51.5 -150.5q0 -20 -2 -37h-296q5 -35 18 -52q25 -30 73 -30q36 0 74 28zM162 258h176q-7 68 -74 68q-36 0 -59 -15.5t-43 -52.5z" />
<glyph unicode="&#xec;" horiz-adv-x="239" d="M125 467l-112 124l107 52l76 -143zM30 0l50 404h123l-50 -404h-123z" />
<glyph unicode="&#xed;" horiz-adv-x="239" d="M174 467l-63 44l114 132l90 -74zM30 0l50 404h122l-49 -404h-123z" />
<glyph unicode="&#xee;" horiz-adv-x="239" d="M53 467l-50 67l173 111l118 -133l-73 -45l-62 73zM30 0l49 404h123l-50 -404h-122z" />
<glyph unicode="&#xef;" horiz-adv-x="239" d="M239 480q-28 0 -47.5 20t-19.5 48q0 27 20 46.5t48 19.5q27 0 46.5 -20t19.5 -47q0 -28 -19.5 -47.5t-47.5 -19.5zM68 480q-27 0 -46.5 19.5t-19.5 47.5q0 27 19.5 46.5t47.5 19.5q27 0 46.5 -19.5t19.5 -47.5q0 -27 -19.5 -46.5t-47.5 -19.5zM30 0l49 404h123l-50 -404 h-122z" />
<glyph unicode="&#xf0;" horiz-adv-x="512" d="M430 660l-90 -53q57 -61 87 -127q53 -116 53 -232q0 -120 -56 -186q-63 -75 -171 -75q-99 0 -160 56t-61 147q0 96 65.5 161.5t162.5 65.5q37 0 70 -18q-14 77 -77 159l-107 -62l-37 65l90 54q-29 29 -96 67l60 54q65 -28 120 -73l104 60zM164 194q0 -44 23 -71.5 t61 -27.5q43 0 70 33t27 84q0 44 -23 70t-61 26q-42 0 -69.5 -32.5t-27.5 -81.5z" />
<glyph unicode="&#xf1;" horiz-adv-x="500" d="M125 491q15 58 45 89t71 31q28 0 71 -24q35 -20 55 -20q29 0 46 38h67q-32 -120 -122 -120q-30 0 -68 20q-41 22 -58 22q-29 0 -40 -36h-67zM30 0l50 404h122l-7 -61q37 43 65.5 59t67.5 16q61 0 96 -33q25 -25 25 -74q0 -29 -2 -43l-34 -268h-122l27 222q0 4 1 12 t1.5 14t0.5 9q0 51 -55 51q-50 0 -71 -41q-9 -17 -16 -67l-25 -200h-124z" />
<glyph unicode="&#xf2;" horiz-adv-x="513" d="M273 467l-112 124l107 52l76 -143zM31 193q0 95 66 159.5t163 64.5q95 0 155.5 -58t60.5 -150q0 -95 -64.5 -158.5t-160.5 -63.5q-98 0 -159 57t-61 149zM163 194q0 -44 23.5 -71t60.5 -27q43 0 70 33t27 83q0 43 -23 69.5t-61 26.5q-42 0 -69.5 -32.5t-27.5 -81.5z" />
<glyph unicode="&#xf3;" horiz-adv-x="513" d="M299 467l-64 44l124 132l90 -74zM31 193q0 95 66 159.5t163 64.5q95 0 155.5 -58t60.5 -150q0 -95 -64.5 -158.5t-160.5 -63.5q-98 0 -159 57t-61 149zM163 194q0 -44 23.5 -71t60.5 -27q43 0 70 33t27 83q0 43 -23 69.5t-61 26.5q-42 0 -69.5 -32.5t-27.5 -81.5z" />
<glyph unicode="&#xf4;" horiz-adv-x="513" d="M188 467l-50 67l177 111l121 -133l-73 -45l-66 73zM31 193q0 95 66 159.5t163 64.5q95 0 155.5 -58t60.5 -150q0 -95 -64.5 -158.5t-160.5 -63.5q-98 0 -159 57t-61 149zM163 194q0 -44 23.5 -71t60.5 -27q43 0 70 33t27 83q0 43 -23 69.5t-61 26.5q-42 0 -69.5 -32.5 t-27.5 -81.5z" />
<glyph unicode="&#xf5;" horiz-adv-x="513" d="M132 491q15 58 45 89t71 31q28 0 71 -24q35 -20 55 -20q29 0 46 38h67q-32 -120 -122 -120q-30 0 -68 20q-41 22 -58 22q-29 0 -40 -36h-67zM31 193q0 95 66 159.5t163 64.5q95 0 155.5 -58t60.5 -150q0 -95 -64.5 -158.5t-160.5 -63.5q-98 0 -159 57t-61 149zM163 194 q0 -44 23.5 -71t60.5 -27q43 0 70 33t27 83q0 43 -23 69.5t-61 26.5q-42 0 -69.5 -32.5t-27.5 -81.5z" />
<glyph unicode="&#xf6;" horiz-adv-x="513" d="M392 480q-28 0 -47.5 20t-19.5 48q0 27 20 46.5t48 19.5q27 0 46.5 -20t19.5 -47q0 -28 -19.5 -47.5t-47.5 -19.5zM204 480q-27 0 -46.5 19.5t-19.5 47.5q0 27 19.5 46.5t47.5 19.5q27 0 46.5 -19.5t19.5 -47.5q0 -27 -19.5 -46.5t-47.5 -19.5zM31 193q0 95 66 159.5 t163 64.5q95 0 155.5 -58t60.5 -150q0 -95 -64.5 -158.5t-160.5 -63.5q-98 0 -159 57t-61 149zM163 194q0 -44 23.5 -71t60.5 -27q43 0 70 33t27 83q0 43 -23 69.5t-61 26.5q-42 0 -69.5 -32.5t-27.5 -81.5z" />
<glyph unicode="&#xf7;" d="M298 440q-31 0 -52 21.5t-21 51.5t21.5 51t52.5 21q29 0 50 -21.5t21 -50.5q0 -30 -21.5 -51.5t-50.5 -21.5zM54 294v93h487v-93h-487zM225 168q0 30 21.5 51t52.5 21q29 0 50 -21.5t21 -50.5q0 -30 -21.5 -51.5t-50.5 -21.5q-31 0 -52 21.5t-21 51.5z" />
<glyph unicode="&#xf8;" horiz-adv-x="540" d="M8 36l61 53q-25 47 -25 100q0 98 65.5 163t163.5 65q77 0 133 -39l63 54l52 -62l-61 -51q29 -55 29 -111q0 -94 -64.5 -157.5t-159.5 -63.5q-85 0 -142 43l-67 -56zM179 163l143 130q-22 15 -50 15q-41 0 -68.5 -32.5t-27.5 -82.5q0 -9 3 -30zM206 115q26 -19 55 -19 q42 0 69 33t27 84q0 14 -4 34z" />
<glyph unicode="&#xf9;" horiz-adv-x="505" d="M273 467l-112 124l107 52l76 -143zM469 404l-26 -211q-12 -101 -43 -141q-49 -65 -163 -65q-90 0 -138 41t-48 117q0 31 4 59l25 200h122l-26 -215q0 -5 -1 -12t-1.5 -12.5t-0.5 -7.5q0 -30 18 -46.5t51 -16.5q37 0 54.5 22.5t24.5 79.5l25 208h123z" />
<glyph unicode="&#xfa;" horiz-adv-x="505" d="M301 467l-64 44l124 132l90 -74zM469 404l-26 -211q-12 -101 -43 -141q-49 -65 -163 -65q-90 0 -138 41t-48 117q0 31 4 59l25 200h122l-26 -215q0 -5 -1 -12t-1.5 -12.5t-0.5 -7.5q0 -30 18 -46.5t51 -16.5q37 0 54.5 22.5t24.5 79.5l25 208h123z" />
<glyph unicode="&#xfb;" horiz-adv-x="505" d="M183 467l-50 67l177 111l121 -133l-73 -45l-66 73zM469 404l-26 -211q-12 -101 -43 -141q-49 -65 -163 -65q-90 0 -138 41t-48 117q0 31 4 59l25 200h122l-26 -215q0 -5 -1 -12t-1.5 -12.5t-0.5 -7.5q0 -30 18 -46.5t51 -16.5q37 0 54.5 22.5t24.5 79.5l25 208h123z" />
<glyph unicode="&#xfc;" horiz-adv-x="505" d="M382 480q-28 0 -47.5 20t-19.5 48q0 27 20 46.5t48 19.5q27 0 46.5 -20t19.5 -47q0 -28 -19.5 -47.5t-47.5 -19.5zM194 480q-27 0 -46.5 19.5t-19.5 47.5q0 27 19.5 46.5t47.5 19.5q27 0 46.5 -19.5t19.5 -47.5q0 -27 -19.5 -46.5t-47.5 -19.5zM469 404l-26 -211 q-12 -101 -43 -141q-49 -65 -163 -65q-90 0 -138 41t-48 117q0 31 4 59l25 200h122l-26 -215q0 -5 -1 -12t-1.5 -12.5t-0.5 -7.5q0 -30 18 -46.5t51 -16.5q37 0 54.5 22.5t24.5 79.5l25 208h123z" />
<glyph unicode="&#xfd;" horiz-adv-x="440" d="M269 467l-64 44l124 132l90 -74zM142 14l-129 390h131l73 -253l118 253h130l-290 -588h-129z" />
<glyph unicode="&#xfe;" horiz-adv-x="534" d="M160 59l-30 -246h-123l113 916h122l-47 -386q64 74 139 74q74 0 119 -52t45 -138q0 -103 -58 -172t-145 -69q-41 0 -69 15t-66 58zM177 185q0 -44 23 -70t61 -26q44 0 74 36.5t30 88.5q0 44 -23 71.5t-60 27.5q-44 0 -74.5 -37.5t-30.5 -90.5z" />
<glyph unicode="&#xff;" horiz-adv-x="440" d="M349 480q-28 0 -47.5 20t-19.5 48q0 27 20 46.5t48 19.5q27 0 46.5 -20t19.5 -47q0 -28 -19.5 -47.5t-47.5 -19.5zM161 480q-27 0 -46.5 19.5t-19.5 47.5q0 27 19.5 46.5t47.5 19.5q27 0 46.5 -19.5t19.5 -47.5q0 -27 -19.5 -46.5t-47.5 -19.5zM142 14l-129 390h131 l73 -253l118 253h130l-290 -588h-129z" />
<glyph unicode="&#x152;" horiz-adv-x="970" d="M549 0l7 60q-32 -30 -51 -41q-57 -33 -137 -33q-137 0 -225.5 91t-88.5 231q0 161 100.5 266.5t253.5 105.5q129 0 216 -69l7 56h345l-15 -123h-212l-18 -148h204l-15 -123h-204l-19 -150h212l-15 -123h-345zM197 312q0 -87 51 -140t134 -53q94 0 153 74q55 71 55 162 q0 86 -48.5 139t-128.5 53q-92 0 -154 -67.5t-62 -167.5z" />
<glyph unicode="&#x153;" horiz-adv-x="789" d="M645 135l96 -42q-65 -106 -189 -106q-53 0 -88.5 16.5t-65.5 55.5q-34 -39 -70 -55.5t-86 -16.5q-92 0 -152 57.5t-60 145.5q0 96 65 161.5t160 65.5q48 0 84 -19t70 -62q49 47 84.5 64t83.5 17q85 0 131 -55t46 -156q0 -15 -1 -29h-295q1 -40 12 -59q23 -41 78 -41 q53 0 97 58zM470 254h172q-4 78 -71 78q-36 0 -60 -18.5t-41 -59.5zM148 193q0 -47 25.5 -73.5t70.5 -26.5q46 0 75.5 32.5t29.5 83.5q0 46 -25.5 74t-68.5 28q-46 0 -76.5 -33.5t-30.5 -84.5z" />
<glyph unicode="&#x178;" horiz-adv-x="560" d="M442 723q-29 0 -49.5 21t-20.5 50q0 28 21 48.5t50 20.5q28 0 48.5 -21t20.5 -49q0 -29 -21 -49.5t-49 -20.5zM249 723q-29 0 -49.5 21t-20.5 50q0 28 21 48.5t50 20.5q28 0 48.5 -21t20.5 -49q0 -29 -20.5 -49.5t-49.5 -20.5zM189 0l36 293l-178 374h152l100 -229 l153 229h162l-256 -374l-36 -293h-133z" />
<glyph unicode="&#x2c6;" horiz-adv-x="500" d="M187 467l-50 67l177 111l121 -133l-73 -45l-66 73z" />
<glyph unicode="&#x2dc;" horiz-adv-x="500" d="M111 491q15 58 45 89t71 31q28 0 71 -24q35 -20 55 -20q29 0 46 38h67q-32 -120 -122 -120q-30 0 -68 20q-41 22 -58 22q-29 0 -40 -36h-67z" />
<glyph unicode="&#x2000;" horiz-adv-x="456" />
<glyph unicode="&#x2001;" horiz-adv-x="913" />
<glyph unicode="&#x2002;" horiz-adv-x="456" />
<glyph unicode="&#x2003;" horiz-adv-x="913" />
<glyph unicode="&#x2004;" horiz-adv-x="304" />
<glyph unicode="&#x2005;" horiz-adv-x="228" />
<glyph unicode="&#x2006;" horiz-adv-x="152" />
<glyph unicode="&#x2007;" horiz-adv-x="152" />
<glyph unicode="&#x2008;" horiz-adv-x="114" />
<glyph unicode="&#x2009;" horiz-adv-x="182" />
<glyph unicode="&#x200a;" horiz-adv-x="50" />
<glyph unicode="&#x2010;" horiz-adv-x="215" d="M-9 156l13 102h215l-13 -102h-215z" />
<glyph unicode="&#x2011;" horiz-adv-x="215" d="M-9 156l13 102h215l-13 -102h-215z" />
<glyph unicode="&#x2012;" horiz-adv-x="215" d="M-9 156l13 102h215l-13 -102h-215z" />
<glyph unicode="&#x2013;" d="M29 156l13 102h491l-12 -102h-492z" />
<glyph unicode="&#x2014;" horiz-adv-x="645" d="M-9 156l13 102h644l-12 -102h-645z" />
<glyph unicode="&#x2018;" horiz-adv-x="242" d="M58 404l118 276h67l-59 -276h-126z" />
<glyph unicode="&#x2019;" horiz-adv-x="235" d="M68 404l59 276h126l-117 -276h-68z" />
<glyph unicode="&#x201a;" horiz-adv-x="235" d="M49 120h126l-117 -275h-68z" />
<glyph unicode="&#x201c;" horiz-adv-x="435" d="M252 404l117 276h68l-59 -276h-126zM58 404l118 276h67l-59 -276h-126z" />
<glyph unicode="&#x201d;" horiz-adv-x="429" d="M262 404l59 276h126l-118 -276h-67zM68 404l59 276h126l-117 -276h-68z" />
<glyph unicode="&#x201e;" horiz-adv-x="429" d="M184 -155l59 275h126l-118 -275h-67zM49 120h126l-117 -275h-68z" />
<glyph unicode="&#x2022;" horiz-adv-x="667" d="M208 338q0 58 41 98.5t100 40.5q55 0 95.5 -41t40.5 -97q0 -58 -40.5 -98.5t-97.5 -40.5t-98 40.5t-41 97.5z" />
<glyph unicode="&#x2026;" horiz-adv-x="800" d="M569 65q0 31 23 53.5t55 22.5q31 0 53.5 -23t22.5 -54q0 -32 -22.5 -54.5t-54.5 -22.5t-54.5 23t-22.5 55zM303 65q0 31 23 53.5t55 22.5q31 0 53.5 -23t22.5 -54q0 -32 -22.5 -54.5t-54.5 -22.5t-54.5 23t-22.5 55zM36 65q0 31 23 53.5t55 22.5q31 0 53.5 -23t22.5 -54 q0 -32 -23 -54.5t-54 -22.5q-32 0 -54.5 23t-22.5 55z" />
<glyph unicode="&#x202f;" horiz-adv-x="182" />
<glyph unicode="&#x2039;" horiz-adv-x="275" d="M145 24l-114 183l158 194l61 -53l-121 -145l84 -135z" />
<glyph unicode="&#x203a;" horiz-adv-x="275" d="M20 65l121 146l-83 135l67 43l114 -182l-158 -195z" />
<glyph unicode="&#x205f;" horiz-adv-x="228" />
<glyph unicode="&#x20ac;" horiz-adv-x="740" d="M45 228l42 86h60q0 1 1 17.5t2 26.5h-96l42 86h73q40 110 129 173t205 63q129 0 217 -72l-68 -136q-49 75 -146 75q-118 0 -180 -103h310l-42 -85l-299 -1q-4 -21 -4 -44h280l-42 -86h-223q20 -50 65.5 -79t103.5 -29q101 0 158 81l-12 -183q-63 -31 -149 -31 q-121 0 -206 64.5t-111 176.5h-110z" />
<glyph unicode="&#x2122;" horiz-adv-x="748" d="M273 287l124 380h84l42 -196q2 -10 4 -27l5 10l107 213h87l12 -380h-95l-5 196l-99 -196h-64l-43 201l-65 -201h-94zM86 287l37 299h-82l10 81h252l-10 -81h-77l-36 -299h-94z" />
</font>
</defs>
</svg>
