<?xml version="1.0" encoding="utf-8"?>
<!-- Generator: Adobe Illustrator 15.0.0, SVG Export Plug-In . SVG Version: 6.00 Build 0)  -->
<!DOCTYPE svg PUBLIC "-//W3C//DTD SVG 1.1//EN" "http://www.w3.org/Graphics/SVG/1.1/DTD/svg11.dtd">
<svg version="1.1" id="Layer_1" xmlns="http://www.w3.org/2000/svg" xmlns:xlink="http://www.w3.org/1999/xlink" x="0px" y="0px"
	 width="1024px" height="768px" viewBox="0 0 1024 768" style="enable-background:new 0 0 1024 768;" xml:space="preserve">
<style type="text/css">
<![CDATA[
	.st0{fill:none;stroke:#FF5F9F;stroke-miterlimit:10;}
]]>
</style>
<polyline class="st0" points="25.708,754.153 30.077,750.828 34.239,747.284 29.479,741.126 34.517,734.713 32.874,728.649 
	23.885,729.576 25.15,722.793 28.169,718.104 31.919,718.019 34.659,711.462 24.358,714.056 27.041,706.465 31.168,705.701 
	32.633,699.459 30.82,694.908 34.76,688.251 31.042,684.262 31.063,683.352 26.887,678.311 34.771,678.487 37.138,671.804 
	31.831,668.07 26.638,665.558 20.559,660.252 32.842,661.156 35.333,655.94 42.365,648.7 29.859,646.934 28.487,640.599 
	16.995,637.146 31.189,636.395 29.118,626.616 31.732,625.582 27.966,625.717 28.243,617.733 19.41,614.034 31.58,613.677 
	33.932,608.322 40.969,602.48 33.939,596.637 27.664,595.204 28.342,590.919 33.243,592.23 36.902,588.183 31.08,579.363 
	36.745,570.722 26.852,572.907 27.935,567.81 26.509,562.388 28.281,556.453 28.52,556.252 31.513,552.843 24.487,552.163 
	25.153,544.702 30.167,542.937 35.359,540.424 39.153,533.153 33.492,527.758 26.215,527.325 22.858,521.596 27.575,517.235 
	30.771,512.725 34.28,510.039 28.649,509.489 30.66,499.771 27.935,498.482 23.908,490.46 35.659,494.504 28.481,486.926 
	33.702,481.328 23.643,483.681 29.391,475.373 32.65,476.093 30.817,466.553 29.599,463.817 34.082,457.839 33.243,450.971 
	24.921,452.267 32.457,452.79 36.098,448.725 30.547,440.709 34.354,434.457 28.985,432.119 27.099,429.156 30.113,427.338 
	27.053,416.571 30.953,417.601 28.137,417.565 26.418,411.577 20.866,406.052 27.33,401.445 34.675,401.085 32.035,394.493 
	30.132,392.462 27.89,386.998 18.794,382.945 25.923,376.93 30.823,374.123 38.64,371.388 34.827,364.658 25.59,366.188 
	24.452,359.831 23.84,351.737 33.392,353.583 30.504,348.273 29.05,347.326 26.896,341.773 26.239,336.721 26.221,331.009 
	33.459,330.541 42.692,325.174 30.763,322.505 31.465,314.096 30.239,313.609 32.919,314.598 34.607,308.58 33.646,302.057 
	28.597,301.561 30.37,292.081 20.55,290.507 26.774,285.345 29.185,280.048 39.172,278.953 36.325,270.724 32.014,267.328 
	28.888,267.392 27.803,263.264 35.002,262.756 30.32,255.836 33.776,250.163 24.119,252.114 24.385,244.286 23.975,236.327 
	33.822,238.468 36.946,232.733 28.622,232.209 30.898,222.226 27.646,221.175 31.779,221.023 27.942,209.479 42.909,209.629 
	36.31,201.413 24.841,205.174 24.029,198.068 25.486,191.621 34.281,192.708 42.488,186.52 32.128,182.485 22.917,183.988 
	26.085,174.958 30.574,173.599 30.247,165.565 37.742,163.406 36.394,155.109 29.706,154.091 17.217,151.856 22.961,142.878 
	28.636,140.846 32.404,140.293 36.996,131.399 30.562,130.126 17.804,128.747 24.759,121.566 29.111,118.211 39.793,117.19 
	36.74,108.546 29.817,107.762 27.073,105.63 30.43,104.128 29.011,95.002 34.31,94.077 27.721,94.456 28.111,86.358 22.266,82.525 
	30.347,80.937 32.532,75.415 36.117,70.97 27.515,71.553 26.42,64.941 23.469,59.415 25.27,52.75 30.197,49.971 29.964,47.855 
	33.608,42.351 24.231,44.021 25.207,36.304 29.187,33.559 35.309,31.973 29.009,24.746 27.895,24.955 25.368,19.774 25.399,12.037 
	"/>
<polyline class="st0" points="546.387,754.153 550.756,750.828 554.919,747.284 550.158,741.126 555.197,734.713 553.553,728.649 
	544.564,729.576 545.83,722.793 548.849,718.104 552.6,718.019 555.338,711.462 545.037,714.056 547.721,706.465 551.848,705.701 
	553.312,699.459 551.5,694.908 555.439,688.251 551.722,684.262 551.743,683.352 547.566,678.311 555.451,678.487 557.817,671.804 
	552.51,668.07 547.317,665.558 541.238,660.252 553.521,661.156 556.012,655.94 563.045,648.7 550.539,646.934 549.167,640.599 
	537.675,637.146 551.869,636.395 549.798,626.616 552.412,625.582 548.646,625.717 548.923,617.733 540.09,614.034 552.26,613.677 
	554.611,608.322 561.648,602.48 554.619,596.637 548.344,595.204 549.021,590.919 553.923,592.23 557.582,588.183 551.76,579.363 
	557.424,570.722 547.531,572.907 548.614,567.81 547.188,562.388 548.961,556.453 549.199,556.252 552.193,552.843 545.166,552.163 
	545.833,544.702 550.846,542.937 556.039,540.424 559.833,533.153 554.172,527.758 546.895,527.325 543.538,521.596 
	548.255,517.235 551.45,512.725 554.96,510.039 549.329,509.489 551.34,499.771 548.615,498.482 544.588,490.46 556.339,494.504 
	549.16,486.926 554.382,481.328 544.322,483.681 550.07,475.373 553.33,476.093 551.497,466.553 550.279,463.817 554.762,457.839 
	553.923,450.971 545.601,452.267 553.137,452.79 556.777,448.725 551.227,440.709 555.034,434.457 549.664,432.119 547.779,429.156 
	550.793,427.338 547.732,416.571 551.633,417.601 548.816,417.565 547.098,411.577 541.545,406.052 548.01,401.445 555.355,401.085 
	552.715,394.493 550.812,392.462 548.569,386.998 539.474,382.945 546.603,376.93 551.502,374.123 559.319,371.388 555.507,364.658 
	546.27,366.188 545.132,359.831 544.52,351.737 554.072,353.583 551.184,348.273 549.73,347.326 547.575,341.773 546.918,336.721 
	546.9,331.009 554.139,330.541 563.372,325.174 551.442,322.505 552.145,314.096 550.918,313.609 553.599,314.598 555.287,308.58 
	554.325,302.057 549.277,301.561 551.049,292.081 541.229,290.507 547.454,285.345 549.864,280.048 559.852,278.953 
	557.005,270.724 552.693,267.328 549.567,267.392 548.482,263.264 555.682,262.756 551,255.836 554.456,250.163 544.799,252.114 
	545.064,244.286 544.654,236.327 554.502,238.468 557.625,232.733 549.301,232.209 551.578,222.226 548.326,221.175 
	552.459,221.023 548.622,209.479 563.588,209.629 556.99,201.413 545.521,205.174 544.709,198.068 546.166,191.621 554.961,192.708 
	563.168,186.52 552.808,182.485 543.598,183.988 546.766,174.958 551.254,173.599 550.926,165.565 558.422,163.406 557.074,155.109 
	550.386,154.091 537.896,151.856 543.641,142.878 549.316,140.846 553.084,140.293 557.676,131.399 551.241,130.126 
	538.484,128.747 545.438,121.566 549.791,118.211 560.473,117.19 557.42,108.546 550.496,107.762 547.752,105.63 551.109,104.128 
	549.69,95.002 554.99,94.077 548.4,94.456 548.791,86.358 542.945,82.525 551.027,80.937 553.212,75.415 556.797,70.97 
	548.194,71.553 547.1,64.941 544.148,59.415 545.949,52.75 550.877,49.971 550.645,47.855 554.287,42.351 544.91,44.021 
	545.887,36.304 549.867,33.559 555.988,31.973 549.689,24.746 548.574,24.955 546.048,19.774 546.078,12.037 "/>
</svg>
