<?xml version="1.0" encoding="utf-8"?>
<!-- Generator: Adobe Illustrator 15.0.0, SVG Export Plug-In . SVG Version: 6.00 Build 0)  -->
<!DOCTYPE svg PUBLIC "-//W3C//DTD SVG 1.1//EN" "http://www.w3.org/Graphics/SVG/1.1/DTD/svg11.dtd">
<svg version="1.1" id="Layer_1" xmlns="http://www.w3.org/2000/svg" xmlns:xlink="http://www.w3.org/1999/xlink" x="0px" y="0px"
	 width="1024px" height="768px" viewBox="0 0 1024 768" style="enable-background:new 0 0 1024 768;" xml:space="preserve">
<style type="text/css">
<![CDATA[
	.st0{fill:none;stroke:#FF5F9F;stroke-miterlimit:10;}
]]>
</style>
<polyline class="st0" points="35.715,754.153 40.084,750.828 44.247,747.284 39.486,741.126 44.525,734.713 42.881,728.649 
	33.893,729.576 35.158,722.793 38.177,718.104 41.927,718.019 44.667,711.462 34.366,714.056 37.048,706.465 41.176,705.701 
	42.641,699.459 40.828,694.908 44.768,688.251 41.05,684.262 41.071,683.352 36.895,678.311 44.779,678.487 47.146,671.804 
	41.838,668.07 36.646,665.558 30.567,660.252 42.85,661.156 45.34,655.94 52.373,648.7 39.867,646.934 38.495,640.599 
	27.003,637.146 41.197,636.395 39.126,626.616 41.74,625.582 37.974,625.717 38.251,617.733 29.417,614.034 41.587,613.677 
	43.94,608.322 50.977,602.48 43.947,596.637 37.672,595.204 38.35,590.919 43.251,592.23 46.91,588.183 41.088,579.363 
	46.752,570.722 36.859,572.907 37.942,567.81 36.517,562.388 38.289,556.453 38.528,556.252 41.521,552.843 34.495,552.163 
	35.161,544.702 40.174,542.937 45.367,540.424 49.161,533.153 43.5,527.758 36.223,527.325 32.866,521.596 37.583,517.235 
	40.778,512.725 44.288,510.039 38.657,509.489 40.668,499.771 37.943,498.482 33.916,490.46 45.667,494.504 38.489,486.926 
	43.71,481.328 33.65,483.681 39.399,475.373 42.658,476.093 40.825,466.553 39.607,463.817 44.09,457.839 43.251,450.971 
	34.929,452.267 42.464,452.79 46.106,448.725 40.555,440.709 44.362,434.457 38.993,432.119 37.107,429.156 40.121,427.338 
	37.061,416.571 40.961,417.601 38.145,417.565 36.426,411.577 30.874,406.052 37.338,401.445 44.683,401.085 42.042,394.493 
	40.14,392.462 37.897,386.998 28.802,382.945 35.931,376.93 40.831,374.123 48.647,371.388 44.835,364.658 35.598,366.188 
	34.46,359.831 33.848,351.737 43.4,353.583 40.512,348.273 39.058,347.326 36.903,341.773 36.247,336.721 36.229,331.009 
	43.467,330.541 52.7,325.174 40.771,322.505 41.473,314.096 40.247,313.609 42.927,314.598 44.615,308.58 43.653,302.057 
	38.605,301.561 40.377,292.081 30.558,290.507 36.782,285.345 39.192,280.048 49.18,278.953 46.333,270.724 42.022,267.328 
	38.896,267.392 37.811,263.264 45.01,262.756 40.328,255.836 43.784,250.163 34.126,252.114 34.393,244.286 33.982,236.327 
	43.83,238.468 46.954,232.733 38.629,232.209 40.906,222.226 37.654,221.175 41.787,221.023 37.95,209.479 52.917,209.629 
	46.318,201.413 34.849,205.174 34.037,198.068 35.494,191.621 44.289,192.708 52.496,186.52 42.136,182.485 32.925,183.988 
	36.093,174.958 40.582,173.599 40.254,165.565 47.75,163.406 46.402,155.109 39.714,154.091 27.225,151.856 32.969,142.878 
	38.644,140.846 42.412,140.293 47.004,131.399 40.569,130.126 27.812,128.747 34.767,121.566 39.119,118.211 49.801,117.19 
	46.748,108.546 39.825,107.762 37.081,105.63 40.438,104.128 39.019,95.002 44.318,94.077 37.729,94.456 38.119,86.358 
	32.274,82.525 40.355,80.937 42.54,75.415 46.125,70.97 37.522,71.553 36.428,64.941 33.477,59.415 35.277,52.75 40.205,49.971 
	39.972,47.855 43.616,42.351 34.239,44.021 35.214,36.304 39.195,33.559 45.316,31.973 39.017,24.746 37.903,24.955 35.376,19.774 
	35.407,12.037 "/>
<polyline class="st0" points="556.395,754.153 560.764,750.828 564.927,747.284 560.166,741.126 565.205,734.713 563.561,728.649 
	554.572,729.576 555.838,722.793 558.856,718.104 562.607,718.019 565.346,711.462 555.045,714.056 557.729,706.465 
	561.855,705.701 563.32,699.459 561.508,694.908 565.447,688.251 561.729,684.262 561.751,683.352 557.574,678.311 565.459,678.487 
	567.825,671.804 562.518,668.07 557.325,665.558 551.246,660.252 563.529,661.156 566.02,655.94 573.053,648.7 560.547,646.934 
	559.175,640.599 547.683,637.146 561.877,636.395 559.806,626.616 562.42,625.582 558.654,625.717 558.931,617.733 550.098,614.034 
	562.268,613.677 564.619,608.322 571.656,602.48 564.627,596.637 558.352,595.204 559.029,590.919 563.931,592.23 567.59,588.183 
	561.768,579.363 567.432,570.722 557.539,572.907 558.622,567.81 557.196,562.388 558.969,556.453 559.207,556.252 562.201,552.843 
	555.174,552.163 555.841,544.702 560.854,542.937 566.047,540.424 569.841,533.153 564.18,527.758 556.902,527.325 553.546,521.596 
	558.263,517.235 561.458,512.725 564.968,510.039 559.337,509.489 561.348,499.771 558.623,498.482 554.596,490.46 566.347,494.504 
	559.168,486.926 564.39,481.328 554.33,483.681 560.078,475.373 563.338,476.093 561.505,466.553 560.287,463.817 564.77,457.839 
	563.931,450.971 555.608,452.267 563.145,452.79 566.785,448.725 561.234,440.709 565.042,434.457 559.672,432.119 557.787,429.156 
	560.801,427.338 557.74,416.571 561.641,417.601 558.824,417.565 557.105,411.577 551.553,406.052 558.018,401.445 565.363,401.085 
	562.723,394.493 560.82,392.462 558.577,386.998 549.481,382.945 556.61,376.93 561.51,374.123 569.327,371.388 565.515,364.658 
	556.277,366.188 555.14,359.831 554.527,351.737 564.08,353.583 561.191,348.273 559.738,347.326 557.583,341.773 556.926,336.721 
	556.908,331.009 564.146,330.541 573.38,325.174 561.45,322.505 562.152,314.096 560.926,313.609 563.606,314.598 565.295,308.58 
	564.333,302.057 559.285,301.561 561.057,292.081 551.237,290.507 557.462,285.345 559.872,280.048 569.859,278.953 
	567.013,270.724 562.701,267.328 559.575,267.392 558.49,263.264 565.689,262.756 561.008,255.836 564.464,250.163 554.807,252.114 
	555.072,244.286 554.662,236.327 564.51,238.468 567.633,232.733 559.309,232.209 561.586,222.226 558.334,221.175 562.467,221.023 
	558.63,209.479 573.596,209.629 566.998,201.413 555.528,205.174 554.717,198.068 556.174,191.621 564.969,192.708 573.176,186.52 
	562.815,182.485 553.605,183.988 556.773,174.958 561.262,173.599 560.934,165.565 568.43,163.406 567.082,155.109 560.394,154.091 
	547.904,151.856 553.648,142.878 559.324,140.846 563.092,140.293 567.684,131.399 561.249,130.126 548.492,128.747 
	555.446,121.566 559.799,118.211 570.48,117.19 567.428,108.546 560.504,107.762 557.76,105.63 561.117,104.128 559.698,95.002 
	564.998,94.077 558.408,94.456 558.799,86.358 552.953,82.525 561.035,80.937 563.22,75.415 566.805,70.97 558.202,71.553 
	557.107,64.941 554.156,59.415 555.957,52.75 560.885,49.971 560.652,47.855 564.295,42.351 554.918,44.021 555.895,36.304 
	559.875,33.559 565.996,31.973 559.697,24.746 558.582,24.955 556.056,19.774 556.086,12.037 "/>
</svg>
