<?xml version="1.0" encoding="utf-8"?>
<!-- Generator: Adobe Illustrator 15.0.0, SVG Export Plug-In . SVG Version: 6.00 Build 0)  -->
<!DOCTYPE svg PUBLIC "-//W3C//DTD SVG 1.1//EN" "http://www.w3.org/Graphics/SVG/1.1/DTD/svg11.dtd">
<svg version="1.1" id="Layer_1" xmlns="http://www.w3.org/2000/svg" xmlns:xlink="http://www.w3.org/1999/xlink" x="0px" y="0px"
	 width="1024px" height="768px" viewBox="0 0 1024 768" style="enable-background:new 0 0 1024 768;" xml:space="preserve">
<style type="text/css">
<![CDATA[
	.st0{fill:none;stroke:#FF5F9F;stroke-miterlimit:10;}
]]>
</style>
<polyline class="st0" points="45.723,754.153 50.092,750.828 54.255,747.284 49.494,741.126 54.533,734.713 52.889,728.649 
	43.901,729.576 45.166,722.793 48.185,718.104 51.935,718.019 54.674,711.462 44.374,714.056 47.056,706.465 51.184,705.701 
	52.648,699.459 50.835,694.908 54.775,688.251 51.058,684.262 51.079,683.352 46.903,678.311 54.787,678.487 57.153,671.804 
	51.846,668.07 46.653,665.558 40.575,660.252 52.857,661.156 55.348,655.94 62.381,648.7 49.875,646.934 48.503,640.599 
	37.011,637.146 51.205,636.395 49.134,626.616 51.748,625.582 47.982,625.717 48.259,617.733 39.425,614.034 51.595,613.677 
	53.948,608.322 60.984,602.48 53.955,596.637 47.68,595.204 48.357,590.919 53.259,592.23 56.918,588.183 51.096,579.363 
	56.76,570.722 46.867,572.907 47.95,567.81 46.524,562.388 48.297,556.453 48.536,556.252 51.529,552.843 44.502,552.163 
	45.169,544.702 50.182,542.937 55.375,540.424 59.169,533.153 53.507,527.758 46.231,527.325 42.874,521.596 47.591,517.235 
	50.786,512.725 54.296,510.039 48.665,509.489 50.676,499.771 47.951,498.482 43.924,490.46 55.675,494.504 48.497,486.926 
	53.718,481.328 43.658,483.681 49.407,475.373 52.666,476.093 50.833,466.553 49.615,463.817 54.098,457.839 53.259,450.971 
	44.937,452.267 52.472,452.79 56.114,448.725 50.562,440.709 54.37,434.457 49,432.119 47.115,429.156 50.128,427.338 
	47.069,416.571 50.969,417.601 48.152,417.565 46.434,411.577 40.881,406.052 47.346,401.445 54.691,401.085 52.05,394.493 
	50.148,392.462 47.905,386.998 38.81,382.945 45.938,376.93 50.838,374.123 58.655,371.388 54.843,364.658 45.605,366.188 
	44.468,359.831 43.855,351.737 53.408,353.583 50.52,348.273 49.066,347.326 46.911,341.773 46.254,336.721 46.236,331.009 
	53.475,330.541 62.708,325.174 50.778,322.505 51.48,314.096 50.254,313.609 52.935,314.598 54.623,308.58 53.661,302.057 
	48.613,301.561 50.385,292.081 40.565,290.507 46.79,285.345 49.2,280.048 59.188,278.953 56.341,270.724 52.03,267.328 
	48.903,267.392 47.818,263.264 55.018,262.756 50.335,255.836 53.792,250.163 44.134,252.114 44.401,244.286 43.99,236.327 
	53.838,238.468 56.961,232.733 48.637,232.209 50.914,222.226 47.662,221.175 51.795,221.023 47.958,209.479 62.924,209.629 
	56.326,201.413 44.856,205.174 44.045,198.068 45.502,191.621 54.296,192.708 62.503,186.52 52.144,182.485 42.933,183.988 
	46.101,174.958 50.589,173.599 50.262,165.565 57.757,163.406 56.41,155.109 49.722,154.091 37.232,151.856 42.977,142.878 
	48.652,140.846 52.42,140.293 57.012,131.399 50.577,130.126 37.82,128.747 44.774,121.566 49.126,118.211 59.809,117.19 
	56.755,108.546 49.833,107.762 47.088,105.63 50.445,104.128 49.026,95.002 54.326,94.077 47.736,94.456 48.127,86.358 
	42.282,82.525 50.363,80.937 52.548,75.415 56.132,70.97 47.53,71.553 46.436,64.941 43.485,59.415 45.285,52.75 50.213,49.971 
	49.98,47.855 53.624,42.351 44.247,44.021 45.222,36.304 49.203,33.559 55.324,31.973 49.025,24.746 47.911,24.955 45.384,19.774 
	45.415,12.037 "/>
<polyline class="st0" points="566.402,754.153 570.771,750.828 574.935,747.284 570.174,741.126 575.213,734.713 573.568,728.649 
	564.58,729.576 565.846,722.793 568.864,718.104 572.615,718.019 575.354,711.462 565.053,714.056 567.736,706.465 571.863,705.701 
	573.328,699.459 571.516,694.908 575.455,688.251 571.737,684.262 571.759,683.352 567.582,678.311 575.467,678.487 
	577.833,671.804 572.525,668.07 567.333,665.558 561.254,660.252 573.537,661.156 576.027,655.94 583.061,648.7 570.555,646.934 
	569.183,640.599 557.69,637.146 571.885,636.395 569.813,626.616 572.428,625.582 568.662,625.717 568.938,617.733 560.105,614.034 
	572.275,613.677 574.627,608.322 581.664,602.48 574.635,596.637 568.359,595.204 569.037,590.919 573.938,592.23 577.598,588.183 
	571.775,579.363 577.439,570.722 567.547,572.907 568.63,567.81 567.204,562.388 568.977,556.453 569.215,556.252 572.209,552.843 
	565.182,552.163 565.849,544.702 570.861,542.937 576.055,540.424 579.849,533.153 574.188,527.758 566.91,527.325 563.554,521.596 
	568.271,517.235 571.466,512.725 574.976,510.039 569.345,509.489 571.355,499.771 568.631,498.482 564.604,490.46 576.354,494.504 
	569.176,486.926 574.397,481.328 564.338,483.681 570.086,475.373 573.346,476.093 571.513,466.553 570.295,463.817 
	574.777,457.839 573.938,450.971 565.616,452.267 573.152,452.79 576.793,448.725 571.242,440.709 575.05,434.457 569.68,432.119 
	567.795,429.156 570.809,427.338 567.748,416.571 571.648,417.601 568.832,417.565 567.113,411.577 561.561,406.052 
	568.025,401.445 575.371,401.085 572.73,394.493 570.828,392.462 568.585,386.998 559.489,382.945 566.618,376.93 571.518,374.123 
	579.335,371.388 575.522,364.658 566.285,366.188 565.147,359.831 564.535,351.737 574.088,353.583 571.199,348.273 
	569.746,347.326 567.591,341.773 566.934,336.721 566.916,331.009 574.154,330.541 583.388,325.174 571.458,322.505 572.16,314.096 
	570.934,313.609 573.614,314.598 575.303,308.58 574.341,302.057 569.293,301.561 571.064,292.081 561.245,290.507 567.47,285.345 
	569.88,280.048 579.867,278.953 577.021,270.724 572.709,267.328 569.583,267.392 568.498,263.264 575.697,262.756 571.016,255.836 
	574.472,250.163 564.814,252.114 565.08,244.286 564.67,236.327 574.518,238.468 577.641,232.733 569.316,232.209 571.594,222.226 
	568.342,221.175 572.475,221.023 568.638,209.479 583.604,209.629 577.006,201.413 565.536,205.174 564.725,198.068 
	566.182,191.621 574.977,192.708 583.184,186.52 572.823,182.485 563.613,183.988 566.781,174.958 571.27,173.599 570.941,165.565 
	578.438,163.406 577.09,155.109 570.401,154.091 557.912,151.856 563.656,142.878 569.332,140.846 573.1,140.293 577.691,131.399 
	571.257,130.126 558.5,128.747 565.454,121.566 569.807,118.211 580.488,117.19 577.436,108.546 570.512,107.762 567.768,105.63 
	571.125,104.128 569.706,95.002 575.006,94.077 568.416,94.456 568.807,86.358 562.961,82.525 571.043,80.937 573.228,75.415 
	576.812,70.97 568.21,71.553 567.115,64.941 564.164,59.415 565.965,52.75 570.893,49.971 570.66,47.855 574.303,42.351 
	564.926,44.021 565.902,36.304 569.883,33.559 576.004,31.973 569.705,24.746 568.59,24.955 566.063,19.774 566.094,12.037 "/>
</svg>
