<?xml version="1.0" encoding="utf-8"?>
<!-- Generator: Adobe Illustrator 15.0.0, SVG Export Plug-In . SVG Version: 6.00 Build 0)  -->
<!DOCTYPE svg PUBLIC "-//W3C//DTD SVG 1.1//EN" "http://www.w3.org/Graphics/SVG/1.1/DTD/svg11.dtd">
<svg version="1.1" id="Layer_1" xmlns="http://www.w3.org/2000/svg" xmlns:xlink="http://www.w3.org/1999/xlink" x="0px" y="0px"
	 width="1024px" height="768px" viewBox="0 0 1024 768" style="enable-background:new 0 0 1024 768;" xml:space="preserve">
<style type="text/css">
<![CDATA[
	.st0{fill:none;stroke:#FF5F9F;stroke-miterlimit:10;}
]]>
</style>
<polyline class="st0" points="85.754,754.153 90.124,750.828 94.286,747.284 89.525,741.126 94.564,734.713 92.92,728.649 
	83.932,729.576 85.197,722.793 88.216,718.104 91.966,718.019 94.706,711.462 84.405,714.056 87.087,706.465 91.215,705.701 
	92.68,699.459 90.867,694.908 94.807,688.251 91.089,684.262 91.11,683.352 86.934,678.311 94.818,678.487 97.185,671.804 
	91.877,668.07 86.685,665.558 80.606,660.252 92.889,661.156 95.379,655.94 102.412,648.7 89.906,646.934 88.534,640.599 
	77.042,637.146 91.236,636.395 89.165,626.616 91.779,625.582 88.013,625.717 88.29,617.733 79.457,614.034 91.626,613.677 
	93.979,608.322 101.016,602.48 93.986,596.637 87.711,595.204 88.389,590.919 93.29,592.23 96.949,588.183 91.127,579.363 
	96.792,570.722 86.898,572.907 87.981,567.81 86.556,562.388 88.328,556.453 88.567,556.252 91.56,552.843 84.534,552.163 
	85.2,544.702 90.213,542.937 95.406,540.424 99.2,533.153 93.539,527.758 86.262,527.325 82.905,521.596 87.622,517.235 
	90.817,512.725 94.327,510.039 88.696,509.489 90.707,499.771 87.982,498.482 83.955,490.46 95.706,494.504 88.528,486.926 
	93.749,481.328 83.689,483.681 89.438,475.373 92.697,476.093 90.864,466.553 89.646,463.817 94.129,457.839 93.29,450.971 
	84.968,452.267 92.503,452.79 96.145,448.725 90.594,440.709 94.401,434.457 89.032,432.119 87.146,429.156 90.16,427.338 
	87.1,416.571 91,417.601 88.184,417.565 86.465,411.577 80.913,406.052 87.377,401.445 94.722,401.085 92.082,394.493 
	90.179,392.462 87.937,386.998 78.841,382.945 85.97,376.93 90.87,374.123 98.687,371.388 94.874,364.658 85.637,366.188 
	84.499,359.831 83.887,351.737 93.439,353.583 90.551,348.273 89.097,347.326 86.942,341.773 86.286,336.721 86.268,331.009 
	93.506,330.541 102.739,325.174 90.81,322.505 91.512,314.096 90.286,313.609 92.966,314.598 94.654,308.58 93.692,302.057 
	88.644,301.561 90.417,292.081 80.597,290.507 86.821,285.345 89.231,280.048 99.219,278.953 96.372,270.724 92.061,267.328 
	88.935,267.392 87.85,263.264 95.049,262.756 90.367,255.836 93.823,250.163 84.166,252.114 84.432,244.286 84.021,236.327 
	93.869,238.468 96.993,232.733 88.668,232.209 90.945,222.226 87.693,221.175 91.826,221.023 87.989,209.479 102.956,209.629 
	96.357,201.413 84.888,205.174 84.076,198.068 85.533,191.621 94.328,192.708 102.535,186.52 92.175,182.485 82.964,183.988 
	86.132,174.958 90.621,173.599 90.293,165.565 97.789,163.406 96.441,155.109 89.753,154.091 77.264,151.856 83.008,142.878 
	88.683,140.846 92.451,140.293 97.043,131.399 90.608,130.126 77.851,128.747 84.806,121.566 89.158,118.211 99.84,117.19 
	96.787,108.546 89.864,107.762 87.12,105.63 90.477,104.128 89.058,95.002 94.357,94.077 87.768,94.456 88.158,86.358 
	82.313,82.525 90.394,80.937 92.579,75.415 96.164,70.97 87.562,71.553 86.467,64.941 83.516,59.415 85.316,52.75 90.244,49.971 
	90.011,47.855 93.655,42.351 84.278,44.021 85.253,36.304 89.234,33.559 95.355,31.973 89.056,24.746 87.942,24.955 85.415,19.774 
	85.446,12.037 "/>
<polyline class="st0" points="606.434,754.153 610.803,750.828 614.966,747.284 610.205,741.126 615.244,734.713 613.6,728.649 
	604.611,729.576 605.877,722.793 608.896,718.104 612.646,718.019 615.385,711.462 605.084,714.056 607.768,706.465 
	611.895,705.701 613.359,699.459 611.547,694.908 615.486,688.251 611.769,684.262 611.79,683.352 607.613,678.311 615.498,678.487 
	617.864,671.804 612.557,668.07 607.364,665.558 601.285,660.252 613.568,661.156 616.059,655.94 623.092,648.7 610.586,646.934 
	609.214,640.599 597.722,637.146 611.916,636.395 609.845,626.616 612.459,625.582 608.693,625.717 608.97,617.733 600.137,614.034 
	612.307,613.677 614.658,608.322 621.695,602.48 614.666,596.637 608.391,595.204 609.068,590.919 613.97,592.23 617.629,588.183 
	611.807,579.363 617.471,570.722 607.578,572.907 608.661,567.81 607.235,562.388 609.008,556.453 609.246,556.252 612.24,552.843 
	605.213,552.163 605.88,544.702 610.893,542.937 616.086,540.424 619.88,533.153 614.219,527.758 606.941,527.325 603.585,521.596 
	608.302,517.235 611.497,512.725 615.007,510.039 609.376,509.489 611.387,499.771 608.662,498.482 604.635,490.46 616.386,494.504 
	609.207,486.926 614.429,481.328 604.369,483.681 610.117,475.373 613.377,476.093 611.544,466.553 610.326,463.817 
	614.809,457.839 613.97,450.971 605.647,452.267 613.184,452.79 616.824,448.725 611.273,440.709 615.081,434.457 609.711,432.119 
	607.826,429.156 610.84,427.338 607.779,416.571 611.68,417.601 608.863,417.565 607.145,411.577 601.592,406.052 608.057,401.445 
	615.402,401.085 612.762,394.493 610.859,392.462 608.616,386.998 599.521,382.945 606.649,376.93 611.549,374.123 619.366,371.388 
	615.554,364.658 606.316,366.188 605.179,359.831 604.566,351.737 614.119,353.583 611.23,348.273 609.777,347.326 607.622,341.773 
	606.965,336.721 606.947,331.009 614.186,330.541 623.419,325.174 611.489,322.505 612.191,314.096 610.965,313.609 
	613.646,314.598 615.334,308.58 614.372,302.057 609.324,301.561 611.096,292.081 601.276,290.507 607.501,285.345 609.911,280.048 
	619.898,278.953 617.052,270.724 612.74,267.328 609.614,267.392 608.529,263.264 615.729,262.756 611.047,255.836 614.503,250.163 
	604.846,252.114 605.111,244.286 604.701,236.327 614.549,238.468 617.672,232.733 609.348,232.209 611.625,222.226 
	608.373,221.175 612.506,221.023 608.669,209.479 623.635,209.629 617.037,201.413 605.567,205.174 604.756,198.068 
	606.213,191.621 615.008,192.708 623.215,186.52 612.854,182.485 603.645,183.988 606.812,174.958 611.301,173.599 610.973,165.565 
	618.469,163.406 617.121,155.109 610.433,154.091 597.943,151.856 603.688,142.878 609.363,140.846 613.131,140.293 
	617.723,131.399 611.288,130.126 598.531,128.747 605.485,121.566 609.838,118.211 620.52,117.19 617.467,108.546 610.543,107.762 
	607.799,105.63 611.156,104.128 609.737,95.002 615.037,94.077 608.447,94.456 608.838,86.358 602.992,82.525 611.074,80.937 
	613.259,75.415 616.844,70.97 608.241,71.553 607.146,64.941 604.195,59.415 605.996,52.75 610.924,49.971 610.691,47.855 
	614.334,42.351 604.957,44.021 605.934,36.304 609.914,33.559 616.035,31.973 609.736,24.746 608.621,24.955 606.095,19.774 
	606.125,12.037 "/>
</svg>
