<?xml version="1.0" encoding="utf-8"?>
<!-- Generator: Adobe Illustrator 15.0.0, SVG Export Plug-In . SVG Version: 6.00 Build 0)  -->
<!DOCTYPE svg PUBLIC "-//W3C//DTD SVG 1.1//EN" "http://www.w3.org/Graphics/SVG/1.1/DTD/svg11.dtd">
<svg version="1.1" id="Layer_1" xmlns="http://www.w3.org/2000/svg" xmlns:xlink="http://www.w3.org/1999/xlink" x="0px" y="0px"
	 width="1024px" height="768px" viewBox="0 0 1024 768" style="enable-background:new 0 0 1024 768;" xml:space="preserve">
<style type="text/css">
<![CDATA[
	.st0{fill:none;stroke:#FF5F9F;stroke-miterlimit:10;}
]]>
</style>
<polyline class="st0" points="95.762,754.153 100.131,750.828 104.294,747.284 99.533,741.126 104.572,734.713 102.928,728.649 
	93.94,729.576 95.205,722.793 98.224,718.104 101.974,718.019 104.713,711.462 94.413,714.056 97.095,706.465 101.223,705.701 
	102.688,699.459 100.875,694.908 104.814,688.251 101.097,684.262 101.118,683.352 96.942,678.311 104.826,678.487 107.192,671.804 
	101.885,668.07 96.692,665.558 90.614,660.252 102.896,661.156 105.387,655.94 112.42,648.7 99.914,646.934 98.542,640.599 
	87.05,637.146 101.244,636.395 99.173,626.616 101.787,625.582 98.021,625.717 98.298,617.733 89.464,614.034 101.634,613.677 
	103.987,608.322 111.023,602.48 103.994,596.637 97.719,595.204 98.396,590.919 103.298,592.23 106.957,588.183 101.135,579.363 
	106.799,570.722 96.906,572.907 97.989,567.81 96.563,562.388 98.336,556.453 98.575,556.252 101.568,552.843 94.542,552.163 
	95.208,544.702 100.221,542.937 105.414,540.424 109.208,533.153 103.546,527.758 96.27,527.325 92.913,521.596 97.63,517.235 
	100.825,512.725 104.335,510.039 98.704,509.489 100.715,499.771 97.99,498.482 93.963,490.46 105.714,494.504 98.536,486.926 
	103.757,481.328 93.697,483.681 99.446,475.373 102.705,476.093 100.872,466.553 99.654,463.817 104.137,457.839 103.298,450.971 
	94.976,452.267 102.511,452.79 106.153,448.725 100.602,440.709 104.409,434.457 99.04,432.119 97.154,429.156 100.167,427.338 
	97.108,416.571 101.008,417.601 98.191,417.565 96.473,411.577 90.92,406.052 97.385,401.445 104.73,401.085 102.089,394.493 
	100.187,392.462 97.944,386.998 88.849,382.945 95.978,376.93 100.877,374.123 108.694,371.388 104.882,364.658 95.645,366.188 
	94.507,359.831 93.895,351.737 103.447,353.583 100.559,348.273 99.105,347.326 96.95,341.773 96.293,336.721 96.275,331.009 
	103.514,330.541 112.747,325.174 100.817,322.505 101.52,314.096 100.293,313.609 102.974,314.598 104.662,308.58 103.7,302.057 
	98.652,301.561 100.424,292.081 90.604,290.507 96.829,285.345 99.239,280.048 109.227,278.953 106.38,270.724 102.069,267.328 
	98.942,267.392 97.857,263.264 105.057,262.756 100.375,255.836 103.831,250.163 94.173,252.114 94.44,244.286 94.029,236.327 
	103.877,238.468 107,232.733 98.676,232.209 100.953,222.226 97.701,221.175 101.834,221.023 97.997,209.479 112.963,209.629 
	106.365,201.413 94.896,205.174 94.084,198.068 95.541,191.621 104.335,192.708 112.542,186.52 102.183,182.485 92.972,183.988 
	96.14,174.958 100.628,173.599 100.301,165.565 107.796,163.406 106.449,155.109 99.761,154.091 87.271,151.856 93.016,142.878 
	98.691,140.846 102.459,140.293 107.051,131.399 100.616,130.126 87.859,128.747 94.813,121.566 99.166,118.211 109.848,117.19 
	106.794,108.546 99.872,107.762 97.127,105.63 100.484,104.128 99.065,95.002 104.365,94.077 97.775,94.456 98.166,86.358 
	92.321,82.525 100.402,80.937 102.587,75.415 106.171,70.97 97.569,71.553 96.475,64.941 93.524,59.415 95.324,52.75 
	100.252,49.971 100.019,47.855 103.663,42.351 94.286,44.021 95.261,36.304 99.242,33.559 105.363,31.973 99.064,24.746 
	97.95,24.955 95.423,19.774 95.454,12.037 "/>
<polyline class="st0" points="616.441,754.153 620.811,750.828 624.974,747.284 620.213,741.126 625.252,734.713 623.607,728.649 
	614.619,729.576 615.885,722.793 618.903,718.104 622.654,718.019 625.393,711.462 615.092,714.056 617.775,706.465 
	621.902,705.701 623.367,699.459 621.555,694.908 625.494,688.251 621.776,684.262 621.798,683.352 617.621,678.311 
	625.506,678.487 627.872,671.804 622.564,668.07 617.372,665.558 611.293,660.252 623.576,661.156 626.066,655.94 633.1,648.7 
	620.594,646.934 619.222,640.599 607.729,637.146 621.924,636.395 619.853,626.616 622.467,625.582 618.701,625.717 
	618.978,617.733 610.145,614.034 622.314,613.677 624.666,608.322 631.703,602.48 624.674,596.637 618.398,595.204 619.076,590.919 
	623.978,592.23 627.637,588.183 621.814,579.363 627.479,570.722 617.586,572.907 618.669,567.81 617.243,562.388 619.016,556.453 
	619.254,556.252 622.248,552.843 615.221,552.163 615.888,544.702 620.9,542.937 626.094,540.424 629.888,533.153 624.227,527.758 
	616.949,527.325 613.593,521.596 618.31,517.235 621.505,512.725 625.015,510.039 619.384,509.489 621.395,499.771 618.67,498.482 
	614.643,490.46 626.394,494.504 619.215,486.926 624.437,481.328 614.377,483.681 620.125,475.373 623.385,476.093 621.552,466.553 
	620.334,463.817 624.816,457.839 623.978,450.971 615.655,452.267 623.191,452.79 626.832,448.725 621.281,440.709 625.089,434.457 
	619.719,432.119 617.834,429.156 620.848,427.338 617.787,416.571 621.688,417.601 618.871,417.565 617.152,411.577 611.6,406.052 
	618.064,401.445 625.41,401.085 622.77,394.493 620.867,392.462 618.624,386.998 609.528,382.945 616.657,376.93 621.557,374.123 
	629.374,371.388 625.562,364.658 616.324,366.188 615.187,359.831 614.574,351.737 624.127,353.583 621.238,348.273 
	619.785,347.326 617.63,341.773 616.973,336.721 616.955,331.009 624.193,330.541 633.427,325.174 621.497,322.505 622.199,314.096 
	620.973,313.609 623.653,314.598 625.342,308.58 624.38,302.057 619.332,301.561 621.104,292.081 611.284,290.507 617.509,285.345 
	619.919,280.048 629.906,278.953 627.06,270.724 622.748,267.328 619.622,267.392 618.537,263.264 625.736,262.756 621.055,255.836 
	624.511,250.163 614.854,252.114 615.119,244.286 614.709,236.327 624.557,238.468 627.68,232.733 619.355,232.209 621.633,222.226 
	618.381,221.175 622.514,221.023 618.677,209.479 633.643,209.629 627.045,201.413 615.575,205.174 614.764,198.068 
	616.221,191.621 625.016,192.708 633.223,186.52 622.862,182.485 613.652,183.988 616.82,174.958 621.309,173.599 620.98,165.565 
	628.477,163.406 627.129,155.109 620.44,154.091 607.951,151.856 613.695,142.878 619.371,140.846 623.139,140.293 627.73,131.399 
	621.296,130.126 608.539,128.747 615.493,121.566 619.846,118.211 630.527,117.19 627.475,108.546 620.551,107.762 617.807,105.63 
	621.164,104.128 619.745,95.002 625.045,94.077 618.455,94.456 618.846,86.358 613,82.525 621.082,80.937 623.267,75.415 
	626.852,70.97 618.249,71.553 617.154,64.941 614.203,59.415 616.004,52.75 620.932,49.971 620.699,47.855 624.342,42.351 
	614.965,44.021 615.941,36.304 619.922,33.559 626.043,31.973 619.744,24.746 618.629,24.955 616.103,19.774 616.133,12.037 "/>
</svg>
