<?xml version="1.0" encoding="utf-8"?>
<!-- Generator: Adobe Illustrator 15.0.0, SVG Export Plug-In . SVG Version: 6.00 Build 0)  -->
<!DOCTYPE svg PUBLIC "-//W3C//DTD SVG 1.1//EN" "http://www.w3.org/Graphics/SVG/1.1/DTD/svg11.dtd">
<svg version="1.1" id="Layer_1" xmlns="http://www.w3.org/2000/svg" xmlns:xlink="http://www.w3.org/1999/xlink" x="0px" y="0px"
	 width="1024px" height="768px" viewBox="0 0 1024 768" style="enable-background:new 0 0 1024 768;" xml:space="preserve">
<style type="text/css">
<![CDATA[
	.st0{fill:none;stroke:#FF5F9F;stroke-miterlimit:10;}
]]>
</style>
<polyline class="st0" points="125.786,754.153 130.155,750.828 134.317,747.284 129.557,741.126 134.595,734.713 132.952,728.649 
	123.963,729.576 125.229,722.793 128.247,718.104 131.998,718.019 134.737,711.462 124.436,714.056 127.119,706.465 
	131.247,705.701 132.711,699.459 130.898,694.908 134.838,688.251 131.12,684.262 131.142,683.352 126.965,678.311 134.85,678.487 
	137.216,671.804 131.909,668.07 126.716,665.558 120.637,660.252 132.92,661.156 135.411,655.94 142.443,648.7 129.938,646.934 
	128.565,640.599 117.073,637.146 131.268,636.395 129.196,626.616 131.811,625.582 128.044,625.717 128.321,617.733 
	119.488,614.034 131.658,613.677 134.01,608.322 141.047,602.48 134.017,596.637 127.742,595.204 128.42,590.919 133.321,592.23 
	136.98,588.183 131.158,579.363 136.823,570.722 126.93,572.907 128.013,567.81 126.587,562.388 128.359,556.453 128.598,556.252 
	131.591,552.843 124.565,552.163 125.231,544.702 130.245,542.937 135.437,540.424 139.231,533.153 133.57,527.758 126.293,527.325 
	122.937,521.596 127.653,517.235 130.849,512.725 134.358,510.039 128.728,509.489 130.738,499.771 128.013,498.482 123.986,490.46 
	135.737,494.504 128.559,486.926 133.78,481.328 123.721,483.681 129.469,475.373 132.728,476.093 130.896,466.553 129.677,463.817 
	134.16,457.839 133.321,450.971 124.999,452.267 132.535,452.79 136.176,448.725 130.625,440.709 134.433,434.457 129.063,432.119 
	127.177,429.156 130.191,427.338 127.131,416.571 131.031,417.601 128.215,417.565 126.496,411.577 120.944,406.052 
	127.408,401.445 134.753,401.085 132.113,394.493 130.21,392.462 127.968,386.998 118.872,382.945 126.001,376.93 130.901,374.123 
	138.718,371.388 134.905,364.658 125.668,366.188 124.53,359.831 123.918,351.737 133.47,353.583 130.582,348.273 129.128,347.326 
	126.974,341.773 126.317,336.721 126.299,331.009 133.538,330.541 142.771,325.174 130.841,322.505 131.543,314.096 
	130.317,313.609 132.997,314.598 134.685,308.58 133.724,302.057 128.675,301.561 130.448,292.081 120.628,290.507 126.853,285.345 
	129.263,280.048 139.25,278.953 136.403,270.724 132.092,267.328 128.966,267.392 127.881,263.264 135.08,262.756 130.398,255.836 
	133.854,250.163 124.197,252.114 124.463,244.286 124.053,236.327 133.9,238.468 137.024,232.733 128.7,232.209 130.977,222.226 
	127.725,221.175 131.857,221.023 128.021,209.479 142.987,209.629 136.388,201.413 124.919,205.174 124.107,198.068 
	125.564,191.621 134.359,192.708 142.566,186.52 132.206,182.485 122.996,183.988 126.164,174.958 130.652,173.599 130.325,165.565 
	137.82,163.406 136.472,155.109 129.784,154.091 117.295,151.856 123.04,142.878 128.714,140.846 132.482,140.293 137.074,131.399 
	130.64,130.126 117.882,128.747 124.837,121.566 129.189,118.211 139.871,117.19 136.818,108.546 129.895,107.762 127.151,105.63 
	130.508,104.128 129.089,95.002 134.388,94.077 127.799,94.456 128.189,86.358 122.344,82.525 130.425,80.937 132.61,75.415 
	136.195,70.97 127.593,71.553 126.498,64.941 123.547,59.415 125.348,52.75 130.275,49.971 130.042,47.855 133.686,42.351 
	124.309,44.021 125.285,36.304 129.265,33.559 135.387,31.973 129.087,24.746 127.973,24.955 125.446,19.774 125.477,12.037 "/>
<polyline class="st0" points="646.465,754.153 650.834,750.828 654.997,747.284 650.236,741.126 655.275,734.713 653.631,728.649 
	644.643,729.576 645.908,722.793 648.927,718.104 652.678,718.019 655.416,711.462 645.115,714.056 647.799,706.465 
	651.926,705.701 653.391,699.459 651.578,694.908 655.518,688.251 651.8,684.262 651.821,683.352 647.645,678.311 655.529,678.487 
	657.896,671.804 652.588,668.07 647.396,665.558 641.316,660.252 653.6,661.156 656.09,655.94 663.123,648.7 650.617,646.934 
	649.245,640.599 637.753,637.146 651.947,636.395 649.876,626.616 652.49,625.582 648.725,625.717 649.001,617.733 640.168,614.034 
	652.338,613.677 654.689,608.322 661.727,602.48 654.697,596.637 648.422,595.204 649.1,590.919 654.001,592.23 657.66,588.183 
	651.838,579.363 657.502,570.722 647.609,572.907 648.692,567.81 647.267,562.388 649.039,556.453 649.277,556.252 652.271,552.843 
	645.244,552.163 645.911,544.702 650.924,542.937 656.117,540.424 659.911,533.153 654.25,527.758 646.973,527.325 643.616,521.596 
	648.333,517.235 651.528,512.725 655.038,510.039 649.407,509.489 651.418,499.771 648.693,498.482 644.666,490.46 656.417,494.504 
	649.238,486.926 654.46,481.328 644.4,483.681 650.148,475.373 653.408,476.093 651.575,466.553 650.357,463.817 654.84,457.839 
	654.001,450.971 645.679,452.267 653.215,452.79 656.855,448.725 651.305,440.709 655.112,434.457 649.742,432.119 647.857,429.156 
	650.871,427.338 647.811,416.571 651.711,417.601 648.895,417.565 647.176,411.577 641.623,406.052 648.088,401.445 
	655.434,401.085 652.793,394.493 650.891,392.462 648.647,386.998 639.552,382.945 646.681,376.93 651.58,374.123 659.397,371.388 
	655.585,364.658 646.348,366.188 645.21,359.831 644.598,351.737 654.15,353.583 651.262,348.273 649.809,347.326 647.653,341.773 
	646.996,336.721 646.979,331.009 654.217,330.541 663.45,325.174 651.521,322.505 652.223,314.096 650.996,313.609 653.677,314.598 
	655.365,308.58 654.403,302.057 649.355,301.561 651.127,292.081 641.308,290.507 647.532,285.345 649.942,280.048 659.93,278.953 
	657.083,270.724 652.771,267.328 649.646,267.392 648.561,263.264 655.76,262.756 651.078,255.836 654.534,250.163 644.877,252.114 
	645.143,244.286 644.732,236.327 654.58,238.468 657.703,232.733 649.379,232.209 651.656,222.226 648.404,221.175 652.537,221.023 
	648.7,209.479 663.666,209.629 657.068,201.413 645.599,205.174 644.787,198.068 646.244,191.621 655.039,192.708 663.246,186.52 
	652.886,182.485 643.676,183.988 646.844,174.958 651.332,173.599 651.004,165.565 658.5,163.406 657.152,155.109 650.464,154.091 
	637.975,151.856 643.719,142.878 649.395,140.846 653.162,140.293 657.754,131.399 651.319,130.126 638.562,128.747 
	645.517,121.566 649.869,118.211 660.551,117.19 657.498,108.546 650.574,107.762 647.83,105.63 651.188,104.128 649.769,95.002 
	655.068,94.077 648.479,94.456 648.869,86.358 643.023,82.525 651.105,80.937 653.29,75.415 656.875,70.97 648.272,71.553 
	647.178,64.941 644.227,59.415 646.027,52.75 650.955,49.971 650.723,47.855 654.365,42.351 644.988,44.021 645.965,36.304 
	649.945,33.559 656.066,31.973 649.768,24.746 648.652,24.955 646.126,19.774 646.156,12.037 "/>
</svg>
