<?xml version="1.0" encoding="utf-8"?>
<!-- Generator: Adobe Illustrator 15.0.0, SVG Export Plug-In . SVG Version: 6.00 Build 0)  -->
<!DOCTYPE svg PUBLIC "-//W3C//DTD SVG 1.1//EN" "http://www.w3.org/Graphics/SVG/1.1/DTD/svg11.dtd">
<svg version="1.1" id="Layer_1" xmlns="http://www.w3.org/2000/svg" xmlns:xlink="http://www.w3.org/1999/xlink" x="0px" y="0px"
	 width="1024px" height="768px" viewBox="0 0 1024 768" style="enable-background:new 0 0 1024 768;" xml:space="preserve">
<style type="text/css">
<![CDATA[
	.st0{fill:none;stroke:#FF5F9F;stroke-miterlimit:10;}
]]>
</style>
<polyline class="st0" points="135.793,754.153 140.163,750.828 144.325,747.284 139.564,741.126 144.603,734.713 142.959,728.649 
	133.971,729.576 135.236,722.793 138.255,718.104 142.005,718.019 144.745,711.462 134.444,714.056 137.126,706.465 
	141.254,705.701 142.719,699.459 140.906,694.908 144.846,688.251 141.128,684.262 141.149,683.352 136.973,678.311 
	144.857,678.487 147.224,671.804 141.917,668.07 136.724,665.558 130.645,660.252 142.928,661.156 145.418,655.94 152.451,648.7 
	139.945,646.934 138.573,640.599 127.081,637.146 141.275,636.395 139.204,626.616 141.818,625.582 138.052,625.717 
	138.329,617.733 129.496,614.034 141.666,613.677 144.018,608.322 151.055,602.48 144.025,596.637 137.75,595.204 138.428,590.919 
	143.329,592.23 146.988,588.183 141.166,579.363 146.831,570.722 136.938,572.907 138.021,567.81 136.595,562.388 138.367,556.453 
	138.606,556.252 141.599,552.843 134.573,552.163 135.239,544.702 140.252,542.937 145.445,540.424 149.239,533.153 
	143.578,527.758 136.301,527.325 132.944,521.596 137.661,517.235 140.856,512.725 144.366,510.039 138.735,509.489 
	140.746,499.771 138.021,498.482 133.994,490.46 145.745,494.504 138.567,486.926 143.788,481.328 133.729,483.681 139.477,475.373 
	142.736,476.093 140.903,466.553 139.685,463.817 144.168,457.839 143.329,450.971 135.007,452.267 142.542,452.79 146.184,448.725 
	140.633,440.709 144.44,434.457 139.071,432.119 137.185,429.156 140.199,427.338 137.139,416.571 141.039,417.601 138.223,417.565 
	136.504,411.577 130.952,406.052 137.416,401.445 144.761,401.085 142.121,394.493 140.218,392.462 137.976,386.998 128.88,382.945 
	136.009,376.93 140.909,374.123 148.726,371.388 144.913,364.658 135.676,366.188 134.538,359.831 133.926,351.737 143.478,353.583 
	140.59,348.273 139.136,347.326 136.981,341.773 136.325,336.721 136.307,331.009 143.545,330.541 152.778,325.174 140.849,322.505 
	141.551,314.096 140.325,313.609 143.005,314.598 144.693,308.58 143.731,302.057 138.683,301.561 140.456,292.081 130.636,290.507 
	136.86,285.345 139.271,280.048 149.258,278.953 146.411,270.724 142.1,267.328 138.974,267.392 137.889,263.264 145.088,262.756 
	140.406,255.836 143.862,250.163 134.205,252.114 134.471,244.286 134.061,236.327 143.908,238.468 147.032,232.733 
	138.708,232.209 140.984,222.226 137.732,221.175 141.865,221.023 138.028,209.479 152.995,209.629 146.396,201.413 
	134.927,205.174 134.115,198.068 135.572,191.621 144.367,192.708 152.574,186.52 142.214,182.485 133.003,183.988 136.171,174.958 
	140.66,173.599 140.333,165.565 147.828,163.406 146.48,155.109 139.792,154.091 127.303,151.856 133.047,142.878 138.722,140.846 
	142.49,140.293 147.082,131.399 140.647,130.126 127.89,128.747 134.845,121.566 139.197,118.211 149.879,117.19 146.826,108.546 
	139.903,107.762 137.159,105.63 140.516,104.128 139.097,95.002 144.396,94.077 137.807,94.456 138.197,86.358 132.352,82.525 
	140.433,80.937 142.618,75.415 146.203,70.97 137.601,71.553 136.506,64.941 133.555,59.415 135.355,52.75 140.283,49.971 
	140.05,47.855 143.694,42.351 134.317,44.021 135.292,36.304 139.273,33.559 145.395,31.973 139.095,24.746 137.981,24.955 
	135.454,19.774 135.485,12.037 "/>
<polyline class="st0" points="656.473,754.153 660.842,750.828 665.005,747.284 660.244,741.126 665.283,734.713 663.639,728.649 
	654.65,729.576 655.916,722.793 658.935,718.104 662.686,718.019 665.424,711.462 655.123,714.056 657.807,706.465 661.934,705.701 
	663.398,699.459 661.586,694.908 665.525,688.251 661.808,684.262 661.829,683.352 657.652,678.311 665.537,678.487 
	667.903,671.804 662.596,668.07 657.403,665.558 651.324,660.252 663.607,661.156 666.098,655.94 673.131,648.7 660.625,646.934 
	659.253,640.599 647.761,637.146 661.955,636.395 659.884,626.616 662.498,625.582 658.732,625.717 659.009,617.733 
	650.176,614.034 662.346,613.677 664.697,608.322 671.734,602.48 664.705,596.637 658.43,595.204 659.107,590.919 664.009,592.23 
	667.668,588.183 661.846,579.363 667.51,570.722 657.617,572.907 658.7,567.81 657.274,562.388 659.047,556.453 659.285,556.252 
	662.279,552.843 655.252,552.163 655.919,544.702 660.932,542.937 666.125,540.424 669.919,533.153 664.258,527.758 656.98,527.325 
	653.624,521.596 658.341,517.235 661.536,512.725 665.046,510.039 659.415,509.489 661.426,499.771 658.701,498.482 654.674,490.46 
	666.425,494.504 659.246,486.926 664.468,481.328 654.408,483.681 660.156,475.373 663.416,476.093 661.583,466.553 
	660.365,463.817 664.848,457.839 664.009,450.971 655.687,452.267 663.223,452.79 666.863,448.725 661.312,440.709 665.12,434.457 
	659.75,432.119 657.865,429.156 660.879,427.338 657.818,416.571 661.719,417.601 658.902,417.565 657.184,411.577 651.631,406.052 
	658.096,401.445 665.441,401.085 662.801,394.493 660.898,392.462 658.655,386.998 649.56,382.945 656.688,376.93 661.588,374.123 
	669.405,371.388 665.593,364.658 656.355,366.188 655.218,359.831 654.605,351.737 664.158,353.583 661.27,348.273 659.816,347.326 
	657.661,341.773 657.004,336.721 656.986,331.009 664.225,330.541 673.458,325.174 661.528,322.505 662.23,314.096 661.004,313.609 
	663.685,314.598 665.373,308.58 664.411,302.057 659.363,301.561 661.135,292.081 651.315,290.507 657.54,285.345 659.95,280.048 
	669.938,278.953 667.091,270.724 662.779,267.328 659.653,267.392 658.568,263.264 665.768,262.756 661.086,255.836 
	664.542,250.163 654.885,252.114 655.15,244.286 654.74,236.327 664.588,238.468 667.711,232.733 659.387,232.209 661.664,222.226 
	658.412,221.175 662.545,221.023 658.708,209.479 673.674,209.629 667.076,201.413 655.606,205.174 654.795,198.068 
	656.252,191.621 665.047,192.708 673.254,186.52 662.894,182.485 653.684,183.988 656.852,174.958 661.34,173.599 661.012,165.565 
	668.508,163.406 667.16,155.109 660.472,154.091 647.982,151.856 653.727,142.878 659.402,140.846 663.17,140.293 667.762,131.399 
	661.327,130.126 648.57,128.747 655.524,121.566 659.877,118.211 670.559,117.19 667.506,108.546 660.582,107.762 657.838,105.63 
	661.195,104.128 659.776,95.002 665.076,94.077 658.486,94.456 658.877,86.358 653.031,82.525 661.113,80.937 663.298,75.415 
	666.883,70.97 658.28,71.553 657.186,64.941 654.234,59.415 656.035,52.75 660.963,49.971 660.73,47.855 664.373,42.351 
	654.996,44.021 655.973,36.304 659.953,33.559 666.074,31.973 659.775,24.746 658.66,24.955 656.134,19.774 656.164,12.037 "/>
</svg>
