<?xml version="1.0" encoding="utf-8"?>
<!-- Generator: Adobe Illustrator 15.0.0, SVG Export Plug-In . SVG Version: 6.00 Build 0)  -->
<!DOCTYPE svg PUBLIC "-//W3C//DTD SVG 1.1//EN" "http://www.w3.org/Graphics/SVG/1.1/DTD/svg11.dtd">
<svg version="1.1" id="Layer_1" xmlns="http://www.w3.org/2000/svg" xmlns:xlink="http://www.w3.org/1999/xlink" x="0px" y="0px"
	 width="1024px" height="768px" viewBox="0 0 1024 768" style="enable-background:new 0 0 1024 768;" xml:space="preserve">
<style type="text/css">
<![CDATA[
	.st0{fill:none;stroke:#FF5F9F;stroke-miterlimit:10;}
]]>
</style>
<polyline class="st0" points="145.801,754.153 150.17,750.828 154.333,747.284 149.572,741.126 154.611,734.713 152.967,728.649 
	143.979,729.576 145.244,722.793 148.263,718.104 152.013,718.019 154.752,711.462 144.452,714.056 147.134,706.465 
	151.262,705.701 152.727,699.459 150.914,694.908 154.854,688.251 151.136,684.262 151.157,683.352 146.981,678.311 
	154.865,678.487 157.231,671.804 151.924,668.07 146.731,665.558 140.653,660.252 152.936,661.156 155.426,655.94 162.459,648.7 
	149.953,646.934 148.581,640.599 137.089,637.146 151.283,636.395 149.212,626.616 151.826,625.582 148.06,625.717 148.337,617.733 
	139.503,614.034 151.673,613.677 154.026,608.322 161.062,602.48 154.033,596.637 147.758,595.204 148.436,590.919 153.337,592.23 
	156.996,588.183 151.174,579.363 156.838,570.722 146.945,572.907 148.028,567.81 146.603,562.388 148.375,556.453 148.614,556.252 
	151.607,552.843 144.581,552.163 145.247,544.702 150.26,542.937 155.453,540.424 159.247,533.153 153.585,527.758 146.309,527.325 
	142.952,521.596 147.669,517.235 150.864,512.725 154.374,510.039 148.743,509.489 150.754,499.771 148.029,498.482 144.002,490.46 
	155.753,494.504 148.575,486.926 153.796,481.328 143.736,483.681 149.485,475.373 152.744,476.093 150.911,466.553 
	149.693,463.817 154.176,457.839 153.337,450.971 145.015,452.267 152.55,452.79 156.192,448.725 150.641,440.709 154.448,434.457 
	149.079,432.119 147.193,429.156 150.207,427.338 147.147,416.571 151.047,417.601 148.23,417.565 146.512,411.577 140.959,406.052 
	147.424,401.445 154.769,401.085 152.128,394.493 150.226,392.462 147.983,386.998 138.888,382.945 146.017,376.93 150.917,374.123 
	158.733,371.388 154.921,364.658 145.684,366.188 144.546,359.831 143.934,351.737 153.486,353.583 150.598,348.273 
	149.144,347.326 146.989,341.773 146.333,336.721 146.314,331.009 153.553,330.541 162.786,325.174 150.856,322.505 
	151.559,314.096 150.333,313.609 153.013,314.598 154.701,308.58 153.739,302.057 148.691,301.561 150.463,292.081 140.644,290.507 
	146.868,285.345 149.278,280.048 159.266,278.953 156.419,270.724 152.108,267.328 148.981,267.392 147.896,263.264 
	155.096,262.756 150.414,255.836 153.87,250.163 144.212,252.114 144.479,244.286 144.068,236.327 153.916,238.468 157.04,232.733 
	148.715,232.209 150.992,222.226 147.74,221.175 151.873,221.023 148.036,209.479 163.002,209.629 156.404,201.413 144.935,205.174 
	144.123,198.068 145.58,191.621 154.375,192.708 162.582,186.52 152.222,182.485 143.011,183.988 146.179,174.958 150.667,173.599 
	150.34,165.565 157.835,163.406 156.488,155.109 149.8,154.091 137.311,151.856 143.055,142.878 148.73,140.846 152.498,140.293 
	157.09,131.399 150.655,130.126 137.898,128.747 144.853,121.566 149.205,118.211 159.887,117.19 156.833,108.546 149.911,107.762 
	147.167,105.63 150.523,104.128 149.104,95.002 154.404,94.077 147.814,94.456 148.205,86.358 142.36,82.525 150.441,80.937 
	152.626,75.415 156.21,70.97 147.608,71.553 146.514,64.941 143.563,59.415 145.363,52.75 150.291,49.971 150.058,47.855 
	153.702,42.351 144.325,44.021 145.3,36.304 149.281,33.559 155.402,31.973 149.103,24.746 147.989,24.955 145.462,19.774 
	145.493,12.037 "/>
<polyline class="st0" points="666.48,754.153 670.85,750.828 675.013,747.284 670.252,741.126 675.291,734.713 673.646,728.649 
	664.658,729.576 665.924,722.793 668.942,718.104 672.693,718.019 675.432,711.462 665.131,714.056 667.814,706.465 
	671.941,705.701 673.406,699.459 671.594,694.908 675.533,688.251 671.815,684.262 671.837,683.352 667.66,678.311 675.545,678.487 
	677.911,671.804 672.604,668.07 667.411,665.558 661.332,660.252 673.615,661.156 676.105,655.94 683.139,648.7 670.633,646.934 
	669.261,640.599 657.769,637.146 671.963,636.395 669.892,626.616 672.506,625.582 668.74,625.717 669.017,617.733 660.184,614.034 
	672.354,613.677 674.705,608.322 681.742,602.48 674.713,596.637 668.438,595.204 669.115,590.919 674.017,592.23 677.676,588.183 
	671.854,579.363 677.518,570.722 667.625,572.907 668.708,567.81 667.282,562.388 669.055,556.453 669.293,556.252 672.287,552.843 
	665.26,552.163 665.927,544.702 670.939,542.937 676.133,540.424 679.927,533.153 674.266,527.758 666.988,527.325 663.632,521.596 
	668.349,517.235 671.544,512.725 675.054,510.039 669.423,509.489 671.434,499.771 668.709,498.482 664.682,490.46 676.433,494.504 
	669.254,486.926 674.476,481.328 664.416,483.681 670.164,475.373 673.424,476.093 671.591,466.553 670.373,463.817 
	674.855,457.839 674.017,450.971 665.694,452.267 673.23,452.79 676.871,448.725 671.32,440.709 675.128,434.457 669.758,432.119 
	667.873,429.156 670.887,427.338 667.826,416.571 671.727,417.601 668.91,417.565 667.191,411.577 661.639,406.052 668.104,401.445 
	675.449,401.085 672.809,394.493 670.906,392.462 668.663,386.998 659.567,382.945 666.696,376.93 671.596,374.123 679.413,371.388 
	675.601,364.658 666.363,366.188 665.226,359.831 664.613,351.737 674.166,353.583 671.277,348.273 669.824,347.326 
	667.669,341.773 667.012,336.721 666.994,331.009 674.232,330.541 683.466,325.174 671.536,322.505 672.238,314.096 
	671.012,313.609 673.692,314.598 675.381,308.58 674.419,302.057 669.371,301.561 671.143,292.081 661.323,290.507 667.548,285.345 
	669.958,280.048 679.945,278.953 677.099,270.724 672.787,267.328 669.661,267.392 668.576,263.264 675.775,262.756 
	671.094,255.836 674.55,250.163 664.893,252.114 665.158,244.286 664.748,236.327 674.596,238.468 677.719,232.733 669.395,232.209 
	671.672,222.226 668.42,221.175 672.553,221.023 668.716,209.479 683.682,209.629 677.084,201.413 665.614,205.174 664.803,198.068 
	666.26,191.621 675.055,192.708 683.262,186.52 672.901,182.485 663.691,183.988 666.859,174.958 671.348,173.599 671.02,165.565 
	678.516,163.406 677.168,155.109 670.479,154.091 657.99,151.856 663.734,142.878 669.41,140.846 673.178,140.293 677.77,131.399 
	671.335,130.126 658.578,128.747 665.532,121.566 669.885,118.211 680.566,117.19 677.514,108.546 670.59,107.762 667.846,105.63 
	671.203,104.128 669.784,95.002 675.084,94.077 668.494,94.456 668.885,86.358 663.039,82.525 671.121,80.937 673.306,75.415 
	676.891,70.97 668.288,71.553 667.193,64.941 664.242,59.415 666.043,52.75 670.971,49.971 670.738,47.855 674.381,42.351 
	665.004,44.021 665.98,36.304 669.961,33.559 676.082,31.973 669.783,24.746 668.668,24.955 666.142,19.774 666.172,12.037 "/>
</svg>
