<?xml version="1.0" encoding="utf-8"?>
<!-- Generator: Adobe Illustrator 15.0.0, SVG Export Plug-In . SVG Version: 6.00 Build 0)  -->
<!DOCTYPE svg PUBLIC "-//W3C//DTD SVG 1.1//EN" "http://www.w3.org/Graphics/SVG/1.1/DTD/svg11.dtd">
<svg version="1.1" id="Layer_1" xmlns="http://www.w3.org/2000/svg" xmlns:xlink="http://www.w3.org/1999/xlink" x="0px" y="0px"
	 width="1024px" height="768px" viewBox="0 0 1024 768" style="enable-background:new 0 0 1024 768;" xml:space="preserve">
<style type="text/css">
<![CDATA[
	.st0{fill:none;stroke:#FF5F9F;stroke-miterlimit:10;}
]]>
</style>
<polyline class="st0" points="155.809,754.153 160.178,750.828 164.341,747.284 159.58,741.126 164.619,734.713 162.975,728.649 
	153.987,729.576 155.252,722.793 158.271,718.104 162.021,718.019 164.76,711.462 154.459,714.056 157.142,706.465 161.27,705.701 
	162.734,699.459 160.921,694.908 164.861,688.251 161.144,684.262 161.165,683.352 156.989,678.311 164.873,678.487 
	167.239,671.804 161.932,668.07 156.739,665.558 150.661,660.252 162.943,661.156 165.434,655.94 172.467,648.7 159.961,646.934 
	158.589,640.599 147.097,637.146 161.291,636.395 159.22,626.616 161.834,625.582 158.068,625.717 158.345,617.733 149.511,614.034 
	161.681,613.677 164.034,608.322 171.07,602.48 164.041,596.637 157.766,595.204 158.443,590.919 163.345,592.23 167.004,588.183 
	161.182,579.363 166.846,570.722 156.953,572.907 158.036,567.81 156.61,562.388 158.383,556.453 158.622,556.252 161.615,552.843 
	154.588,552.163 155.255,544.702 160.268,542.937 165.46,540.424 169.255,533.153 163.593,527.758 156.317,527.325 152.96,521.596 
	157.677,517.235 160.872,512.725 164.382,510.039 158.751,509.489 160.762,499.771 158.037,498.482 154.01,490.46 165.761,494.504 
	158.583,486.926 163.804,481.328 153.744,483.681 159.493,475.373 162.751,476.093 160.919,466.553 159.701,463.817 
	164.184,457.839 163.345,450.971 155.022,452.267 162.558,452.79 166.2,448.725 160.648,440.709 164.456,434.457 159.086,432.119 
	157.201,429.156 160.214,427.338 157.155,416.571 161.055,417.601 158.238,417.565 156.52,411.577 150.967,406.052 157.432,401.445 
	164.777,401.085 162.136,394.493 160.234,392.462 157.991,386.998 148.896,382.945 156.024,376.93 160.924,374.123 168.741,371.388 
	164.929,364.658 155.691,366.188 154.554,359.831 153.941,351.737 163.494,353.583 160.605,348.273 159.152,347.326 
	156.997,341.773 156.34,336.721 156.322,331.009 163.561,330.541 172.794,325.174 160.864,322.505 161.566,314.096 160.34,313.609 
	163.021,314.598 164.708,308.58 163.747,302.057 158.699,301.561 160.471,292.081 150.651,290.507 156.876,285.345 159.286,280.048 
	169.274,278.953 166.427,270.724 162.116,267.328 158.989,267.392 157.904,263.264 165.104,262.756 160.421,255.836 
	163.878,250.163 154.22,252.114 154.487,244.286 154.076,236.327 163.924,238.468 167.047,232.733 158.723,232.209 161,222.226 
	157.748,221.175 161.881,221.023 158.044,209.479 173.01,209.629 166.412,201.413 154.942,205.174 154.131,198.068 155.588,191.621 
	164.382,192.708 172.589,186.52 162.229,182.485 153.019,183.988 156.187,174.958 160.675,173.599 160.348,165.565 167.843,163.406 
	166.496,155.109 159.808,154.091 147.318,151.856 153.063,142.878 158.738,140.846 162.506,140.293 167.098,131.399 
	160.663,130.126 147.906,128.747 154.86,121.566 159.212,118.211 169.895,117.19 166.841,108.546 159.918,107.762 157.174,105.63 
	160.531,104.128 159.112,95.002 164.412,94.077 157.822,94.456 158.213,86.358 152.368,82.525 160.449,80.937 162.634,75.415 
	166.218,70.97 157.616,71.553 156.521,64.941 153.571,59.415 155.371,52.75 160.299,49.971 160.066,47.855 163.709,42.351 
	154.333,44.021 155.308,36.304 159.289,33.559 165.41,31.973 159.111,24.746 157.997,24.955 155.47,19.774 155.5,12.037 "/>
<polyline class="st0" points="676.488,754.153 680.857,750.828 685.021,747.284 680.26,741.126 685.299,734.713 683.654,728.649 
	674.666,729.576 675.932,722.793 678.95,718.104 682.701,718.019 685.439,711.462 675.139,714.056 677.822,706.465 681.949,705.701 
	683.414,699.459 681.602,694.908 685.541,688.251 681.823,684.262 681.845,683.352 677.668,678.311 685.553,678.487 
	687.919,671.804 682.611,668.07 677.419,665.558 671.34,660.252 683.623,661.156 686.113,655.94 693.146,648.7 680.641,646.934 
	679.269,640.599 667.776,637.146 681.971,636.395 679.899,626.616 682.514,625.582 678.748,625.717 679.024,617.733 
	670.191,614.034 682.361,613.677 684.713,608.322 691.75,602.48 684.721,596.637 678.445,595.204 679.123,590.919 684.024,592.23 
	687.684,588.183 681.861,579.363 687.525,570.722 677.633,572.907 678.716,567.81 677.29,562.388 679.062,556.453 679.301,556.252 
	682.295,552.843 675.268,552.163 675.935,544.702 680.947,542.937 686.141,540.424 689.935,533.153 684.273,527.758 
	676.996,527.325 673.64,521.596 678.356,517.235 681.552,512.725 685.062,510.039 679.431,509.489 681.441,499.771 678.717,498.482 
	674.689,490.46 686.44,494.504 679.262,486.926 684.483,481.328 674.424,483.681 680.172,475.373 683.432,476.093 681.599,466.553 
	680.381,463.817 684.863,457.839 684.024,450.971 675.702,452.267 683.238,452.79 686.879,448.725 681.328,440.709 685.136,434.457 
	679.766,432.119 677.881,429.156 680.895,427.338 677.834,416.571 681.734,417.601 678.918,417.565 677.199,411.577 
	671.646,406.052 678.111,401.445 685.457,401.085 682.816,394.493 680.914,392.462 678.671,386.998 669.575,382.945 676.704,376.93 
	681.604,374.123 689.421,371.388 685.608,364.658 676.371,366.188 675.233,359.831 674.621,351.737 684.174,353.583 
	681.285,348.273 679.832,347.326 677.677,341.773 677.02,336.721 677.002,331.009 684.24,330.541 693.474,325.174 681.544,322.505 
	682.246,314.096 681.02,313.609 683.7,314.598 685.389,308.58 684.427,302.057 679.379,301.561 681.15,292.081 671.331,290.507 
	677.556,285.345 679.966,280.048 689.953,278.953 687.106,270.724 682.795,267.328 679.669,267.392 678.584,263.264 
	685.783,262.756 681.102,255.836 684.558,250.163 674.9,252.114 675.166,244.286 674.756,236.327 684.604,238.468 687.727,232.733 
	679.402,232.209 681.68,222.226 678.428,221.175 682.561,221.023 678.724,209.479 693.689,209.629 687.092,201.413 675.622,205.174 
	674.811,198.068 676.268,191.621 685.062,192.708 693.27,186.52 682.909,182.485 673.699,183.988 676.867,174.958 681.355,173.599 
	681.027,165.565 688.523,163.406 687.176,155.109 680.487,154.091 667.998,151.856 673.742,142.878 679.418,140.846 
	683.186,140.293 687.777,131.399 681.343,130.126 668.586,128.747 675.54,121.566 679.893,118.211 690.574,117.19 687.521,108.546 
	680.598,107.762 677.854,105.63 681.211,104.128 679.792,95.002 685.092,94.077 678.502,94.456 678.893,86.358 673.047,82.525 
	681.129,80.937 683.313,75.415 686.898,70.97 678.296,71.553 677.201,64.941 674.25,59.415 676.051,52.75 680.979,49.971 
	680.746,47.855 684.389,42.351 675.012,44.021 675.988,36.304 679.969,33.559 686.09,31.973 679.791,24.746 678.676,24.955 
	676.149,19.774 676.18,12.037 "/>
</svg>
