<?xml version="1.0" encoding="utf-8"?>
<!-- Generator: Adobe Illustrator 15.0.0, SVG Export Plug-In . SVG Version: 6.00 Build 0)  -->
<!DOCTYPE svg PUBLIC "-//W3C//DTD SVG 1.1//EN" "http://www.w3.org/Graphics/SVG/1.1/DTD/svg11.dtd">
<svg version="1.1" id="Layer_1" xmlns="http://www.w3.org/2000/svg" xmlns:xlink="http://www.w3.org/1999/xlink" x="0px" y="0px"
	 width="1024px" height="768px" viewBox="0 0 1024 768" style="enable-background:new 0 0 1024 768;" xml:space="preserve">
<style type="text/css">
<![CDATA[
	.st0{fill:none;stroke:#FF5F9F;stroke-miterlimit:10;}
]]>
</style>
<polyline class="st0" points="175.825,754.153 180.194,750.828 184.356,747.284 179.596,741.126 184.634,734.713 182.991,728.649 
	174.002,729.576 175.268,722.793 178.286,718.104 182.037,718.019 184.776,711.462 174.475,714.056 177.158,706.465 
	181.286,705.701 182.75,699.459 180.937,694.908 184.877,688.251 181.159,684.262 181.181,683.352 177.004,678.311 184.889,678.487 
	187.255,671.804 181.948,668.07 176.755,665.558 170.676,660.252 182.959,661.156 185.45,655.94 192.482,648.7 179.977,646.934 
	178.604,640.599 167.112,637.146 181.307,636.395 179.235,626.616 181.85,625.582 178.083,625.717 178.36,617.733 169.527,614.034 
	181.697,613.677 184.049,608.322 191.086,602.48 184.056,596.637 177.781,595.204 178.459,590.919 183.36,592.23 187.02,588.183 
	181.197,579.363 186.862,570.722 176.969,572.907 178.052,567.81 176.626,562.388 178.398,556.453 178.637,556.252 181.63,552.843 
	174.604,552.163 175.271,544.702 180.284,542.937 185.476,540.424 189.271,533.153 183.609,527.758 176.333,527.325 
	172.976,521.596 177.692,517.235 180.888,512.725 184.397,510.039 178.767,509.489 180.777,499.771 178.052,498.482 174.025,490.46 
	185.776,494.504 178.598,486.926 183.819,481.328 173.76,483.681 179.508,475.373 182.767,476.093 180.935,466.553 179.716,463.817 
	184.199,457.839 183.36,450.971 175.038,452.267 182.574,452.79 186.215,448.725 180.664,440.709 184.472,434.457 179.102,432.119 
	177.216,429.156 180.23,427.338 177.17,416.571 181.07,417.601 178.254,417.565 176.535,411.577 170.983,406.052 177.447,401.445 
	184.792,401.085 182.152,394.493 180.25,392.462 178.007,386.998 168.911,382.945 176.04,376.93 180.94,374.123 188.757,371.388 
	184.944,364.658 175.707,366.188 174.569,359.831 173.957,351.737 183.509,353.583 180.621,348.273 179.167,347.326 
	177.013,341.773 176.356,336.721 176.338,331.009 183.577,330.541 192.81,325.174 180.88,322.505 181.582,314.096 180.356,313.609 
	183.036,314.598 184.724,308.58 183.763,302.057 178.714,301.561 180.487,292.081 170.667,290.507 176.892,285.345 179.302,280.048 
	189.29,278.953 186.442,270.724 182.131,267.328 179.005,267.392 177.92,263.264 185.119,262.756 180.437,255.836 183.894,250.163 
	174.236,252.114 174.502,244.286 174.092,236.327 183.939,238.468 187.063,232.733 178.739,232.209 181.016,222.226 
	177.764,221.175 181.896,221.023 178.06,209.479 193.026,209.629 186.427,201.413 174.958,205.174 174.146,198.068 175.604,191.621 
	184.398,192.708 192.605,186.52 182.245,182.485 173.035,183.988 176.203,174.958 180.691,173.599 180.364,165.565 187.859,163.406 
	186.511,155.109 179.823,154.091 167.334,151.856 173.079,142.878 178.753,140.846 182.521,140.293 187.113,131.399 
	180.679,130.126 167.921,128.747 174.876,121.566 179.228,118.211 189.91,117.19 186.857,108.546 179.934,107.762 177.19,105.63 
	180.547,104.128 179.128,95.002 184.427,94.077 177.838,94.456 178.229,86.358 172.383,82.525 180.464,80.937 182.649,75.415 
	186.234,70.97 177.632,71.553 176.537,64.941 173.586,59.415 175.387,52.75 180.314,49.971 180.082,47.855 183.725,42.351 
	174.348,44.021 175.324,36.304 179.304,33.559 185.426,31.973 179.126,24.746 178.012,24.955 175.485,19.774 175.516,12.037 "/>
<polyline class="st0" points="696.504,754.153 700.873,750.828 705.036,747.284 700.275,741.126 705.314,734.713 703.67,728.649 
	694.682,729.576 695.947,722.793 698.966,718.104 702.717,718.019 705.455,711.462 695.154,714.056 697.838,706.465 
	701.965,705.701 703.43,699.459 701.617,694.908 705.557,688.251 701.839,684.262 701.86,683.352 697.684,678.311 705.568,678.487 
	707.935,671.804 702.627,668.07 697.435,665.558 691.355,660.252 703.639,661.156 706.129,655.94 713.162,648.7 700.656,646.934 
	699.284,640.599 687.792,637.146 701.986,636.395 699.915,626.616 702.529,625.582 698.764,625.717 699.04,617.733 690.207,614.034 
	702.377,613.677 704.729,608.322 711.766,602.48 704.736,596.637 698.461,595.204 699.139,590.919 704.04,592.23 707.699,588.183 
	701.877,579.363 707.541,570.722 697.648,572.907 698.731,567.81 697.306,562.388 699.078,556.453 699.316,556.252 702.311,552.843 
	695.283,552.163 695.95,544.702 700.963,542.937 706.156,540.424 709.95,533.153 704.289,527.758 697.012,527.325 693.655,521.596 
	698.372,517.235 701.567,512.725 705.077,510.039 699.446,509.489 701.457,499.771 698.732,498.482 694.705,490.46 706.456,494.504 
	699.277,486.926 704.499,481.328 694.439,483.681 700.188,475.373 703.447,476.093 701.614,466.553 700.396,463.817 
	704.879,457.839 704.04,450.971 695.718,452.267 703.254,452.79 706.895,448.725 701.344,440.709 705.151,434.457 699.781,432.119 
	697.896,429.156 700.91,427.338 697.85,416.571 701.75,417.601 698.934,417.565 697.215,411.577 691.662,406.052 698.127,401.445 
	705.473,401.085 702.832,394.493 700.93,392.462 698.687,386.998 689.591,382.945 696.72,376.93 701.619,374.123 709.437,371.388 
	705.624,364.658 696.387,366.188 695.249,359.831 694.637,351.737 704.189,353.583 701.301,348.273 699.848,347.326 
	697.692,341.773 697.035,336.721 697.018,331.009 704.256,330.541 713.489,325.174 701.56,322.505 702.262,314.096 701.035,313.609 
	703.716,314.598 705.404,308.58 704.442,302.057 699.395,301.561 701.166,292.081 691.347,290.507 697.571,285.345 699.981,280.048 
	709.969,278.953 707.122,270.724 702.811,267.328 699.685,267.392 698.6,263.264 705.799,262.756 701.117,255.836 704.573,250.163 
	694.916,252.114 695.182,244.286 694.771,236.327 704.619,238.468 707.742,232.733 699.418,232.209 701.695,222.226 
	698.443,221.175 702.576,221.023 698.739,209.479 713.705,209.629 707.107,201.413 695.638,205.174 694.826,198.068 
	696.283,191.621 705.078,192.708 713.285,186.52 702.925,182.485 693.715,183.988 696.883,174.958 701.371,173.599 701.043,165.565 
	708.539,163.406 707.191,155.109 700.503,154.091 688.014,151.856 693.758,142.878 699.434,140.846 703.201,140.293 
	707.793,131.399 701.358,130.126 688.602,128.747 695.556,121.566 699.908,118.211 710.59,117.19 707.537,108.546 700.613,107.762 
	697.869,105.63 701.227,104.128 699.808,95.002 705.107,94.077 698.518,94.456 698.908,86.358 693.062,82.525 701.145,80.937 
	703.329,75.415 706.914,70.97 698.312,71.553 697.217,64.941 694.266,59.415 696.066,52.75 700.994,49.971 700.762,47.855 
	704.404,42.351 695.027,44.021 696.004,36.304 699.984,33.559 706.105,31.973 699.807,24.746 698.691,24.955 696.165,19.774 
	696.195,12.037 "/>
</svg>
