<?xml version="1.0" encoding="utf-8"?>
<!-- Generator: Adobe Illustrator 15.0.0, SVG Export Plug-In . SVG Version: 6.00 Build 0)  -->
<!DOCTYPE svg PUBLIC "-//W3C//DTD SVG 1.1//EN" "http://www.w3.org/Graphics/SVG/1.1/DTD/svg11.dtd">
<svg version="1.1" id="Layer_1" xmlns="http://www.w3.org/2000/svg" xmlns:xlink="http://www.w3.org/1999/xlink" x="0px" y="0px"
	 width="1024px" height="768px" viewBox="0 0 1024 768" style="enable-background:new 0 0 1024 768;" xml:space="preserve">
<style type="text/css">
<![CDATA[
	.st0{fill:none;stroke:#FF5F9F;stroke-miterlimit:10;}
]]>
</style>
<polyline class="st0" points="185.833,754.153 190.202,750.828 194.364,747.284 189.604,741.126 194.642,734.713 192.999,728.649 
	184.01,729.576 185.275,722.793 188.294,718.104 192.044,718.019 194.784,711.462 184.483,714.056 187.166,706.465 191.293,705.701 
	192.758,699.459 190.945,694.908 194.885,688.251 191.167,684.262 191.188,683.352 187.012,678.311 194.896,678.487 
	197.263,671.804 191.956,668.07 186.763,665.558 180.684,660.252 192.967,661.156 195.458,655.94 202.49,648.7 189.984,646.934 
	188.612,640.599 177.12,637.146 191.314,636.395 189.243,626.616 191.857,625.582 188.091,625.717 188.368,617.733 179.535,614.034 
	191.705,613.677 194.057,608.322 201.094,602.48 194.064,596.637 187.789,595.204 188.467,590.919 193.368,592.23 197.027,588.183 
	191.205,579.363 196.87,570.722 186.977,572.907 188.06,567.81 186.634,562.388 188.406,556.453 188.645,556.252 191.638,552.843 
	184.612,552.163 185.278,544.702 190.292,542.937 195.484,540.424 199.278,533.153 193.617,527.758 186.34,527.325 182.983,521.596 
	187.7,517.235 190.896,512.725 194.405,510.039 188.774,509.489 190.785,499.771 188.06,498.482 184.033,490.46 195.784,494.504 
	188.606,486.926 193.827,481.328 183.768,483.681 189.516,475.373 192.775,476.093 190.942,466.553 189.724,463.817 
	194.207,457.839 193.368,450.971 185.046,452.267 192.582,452.79 196.223,448.725 190.672,440.709 194.479,434.457 189.11,432.119 
	187.224,429.156 190.238,427.338 187.178,416.571 191.078,417.601 188.262,417.565 186.543,411.577 180.991,406.052 
	187.455,401.445 194.8,401.085 192.16,394.493 190.257,392.462 188.015,386.998 178.919,382.945 186.048,376.93 190.948,374.123 
	198.765,371.388 194.952,364.658 185.715,366.188 184.577,359.831 183.965,351.737 193.517,353.583 190.629,348.273 
	189.175,347.326 187.021,341.773 186.364,336.721 186.346,331.009 193.584,330.541 202.817,325.174 190.888,322.505 191.59,314.096 
	190.364,313.609 193.044,314.598 194.732,308.58 193.771,302.057 188.722,301.561 190.495,292.081 180.675,290.507 186.899,285.345 
	189.31,280.048 199.297,278.953 196.45,270.724 192.139,267.328 189.013,267.392 187.928,263.264 195.127,262.756 190.445,255.836 
	193.901,250.163 184.244,252.114 184.51,244.286 184.1,236.327 193.947,238.468 197.071,232.733 188.747,232.209 191.023,222.226 
	187.771,221.175 191.904,221.023 188.067,209.479 203.034,209.629 196.435,201.413 184.966,205.174 184.154,198.068 
	185.611,191.621 194.406,192.708 202.613,186.52 192.253,182.485 183.042,183.988 186.21,174.958 190.699,173.599 190.372,165.565 
	197.867,163.406 196.519,155.109 189.831,154.091 177.342,151.856 183.086,142.878 188.761,140.846 192.529,140.293 
	197.121,131.399 190.687,130.126 177.929,128.747 184.884,121.566 189.236,118.211 199.918,117.19 196.865,108.546 189.942,107.762 
	187.198,105.63 190.555,104.128 189.136,95.002 194.435,94.077 187.846,94.456 188.236,86.358 182.391,82.525 190.472,80.937 
	192.657,75.415 196.242,70.97 187.64,71.553 186.545,64.941 183.594,59.415 185.395,52.75 190.322,49.971 190.089,47.855 
	193.733,42.351 184.356,44.021 185.332,36.304 189.312,33.559 195.434,31.973 189.134,24.746 188.02,24.955 185.493,19.774 
	185.524,12.037 "/>
<polyline class="st0" points="706.512,754.153 710.881,750.828 715.044,747.284 710.283,741.126 715.322,734.713 713.678,728.649 
	704.689,729.576 705.955,722.793 708.974,718.104 712.725,718.019 715.463,711.462 705.162,714.056 707.846,706.465 
	711.973,705.701 713.438,699.459 711.625,694.908 715.564,688.251 711.847,684.262 711.868,683.352 707.691,678.311 
	715.576,678.487 717.942,671.804 712.635,668.07 707.442,665.558 701.363,660.252 713.646,661.156 716.137,655.94 723.17,648.7 
	710.664,646.934 709.292,640.599 697.8,637.146 711.994,636.395 709.923,626.616 712.537,625.582 708.771,625.717 709.048,617.733 
	700.215,614.034 712.385,613.677 714.736,608.322 721.773,602.48 714.744,596.637 708.469,595.204 709.146,590.919 714.048,592.23 
	717.707,588.183 711.885,579.363 717.549,570.722 707.656,572.907 708.739,567.81 707.313,562.388 709.086,556.453 709.324,556.252 
	712.318,552.843 705.291,552.163 705.958,544.702 710.971,542.937 716.164,540.424 719.958,533.153 714.297,527.758 707.02,527.325 
	703.663,521.596 708.38,517.235 711.575,512.725 715.085,510.039 709.454,509.489 711.465,499.771 708.74,498.482 704.713,490.46 
	716.464,494.504 709.285,486.926 714.507,481.328 704.447,483.681 710.195,475.373 713.455,476.093 711.622,466.553 
	710.404,463.817 714.887,457.839 714.048,450.971 705.726,452.267 713.262,452.79 716.902,448.725 711.352,440.709 715.159,434.457 
	709.789,432.119 707.904,429.156 710.918,427.338 707.857,416.571 711.758,417.601 708.941,417.565 707.223,411.577 701.67,406.052 
	708.135,401.445 715.48,401.085 712.84,394.493 710.938,392.462 708.694,386.998 699.599,382.945 706.728,376.93 711.627,374.123 
	719.444,371.388 715.632,364.658 706.395,366.188 705.257,359.831 704.645,351.737 714.197,353.583 711.309,348.273 
	709.855,347.326 707.7,341.773 707.043,336.721 707.025,331.009 714.264,330.541 723.497,325.174 711.567,322.505 712.27,314.096 
	711.043,313.609 713.724,314.598 715.412,308.58 714.45,302.057 709.402,301.561 711.174,292.081 701.354,290.507 707.579,285.345 
	709.989,280.048 719.977,278.953 717.13,270.724 712.818,267.328 709.692,267.392 708.607,263.264 715.807,262.756 711.125,255.836 
	714.581,250.163 704.924,252.114 705.189,244.286 704.779,236.327 714.627,238.468 717.75,232.733 709.426,232.209 711.703,222.226 
	708.451,221.175 712.584,221.023 708.747,209.479 723.713,209.629 717.115,201.413 705.646,205.174 704.834,198.068 
	706.291,191.621 715.086,192.708 723.293,186.52 712.933,182.485 703.723,183.988 706.891,174.958 711.379,173.599 711.051,165.565 
	718.547,163.406 717.199,155.109 710.511,154.091 698.021,151.856 703.766,142.878 709.441,140.846 713.209,140.293 
	717.801,131.399 711.366,130.126 698.609,128.747 705.563,121.566 709.916,118.211 720.598,117.19 717.545,108.546 710.621,107.762 
	707.877,105.63 711.234,104.128 709.815,95.002 715.115,94.077 708.525,94.456 708.916,86.358 703.07,82.525 711.152,80.937 
	713.337,75.415 716.922,70.97 708.319,71.553 707.225,64.941 704.273,59.415 706.074,52.75 711.002,49.971 710.77,47.855 
	714.412,42.351 705.035,44.021 706.012,36.304 709.992,33.559 716.113,31.973 709.814,24.746 708.699,24.955 706.173,19.774 
	706.203,12.037 "/>
</svg>
