<?xml version="1.0" encoding="utf-8"?>
<!-- Generator: Adobe Illustrator 15.0.0, SVG Export Plug-In . SVG Version: 6.00 Build 0)  -->
<!DOCTYPE svg PUBLIC "-//W3C//DTD SVG 1.1//EN" "http://www.w3.org/Graphics/SVG/1.1/DTD/svg11.dtd">
<svg version="1.1" id="Layer_1" xmlns="http://www.w3.org/2000/svg" xmlns:xlink="http://www.w3.org/1999/xlink" x="0px" y="0px"
	 width="1024px" height="768px" viewBox="0 0 1024 768" style="enable-background:new 0 0 1024 768;" xml:space="preserve">
<style type="text/css">
<![CDATA[
	.st0{fill:none;stroke:#FF5F9F;stroke-miterlimit:10;}
]]>
</style>
<polyline class="st0" points="205.848,754.153 210.217,750.828 214.38,747.284 209.619,741.126 214.658,734.713 213.014,728.649 
	204.026,729.576 205.291,722.793 208.31,718.104 212.06,718.019 214.799,711.462 204.499,714.056 207.181,706.465 211.309,705.701 
	212.773,699.459 210.96,694.908 214.9,688.251 211.183,684.262 211.204,683.352 207.028,678.311 214.912,678.487 217.278,671.804 
	211.971,668.07 206.778,665.558 200.7,660.252 212.982,661.156 215.473,655.94 222.506,648.7 210,646.934 208.628,640.599 
	197.136,637.146 211.33,636.395 209.259,626.616 211.873,625.582 208.107,625.717 208.384,617.733 199.55,614.034 211.72,613.677 
	214.073,608.322 221.109,602.48 214.08,596.637 207.805,595.204 208.482,590.919 213.384,592.23 217.043,588.183 211.221,579.363 
	216.885,570.722 206.992,572.907 208.075,567.81 206.649,562.388 208.422,556.453 208.661,556.252 211.654,552.843 204.627,552.163 
	205.294,544.702 210.307,542.937 215.5,540.424 219.294,533.153 213.632,527.758 206.356,527.325 202.999,521.596 207.716,517.235 
	210.911,512.725 214.421,510.039 208.79,509.489 210.801,499.771 208.076,498.482 204.049,490.46 215.8,494.504 208.622,486.926 
	213.843,481.328 203.783,483.681 209.532,475.373 212.791,476.093 210.958,466.553 209.74,463.817 214.223,457.839 213.384,450.971 
	205.062,452.267 212.597,452.79 216.239,448.725 210.688,440.709 214.495,434.457 209.125,432.119 207.24,429.156 210.253,427.338 
	207.194,416.571 211.094,417.601 208.277,417.565 206.559,411.577 201.006,406.052 207.471,401.445 214.816,401.085 
	212.175,394.493 210.273,392.462 208.03,386.998 198.935,382.945 206.063,376.93 210.963,374.123 218.78,371.388 214.968,364.658 
	205.73,366.188 204.593,359.831 203.98,351.737 213.533,353.583 210.645,348.273 209.191,347.326 207.036,341.773 206.379,336.721 
	206.361,331.009 213.6,330.541 222.833,325.174 210.903,322.505 211.605,314.096 210.379,313.609 213.06,314.598 214.748,308.58 
	213.786,302.057 208.738,301.561 210.51,292.081 200.69,290.507 206.915,285.345 209.325,280.048 219.313,278.953 216.466,270.724 
	212.155,267.328 209.028,267.392 207.943,263.264 215.143,262.756 210.46,255.836 213.917,250.163 204.259,252.114 204.526,244.286 
	204.115,236.327 213.963,238.468 217.086,232.733 208.762,232.209 211.039,222.226 207.787,221.175 211.92,221.023 208.083,209.479 
	223.049,209.629 216.451,201.413 204.981,205.174 204.17,198.068 205.627,191.621 214.421,192.708 222.628,186.52 212.269,182.485 
	203.058,183.988 206.226,174.958 210.714,173.599 210.387,165.565 217.882,163.406 216.535,155.109 209.847,154.091 
	197.357,151.856 203.102,142.878 208.777,140.846 212.545,140.293 217.137,131.399 210.702,130.126 197.945,128.747 
	204.899,121.566 209.251,118.211 219.934,117.19 216.88,108.546 209.958,107.762 207.213,105.63 210.57,104.128 209.151,95.002 
	214.451,94.077 207.861,94.456 208.252,86.358 202.407,82.525 210.488,80.937 212.673,75.415 216.257,70.97 207.655,71.553 
	206.561,64.941 203.61,59.415 205.41,52.75 210.338,49.971 210.105,47.855 213.749,42.351 204.372,44.021 205.347,36.304 
	209.328,33.559 215.449,31.973 209.15,24.746 208.036,24.955 205.509,19.774 205.54,12.037 "/>
<polyline class="st0" points="726.527,754.153 730.896,750.828 735.06,747.284 730.299,741.126 735.338,734.713 733.693,728.649 
	724.705,729.576 725.971,722.793 728.989,718.104 732.74,718.019 735.479,711.462 725.178,714.056 727.861,706.465 731.988,705.701 
	733.453,699.459 731.641,694.908 735.58,688.251 731.862,684.262 731.884,683.352 727.707,678.311 735.592,678.487 737.958,671.804 
	732.65,668.07 727.458,665.558 721.379,660.252 733.662,661.156 736.152,655.94 743.186,648.7 730.68,646.934 729.308,640.599 
	717.815,637.146 732.01,636.395 729.938,626.616 732.553,625.582 728.787,625.717 729.063,617.733 720.23,614.034 732.4,613.677 
	734.752,608.322 741.789,602.48 734.76,596.637 728.484,595.204 729.162,590.919 734.063,592.23 737.723,588.183 731.9,579.363 
	737.564,570.722 727.672,572.907 728.755,567.81 727.329,562.388 729.102,556.453 729.34,556.252 732.334,552.843 725.307,552.163 
	725.974,544.702 730.986,542.937 736.18,540.424 739.974,533.153 734.312,527.758 727.035,527.325 723.679,521.596 728.396,517.235 
	731.591,512.725 735.101,510.039 729.47,509.489 731.48,499.771 728.756,498.482 724.729,490.46 736.479,494.504 729.301,486.926 
	734.522,481.328 724.463,483.681 730.211,475.373 733.471,476.093 731.638,466.553 730.42,463.817 734.902,457.839 734.063,450.971 
	725.741,452.267 733.277,452.79 736.918,448.725 731.367,440.709 735.175,434.457 729.805,432.119 727.92,429.156 730.934,427.338 
	727.873,416.571 731.773,417.601 728.957,417.565 727.238,411.577 721.686,406.052 728.15,401.445 735.496,401.085 732.855,394.493 
	730.953,392.462 728.71,386.998 719.614,382.945 726.743,376.93 731.643,374.123 739.46,371.388 735.647,364.658 726.41,366.188 
	725.272,359.831 724.66,351.737 734.213,353.583 731.324,348.273 729.871,347.326 727.716,341.773 727.059,336.721 727.041,331.009 
	734.279,330.541 743.513,325.174 731.583,322.505 732.285,314.096 731.059,313.609 733.739,314.598 735.428,308.58 734.466,302.057 
	729.418,301.561 731.189,292.081 721.37,290.507 727.595,285.345 730.005,280.048 739.992,278.953 737.146,270.724 732.834,267.328 
	729.708,267.392 728.623,263.264 735.822,262.756 731.141,255.836 734.597,250.163 724.939,252.114 725.205,244.286 
	724.795,236.327 734.643,238.468 737.766,232.733 729.441,232.209 731.719,222.226 728.467,221.175 732.6,221.023 728.763,209.479 
	743.729,209.629 737.131,201.413 725.661,205.174 724.85,198.068 726.307,191.621 735.102,192.708 743.309,186.52 732.948,182.485 
	723.738,183.988 726.906,174.958 731.395,173.599 731.066,165.565 738.562,163.406 737.215,155.109 730.526,154.091 
	718.037,151.856 723.781,142.878 729.457,140.846 733.225,140.293 737.816,131.399 731.382,130.126 718.625,128.747 
	725.579,121.566 729.932,118.211 740.613,117.19 737.561,108.546 730.637,107.762 727.893,105.63 731.25,104.128 729.831,95.002 
	735.131,94.077 728.541,94.456 728.932,86.358 723.086,82.525 731.168,80.937 733.353,75.415 736.938,70.97 728.335,71.553 
	727.24,64.941 724.289,59.415 726.09,52.75 731.018,49.971 730.785,47.855 734.428,42.351 725.051,44.021 726.027,36.304 
	730.008,33.559 736.129,31.973 729.83,24.746 728.715,24.955 726.188,19.774 726.219,12.037 "/>
</svg>
