<?xml version="1.0" encoding="utf-8"?>
<!-- Generator: Adobe Illustrator 15.0.0, SVG Export Plug-In . SVG Version: 6.00 Build 0)  -->
<!DOCTYPE svg PUBLIC "-//W3C//DTD SVG 1.1//EN" "http://www.w3.org/Graphics/SVG/1.1/DTD/svg11.dtd">
<svg version="1.1" id="Layer_1" xmlns="http://www.w3.org/2000/svg" xmlns:xlink="http://www.w3.org/1999/xlink" x="0px" y="0px"
	 width="1024px" height="768px" viewBox="0 0 1024 768" style="enable-background:new 0 0 1024 768;" xml:space="preserve">
<style type="text/css">
<![CDATA[
	.st0{fill:none;stroke:#FF5F9F;stroke-miterlimit:10;}
]]>
</style>
<polyline class="st0" points="225.864,754.153 230.233,750.828 234.396,747.284 229.635,741.126 234.673,734.713 233.03,728.649 
	224.042,729.576 225.307,722.793 228.325,718.104 232.076,718.019 234.815,711.462 224.514,714.056 227.197,706.465 
	231.325,705.701 232.789,699.459 230.976,694.908 234.916,688.251 231.198,684.262 231.22,683.352 227.043,678.311 234.928,678.487 
	237.294,671.804 231.987,668.07 226.794,665.558 220.715,660.252 232.998,661.156 235.489,655.94 242.521,648.7 230.016,646.934 
	228.644,640.599 217.151,637.146 231.346,636.395 229.274,626.616 231.889,625.582 228.123,625.717 228.399,617.733 
	219.566,614.034 231.736,613.677 234.088,608.322 241.125,602.48 234.095,596.637 227.82,595.204 228.498,590.919 233.399,592.23 
	237.059,588.183 231.236,579.363 236.901,570.722 227.008,572.907 228.091,567.81 226.665,562.388 228.438,556.453 228.676,556.252 
	231.669,552.843 224.643,552.163 225.31,544.702 230.323,542.937 235.515,540.424 239.31,533.153 233.648,527.758 226.372,527.325 
	223.015,521.596 227.731,517.235 230.927,512.725 234.437,510.039 228.806,509.489 230.816,499.771 228.091,498.482 224.064,490.46 
	235.815,494.504 228.637,486.926 233.858,481.328 223.799,483.681 229.547,475.373 232.806,476.093 230.974,466.553 
	229.755,463.817 234.238,457.839 233.399,450.971 225.077,452.267 232.613,452.79 236.254,448.725 230.703,440.709 234.511,434.457 
	229.141,432.119 227.255,429.156 230.269,427.338 227.209,416.571 231.109,417.601 228.293,417.565 226.574,411.577 
	221.022,406.052 227.486,401.445 234.832,401.085 232.191,394.493 230.289,392.462 228.046,386.998 218.95,382.945 226.079,376.93 
	230.979,374.123 238.796,371.388 234.983,364.658 225.746,366.188 224.608,359.831 223.996,351.737 233.548,353.583 230.66,348.273 
	229.207,347.326 227.052,341.773 226.395,336.721 226.377,331.009 233.616,330.541 242.849,325.174 230.919,322.505 
	231.621,314.096 230.395,313.609 233.075,314.598 234.763,308.58 233.802,302.057 228.753,301.561 230.526,292.081 220.706,290.507 
	226.931,285.345 229.341,280.048 239.329,278.953 236.481,270.724 232.17,267.328 229.044,267.392 227.959,263.264 235.158,262.756 
	230.476,255.836 233.933,250.163 224.275,252.114 224.542,244.286 224.131,236.327 233.979,238.468 237.102,232.733 
	228.778,232.209 231.055,222.226 227.803,221.175 231.936,221.023 228.099,209.479 243.065,209.629 236.466,201.413 
	224.997,205.174 224.186,198.068 225.643,191.621 234.437,192.708 242.644,186.52 232.284,182.485 223.074,183.988 226.242,174.958 
	230.73,173.599 230.403,165.565 237.898,163.406 236.55,155.109 229.862,154.091 217.373,151.856 223.118,142.878 228.792,140.846 
	232.561,140.293 237.152,131.399 230.718,130.126 217.96,128.747 224.915,121.566 229.267,118.211 239.949,117.19 236.896,108.546 
	229.973,107.762 227.229,105.63 230.586,104.128 229.167,95.002 234.466,94.077 227.877,94.456 228.268,86.358 222.422,82.525 
	230.503,80.937 232.688,75.415 236.273,70.97 227.671,71.553 226.576,64.941 223.625,59.415 225.426,52.75 230.354,49.971 
	230.121,47.855 233.764,42.351 224.387,44.021 225.363,36.304 229.343,33.559 235.465,31.973 229.166,24.746 228.051,24.955 
	225.524,19.774 225.555,12.037 "/>
<polyline class="st0" points="746.543,754.153 750.912,750.828 755.075,747.284 750.314,741.126 755.354,734.713 753.709,728.649 
	744.721,729.576 745.986,722.793 749.005,718.104 752.756,718.019 755.494,711.462 745.193,714.056 747.877,706.465 
	752.004,705.701 753.469,699.459 751.656,694.908 755.596,688.251 751.878,684.262 751.899,683.352 747.723,678.311 
	755.607,678.487 757.974,671.804 752.666,668.07 747.474,665.558 741.395,660.252 753.678,661.156 756.168,655.94 763.201,648.7 
	750.695,646.934 749.323,640.599 737.831,637.146 752.025,636.395 749.954,626.616 752.568,625.582 748.803,625.717 
	749.079,617.733 740.246,614.034 752.416,613.677 754.768,608.322 761.805,602.48 754.775,596.637 748.5,595.204 749.178,590.919 
	754.079,592.23 757.738,588.183 751.916,579.363 757.58,570.722 747.688,572.907 748.771,567.81 747.345,562.388 749.117,556.453 
	749.355,556.252 752.35,552.843 745.322,552.163 745.989,544.702 751.002,542.937 756.195,540.424 759.989,533.153 754.328,527.758 
	747.051,527.325 743.694,521.596 748.411,517.235 751.606,512.725 755.116,510.039 749.485,509.489 751.496,499.771 
	748.771,498.482 744.744,490.46 756.495,494.504 749.316,486.926 754.538,481.328 744.479,483.681 750.227,475.373 753.486,476.093 
	751.653,466.553 750.436,463.817 754.918,457.839 754.079,450.971 745.757,452.267 753.293,452.79 756.934,448.725 751.383,440.709 
	755.19,434.457 749.82,432.119 747.936,429.156 750.949,427.338 747.889,416.571 751.789,417.601 748.973,417.565 747.254,411.577 
	741.701,406.052 748.166,401.445 755.512,401.085 752.871,394.493 750.969,392.462 748.726,386.998 739.63,382.945 746.759,376.93 
	751.658,374.123 759.476,371.388 755.663,364.658 746.426,366.188 745.288,359.831 744.676,351.737 754.229,353.583 751.34,348.273 
	749.887,347.326 747.731,341.773 747.074,336.721 747.057,331.009 754.295,330.541 763.528,325.174 751.599,322.505 
	752.301,314.096 751.074,313.609 753.755,314.598 755.443,308.58 754.481,302.057 749.434,301.561 751.205,292.081 741.386,290.507 
	747.61,285.345 750.021,280.048 760.008,278.953 757.161,270.724 752.85,267.328 749.724,267.392 748.639,263.264 755.838,262.756 
	751.156,255.836 754.612,250.163 744.955,252.114 745.221,244.286 744.811,236.327 754.658,238.468 757.781,232.733 
	749.457,232.209 751.734,222.226 748.482,221.175 752.615,221.023 748.778,209.479 763.744,209.629 757.146,201.413 
	745.677,205.174 744.865,198.068 746.322,191.621 755.117,192.708 763.324,186.52 752.964,182.485 743.754,183.988 746.922,174.958 
	751.41,173.599 751.082,165.565 758.578,163.406 757.23,155.109 750.542,154.091 738.053,151.856 743.797,142.878 749.473,140.846 
	753.24,140.293 757.832,131.399 751.397,130.126 738.641,128.747 745.595,121.566 749.947,118.211 760.629,117.19 757.576,108.546 
	750.652,107.762 747.908,105.63 751.266,104.128 749.847,95.002 755.146,94.077 748.557,94.456 748.947,86.358 743.102,82.525 
	751.184,80.937 753.368,75.415 756.953,70.97 748.351,71.553 747.256,64.941 744.305,59.415 746.105,52.75 751.033,49.971 
	750.801,47.855 754.443,42.351 745.066,44.021 746.043,36.304 750.023,33.559 756.145,31.973 749.846,24.746 748.73,24.955 
	746.204,19.774 746.234,12.037 "/>
</svg>
