<?xml version="1.0" encoding="utf-8"?>
<!-- Generator: Adobe Illustrator 15.0.0, SVG Export Plug-In . SVG Version: 6.00 Build 0)  -->
<!DOCTYPE svg PUBLIC "-//W3C//DTD SVG 1.1//EN" "http://www.w3.org/Graphics/SVG/1.1/DTD/svg11.dtd">
<svg version="1.1" id="Layer_1" xmlns="http://www.w3.org/2000/svg" xmlns:xlink="http://www.w3.org/1999/xlink" x="0px" y="0px"
	 width="1024px" height="768px" viewBox="0 0 1024 768" style="enable-background:new 0 0 1024 768;" xml:space="preserve">
<style type="text/css">
<![CDATA[
	.st0{fill:none;stroke:#FF5F9F;stroke-miterlimit:10;}
]]>
</style>
<polyline class="st0" points="235.872,754.153 240.241,750.828 244.403,747.284 239.643,741.126 244.681,734.713 243.038,728.649 
	234.049,729.576 235.314,722.793 238.333,718.104 242.083,718.019 244.823,711.462 234.522,714.056 237.205,706.465 
	241.333,705.701 242.797,699.459 240.984,694.908 244.924,688.251 241.206,684.262 241.228,683.352 237.051,678.311 
	244.936,678.487 247.302,671.804 241.995,668.07 236.802,665.558 230.723,660.252 243.006,661.156 245.497,655.94 252.529,648.7 
	240.023,646.934 238.651,640.599 227.159,637.146 241.354,636.395 239.282,626.616 241.896,625.582 238.13,625.717 238.407,617.733 
	229.574,614.034 241.744,613.677 244.096,608.322 251.133,602.48 244.103,596.637 237.828,595.204 238.506,590.919 243.407,592.23 
	247.066,588.183 241.244,579.363 246.909,570.722 237.016,572.907 238.099,567.81 236.673,562.388 238.445,556.453 238.684,556.252 
	241.677,552.843 234.651,552.163 235.317,544.702 240.331,542.937 245.523,540.424 249.317,533.153 243.656,527.758 
	236.379,527.325 233.022,521.596 237.739,517.235 240.935,512.725 244.444,510.039 238.813,509.489 240.824,499.771 
	238.099,498.482 234.072,490.46 245.823,494.504 238.645,486.926 243.866,481.328 233.807,483.681 239.555,475.373 242.814,476.093 
	240.981,466.553 239.763,463.817 244.246,457.839 243.407,450.971 235.085,452.267 242.621,452.79 246.262,448.725 240.711,440.709 
	244.519,434.457 239.149,432.119 237.263,429.156 240.277,427.338 237.217,416.571 241.117,417.601 238.301,417.565 
	236.582,411.577 231.03,406.052 237.494,401.445 244.839,401.085 242.199,394.493 240.296,392.462 238.054,386.998 228.958,382.945 
	236.087,376.93 240.987,374.123 248.804,371.388 244.991,364.658 235.754,366.188 234.616,359.831 234.004,351.737 243.556,353.583 
	240.668,348.273 239.214,347.326 237.06,341.773 236.403,336.721 236.385,331.009 243.624,330.541 252.856,325.174 240.927,322.505 
	241.629,314.096 240.403,313.609 243.083,314.598 244.771,308.58 243.81,302.057 238.761,301.561 240.534,292.081 230.714,290.507 
	236.938,285.345 239.349,280.048 249.336,278.953 246.489,270.724 242.178,267.328 239.052,267.392 237.967,263.264 
	245.166,262.756 240.484,255.836 243.94,250.163 234.283,252.114 234.549,244.286 234.139,236.327 243.986,238.468 247.11,232.733 
	238.786,232.209 241.062,222.226 237.811,221.175 241.943,221.023 238.106,209.479 253.073,209.629 246.474,201.413 
	235.005,205.174 234.193,198.068 235.65,191.621 244.445,192.708 252.652,186.52 242.292,182.485 233.082,183.988 236.25,174.958 
	240.738,173.599 240.411,165.565 247.906,163.406 246.558,155.109 239.87,154.091 227.381,151.856 233.125,142.878 238.8,140.846 
	242.568,140.293 247.16,131.399 240.726,130.126 227.968,128.747 234.923,121.566 239.275,118.211 249.957,117.19 246.904,108.546 
	239.981,107.762 237.237,105.63 240.594,104.128 239.175,95.002 244.474,94.077 237.885,94.456 238.275,86.358 232.43,82.525 
	240.511,80.937 242.696,75.415 246.281,70.97 237.679,71.553 236.584,64.941 233.633,59.415 235.434,52.75 240.361,49.971 
	240.128,47.855 243.772,42.351 234.395,44.021 235.371,36.304 239.351,33.559 245.473,31.973 239.173,24.746 238.059,24.955 
	235.532,19.774 235.563,12.037 "/>
<polyline class="st0" points="756.551,754.153 760.92,750.828 765.083,747.284 760.322,741.126 765.361,734.713 763.717,728.649 
	754.729,729.576 755.994,722.793 759.013,718.104 762.764,718.019 765.502,711.462 755.201,714.056 757.885,706.465 
	762.012,705.701 763.477,699.459 761.664,694.908 765.604,688.251 761.886,684.262 761.907,683.352 757.73,678.311 765.615,678.487 
	767.981,671.804 762.674,668.07 757.481,665.558 751.402,660.252 763.686,661.156 766.176,655.94 773.209,648.7 760.703,646.934 
	759.331,640.599 747.839,637.146 762.033,636.395 759.962,626.616 762.576,625.582 758.811,625.717 759.087,617.733 
	750.254,614.034 762.424,613.677 764.775,608.322 771.812,602.48 764.783,596.637 758.508,595.204 759.186,590.919 764.087,592.23 
	767.746,588.183 761.924,579.363 767.588,570.722 757.695,572.907 758.778,567.81 757.353,562.388 759.125,556.453 759.363,556.252 
	762.357,552.843 755.33,552.163 755.997,544.702 761.01,542.937 766.203,540.424 769.997,533.153 764.336,527.758 757.059,527.325 
	753.702,521.596 758.419,517.235 761.614,512.725 765.124,510.039 759.493,509.489 761.504,499.771 758.779,498.482 754.752,490.46 
	766.503,494.504 759.324,486.926 764.546,481.328 754.486,483.681 760.234,475.373 763.494,476.093 761.661,466.553 
	760.443,463.817 764.926,457.839 764.087,450.971 755.765,452.267 763.301,452.79 766.941,448.725 761.391,440.709 765.198,434.457 
	759.828,432.119 757.943,429.156 760.957,427.338 757.896,416.571 761.797,417.601 758.98,417.565 757.262,411.577 751.709,406.052 
	758.174,401.445 765.52,401.085 762.879,394.493 760.977,392.462 758.733,386.998 749.638,382.945 756.767,376.93 761.666,374.123 
	769.483,371.388 765.671,364.658 756.434,366.188 755.296,359.831 754.684,351.737 764.236,353.583 761.348,348.273 
	759.895,347.326 757.739,341.773 757.082,336.721 757.064,331.009 764.303,330.541 773.536,325.174 761.606,322.505 
	762.309,314.096 761.082,313.609 763.763,314.598 765.451,308.58 764.489,302.057 759.441,301.561 761.213,292.081 751.394,290.507 
	757.618,285.345 760.028,280.048 770.016,278.953 767.169,270.724 762.857,267.328 759.731,267.392 758.646,263.264 
	765.846,262.756 761.164,255.836 764.62,250.163 754.963,252.114 755.229,244.286 754.818,236.327 764.666,238.468 767.789,232.733 
	759.465,232.209 761.742,222.226 758.49,221.175 762.623,221.023 758.786,209.479 773.752,209.629 767.154,201.413 755.685,205.174 
	754.873,198.068 756.33,191.621 765.125,192.708 773.332,186.52 762.972,182.485 753.762,183.988 756.93,174.958 761.418,173.599 
	761.09,165.565 768.586,163.406 767.238,155.109 760.55,154.091 748.061,151.856 753.805,142.878 759.48,140.846 763.248,140.293 
	767.84,131.399 761.405,130.126 748.648,128.747 755.603,121.566 759.955,118.211 770.637,117.19 767.584,108.546 760.66,107.762 
	757.916,105.63 761.273,104.128 759.854,95.002 765.154,94.077 758.564,94.456 758.955,86.358 753.109,82.525 761.191,80.937 
	763.376,75.415 766.961,70.97 758.358,71.553 757.264,64.941 754.312,59.415 756.113,52.75 761.041,49.971 760.809,47.855 
	764.451,42.351 755.074,44.021 756.051,36.304 760.031,33.559 766.152,31.973 759.854,24.746 758.738,24.955 756.212,19.774 
	756.242,12.037 "/>
</svg>
