<?xml version="1.0" encoding="utf-8"?>
<!-- Generator: Adobe Illustrator 15.0.0, SVG Export Plug-In . SVG Version: 6.00 Build 0)  -->
<!DOCTYPE svg PUBLIC "-//W3C//DTD SVG 1.1//EN" "http://www.w3.org/Graphics/SVG/1.1/DTD/svg11.dtd">
<svg version="1.1" id="Layer_1" xmlns="http://www.w3.org/2000/svg" xmlns:xlink="http://www.w3.org/1999/xlink" x="0px" y="0px"
	 width="1024px" height="768px" viewBox="0 0 1024 768" style="enable-background:new 0 0 1024 768;" xml:space="preserve">
<style type="text/css">
<![CDATA[
	.st0{fill:none;stroke:#FF5F9F;stroke-miterlimit:10;}
]]>
</style>
<polyline class="st0" points="255.887,754.153 260.256,750.828 264.419,747.284 259.658,741.126 264.697,734.713 263.053,728.649 
	254.065,729.576 255.33,722.793 258.349,718.104 262.099,718.019 264.838,711.462 254.538,714.056 257.22,706.465 261.348,705.701 
	262.812,699.459 261,694.908 264.939,688.251 261.222,684.262 261.243,683.352 257.067,678.311 264.951,678.487 267.317,671.804 
	262.01,668.07 256.817,665.558 250.739,660.252 263.021,661.156 265.512,655.94 272.545,648.7 260.039,646.934 258.667,640.599 
	247.175,637.146 261.369,636.395 259.298,626.616 261.912,625.582 258.146,625.717 258.423,617.733 249.589,614.034 
	261.759,613.677 264.112,608.322 271.148,602.48 264.119,596.637 257.844,595.204 258.521,590.919 263.423,592.23 267.082,588.183 
	261.26,579.363 266.924,570.722 257.031,572.907 258.114,567.81 256.688,562.388 258.461,556.453 258.7,556.252 261.693,552.843 
	254.667,552.163 255.333,544.702 260.346,542.937 265.539,540.424 269.333,533.153 263.671,527.758 256.395,527.325 
	253.038,521.596 257.755,517.235 260.95,512.725 264.46,510.039 258.829,509.489 260.84,499.771 258.115,498.482 254.088,490.46 
	265.839,494.504 258.661,486.926 263.882,481.328 253.822,483.681 259.571,475.373 262.83,476.093 260.997,466.553 259.779,463.817 
	264.262,457.839 263.423,450.971 255.101,452.267 262.636,452.79 266.278,448.725 260.727,440.709 264.534,434.457 259.165,432.119 
	257.279,429.156 260.292,427.338 257.233,416.571 261.133,417.601 258.316,417.565 256.598,411.577 251.045,406.052 257.51,401.445 
	264.855,401.085 262.214,394.493 260.312,392.462 258.069,386.998 248.974,382.945 256.103,376.93 261.002,374.123 268.819,371.388 
	265.007,364.658 255.77,366.188 254.632,359.831 254.02,351.737 263.572,353.583 260.684,348.273 259.23,347.326 257.075,341.773 
	256.418,336.721 256.4,331.009 263.639,330.541 272.872,325.174 260.942,322.505 261.645,314.096 260.418,313.609 263.099,314.598 
	264.787,308.58 263.825,302.057 258.777,301.561 260.549,292.081 250.729,290.507 256.954,285.345 259.364,280.048 269.352,278.953 
	266.505,270.724 262.194,267.328 259.067,267.392 257.982,263.264 265.182,262.756 260.5,255.836 263.956,250.163 254.298,252.114 
	254.565,244.286 254.154,236.327 264.002,238.468 267.125,232.733 258.801,232.209 261.078,222.226 257.826,221.175 
	261.959,221.023 258.122,209.479 273.088,209.629 266.49,201.413 255.021,205.174 254.209,198.068 255.666,191.621 264.46,192.708 
	272.667,186.52 262.308,182.485 253.097,183.988 256.265,174.958 260.753,173.599 260.426,165.565 267.921,163.406 266.574,155.109 
	259.886,154.091 247.396,151.856 253.141,142.878 258.816,140.846 262.584,140.293 267.176,131.399 260.741,130.126 
	247.984,128.747 254.938,121.566 259.291,118.211 269.973,117.19 266.919,108.546 259.997,107.762 257.252,105.63 260.609,104.128 
	259.19,95.002 264.49,94.077 257.9,94.456 258.291,86.358 252.446,82.525 260.527,80.937 262.712,75.415 266.296,70.97 
	257.694,71.553 256.6,64.941 253.649,59.415 255.449,52.75 260.377,49.971 260.144,47.855 263.788,42.351 254.411,44.021 
	255.386,36.304 259.367,33.559 265.488,31.973 259.189,24.746 258.075,24.955 255.548,19.774 255.579,12.037 "/>
<polyline class="st0" points="776.566,754.153 780.936,750.828 785.099,747.284 780.338,741.126 785.377,734.713 783.732,728.649 
	774.744,729.576 776.01,722.793 779.028,718.104 782.779,718.019 785.518,711.462 775.217,714.056 777.9,706.465 782.027,705.701 
	783.492,699.459 781.68,694.908 785.619,688.251 781.901,684.262 781.923,683.352 777.746,678.311 785.631,678.487 787.997,671.804 
	782.689,668.07 777.497,665.558 771.418,660.252 783.701,661.156 786.191,655.94 793.225,648.7 780.719,646.934 779.347,640.599 
	767.854,637.146 782.049,636.395 779.978,626.616 782.592,625.582 778.826,625.717 779.103,617.733 770.27,614.034 782.439,613.677 
	784.791,608.322 791.828,602.48 784.799,596.637 778.523,595.204 779.201,590.919 784.103,592.23 787.762,588.183 781.939,579.363 
	787.604,570.722 777.711,572.907 778.794,567.81 777.368,562.388 779.141,556.453 779.379,556.252 782.373,552.843 775.346,552.163 
	776.013,544.702 781.025,542.937 786.219,540.424 790.013,533.153 784.352,527.758 777.074,527.325 773.718,521.596 
	778.435,517.235 781.63,512.725 785.14,510.039 779.509,509.489 781.52,499.771 778.795,498.482 774.768,490.46 786.519,494.504 
	779.34,486.926 784.562,481.328 774.502,483.681 780.25,475.373 783.51,476.093 781.677,466.553 780.459,463.817 784.941,457.839 
	784.103,450.971 775.78,452.267 783.316,452.79 786.957,448.725 781.406,440.709 785.214,434.457 779.844,432.119 777.959,429.156 
	780.973,427.338 777.912,416.571 781.812,417.601 778.996,417.565 777.277,411.577 771.725,406.052 778.189,401.445 
	785.535,401.085 782.895,394.493 780.992,392.462 778.749,386.998 769.653,382.945 776.782,376.93 781.682,374.123 789.499,371.388 
	785.687,364.658 776.449,366.188 775.312,359.831 774.699,351.737 784.252,353.583 781.363,348.273 779.91,347.326 777.755,341.773 
	777.098,336.721 777.08,331.009 784.318,330.541 793.552,325.174 781.622,322.505 782.324,314.096 781.098,313.609 783.778,314.598 
	785.467,308.58 784.505,302.057 779.457,301.561 781.229,292.081 771.409,290.507 777.634,285.345 780.044,280.048 790.031,278.953 
	787.185,270.724 782.873,267.328 779.747,267.392 778.662,263.264 785.861,262.756 781.18,255.836 784.636,250.163 774.979,252.114 
	775.244,244.286 774.834,236.327 784.682,238.468 787.805,232.733 779.48,232.209 781.758,222.226 778.506,221.175 782.639,221.023 
	778.802,209.479 793.768,209.629 787.17,201.413 775.7,205.174 774.889,198.068 776.346,191.621 785.141,192.708 793.348,186.52 
	782.987,182.485 773.777,183.988 776.945,174.958 781.434,173.599 781.105,165.565 788.602,163.406 787.254,155.109 
	780.565,154.091 768.076,151.856 773.82,142.878 779.496,140.846 783.264,140.293 787.855,131.399 781.421,130.126 768.664,128.747 
	775.618,121.566 779.971,118.211 790.652,117.19 787.6,108.546 780.676,107.762 777.932,105.63 781.289,104.128 779.87,95.002 
	785.17,94.077 778.58,94.456 778.971,86.358 773.125,82.525 781.207,80.937 783.392,75.415 786.977,70.97 778.374,71.553 
	777.279,64.941 774.328,59.415 776.129,52.75 781.057,49.971 780.824,47.855 784.467,42.351 775.09,44.021 776.066,36.304 
	780.047,33.559 786.168,31.973 779.869,24.746 778.754,24.955 776.228,19.774 776.258,12.037 "/>
</svg>
