<?xml version="1.0" encoding="utf-8"?>
<!-- Generator: Adobe Illustrator 15.0.0, SVG Export Plug-In . SVG Version: 6.00 Build 0)  -->
<!DOCTYPE svg PUBLIC "-//W3C//DTD SVG 1.1//EN" "http://www.w3.org/Graphics/SVG/1.1/DTD/svg11.dtd">
<svg version="1.1" id="Layer_1" xmlns="http://www.w3.org/2000/svg" xmlns:xlink="http://www.w3.org/1999/xlink" x="0px" y="0px"
	 width="1024px" height="768px" viewBox="0 0 1024 768" style="enable-background:new 0 0 1024 768;" xml:space="preserve">
<style type="text/css">
<![CDATA[
	.st0{fill:none;stroke:#FF5F9F;stroke-miterlimit:10;}
]]>
</style>
<polyline class="st0" points="265.895,754.153 270.264,750.828 274.427,747.284 269.666,741.126 274.705,734.713 273.061,728.649 
	264.073,729.576 265.338,722.793 268.356,718.104 272.107,718.019 274.846,711.462 264.545,714.056 267.228,706.465 
	271.356,705.701 272.82,699.459 271.007,694.908 274.947,688.251 271.229,684.262 271.251,683.352 267.075,678.311 274.959,678.487 
	277.325,671.804 272.018,668.07 266.825,665.558 260.747,660.252 273.029,661.156 275.52,655.94 282.553,648.7 270.047,646.934 
	268.675,640.599 257.183,637.146 271.377,636.395 269.306,626.616 271.92,625.582 268.154,625.717 268.431,617.733 259.597,614.034 
	271.767,613.677 274.12,608.322 281.156,602.48 274.126,596.637 267.852,595.204 268.529,590.919 273.431,592.23 277.09,588.183 
	271.268,579.363 276.932,570.722 267.039,572.907 268.122,567.81 266.696,562.388 268.469,556.453 268.708,556.252 271.701,552.843 
	264.674,552.163 265.341,544.702 270.354,542.937 275.546,540.424 279.341,533.153 273.679,527.758 266.403,527.325 
	263.046,521.596 267.763,517.235 270.958,512.725 274.468,510.039 268.837,509.489 270.848,499.771 268.123,498.482 264.096,490.46 
	275.847,494.504 268.668,486.926 273.89,481.328 263.83,483.681 269.579,475.373 272.837,476.093 271.005,466.553 269.787,463.817 
	274.27,457.839 273.431,450.971 265.108,452.267 272.644,452.79 276.286,448.725 270.734,440.709 274.542,434.457 269.172,432.119 
	267.287,429.156 270.3,427.338 267.241,416.571 271.141,417.601 268.324,417.565 266.605,411.577 261.053,406.052 267.518,401.445 
	274.863,401.085 272.222,394.493 270.32,392.462 268.077,386.998 258.981,382.945 266.11,376.93 271.01,374.123 278.827,371.388 
	275.015,364.658 265.777,366.188 264.64,359.831 264.027,351.737 273.58,353.583 270.691,348.273 269.238,347.326 267.083,341.773 
	266.426,336.721 266.408,331.009 273.647,330.541 282.88,325.174 270.95,322.505 271.652,314.096 270.426,313.609 273.106,314.598 
	274.794,308.58 273.833,302.057 268.785,301.561 270.557,292.081 260.737,290.507 266.962,285.345 269.372,280.048 279.36,278.953 
	276.513,270.724 272.202,267.328 269.075,267.392 267.99,263.264 275.189,262.756 270.507,255.836 273.964,250.163 264.306,252.114 
	264.573,244.286 264.162,236.327 274.01,238.468 277.133,232.733 268.809,232.209 271.086,222.226 267.834,221.175 271.967,221.023 
	268.13,209.479 283.096,209.629 276.498,201.413 265.028,205.174 264.217,198.068 265.674,191.621 274.468,192.708 282.675,186.52 
	272.315,182.485 263.105,183.988 266.273,174.958 270.761,173.599 270.434,165.565 277.929,163.406 276.582,155.109 
	269.894,154.091 257.404,151.856 263.149,142.878 268.824,140.846 272.592,140.293 277.184,131.399 270.749,130.126 
	257.992,128.747 264.946,121.566 269.298,118.211 279.98,117.19 276.927,108.546 270.004,107.762 267.26,105.63 270.617,104.128 
	269.198,95.002 274.498,94.077 267.908,94.456 268.299,86.358 262.454,82.525 270.535,80.937 272.72,75.415 276.304,70.97 
	267.702,71.553 266.607,64.941 263.657,59.415 265.457,52.75 270.385,49.971 270.152,47.855 273.795,42.351 264.418,44.021 
	265.394,36.304 269.375,33.559 275.496,31.973 269.197,24.746 268.083,24.955 265.556,19.774 265.586,12.037 "/>
<polyline class="st0" points="786.574,754.153 790.943,750.828 795.106,747.284 790.346,741.126 795.385,734.713 793.74,728.649 
	784.752,729.576 786.018,722.793 789.036,718.104 792.787,718.019 795.525,711.462 785.225,714.056 787.908,706.465 
	792.035,705.701 793.5,699.459 791.688,694.908 795.627,688.251 791.909,684.262 791.931,683.352 787.754,678.311 795.639,678.487 
	798.005,671.804 792.697,668.07 787.505,665.558 781.426,660.252 793.709,661.156 796.199,655.94 803.232,648.7 790.727,646.934 
	789.354,640.599 777.862,637.146 792.057,636.395 789.985,626.616 792.6,625.582 788.834,625.717 789.11,617.733 780.277,614.034 
	792.447,613.677 794.799,608.322 801.836,602.48 794.807,596.637 788.531,595.204 789.209,590.919 794.11,592.23 797.77,588.183 
	791.947,579.363 797.611,570.722 787.719,572.907 788.802,567.81 787.376,562.388 789.148,556.453 789.387,556.252 792.381,552.843 
	785.354,552.163 786.021,544.702 791.033,542.937 796.227,540.424 800.021,533.153 794.359,527.758 787.082,527.325 
	783.726,521.596 788.442,517.235 791.638,512.725 795.147,510.039 789.517,509.489 791.527,499.771 788.803,498.482 784.775,490.46 
	796.526,494.504 789.348,486.926 794.569,481.328 784.51,483.681 790.258,475.373 793.518,476.093 791.685,466.553 790.467,463.817 
	794.949,457.839 794.11,450.971 785.788,452.267 793.324,452.79 796.965,448.725 791.414,440.709 795.222,434.457 789.852,432.119 
	787.967,429.156 790.98,427.338 787.92,416.571 791.82,417.601 789.004,417.565 787.285,411.577 781.732,406.052 788.197,401.445 
	795.543,401.085 792.902,394.493 791,392.462 788.757,386.998 779.661,382.945 786.79,376.93 791.689,374.123 799.507,371.388 
	795.694,364.658 786.457,366.188 785.319,359.831 784.707,351.737 794.26,353.583 791.371,348.273 789.918,347.326 787.763,341.773 
	787.105,336.721 787.088,331.009 794.326,330.541 803.56,325.174 791.63,322.505 792.332,314.096 791.105,313.609 793.786,314.598 
	795.475,308.58 794.513,302.057 789.465,301.561 791.236,292.081 781.417,290.507 787.642,285.345 790.052,280.048 800.039,278.953 
	797.192,270.724 792.881,267.328 789.755,267.392 788.67,263.264 795.869,262.756 791.188,255.836 794.644,250.163 784.986,252.114 
	785.252,244.286 784.842,236.327 794.689,238.468 797.812,232.733 789.488,232.209 791.766,222.226 788.514,221.175 
	792.646,221.023 788.81,209.479 803.775,209.629 797.178,201.413 785.708,205.174 784.896,198.068 786.354,191.621 795.148,192.708 
	803.355,186.52 792.995,182.485 783.785,183.988 786.953,174.958 791.441,173.599 791.113,165.565 798.609,163.406 797.262,155.109 
	790.573,154.091 778.084,151.856 783.828,142.878 789.504,140.846 793.271,140.293 797.863,131.399 791.429,130.126 
	778.672,128.747 785.626,121.566 789.979,118.211 800.66,117.19 797.607,108.546 790.684,107.762 787.939,105.63 791.297,104.128 
	789.878,95.002 795.178,94.077 788.588,94.456 788.979,86.358 783.133,82.525 791.215,80.937 793.399,75.415 796.984,70.97 
	788.382,71.553 787.287,64.941 784.336,59.415 786.137,52.75 791.064,49.971 790.832,47.855 794.475,42.351 785.098,44.021 
	786.074,36.304 790.055,33.559 796.176,31.973 789.877,24.746 788.762,24.955 786.235,19.774 786.266,12.037 "/>
</svg>
