<?xml version="1.0" encoding="utf-8"?>
<!-- Generator: Adobe Illustrator 15.0.0, SVG Export Plug-In . SVG Version: 6.00 Build 0)  -->
<!DOCTYPE svg PUBLIC "-//W3C//DTD SVG 1.1//EN" "http://www.w3.org/Graphics/SVG/1.1/DTD/svg11.dtd">
<svg version="1.1" id="Layer_1" xmlns="http://www.w3.org/2000/svg" xmlns:xlink="http://www.w3.org/1999/xlink" x="0px" y="0px"
	 width="1024px" height="768px" viewBox="0 0 1024 768" style="enable-background:new 0 0 1024 768;" xml:space="preserve">
<style type="text/css">
<![CDATA[
	.st0{fill:none;stroke:#FF5F9F;stroke-miterlimit:10;}
]]>
</style>
<polyline class="st0" points="275.903,754.153 280.272,750.828 284.435,747.284 279.674,741.126 284.712,734.713 283.069,728.649 
	274.081,729.576 275.346,722.793 278.364,718.104 282.115,718.019 284.854,711.462 274.553,714.056 277.236,706.465 
	281.364,705.701 282.828,699.459 281.015,694.908 284.955,688.251 281.237,684.262 281.259,683.352 277.083,678.311 
	284.967,678.487 287.333,671.804 282.026,668.07 276.833,665.558 270.754,660.252 283.037,661.156 285.528,655.94 292.561,648.7 
	280.055,646.934 278.683,640.599 267.19,637.146 281.385,636.395 279.313,626.616 281.928,625.582 278.162,625.717 278.438,617.733 
	269.605,614.034 281.775,613.677 284.127,608.322 291.164,602.48 284.134,596.637 277.859,595.204 278.537,590.919 283.438,592.23 
	287.098,588.183 281.275,579.363 286.94,570.722 277.047,572.907 278.13,567.81 276.704,562.388 278.477,556.453 278.715,556.252 
	281.708,552.843 274.682,552.163 275.349,544.702 280.362,542.937 285.554,540.424 289.349,533.153 283.687,527.758 
	276.411,527.325 273.054,521.596 277.771,517.235 280.966,512.725 284.476,510.039 278.845,509.489 280.855,499.771 278.13,498.482 
	274.104,490.46 285.854,494.504 278.676,486.926 283.897,481.328 273.838,483.681 279.586,475.373 282.845,476.093 281.013,466.553 
	279.794,463.817 284.277,457.839 283.438,450.971 275.116,452.267 282.652,452.79 286.293,448.725 280.742,440.709 284.55,434.457 
	279.18,432.119 277.294,429.156 280.308,427.338 277.249,416.571 281.148,417.601 278.332,417.565 276.613,411.577 271.061,406.052 
	277.525,401.445 284.871,401.085 282.23,394.493 280.328,392.462 278.085,386.998 268.989,382.945 276.118,376.93 281.018,374.123 
	288.835,371.388 285.022,364.658 275.785,366.188 274.647,359.831 274.035,351.737 283.587,353.583 280.699,348.273 
	279.246,347.326 277.091,341.773 276.434,336.721 276.416,331.009 283.655,330.541 292.888,325.174 280.958,322.505 281.66,314.096 
	280.434,313.609 283.114,314.598 284.802,308.58 283.841,302.057 278.792,301.561 280.565,292.081 270.745,290.507 276.97,285.345 
	279.38,280.048 289.368,278.953 286.521,270.724 282.209,267.328 279.083,267.392 277.998,263.264 285.197,262.756 280.515,255.836 
	283.972,250.163 274.314,252.114 274.581,244.286 274.17,236.327 284.018,238.468 287.141,232.733 278.817,232.209 281.094,222.226 
	277.842,221.175 281.975,221.023 278.138,209.479 293.104,209.629 286.505,201.413 275.036,205.174 274.225,198.068 
	275.682,191.621 284.476,192.708 292.683,186.52 282.323,182.485 273.113,183.988 276.281,174.958 280.769,173.599 280.442,165.565 
	287.937,163.406 286.589,155.109 279.901,154.091 267.412,151.856 273.157,142.878 278.832,140.846 282.6,140.293 287.191,131.399 
	280.757,130.126 268,128.747 274.954,121.566 279.306,118.211 289.988,117.19 286.935,108.546 280.012,107.762 277.268,105.63 
	280.625,104.128 279.206,95.002 284.505,94.077 277.916,94.456 278.307,86.358 272.461,82.525 280.542,80.937 282.728,75.415 
	286.312,70.97 277.71,71.553 276.615,64.941 273.665,59.415 275.465,52.75 280.393,49.971 280.16,47.855 283.803,42.351 
	274.426,44.021 275.402,36.304 279.382,33.559 285.504,31.973 279.205,24.746 278.09,24.955 275.563,19.774 275.594,12.037 "/>
<polyline class="st0" points="796.582,754.153 800.951,750.828 805.114,747.284 800.354,741.126 805.393,734.713 803.748,728.649 
	794.76,729.576 796.025,722.793 799.044,718.104 802.795,718.019 805.533,711.462 795.232,714.056 797.916,706.465 802.043,705.701 
	803.508,699.459 801.695,694.908 805.635,688.251 801.917,684.262 801.938,683.352 797.762,678.311 805.646,678.487 
	808.013,671.804 802.705,668.07 797.513,665.558 791.434,660.252 803.717,661.156 806.207,655.94 813.24,648.7 800.734,646.934 
	799.362,640.599 787.87,637.146 802.064,636.395 799.993,626.616 802.607,625.582 798.842,625.717 799.118,617.733 790.285,614.034 
	802.455,613.677 804.807,608.322 811.844,602.48 804.814,596.637 798.539,595.204 799.217,590.919 804.118,592.23 807.777,588.183 
	801.955,579.363 807.619,570.722 797.727,572.907 798.81,567.81 797.384,562.388 799.156,556.453 799.395,556.252 802.389,552.843 
	795.361,552.163 796.028,544.702 801.041,542.937 806.234,540.424 810.028,533.153 804.367,527.758 797.09,527.325 793.733,521.596 
	798.45,517.235 801.646,512.725 805.155,510.039 799.524,509.489 801.535,499.771 798.811,498.482 794.783,490.46 806.534,494.504 
	799.355,486.926 804.577,481.328 794.518,483.681 800.266,475.373 803.525,476.093 801.692,466.553 800.475,463.817 
	804.957,457.839 804.118,450.971 795.796,452.267 803.332,452.79 806.973,448.725 801.422,440.709 805.229,434.457 799.859,432.119 
	797.975,429.156 800.988,427.338 797.928,416.571 801.828,417.601 799.012,417.565 797.293,411.577 791.74,406.052 798.205,401.445 
	805.551,401.085 802.91,394.493 801.008,392.462 798.765,386.998 789.669,382.945 796.798,376.93 801.697,374.123 809.515,371.388 
	805.702,364.658 796.465,366.188 795.327,359.831 794.715,351.737 804.268,353.583 801.379,348.273 799.926,347.326 
	797.771,341.773 797.113,336.721 797.096,331.009 804.334,330.541 813.567,325.174 801.638,322.505 802.34,314.096 801.113,313.609 
	803.794,314.598 805.482,308.58 804.521,302.057 799.473,301.561 801.244,292.081 791.425,290.507 797.649,285.345 800.06,280.048 
	810.047,278.953 807.2,270.724 802.889,267.328 799.763,267.392 798.678,263.264 805.877,262.756 801.195,255.836 804.651,250.163 
	794.994,252.114 795.26,244.286 794.85,236.327 804.697,238.468 807.82,232.733 799.496,232.209 801.773,222.226 798.521,221.175 
	802.654,221.023 798.817,209.479 813.783,209.629 807.186,201.413 795.716,205.174 794.904,198.068 796.361,191.621 
	805.156,192.708 813.363,186.52 803.003,182.485 793.793,183.988 796.961,174.958 801.449,173.599 801.121,165.565 808.617,163.406 
	807.27,155.109 800.581,154.091 788.092,151.856 793.836,142.878 799.512,140.846 803.279,140.293 807.871,131.399 801.437,130.126 
	788.68,128.747 795.634,121.566 799.986,118.211 810.668,117.19 807.615,108.546 800.691,107.762 797.947,105.63 801.305,104.128 
	799.886,95.002 805.186,94.077 798.596,94.456 798.986,86.358 793.141,82.525 801.223,80.937 803.407,75.415 806.992,70.97 
	798.39,71.553 797.295,64.941 794.344,59.415 796.145,52.75 801.072,49.971 800.84,47.855 804.482,42.351 795.105,44.021 
	796.082,36.304 800.062,33.559 806.184,31.973 799.885,24.746 798.77,24.955 796.243,19.774 796.273,12.037 "/>
</svg>
