<?xml version="1.0" encoding="utf-8"?>
<!-- Generator: Adobe Illustrator 15.0.0, SVG Export Plug-In . SVG Version: 6.00 Build 0)  -->
<!DOCTYPE svg PUBLIC "-//W3C//DTD SVG 1.1//EN" "http://www.w3.org/Graphics/SVG/1.1/DTD/svg11.dtd">
<svg version="1.1" id="Layer_1" xmlns="http://www.w3.org/2000/svg" xmlns:xlink="http://www.w3.org/1999/xlink" x="0px" y="0px"
	 width="1024px" height="768px" viewBox="0 0 1024 768" style="enable-background:new 0 0 1024 768;" xml:space="preserve">
<style type="text/css">
<![CDATA[
	.st0{fill:none;stroke:#FF5F9F;stroke-miterlimit:10;}
]]>
</style>
<polyline class="st0" points="295.918,754.153 300.288,750.828 304.45,747.284 299.689,741.126 304.728,734.713 303.084,728.649 
	294.096,729.576 295.361,722.793 298.38,718.104 302.13,718.019 304.87,711.462 294.569,714.056 297.251,706.465 301.379,705.701 
	302.844,699.459 301.031,694.908 304.971,688.251 301.253,684.262 301.274,683.352 297.098,678.311 304.982,678.487 
	307.349,671.804 302.042,668.07 296.849,665.558 290.77,660.252 303.053,661.156 305.543,655.94 312.576,648.7 300.07,646.934 
	298.698,640.599 287.206,637.146 301.4,636.395 299.329,626.616 301.943,625.582 298.177,625.717 298.454,617.733 289.621,614.034 
	301.791,613.677 304.143,608.322 311.18,602.48 304.15,596.637 297.875,595.204 298.553,590.919 303.454,592.23 307.113,588.183 
	301.291,579.363 306.956,570.722 297.062,572.907 298.146,567.81 296.72,562.388 298.492,556.453 298.731,556.252 301.724,552.843 
	294.698,552.163 295.364,544.702 300.377,542.937 305.57,540.424 309.364,533.153 303.703,527.758 296.426,527.325 293.069,521.596 
	297.786,517.235 300.981,512.725 304.491,510.039 298.86,509.489 300.871,499.771 298.146,498.482 294.119,490.46 305.87,494.504 
	298.692,486.926 303.913,481.328 293.854,483.681 299.602,475.373 302.861,476.093 301.028,466.553 299.81,463.817 304.293,457.839 
	303.454,450.971 295.132,452.267 302.667,452.79 306.309,448.725 300.758,440.709 304.565,434.457 299.196,432.119 297.31,429.156 
	300.324,427.338 297.264,416.571 301.164,417.601 298.348,417.565 296.629,411.577 291.077,406.052 297.541,401.445 
	304.886,401.085 302.246,394.493 300.343,392.462 298.101,386.998 289.005,382.945 296.134,376.93 301.034,374.123 308.851,371.388 
	305.038,364.658 295.801,366.188 294.663,359.831 294.051,351.737 303.603,353.583 300.715,348.273 299.261,347.326 
	297.106,341.773 296.45,336.721 296.432,331.009 303.67,330.541 312.903,325.174 300.974,322.505 301.676,314.096 300.45,313.609 
	303.13,314.598 304.818,308.58 303.856,302.057 298.808,301.561 300.581,292.081 290.761,290.507 296.985,285.345 299.396,280.048 
	309.383,278.953 306.536,270.724 302.225,267.328 299.099,267.392 298.014,263.264 305.213,262.756 300.531,255.836 
	303.987,250.163 294.33,252.114 294.596,244.286 294.186,236.327 304.033,238.468 307.157,232.733 298.833,232.209 301.109,222.226 
	297.857,221.175 301.99,221.023 298.153,209.479 313.12,209.629 306.521,201.413 295.052,205.174 294.24,198.068 295.697,191.621 
	304.492,192.708 312.699,186.52 302.339,182.485 293.128,183.988 296.296,174.958 300.785,173.599 300.458,165.565 307.953,163.406 
	306.605,155.109 299.917,154.091 287.428,151.856 293.172,142.878 298.847,140.846 302.615,140.293 307.207,131.399 
	300.772,130.126 288.015,128.747 294.97,121.566 299.322,118.211 310.004,117.19 306.951,108.546 300.028,107.762 297.284,105.63 
	300.641,104.128 299.222,95.002 304.521,94.077 297.932,94.456 298.322,86.358 292.477,82.525 300.558,80.937 302.743,75.415 
	306.328,70.97 297.726,71.553 296.631,64.941 293.68,59.415 295.48,52.75 300.408,49.971 300.175,47.855 303.819,42.351 
	294.442,44.021 295.417,36.304 299.398,33.559 305.52,31.973 299.22,24.746 298.106,24.955 295.579,19.774 295.61,12.037 "/>
<polyline class="st0" points="816.598,754.153 820.967,750.828 825.13,747.284 820.369,741.126 825.408,734.713 823.764,728.649 
	814.775,729.576 816.041,722.793 819.06,718.104 822.811,718.019 825.549,711.462 815.248,714.056 817.932,706.465 822.059,705.701 
	823.523,699.459 821.711,694.908 825.65,688.251 821.933,684.262 821.954,683.352 817.777,678.311 825.662,678.487 828.028,671.804 
	822.721,668.07 817.528,665.558 811.449,660.252 823.732,661.156 826.223,655.94 833.256,648.7 820.75,646.934 819.378,640.599 
	807.886,637.146 822.08,636.395 820.009,626.616 822.623,625.582 818.857,625.717 819.134,617.733 810.301,614.034 822.471,613.677 
	824.822,608.322 831.859,602.48 824.83,596.637 818.555,595.204 819.232,590.919 824.134,592.23 827.793,588.183 821.971,579.363 
	827.635,570.722 817.742,572.907 818.825,567.81 817.399,562.388 819.172,556.453 819.41,556.252 822.404,552.843 815.377,552.163 
	816.044,544.702 821.057,542.937 826.25,540.424 830.044,533.153 824.383,527.758 817.105,527.325 813.749,521.596 818.466,517.235 
	821.661,512.725 825.171,510.039 819.54,509.489 821.551,499.771 818.826,498.482 814.799,490.46 826.55,494.504 819.371,486.926 
	824.593,481.328 814.533,483.681 820.281,475.373 823.541,476.093 821.708,466.553 820.49,463.817 824.973,457.839 824.134,450.971 
	815.812,452.267 823.348,452.79 826.988,448.725 821.438,440.709 825.245,434.457 819.875,432.119 817.99,429.156 821.004,427.338 
	817.943,416.571 821.844,417.601 819.027,417.565 817.309,411.577 811.756,406.052 818.221,401.445 825.566,401.085 
	822.926,394.493 821.023,392.462 818.78,386.998 809.685,382.945 816.813,376.93 821.713,374.123 829.53,371.388 825.718,364.658 
	816.48,366.188 815.343,359.831 814.73,351.737 824.283,353.583 821.395,348.273 819.941,347.326 817.786,341.773 817.129,336.721 
	817.111,331.009 824.35,330.541 833.583,325.174 821.653,322.505 822.355,314.096 821.129,313.609 823.81,314.598 825.498,308.58 
	824.536,302.057 819.488,301.561 821.26,292.081 811.44,290.507 817.665,285.345 820.075,280.048 830.062,278.953 827.216,270.724 
	822.904,267.328 819.778,267.392 818.693,263.264 825.893,262.756 821.211,255.836 824.667,250.163 815.01,252.114 815.275,244.286 
	814.865,236.327 824.713,238.468 827.836,232.733 819.512,232.209 821.789,222.226 818.537,221.175 822.67,221.023 818.833,209.479 
	833.799,209.629 827.201,201.413 815.731,205.174 814.92,198.068 816.377,191.621 825.172,192.708 833.379,186.52 823.019,182.485 
	813.809,183.988 816.977,174.958 821.465,173.599 821.137,165.565 828.633,163.406 827.285,155.109 820.597,154.091 
	808.107,151.856 813.852,142.878 819.527,140.846 823.295,140.293 827.887,131.399 821.452,130.126 808.695,128.747 
	815.649,121.566 820.002,118.211 830.684,117.19 827.631,108.546 820.707,107.762 817.963,105.63 821.32,104.128 819.901,95.002 
	825.201,94.077 818.611,94.456 819.002,86.358 813.156,82.525 821.238,80.937 823.423,75.415 827.008,70.97 818.405,71.553 
	817.311,64.941 814.359,59.415 816.16,52.75 821.088,49.971 820.855,47.855 824.498,42.351 815.121,44.021 816.098,36.304 
	820.078,33.559 826.199,31.973 819.9,24.746 818.785,24.955 816.259,19.774 816.289,12.037 "/>
<g>
	<polyline class="st0" points="415.279,754.83 416.911,753.955 414.137,747.286 420.522,752.553 422.02,751.409 421.452,747.93 
		422.022,747.189 423.1,744.982 425.357,740.777 419.82,742.597 424.273,741.244 417.959,738.088 418.91,736.241 425.213,738.597 
		417.356,733.488 428.58,731.189 415.562,732.547 421.042,729.783 420.224,729.699 418.25,728.139 417.234,735.906 415.321,734.996 
		412.088,730.145 420.17,728.587 410.843,724.507 419.109,724.622 411.802,719.036 420.607,722.493 416.425,716.666 
		419.233,723.865 419.799,716.222 417.086,714.473 421.991,714.598 416.57,710.405 425.494,709.288 423.256,718.325 
		420.176,714.794 418.237,715.785 413.808,706.907 408.294,719.253 415.668,712.723 412.473,709.459 413.63,707.73 419.015,709.962 
		417.946,704.919 421.566,707.092 419.277,703.286 423.021,701.968 419.639,699.656 426.938,694.731 418.294,694.878 
		425.639,696.076 417.013,688.725 417.685,686.873 416.962,688.826 417.902,691.281 422.19,684.798 416.035,686.472 
		417.569,684.701 418.067,682.222 420.05,677.744 419.666,679.62 417.755,685.478 419.886,678.282 421.906,676.232 426.497,682.699 
		421.93,675.939 421.003,673.731 426.391,673.756 422.422,673.324 420.25,676.5 420.172,672.85 419.96,669.629 417.582,670.492 
		420.173,660.72 414.959,666.663 413.592,664.907 409.639,666.369 414.75,657.441 411.362,661.024 411.407,663.835 413.775,659.613 
		415.377,665.792 417.642,662.984 419.555,665 425.195,667.141 428.468,662.16 417.713,654.889 430.436,660.184 429.93,658.51 
		426.271,652.147 430.313,653.26 432.924,652.978 435.071,647.295 428.778,652.396 427.078,649.395 425.761,643.67 422.932,648.651 
		420.59,650.158 423.644,641.931 414.424,645.698 424.832,641.232 422.034,636.639 416.574,636.889 414.155,637.996 
		413.114,634.526 410.383,636.66 407.16,640.423 406.127,637.157 407.828,632.376 410.467,643.879 412.214,638.463 413.877,631.464 
		416.012,633.372 418.125,634.8 415.336,632.541 413.746,635.729 415.171,633.386 418.891,630.557 419.949,628.286 423.058,630.206 
		426.447,629.859 418.952,626.915 417.264,625.49 414.106,623.619 422.712,621.921 411.815,619.543 414.169,619.673 413.849,621.02 
		411.954,620.601 412.087,615.322 412.414,609.577 409.873,614.482 410.611,618.047 412.331,607.542 414.458,610.847 
		416.601,614.695 418.604,613.679 417.432,608.782 419.792,611.178 416.624,607.656 427.032,611.321 422.283,604.611 
		425.847,606.047 426.85,604.392 432.012,607.74 425.633,602.472 424.925,605.759 427.115,600.271 428.709,595.493 421.622,601.154 
		423.138,596.336 420.928,596.067 418.651,596.395 420.06,592.97 420.896,593.668 416.996,590.454 418.813,592.167 419.412,596.477 
		422.536,592.968 427.97,594.906 424.467,589.286 425.155,588.168 421.702,588.462 421.1,586.334 420.461,584.223 415.585,584.905 
		426.24,579.303 419.666,576.586 426.183,578.392 425.433,575.43 421.122,570.129 419.699,574.689 422.721,566.162 421.943,572.028 
		419.985,572.553 418.254,574.12 416.015,572.771 410.174,569.915 414.96,569.155 421.038,567.679 412.054,567.178 418.129,563.647 
		421.972,562.582 420.875,561.821 413.47,557.454 417.814,556.635 421.214,559.562 421.773,556.917 424.076,552.365 418.854,552.3 
		416.454,558.779 414.592,559.678 415.071,550.965 408.868,549.87 407.711,547.887 410.49,546.253 418.14,547.641 415.52,543.091 
		418.803,547.077 422.062,549.708 418.877,537.812 420.146,536.017 420.5,536.469 424.4,538.108 424.523,535.861 424.837,533.709 
		433.478,532.385 426.435,532.189 425.962,529.853 422.815,530.316 421.145,530.87 420.341,534.266 418.706,531.055 
		417.072,527.808 412.101,531.947 417.585,523.406 411.316,524.515 409.75,521.306 417.548,524.537 419.914,523.941 
		420.128,520.354 418.254,516.128 422.409,516.812 419.524,512.424 425.623,516.662 421.338,510.196 420.892,515.704 
		419.998,505.449 422.474,506.178 424.644,508.9 414.652,504.808 415.096,502.874 412.552,500.317 425.464,497.642 416.089,503.916 
		420.819,495.061 409.725,499.621 417.319,493.301 411.031,493.943 407.988,486.924 416.005,487.98 418.841,486.104 417.14,497.409 
		419.359,497.324 423.24,492.418 424.155,494.151 424.502,491.833 416.916,496.151 421.917,488.539 418.623,488.778 
		422.984,486.671 417.261,484.058 421.81,485.684 419.256,480.682 427.842,477.492 422.025,487.253 418.083,479.464 
		417.447,485.811 413.838,479.468 412.839,483.579 415.394,483.09 413.946,479.638 422.034,482.776 420.329,479.136 
		420.063,478.816 421.334,470.041 416.169,471.567 415.727,475.266 427.325,471.063 420.716,470.354 420.698,468.376 
		419.789,466.582 424.891,463.67 422.857,464.638 426.035,464.688 425.731,462.121 422.276,457.646 421.996,455.657 
		417.314,453.905 419.69,454.099 419.172,444.554 417.658,448.508 416.442,454.392 415.6,452.992 415.769,453.661 417.964,449.316 
		419.24,458.234 422.134,454.362 418.361,447.526 427.238,453.033 420.869,448.572 423.045,447.816 424.318,444.568 
		424.527,442.051 424.924,439.399 412.495,441.074 423.05,440.67 419.253,436.216 418.896,433.852 422.376,434.826 422.542,431.568 
		421.958,428.018 419.412,430.463 420.343,428.573 419.208,429.876 417.975,428.764 412.746,424.963 415.143,426.547 
		420.951,422.958 415.941,422.445 419.519,419.488 419.946,417.424 412.79,412.846 418,417.316 419.09,415.937 420.421,412.176 
		415.396,415.923 410.321,415.218 412.651,413.215 413.525,410.768 411.51,410.017 409.733,409.021 407.604,405.849 
		414.376,408.892 416.554,408.528 417.921,407.022 418.339,406.863 418.139,399.728 419.82,396.503 422.1,405.375 429.039,404.699 
		420.527,400.462 418.602,399.321 426.898,394.083 425.535,391.399 422.939,389.882 423.083,388.738 413.375,390.594 
		415.989,387.932 415.833,384.61 416.005,379.342 410.381,387.069 408.842,385.622 412.549,382.017 405.048,376.734 
		414.539,385.095 414.988,382.735 410.595,374.631 414.221,375.844 416.127,375.15 421.898,381.434 422.709,380.39 422.864,376.389 
		426.167,379.564 426.998,375.666 426.553,370.901 433.025,366.153 431.437,364.831 423.504,367.099 420.855,370.808 
		422.057,365.074 420.658,368.062 419.402,371.942 416.104,363.508 411.334,370.268 418.486,363.316 416.163,361.544 
		412.083,360.014 412.736,357.856 406.344,356.307 405.765,354.313 415.359,354.347 414.985,351.176 417.047,350.739 
		418.276,354.633 420.262,354.63 421.451,352.904 421.274,351.931 421.983,349.25 422.172,345.951 415.942,349.007 411.501,347.762 
		411.07,345.799 413.857,342.329 411.622,340.625 413.276,338.697 419.313,336.469 410.678,334.833 420.752,332.896 
		411.027,327.226 417.442,336.439 419.36,338.009 421.085,336.549 421.658,327.902 422.432,326.149 427.621,330.836 
		427.284,326.005 433.147,331.837 434.719,324.91 428.658,329.675 428.42,321.411 424.267,330.646 423.839,323.229 422.829,318.402 
		424.473,319.185 424.526,320.783 413.681,317.762 412.989,315.585 427.24,311.372 419.427,313.23 422.198,315.307 421.843,312.399 
		420.767,309.932 429.537,308.92 428.827,305.6 425.228,303.908 417.374,306.615 421.266,299.406 419.23,302.819 417.72,301.518 
		425.198,301.011 421.003,298.269 412.063,294.635 413.365,292.913 420.9,291.011 418.172,287.351 416.217,286.986 414.635,284.305 
		411.386,291.988 413.026,289.624 414.973,293.818 412.969,288.236 415.737,288.403 418.14,287.128 414.193,282.471 
		415.563,280.962 418.047,279.774 420.909,285.948 422.249,279.752 424.761,284.24 426.198,278.882 430.46,280.217 431.961,275.361 
		427.901,274.464 421.216,274.471 429.958,267.643 427.081,265.616 424.598,265.81 419.595,271.352 419.425,263.294 
		417.724,267.621 411.146,266.973 414.012,261.635 419.177,270.541 420.817,268.138 421.851,257.127 429.175,264.509 
		421.347,262.076 425.624,256.661 419.339,258.388 413.846,255.869 423.25,255.606 420.177,251.139 426.861,248.081 
		421.226,252.147 419.975,255.902 416.901,250.632 415.829,255.284 416.675,247.938 407.646,249.968 406.164,247.96 416.473,246.35 
		414.567,244.276 413.045,242.313 410.768,240.438 416.072,238.167 416.924,240.969 416.369,230.453 416.248,240.498 
		419.55,234.786 419.898,242.683 420.165,232.947 422.683,235.884 430.301,237.554 420.912,235.316 423.958,232.051 421.79,233.341 
		419.809,231.584 421.08,229.605 414.172,229.311 412.231,226.77 415.435,225.401 425.268,225.54 419.657,222.364 418.225,222.024 
		412.344,217.982 419.009,227.612 416.439,217.878 413.631,221.285 422.54,216.188 414.37,216.769 424.492,211.268 422.665,209.736 
		412.563,206.006 419.068,215.807 421.21,215.251 423.37,213.113 425.507,213.1 427.724,205.422 429.803,211.638 431.763,209.526 
		435.821,203.833 433.631,202.894 429.37,203.613 425.541,203.98 425.051,202.414 424.11,204.024 419.93,197.728 420.993,207.414 
		416.214,199.302 415.675,204.125 411.392,209.812 406.824,204.187 407.768,202.28 414.521,199.707 416.537,198.316 
		417.163,196.733 414.105,193.782 412.861,189.219 415.943,198.338 419.246,189.667 421.521,189.339 425.142,199.887 
		429.211,197.085 426.73,190.39 427.225,187.631 426.743,183.572 431.177,186.535 429.268,187.269 430.619,178.696 424.595,189.07 
		426.467,179.153 421.715,186.24 420.505,188.986 419.699,184.957 416.365,176.085 415.953,185.152 414.168,185.824 
		410.084,185.513 413.863,182.624 416.64,181.575 409.433,177.018 410.187,175.251 415.257,175.09 419.349,180.757 424.57,177.575 
		419.553,171.592 416.204,169.718 426.375,167.291 422.176,167.579 420.97,164.324 422.921,164.054 425.792,166.965 
		431.818,166.365 424.887,161.59 432.262,158.265 428.625,156.725 427.14,153.316 423.958,149.948 420.829,155.514 418.477,155.827 
		415.386,160.979 414.114,156.091 411.261,160.041 410.424,152.709 409.388,146.475 402.397,153.532 405.78,149.012 
		414.488,152.059 412.957,148.549 415.137,147.409 412.026,142.888 415.725,147.272 416.826,144.384 418.949,145.816 
		419.151,137.667 423.779,143.455 428.747,141.804 422.446,136.303 417.774,131.639 420.421,130.748 426.154,131.343 
		423.401,133.549 420.989,134.472 418.875,134.982 417.922,125.956 415.989,123.95 413.354,128.43 410.839,131.8 409.746,121.994 
		407.23,128.583 408.37,127.427 409.529,125.773 414.224,127.539 414.206,124.732 414.92,122.794 417.406,123.227 417.116,119.849 
		417.583,116.628 420.423,119.272 422.486,118.312 423.956,111.145 426.201,112.048 427.945,116.474 429.679,114.955 
		425.154,114.613 427.474,111.85 420.609,112.326 422.565,113.276 424.173,102.264 421.425,105.881 420.967,101.958 
		417.292,106.966 413.699,105.22 419.796,109.321 417.049,102.808 417.934,102.502 418.974,100.476 418.361,98.702 422.858,96.13 
		418.67,95.42 418.961,89.702 422.283,98.298 421.008,99.59 421.396,98.092 418.839,91.961 419.017,91.976 411.788,92.188 
		421.895,90.648 423.722,88.706 420.491,84.499 411.298,91.065 410.279,88.368 404.331,82.235 414.654,88.804 414.749,78.618 
		416.57,77.202 422.327,84.53 416.849,77.799 414.298,74.66 420.057,74.528 424.827,75.583 428.065,75.748 420.005,74.654 
		423.119,72.488 420.801,70.152 418.381,66.352 415.667,72.661 421.688,68.444 409.059,68.269 417.456,64.282 416.004,62.295 
		416.545,59.637 418.706,58.831 406.586,55.43 408.576,53.582 418.666,55.84 413.989,48.317 417.208,50.182 416.303,48.603 
		423.666,49.008 425.055,49.213 417.579,41.624 424.689,41.463 420.646,41.87 418.24,39.197 417.037,43.306 416.158,49.254 
		409.929,47.468 417.796,42.632 406.599,39.258 419.551,38.934 416.201,37.614 417.146,36.225 416.685,30.254 420.865,35.28 
		422.644,33.735 423.462,31.615 419.854,33.364 425.004,26.338 422.826,25.692 420.944,24.785 416.699,27.369 412.998,30.055 
		415.49,23.532 419.159,19.604 419.026,18.725 409.955,17.824 411.572,15.897 414.38,13.972 410.795,12.022 	"/>
</g>
<g>
	<polyline class="st0" points="938.234,757.82 940.279,757.488 939.661,753.653 941.663,753.127 938.279,746.218 942.462,748.318 
		950.814,747.79 942.492,745.978 937.352,747.493 944.41,739.573 945.296,741.251 935.893,735.931 937.452,734.563 941.146,734.867 
		939.116,733.701 937.333,734.423 949.492,728.954 944.422,726.337 940.241,723.284 938.855,727.425 937.473,731.631 
		935.247,727.695 929.463,732.344 935.022,727.5 928.768,723.992 931.104,721.381 941.512,724.851 938.697,720.825 934.855,712.635 
		939.821,719.842 939.316,714.45 944.8,717.411 939.886,713.435 940.498,711.763 942.011,714.377 943.148,715.206 941.912,718.994 
		937.324,709.462 935.993,712.887 938.602,709.48 932.781,711.463 936.64,710.692 932.422,707.062 934.729,704.01 939.772,711.115 
		941.264,706.074 942.12,703.794 942.326,701.646 935.563,700.111 936.883,699.008 937.305,694.846 943.488,694.401 940.523,690.4 
		938.685,687.062 947.763,687.978 943.378,686.812 936.86,690.397 945.053,681.938 934.596,686.633 938.491,682.435 
		943.139,675.747 930.606,676.197 938.595,678.242 940.634,675.217 942.617,674.791 942.396,675.151 947.755,677.761 
		951.464,677.196 949.22,674.518 947.748,671.452 949.026,664.988 943.852,668.584 944.986,662.322 938.496,670.005 
		936.183,670.371 935.156,667.389 933.131,666.215 938.041,657.519 931.45,662.001 932.019,661.016 932.274,661.281 933.939,666.6 
		936.711,656.915 938.118,665.747 939.988,668.346 945.102,665.737 937.476,656.587 937.97,654.688 945.708,656.389 
		942.462,650.598 944.064,649.347 951.104,653.368 947.48,647.029 947.551,650.453 950.748,643.256 948.185,646.365 
		945.054,653.482 944.031,645.673 941.993,645.03 936.076,650.656 935.967,645.511 932.95,643.952 935.075,643.376 938.218,633.683 
		935.252,636.609 933.086,636.881 930.988,636.908 929.201,635.894 933.686,638.197 928.412,630.551 931.084,642.696 
		932.478,630.61 934.809,636.224 936.617,631.959 938.834,635.365 946.58,640.83 944.195,633.661 934.956,633.574 945.783,629.238 
		943.13,627.757 939.893,627.379 944.036,627.522 939.549,624.609 937.854,625.574 931.745,623.513 944.882,621.973 
		938.306,619.744 943.826,614.109 935.796,617.994 932.329,621.327 934.22,611.853 928.861,619.68 930.318,614.407 931.338,619.671 
		933.33,618.389 935.346,617.9 937.302,615.421 939.135,608.598 938.733,609.731 935.684,609.075 948.622,612.628 943.663,608.319 
		943.22,604.921 948.593,608.536 952.104,609.9 945.609,599.211 949.895,602.479 949.775,600.741 950.708,596.766 948.267,596.843 
		945.332,597.509 943.307,597.421 940.728,599.918 938.021,602.128 938.085,594.746 940.062,593.429 939.229,592.25 
		938.271,596.736 942.383,587.916 943.869,595.014 949.525,595.697 942.963,587.312 948.941,588.225 946.796,585.549 
		940.021,587.494 946.329,580.797 944.004,579.795 945.506,579.317 946.943,580.91 939.361,573.477 946.496,575.682 
		939.835,568.841 940.404,574.672 944.949,573.174 942.04,569.396 940.619,572.35 938.902,573.98 937.84,571.298 942.842,572.463 
		938.153,569.688 930.577,568.039 937.254,565.989 937.596,563.967 941.919,562.559 941.745,561.877 936.375,558.119 
		935.39,555.454 937.245,555.332 939.482,554.31 942.903,552.618 938.98,558.037 937.441,555.596 936.406,547.953 933.565,552.679 
		940.186,550.821 940.117,548.937 931.038,546.24 939.922,548.463 935.188,540.221 940.43,549.768 937.145,536.356 944.817,548.683 
		945.305,545.274 948.369,543.732 950.05,540.703 941.163,533.753 945.875,533.896 946.9,533.443 946.867,532.449 946.7,529.79 
		943.303,530.518 944.034,525.973 941.016,534.358 940.008,520.602 937.489,532.202 931.795,533.387 940.62,522.029 
		939.672,520.019 925.488,520.643 935.773,521.882 931.578,514.188 934.752,514.951 943.158,519.121 937.143,512.6 936.241,508.497 
		945.414,515.501 937.017,510.591 942.678,504.372 940.771,504.488 943.593,505.872 936.839,507.145 933.755,504.481 
		941.343,504.025 941.236,501.974 936.176,501.336 942.173,492.492 938.576,497.674 934.581,497.525 932.462,496.08 
		934.575,492.506 938.707,494.052 935.469,491.513 938.198,489.944 937.152,499.349 942.882,489.062 942.005,497.984 
		939.121,490.563 947.406,489.727 940.693,493.218 942.696,488.443 943.152,485.13 944.21,486.646 940.523,486.467 938.338,481.812 
		943.416,483.928 942.421,482.096 942.007,484.266 939.226,481.44 937.148,481.626 936.725,488.901 935.168,482.378 936.43,483.337 
		935.096,479.963 935.773,477.975 939.006,477.75 941.51,480.452 940.731,475.847 946.83,479.725 939.732,474.626 938.98,472.797 
		944.911,469.68 934.698,469.659 946,464.694 932.171,463.989 939.301,461.463 940.879,460.311 943.405,459.867 937.243,456.374 
		937.946,456.234 942.241,453.386 947.417,445.655 941.363,454.251 938.018,446.449 937.364,455.95 929.893,450.14 936.651,450.756 
		938.019,458.32 940.455,450.516 940.374,448.18 943.12,451.182 939.405,445.409 948.641,448.824 939.346,450.849 941.672,446.871 
		940.16,445.546 947.016,438.424 932.997,441.085 942.668,440.024 940.118,436.328 941.512,435.031 948.382,432.929 
		941.831,434.765 941.282,431.128 937.78,433.256 939.354,429.635 934.831,428.683 941.766,433.919 938.364,426.789 
		944.682,424.027 933.43,425.287 932.57,423.596 931.195,422.048 931.15,420.118 937.563,417.44 939.92,412.612 942.087,420.126 
		937.431,418.304 940.688,414.6 940.52,412.485 942.316,408.002 934.688,410.282 931.822,410.386 935.508,403.9 927.972,405.82 
		929.747,401.441 934.314,404.434 933.088,399.286 934.605,394.614 938.688,397.04 940.646,399.454 942.396,397.559 
		949.624,404.635 942.521,399.936 942.265,398.126 938.169,397.852 946.28,391.354 941.441,391.38 942.307,389.336 937.504,389.178 
		941.28,383.437 936.679,384.238 935.625,381.722 934.957,378.329 932.941,377.948 922.176,384.199 934.72,387.389 935.096,384.948 
		931.97,378.351 935.769,379.955 937.986,380.254 939.235,379.388 936.922,371.563 940.025,372.942 943.895,377.394 
		944.089,371.681 945.443,369.279 954.711,374.083 943.833,371.746 952.553,364.583 950.728,363.393 946.012,361.721 
		942.471,363.467 940.133,360.789 938.748,363.887 937.638,368.663 935.374,366.129 930.352,364.893 941.417,360.727 
		935.817,359.622 928.791,358.208 930.65,356.033 932.03,353.891 929.291,347.198 936.665,345.997 938.215,348.211 939.324,352.729 
		940.951,354.577 948.138,356.995 948.397,348.426 940.092,350.649 940.487,348.053 936.426,349.158 943.248,343.468 932.3,345.586 
		933.072,342.717 932.086,340.654 931.523,339.015 936.185,336.708 941.604,334.802 937.438,332.91 939,333.717 937.35,324.53 
		939.377,327.772 941.44,331.556 943.178,330.486 942.101,324.411 945.989,326.86 945.668,322.054 953.109,330.601 949.137,325.469 
		950.461,324.657 948.336,324.831 947.631,318.653 943.522,327.683 941.229,328.593 940.368,322.599 945.19,320.782 
		936.514,317.942 941.357,316.228 941.289,314.06 940.214,312.917 943.855,318.432 946.957,313.643 943.188,310.421 
		945.183,308.628 948.82,305.701 944.469,304.12 947.943,298.158 941.666,302.257 939.938,302.526 935.22,303.572 935.702,299.109 
		936.675,297.333 932.66,294.619 945.751,295.102 938.555,293.208 938.859,287.3 936.541,289.208 933.548,295.323 931.101,298.009 
		935.241,289.227 931.556,288.879 933.055,287.52 933.874,285.336 936.648,285.451 931.644,281.001 936.564,281.108 941.264,283.35 
		940.414,275.243 943.148,281.756 945.607,285.763 947.446,284.067 945.932,277.268 948.679,276.731 952.135,273.235 
		950.17,271.609 948.997,268.749 944.859,269.298 939.287,273.414 939.208,274.255 940.147,265.418 935.25,270.89 932.096,266.903 
		934.441,261.494 939.679,268.032 941.058,261.928 943.2,266.639 951.685,265.136 939.625,263.7 937.574,262.566 936.619,260.687 
		938.972,255.843 939.486,252.898 940.025,250.633 948.243,247.719 941.688,251.07 939.487,250.122 938.053,252.968 936.465,255.07 
		929.6,257.193 930.404,250.039 933.614,248.19 928.452,246.055 938.098,244.25 932.028,242.401 931.734,240.422 939.789,238.011 
		938.305,241.808 934.684,241.333 937.501,237.85 938.666,241.979 941.678,237.622 946.493,244.435 942.838,235.599 940.48,231.835 
		950.465,230.811 944.967,226.809 942.942,225.811 940.193,236.272 935.264,234.579 932.08,228.679 945.242,229.582 
		934.558,225.045 945.184,225.366 934.278,225.171 939.813,219.21 934.727,219.23 939.225,214.998 938.804,219.083 935.153,221.004 
		945.185,215.537 943.784,213.865 937.544,213.803 937.691,211.615 939.003,210.515 939.88,202.705 941.927,211.592 944.09,209.056 
		946.168,215.016 948.383,207.427 950.48,211.884 949.968,208.269 956.292,204 945.642,209.855 950.937,202.901 944.909,205.034 
		947.204,197.748 944.085,201.875 941.643,200.879 940.718,204.503 936.176,197.113 935.344,201.042 936.386,201.828 
		928.585,204.065 927.066,202.438 928.289,200.496 940.215,198.532 934.357,195.945 935.189,193.874 935.171,191.547 
		936.653,198.082 939.144,195.989 941.029,198.814 945.148,197.211 945.125,190.766 946.771,189.542 945.742,184.763 
		948.127,184.507 959.04,186.237 951.644,182.915 947.876,187.486 946.408,186.161 945.785,182.652 942.428,186.159 
		942.446,176.927 939.752,181.117 939.13,188.869 935.632,179.018 935.189,187.92 931.707,184.752 934.871,182.739 937.019,181.469 
		939.384,180.27 928.471,174.41 937.733,177.169 937.302,171.755 937.061,170.982 939.131,171.637 942.446,169.492 945.383,167.358 
		941.742,166.799 942.915,168.722 944.594,167.501 945.769,164.527 941.578,159.928 943.531,161.92 949.678,158.794 
		944.722,157.469 947.832,153.304 944.425,151.353 940.923,159.364 939.482,153.855 937.7,151.847 936.391,147.163 932.979,154.23 
		930.073,158.468 928.463,155.443 926.218,152.175 926.677,149.151 927.361,147.064 928.435,145.221 935.672,147.316 936.4,147.426 
		936.419,147.316 938.422,146.945 937.974,139.266 939.564,135.851 944.627,143.685 948.764,141.461 941.537,135.483 
		941.243,133.079 950.737,135.723 951.468,128.774 945.474,126.51 943.418,125.63 939.592,134.741 938.032,131.226 936.236,127.949 
		934.636,122.865 931.506,131.929 929.45,131.006 931.918,126.803 924.223,122.752 934.597,130.023 934.9,127.534 929.81,119.815 
		933.61,120.581 935.351,119.678 941.883,125.149 941.229,124.663 941.279,121.118 943.804,124.983 945.614,121.389 
		947.272,116.157 955.188,121.668 955.035,113.304 946.863,114.249 941.235,114.293 946.982,110.315 944.88,110.884 
		943.444,114.699 942.133,105.634 937.77,112.706 940.81,103.312 939.086,106.015 937.9,103.567 939.619,103.832 933.086,103.361 
		932.38,101.605 942.862,98.108 938.097,96.976 937.296,93.996 940.826,96.49 942.527,95.808 943.572,95.187 941.866,94.445 
		939.56,92.671 939.798,91.862 934.816,92.301 931.343,90.106 931.749,88.096 935.956,87.417 933.627,88.55 932.713,85.691 
		936.023,82.691 933.131,77.603 937.094,87.097 936.965,75.751 943.591,85.25 947.551,81.767 947.03,79.43 939.868,74.025 
		940.475,71.525 946.854,74.223 944.611,71.855 943.268,64.668 941.354,68.287 939.747,76.463 939.115,69.271 930.008,70.492 
		936.689,67.118 940.578,63.468 940.216,60.409 938.2,59.116 926.722,60.029 926.678,55.271 941.404,56.864 934.68,52.518 
		937.012,52.472 937.936,50.269 937.734,48.951 945.411,49.272 945.536,49.081 943.986,45.416 936.923,45.168 941.031,40.226 
		939.792,44.099 937.71,43.274 934.563,36.484 935.842,42.096 927.496,41.243 928.695,39.437 936.506,38.463 938.647,38.81 
		939.502,38.654 941.877,39.817 940.666,31.887 943.89,35.921 950.598,34.175 944.086,30.268 944.258,27.58 943.469,25.725 
		937.986,27.955 937.794,26.572 937.425,25.22 942.323,20.532 936.075,21.439 939.861,18.691 934.821,17.841 937.685,15.918 
		939.827,13.99 936.293,12.042 	"/>
</g>
</svg>
