<?xml version="1.0" encoding="utf-8"?>
<!-- Generator: Adobe Illustrator 15.0.0, SVG Export Plug-In . SVG Version: 6.00 Build 0)  -->
<!DOCTYPE svg PUBLIC "-//W3C//DTD SVG 1.1//EN" "http://www.w3.org/Graphics/SVG/1.1/DTD/svg11.dtd">
<svg version="1.1" id="Layer_1" xmlns="http://www.w3.org/2000/svg" xmlns:xlink="http://www.w3.org/1999/xlink" x="0px" y="0px"
	 width="1024px" height="768px" viewBox="0 0 1024 768" style="enable-background:new 0 0 1024 768;" xml:space="preserve">
<style type="text/css">
<![CDATA[
	.st0{fill:none;stroke:#FF5F9F;stroke-miterlimit:10;}
]]>
</style>
<polyline class="st0" points="367.274,754.153 371.643,750.828 375.806,747.284 371.045,741.126 376.083,734.713 374.44,728.649 
	365.452,729.576 366.717,722.793 369.735,718.104 373.486,718.019 376.225,711.462 365.924,714.056 368.607,706.465 
	372.735,705.701 374.199,699.459 372.386,694.908 376.326,688.251 372.608,684.262 372.63,683.352 368.454,678.311 376.338,678.487 
	378.704,671.804 373.397,668.07 368.204,665.558 362.125,660.252 374.408,661.156 376.899,655.94 383.932,648.7 371.426,646.934 
	370.054,640.599 358.562,637.146 372.756,636.395 370.685,626.616 373.299,625.582 369.533,625.717 369.81,617.733 360.976,614.034 
	373.146,613.677 375.499,608.322 382.535,602.48 375.505,596.637 369.23,595.204 369.908,590.919 374.81,592.23 378.469,588.183 
	372.646,579.363 378.311,570.722 368.418,572.907 369.501,567.81 368.075,562.388 369.848,556.453 370.086,556.252 373.08,552.843 
	366.053,552.163 366.72,544.702 371.733,542.937 376.925,540.424 380.72,533.153 375.058,527.758 367.782,527.325 364.425,521.596 
	369.142,517.235 372.337,512.725 375.847,510.039 370.216,509.489 372.227,499.771 369.501,498.482 365.475,490.46 377.226,494.504 
	370.047,486.926 375.269,481.328 365.209,483.681 370.958,475.373 374.216,476.093 372.384,466.553 371.166,463.817 
	375.648,457.839 374.81,450.971 366.487,452.267 374.023,452.79 377.665,448.725 372.113,440.709 375.921,434.457 370.551,432.119 
	368.666,429.156 371.679,427.338 368.62,416.571 372.52,417.601 369.703,417.565 367.984,411.577 362.432,406.052 368.896,401.445 
	376.242,401.085 373.601,394.493 371.699,392.462 369.456,386.998 360.36,382.945 367.489,376.93 372.389,374.123 380.206,371.388 
	376.394,364.658 367.156,366.188 366.019,359.831 365.406,351.737 374.958,353.583 372.07,348.273 370.617,347.326 368.462,341.773 
	367.805,336.721 367.787,331.009 375.026,330.541 384.259,325.174 372.329,322.505 373.031,314.096 371.805,313.609 
	374.485,314.598 376.173,308.58 375.212,302.057 370.164,301.561 371.936,292.081 362.116,290.507 368.341,285.345 370.751,280.048 
	380.739,278.953 377.892,270.724 373.581,267.328 370.454,267.392 369.369,263.264 376.568,262.756 371.886,255.836 
	375.343,250.163 365.685,252.114 365.952,244.286 365.541,236.327 375.389,238.468 378.512,232.733 370.188,232.209 
	372.465,222.226 369.213,221.175 373.346,221.023 369.509,209.479 384.475,209.629 377.876,201.413 366.407,205.174 
	365.596,198.068 367.053,191.621 375.847,192.708 384.054,186.52 373.694,182.485 364.484,183.988 367.652,174.958 372.14,173.599 
	371.813,165.565 379.308,163.406 377.96,155.109 371.272,154.091 358.783,151.856 364.528,142.878 370.203,140.846 373.971,140.293 
	378.562,131.399 372.128,130.126 359.371,128.747 366.325,121.566 370.677,118.211 381.359,117.19 378.306,108.546 371.383,107.762 
	368.639,105.63 371.996,104.128 370.577,95.002 375.876,94.077 369.287,94.456 369.678,86.358 363.833,82.525 371.914,80.937 
	374.099,75.415 377.683,70.97 369.081,71.553 367.986,64.941 365.036,59.415 366.836,52.75 371.764,49.971 371.531,47.855 
	375.174,42.351 365.797,44.021 366.773,36.304 370.753,33.559 376.875,31.973 370.576,24.746 369.461,24.955 366.935,19.774 
	366.965,12.037 "/>
<polyline class="st0" points="887.953,754.153 892.322,750.828 896.485,747.284 891.725,741.126 896.764,734.713 895.119,728.649 
	886.131,729.576 887.396,722.793 890.415,718.104 894.166,718.019 896.904,711.462 886.604,714.056 889.287,706.465 
	893.414,705.701 894.879,699.459 893.066,694.908 897.006,688.251 893.288,684.262 893.31,683.352 889.133,678.311 897.018,678.487 
	899.384,671.804 894.076,668.07 888.884,665.558 882.805,660.252 895.088,661.156 897.578,655.94 904.611,648.7 892.105,646.934 
	890.733,640.599 879.241,637.146 893.436,636.395 891.364,626.616 893.979,625.582 890.213,625.717 890.489,617.733 
	881.656,614.034 893.826,613.677 896.178,608.322 903.215,602.48 896.186,596.637 889.91,595.204 890.588,590.919 895.489,592.23 
	899.148,588.183 893.326,579.363 898.99,570.722 889.098,572.907 890.181,567.81 888.755,562.388 890.527,556.453 890.766,556.252 
	893.76,552.843 886.732,552.163 887.399,544.702 892.412,542.937 897.605,540.424 901.399,533.153 895.738,527.758 888.461,527.325 
	885.104,521.596 889.821,517.235 893.017,512.725 896.526,510.039 890.896,509.489 892.906,499.771 890.182,498.482 886.154,490.46 
	897.905,494.504 890.727,486.926 895.948,481.328 885.889,483.681 891.637,475.373 894.896,476.093 893.063,466.553 
	891.846,463.817 896.328,457.839 895.489,450.971 887.167,452.267 894.703,452.79 898.344,448.725 892.793,440.709 896.601,434.457 
	891.23,432.119 889.346,429.156 892.359,427.338 889.299,416.571 893.199,417.601 890.383,417.565 888.664,411.577 883.111,406.052 
	889.576,401.445 896.922,401.085 894.281,394.493 892.379,392.462 890.136,386.998 881.04,382.945 888.169,376.93 893.068,374.123 
	900.886,371.388 897.073,364.658 887.836,366.188 886.698,359.831 886.086,351.737 895.639,353.583 892.75,348.273 891.297,347.326 
	889.142,341.773 888.484,336.721 888.467,331.009 895.705,330.541 904.938,325.174 893.009,322.505 893.711,314.096 
	892.484,313.609 895.165,314.598 896.854,308.58 895.892,302.057 890.844,301.561 892.615,292.081 882.796,290.507 889.021,285.345 
	891.431,280.048 901.418,278.953 898.571,270.724 894.26,267.328 891.134,267.392 890.049,263.264 897.248,262.756 892.566,255.836 
	896.022,250.163 886.365,252.114 886.631,244.286 886.221,236.327 896.068,238.468 899.191,232.733 890.867,232.209 
	893.145,222.226 889.893,221.175 894.025,221.023 890.188,209.479 905.154,209.629 898.557,201.413 887.087,205.174 
	886.275,198.068 887.732,191.621 896.527,192.708 904.734,186.52 894.374,182.485 885.164,183.988 888.332,174.958 892.82,173.599 
	892.492,165.565 899.988,163.406 898.641,155.109 891.952,154.091 879.463,151.856 885.207,142.878 890.883,140.846 894.65,140.293 
	899.242,131.399 892.808,130.126 880.051,128.747 887.005,121.566 891.357,118.211 902.039,117.19 898.986,108.546 892.062,107.762 
	889.318,105.63 892.676,104.128 891.257,95.002 896.557,94.077 889.967,94.456 890.357,86.358 884.512,82.525 892.594,80.937 
	894.778,75.415 898.363,70.97 889.761,71.553 888.666,64.941 885.715,59.415 887.516,52.75 892.443,49.971 892.211,47.855 
	895.854,42.351 886.477,44.021 887.453,36.304 891.434,33.559 897.555,31.973 891.256,24.746 890.141,24.955 887.614,19.774 
	887.645,12.037 "/>
<g>
	<polyline class="st0" points="486.635,754.83 488.267,753.955 485.493,747.286 491.877,752.553 493.375,751.409 492.807,747.93 
		493.378,747.189 494.456,744.982 496.712,740.777 491.176,742.597 495.629,741.244 489.315,738.088 490.265,736.241 
		496.568,738.597 488.712,733.488 499.936,731.189 486.917,732.547 492.398,729.783 491.58,729.699 489.606,728.139 488.59,735.906 
		486.676,734.996 483.443,730.145 491.525,728.587 482.199,724.507 490.464,724.622 483.157,719.036 491.963,722.493 
		487.78,716.666 490.588,723.865 491.154,716.222 488.442,714.473 493.347,714.598 487.926,710.405 496.85,709.288 494.612,718.325 
		491.532,714.794 489.592,715.785 485.163,706.907 479.65,719.253 487.024,712.723 483.829,709.459 484.985,707.73 490.371,709.962 
		489.302,704.919 492.921,707.092 490.632,703.286 494.376,701.968 490.995,699.656 498.293,694.731 489.649,694.878 
		496.994,696.076 488.369,688.725 489.041,686.873 488.317,688.826 489.257,691.281 493.546,684.798 487.39,686.472 
		488.925,684.701 489.423,682.222 491.406,677.744 491.021,679.62 489.11,685.478 491.241,678.282 493.261,676.232 497.852,682.699 
		493.285,675.939 492.359,673.731 497.747,673.756 493.777,673.324 491.605,676.5 491.527,672.85 491.315,669.629 488.937,670.492 
		491.528,660.72 486.314,666.663 484.947,664.907 480.995,666.369 486.106,657.441 482.717,661.024 482.763,663.835 
		485.131,659.613 486.732,665.792 488.998,662.984 490.911,665 496.55,667.141 499.823,662.16 489.068,654.889 501.791,660.184 
		501.285,658.51 497.626,652.147 501.668,653.26 504.279,652.978 506.427,647.295 500.134,652.396 498.433,649.395 497.116,643.67 
		494.288,648.651 491.945,650.158 495,641.931 485.779,645.698 496.188,641.232 493.389,636.639 487.93,636.889 485.51,637.996 
		484.469,634.526 481.738,636.66 478.515,640.423 477.482,637.157 479.184,632.376 481.822,643.879 483.57,638.463 485.232,631.464 
		487.368,633.372 489.48,634.8 486.692,632.541 485.101,635.729 486.527,633.386 490.247,630.557 491.304,628.286 494.414,630.206 
		497.803,629.859 490.307,626.915 488.62,625.49 485.461,623.619 494.067,621.921 483.17,619.543 485.524,619.673 485.205,621.02 
		483.309,620.601 483.442,615.322 483.769,609.577 481.228,614.482 481.967,618.047 483.687,607.542 485.813,610.847 
		487.956,614.695 489.959,613.679 488.788,608.782 491.147,611.178 487.979,607.656 498.387,611.321 493.639,604.611 
		497.202,606.047 498.206,604.392 503.367,607.74 496.988,602.472 496.28,605.759 498.471,600.271 500.064,595.493 492.978,601.154 
		494.493,596.336 492.283,596.067 490.006,596.395 491.415,592.97 492.251,593.668 488.352,590.454 490.169,592.167 
		490.768,596.477 493.891,592.968 499.325,594.906 495.822,589.286 496.511,588.168 493.058,588.462 492.455,586.334 
		491.816,584.223 486.94,584.905 497.596,579.303 491.021,576.586 497.539,578.392 496.789,575.43 492.478,570.129 491.055,574.689 
		494.076,566.162 493.299,572.028 491.34,572.553 489.61,574.12 487.371,572.771 481.53,569.915 486.315,569.155 492.393,567.679 
		483.41,567.178 489.484,563.647 493.328,562.582 492.23,561.821 484.825,557.454 489.17,556.635 492.569,559.562 493.129,556.917 
		495.431,552.365 490.21,552.3 487.809,558.779 485.947,559.678 486.427,550.965 480.224,549.87 479.067,547.887 481.845,546.253 
		489.495,547.641 486.875,543.091 490.158,547.077 493.418,549.708 490.233,537.812 491.502,536.017 491.856,536.469 
		495.756,538.108 495.878,535.861 496.192,533.709 504.833,532.385 497.79,532.189 497.317,529.853 494.171,530.316 492.5,530.87 
		491.697,534.266 490.062,531.055 488.427,527.808 483.457,531.947 488.941,523.406 482.671,524.515 481.106,521.306 
		488.904,524.537 491.269,523.941 491.483,520.354 489.609,516.128 493.765,516.812 490.879,512.424 496.979,516.662 
		492.694,510.196 492.247,515.704 491.353,505.449 493.83,506.178 495.999,508.9 486.007,504.808 486.452,502.874 483.907,500.317 
		496.819,497.642 487.444,503.916 492.174,495.061 481.081,499.621 488.674,493.301 482.386,493.943 479.344,486.924 
		487.361,487.98 490.196,486.104 488.495,497.409 490.715,497.324 494.596,492.418 495.51,494.151 495.857,491.833 488.271,496.151 
		493.272,488.539 489.978,488.778 494.339,486.671 488.616,484.058 493.165,485.684 490.612,480.682 499.198,477.492 
		493.38,487.253 489.438,479.464 488.802,485.811 485.194,479.468 484.194,483.579 486.749,483.09 485.301,479.638 493.39,482.776 
		491.685,479.136 491.419,478.816 492.69,470.041 487.524,471.567 487.082,475.266 498.68,471.063 492.072,470.354 492.053,468.376 
		491.145,466.582 496.246,463.67 494.213,464.638 497.391,464.688 497.086,462.121 493.632,457.646 493.352,455.657 
		488.669,453.905 491.046,454.099 490.527,444.554 489.014,448.508 487.797,454.392 486.955,452.992 487.125,453.661 
		489.319,449.316 490.596,458.234 493.49,454.362 489.716,447.526 498.593,453.033 492.225,448.572 494.4,447.816 495.674,444.568 
		495.883,442.051 496.28,439.399 483.851,441.074 494.405,440.67 490.609,436.216 490.251,433.852 493.732,434.826 493.898,431.568 
		493.313,428.018 490.767,430.463 491.698,428.573 490.564,429.876 489.331,428.764 484.101,424.963 486.499,426.547 
		492.306,422.958 487.297,422.445 490.874,419.488 491.301,417.424 484.145,412.846 489.355,417.316 490.445,415.937 
		491.777,412.176 486.751,415.923 481.677,415.218 484.007,413.215 484.881,410.768 482.866,410.017 481.089,409.021 
		478.959,405.849 485.732,408.892 487.909,408.528 489.277,407.022 489.695,406.863 489.495,399.728 491.176,396.503 
		493.456,405.375 500.395,404.699 491.883,400.462 489.958,399.321 498.253,394.083 496.891,391.399 494.295,389.882 
		494.438,388.738 484.731,390.594 487.345,387.932 487.188,384.61 487.361,379.342 481.736,387.069 480.198,385.622 
		483.905,382.017 476.404,376.734 485.894,385.095 486.344,382.735 481.951,374.631 485.576,375.844 487.482,375.15 
		493.253,381.434 494.065,380.39 494.219,376.389 497.522,379.564 498.353,375.666 497.908,370.901 504.38,366.153 502.792,364.831 
		494.859,367.099 492.21,370.808 493.412,365.074 492.014,368.062 490.758,371.942 487.46,363.508 482.69,370.268 489.842,363.316 
		487.518,361.544 483.439,360.014 484.091,357.856 477.7,356.307 477.121,354.313 486.715,354.347 486.341,351.176 488.402,350.739 
		489.631,354.633 491.617,354.63 492.807,352.904 492.63,351.931 493.339,349.25 493.527,345.951 487.298,349.007 482.856,347.762 
		482.426,345.799 485.213,342.329 482.978,340.625 484.631,338.697 490.668,336.469 482.033,334.833 492.107,332.896 
		482.383,327.226 488.797,336.439 490.716,338.009 492.441,336.549 493.014,327.902 493.788,326.149 498.977,330.836 
		498.639,326.005 504.502,331.837 506.074,324.91 500.014,329.675 499.776,321.411 495.623,330.646 495.195,323.229 
		494.184,318.402 495.829,319.185 495.882,320.783 485.036,317.762 484.345,315.585 498.596,311.372 490.782,313.23 
		493.554,315.307 493.199,312.399 492.122,309.932 500.893,308.92 500.182,305.6 496.583,303.908 488.729,306.615 492.622,299.406 
		490.586,302.819 489.075,301.518 496.554,301.011 492.359,298.269 483.419,294.635 484.72,292.913 492.255,291.011 
		489.527,287.351 487.573,286.986 485.99,284.305 482.742,291.988 484.382,289.624 486.328,293.818 484.324,288.236 
		487.093,288.403 489.495,287.128 485.549,282.471 486.919,280.962 489.403,279.774 492.264,285.948 493.604,279.752 
		496.117,284.24 497.553,278.882 501.815,280.217 503.316,275.361 499.257,274.464 492.571,274.471 501.313,267.643 
		498.436,265.616 495.953,265.81 490.951,271.352 490.78,263.294 489.079,267.621 482.501,266.973 485.368,261.635 490.533,270.541 
		492.172,268.138 493.206,257.127 500.531,264.509 492.702,262.076 496.979,256.661 490.694,258.388 485.201,255.869 
		494.605,255.606 491.532,251.139 498.217,248.081 492.582,252.147 491.331,255.902 488.257,250.632 487.184,255.284 
		488.03,247.938 479.001,249.968 477.52,247.96 487.828,246.35 485.922,244.276 484.4,242.313 482.123,240.438 487.427,238.167 
		488.28,240.969 487.725,230.453 487.603,240.498 490.905,234.786 491.253,242.683 491.52,232.947 494.038,235.884 501.656,237.554 
		492.268,235.316 495.314,232.051 493.145,233.341 491.165,231.584 492.435,229.605 485.527,229.311 483.587,226.77 486.79,225.401 
		496.623,225.54 491.013,222.364 489.581,222.024 483.699,217.982 490.365,227.612 487.795,217.878 484.986,221.285 
		493.896,216.188 485.726,216.769 495.847,211.268 494.021,209.736 483.919,206.006 490.424,215.807 492.565,215.251 
		494.725,213.113 496.863,213.1 499.079,205.422 501.159,211.638 503.119,209.526 507.176,203.833 504.986,202.894 500.726,203.613 
		496.896,203.98 496.407,202.414 495.466,204.024 491.285,197.728 492.348,207.414 487.57,199.302 487.031,204.125 482.748,209.812 
		478.18,204.187 479.123,202.28 485.876,199.707 487.893,198.316 488.518,196.733 485.46,193.782 484.216,189.219 487.298,198.338 
		490.601,189.667 492.876,189.339 496.497,199.887 500.567,197.085 498.086,190.39 498.581,187.631 498.099,183.572 
		502.533,186.535 500.624,187.269 501.974,178.696 495.95,189.07 497.823,179.153 493.071,186.24 491.86,188.986 491.054,184.957 
		487.721,176.085 487.309,185.152 485.524,185.824 481.439,185.513 485.218,182.624 487.996,181.575 480.788,177.018 
		481.542,175.251 486.612,175.09 490.705,180.757 495.926,177.575 490.908,171.592 487.56,169.718 497.731,167.291 493.531,167.579 
		492.326,164.324 494.276,164.054 497.147,166.965 503.174,166.365 496.242,161.59 503.618,158.265 499.98,156.725 498.496,153.316 
		495.314,149.948 492.184,155.514 489.832,155.827 486.741,160.979 485.469,156.091 482.617,160.041 481.779,152.709 
		480.744,146.475 473.753,153.532 477.136,149.012 485.844,152.059 484.312,148.549 486.493,147.409 483.382,142.888 
		487.08,147.272 488.181,144.384 490.305,145.816 490.507,137.667 495.134,143.455 500.103,141.804 493.802,136.303 489.13,131.639 
		491.777,130.748 497.51,131.343 494.757,133.549 492.344,134.472 490.23,134.982 489.278,125.956 487.345,123.95 484.71,128.43 
		482.194,131.8 481.101,121.994 478.585,128.583 479.725,127.427 480.885,125.773 485.58,127.539 485.561,124.732 486.275,122.794 
		488.762,123.227 488.471,119.849 488.939,116.628 491.779,119.272 493.842,118.312 495.312,111.145 497.556,112.048 499.3,116.474 
		501.034,114.955 496.51,114.613 498.829,111.85 491.965,112.326 493.921,113.276 495.529,102.264 492.781,105.881 492.323,101.958 
		488.647,106.966 485.055,105.22 491.151,109.321 488.405,102.808 489.29,102.502 490.329,100.476 489.716,98.702 494.214,96.13 
		490.026,95.42 490.316,89.702 493.638,98.298 492.364,99.59 492.752,98.092 490.195,91.961 490.373,91.976 483.144,92.188 
		493.25,90.648 495.077,88.706 491.846,84.499 482.653,91.065 481.634,88.368 475.687,82.235 486.009,88.804 486.104,78.618 
		487.926,77.202 493.682,84.53 488.204,77.799 485.654,74.66 491.412,74.528 496.182,75.583 499.42,75.748 491.361,74.654 
		494.474,72.488 492.157,70.152 489.737,66.352 487.022,72.661 493.044,68.444 480.414,68.269 488.812,64.282 487.359,62.295 
		487.901,59.637 490.061,58.831 477.941,55.43 479.931,53.582 490.021,55.84 485.344,48.317 488.563,50.182 487.659,48.603 
		495.021,49.008 496.41,49.213 488.935,41.624 496.044,41.463 492.002,41.87 489.595,39.197 488.392,43.306 487.513,49.254 
		481.284,47.468 489.152,42.632 477.954,39.258 490.906,38.934 487.556,37.614 488.501,36.225 488.04,30.254 492.221,35.28 
		493.999,33.735 494.817,31.615 491.209,33.364 496.36,26.338 494.182,25.692 492.3,24.785 488.054,27.369 484.354,30.055 
		486.845,23.532 490.515,19.604 490.382,18.725 481.31,17.824 482.928,15.897 485.736,13.972 482.151,12.022 	"/>
</g>
<g>
	<polyline class="st0" points="1009.59,757.82 1011.635,757.488 1011.017,753.653 1013.019,753.127 1009.635,746.218 
		1013.817,748.318 1022.17,747.79 1013.848,745.978 1008.707,747.493 1015.766,739.573 1016.651,741.251 1007.248,735.931 
		1008.808,734.563 1012.501,734.867 1010.472,733.701 1008.688,734.423 1020.848,728.954 1015.777,726.337 1011.597,723.284 
		1010.211,727.425 1008.828,731.631 1006.603,727.695 1000.818,732.344 1006.378,727.5 1000.123,723.992 1002.459,721.381 
		1012.867,724.851 1010.053,720.825 1006.211,712.635 1011.177,719.842 1010.672,714.45 1016.155,717.411 1011.241,713.435 
		1011.854,711.763 1013.366,714.377 1014.504,715.206 1013.268,718.994 1008.68,709.462 1007.349,712.887 1009.957,709.48 
		1004.137,711.463 1007.995,710.692 1003.777,707.062 1006.084,704.01 1011.128,711.115 1012.619,706.074 1013.476,703.794 
		1013.682,701.646 1006.919,700.111 1008.238,699.008 1008.66,694.846 1014.844,694.401 1011.879,690.4 1010.04,687.062 
		1019.118,687.978 1014.733,686.812 1008.216,690.397 1016.408,681.938 1005.951,686.633 1009.847,682.435 1014.494,675.747 
		1001.962,676.197 1009.95,678.242 1011.989,675.217 1013.973,674.791 1013.751,675.151 1019.11,677.761 1022.819,677.196 
		1020.575,674.518 1019.104,671.452 1020.382,664.988 1015.207,668.584 1016.342,662.322 1009.852,670.005 1007.538,670.371 
		1006.512,667.389 1004.486,666.215 1009.396,657.519 1002.806,662.001 1003.374,661.016 1003.63,661.281 1005.295,666.6 
		1008.066,656.915 1009.474,665.747 1011.344,668.346 1016.457,665.737 1008.831,656.587 1009.325,654.688 1017.063,656.389 
		1013.817,650.598 1015.42,649.347 1022.459,653.368 1018.836,647.029 1018.906,650.453 1022.104,643.256 1019.54,646.365 
		1016.409,653.482 1015.387,645.673 1013.349,645.03 1007.432,650.656 1007.322,645.511 1004.306,643.952 1006.431,643.376 
		1009.573,633.683 1006.607,636.609 1004.441,636.881 1002.344,636.908 1000.557,635.894 1005.041,638.197 999.768,630.551 
		1002.439,642.696 1003.833,630.61 1006.164,636.224 1007.973,631.959 1010.189,635.365 1017.936,640.83 1015.551,633.661 
		1006.312,633.574 1017.139,629.238 1014.485,627.757 1011.248,627.379 1015.392,627.522 1010.904,624.609 1009.21,625.574 
		1003.101,623.513 1016.237,621.973 1009.661,619.744 1015.182,614.109 1007.151,617.994 1003.685,621.327 1005.575,611.853 
		1000.217,619.68 1001.674,614.407 1002.693,619.671 1004.686,618.389 1006.701,617.9 1008.657,615.421 1010.49,608.598 
		1010.089,609.731 1007.039,609.075 1019.978,612.628 1015.019,608.319 1014.575,604.921 1019.948,608.536 1023.459,609.9 
		1016.965,599.211 1021.25,602.479 1021.131,600.741 1022.063,596.766 1019.622,596.843 1016.688,597.509 1014.662,597.421 
		1012.083,599.918 1009.376,602.128 1009.44,594.746 1011.418,593.429 1010.585,592.25 1009.627,596.736 1013.738,587.916 
		1015.225,595.014 1020.881,595.697 1014.318,587.312 1020.297,588.225 1018.151,585.549 1011.376,587.494 1017.685,580.797 
		1015.359,579.795 1016.861,579.317 1018.299,580.91 1010.717,573.477 1017.852,575.682 1011.19,568.841 1011.76,574.672 
		1016.305,573.174 1013.396,569.396 1011.975,572.35 1010.258,573.98 1009.195,571.298 1014.197,572.463 1009.509,569.688 
		1001.933,568.039 1008.609,565.989 1008.951,563.967 1013.274,562.559 1013.101,561.877 1007.73,558.119 1006.745,555.454 
		1008.601,555.332 1010.838,554.31 1014.259,552.618 1010.336,558.037 1008.797,555.596 1007.762,547.953 1004.921,552.679 
		1011.541,550.821 1011.473,548.937 1002.394,546.24 1011.277,548.463 1006.543,540.221 1011.785,549.768 1008.5,536.356 
		1016.173,548.683 1016.66,545.274 1019.725,543.732 1021.405,540.703 1012.519,533.753 1017.23,533.896 1018.256,533.443 
		1018.223,532.449 1018.056,529.79 1014.658,530.518 1015.39,525.973 1012.371,534.358 1011.363,520.602 1008.845,532.202 
		1003.15,533.387 1011.976,522.029 1011.027,520.019 996.844,520.643 1007.129,521.882 1002.934,514.188 1006.107,514.951 
		1014.514,519.121 1008.498,512.6 1007.597,508.497 1016.77,515.501 1008.372,510.591 1014.033,504.372 1012.127,504.488 
		1014.948,505.872 1008.194,507.145 1005.11,504.481 1012.698,504.025 1012.592,501.974 1007.531,501.336 1013.528,492.492 
		1009.932,497.674 1005.937,497.525 1003.817,496.08 1005.931,492.506 1010.062,494.052 1006.824,491.513 1009.554,489.944 
		1008.508,499.349 1014.237,489.062 1013.36,497.984 1010.477,490.563 1018.762,489.727 1012.049,493.218 1014.052,488.443 
		1014.508,485.13 1015.565,486.646 1011.879,486.467 1009.693,481.812 1014.771,483.928 1013.776,482.096 1013.362,484.266 
		1010.581,481.44 1008.504,481.626 1008.08,488.901 1006.523,482.378 1007.785,483.337 1006.451,479.963 1007.129,477.975 
		1010.361,477.75 1012.865,480.452 1012.087,475.847 1018.186,479.725 1011.088,474.626 1010.336,472.797 1016.267,469.68 
		1006.054,469.659 1017.355,464.694 1003.526,463.989 1010.656,461.463 1012.234,460.311 1014.761,459.867 1008.599,456.374 
		1009.302,456.234 1013.597,453.386 1018.772,445.655 1012.719,454.251 1009.373,446.449 1008.72,455.95 1001.248,450.14 
		1008.007,450.756 1009.374,458.32 1011.811,450.516 1011.729,448.18 1014.476,451.182 1010.761,445.409 1019.996,448.824 
		1010.701,450.849 1013.027,446.871 1011.516,445.546 1018.371,438.424 1004.353,441.085 1014.023,440.024 1011.474,436.328 
		1012.867,435.031 1019.737,432.929 1013.187,434.765 1012.638,431.128 1009.136,433.256 1010.71,429.635 1006.187,428.683 
		1013.121,433.919 1009.72,426.789 1016.037,424.027 1004.785,425.287 1003.926,423.596 1002.551,422.048 1002.506,420.118 
		1008.919,417.44 1011.275,412.612 1013.442,420.126 1008.786,418.304 1012.043,414.6 1011.875,412.485 1013.672,408.002 
		1006.043,410.282 1003.178,410.386 1006.863,403.9 999.327,405.82 1001.103,401.441 1005.67,404.434 1004.443,399.286 
		1005.961,394.614 1010.043,397.04 1012.001,399.454 1013.751,397.559 1020.979,404.635 1013.876,399.936 1013.62,398.126 
		1009.524,397.852 1017.636,391.354 1012.797,391.38 1013.662,389.336 1008.859,389.178 1012.636,383.437 1008.034,384.238 
		1006.98,381.722 1006.312,378.329 1004.297,377.948 993.531,384.199 1006.075,387.389 1006.451,384.948 1003.325,378.351 
		1007.124,379.955 1009.342,380.254 1010.591,379.388 1008.277,371.563 1011.381,372.942 1015.25,377.394 1015.444,371.681 
		1016.799,369.279 1026.066,374.083 1015.188,371.746 1023.908,364.583 1022.083,363.393 1017.367,361.721 1013.826,363.467 
		1011.488,360.789 1010.104,363.887 1008.993,368.663 1006.729,366.129 1001.707,364.893 1012.772,360.727 1007.173,359.622 
		1000.146,358.208 1002.006,356.033 1003.386,353.891 1000.646,347.198 1008.021,345.997 1009.57,348.211 1010.68,352.729 
		1012.307,354.577 1019.493,356.995 1019.753,348.426 1011.447,350.649 1011.843,348.053 1007.781,349.158 1014.604,343.468 
		1003.655,345.586 1004.428,342.717 1003.441,340.654 1002.879,339.015 1007.54,336.708 1012.96,334.802 1008.794,332.91 
		1010.355,333.717 1008.705,324.53 1010.732,327.772 1012.796,331.556 1014.533,330.486 1013.456,324.411 1017.345,326.86 
		1017.023,322.054 1024.465,330.601 1020.492,325.469 1021.816,324.657 1019.691,324.831 1018.986,318.653 1014.878,327.683 
		1012.584,328.593 1011.724,322.599 1016.546,320.782 1007.869,317.942 1012.713,316.228 1012.645,314.06 1011.569,312.917 
		1015.211,318.432 1018.312,313.643 1014.544,310.421 1016.538,308.628 1020.176,305.701 1015.824,304.12 1019.299,298.158 
		1013.021,302.257 1011.294,302.526 1006.575,303.572 1007.058,299.109 1008.03,297.333 1004.016,294.619 1017.106,295.102 
		1009.91,293.208 1010.215,287.3 1007.896,289.208 1004.903,295.323 1002.456,298.009 1006.597,289.227 1002.911,288.879 
		1004.41,287.52 1005.229,285.336 1008.004,285.451 1002.999,281.001 1007.92,281.108 1012.619,283.35 1011.77,275.243 
		1014.504,281.756 1016.963,285.763 1018.802,284.067 1017.287,277.268 1020.034,276.731 1023.49,273.235 1021.525,271.609 
		1020.353,268.749 1016.215,269.298 1010.643,273.414 1010.563,274.255 1011.503,265.418 1006.605,270.89 1003.451,266.903 
		1005.797,261.494 1011.034,268.032 1012.413,261.928 1014.556,266.639 1023.04,265.136 1010.98,263.7 1008.93,262.566 
		1007.975,260.687 1010.327,255.843 1010.842,252.898 1011.381,250.633 1019.599,247.719 1013.044,251.07 1010.843,250.122 
		1009.408,252.968 1007.82,255.07 1000.955,257.193 1001.76,250.039 1004.97,248.19 999.808,246.055 1009.453,244.25 
		1003.384,242.401 1003.09,240.422 1011.145,238.011 1009.66,241.808 1006.039,241.333 1008.856,237.85 1010.021,241.979 
		1013.033,237.622 1017.849,244.435 1014.193,235.599 1011.836,231.835 1021.82,230.811 1016.322,226.809 1014.298,225.811 
		1011.549,236.272 1006.619,234.579 1003.436,228.679 1016.598,229.582 1005.913,225.045 1016.539,225.366 1005.634,225.171 
		1011.169,219.21 1006.082,219.23 1010.58,214.998 1010.159,219.083 1006.509,221.004 1016.54,215.537 1015.14,213.865 
		1008.899,213.803 1009.047,211.615 1010.358,210.515 1011.235,202.705 1013.282,211.592 1015.445,209.056 1017.523,215.016 
		1019.738,207.427 1021.836,211.884 1021.323,208.269 1027.647,204 1016.997,209.855 1022.292,202.901 1016.265,205.034 
		1018.56,197.748 1015.44,201.875 1012.998,200.879 1012.073,204.503 1007.531,197.113 1006.699,201.042 1007.741,201.828 
		999.94,204.065 998.422,202.438 999.645,200.496 1011.57,198.532 1005.713,195.945 1006.545,193.874 1006.526,191.547 
		1008.009,198.082 1010.499,195.989 1012.385,198.814 1016.504,197.211 1016.48,190.766 1018.126,189.542 1017.098,184.763 
		1019.482,184.507 1030.396,186.237 1022.999,182.915 1019.231,187.486 1017.764,186.161 1017.141,182.652 1013.783,186.159 
		1013.802,176.927 1011.107,181.117 1010.485,188.869 1006.987,179.018 1006.545,187.92 1003.062,184.752 1006.227,182.739 
		1008.374,181.469 1010.739,180.27 999.826,174.41 1009.089,177.169 1008.657,171.755 1008.416,170.982 1010.486,171.637 
		1013.802,169.492 1016.738,167.358 1013.098,166.799 1014.271,168.722 1015.949,167.501 1017.124,164.527 1012.934,159.928 
		1014.887,161.92 1021.033,158.794 1016.077,157.469 1019.188,153.304 1015.78,151.353 1012.278,159.364 1010.838,153.855 
		1009.056,151.847 1007.746,147.163 1004.335,154.23 1001.429,158.468 999.818,155.443 997.573,152.175 998.032,149.151 
		998.717,147.064 999.79,145.221 1007.027,147.316 1007.756,147.426 1007.774,147.316 1009.777,146.945 1009.329,139.266 
		1010.92,135.851 1015.982,143.685 1020.119,141.461 1012.893,135.483 1012.599,133.079 1022.093,135.723 1022.823,128.774 
		1016.829,126.51 1014.773,125.63 1010.947,134.741 1009.388,131.226 1007.592,127.949 1005.991,122.865 1002.861,131.929 
		1000.806,131.006 1003.273,126.803 995.578,122.752 1005.952,130.023 1006.256,127.534 1001.165,119.815 1004.966,120.581 
		1006.706,119.678 1013.238,125.149 1012.584,124.663 1012.635,121.118 1015.159,124.983 1016.97,121.389 1018.628,116.157 
		1026.544,121.668 1026.391,113.304 1018.219,114.249 1012.591,114.293 1018.338,110.315 1016.235,110.884 1014.8,114.699 
		1013.488,105.634 1009.125,112.706 1012.165,103.312 1010.441,106.015 1009.256,103.567 1010.975,103.832 1004.441,103.361 
		1003.735,101.605 1014.218,98.108 1009.452,96.976 1008.651,93.996 1012.182,96.49 1013.883,95.808 1014.928,95.187 
		1013.222,94.445 1010.915,92.671 1011.153,91.862 1006.172,92.301 1002.698,90.106 1003.104,88.096 1007.312,87.417 
		1004.982,88.55 1004.068,85.691 1007.379,82.691 1004.486,77.603 1008.449,87.097 1008.32,75.751 1014.946,85.25 1018.906,81.767 
		1018.386,79.43 1011.224,74.025 1011.83,71.525 1018.21,74.223 1015.967,71.855 1014.623,64.668 1012.71,68.287 1011.103,76.463 
		1010.471,69.271 1001.363,70.492 1008.045,67.118 1011.934,63.468 1011.571,60.409 1009.556,59.116 998.077,60.029 998.033,55.271 
		1012.76,56.864 1006.035,52.518 1008.367,52.472 1009.291,50.269 1009.09,48.951 1016.767,49.272 1016.892,49.081 1015.342,45.416 
		1008.278,45.168 1012.387,40.226 1011.147,44.099 1009.065,43.274 1005.919,36.484 1007.197,42.096 998.852,41.243 
		1000.051,39.437 1007.861,38.463 1010.003,38.81 1010.857,38.654 1013.232,39.817 1012.021,31.887 1015.245,35.921 
		1021.953,34.175 1015.441,30.268 1015.613,27.58 1014.824,25.725 1009.342,27.955 1009.149,26.572 1008.78,25.22 1013.679,20.532 
		1007.431,21.439 1011.217,18.691 1006.177,17.841 1009.04,15.918 1011.183,13.99 1007.648,12.042 	"/>
</g>
</svg>
