<?xml version="1.0" encoding="utf-8"?>
<!-- Generator: Adobe Illustrator 15.0.0, SVG Export Plug-In . SVG Version: 6.00 Build 0)  -->
<!DOCTYPE svg PUBLIC "-//W3C//DTD SVG 1.1//EN" "http://www.w3.org/Graphics/SVG/1.1/DTD/svg11.dtd">
<svg version="1.1" id="Layer_1" xmlns="http://www.w3.org/2000/svg" xmlns:xlink="http://www.w3.org/1999/xlink" x="0px" y="0px"
	 width="1024px" height="768px" viewBox="0 0 1024 768" style="enable-background:new 0 0 1024 768;" xml:space="preserve">
<style type="text/css">
<![CDATA[
	.st0{fill:none;stroke:#FF5F9F;stroke-miterlimit:10;}
]]>
</style>
<polyline class="st0" points="361.27,754.153 365.639,750.828 369.802,747.284 365.041,741.126 370.08,734.713 368.436,728.649 
	359.448,729.576 360.713,722.793 363.731,718.104 367.482,718.019 370.221,711.462 359.92,714.056 362.603,706.465 366.731,705.701 
	368.195,699.459 366.382,694.908 370.322,688.251 366.604,684.262 366.626,683.352 362.45,678.311 370.334,678.487 372.7,671.804 
	367.393,668.07 362.2,665.558 356.122,660.252 368.404,661.156 370.895,655.94 377.928,648.7 365.422,646.934 364.05,640.599 
	352.558,637.146 366.752,636.395 364.681,626.616 367.295,625.582 363.529,625.717 363.806,617.733 354.972,614.034 
	367.142,613.677 369.495,608.322 376.531,602.48 369.501,596.637 363.227,595.204 363.904,590.919 368.806,592.23 372.465,588.183 
	366.643,579.363 372.307,570.722 362.414,572.907 363.497,567.81 362.071,562.388 363.844,556.453 364.083,556.252 367.076,552.843 
	360.049,552.163 360.716,544.702 365.729,542.937 370.921,540.424 374.716,533.153 369.054,527.758 361.778,527.325 
	358.421,521.596 363.138,517.235 366.333,512.725 369.843,510.039 364.212,509.489 366.223,499.771 363.498,498.482 359.471,490.46 
	371.222,494.504 364.043,486.926 369.265,481.328 359.205,483.681 364.954,475.373 368.212,476.093 366.38,466.553 365.162,463.817 
	369.645,457.839 368.806,450.971 360.483,452.267 368.019,452.79 371.661,448.725 366.109,440.709 369.917,434.457 364.547,432.119 
	362.662,429.156 365.675,427.338 362.616,416.571 366.516,417.601 363.699,417.565 361.98,411.577 356.428,406.052 362.893,401.445 
	370.238,401.085 367.597,394.493 365.695,392.462 363.452,386.998 354.356,382.945 361.485,376.93 366.385,374.123 374.202,371.388 
	370.39,364.658 361.152,366.188 360.015,359.831 359.402,351.737 368.955,353.583 366.066,348.273 364.613,347.326 362.458,341.773 
	361.801,336.721 361.783,331.009 369.022,330.541 378.255,325.174 366.325,322.505 367.027,314.096 365.801,313.609 
	368.481,314.598 370.169,308.58 369.208,302.057 364.16,301.561 365.932,292.081 356.112,290.507 362.337,285.345 364.747,280.048 
	374.735,278.953 371.888,270.724 367.577,267.328 364.45,267.392 363.365,263.264 370.564,262.756 365.882,255.836 369.339,250.163 
	359.681,252.114 359.948,244.286 359.537,236.327 369.385,238.468 372.508,232.733 364.184,232.209 366.461,222.226 
	363.209,221.175 367.342,221.023 363.505,209.479 378.471,209.629 371.873,201.413 360.403,205.174 359.592,198.068 
	361.049,191.621 369.843,192.708 378.05,186.52 367.69,182.485 358.48,183.988 361.648,174.958 366.136,173.599 365.809,165.565 
	373.304,163.406 371.957,155.109 365.269,154.091 352.779,151.856 358.524,142.878 364.199,140.846 367.967,140.293 
	372.559,131.399 366.124,130.126 353.367,128.747 360.321,121.566 364.673,118.211 375.355,117.19 372.302,108.546 365.379,107.762 
	362.635,105.63 365.992,104.128 364.573,95.002 369.873,94.077 363.283,94.456 363.674,86.358 357.829,82.525 365.91,80.937 
	368.095,75.415 371.679,70.97 363.077,71.553 361.982,64.941 359.032,59.415 360.832,52.75 365.76,49.971 365.527,47.855 
	369.17,42.351 359.793,44.021 360.769,36.304 364.75,33.559 370.871,31.973 364.572,24.746 363.458,24.955 360.931,19.774 
	360.961,12.037 "/>
<polyline class="st0" points="881.949,754.153 886.318,750.828 890.481,747.284 885.721,741.126 890.76,734.713 889.115,728.649 
	880.127,729.576 881.393,722.793 884.411,718.104 888.162,718.019 890.9,711.462 880.6,714.056 883.283,706.465 887.41,705.701 
	888.875,699.459 887.062,694.908 891.002,688.251 887.284,684.262 887.306,683.352 883.129,678.311 891.014,678.487 893.38,671.804 
	888.072,668.07 882.88,665.558 876.801,660.252 889.084,661.156 891.574,655.94 898.607,648.7 886.102,646.934 884.729,640.599 
	873.237,637.146 887.432,636.395 885.36,626.616 887.975,625.582 884.209,625.717 884.485,617.733 875.652,614.034 887.822,613.677 
	890.174,608.322 897.211,602.48 890.182,596.637 883.906,595.204 884.584,590.919 889.485,592.23 893.145,588.183 887.322,579.363 
	892.986,570.722 883.094,572.907 884.177,567.81 882.751,562.388 884.523,556.453 884.762,556.252 887.756,552.843 880.729,552.163 
	881.396,544.702 886.408,542.937 891.602,540.424 895.396,533.153 889.734,527.758 882.457,527.325 879.101,521.596 
	883.817,517.235 887.013,512.725 890.522,510.039 884.892,509.489 886.902,499.771 884.178,498.482 880.15,490.46 891.901,494.504 
	884.723,486.926 889.944,481.328 879.885,483.681 885.633,475.373 888.893,476.093 887.06,466.553 885.842,463.817 890.324,457.839 
	889.485,450.971 881.163,452.267 888.699,452.79 892.34,448.725 886.789,440.709 890.597,434.457 885.227,432.119 883.342,429.156 
	886.355,427.338 883.295,416.571 887.195,417.601 884.379,417.565 882.66,411.577 877.107,406.052 883.572,401.445 890.918,401.085 
	888.277,394.493 886.375,392.462 884.132,386.998 875.036,382.945 882.165,376.93 887.064,374.123 894.882,371.388 891.069,364.658 
	881.832,366.188 880.694,359.831 880.082,351.737 889.635,353.583 886.746,348.273 885.293,347.326 883.138,341.773 882.48,336.721 
	882.463,331.009 889.701,330.541 898.935,325.174 887.005,322.505 887.707,314.096 886.48,313.609 889.161,314.598 890.85,308.58 
	889.888,302.057 884.84,301.561 886.611,292.081 876.792,290.507 883.017,285.345 885.427,280.048 895.414,278.953 892.567,270.724 
	888.256,267.328 885.13,267.392 884.045,263.264 891.244,262.756 886.562,255.836 890.019,250.163 880.361,252.114 880.627,244.286 
	880.217,236.327 890.064,238.468 893.188,232.733 884.863,232.209 887.141,222.226 883.889,221.175 888.021,221.023 
	884.185,209.479 899.15,209.629 892.553,201.413 881.083,205.174 880.271,198.068 881.729,191.621 890.523,192.708 898.73,186.52 
	888.37,182.485 879.16,183.988 882.328,174.958 886.816,173.599 886.488,165.565 893.984,163.406 892.637,155.109 885.948,154.091 
	873.459,151.856 879.203,142.878 884.879,140.846 888.646,140.293 893.238,131.399 886.804,130.126 874.047,128.747 
	881.001,121.566 885.354,118.211 896.035,117.19 892.982,108.546 886.059,107.762 883.314,105.63 886.672,104.128 885.253,95.002 
	890.553,94.077 883.963,94.456 884.354,86.358 878.508,82.525 886.59,80.937 888.774,75.415 892.359,70.97 883.757,71.553 
	882.662,64.941 879.711,59.415 881.512,52.75 886.439,49.971 886.207,47.855 889.85,42.351 880.473,44.021 881.449,36.304 
	885.43,33.559 891.551,31.973 885.252,24.746 884.137,24.955 881.61,19.774 881.641,12.037 "/>
<g>
	<polyline class="st0" points="480.631,754.83 482.263,753.955 479.489,747.286 485.874,752.553 487.371,751.409 486.803,747.93 
		487.374,747.189 488.452,744.982 490.708,740.777 485.172,742.597 489.625,741.244 483.311,738.088 484.261,736.241 
		490.564,738.597 482.708,733.488 493.932,731.189 480.913,732.547 486.394,729.783 485.576,729.699 483.602,728.139 
		482.586,735.906 480.672,734.996 477.439,730.145 485.521,728.587 476.195,724.507 484.46,724.622 477.153,719.036 
		485.959,722.493 481.776,716.666 484.584,723.865 485.15,716.222 482.438,714.473 487.343,714.598 481.922,710.405 
		490.846,709.288 488.608,718.325 485.528,714.794 483.588,715.785 479.159,706.907 473.646,719.253 481.02,712.723 
		477.825,709.459 478.981,707.73 484.367,709.962 483.298,704.919 486.917,707.092 484.628,703.286 488.372,701.968 
		484.991,699.656 492.289,694.731 483.646,694.878 490.99,696.076 482.365,688.725 483.037,686.873 482.313,688.826 
		483.253,691.281 487.542,684.798 481.386,686.472 482.921,684.701 483.419,682.222 485.402,677.744 485.018,679.62 
		483.106,685.478 485.237,678.282 487.257,676.232 491.848,682.699 487.281,675.939 486.355,673.731 491.743,673.756 
		487.773,673.324 485.602,676.5 485.523,672.85 485.312,669.629 482.933,670.492 485.524,660.72 480.311,666.663 478.943,664.907 
		474.991,666.369 480.102,657.441 476.713,661.024 476.759,663.835 479.127,659.613 480.729,665.792 482.994,662.984 484.907,665 
		490.546,667.141 493.819,662.16 483.064,654.889 495.787,660.184 495.281,658.51 491.622,652.147 495.665,653.26 498.275,652.978 
		500.423,647.295 494.13,652.396 492.429,649.395 491.112,643.67 488.284,648.651 485.941,650.158 488.996,641.931 479.775,645.698 
		490.184,641.232 487.385,636.639 481.926,636.889 479.506,637.996 478.465,634.526 475.734,636.66 472.511,640.423 
		471.479,637.157 473.18,632.376 475.818,643.879 477.566,638.463 479.229,631.464 481.364,633.372 483.477,634.8 480.688,632.541 
		479.097,635.729 480.523,633.386 484.243,630.557 485.3,628.286 488.41,630.206 491.799,629.859 484.303,626.915 482.616,625.49 
		479.458,623.619 488.063,621.921 477.167,619.543 479.521,619.673 479.201,621.02 477.305,620.601 477.438,615.322 
		477.765,609.577 475.224,614.482 475.963,618.047 477.683,607.542 479.81,610.847 481.952,614.695 483.956,613.679 
		482.784,608.782 485.143,611.178 481.975,607.656 492.383,611.321 487.635,604.611 491.198,606.047 492.202,604.392 
		497.363,607.74 490.984,602.472 490.276,605.759 492.467,600.271 494.061,595.493 486.974,601.154 488.489,596.336 
		486.279,596.067 484.002,596.395 485.411,592.97 486.247,593.668 482.348,590.454 484.165,592.167 484.764,596.477 
		487.887,592.968 493.321,594.906 489.818,589.286 490.507,588.168 487.054,588.462 486.451,586.334 485.812,584.223 
		480.937,584.905 491.592,579.303 485.017,576.586 491.535,578.392 490.785,575.43 486.474,570.129 485.051,574.689 
		488.072,566.162 487.295,572.028 485.336,572.553 483.606,574.12 481.367,572.771 475.526,569.915 480.312,569.155 
		486.389,567.679 477.406,567.178 483.48,563.647 487.324,562.582 486.226,561.821 478.821,557.454 483.166,556.635 
		486.565,559.562 487.125,556.917 489.427,552.365 484.206,552.3 481.805,558.779 479.943,559.678 480.423,550.965 474.22,549.87 
		473.063,547.887 475.841,546.253 483.491,547.641 480.871,543.091 484.154,547.077 487.414,549.708 484.229,537.812 
		485.498,536.017 485.852,536.469 489.752,538.108 489.875,535.861 490.188,533.709 498.83,532.385 491.786,532.189 
		491.313,529.853 488.167,530.316 486.497,530.87 485.693,534.266 484.058,531.055 482.423,527.808 477.453,531.947 
		482.937,523.406 476.667,524.515 475.102,521.306 482.9,524.537 485.265,523.941 485.479,520.354 483.605,516.128 487.761,516.812 
		484.875,512.424 490.975,516.662 486.69,510.196 486.243,515.704 485.349,505.449 487.826,506.178 489.995,508.9 480.003,504.808 
		480.448,502.874 477.903,500.317 490.815,497.642 481.44,503.916 486.17,495.061 475.077,499.621 482.67,493.301 476.382,493.943 
		473.34,486.924 481.357,487.98 484.192,486.104 482.491,497.409 484.711,497.324 488.592,492.418 489.506,494.151 489.854,491.833 
		482.268,496.151 487.269,488.539 483.974,488.778 488.335,486.671 482.612,484.058 487.161,485.684 484.608,480.682 
		493.194,477.492 487.376,487.253 483.435,479.464 482.798,485.811 479.19,479.468 478.19,483.579 480.745,483.09 479.297,479.638 
		487.386,482.776 485.681,479.136 485.415,478.816 486.686,470.041 481.521,471.567 481.078,475.266 492.676,471.063 
		486.068,470.354 486.049,468.376 485.141,466.582 490.242,463.67 488.209,464.638 491.387,464.688 491.083,462.121 
		487.628,457.646 487.348,455.657 482.666,453.905 485.042,454.099 484.523,444.554 483.01,448.508 481.793,454.392 
		480.951,452.992 481.121,453.661 483.315,449.316 484.592,458.234 487.486,454.362 483.712,447.526 492.589,453.033 
		486.221,448.572 488.396,447.816 489.67,444.568 489.879,442.051 490.276,439.399 477.847,441.074 488.401,440.67 484.605,436.216 
		484.247,433.852 487.728,434.826 487.894,431.568 487.31,428.018 484.763,430.463 485.694,428.573 484.56,429.876 483.327,428.764 
		478.097,424.963 480.495,426.547 486.302,422.958 481.293,422.445 484.87,419.488 485.297,417.424 478.141,412.846 
		483.351,417.316 484.441,415.937 485.773,412.176 480.747,415.923 475.673,415.218 478.003,413.215 478.877,410.768 
		476.862,410.017 475.085,409.021 472.955,405.849 479.728,408.892 481.905,408.528 483.273,407.022 483.691,406.863 
		483.491,399.728 485.172,396.503 487.452,405.375 494.391,404.699 485.879,400.462 483.954,399.321 492.25,394.083 
		490.887,391.399 488.291,389.882 488.435,388.738 478.727,390.594 481.341,387.932 481.184,384.61 481.357,379.342 
		475.732,387.069 474.194,385.622 477.901,382.017 470.4,376.734 479.89,385.095 480.34,382.735 475.947,374.631 479.572,375.844 
		481.479,375.15 487.25,381.434 488.061,380.39 488.215,376.389 491.518,379.564 492.349,375.666 491.904,370.901 498.376,366.153 
		496.788,364.831 488.855,367.099 486.207,370.808 487.408,365.074 486.01,368.062 484.754,371.942 481.456,363.508 
		476.686,370.268 483.838,363.316 481.514,361.544 477.435,360.014 478.087,357.856 471.696,356.307 471.117,354.313 
		480.711,354.347 480.337,351.176 482.398,350.739 483.627,354.633 485.613,354.63 486.803,352.904 486.626,351.931 487.335,349.25 
		487.523,345.951 481.294,349.007 476.853,347.762 476.422,345.799 479.209,342.329 476.974,340.625 478.627,338.697 
		484.665,336.469 476.029,334.833 486.104,332.896 476.379,327.226 482.793,336.439 484.712,338.009 486.437,336.549 
		487.01,327.902 487.784,326.149 492.973,330.836 492.635,326.005 498.499,331.837 500.07,324.91 494.01,329.675 493.772,321.411 
		489.619,330.646 489.191,323.229 488.18,318.402 489.825,319.185 489.878,320.783 479.032,317.762 478.341,315.585 
		492.592,311.372 484.778,313.23 487.55,315.307 487.195,312.399 486.118,309.932 494.889,308.92 494.178,305.6 490.579,303.908 
		482.725,306.615 486.618,299.406 484.582,302.819 483.071,301.518 490.55,301.011 486.355,298.269 477.415,294.635 
		478.716,292.913 486.251,291.011 483.523,287.351 481.569,286.986 479.986,284.305 476.738,291.988 478.378,289.624 
		480.324,293.818 478.32,288.236 481.089,288.403 483.491,287.128 479.545,282.471 480.915,280.962 483.399,279.774 486.26,285.948 
		487.601,279.752 490.113,284.24 491.549,278.882 495.812,280.217 497.312,275.361 493.253,274.464 486.567,274.471 495.31,267.643 
		492.432,265.616 489.949,265.81 484.947,271.352 484.776,263.294 483.075,267.621 476.498,266.973 479.364,261.635 
		484.529,270.541 486.168,268.138 487.202,257.127 494.527,264.509 486.698,262.076 490.976,256.661 484.69,258.388 
		479.197,255.869 488.602,255.606 485.528,251.139 492.213,248.081 486.578,252.147 485.327,255.902 482.253,250.632 
		481.18,255.284 482.026,247.938 472.998,249.968 471.516,247.96 481.824,246.35 479.918,244.276 478.396,242.313 476.119,240.438 
		481.423,238.167 482.276,240.969 481.721,230.453 481.599,240.498 484.901,234.786 485.25,242.683 485.516,232.947 
		488.034,235.884 495.652,237.554 486.264,235.316 489.31,232.051 487.141,233.341 485.161,231.584 486.431,229.605 
		479.523,229.311 477.583,226.77 480.786,225.401 490.619,225.54 485.009,222.364 483.577,222.024 477.695,217.982 484.361,227.612 
		481.791,217.878 478.982,221.285 487.892,216.188 479.722,216.769 489.843,211.268 488.017,209.736 477.915,206.006 
		484.42,215.807 486.562,215.251 488.721,213.113 490.859,213.1 493.075,205.422 495.155,211.638 497.115,209.526 501.172,203.833 
		498.982,202.894 494.722,203.613 490.893,203.98 490.403,202.414 489.462,204.024 485.281,197.728 486.344,207.414 
		481.566,199.302 481.027,204.125 476.744,209.812 472.176,204.187 473.119,202.28 479.872,199.707 481.889,198.316 
		482.514,196.733 479.457,193.782 478.212,189.219 481.294,198.338 484.597,189.667 486.872,189.339 490.493,199.887 
		494.563,197.085 492.082,190.39 492.577,187.631 492.095,183.572 496.529,186.535 494.62,187.269 495.97,178.696 489.946,189.07 
		491.819,179.153 487.067,186.24 485.856,188.986 485.05,184.957 481.717,176.085 481.305,185.152 479.52,185.824 475.436,185.513 
		479.214,182.624 481.992,181.575 474.784,177.018 475.538,175.251 480.608,175.09 484.701,180.757 489.922,177.575 
		484.904,171.592 481.556,169.718 491.727,167.291 487.527,167.579 486.322,164.324 488.272,164.054 491.144,166.965 
		497.17,166.365 490.238,161.59 497.614,158.265 493.977,156.725 492.492,153.316 489.31,149.948 486.18,155.514 483.828,155.827 
		480.737,160.979 479.465,156.091 476.613,160.041 475.775,152.709 474.74,146.475 467.749,153.532 471.132,149.012 479.84,152.059 
		478.309,148.549 480.489,147.409 477.378,142.888 481.076,147.272 482.177,144.384 484.301,145.816 484.503,137.667 
		489.13,143.455 494.099,141.804 487.798,136.303 483.126,131.639 485.773,130.748 491.506,131.343 488.753,133.549 486.34,134.472 
		484.227,134.982 483.274,125.956 481.341,123.95 478.706,128.43 476.19,131.8 475.097,121.994 472.582,128.583 473.721,127.427 
		474.881,125.773 479.576,127.539 479.557,124.732 480.271,122.794 482.758,123.227 482.467,119.849 482.935,116.628 
		485.775,119.272 487.838,118.312 489.308,111.145 491.552,112.048 493.296,116.474 495.03,114.955 490.506,114.613 492.825,111.85 
		485.961,112.326 487.917,113.276 489.525,102.264 486.777,105.881 486.319,101.958 482.644,106.966 479.051,105.22 
		485.147,109.321 482.401,102.808 483.286,102.502 484.325,100.476 483.712,98.702 488.21,96.13 484.022,95.42 484.312,89.702 
		487.634,98.298 486.36,99.59 486.748,98.092 484.191,91.961 484.369,91.976 477.14,92.188 487.246,90.648 489.073,88.706 
		485.842,84.499 476.649,91.065 475.63,88.368 469.683,82.235 480.005,88.804 480.1,78.618 481.922,77.202 487.678,84.53 
		482.2,77.799 479.65,74.66 485.408,74.528 490.178,75.583 493.417,75.748 485.357,74.654 488.47,72.488 486.153,70.152 
		483.733,66.352 481.019,72.661 487.04,68.444 474.41,68.269 482.808,64.282 481.355,62.295 481.897,59.637 484.057,58.831 
		471.938,55.43 473.927,53.582 484.018,55.84 479.34,48.317 482.559,50.182 481.655,48.603 489.018,49.008 490.406,49.213 
		482.931,41.624 490.041,41.463 485.998,41.87 483.591,39.197 482.388,43.306 481.509,49.254 475.28,47.468 483.148,42.632 
		471.95,39.258 484.902,38.934 481.552,37.614 482.498,36.225 482.036,30.254 486.217,35.28 487.995,33.735 488.813,31.615 
		485.206,33.364 490.356,26.338 488.178,25.692 486.296,24.785 482.05,27.369 478.35,30.055 480.841,23.532 484.511,19.604 
		484.378,18.725 475.306,17.824 476.924,15.897 479.732,13.972 476.147,12.022 	"/>
</g>
<g>
	<polyline class="st0" points="1003.586,757.82 1005.631,757.488 1005.013,753.653 1007.015,753.127 1003.631,746.218 
		1007.813,748.318 1016.166,747.79 1007.844,745.978 1002.703,747.493 1009.762,739.573 1010.647,741.251 1001.244,735.931 
		1002.804,734.563 1006.497,734.867 1004.468,733.701 1002.685,734.423 1014.844,728.954 1009.773,726.337 1005.593,723.284 
		1004.207,727.425 1002.824,731.631 1000.599,727.695 994.814,732.344 1000.374,727.5 994.119,723.992 996.455,721.381 
		1006.863,724.851 1004.049,720.825 1000.207,712.635 1005.173,719.842 1004.668,714.45 1010.151,717.411 1005.237,713.435 
		1005.85,711.763 1007.362,714.377 1008.5,715.206 1007.264,718.994 1002.676,709.462 1001.345,712.887 1003.953,709.48 
		998.133,711.463 1001.991,710.692 997.773,707.062 1000.08,704.01 1005.124,711.115 1006.615,706.074 1007.472,703.794 
		1007.678,701.646 1000.915,700.111 1002.234,699.008 1002.656,694.846 1008.84,694.401 1005.875,690.4 1004.036,687.062 
		1013.114,687.978 1008.729,686.812 1002.212,690.397 1010.404,681.938 999.947,686.633 1003.843,682.435 1008.49,675.747 
		995.958,676.197 1003.946,678.242 1005.985,675.217 1007.969,674.791 1007.747,675.151 1013.106,677.761 1016.815,677.196 
		1014.571,674.518 1013.1,671.452 1014.378,664.988 1009.203,668.584 1010.338,662.322 1003.848,670.005 1001.534,670.371 
		1000.508,667.389 998.482,666.215 1003.393,657.519 996.802,662.001 997.37,661.016 997.626,661.281 999.291,666.6 
		1002.062,656.915 1003.47,665.747 1005.34,668.346 1010.453,665.737 1002.827,656.587 1003.321,654.688 1011.06,656.389 
		1007.813,650.598 1009.416,649.347 1016.455,653.368 1012.832,647.029 1012.902,650.453 1016.1,643.256 1013.536,646.365 
		1010.405,653.482 1009.383,645.673 1007.345,645.03 1001.428,650.656 1001.318,645.511 998.302,643.952 1000.427,643.376 
		1003.569,633.683 1000.604,636.609 998.438,636.881 996.34,636.908 994.553,635.894 999.037,638.197 993.764,630.551 
		996.436,642.696 997.829,630.61 1000.16,636.224 1001.969,631.959 1004.186,635.365 1011.932,640.83 1009.547,633.661 
		1000.308,633.574 1011.135,629.238 1008.481,627.757 1005.244,627.379 1009.388,627.522 1004.9,624.609 1003.206,625.574 
		997.097,623.513 1010.233,621.973 1003.657,619.744 1009.178,614.109 1001.147,617.994 997.681,621.327 999.571,611.853 
		994.213,619.68 995.67,614.407 996.689,619.671 998.682,618.389 1000.697,617.9 1002.653,615.421 1004.486,608.598 
		1004.085,609.731 1001.035,609.075 1013.974,612.628 1009.015,608.319 1008.571,604.921 1013.944,608.536 1017.455,609.9 
		1010.961,599.211 1015.246,602.479 1015.127,600.741 1016.06,596.766 1013.618,596.843 1010.684,597.509 1008.658,597.421 
		1006.079,599.918 1003.372,602.128 1003.437,594.746 1005.414,593.429 1004.581,592.25 1003.623,596.736 1007.734,587.916 
		1009.221,595.014 1014.877,595.697 1008.314,587.312 1014.293,588.225 1012.147,585.549 1005.372,587.494 1011.681,580.797 
		1009.355,579.795 1010.857,579.317 1012.295,580.91 1004.713,573.477 1011.848,575.682 1005.187,568.841 1005.756,574.672 
		1010.301,573.174 1007.392,569.396 1005.971,572.35 1004.254,573.98 1003.191,571.298 1008.193,572.463 1003.505,569.688 
		995.929,568.039 1002.605,565.989 1002.947,563.967 1007.271,562.559 1007.097,561.877 1001.727,558.119 1000.741,555.454 
		1002.597,555.332 1004.834,554.31 1008.255,552.618 1004.332,558.037 1002.793,555.596 1001.758,547.953 998.917,552.679 
		1005.537,550.821 1005.469,548.937 996.39,546.24 1005.273,548.463 1000.539,540.221 1005.781,549.768 1002.496,536.356 
		1010.169,548.683 1010.656,545.274 1013.721,543.732 1015.401,540.703 1006.515,533.753 1011.227,533.896 1012.252,533.443 
		1012.219,532.449 1012.052,529.79 1008.654,530.518 1009.386,525.973 1006.367,534.358 1005.359,520.602 1002.841,532.202 
		997.146,533.387 1005.972,522.029 1005.023,520.019 990.84,520.643 1001.125,521.882 996.93,514.188 1000.104,514.951 
		1008.51,519.121 1002.494,512.6 1001.593,508.497 1010.766,515.501 1002.368,510.591 1008.029,504.372 1006.123,504.488 
		1008.944,505.872 1002.19,507.145 999.106,504.481 1006.694,504.025 1006.588,501.974 1001.527,501.336 1007.524,492.492 
		1003.928,497.674 999.933,497.525 997.813,496.08 999.927,492.506 1004.059,494.052 1000.82,491.513 1003.55,489.944 
		1002.504,499.349 1008.233,489.062 1007.356,497.984 1004.473,490.563 1012.758,489.727 1006.045,493.218 1008.048,488.443 
		1008.504,485.13 1009.562,486.646 1005.875,486.467 1003.689,481.812 1008.768,483.928 1007.772,482.096 1007.358,484.266 
		1004.577,481.44 1002.5,481.626 1002.076,488.901 1000.52,482.378 1001.781,483.337 1000.447,479.963 1001.125,477.975 
		1004.357,477.75 1006.861,480.452 1006.083,475.847 1012.182,479.725 1005.084,474.626 1004.332,472.797 1010.263,469.68 
		1000.05,469.659 1011.352,464.694 997.522,463.989 1004.652,461.463 1006.23,460.311 1008.757,459.867 1002.595,456.374 
		1003.298,456.234 1007.593,453.386 1012.769,445.655 1006.715,454.251 1003.369,446.449 1002.716,455.95 995.244,450.14 
		1002.003,450.756 1003.37,458.32 1005.807,450.516 1005.726,448.18 1008.472,451.182 1004.757,445.409 1013.992,448.824 
		1004.697,450.849 1007.023,446.871 1005.512,445.546 1012.367,438.424 998.349,441.085 1008.02,440.024 1005.47,436.328 
		1006.863,435.031 1013.733,432.929 1007.183,434.765 1006.634,431.128 1003.132,433.256 1004.706,429.635 1000.183,428.683 
		1007.117,433.919 1003.716,426.789 1010.033,424.027 998.781,425.287 997.922,423.596 996.547,422.048 996.502,420.118 
		1002.915,417.44 1005.271,412.612 1007.438,420.126 1002.782,418.304 1006.039,414.6 1005.871,412.485 1007.668,408.002 
		1000.039,410.282 997.174,410.386 1000.859,403.9 993.323,405.82 995.099,401.441 999.666,404.434 998.439,399.286 
		999.957,394.614 1004.039,397.04 1005.997,399.454 1007.747,397.559 1014.976,404.635 1007.872,399.936 1007.616,398.126 
		1003.521,397.852 1011.632,391.354 1006.793,391.38 1007.658,389.336 1002.855,389.178 1006.632,383.437 1002.03,384.238 
		1000.977,381.722 1000.309,378.329 998.293,377.948 987.527,384.199 1000.071,387.389 1000.447,384.948 997.321,378.351 
		1001.12,379.955 1003.338,380.254 1004.587,379.388 1002.273,371.563 1005.377,372.942 1009.246,377.394 1009.44,371.681 
		1010.795,369.279 1020.062,374.083 1009.185,371.746 1017.904,364.583 1016.079,363.393 1011.363,361.721 1007.822,363.467 
		1005.484,360.789 1004.1,363.887 1002.989,368.663 1000.726,366.129 995.703,364.893 1006.769,360.727 1001.169,359.622 
		994.143,358.208 996.002,356.033 997.382,353.891 994.643,347.198 1002.017,345.997 1003.566,348.211 1004.676,352.729 
		1006.303,354.577 1013.489,356.995 1013.749,348.426 1005.443,350.649 1005.839,348.053 1001.777,349.158 1008.6,343.468 
		997.651,345.586 998.424,342.717 997.438,340.654 996.875,339.015 1001.536,336.708 1006.956,334.802 1002.79,332.91 
		1004.352,333.717 1002.701,324.53 1004.729,327.772 1006.792,331.556 1008.529,330.486 1007.452,324.411 1011.341,326.86 
		1011.02,322.054 1018.461,330.601 1014.488,325.469 1015.812,324.657 1013.688,324.831 1012.982,318.653 1008.874,327.683 
		1006.58,328.593 1005.72,322.599 1010.542,320.782 1001.865,317.942 1006.709,316.228 1006.641,314.06 1005.565,312.917 
		1009.207,318.432 1012.309,313.643 1008.54,310.421 1010.534,308.628 1014.172,305.701 1009.82,304.12 1013.295,298.158 
		1007.018,302.257 1005.29,302.526 1000.571,303.572 1001.054,299.109 1002.026,297.333 998.012,294.619 1011.103,295.102 
		1003.906,293.208 1004.211,287.3 1001.893,289.208 998.899,295.323 996.452,298.009 1000.593,289.227 996.907,288.879 
		998.406,287.52 999.226,285.336 1002,285.451 996.995,281.001 1001.916,281.108 1006.615,283.35 1005.766,275.243 1008.5,281.756 
		1010.959,285.763 1012.798,284.067 1011.283,277.268 1014.03,276.731 1017.486,273.235 1015.521,271.609 1014.349,268.749 
		1010.211,269.298 1004.639,273.414 1004.56,274.255 1005.499,265.418 1000.602,270.89 997.447,266.903 999.793,261.494 
		1005.03,268.032 1006.409,261.928 1008.552,266.639 1017.036,265.136 1004.977,263.7 1002.926,262.566 1001.971,260.687 
		1004.323,255.843 1004.838,252.898 1005.377,250.633 1013.595,247.719 1007.04,251.07 1004.839,250.122 1003.404,252.968 
		1001.816,255.07 994.951,257.193 995.756,250.039 998.966,248.19 993.804,246.055 1003.449,244.25 997.38,242.401 997.086,240.422 
		1005.141,238.011 1003.656,241.808 1000.035,241.333 1002.853,237.85 1004.018,241.979 1007.029,237.622 1011.845,244.435 
		1008.189,235.599 1005.832,231.835 1015.816,230.811 1010.318,226.809 1008.294,225.811 1005.545,236.272 1000.615,234.579 
		997.432,228.679 1010.594,229.582 999.909,225.045 1010.535,225.366 999.63,225.171 1005.165,219.21 1000.078,219.23 
		1004.576,214.998 1004.155,219.083 1000.505,221.004 1010.536,215.537 1009.136,213.865 1002.896,213.803 1003.043,211.615 
		1004.354,210.515 1005.231,202.705 1007.278,211.592 1009.441,209.056 1011.52,215.016 1013.734,207.427 1015.832,211.884 
		1015.319,208.269 1021.644,204 1010.993,209.855 1016.288,202.901 1010.261,205.034 1012.556,197.748 1009.437,201.875 
		1006.994,200.879 1006.069,204.503 1001.527,197.113 1000.695,201.042 1001.737,201.828 993.937,204.065 992.418,202.438 
		993.641,200.496 1005.566,198.532 999.709,195.945 1000.541,193.874 1000.522,191.547 1002.005,198.082 1004.495,195.989 
		1006.381,198.814 1010.5,197.211 1010.477,190.766 1012.122,189.542 1011.094,184.763 1013.479,184.507 1024.392,186.237 
		1016.995,182.915 1013.228,187.486 1011.76,186.161 1011.137,182.652 1007.779,186.159 1007.798,176.927 1005.104,181.117 
		1004.481,188.869 1000.983,179.018 1000.541,187.92 997.059,184.752 1000.223,182.739 1002.37,181.469 1004.735,180.27 
		993.822,174.41 1003.085,177.169 1002.653,171.755 1002.412,170.982 1004.482,171.637 1007.798,169.492 1010.734,167.358 
		1007.094,166.799 1008.267,168.722 1009.945,167.501 1011.12,164.527 1006.93,159.928 1008.883,161.92 1015.029,158.794 
		1010.073,157.469 1013.184,153.304 1009.776,151.353 1006.274,159.364 1004.834,153.855 1003.052,151.847 1001.742,147.163 
		998.331,154.23 995.425,158.468 993.814,155.443 991.569,152.175 992.028,149.151 992.713,147.064 993.786,145.221 
		1001.023,147.316 1001.752,147.426 1001.771,147.316 1003.773,146.945 1003.325,139.266 1004.916,135.851 1009.979,143.685 
		1014.115,141.461 1006.889,135.483 1006.595,133.079 1016.089,135.723 1016.819,128.774 1010.825,126.51 1008.77,125.63 
		1004.943,134.741 1003.384,131.226 1001.588,127.949 999.987,122.865 996.857,131.929 994.802,131.006 997.27,126.803 
		989.574,122.752 999.948,130.023 1000.252,127.534 995.161,119.815 998.962,120.581 1000.702,119.678 1007.234,125.149 
		1006.58,124.663 1006.631,121.118 1009.155,124.983 1010.966,121.389 1012.624,116.157 1020.54,121.668 1020.387,113.304 
		1012.215,114.249 1006.587,114.293 1012.334,110.315 1010.231,110.884 1008.796,114.699 1007.484,105.634 1003.121,112.706 
		1006.161,103.312 1004.438,106.015 1003.252,103.567 1004.971,103.832 998.438,103.361 997.731,101.605 1008.214,98.108 
		1003.448,96.976 1002.647,93.996 1006.178,96.49 1007.879,95.808 1008.924,95.187 1007.218,94.445 1004.911,92.671 
		1005.149,91.862 1000.168,92.301 996.694,90.106 997.101,88.096 1001.308,87.417 998.979,88.55 998.064,85.691 1001.375,82.691 
		998.482,77.603 1002.445,87.097 1002.316,75.751 1008.942,85.25 1012.902,81.767 1012.382,79.43 1005.22,74.025 1005.826,71.525 
		1012.206,74.223 1009.963,71.855 1008.619,64.668 1006.706,68.287 1005.099,76.463 1004.467,69.271 995.359,70.492 
		1002.041,67.118 1005.93,63.468 1005.567,60.409 1003.552,59.116 992.073,60.029 992.029,55.271 1006.756,56.864 1000.031,52.518 
		1002.363,52.472 1003.287,50.269 1003.086,48.951 1010.763,49.272 1010.888,49.081 1009.338,45.416 1002.274,45.168 
		1006.383,40.226 1005.144,44.099 1003.062,43.274 999.915,36.484 1001.193,42.096 992.848,41.243 994.047,39.437 1001.857,38.463 
		1003.999,38.81 1004.854,38.654 1007.229,39.817 1006.018,31.887 1009.241,35.921 1015.949,34.175 1009.438,30.268 1009.609,27.58 
		1008.82,25.725 1003.338,27.955 1003.146,26.572 1002.776,25.22 1007.675,20.532 1001.427,21.439 1005.213,18.691 1000.173,17.841 
		1003.036,15.918 1005.179,13.99 1001.645,12.042 	"/>
</g>
</svg>
