<?xml version="1.0" encoding="utf-8"?>
<!-- Generator: Adobe Illustrator 15.0.0, SVG Export Plug-In . SVG Version: 6.00 Build 0)  -->
<!DOCTYPE svg PUBLIC "-//W3C//DTD SVG 1.1//EN" "http://www.w3.org/Graphics/SVG/1.1/DTD/svg11.dtd">
<svg version="1.1" id="Layer_1" xmlns="http://www.w3.org/2000/svg" xmlns:xlink="http://www.w3.org/1999/xlink" x="0px" y="0px"
	 width="1024px" height="768px" viewBox="0 0 1024 768" style="enable-background:new 0 0 1024 768;" xml:space="preserve">
<style type="text/css">
<![CDATA[
	.st0{fill:none;stroke:#FF5F9F;stroke-miterlimit:10;}
]]>
</style>
<polyline class="st0" points="341.254,754.153 345.624,750.828 349.786,747.284 345.025,741.126 350.064,734.713 348.42,728.649 
	339.432,729.576 340.697,722.793 343.716,718.104 347.466,718.019 350.206,711.462 339.905,714.056 342.587,706.465 
	346.715,705.701 348.18,699.459 346.367,694.908 350.307,688.251 346.589,684.262 346.61,683.352 342.434,678.311 350.318,678.487 
	352.685,671.804 347.377,668.07 342.185,665.558 336.106,660.252 348.389,661.156 350.879,655.94 357.912,648.7 345.406,646.934 
	344.034,640.599 332.542,637.146 346.736,636.395 344.665,626.616 347.279,625.582 343.513,625.717 343.79,617.733 334.957,614.034 
	347.126,613.677 349.479,608.322 356.516,602.48 349.486,596.637 343.211,595.204 343.889,590.919 348.79,592.23 352.449,588.183 
	346.627,579.363 352.292,570.722 342.398,572.907 343.481,567.81 342.056,562.388 343.828,556.453 344.067,556.252 347.06,552.843 
	340.034,552.163 340.7,544.702 345.713,542.937 350.906,540.424 354.7,533.153 349.039,527.758 341.762,527.325 338.405,521.596 
	343.122,517.235 346.317,512.725 349.827,510.039 344.196,509.489 346.207,499.771 343.482,498.482 339.455,490.46 351.206,494.504 
	344.028,486.926 349.249,481.328 339.189,483.681 344.938,475.373 348.197,476.093 346.364,466.553 345.146,463.817 
	349.629,457.839 348.79,450.971 340.468,452.267 348.003,452.79 351.645,448.725 346.094,440.709 349.901,434.457 344.532,432.119 
	342.646,429.156 345.66,427.338 342.6,416.571 346.5,417.601 343.684,417.565 341.965,411.577 336.413,406.052 342.877,401.445 
	350.222,401.085 347.582,394.493 345.679,392.462 343.437,386.998 334.341,382.945 341.47,376.93 346.37,374.123 354.187,371.388 
	350.374,364.658 341.137,366.188 339.999,359.831 339.387,351.737 348.939,353.583 346.051,348.273 344.597,347.326 
	342.442,341.773 341.786,336.721 341.768,331.009 349.006,330.541 358.239,325.174 346.31,322.505 347.012,314.096 345.786,313.609 
	348.466,314.598 350.154,308.58 349.192,302.057 344.144,301.561 345.917,292.081 336.097,290.507 342.321,285.345 344.731,280.048 
	354.719,278.953 351.872,270.724 347.561,267.328 344.435,267.392 343.35,263.264 350.549,262.756 345.867,255.836 349.323,250.163 
	339.666,252.114 339.932,244.286 339.521,236.327 349.369,238.468 352.493,232.733 344.168,232.209 346.445,222.226 
	343.193,221.175 347.326,221.023 343.489,209.479 358.456,209.629 351.857,201.413 340.388,205.174 339.576,198.068 
	341.033,191.621 349.828,192.708 358.035,186.52 347.675,182.485 338.464,183.988 341.632,174.958 346.121,173.599 345.793,165.565 
	353.289,163.406 351.941,155.109 345.253,154.091 332.764,151.856 338.508,142.878 344.183,140.846 347.951,140.293 
	352.543,131.399 346.108,130.126 333.351,128.747 340.306,121.566 344.658,118.211 355.34,117.19 352.287,108.546 345.364,107.762 
	342.62,105.63 345.977,104.128 344.558,95.002 349.857,94.077 343.268,94.456 343.658,86.358 337.813,82.525 345.894,80.937 
	348.079,75.415 351.664,70.97 343.062,71.553 341.967,64.941 339.016,59.415 340.816,52.75 345.744,49.971 345.511,47.855 
	349.155,42.351 339.778,44.021 340.753,36.304 344.734,33.559 350.855,31.973 344.556,24.746 343.442,24.955 340.915,19.774 
	340.946,12.037 "/>
<polyline class="st0" points="861.934,754.153 866.303,750.828 870.466,747.284 865.705,741.126 870.744,734.713 869.1,728.649 
	860.111,729.576 861.377,722.793 864.396,718.104 868.146,718.019 870.885,711.462 860.584,714.056 863.268,706.465 
	867.395,705.701 868.859,699.459 867.047,694.908 870.986,688.251 867.269,684.262 867.29,683.352 863.113,678.311 870.998,678.487 
	873.364,671.804 868.057,668.07 862.864,665.558 856.785,660.252 869.068,661.156 871.559,655.94 878.592,648.7 866.086,646.934 
	864.714,640.599 853.222,637.146 867.416,636.395 865.345,626.616 867.959,625.582 864.193,625.717 864.47,617.733 855.637,614.034 
	867.807,613.677 870.158,608.322 877.195,602.48 870.166,596.637 863.891,595.204 864.568,590.919 869.47,592.23 873.129,588.183 
	867.307,579.363 872.971,570.722 863.078,572.907 864.161,567.81 862.735,562.388 864.508,556.453 864.746,556.252 867.74,552.843 
	860.713,552.163 861.38,544.702 866.393,542.937 871.586,540.424 875.38,533.153 869.719,527.758 862.441,527.325 859.085,521.596 
	863.802,517.235 866.997,512.725 870.507,510.039 864.876,509.489 866.887,499.771 864.162,498.482 860.135,490.46 871.886,494.504 
	864.707,486.926 869.929,481.328 859.869,483.681 865.617,475.373 868.877,476.093 867.044,466.553 865.826,463.817 
	870.309,457.839 869.47,450.971 861.147,452.267 868.684,452.79 872.324,448.725 866.773,440.709 870.581,434.457 865.211,432.119 
	863.326,429.156 866.34,427.338 863.279,416.571 867.18,417.601 864.363,417.565 862.645,411.577 857.092,406.052 863.557,401.445 
	870.902,401.085 868.262,394.493 866.359,392.462 864.116,386.998 855.021,382.945 862.149,376.93 867.049,374.123 874.866,371.388 
	871.054,364.658 861.816,366.188 860.679,359.831 860.066,351.737 869.619,353.583 866.73,348.273 865.277,347.326 863.122,341.773 
	862.465,336.721 862.447,331.009 869.686,330.541 878.919,325.174 866.989,322.505 867.691,314.096 866.465,313.609 
	869.146,314.598 870.834,308.58 869.872,302.057 864.824,301.561 866.596,292.081 856.776,290.507 863.001,285.345 865.411,280.048 
	875.398,278.953 872.552,270.724 868.24,267.328 865.114,267.392 864.029,263.264 871.229,262.756 866.547,255.836 870.003,250.163 
	860.346,252.114 860.611,244.286 860.201,236.327 870.049,238.468 873.172,232.733 864.848,232.209 867.125,222.226 
	863.873,221.175 868.006,221.023 864.169,209.479 879.135,209.629 872.537,201.413 861.067,205.174 860.256,198.068 
	861.713,191.621 870.508,192.708 878.715,186.52 868.354,182.485 859.145,183.988 862.312,174.958 866.801,173.599 866.473,165.565 
	873.969,163.406 872.621,155.109 865.933,154.091 853.443,151.856 859.188,142.878 864.863,140.846 868.631,140.293 
	873.223,131.399 866.788,130.126 854.031,128.747 860.985,121.566 865.338,118.211 876.02,117.19 872.967,108.546 866.043,107.762 
	863.299,105.63 866.656,104.128 865.237,95.002 870.537,94.077 863.947,94.456 864.338,86.358 858.492,82.525 866.574,80.937 
	868.759,75.415 872.344,70.97 863.741,71.553 862.646,64.941 859.695,59.415 861.496,52.75 866.424,49.971 866.191,47.855 
	869.834,42.351 860.457,44.021 861.434,36.304 865.414,33.559 871.535,31.973 865.236,24.746 864.121,24.955 861.595,19.774 
	861.625,12.037 "/>
<g>
	<polyline class="st0" points="460.615,754.83 462.247,753.955 459.473,747.286 465.858,752.553 467.355,751.409 466.788,747.93 
		467.358,747.189 468.436,744.982 470.693,740.777 465.156,742.597 469.609,741.244 463.295,738.088 464.246,736.241 
		470.549,738.597 462.692,733.488 473.916,731.189 460.897,732.547 466.378,729.783 465.56,729.699 463.586,728.139 462.57,735.906 
		460.657,734.996 457.424,730.145 465.506,728.587 456.179,724.507 464.445,724.622 457.138,719.036 465.943,722.493 
		461.761,716.666 464.569,723.865 465.135,716.222 462.422,714.473 467.327,714.598 461.906,710.405 470.83,709.288 
		468.592,718.325 465.512,714.794 463.573,715.785 459.144,706.907 453.63,719.253 461.004,712.723 457.809,709.459 458.966,707.73 
		464.351,709.962 463.282,704.919 466.902,707.092 464.613,703.286 468.356,701.968 464.975,699.656 472.273,694.731 
		463.63,694.878 470.975,696.076 462.349,688.725 463.021,686.873 462.298,688.826 463.238,691.281 467.526,684.798 
		461.371,686.472 462.905,684.701 463.403,682.222 465.386,677.744 465.002,679.62 463.091,685.478 465.222,678.282 
		467.242,676.232 471.833,682.699 467.266,675.939 466.339,673.731 471.727,673.756 467.758,673.324 465.586,676.5 465.508,672.85 
		465.296,669.629 462.917,670.492 465.509,660.72 460.295,666.663 458.928,664.907 454.975,666.369 460.086,657.441 
		456.698,661.024 456.743,663.835 459.111,659.613 460.713,665.792 462.978,662.984 464.891,665 470.531,667.141 473.804,662.16 
		463.049,654.889 475.771,660.184 475.266,658.51 471.606,652.147 475.649,653.26 478.26,652.978 480.407,647.295 474.114,652.396 
		472.414,649.395 471.097,643.67 468.268,648.651 465.926,650.158 468.98,641.931 459.76,645.698 470.168,641.232 467.37,636.639 
		461.91,636.889 459.491,637.996 458.45,634.526 455.719,636.66 452.496,640.423 451.463,637.157 453.164,632.376 455.803,643.879 
		457.55,638.463 459.213,631.464 461.348,633.372 463.461,634.8 460.672,632.541 459.082,635.729 460.507,633.386 464.227,630.557 
		465.285,628.286 468.394,630.206 471.783,629.859 464.288,626.915 462.6,625.49 459.442,623.619 468.048,621.921 457.151,619.543 
		459.505,619.673 459.185,621.02 457.29,620.601 457.423,615.322 457.75,609.577 455.208,614.482 455.947,618.047 457.667,607.542 
		459.794,610.847 461.937,614.695 463.94,613.679 462.768,608.782 465.127,611.178 461.959,607.656 472.368,611.321 
		467.619,604.611 471.183,606.047 472.186,604.392 477.348,607.74 470.969,602.472 470.261,605.759 472.451,600.271 
		474.045,595.493 466.958,601.154 468.474,596.336 466.264,596.067 463.987,596.395 465.396,592.97 466.231,593.668 
		462.332,590.454 464.149,592.167 464.748,596.477 467.872,592.968 473.306,594.906 469.803,589.286 470.491,588.168 
		467.038,588.462 466.436,586.334 465.797,584.223 460.921,584.905 471.576,579.303 465.001,576.586 471.519,578.392 
		470.769,575.43 466.458,570.129 465.035,574.689 468.057,566.162 467.279,572.028 465.321,572.553 463.59,574.12 461.351,572.771 
		455.51,569.915 460.296,569.155 466.374,567.679 457.39,567.178 463.465,563.647 467.308,562.582 466.21,561.821 458.806,557.454 
		463.15,556.635 466.55,559.562 467.109,556.917 469.412,552.365 464.19,552.3 461.79,558.779 459.928,559.678 460.407,550.965 
		454.204,549.87 453.047,547.887 455.826,546.253 463.476,547.641 460.855,543.091 464.139,547.077 467.398,549.708 
		464.213,537.812 465.482,536.017 465.836,536.469 469.736,538.108 469.859,535.861 470.173,533.709 478.814,532.385 
		471.771,532.189 471.298,529.853 468.151,530.316 466.481,530.87 465.677,534.266 464.042,531.055 462.408,527.808 
		457.437,531.947 462.921,523.406 456.652,524.515 455.086,521.306 462.884,524.537 465.25,523.941 465.464,520.354 463.59,516.128 
		467.745,516.812 464.86,512.424 470.959,516.662 466.674,510.196 466.228,515.704 465.333,505.449 467.81,506.178 469.979,508.9 
		459.988,504.808 460.432,502.874 457.888,500.317 470.8,497.642 461.425,503.916 466.155,495.061 455.061,499.621 462.655,493.301 
		456.367,493.943 453.324,486.924 461.341,487.98 464.177,486.104 462.476,497.409 464.695,497.324 468.576,492.418 
		469.491,494.151 469.838,491.833 462.252,496.151 467.253,488.539 463.958,488.778 468.32,486.671 462.597,484.058 
		467.146,485.684 464.592,480.682 473.178,477.492 467.361,487.253 463.419,479.464 462.783,485.811 459.174,479.468 
		458.175,483.579 460.729,483.09 459.282,479.638 467.37,482.776 465.665,479.136 465.399,478.816 466.67,470.041 461.505,471.567 
		461.062,475.266 472.661,471.063 466.052,470.354 466.034,468.376 465.125,466.582 470.227,463.67 468.193,464.638 
		471.371,464.688 471.067,462.121 467.612,457.646 467.332,455.657 462.65,453.905 465.026,454.099 464.508,444.554 
		462.994,448.508 461.778,454.392 460.936,452.992 461.105,453.661 463.3,449.316 464.576,458.234 467.47,454.362 463.697,447.526 
		472.574,453.033 466.205,448.572 468.381,447.816 469.654,444.568 469.863,442.051 470.26,439.399 457.831,441.074 468.386,440.67 
		464.589,436.216 464.231,433.852 467.712,434.826 467.878,431.568 467.294,428.018 464.748,430.463 465.679,428.573 
		464.544,429.876 463.311,428.764 458.082,424.963 460.479,426.547 466.287,422.958 461.277,422.445 464.854,419.488 
		465.282,417.424 458.125,412.846 463.335,417.316 464.426,415.937 465.757,412.176 460.731,415.923 455.657,415.218 
		457.987,413.215 458.861,410.768 456.846,410.017 455.069,409.021 452.939,405.849 459.712,408.892 461.89,408.528 
		463.257,407.022 463.675,406.863 463.475,399.728 465.156,396.503 467.436,405.375 474.375,404.699 465.863,400.462 
		463.938,399.321 472.234,394.083 470.871,391.399 468.275,389.882 468.419,388.738 458.711,390.594 461.325,387.932 
		461.168,384.61 461.341,379.342 455.717,387.069 454.178,385.622 457.885,382.017 450.384,376.734 459.875,385.095 
		460.324,382.735 455.931,374.631 459.557,375.844 461.463,375.15 467.234,381.434 468.045,380.39 468.2,376.389 471.502,379.564 
		472.333,375.666 471.889,370.901 478.361,366.153 476.772,364.831 468.84,367.099 466.191,370.808 467.393,365.074 
		465.994,368.062 464.738,371.942 461.44,363.508 456.67,370.268 463.822,363.316 461.499,361.544 457.419,360.014 458.072,357.856 
		451.68,356.307 451.101,354.313 460.695,354.347 460.321,351.176 462.383,350.739 463.612,354.633 465.598,354.63 466.787,352.904 
		466.61,351.931 467.319,349.25 467.508,345.951 461.278,349.007 456.837,347.762 456.406,345.799 459.193,342.329 456.958,340.625 
		458.612,338.697 464.649,336.469 456.014,334.833 466.088,332.896 456.363,327.226 462.778,336.439 464.696,338.009 
		466.421,336.549 466.994,327.902 467.768,326.149 472.957,330.836 472.62,326.005 478.483,331.837 480.055,324.91 473.994,329.675 
		473.756,321.411 469.603,330.646 469.175,323.229 468.165,318.402 469.809,319.185 469.862,320.783 459.017,317.762 
		458.325,315.585 472.576,311.372 464.763,313.23 467.534,315.307 467.179,312.399 466.103,309.932 474.873,308.92 474.163,305.6 
		470.563,303.908 462.709,306.615 466.602,299.406 464.566,302.819 463.056,301.518 470.534,301.011 466.339,298.269 
		457.399,294.635 458.701,292.913 466.236,291.011 463.508,287.351 461.553,286.986 459.971,284.305 456.722,291.988 
		458.362,289.624 460.309,293.818 458.305,288.236 461.073,288.403 463.476,287.128 459.529,282.471 460.899,280.962 
		463.383,279.774 466.245,285.948 467.585,279.752 470.097,284.24 471.534,278.882 475.796,280.217 477.297,275.361 
		473.237,274.464 466.552,274.471 475.294,267.643 472.417,265.616 469.934,265.81 464.931,271.352 464.761,263.294 463.06,267.621 
		456.482,266.973 459.348,261.635 464.513,270.541 466.153,268.138 467.187,257.127 474.511,264.509 466.683,262.076 
		470.96,256.661 464.675,258.388 459.182,255.869 468.586,255.606 465.513,251.139 472.197,248.081 466.562,252.147 
		465.311,255.902 462.237,250.632 461.165,255.284 462.011,247.938 452.982,249.968 451.5,247.96 461.809,246.35 459.903,244.276 
		458.381,242.313 456.104,240.438 461.408,238.167 462.26,240.969 461.705,230.453 461.583,240.498 464.886,234.786 
		465.234,242.683 465.5,232.947 468.019,235.884 475.637,237.554 466.248,235.316 469.294,232.051 467.125,233.341 465.145,231.584 
		466.416,229.605 459.508,229.311 457.567,226.77 460.771,225.401 470.604,225.54 464.993,222.364 463.561,222.024 457.68,217.982 
		464.345,227.612 461.775,217.878 458.967,221.285 467.876,216.188 459.706,216.769 469.828,211.268 468.001,209.736 
		457.899,206.006 464.404,215.807 466.546,215.251 468.706,213.113 470.843,213.1 473.06,205.422 475.139,211.638 477.099,209.526 
		481.157,203.833 478.967,202.894 474.706,203.613 470.877,203.98 470.387,202.414 469.446,204.024 465.266,197.728 
		466.329,207.414 461.55,199.302 461.011,204.125 456.728,209.812 452.16,204.187 453.104,202.28 459.856,199.707 461.873,198.316 
		462.499,196.733 459.441,193.782 458.197,189.219 461.279,198.338 464.582,189.667 466.856,189.339 470.478,199.887 
		474.547,197.085 472.066,190.39 472.561,187.631 472.079,183.572 476.513,186.535 474.604,187.269 475.955,178.696 469.931,189.07 
		471.803,179.153 467.051,186.24 465.841,188.986 465.035,184.957 461.701,176.085 461.289,185.152 459.504,185.824 455.42,185.513 
		459.199,182.624 461.976,181.575 454.769,177.018 455.522,175.251 460.593,175.09 464.685,180.757 469.906,177.575 
		464.889,171.592 461.54,169.718 471.711,167.291 467.512,167.579 466.306,164.324 468.257,164.054 471.128,166.965 
		477.154,166.365 470.223,161.59 477.598,158.265 473.961,156.725 472.476,153.316 469.294,149.948 466.165,155.514 
		463.812,155.827 460.722,160.979 459.45,156.091 456.597,160.041 455.76,152.709 454.724,146.475 447.733,153.532 451.116,149.012 
		459.824,152.059 458.293,148.549 460.473,147.409 457.362,142.888 461.061,147.272 462.162,144.384 464.285,145.816 
		464.487,137.667 469.115,143.455 474.083,141.804 467.782,136.303 463.11,131.639 465.757,130.748 471.49,131.343 468.737,133.549 
		466.325,134.472 464.211,134.982 463.258,125.956 461.325,123.95 458.69,128.43 456.175,131.8 455.082,121.994 452.566,128.583 
		453.706,127.427 454.865,125.773 459.56,127.539 459.542,124.732 460.256,122.794 462.742,123.227 462.452,119.849 
		462.919,116.628 465.759,119.272 467.822,118.312 469.292,111.145 471.537,112.048 473.281,116.474 475.015,114.955 
		470.49,114.613 472.81,111.85 465.945,112.326 467.901,113.276 469.509,102.264 466.761,105.881 466.303,101.958 462.628,106.966 
		459.035,105.22 465.132,109.321 462.385,102.808 463.27,102.502 464.31,100.476 463.697,98.702 468.194,96.13 464.006,95.42 
		464.297,89.702 467.619,98.298 466.344,99.59 466.732,98.092 464.175,91.961 464.353,91.976 457.124,92.188 467.23,90.648 
		469.058,88.706 465.827,84.499 456.634,91.065 455.615,88.368 449.667,82.235 459.99,88.804 460.084,78.618 461.906,77.202 
		467.663,84.53 462.185,77.799 459.634,74.66 465.393,74.528 470.163,75.583 473.401,75.748 465.341,74.654 468.455,72.488 
		466.137,70.152 463.717,66.352 461.003,72.661 467.024,68.444 454.395,68.269 462.792,64.282 461.34,62.295 461.881,59.637 
		464.042,58.831 451.922,55.43 453.912,53.582 464.002,55.84 459.325,48.317 462.543,50.182 461.639,48.603 469.002,49.008 
		470.391,49.213 462.915,41.624 470.025,41.463 465.982,41.87 463.576,39.197 462.373,43.306 461.494,49.254 455.265,47.468 
		463.132,42.632 451.935,39.258 464.887,38.934 461.537,37.614 462.482,36.225 462.021,30.254 466.201,35.28 467.979,33.735 
		468.798,31.615 465.19,33.364 470.34,26.338 468.162,25.692 466.28,24.785 462.035,27.369 458.334,30.055 460.826,23.532 
		464.495,19.604 464.362,18.725 455.291,17.824 456.908,15.897 459.716,13.972 456.131,12.022 	"/>
</g>
<g>
	<polyline class="st0" points="983.57,757.82 985.615,757.488 984.997,753.653 986.999,753.127 983.615,746.218 987.798,748.318 
		996.15,747.79 987.828,745.978 982.688,747.493 989.746,739.573 990.632,741.251 981.229,735.931 982.788,734.563 986.481,734.867 
		984.452,733.701 982.669,734.423 994.828,728.954 989.758,726.337 985.577,723.284 984.191,727.425 982.809,731.631 
		980.583,727.695 974.799,732.344 980.358,727.5 974.104,723.992 976.439,721.381 986.848,724.851 984.033,720.825 980.191,712.635 
		985.157,719.842 984.652,714.45 990.136,717.411 985.222,713.435 985.834,711.763 987.347,714.377 988.484,715.206 
		987.248,718.994 982.66,709.462 981.329,712.887 983.938,709.48 978.117,711.463 981.976,710.692 977.758,707.062 980.064,704.01 
		985.108,711.115 986.6,706.074 987.456,703.794 987.662,701.646 980.899,700.111 982.219,699.008 982.641,694.846 988.824,694.401 
		985.859,690.4 984.021,687.062 993.099,687.978 988.714,686.812 982.196,690.397 990.389,681.938 979.932,686.633 983.827,682.435 
		988.475,675.747 975.942,676.197 983.931,678.242 985.97,675.217 987.953,674.791 987.731,675.151 993.091,677.761 996.8,677.196 
		994.556,674.518 993.084,671.452 994.362,664.988 989.188,668.584 990.322,662.322 983.832,670.005 981.519,670.371 
		980.492,667.389 978.467,666.215 983.377,657.519 976.786,662.001 977.354,661.016 977.61,661.281 979.275,666.6 982.047,656.915 
		983.454,665.747 985.324,668.346 990.438,665.737 982.812,656.587 983.306,654.688 991.044,656.389 987.798,650.598 989.4,649.347 
		996.439,653.368 992.816,647.029 992.887,650.453 996.084,643.256 993.521,646.365 990.39,653.482 989.367,645.673 987.329,645.03 
		981.412,650.656 981.303,645.511 978.286,643.952 980.411,643.376 983.554,633.683 980.588,636.609 978.422,636.881 
		976.324,636.908 974.537,635.894 979.021,638.197 973.748,630.551 976.42,642.696 977.813,630.61 980.145,636.224 981.953,631.959 
		984.17,635.365 991.916,640.83 989.531,633.661 980.292,633.574 991.119,629.238 988.466,627.757 985.229,627.379 989.372,627.522 
		984.885,624.609 983.19,625.574 977.081,623.513 990.218,621.973 983.642,619.744 989.162,614.109 981.132,617.994 
		977.665,621.327 979.556,611.853 974.197,619.68 975.654,614.407 976.674,619.671 978.666,618.389 980.682,617.9 982.638,615.421 
		984.471,608.598 984.069,609.731 981.02,609.075 993.958,612.628 988.999,608.319 988.556,604.921 993.929,608.536 997.439,609.9 
		990.945,599.211 995.23,602.479 995.111,600.741 996.044,596.766 993.603,596.843 990.668,597.509 988.643,597.421 
		986.063,599.918 983.356,602.128 983.421,594.746 985.398,593.429 984.565,592.25 983.607,596.736 987.719,587.916 
		989.205,595.014 994.861,595.697 988.299,587.312 994.277,588.225 992.132,585.549 985.356,587.494 991.665,580.797 
		989.34,579.795 990.842,579.317 992.279,580.91 984.697,573.477 991.832,575.682 985.171,568.841 985.74,574.672 990.285,573.174 
		987.376,569.396 985.955,572.35 984.238,573.98 983.176,571.298 988.178,572.463 983.489,569.688 975.913,568.039 982.59,565.989 
		982.932,563.967 987.255,562.559 987.081,561.877 981.711,558.119 980.726,555.454 982.581,555.332 984.818,554.31 
		988.239,552.618 984.316,558.037 982.777,555.596 981.742,547.953 978.901,552.679 985.521,550.821 985.453,548.937 
		976.374,546.24 985.258,548.463 980.523,540.221 985.766,549.768 982.48,536.356 990.153,548.683 990.641,545.274 993.705,543.732 
		995.386,540.703 986.499,533.753 991.211,533.896 992.236,533.443 992.203,532.449 992.036,529.79 988.639,530.518 989.37,525.973 
		986.352,534.358 985.344,520.602 982.825,532.202 977.131,533.387 985.956,522.029 985.008,520.019 970.824,520.643 
		981.109,521.882 976.914,514.188 980.088,514.951 988.494,519.121 982.479,512.6 981.577,508.497 990.75,515.501 982.353,510.591 
		988.014,504.372 986.107,504.488 988.929,505.872 982.175,507.145 979.091,504.481 986.679,504.025 986.572,501.974 
		981.512,501.336 987.509,492.492 983.912,497.674 979.917,497.525 977.798,496.08 979.911,492.506 984.043,494.052 
		980.805,491.513 983.534,489.944 982.488,499.349 988.218,489.062 987.341,497.984 984.457,490.563 992.742,489.727 
		986.029,493.218 988.032,488.443 988.488,485.13 989.546,486.646 985.859,486.467 983.674,481.812 988.752,483.928 
		987.757,482.096 987.343,484.266 984.562,481.44 982.484,481.626 982.061,488.901 980.504,482.378 981.766,483.337 
		980.432,479.963 981.109,477.975 984.342,477.75 986.846,480.452 986.067,475.847 992.166,479.725 985.068,474.626 
		984.316,472.797 990.247,469.68 980.034,469.659 991.336,464.694 977.507,463.989 984.637,461.463 986.215,460.311 
		988.741,459.867 982.579,456.374 983.282,456.234 987.577,453.386 992.753,445.655 986.699,454.251 983.354,446.449 982.7,455.95 
		975.229,450.14 981.987,450.756 983.354,458.32 985.791,450.516 985.71,448.18 988.456,451.182 984.741,445.409 993.977,448.824 
		984.682,450.849 987.008,446.871 985.496,445.546 992.352,438.424 978.333,441.085 988.004,440.024 985.454,436.328 
		986.848,435.031 993.718,432.929 987.167,434.765 986.618,431.128 983.116,433.256 984.69,429.635 980.167,428.683 
		987.102,433.919 983.7,426.789 990.018,424.027 978.766,425.287 977.906,423.596 976.531,422.048 976.486,420.118 982.899,417.44 
		985.256,412.612 987.423,420.126 982.767,418.304 986.023,414.6 985.855,412.485 987.652,408.002 980.023,410.282 977.158,410.386 
		980.844,403.9 973.308,405.82 975.083,401.441 979.65,404.434 978.424,399.286 979.941,394.614 984.023,397.04 985.981,399.454 
		987.731,397.559 994.96,404.635 987.856,399.936 987.601,398.126 983.505,397.852 991.616,391.354 986.777,391.38 987.643,389.336 
		982.84,389.178 986.616,383.437 982.015,384.238 980.961,381.722 980.293,378.329 978.277,377.948 967.512,384.199 
		980.056,387.389 980.432,384.948 977.306,378.351 981.104,379.955 983.322,380.254 984.571,379.388 982.258,371.563 
		985.361,372.942 989.23,377.394 989.425,371.681 990.779,369.279 1000.047,374.083 989.169,371.746 997.889,364.583 
		996.063,363.393 991.348,361.721 987.807,363.467 985.469,360.789 984.084,363.887 982.974,368.663 980.71,366.129 
		975.688,364.893 986.753,360.727 981.153,359.622 974.127,358.208 975.986,356.033 977.366,353.891 974.627,347.198 
		982.001,345.997 983.551,348.211 984.66,352.729 986.287,354.577 993.474,356.995 993.733,348.426 985.428,350.649 
		985.823,348.053 981.762,349.158 988.584,343.468 977.636,345.586 978.408,342.717 977.422,340.654 976.859,339.015 
		981.521,336.708 986.94,334.802 982.774,332.91 984.336,333.717 982.686,324.53 984.713,327.772 986.776,331.556 988.514,330.486 
		987.437,324.411 991.325,326.86 991.004,322.054 998.445,330.601 994.473,325.469 995.797,324.657 993.672,324.831 
		992.967,318.653 988.858,327.683 986.564,328.593 985.704,322.599 990.526,320.782 981.85,317.942 986.693,316.228 986.625,314.06 
		985.55,312.917 989.191,318.432 992.293,313.643 988.524,310.421 990.519,308.628 994.156,305.701 989.805,304.12 993.279,298.158 
		987.002,302.257 985.274,302.526 980.556,303.572 981.038,299.109 982.011,297.333 977.996,294.619 991.087,295.102 
		983.891,293.208 984.195,287.3 981.877,289.208 978.884,295.323 976.437,298.009 980.577,289.227 976.892,288.879 978.391,287.52 
		979.21,285.336 981.984,285.451 976.979,281.001 981.9,281.108 986.6,283.35 985.75,275.243 988.484,281.756 990.943,285.763 
		992.782,284.067 991.268,277.268 994.015,276.731 997.471,273.235 995.506,271.609 994.333,268.749 990.195,269.298 
		984.623,273.414 984.544,274.255 985.483,265.418 980.586,270.89 977.432,266.903 979.777,261.494 985.015,268.032 
		986.394,261.928 988.536,266.639 997.021,265.136 984.961,263.7 982.91,262.566 981.955,260.687 984.308,255.843 984.822,252.898 
		985.361,250.633 993.579,247.719 987.024,251.07 984.823,250.122 983.389,252.968 981.801,255.07 974.936,257.193 975.74,250.039 
		978.95,248.19 973.788,246.055 983.434,244.25 977.364,242.401 977.07,240.422 985.125,238.011 983.641,241.808 980.02,241.333 
		982.837,237.85 984.002,241.979 987.014,237.622 991.829,244.435 988.174,235.599 985.816,231.835 995.801,230.811 
		990.303,226.809 988.278,225.811 985.529,236.272 980.6,234.579 977.416,228.679 990.578,229.582 979.894,225.045 990.52,225.366 
		979.614,225.171 985.149,219.21 980.062,219.23 984.561,214.998 984.14,219.083 980.489,221.004 990.521,215.537 989.12,213.865 
		982.88,213.803 983.027,211.615 984.339,210.515 985.216,202.705 987.263,211.592 989.426,209.056 991.504,215.016 
		993.719,207.427 995.816,211.884 995.304,208.269 1001.628,204 990.978,209.855 996.272,202.901 990.245,205.034 992.54,197.748 
		989.421,201.875 986.979,200.879 986.054,204.503 981.512,197.113 980.68,201.042 981.722,201.828 973.921,204.065 
		972.402,202.438 973.625,200.496 985.551,198.532 979.693,195.945 980.525,193.874 980.507,191.547 981.989,198.082 
		984.479,195.989 986.365,198.814 990.484,197.211 990.461,190.766 992.106,189.542 991.078,184.763 993.463,184.507 
		1004.376,186.237 996.979,182.915 993.212,187.486 991.744,186.161 991.121,182.652 987.764,186.159 987.782,176.927 
		985.088,181.117 984.466,188.869 980.968,179.018 980.525,187.92 977.043,184.752 980.207,182.739 982.354,181.469 984.72,180.27 
		973.807,174.41 983.069,177.169 982.638,171.755 982.396,170.982 984.467,171.637 987.782,169.492 990.719,167.358 
		987.078,166.799 988.251,168.722 989.93,167.501 991.104,164.527 986.914,159.928 988.867,161.92 995.014,158.794 990.058,157.469 
		993.168,153.304 989.761,151.353 986.259,159.364 984.818,153.855 983.036,151.847 981.727,147.163 978.315,154.23 
		975.409,158.468 973.799,155.443 971.554,152.175 972.013,149.151 972.697,147.064 973.771,145.221 981.008,147.316 
		981.736,147.426 981.755,147.316 983.758,146.945 983.31,139.266 984.9,135.851 989.963,143.685 994.1,141.461 986.873,135.483 
		986.579,133.079 996.073,135.723 996.804,128.774 990.81,126.51 988.754,125.63 984.928,134.741 983.368,131.226 981.572,127.949 
		979.972,122.865 976.842,131.929 974.786,131.006 977.254,126.803 969.559,122.752 979.933,130.023 980.236,127.534 
		975.146,119.815 978.946,120.581 980.687,119.678 987.219,125.149 986.564,124.663 986.615,121.118 989.14,124.983 990.95,121.389 
		992.608,116.157 1000.524,121.668 1000.371,113.304 992.199,114.249 986.571,114.293 992.318,110.315 990.216,110.884 
		988.78,114.699 987.469,105.634 983.105,112.706 986.146,103.312 984.422,106.015 983.236,103.567 984.955,103.832 
		978.422,103.361 977.716,101.605 988.198,98.108 983.433,96.976 982.632,93.996 986.162,96.49 987.863,95.808 988.908,95.187 
		987.202,94.445 984.896,92.671 985.134,91.862 980.152,92.301 976.679,90.106 977.085,88.096 981.292,87.417 978.963,88.55 
		978.049,85.691 981.359,82.691 978.467,77.603 982.43,87.097 982.301,75.751 988.927,85.25 992.887,81.767 992.366,79.43 
		985.204,74.025 985.811,71.525 992.19,74.223 989.947,71.855 988.604,64.668 986.69,68.287 985.083,76.463 984.451,69.271 
		975.344,70.492 982.025,67.118 985.914,63.468 985.552,60.409 983.536,59.116 972.058,60.029 972.014,55.271 986.74,56.864 
		980.016,52.518 982.348,52.472 983.271,50.269 983.07,48.951 990.747,49.272 990.872,49.081 989.322,45.416 982.259,45.168 
		986.367,40.226 985.128,44.099 983.046,43.274 979.899,36.484 981.178,42.096 972.832,41.243 974.031,39.437 981.842,38.463 
		983.983,38.81 984.838,38.654 987.213,39.817 986.002,31.887 989.226,35.921 995.934,34.175 989.422,30.268 989.594,27.58 
		988.805,25.725 983.322,27.955 983.13,26.572 982.761,25.22 987.659,20.532 981.411,21.439 985.197,18.691 980.157,17.841 
		983.021,15.918 985.163,13.99 981.629,12.042 	"/>
</g>
</svg>
