<?xml version="1.0" encoding="utf-8"?>
<!-- Generator: Adobe Illustrator 15.0.0, SVG Export Plug-In . SVG Version: 6.00 Build 0)  -->
<!DOCTYPE svg PUBLIC "-//W3C//DTD SVG 1.1//EN" "http://www.w3.org/Graphics/SVG/1.1/DTD/svg11.dtd">
<svg version="1.1" id="Layer_1" xmlns="http://www.w3.org/2000/svg" xmlns:xlink="http://www.w3.org/1999/xlink" x="0px" y="0px"
	 width="1024px" height="768px" viewBox="0 0 1024 768" style="enable-background:new 0 0 1024 768;" xml:space="preserve">
<style type="text/css">
<![CDATA[
	.st0{fill:none;stroke:#FF5F9F;stroke-miterlimit:10;}
]]>
</style>
<polyline class="st0" points="331.247,754.153 335.616,750.828 339.778,747.284 335.018,741.126 340.056,734.713 338.413,728.649 
	329.424,729.576 330.689,722.793 333.708,718.104 337.458,718.019 340.198,711.462 329.897,714.056 332.58,706.465 336.708,705.701 
	338.172,699.459 336.359,694.908 340.299,688.251 336.581,684.262 336.603,683.352 332.426,678.311 340.311,678.487 
	342.677,671.804 337.37,668.07 332.177,665.558 326.098,660.252 338.381,661.156 340.872,655.94 347.904,648.7 335.398,646.934 
	334.026,640.599 322.534,637.146 336.729,636.395 334.657,626.616 337.271,625.582 333.505,625.717 333.782,617.733 
	324.949,614.034 337.119,613.677 339.471,608.322 346.508,602.48 339.478,596.637 333.203,595.204 333.881,590.919 338.782,592.23 
	342.441,588.183 336.619,579.363 342.284,570.722 332.391,572.907 333.474,567.81 332.048,562.388 333.82,556.453 334.059,556.252 
	337.052,552.843 330.026,552.163 330.692,544.702 335.706,542.937 340.898,540.424 344.692,533.153 339.031,527.758 
	331.754,527.325 328.397,521.596 333.114,517.235 336.31,512.725 339.819,510.039 334.188,509.489 336.199,499.771 333.474,498.482 
	329.447,490.46 341.198,494.504 334.02,486.926 339.241,481.328 329.182,483.681 334.93,475.373 338.189,476.093 336.356,466.553 
	335.138,463.817 339.621,457.839 338.782,450.971 330.46,452.267 337.996,452.79 341.637,448.725 336.086,440.709 339.894,434.457 
	334.524,432.119 332.638,429.156 335.652,427.338 332.592,416.571 336.492,417.601 333.676,417.565 331.957,411.577 
	326.405,406.052 332.869,401.445 340.214,401.085 337.574,394.493 335.671,392.462 333.429,386.998 324.333,382.945 331.462,376.93 
	336.362,374.123 344.179,371.388 340.366,364.658 331.129,366.188 329.991,359.831 329.379,351.737 338.931,353.583 
	336.043,348.273 334.589,347.326 332.435,341.773 331.778,336.721 331.76,331.009 338.999,330.541 348.231,325.174 336.302,322.505 
	337.004,314.096 335.778,313.609 338.458,314.598 340.146,308.58 339.185,302.057 334.136,301.561 335.909,292.081 326.089,290.507 
	332.313,285.345 334.724,280.048 344.711,278.953 341.864,270.724 337.553,267.328 334.427,267.392 333.342,263.264 
	340.541,262.756 335.859,255.836 339.315,250.163 329.658,252.114 329.924,244.286 329.514,236.327 339.361,238.468 
	342.485,232.733 334.161,232.209 336.438,222.226 333.186,221.175 337.318,221.023 333.481,209.479 348.448,209.629 
	341.849,201.413 330.38,205.174 329.568,198.068 331.025,191.621 339.82,192.708 348.027,186.52 337.667,182.485 328.457,183.988 
	331.625,174.958 336.113,173.599 335.786,165.565 343.281,163.406 341.933,155.109 335.245,154.091 322.756,151.856 328.5,142.878 
	334.175,140.846 337.943,140.293 342.535,131.399 336.101,130.126 323.343,128.747 330.298,121.566 334.65,118.211 345.332,117.19 
	342.279,108.546 335.356,107.762 332.612,105.63 335.969,104.128 334.55,95.002 339.849,94.077 333.26,94.456 333.65,86.358 
	327.805,82.525 335.886,80.937 338.071,75.415 341.656,70.97 333.054,71.553 331.959,64.941 329.008,59.415 330.809,52.75 
	335.736,49.971 335.503,47.855 339.147,42.351 329.77,44.021 330.746,36.304 334.726,33.559 340.848,31.973 334.548,24.746 
	333.434,24.955 330.907,19.774 330.938,12.037 "/>
<polyline class="st0" points="851.926,754.153 856.295,750.828 860.458,747.284 855.697,741.126 860.736,734.713 859.092,728.649 
	850.104,729.576 851.369,722.793 854.388,718.104 858.139,718.019 860.877,711.462 850.576,714.056 853.26,706.465 857.387,705.701 
	858.852,699.459 857.039,694.908 860.979,688.251 857.261,684.262 857.282,683.352 853.105,678.311 860.99,678.487 863.356,671.804 
	858.049,668.07 852.856,665.558 846.777,660.252 859.061,661.156 861.551,655.94 868.584,648.7 856.078,646.934 854.706,640.599 
	843.214,637.146 857.408,636.395 855.337,626.616 857.951,625.582 854.186,625.717 854.462,617.733 845.629,614.034 
	857.799,613.677 860.15,608.322 867.188,602.48 860.158,596.637 853.883,595.204 854.561,590.919 859.462,592.23 863.121,588.183 
	857.299,579.363 862.963,570.722 853.07,572.907 854.153,567.81 852.728,562.388 854.5,556.453 854.738,556.252 857.732,552.843 
	850.705,552.163 851.372,544.702 856.385,542.937 861.578,540.424 865.372,533.153 859.711,527.758 852.434,527.325 
	849.077,521.596 853.794,517.235 856.989,512.725 860.499,510.039 854.868,509.489 856.879,499.771 854.154,498.482 850.127,490.46 
	861.878,494.504 854.699,486.926 859.921,481.328 849.861,483.681 855.609,475.373 858.869,476.093 857.036,466.553 
	855.818,463.817 860.301,457.839 859.462,450.971 851.14,452.267 858.676,452.79 862.316,448.725 856.766,440.709 860.573,434.457 
	855.203,432.119 853.318,429.156 856.332,427.338 853.271,416.571 857.172,417.601 854.355,417.565 852.637,411.577 
	847.084,406.052 853.549,401.445 860.895,401.085 858.254,394.493 856.352,392.462 854.108,386.998 845.013,382.945 852.142,376.93 
	857.041,374.123 864.858,371.388 861.046,364.658 851.809,366.188 850.671,359.831 850.059,351.737 859.611,353.583 
	856.723,348.273 855.27,347.326 853.114,341.773 852.457,336.721 852.439,331.009 859.678,330.541 868.911,325.174 856.981,322.505 
	857.684,314.096 856.457,313.609 859.138,314.598 860.826,308.58 859.864,302.057 854.816,301.561 856.588,292.081 846.769,290.507 
	852.993,285.345 855.403,280.048 865.391,278.953 862.544,270.724 858.232,267.328 855.106,267.392 854.021,263.264 
	861.221,262.756 856.539,255.836 859.995,250.163 850.338,252.114 850.604,244.286 850.193,236.327 860.041,238.468 
	863.164,232.733 854.84,232.209 857.117,222.226 853.865,221.175 857.998,221.023 854.161,209.479 869.127,209.629 862.529,201.413 
	851.06,205.174 850.248,198.068 851.705,191.621 860.5,192.708 868.707,186.52 858.347,182.485 849.137,183.988 852.305,174.958 
	856.793,173.599 856.465,165.565 863.961,163.406 862.613,155.109 855.925,154.091 843.436,151.856 849.18,142.878 854.855,140.846 
	858.623,140.293 863.215,131.399 856.78,130.126 844.023,128.747 850.978,121.566 855.33,118.211 866.012,117.19 862.959,108.546 
	856.035,107.762 853.291,105.63 856.648,104.128 855.229,95.002 860.529,94.077 853.939,94.456 854.33,86.358 848.484,82.525 
	856.566,80.937 858.751,75.415 862.336,70.97 853.733,71.553 852.639,64.941 849.688,59.415 851.488,52.75 856.416,49.971 
	856.184,47.855 859.826,42.351 850.449,44.021 851.426,36.304 855.406,33.559 861.527,31.973 855.229,24.746 854.113,24.955 
	851.587,19.774 851.617,12.037 "/>
<g>
	<polyline class="st0" points="450.607,754.83 452.239,753.955 449.465,747.286 455.85,752.553 457.348,751.409 456.78,747.93 
		457.351,747.189 458.428,744.982 460.685,740.777 455.148,742.597 459.602,741.244 453.288,738.088 454.238,736.241 
		460.541,738.597 452.685,733.488 463.908,731.189 450.89,732.547 456.371,729.783 455.552,729.699 453.579,728.139 
		452.562,735.906 450.649,734.996 447.416,730.145 455.498,728.587 446.171,724.507 454.437,724.622 447.13,719.036 
		455.936,722.493 451.753,716.666 454.561,723.865 455.127,716.222 452.415,714.473 457.319,714.598 451.898,710.405 
		460.822,709.288 458.584,718.325 455.504,714.794 453.565,715.785 449.136,706.907 443.623,719.253 450.997,712.723 
		447.801,709.459 448.958,707.73 454.343,709.962 453.274,704.919 456.894,707.092 454.605,703.286 458.349,701.968 
		454.967,699.656 462.266,694.731 453.622,694.878 460.967,696.076 452.341,688.725 453.013,686.873 452.29,688.826 453.23,691.281 
		457.519,684.798 451.363,686.472 452.897,684.701 453.396,682.222 455.378,677.744 454.994,679.62 453.083,685.478 
		455.214,678.282 457.234,676.232 461.825,682.699 457.258,675.939 456.332,673.731 461.719,673.756 457.75,673.324 455.578,676.5 
		455.5,672.85 455.288,669.629 452.91,670.492 455.501,660.72 450.287,666.663 448.92,664.907 444.967,666.369 450.079,657.441 
		446.69,661.024 446.735,663.835 449.104,659.613 450.705,665.792 452.97,662.984 454.883,665 460.523,667.141 463.796,662.16 
		453.041,654.889 465.764,660.184 465.258,658.51 461.599,652.147 465.641,653.26 468.252,652.978 470.399,647.295 464.106,652.396 
		462.406,649.395 461.089,643.67 458.26,648.651 455.918,650.158 458.972,641.931 449.752,645.698 460.16,641.232 457.362,636.639 
		451.902,636.889 449.483,637.996 448.442,634.526 445.711,636.66 442.488,640.423 441.455,637.157 443.156,632.376 
		445.795,643.879 447.542,638.463 449.205,631.464 451.34,633.372 453.453,634.8 450.665,632.541 449.074,635.729 450.5,633.386 
		454.219,630.557 455.277,628.286 458.386,630.206 461.775,629.859 454.28,626.915 452.592,625.49 449.434,623.619 458.04,621.921 
		447.143,619.543 449.497,619.673 449.177,621.02 447.282,620.601 447.415,615.322 447.742,609.577 445.201,614.482 
		445.939,618.047 447.659,607.542 449.786,610.847 451.929,614.695 453.932,613.679 452.76,608.782 455.12,611.178 451.952,607.656 
		462.36,611.321 457.611,604.611 461.175,606.047 462.178,604.392 467.34,607.74 460.961,602.472 460.253,605.759 462.443,600.271 
		464.037,595.493 456.95,601.154 458.466,596.336 456.256,596.067 453.979,596.395 455.388,592.97 456.224,593.668 452.324,590.454 
		454.142,592.167 454.74,596.477 457.864,592.968 463.298,594.906 459.795,589.286 460.483,588.168 457.03,588.462 456.428,586.334 
		455.789,584.223 450.913,584.905 461.568,579.303 454.994,576.586 461.511,578.392 460.761,575.43 456.45,570.129 455.027,574.689 
		458.049,566.162 457.271,572.028 455.313,572.553 453.583,574.12 451.343,572.771 445.502,569.915 450.288,569.155 
		456.366,567.679 447.382,567.178 453.457,563.647 457.3,562.582 456.203,561.821 448.798,557.454 453.143,556.635 456.542,559.562 
		457.102,556.917 459.404,552.365 454.183,552.3 451.782,558.779 449.92,559.678 450.399,550.965 444.196,549.87 443.04,547.887 
		445.818,546.253 453.468,547.641 450.848,543.091 454.131,547.077 457.391,549.708 454.206,537.812 455.475,536.017 
		455.829,536.469 459.729,538.108 459.851,535.861 460.165,533.709 468.806,532.385 461.763,532.189 461.29,529.853 
		458.144,530.316 456.473,530.87 455.669,534.266 454.034,531.055 452.4,527.808 447.429,531.947 452.914,523.406 446.644,524.515 
		445.079,521.306 452.876,524.537 455.242,523.941 455.456,520.354 453.582,516.128 457.737,516.812 454.852,512.424 
		460.951,516.662 456.667,510.196 456.22,515.704 455.326,505.449 457.802,506.178 459.972,508.9 449.98,504.808 450.424,502.874 
		447.88,500.317 460.792,497.642 451.417,503.916 456.147,495.061 445.053,499.621 452.647,493.301 446.359,493.943 
		443.316,486.924 451.333,487.98 454.169,486.104 452.468,497.409 454.688,497.324 458.568,492.418 459.483,494.151 459.83,491.833 
		452.244,496.151 457.245,488.539 453.951,488.778 458.312,486.671 452.589,484.058 457.138,485.684 454.584,480.682 
		463.17,477.492 457.353,487.253 453.411,479.464 452.775,485.811 449.167,479.468 448.167,483.579 450.722,483.09 449.274,479.638 
		457.362,482.776 455.657,479.136 455.392,478.816 456.663,470.041 451.497,471.567 451.055,475.266 462.653,471.063 
		456.044,470.354 456.026,468.376 455.117,466.582 460.219,463.67 458.186,464.638 461.363,464.688 461.059,462.121 
		457.604,457.646 457.324,455.657 452.642,453.905 455.019,454.099 454.5,444.554 452.986,448.508 451.77,454.392 450.928,452.992 
		451.097,453.661 453.292,449.316 454.568,458.234 457.462,454.362 453.689,447.526 462.566,453.033 456.197,448.572 
		458.373,447.816 459.646,444.568 459.855,442.051 460.252,439.399 447.823,441.074 458.378,440.67 454.582,436.216 
		454.224,433.852 457.705,434.826 457.871,431.568 457.286,428.018 454.74,430.463 455.671,428.573 454.537,429.876 
		453.303,428.764 448.074,424.963 450.471,426.547 456.279,422.958 451.27,422.445 454.847,419.488 455.274,417.424 
		448.118,412.846 453.328,417.316 454.418,415.937 455.75,412.176 450.724,415.923 445.649,415.218 447.979,413.215 
		448.854,410.768 446.838,410.017 445.062,409.021 442.932,405.849 449.705,408.892 451.882,408.528 453.25,407.022 
		453.667,406.863 453.467,399.728 455.148,396.503 457.428,405.375 464.367,404.699 455.855,400.462 453.93,399.321 
		462.226,394.083 460.863,391.399 458.268,389.882 458.411,388.738 448.704,390.594 451.317,387.932 451.161,384.61 
		451.333,379.342 445.709,387.069 444.17,385.622 447.877,382.017 440.376,376.734 449.867,385.095 450.316,382.735 
		445.923,374.631 449.549,375.844 451.455,375.15 457.226,381.434 458.038,380.39 458.192,376.389 461.495,379.564 462.326,375.666 
		461.881,370.901 468.353,366.153 466.765,364.831 458.832,367.099 456.183,370.808 457.385,365.074 455.986,368.062 
		454.73,371.942 451.433,363.508 446.663,370.268 453.814,363.316 451.491,361.544 447.412,360.014 448.064,357.856 
		441.672,356.307 441.093,354.313 450.688,354.347 450.313,351.176 452.375,350.739 453.604,354.633 455.59,354.63 456.779,352.904 
		456.603,351.931 457.312,349.25 457.5,345.951 451.271,349.007 446.829,347.762 446.398,345.799 449.186,342.329 446.95,340.625 
		448.604,338.697 454.641,336.469 446.006,334.833 456.08,332.896 446.355,327.226 452.77,336.439 454.688,338.009 456.414,336.549 
		456.986,327.902 457.76,326.149 462.949,330.836 462.612,326.005 468.475,331.837 470.047,324.91 463.986,329.675 463.749,321.411 
		459.595,330.646 459.167,323.229 458.157,318.402 459.801,319.185 459.854,320.783 449.009,317.762 448.317,315.585 
		462.568,311.372 454.755,313.23 457.526,315.307 457.171,312.399 456.095,309.932 464.865,308.92 464.155,305.6 460.556,303.908 
		452.702,306.615 456.594,299.406 454.559,302.819 453.048,301.518 460.526,301.011 456.332,298.269 447.392,294.635 
		448.693,292.913 456.228,291.011 453.5,287.351 451.545,286.986 449.963,284.305 446.714,291.988 448.354,289.624 450.301,293.818 
		448.297,288.236 451.065,288.403 453.468,287.128 449.521,282.471 450.892,280.962 453.375,279.774 456.237,285.948 
		457.577,279.752 460.089,284.24 461.526,278.882 465.788,280.217 467.289,275.361 463.229,274.464 456.544,274.471 
		465.286,267.643 462.409,265.616 459.926,265.81 454.923,271.352 454.753,263.294 453.052,267.621 446.474,266.973 449.34,261.635 
		454.505,270.541 456.145,268.138 457.179,257.127 464.503,264.509 456.675,262.076 460.952,256.661 454.667,258.388 
		449.174,255.869 458.578,255.606 455.505,251.139 462.189,248.081 456.554,252.147 455.303,255.902 452.229,250.632 
		451.157,255.284 452.003,247.938 442.974,249.968 441.492,247.96 451.801,246.35 449.895,244.276 448.373,242.313 446.096,240.438 
		451.4,238.167 452.252,240.969 451.697,230.453 451.576,240.498 454.878,234.786 455.226,242.683 455.493,232.947 458.011,235.884 
		465.629,237.554 456.24,235.316 459.287,232.051 457.118,233.341 455.137,231.584 456.408,229.605 449.5,229.311 447.56,226.77 
		450.763,225.401 460.596,225.54 454.985,222.364 453.553,222.024 447.672,217.982 454.337,227.612 451.768,217.878 
		448.959,221.285 457.868,216.188 449.698,216.769 459.82,211.268 457.993,209.736 447.892,206.006 454.396,215.807 
		456.538,215.251 458.698,213.113 460.835,213.1 463.052,205.422 465.131,211.638 467.091,209.526 471.149,203.833 468.959,202.894 
		464.698,203.613 460.869,203.98 460.379,202.414 459.438,204.024 455.258,197.728 456.321,207.414 451.542,199.302 
		451.003,204.125 446.72,209.812 442.152,204.187 443.096,202.28 449.849,199.707 451.865,198.316 452.491,196.733 449.433,193.782 
		448.189,189.219 451.271,198.338 454.574,189.667 456.849,189.339 460.47,199.887 464.54,197.085 462.059,190.39 462.553,187.631 
		462.071,183.572 466.505,186.535 464.596,187.269 465.947,178.696 459.923,189.07 461.795,179.153 457.043,186.24 455.833,188.986 
		455.027,184.957 451.693,176.085 451.281,185.152 449.497,185.824 445.412,185.513 449.191,182.624 451.968,181.575 
		444.761,177.018 445.515,175.251 450.585,175.09 454.677,180.757 459.898,177.575 454.881,171.592 451.532,169.718 
		461.704,167.291 457.504,167.579 456.298,164.324 458.249,164.054 461.12,166.965 467.146,166.365 460.215,161.59 467.59,158.265 
		463.953,156.725 462.468,153.316 459.287,149.948 456.157,155.514 453.805,155.827 450.714,160.979 449.442,156.091 
		446.589,160.041 445.752,152.709 444.716,146.475 437.726,153.532 441.108,149.012 449.816,152.059 448.285,148.549 
		450.465,147.409 447.354,142.888 451.053,147.272 452.154,144.384 454.277,145.816 454.479,137.667 459.107,143.455 
		464.075,141.804 457.774,136.303 453.103,131.639 455.75,130.748 461.482,131.343 458.729,133.549 456.317,134.472 
		454.203,134.982 453.25,125.956 451.317,123.95 448.683,128.43 446.167,131.8 445.074,121.994 442.558,128.583 443.698,127.427 
		444.857,125.773 449.552,127.539 449.534,124.732 450.248,122.794 452.734,123.227 452.444,119.849 452.912,116.628 
		455.751,119.272 457.814,118.312 459.284,111.145 461.529,112.048 463.273,116.474 465.007,114.955 460.482,114.613 
		462.802,111.85 455.938,112.326 457.894,113.276 459.501,102.264 456.753,105.881 456.295,101.958 452.62,106.966 449.027,105.22 
		455.124,109.321 452.377,102.808 453.262,102.502 454.302,100.476 453.689,98.702 458.187,96.13 453.999,95.42 454.289,89.702 
		457.611,98.298 456.336,99.59 456.725,98.092 454.167,91.961 454.345,91.976 447.116,92.188 457.223,90.648 459.05,88.706 
		455.819,84.499 446.626,91.065 445.607,88.368 439.659,82.235 449.982,88.804 450.077,78.618 451.898,77.202 457.655,84.53 
		452.177,77.799 449.626,74.66 455.385,74.528 460.155,75.583 463.393,75.748 455.333,74.654 458.447,72.488 456.129,70.152 
		453.709,66.352 450.995,72.661 457.017,68.444 444.387,68.269 452.784,64.282 451.332,62.295 451.874,59.637 454.034,58.831 
		441.914,55.43 443.904,53.582 453.994,55.84 449.317,48.317 452.536,50.182 451.631,48.603 458.994,49.008 460.383,49.213 
		452.907,41.624 460.017,41.463 455.975,41.87 453.568,39.197 452.365,43.306 451.486,49.254 445.257,47.468 453.125,42.632 
		441.927,39.258 454.879,38.934 451.529,37.614 452.474,36.225 452.013,30.254 456.193,35.28 457.972,33.735 458.79,31.615 
		455.182,33.364 460.333,26.338 458.154,25.692 456.272,24.785 452.027,27.369 448.326,30.055 450.818,23.532 454.487,19.604 
		454.354,18.725 445.283,17.824 446.9,15.897 449.708,13.972 446.124,12.022 	"/>
</g>
<g>
	<polyline class="st0" points="973.562,757.82 975.607,757.488 974.989,753.653 976.991,753.127 973.607,746.218 977.79,748.318 
		986.143,747.79 977.82,745.978 972.68,747.493 979.738,739.573 980.624,741.251 971.221,735.931 972.78,734.563 976.474,734.867 
		974.444,733.701 972.661,734.423 984.82,728.954 979.75,726.337 975.569,723.284 974.184,727.425 972.801,731.631 970.575,727.695 
		964.791,732.344 970.351,727.5 964.096,723.992 966.432,721.381 976.84,724.851 974.025,720.825 970.184,712.635 975.149,719.842 
		974.645,714.45 980.128,717.411 975.214,713.435 975.826,711.763 977.339,714.377 978.477,715.206 977.24,718.994 972.652,709.462 
		971.321,712.887 973.93,709.48 968.109,711.463 971.968,710.692 967.75,707.062 970.057,704.01 975.101,711.115 976.592,706.074 
		977.448,703.794 977.654,701.646 970.892,700.111 972.211,699.008 972.633,694.846 978.816,694.401 975.852,690.4 974.013,687.062 
		983.091,687.978 978.706,686.812 972.188,690.397 980.381,681.938 969.924,686.633 973.819,682.435 978.467,675.747 
		965.935,676.197 973.923,678.242 975.962,675.217 977.945,674.791 977.724,675.151 983.083,677.761 986.792,677.196 
		984.548,674.518 983.076,671.452 984.354,664.988 979.18,668.584 980.314,662.322 973.824,670.005 971.511,670.371 
		970.484,667.389 968.459,666.215 973.369,657.519 966.778,662.001 967.347,661.016 967.603,661.281 969.268,666.6 972.039,656.915 
		973.446,665.747 975.316,668.346 980.43,665.737 972.804,656.587 973.298,654.688 981.036,656.389 977.79,650.598 979.393,649.347 
		986.432,653.368 982.809,647.029 982.879,650.453 986.076,643.256 983.513,646.365 980.382,653.482 979.359,645.673 
		977.321,645.03 971.404,650.656 971.295,645.511 968.278,643.952 970.403,643.376 973.546,633.683 970.58,636.609 968.414,636.881 
		966.316,636.908 964.529,635.894 969.014,638.197 963.74,630.551 966.412,642.696 967.806,630.61 970.137,636.224 971.945,631.959 
		974.162,635.365 981.908,640.83 979.523,633.661 970.284,633.574 981.111,629.238 978.458,627.757 975.221,627.379 
		979.364,627.522 974.877,624.609 973.183,625.574 967.073,623.513 980.21,621.973 973.634,619.744 979.154,614.109 
		971.124,617.994 967.657,621.327 969.548,611.853 964.189,619.68 965.646,614.407 966.666,619.671 968.658,618.389 970.674,617.9 
		972.63,615.421 974.463,608.598 974.062,609.731 971.012,609.075 983.95,612.628 978.991,608.319 978.548,604.921 983.921,608.536 
		987.432,609.9 980.938,599.211 985.223,602.479 985.104,600.741 986.036,596.766 983.595,596.843 980.66,597.509 978.635,597.421 
		976.056,599.918 973.349,602.128 973.413,594.746 975.391,593.429 974.558,592.25 973.6,596.736 977.711,587.916 979.197,595.014 
		984.854,595.697 978.291,587.312 984.27,588.225 982.124,585.549 975.349,587.494 981.657,580.797 979.332,579.795 
		980.834,579.317 982.271,580.91 974.689,573.477 981.824,575.682 975.163,568.841 975.732,574.672 980.277,573.174 
		977.368,569.396 975.947,572.35 974.23,573.98 973.168,571.298 978.17,572.463 973.481,569.688 965.905,568.039 972.582,565.989 
		972.924,563.967 977.247,562.559 977.073,561.877 971.703,558.119 970.718,555.454 972.573,555.332 974.811,554.31 
		978.231,552.618 974.309,558.037 972.77,555.596 971.734,547.953 968.894,552.679 975.514,550.821 975.445,548.937 966.366,546.24 
		975.25,548.463 970.516,540.221 975.758,549.768 972.473,536.356 980.146,548.683 980.633,545.274 983.697,543.732 
		985.378,540.703 976.491,533.753 981.203,533.896 982.229,533.443 982.195,532.449 982.028,529.79 978.631,530.518 
		979.362,525.973 976.344,534.358 975.336,520.602 972.817,532.202 967.123,533.387 975.948,522.029 975,520.019 960.816,520.643 
		971.102,521.882 966.906,514.188 970.08,514.951 978.486,519.121 972.471,512.6 971.569,508.497 980.742,515.501 972.345,510.591 
		978.006,504.372 976.1,504.488 978.921,505.872 972.167,507.145 969.083,504.481 976.671,504.025 976.564,501.974 971.504,501.336 
		977.501,492.492 973.904,497.674 969.909,497.525 967.79,496.08 969.903,492.506 974.035,494.052 970.797,491.513 973.526,489.944 
		972.48,499.349 978.21,489.062 977.333,497.984 974.449,490.563 982.734,489.727 976.021,493.218 978.024,488.443 978.48,485.13 
		979.538,486.646 975.852,486.467 973.666,481.812 978.744,483.928 977.749,482.096 977.335,484.266 974.554,481.44 
		972.477,481.626 972.053,488.901 970.496,482.378 971.758,483.337 970.424,479.963 971.102,477.975 974.334,477.75 
		976.838,480.452 976.06,475.847 982.158,479.725 975.061,474.626 974.309,472.797 980.239,469.68 970.026,469.659 981.328,464.694 
		967.499,463.989 974.629,461.463 976.207,460.311 978.733,459.867 972.571,456.374 973.274,456.234 977.569,453.386 
		982.745,445.655 976.691,454.251 973.346,446.449 972.692,455.95 965.221,450.14 971.979,450.756 973.347,458.32 975.783,450.516 
		975.702,448.18 978.448,451.182 974.733,445.409 983.969,448.824 974.674,450.849 977,446.871 975.488,445.546 982.344,438.424 
		968.325,441.085 977.996,440.024 975.446,436.328 976.84,435.031 983.71,432.929 977.159,434.765 976.61,431.128 973.108,433.256 
		974.683,429.635 970.159,428.683 977.094,433.919 973.692,426.789 980.01,424.027 968.758,425.287 967.898,423.596 
		966.523,422.048 966.479,420.118 972.892,417.44 975.248,412.612 977.415,420.126 972.759,418.304 976.016,414.6 975.848,412.485 
		977.645,408.002 970.016,410.282 967.15,410.386 970.836,403.9 963.3,405.82 965.075,401.441 969.643,404.434 968.416,399.286 
		969.934,394.614 974.016,397.04 975.974,399.454 977.724,397.559 984.952,404.635 977.849,399.936 977.593,398.126 
		973.497,397.852 981.608,391.354 976.77,391.38 977.635,389.336 972.832,389.178 976.608,383.437 972.007,384.238 970.953,381.722 
		970.285,378.329 968.27,377.948 957.504,384.199 970.048,387.389 970.424,384.948 967.298,378.351 971.097,379.955 
		973.314,380.254 974.563,379.388 972.25,371.563 975.354,372.942 979.223,377.394 979.417,371.681 980.771,369.279 
		990.039,374.083 979.161,371.746 987.881,364.583 986.056,363.393 981.34,361.721 977.799,363.467 975.461,360.789 
		974.076,363.887 972.966,368.663 970.702,366.129 965.68,364.893 976.745,360.727 971.146,359.622 964.119,358.208 
		965.979,356.033 967.358,353.891 964.619,347.198 971.993,345.997 973.543,348.211 974.652,352.729 976.279,354.577 
		983.466,356.995 983.726,348.426 975.42,350.649 975.815,348.053 971.754,349.158 978.576,343.468 967.628,345.586 968.4,342.717 
		967.414,340.654 966.852,339.015 971.513,336.708 976.933,334.802 972.767,332.91 974.328,333.717 972.678,324.53 974.705,327.772 
		976.769,331.556 978.506,330.486 977.429,324.411 981.317,326.86 980.996,322.054 988.438,330.601 984.465,325.469 
		985.789,324.657 983.664,324.831 982.959,318.653 978.851,327.683 976.557,328.593 975.696,322.599 980.519,320.782 
		971.842,317.942 976.686,316.228 976.617,314.06 975.542,312.917 979.184,318.432 982.285,313.643 978.517,310.421 
		980.511,308.628 984.148,305.701 979.797,304.12 983.271,298.158 976.994,302.257 975.267,302.526 970.548,303.572 971.03,299.109 
		972.003,297.333 967.988,294.619 981.079,295.102 973.883,293.208 974.188,287.3 971.869,289.208 968.876,295.323 966.429,298.009 
		970.569,289.227 966.884,288.879 968.383,287.52 969.202,285.336 971.977,285.451 966.972,281.001 971.893,281.108 976.592,283.35 
		975.742,275.243 978.477,281.756 980.936,285.763 982.774,284.067 981.26,277.268 984.007,276.731 987.463,273.235 
		985.498,271.609 984.325,268.749 980.188,269.298 974.615,273.414 974.536,274.255 975.476,265.418 970.578,270.89 
		967.424,266.903 969.77,261.494 975.007,268.032 976.386,261.928 978.528,266.639 987.013,265.136 974.953,263.7 972.902,262.566 
		971.947,260.687 974.3,255.843 974.814,252.898 975.354,250.633 983.571,247.719 977.017,251.07 974.815,250.122 973.381,252.968 
		971.793,255.07 964.928,257.193 965.732,250.039 968.942,248.19 963.78,246.055 973.426,244.25 967.356,242.401 967.062,240.422 
		975.117,238.011 973.633,241.808 970.012,241.333 972.829,237.85 973.994,241.979 977.006,237.622 981.821,244.435 
		978.166,235.599 975.809,231.835 985.793,230.811 980.295,226.809 978.271,225.811 975.521,236.272 970.592,234.579 
		967.408,228.679 980.57,229.582 969.886,225.045 980.512,225.366 969.606,225.171 975.142,219.21 970.055,219.23 974.553,214.998 
		974.132,219.083 970.481,221.004 980.513,215.537 979.112,213.865 972.872,213.803 973.02,211.615 974.331,210.515 
		975.208,202.705 977.255,211.592 979.418,209.056 981.496,215.016 983.711,207.427 985.809,211.884 985.296,208.269 991.62,204 
		980.97,209.855 986.265,202.901 980.237,205.034 982.532,197.748 979.413,201.875 976.971,200.879 976.046,204.503 
		971.504,197.113 970.672,201.042 971.714,201.828 963.913,204.065 962.395,202.438 963.617,200.496 975.543,198.532 
		969.686,195.945 970.518,193.874 970.499,191.547 971.981,198.082 974.472,195.989 976.357,198.814 980.477,197.211 
		980.453,190.766 982.099,189.542 981.07,184.763 983.455,184.507 994.368,186.237 986.972,182.915 983.204,187.486 
		981.736,186.161 981.113,182.652 977.756,186.159 977.774,176.927 975.08,181.117 974.458,188.869 970.96,179.018 970.518,187.92 
		967.035,184.752 970.199,182.739 972.347,181.469 974.712,180.27 963.799,174.41 973.062,177.169 972.63,171.755 972.389,170.982 
		974.459,171.637 977.774,169.492 980.711,167.358 977.07,166.799 978.243,168.722 979.922,167.501 981.097,164.527 
		976.906,159.928 978.859,161.92 985.006,158.794 980.05,157.469 983.16,153.304 979.753,151.353 976.251,159.364 974.811,153.855 
		973.028,151.847 971.719,147.163 968.308,154.23 965.401,158.468 963.791,155.443 961.546,152.175 962.005,149.151 
		962.689,147.064 963.763,145.221 971,147.316 971.729,147.426 971.747,147.316 973.75,146.945 973.302,139.266 974.893,135.851 
		979.955,143.685 984.092,141.461 976.865,135.483 976.571,133.079 986.065,135.723 986.796,128.774 980.802,126.51 978.746,125.63 
		974.92,134.741 973.36,131.226 971.564,127.949 969.964,122.865 966.834,131.929 964.778,131.006 967.246,126.803 959.551,122.752 
		969.925,130.023 970.229,127.534 965.138,119.815 968.938,120.581 970.679,119.678 977.211,125.149 976.557,124.663 
		976.607,121.118 979.132,124.983 980.942,121.389 982.601,116.157 990.517,121.668 990.363,113.304 982.191,114.249 
		976.563,114.293 982.311,110.315 980.208,110.884 978.772,114.699 977.461,105.634 973.098,112.706 976.138,103.312 
		974.414,106.015 973.229,103.567 974.947,103.832 968.414,103.361 967.708,101.605 978.19,98.108 973.425,96.976 972.624,93.996 
		976.154,96.49 977.855,95.808 978.9,95.187 977.194,94.445 974.888,92.671 975.126,91.862 970.145,92.301 966.671,90.106 
		967.077,88.096 971.284,87.417 968.955,88.55 968.041,85.691 971.352,82.691 968.459,77.603 972.422,87.097 972.293,75.751 
		978.919,85.25 982.879,81.767 982.358,79.43 975.196,74.025 975.803,71.525 982.183,74.223 979.939,71.855 978.596,64.668 
		976.683,68.287 975.075,76.463 974.443,69.271 965.336,70.492 972.018,67.118 975.906,63.468 975.544,60.409 973.528,59.116 
		962.05,60.029 962.006,55.271 976.732,56.864 970.008,52.518 972.34,52.472 973.264,50.269 973.062,48.951 980.739,49.272 
		980.864,49.081 979.314,45.416 972.251,45.168 976.359,40.226 975.12,44.099 973.038,43.274 969.892,36.484 971.17,42.096 
		962.824,41.243 964.023,39.437 971.834,38.463 973.976,38.81 974.83,38.654 977.205,39.817 975.994,31.887 979.218,35.921 
		985.926,34.175 979.414,30.268 979.586,27.58 978.797,25.725 973.314,27.955 973.122,26.572 972.753,25.22 977.651,20.532 
		971.403,21.439 975.189,18.691 970.149,17.841 973.013,15.918 975.155,13.99 971.621,12.042 	"/>
</g>
</svg>
