<?xml version="1.0" encoding="utf-8"?>
<!-- Generator: Adobe Illustrator 15.0.0, SVG Export Plug-In . SVG Version: 6.00 Build 0)  -->
<!DOCTYPE svg PUBLIC "-//W3C//DTD SVG 1.1//EN" "http://www.w3.org/Graphics/SVG/1.1/DTD/svg11.dtd">
<svg version="1.1" id="Layer_1" xmlns="http://www.w3.org/2000/svg" xmlns:xlink="http://www.w3.org/1999/xlink" x="0px" y="0px"
	 width="1024px" height="768px" viewBox="0 0 1024 768" style="enable-background:new 0 0 1024 768;" xml:space="preserve">
<style type="text/css">
<![CDATA[
	.st0{fill:none;stroke:#FF5F9F;stroke-miterlimit:10;}
]]>
</style>
<polyline class="st0" points="321.239,754.153 325.608,750.828 329.771,747.284 325.01,741.126 330.048,734.713 328.405,728.649 
	319.417,729.576 320.682,722.793 323.7,718.104 327.451,718.019 330.19,711.462 319.889,714.056 322.572,706.465 326.7,705.701 
	328.164,699.459 326.351,694.908 330.291,688.251 326.573,684.262 326.595,683.352 322.418,678.311 330.303,678.487 
	332.669,671.804 327.362,668.07 322.169,665.558 316.09,660.252 328.373,661.156 330.864,655.94 337.896,648.7 325.391,646.934 
	324.019,640.599 312.526,637.146 326.721,636.395 324.649,626.616 327.264,625.582 323.498,625.717 323.774,617.733 
	314.941,614.034 327.111,613.677 329.463,608.322 336.5,602.48 329.47,596.637 323.195,595.204 323.873,590.919 328.774,592.23 
	332.434,588.183 326.611,579.363 332.276,570.722 322.383,572.907 323.466,567.81 322.04,562.388 323.812,556.453 324.051,556.252 
	327.044,552.843 320.018,552.163 320.685,544.702 325.698,542.937 330.89,540.424 334.685,533.153 329.023,527.758 321.747,527.325 
	318.39,521.596 323.106,517.235 326.302,512.725 329.812,510.039 324.181,509.489 326.191,499.771 323.466,498.482 319.439,490.46 
	331.19,494.504 324.012,486.926 329.233,481.328 319.174,483.681 324.922,475.373 328.181,476.093 326.349,466.553 325.13,463.817 
	329.613,457.839 328.774,450.971 320.452,452.267 327.988,452.79 331.629,448.725 326.078,440.709 329.886,434.457 324.516,432.119 
	322.63,429.156 325.644,427.338 322.584,416.571 326.484,417.601 323.668,417.565 321.949,411.577 316.397,406.052 322.861,401.445 
	330.207,401.085 327.566,394.493 325.664,392.462 323.421,386.998 314.325,382.945 321.454,376.93 326.354,374.123 334.171,371.388 
	330.358,364.658 321.121,366.188 319.983,359.831 319.371,351.737 328.923,353.583 326.035,348.273 324.582,347.326 
	322.427,341.773 321.77,336.721 321.752,331.009 328.991,330.541 338.224,325.174 326.294,322.505 326.996,314.096 325.77,313.609 
	328.45,314.598 330.138,308.58 329.177,302.057 324.128,301.561 325.901,292.081 316.081,290.507 322.306,285.345 324.716,280.048 
	334.704,278.953 331.856,270.724 327.545,267.328 324.419,267.392 323.334,263.264 330.533,262.756 325.851,255.836 
	329.308,250.163 319.65,252.114 319.917,244.286 319.506,236.327 329.354,238.468 332.477,232.733 324.153,232.209 326.43,222.226 
	323.178,221.175 327.311,221.023 323.474,209.479 338.44,209.629 331.841,201.413 320.372,205.174 319.561,198.068 321.018,191.621 
	329.812,192.708 338.019,186.52 327.659,182.485 318.449,183.988 321.617,174.958 326.105,173.599 325.778,165.565 333.273,163.406 
	331.925,155.109 325.237,154.091 312.748,151.856 318.493,142.878 324.167,140.846 327.936,140.293 332.527,131.399 
	326.093,130.126 313.335,128.747 320.29,121.566 324.642,118.211 335.324,117.19 332.271,108.546 325.348,107.762 322.604,105.63 
	325.961,104.128 324.542,95.002 329.841,94.077 323.252,94.456 323.643,86.358 317.797,82.525 325.878,80.937 328.063,75.415 
	331.648,70.97 323.046,71.553 321.951,64.941 319,59.415 320.801,52.75 325.729,49.971 325.496,47.855 329.139,42.351 
	319.762,44.021 320.738,36.304 324.718,33.559 330.84,31.973 324.541,24.746 323.426,24.955 320.899,19.774 320.93,12.037 "/>
<polyline class="st0" points="841.918,754.153 846.287,750.828 850.45,747.284 845.689,741.126 850.729,734.713 849.084,728.649 
	840.096,729.576 841.361,722.793 844.38,718.104 848.131,718.019 850.869,711.462 840.568,714.056 843.252,706.465 847.379,705.701 
	848.844,699.459 847.031,694.908 850.971,688.251 847.253,684.262 847.274,683.352 843.098,678.311 850.982,678.487 
	853.349,671.804 848.041,668.07 842.849,665.558 836.77,660.252 849.053,661.156 851.543,655.94 858.576,648.7 846.07,646.934 
	844.698,640.599 833.206,637.146 847.4,636.395 845.329,626.616 847.943,625.582 844.178,625.717 844.454,617.733 835.621,614.034 
	847.791,613.677 850.143,608.322 857.18,602.48 850.15,596.637 843.875,595.204 844.553,590.919 849.454,592.23 853.113,588.183 
	847.291,579.363 852.955,570.722 843.062,572.907 844.146,567.81 842.72,562.388 844.492,556.453 844.73,556.252 847.725,552.843 
	840.697,552.163 841.364,544.702 846.377,542.937 851.57,540.424 855.364,533.153 849.703,527.758 842.426,527.325 839.069,521.596 
	843.786,517.235 846.981,512.725 850.491,510.039 844.86,509.489 846.871,499.771 844.146,498.482 840.119,490.46 851.87,494.504 
	844.691,486.926 849.913,481.328 839.854,483.681 845.602,475.373 848.861,476.093 847.028,466.553 845.811,463.817 
	850.293,457.839 849.454,450.971 841.132,452.267 848.668,452.79 852.309,448.725 846.758,440.709 850.565,434.457 845.195,432.119 
	843.311,429.156 846.324,427.338 843.264,416.571 847.164,417.601 844.348,417.565 842.629,411.577 837.076,406.052 
	843.541,401.445 850.887,401.085 848.246,394.493 846.344,392.462 844.101,386.998 835.005,382.945 842.134,376.93 847.033,374.123 
	854.851,371.388 851.038,364.658 841.801,366.188 840.663,359.831 840.051,351.737 849.604,353.583 846.715,348.273 
	845.262,347.326 843.106,341.773 842.449,336.721 842.432,331.009 849.67,330.541 858.903,325.174 846.974,322.505 847.676,314.096 
	846.449,313.609 849.13,314.598 850.818,308.58 849.856,302.057 844.809,301.561 846.58,292.081 836.761,290.507 842.985,285.345 
	845.396,280.048 855.383,278.953 852.536,270.724 848.225,267.328 845.099,267.392 844.014,263.264 851.213,262.756 
	846.531,255.836 849.987,250.163 840.33,252.114 840.596,244.286 840.186,236.327 850.033,238.468 853.156,232.733 844.832,232.209 
	847.109,222.226 843.857,221.175 847.99,221.023 844.153,209.479 859.119,209.629 852.521,201.413 841.052,205.174 840.24,198.068 
	841.697,191.621 850.492,192.708 858.699,186.52 848.339,182.485 839.129,183.988 842.297,174.958 846.785,173.599 846.457,165.565 
	853.953,163.406 852.605,155.109 845.917,154.091 833.428,151.856 839.172,142.878 844.848,140.846 848.615,140.293 
	853.207,131.399 846.772,130.126 834.016,128.747 840.97,121.566 845.322,118.211 856.004,117.19 852.951,108.546 846.027,107.762 
	843.283,105.63 846.641,104.128 845.222,95.002 850.521,94.077 843.932,94.456 844.322,86.358 838.477,82.525 846.559,80.937 
	848.743,75.415 852.328,70.97 843.726,71.553 842.631,64.941 839.68,59.415 841.48,52.75 846.408,49.971 846.176,47.855 
	849.818,42.351 840.441,44.021 841.418,36.304 845.398,33.559 851.52,31.973 845.221,24.746 844.105,24.955 841.579,19.774 
	841.609,12.037 "/>
<g>
	<polyline class="st0" points="440.6,754.83 442.231,753.955 439.458,747.286 445.842,752.553 447.34,751.409 446.772,747.93 
		447.343,747.189 448.42,744.982 450.677,740.777 445.141,742.597 449.594,741.244 443.28,738.088 444.23,736.241 450.533,738.597 
		442.677,733.488 453.9,731.189 440.882,732.547 446.363,729.783 445.544,729.699 443.571,728.139 442.555,735.906 440.641,734.996 
		437.408,730.145 445.49,728.587 436.164,724.507 444.429,724.622 437.122,719.036 445.928,722.493 441.745,716.666 
		444.553,723.865 445.119,716.222 442.407,714.473 447.312,714.598 441.891,710.405 450.814,709.288 448.577,718.325 
		445.497,714.794 443.557,715.785 439.128,706.907 433.615,719.253 440.989,712.723 437.793,709.459 438.95,707.73 444.335,709.962 
		443.267,704.919 446.886,707.092 444.597,703.286 448.341,701.968 444.959,699.656 452.258,694.731 443.614,694.878 
		450.959,696.076 442.333,688.725 443.005,686.873 442.282,688.826 443.222,691.281 447.511,684.798 441.355,686.472 
		442.89,684.701 443.388,682.222 445.371,677.744 444.986,679.62 443.075,685.478 445.206,678.282 447.226,676.232 451.817,682.699 
		447.25,675.939 446.324,673.731 451.711,673.756 447.742,673.324 445.57,676.5 445.492,672.85 445.28,669.629 442.902,670.492 
		445.493,660.72 440.279,666.663 438.912,664.907 434.959,666.369 440.071,657.441 436.682,661.024 436.728,663.835 
		439.096,659.613 440.697,665.792 442.962,662.984 444.875,665 450.515,667.141 453.788,662.16 443.033,654.889 455.756,660.184 
		455.25,658.51 451.591,652.147 455.633,653.26 458.244,652.978 460.392,647.295 454.099,652.396 452.398,649.395 451.081,643.67 
		448.252,648.651 445.91,650.158 448.964,641.931 439.744,645.698 450.152,641.232 447.354,636.639 441.895,636.889 
		439.475,637.996 438.434,634.526 435.703,636.66 432.48,640.423 431.447,637.157 433.148,632.376 435.787,643.879 437.535,638.463 
		439.197,631.464 441.333,633.372 443.445,634.8 440.657,632.541 439.066,635.729 440.492,633.386 444.211,630.557 445.269,628.286 
		448.378,630.206 451.768,629.859 444.272,626.915 442.584,625.49 439.426,623.619 448.032,621.921 437.135,619.543 
		439.489,619.673 439.169,621.02 437.274,620.601 437.407,615.322 437.734,609.577 435.193,614.482 435.932,618.047 
		437.651,607.542 439.778,610.847 441.921,614.695 443.924,613.679 442.752,608.782 445.112,611.178 441.944,607.656 
		452.352,611.321 447.604,604.611 451.167,606.047 452.17,604.392 457.332,607.74 450.953,602.472 450.245,605.759 452.436,600.271 
		454.029,595.493 446.942,601.154 448.458,596.336 446.248,596.067 443.971,596.395 445.38,592.97 446.216,593.668 442.316,590.454 
		444.134,592.167 444.732,596.477 447.856,592.968 453.29,594.906 449.787,589.286 450.476,588.168 447.022,588.462 446.42,586.334 
		445.781,584.223 440.905,584.905 451.561,579.303 444.986,576.586 451.503,578.392 450.753,575.43 446.442,570.129 445.02,574.689 
		448.041,566.162 447.264,572.028 445.305,572.553 443.575,574.12 441.335,572.771 435.495,569.915 440.28,569.155 446.358,567.679 
		437.375,567.178 443.449,563.647 447.292,562.582 446.195,561.821 438.79,557.454 443.135,556.635 446.534,559.562 
		447.094,556.917 449.396,552.365 444.175,552.3 441.774,558.779 439.912,559.678 440.392,550.965 434.188,549.87 433.032,547.887 
		435.81,546.253 443.46,547.641 440.84,543.091 444.123,547.077 447.383,549.708 444.198,537.812 445.467,536.017 445.821,536.469 
		449.721,538.108 449.843,535.861 450.157,533.709 458.798,532.385 451.755,532.189 451.282,529.853 448.136,530.316 
		446.465,530.87 445.662,534.266 444.026,531.055 442.392,527.808 437.421,531.947 442.906,523.406 436.636,524.515 
		435.071,521.306 442.869,524.537 445.234,523.941 445.448,520.354 443.574,516.128 447.729,516.812 444.844,512.424 
		450.943,516.662 446.659,510.196 446.212,515.704 445.318,505.449 447.794,506.178 449.964,508.9 439.972,504.808 440.417,502.874 
		437.872,500.317 450.784,497.642 441.409,503.916 446.139,495.061 435.045,499.621 442.639,493.301 436.351,493.943 
		433.309,486.924 441.326,487.98 444.161,486.104 442.46,497.409 444.68,497.324 448.561,492.418 449.475,494.151 449.822,491.833 
		442.236,496.151 447.237,488.539 443.943,488.778 448.304,486.671 442.581,484.058 447.13,485.684 444.577,480.682 
		453.163,477.492 447.345,487.253 443.403,479.464 442.767,485.811 439.159,479.468 438.159,483.579 440.714,483.09 
		439.266,479.638 447.354,482.776 445.649,479.136 445.384,478.816 446.655,470.041 441.489,471.567 441.047,475.266 
		452.645,471.063 446.037,470.354 446.018,468.376 445.109,466.582 450.211,463.67 448.178,464.638 451.355,464.688 
		451.051,462.121 447.597,457.646 447.316,455.657 442.634,453.905 445.011,454.099 444.492,444.554 442.979,448.508 
		441.762,454.392 440.92,452.992 441.089,453.661 443.284,449.316 444.561,458.234 447.455,454.362 443.681,447.526 
		452.558,453.033 446.189,448.572 448.365,447.816 449.639,444.568 449.848,442.051 450.245,439.399 437.815,441.074 448.37,440.67 
		444.574,436.216 444.216,433.852 447.697,434.826 447.863,431.568 447.278,428.018 444.732,430.463 445.663,428.573 
		444.529,429.876 443.295,428.764 438.066,424.963 440.463,426.547 446.271,422.958 441.262,422.445 444.839,419.488 
		445.266,417.424 438.11,412.846 443.32,417.316 444.41,415.937 445.742,412.176 440.716,415.923 435.642,415.218 437.972,413.215 
		438.846,410.768 436.831,410.017 435.054,409.021 432.924,405.849 439.697,408.892 441.874,408.528 443.242,407.022 
		443.66,406.863 443.459,399.728 445.141,396.503 447.42,405.375 454.359,404.699 445.848,400.462 443.922,399.321 452.218,394.083 
		450.855,391.399 448.26,389.882 448.403,388.738 438.696,390.594 441.31,387.932 441.153,384.61 441.326,379.342 435.701,387.069 
		434.163,385.622 437.87,382.017 430.369,376.734 439.859,385.095 440.309,382.735 435.916,374.631 439.541,375.844 441.447,375.15 
		447.218,381.434 448.03,380.39 448.184,376.389 451.487,379.564 452.318,375.666 451.873,370.901 458.345,366.153 456.757,364.831 
		448.824,367.099 446.175,370.808 447.377,365.074 445.979,368.062 444.723,371.942 441.425,363.508 436.655,370.268 
		443.807,363.316 441.483,361.544 437.404,360.014 438.056,357.856 431.665,356.307 431.085,354.313 440.68,354.347 
		440.306,351.176 442.367,350.739 443.596,354.633 445.582,354.63 446.771,352.904 446.595,351.931 447.304,349.25 447.492,345.951 
		441.263,349.007 436.821,347.762 436.391,345.799 439.178,342.329 436.942,340.625 438.596,338.697 444.633,336.469 
		435.998,334.833 446.072,332.896 436.348,327.226 442.762,336.439 444.681,338.009 446.406,336.549 446.979,327.902 
		447.752,326.149 452.941,330.836 452.604,326.005 458.467,331.837 460.039,324.91 453.979,329.675 453.741,321.411 
		449.587,330.646 449.16,323.229 448.149,318.402 449.793,319.185 449.847,320.783 439.001,317.762 438.31,315.585 452.561,311.372 
		444.747,313.23 447.519,315.307 447.164,312.399 446.087,309.932 454.857,308.92 454.147,305.6 450.548,303.908 442.694,306.615 
		446.586,299.406 444.551,302.819 443.04,301.518 450.519,301.011 446.324,298.269 437.384,294.635 438.685,292.913 446.22,291.011 
		443.492,287.351 441.538,286.986 439.955,284.305 436.707,291.988 438.347,289.624 440.293,293.818 438.289,288.236 
		441.058,288.403 443.46,287.128 439.514,282.471 440.884,280.962 443.368,279.774 446.229,285.948 447.569,279.752 450.082,284.24 
		451.518,278.882 455.78,280.217 457.281,275.361 453.222,274.464 446.536,274.471 455.278,267.643 452.401,265.616 449.918,265.81 
		444.916,271.352 444.745,263.294 443.044,267.621 436.466,266.973 439.333,261.635 444.498,270.541 446.137,268.138 
		447.171,257.127 454.496,264.509 446.667,262.076 450.944,256.661 444.659,258.388 439.166,255.869 448.57,255.606 
		445.497,251.139 452.182,248.081 446.546,252.147 445.295,255.902 442.222,250.632 441.149,255.284 441.995,247.938 
		432.966,249.968 431.484,247.96 441.793,246.35 439.887,244.276 438.365,242.313 436.088,240.438 441.392,238.167 442.245,240.969 
		441.689,230.453 441.568,240.498 444.87,234.786 445.218,242.683 445.485,232.947 448.003,235.884 455.621,237.554 
		446.232,235.316 449.279,232.051 447.11,233.341 445.129,231.584 446.4,229.605 439.492,229.311 437.552,226.77 440.755,225.401 
		450.588,225.54 444.978,222.364 443.545,222.024 437.664,217.982 444.33,227.612 441.76,217.878 438.951,221.285 447.86,216.188 
		439.69,216.769 449.812,211.268 447.985,209.736 437.884,206.006 444.389,215.807 446.53,215.251 448.69,213.113 450.828,213.1 
		453.044,205.422 455.124,211.638 457.083,209.526 461.141,203.833 458.951,202.894 454.69,203.613 450.861,203.98 450.372,202.414 
		449.431,204.024 445.25,197.728 446.313,207.414 441.535,199.302 440.996,204.125 436.712,209.812 432.145,204.187 433.088,202.28 
		439.841,199.707 441.857,198.316 442.483,196.733 439.425,193.782 438.181,189.219 441.263,198.338 444.566,189.667 
		446.841,189.339 450.462,199.887 454.532,197.085 452.051,190.39 452.545,187.631 452.063,183.572 456.498,186.535 
		454.588,187.269 455.939,178.696 449.915,189.07 451.788,179.153 447.036,186.24 445.825,188.986 445.019,184.957 441.686,176.085 
		441.273,185.152 439.489,185.824 435.404,185.513 439.183,182.624 441.96,181.575 434.753,177.018 435.507,175.251 440.577,175.09 
		444.669,180.757 449.891,177.575 444.873,171.592 441.524,169.718 451.696,167.291 447.496,167.579 446.291,164.324 
		448.241,164.054 451.112,166.965 457.139,166.365 450.207,161.59 457.583,158.265 453.945,156.725 452.46,153.316 449.279,149.948 
		446.149,155.514 443.797,155.827 440.706,160.979 439.434,156.091 436.582,160.041 435.744,152.709 434.708,146.475 
		427.718,153.532 431.101,149.012 439.809,152.059 438.277,148.549 440.458,147.409 437.347,142.888 441.045,147.272 
		442.146,144.384 444.27,145.816 444.472,137.667 449.099,143.455 454.067,141.804 447.767,136.303 443.095,131.639 
		445.742,130.748 451.475,131.343 448.722,133.549 446.309,134.472 444.195,134.982 443.243,125.956 441.31,123.95 438.675,128.43 
		436.159,131.8 435.066,121.994 432.55,128.583 433.69,127.427 434.85,125.773 439.544,127.539 439.526,124.732 440.24,122.794 
		442.727,123.227 442.436,119.849 442.904,116.628 445.744,119.272 447.807,118.312 449.276,111.145 451.521,112.048 
		453.265,116.474 454.999,114.955 450.475,114.613 452.794,111.85 445.93,112.326 447.886,113.276 449.494,102.264 446.746,105.881 
		446.288,101.958 442.612,106.966 439.02,105.22 445.116,109.321 442.37,102.808 443.254,102.502 444.294,100.476 443.681,98.702 
		448.179,96.13 443.991,95.42 444.281,89.702 447.603,98.298 446.329,99.59 446.717,98.092 444.16,91.961 444.337,91.976 
		437.108,92.188 447.215,90.648 449.042,88.706 445.811,84.499 436.618,91.065 435.599,88.368 429.651,82.235 439.974,88.804 
		440.069,78.618 441.891,77.202 447.647,84.53 442.169,77.799 439.619,74.66 445.377,74.528 450.147,75.583 453.385,75.748 
		445.326,74.654 448.439,72.488 446.122,70.152 443.702,66.352 440.987,72.661 447.009,68.444 434.379,68.269 442.776,64.282 
		441.324,62.295 441.866,59.637 444.026,58.831 431.906,55.43 433.896,53.582 443.986,55.84 439.309,48.317 442.528,50.182 
		441.624,48.603 448.986,49.008 450.375,49.213 442.899,41.624 450.009,41.463 445.967,41.87 443.56,39.197 442.357,43.306 
		441.478,49.254 435.249,47.468 443.117,42.632 431.919,39.258 444.871,38.934 441.521,37.614 442.466,36.225 442.005,30.254 
		446.186,35.28 447.964,33.735 448.782,31.615 445.174,33.364 450.325,26.338 448.146,25.692 446.265,24.785 442.019,27.369 
		438.318,30.055 440.81,23.532 444.479,19.604 444.347,18.725 435.275,17.824 436.893,15.897 439.701,13.972 436.116,12.022 	"/>
</g>
<g>
	<polyline class="st0" points="963.555,757.82 965.6,757.488 964.981,753.653 966.983,753.127 963.6,746.218 967.782,748.318 
		976.135,747.79 967.812,745.978 962.672,747.493 969.73,739.573 970.616,741.251 961.213,735.931 962.772,734.563 966.466,734.867 
		964.437,733.701 962.653,734.423 974.812,728.954 969.742,726.337 965.562,723.284 964.176,727.425 962.793,731.631 
		960.567,727.695 954.783,732.344 960.343,727.5 954.088,723.992 956.424,721.381 966.832,724.851 964.018,720.825 960.176,712.635 
		965.142,719.842 964.637,714.45 970.12,717.411 965.206,713.435 965.818,711.763 967.331,714.377 968.469,715.206 967.232,718.994 
		962.645,709.462 961.313,712.887 963.922,709.48 958.102,711.463 961.96,710.692 957.742,707.062 960.049,704.01 965.093,711.115 
		966.584,706.074 967.44,703.794 967.646,701.646 960.884,700.111 962.203,699.008 962.625,694.846 968.809,694.401 965.844,690.4 
		964.005,687.062 973.083,687.978 968.698,686.812 962.181,690.397 970.373,681.938 959.916,686.633 963.812,682.435 
		968.459,675.747 955.927,676.197 963.915,678.242 965.954,675.217 967.938,674.791 967.716,675.151 973.075,677.761 
		976.784,677.196 974.54,674.518 973.068,671.452 974.347,664.988 969.172,668.584 970.307,662.322 963.816,670.005 
		961.503,670.371 960.477,667.389 958.451,666.215 963.361,657.519 956.771,662.001 957.339,661.016 957.595,661.281 959.26,666.6 
		962.031,656.915 963.438,665.747 965.309,668.346 970.422,665.737 962.796,656.587 963.29,654.688 971.028,656.389 
		967.782,650.598 969.385,649.347 976.424,653.368 972.801,647.029 972.871,650.453 976.068,643.256 973.505,646.365 
		970.374,653.482 969.352,645.673 967.313,645.03 961.396,650.656 961.287,645.511 958.271,643.952 960.396,643.376 
		963.538,633.683 960.572,636.609 958.406,636.881 956.309,636.908 954.521,635.894 959.006,638.197 953.732,630.551 
		956.404,642.696 957.798,630.61 960.129,636.224 961.938,631.959 964.154,635.365 971.9,640.83 969.516,633.661 960.276,633.574 
		971.104,629.238 968.45,627.757 965.213,627.379 969.356,627.522 964.869,624.609 963.175,625.574 957.065,623.513 
		970.202,621.973 963.626,619.744 969.146,614.109 961.116,617.994 957.649,621.327 959.54,611.853 954.182,619.68 955.639,614.407 
		956.658,619.671 958.65,618.389 960.666,617.9 962.622,615.421 964.455,608.598 964.054,609.731 961.004,609.075 973.942,612.628 
		968.983,608.319 968.54,604.921 973.913,608.536 977.424,609.9 970.93,599.211 975.215,602.479 975.096,600.741 976.028,596.766 
		973.587,596.843 970.652,597.509 968.627,597.421 966.048,599.918 963.341,602.128 963.405,594.746 965.383,593.429 964.55,592.25 
		963.592,596.736 967.703,587.916 969.189,595.014 974.846,595.697 968.283,587.312 974.262,588.225 972.116,585.549 
		965.341,587.494 971.649,580.797 969.324,579.795 970.826,579.317 972.264,580.91 964.682,573.477 971.816,575.682 
		965.155,568.841 965.725,574.672 970.27,573.174 967.36,569.396 965.939,572.35 964.223,573.98 963.16,571.298 968.162,572.463 
		963.474,569.688 955.897,568.039 962.574,565.989 962.916,563.967 967.239,562.559 967.065,561.877 961.695,558.119 
		960.71,555.454 962.565,555.332 964.803,554.31 968.224,552.618 964.301,558.037 962.762,555.596 961.727,547.953 958.886,552.679 
		965.506,550.821 965.438,548.937 956.358,546.24 965.242,548.463 960.508,540.221 965.75,549.768 962.465,536.356 970.138,548.683 
		970.625,545.274 973.689,543.732 975.37,540.703 966.483,533.753 971.195,533.896 972.221,533.443 972.188,532.449 972.021,529.79 
		968.623,530.518 969.354,525.973 966.336,534.358 965.328,520.602 962.81,532.202 957.115,533.387 965.94,522.029 964.992,520.019 
		950.809,520.643 961.094,521.882 956.898,514.188 960.072,514.951 968.479,519.121 962.463,512.6 961.562,508.497 970.734,515.501 
		962.337,510.591 967.998,504.372 966.092,504.488 968.913,505.872 962.159,507.145 959.075,504.481 966.663,504.025 
		966.557,501.974 961.496,501.336 967.493,492.492 963.896,497.674 959.901,497.525 957.782,496.08 959.896,492.506 
		964.027,494.052 960.789,491.513 963.519,489.944 962.473,499.349 968.202,489.062 967.325,497.984 964.441,490.563 
		972.727,489.727 966.014,493.218 968.017,488.443 968.473,485.13 969.53,486.646 965.844,486.467 963.658,481.812 968.736,483.928 
		967.741,482.096 967.327,484.266 964.546,481.44 962.469,481.626 962.045,488.901 960.488,482.378 961.75,483.337 960.416,479.963 
		961.094,477.975 964.326,477.75 966.83,480.452 966.052,475.847 972.15,479.725 965.053,474.626 964.301,472.797 970.231,469.68 
		960.019,469.659 971.32,464.694 957.491,463.989 964.621,461.463 966.199,460.311 968.726,459.867 962.563,456.374 
		963.267,456.234 967.562,453.386 972.737,445.655 966.684,454.251 963.338,446.449 962.685,455.95 955.213,450.14 961.972,450.756 
		963.339,458.32 965.775,450.516 965.694,448.18 968.44,451.182 964.726,445.409 973.961,448.824 964.666,450.849 966.992,446.871 
		965.48,445.546 972.336,438.424 958.317,441.085 967.988,440.024 965.438,436.328 966.832,435.031 973.702,432.929 
		967.151,434.765 966.603,431.128 963.101,433.256 964.675,429.635 960.151,428.683 967.086,433.919 963.685,426.789 
		970.002,424.027 958.75,425.287 957.891,423.596 956.516,422.048 956.471,420.118 962.884,417.44 965.24,412.612 967.407,420.126 
		962.751,418.304 966.008,414.6 965.84,412.485 967.637,408.002 960.008,410.282 957.143,410.386 960.828,403.9 953.292,405.82 
		955.067,401.441 959.635,404.434 958.408,399.286 959.926,394.614 964.008,397.04 965.966,399.454 967.716,397.559 
		974.944,404.635 967.841,399.936 967.585,398.126 963.489,397.852 971.601,391.354 966.762,391.38 967.627,389.336 
		962.824,389.178 966.601,383.437 961.999,384.238 960.945,381.722 960.277,378.329 958.262,377.948 947.496,384.199 
		960.04,387.389 960.416,384.948 957.29,378.351 961.089,379.955 963.307,380.254 964.556,379.388 962.242,371.563 965.346,372.942 
		969.215,377.394 969.409,371.681 970.764,369.279 980.031,374.083 969.153,371.746 977.873,364.583 976.048,363.393 
		971.332,361.721 967.791,363.467 965.453,360.789 964.068,363.887 962.958,368.663 960.694,366.129 955.672,364.893 
		966.737,360.727 961.138,359.622 954.111,358.208 955.971,356.033 957.351,353.891 954.611,347.198 961.985,345.997 
		963.535,348.211 964.645,352.729 966.271,354.577 973.458,356.995 973.718,348.426 965.412,350.649 965.808,348.053 
		961.746,349.158 968.568,343.468 957.62,345.586 958.393,342.717 957.406,340.654 956.844,339.015 961.505,336.708 
		966.925,334.802 962.759,332.91 964.32,333.717 962.67,324.53 964.697,327.772 966.761,331.556 968.498,330.486 967.421,324.411 
		971.31,326.86 970.988,322.054 978.43,330.601 974.457,325.469 975.781,324.657 973.656,324.831 972.951,318.653 968.843,327.683 
		966.549,328.593 965.688,322.599 970.511,320.782 961.834,317.942 966.678,316.228 966.609,314.06 965.534,312.917 
		969.176,318.432 972.277,313.643 968.509,310.421 970.503,308.628 974.141,305.701 969.789,304.12 973.264,298.158 
		966.986,302.257 965.259,302.526 960.54,303.572 961.022,299.109 961.995,297.333 957.98,294.619 971.071,295.102 963.875,293.208 
		964.18,287.3 961.861,289.208 958.868,295.323 956.421,298.009 960.562,289.227 956.876,288.879 958.375,287.52 959.194,285.336 
		961.969,285.451 956.964,281.001 961.885,281.108 966.584,283.35 965.734,275.243 968.469,281.756 970.928,285.763 
		972.767,284.067 971.252,277.268 973.999,276.731 977.455,273.235 975.49,271.609 974.317,268.749 970.18,269.298 964.607,273.414 
		964.528,274.255 965.468,265.418 960.57,270.89 957.416,266.903 959.762,261.494 964.999,268.032 966.378,261.928 968.521,266.639 
		977.005,265.136 964.945,263.7 962.895,262.566 961.939,260.687 964.292,255.843 964.807,252.898 965.346,250.633 973.563,247.719 
		967.009,251.07 964.808,250.122 963.373,252.968 961.785,255.07 954.92,257.193 955.725,250.039 958.935,248.19 953.772,246.055 
		963.418,244.25 957.349,242.401 957.055,240.422 965.109,238.011 963.625,241.808 960.004,241.333 962.821,237.85 963.986,241.979 
		966.998,237.622 971.813,244.435 968.158,235.599 965.801,231.835 975.785,230.811 970.287,226.809 968.263,225.811 
		965.514,236.272 960.584,234.579 957.4,228.679 970.562,229.582 959.878,225.045 970.504,225.366 959.599,225.171 965.134,219.21 
		960.047,219.23 964.545,214.998 964.124,219.083 960.474,221.004 970.505,215.537 969.104,213.865 962.864,213.803 
		963.012,211.615 964.323,210.515 965.2,202.705 967.247,211.592 969.41,209.056 971.488,215.016 973.703,207.427 975.801,211.884 
		975.288,208.269 981.612,204 970.962,209.855 976.257,202.901 970.229,205.034 972.524,197.748 969.405,201.875 966.963,200.879 
		966.038,204.503 961.496,197.113 960.664,201.042 961.706,201.828 953.905,204.065 952.387,202.438 953.609,200.496 
		965.535,198.532 959.678,195.945 960.51,193.874 960.491,191.547 961.974,198.082 964.464,195.989 966.35,198.814 970.469,197.211 
		970.445,190.766 972.091,189.542 971.062,184.763 973.447,184.507 984.36,186.237 976.964,182.915 973.196,187.486 
		971.729,186.161 971.105,182.652 967.748,186.159 967.767,176.927 965.072,181.117 964.45,188.869 960.952,179.018 960.51,187.92 
		957.027,184.752 960.191,182.739 962.339,181.469 964.704,180.27 953.791,174.41 963.054,177.169 962.622,171.755 962.381,170.982 
		964.451,171.637 967.767,169.492 970.703,167.358 967.062,166.799 968.235,168.722 969.914,167.501 971.089,164.527 
		966.898,159.928 968.852,161.92 974.998,158.794 970.042,157.469 973.152,153.304 969.745,151.353 966.243,159.364 
		964.803,153.855 963.021,151.847 961.711,147.163 958.3,154.23 955.394,158.468 953.783,155.443 951.538,152.175 951.997,149.151 
		952.682,147.064 953.755,145.221 960.992,147.316 961.721,147.426 961.739,147.316 963.742,146.945 963.294,139.266 
		964.885,135.851 969.947,143.685 974.084,141.461 966.857,135.483 966.563,133.079 976.058,135.723 976.788,128.774 
		970.794,126.51 968.738,125.63 964.912,134.741 963.353,131.226 961.557,127.949 959.956,122.865 956.826,131.929 954.771,131.006 
		957.238,126.803 949.543,122.752 959.917,130.023 960.221,127.534 955.13,119.815 958.931,120.581 960.671,119.678 
		967.203,125.149 966.549,124.663 966.6,121.118 969.124,124.983 970.935,121.389 972.593,116.157 980.509,121.668 980.355,113.304 
		972.184,114.249 966.556,114.293 972.303,110.315 970.2,110.884 968.765,114.699 967.453,105.634 963.09,112.706 966.13,103.312 
		964.406,106.015 963.221,103.567 964.939,103.832 958.406,103.361 957.7,101.605 968.183,98.108 963.417,96.976 962.616,93.996 
		966.146,96.49 967.848,95.808 968.893,95.187 967.187,94.445 964.88,92.671 965.118,91.862 960.137,92.301 956.663,90.106 
		957.069,88.096 961.276,87.417 958.947,88.55 958.033,85.691 961.344,82.691 958.451,77.603 962.414,87.097 962.285,75.751 
		968.911,85.25 972.871,81.767 972.351,79.43 965.188,74.025 965.795,71.525 972.175,74.223 969.932,71.855 968.588,64.668 
		966.675,68.287 965.067,76.463 964.436,69.271 955.328,70.492 962.01,67.118 965.898,63.468 965.536,60.409 963.521,59.116 
		952.042,60.029 951.998,55.271 966.725,56.864 960,52.518 962.332,52.472 963.256,50.269 963.055,48.951 970.731,49.272 
		970.856,49.081 969.307,45.416 962.243,45.168 966.352,40.226 965.112,44.099 963.03,43.274 959.884,36.484 961.162,42.096 
		952.816,41.243 954.016,39.437 961.826,38.463 963.968,38.81 964.822,38.654 967.197,39.817 965.986,31.887 969.21,35.921 
		975.918,34.175 969.406,30.268 969.578,27.58 968.789,25.725 963.307,27.955 963.114,26.572 962.745,25.22 967.644,20.532 
		961.396,21.439 965.182,18.691 960.142,17.841 963.005,15.918 965.147,13.99 961.613,12.042 	"/>
</g>
</svg>
