<?xml version="1.0" encoding="utf-8"?>
<!-- Generator: Adobe Illustrator 15.0.0, SVG Export Plug-In . SVG Version: 6.00 Build 0)  -->
<!DOCTYPE svg PUBLIC "-//W3C//DTD SVG 1.1//EN" "http://www.w3.org/Graphics/SVG/1.1/DTD/svg11.dtd">
<svg version="1.1" id="Layer_1" xmlns="http://www.w3.org/2000/svg" xmlns:xlink="http://www.w3.org/1999/xlink" x="0px" y="0px"
	 width="1024px" height="768px" viewBox="0 0 1024 768" style="enable-background:new 0 0 1024 768;" xml:space="preserve">
<style type="text/css">
<![CDATA[
	.st0{fill:none;stroke:#FF5F9F;stroke-miterlimit:10;}
]]>
</style>
<polyline class="st0" points="281.208,754.153 285.577,750.828 289.739,747.284 284.979,741.126 290.017,734.713 288.374,728.649 
	279.385,729.576 280.65,722.793 283.669,718.104 287.419,718.019 290.159,711.462 279.858,714.056 282.541,706.465 286.668,705.701 
	288.133,699.459 286.32,694.908 290.26,688.251 286.542,684.262 286.563,683.352 282.387,678.311 290.271,678.487 292.638,671.804 
	287.331,668.07 282.138,665.558 276.059,660.252 288.342,661.156 290.833,655.94 297.865,648.7 285.359,646.934 283.987,640.599 
	272.495,637.146 286.689,636.395 284.618,626.616 287.232,625.582 283.466,625.717 283.743,617.733 274.91,614.034 287.08,613.677 
	289.432,608.322 296.469,602.48 289.439,596.637 283.164,595.204 283.842,590.919 288.743,592.23 292.402,588.183 286.58,579.363 
	292.245,570.722 282.352,572.907 283.435,567.81 282.009,562.388 283.781,556.453 284.02,556.252 287.013,552.843 279.987,552.163 
	280.653,544.702 285.667,542.937 290.859,540.424 294.653,533.153 288.992,527.758 281.715,527.325 278.358,521.596 
	283.075,517.235 286.271,512.725 289.78,510.039 284.149,509.489 286.16,499.771 283.435,498.482 279.408,490.46 291.159,494.504 
	283.981,486.926 289.202,481.328 279.143,483.681 284.891,475.373 288.15,476.093 286.317,466.553 285.099,463.817 289.582,457.839 
	288.743,450.971 280.421,452.267 287.957,452.79 291.598,448.725 286.047,440.709 289.854,434.457 284.485,432.119 282.599,429.156 
	285.613,427.338 282.553,416.571 286.453,417.601 283.637,417.565 281.918,411.577 276.366,406.052 282.83,401.445 290.175,401.085 
	287.535,394.493 285.632,392.462 283.39,386.998 274.294,382.945 281.423,376.93 286.323,374.123 294.14,371.388 290.327,364.658 
	281.09,366.188 279.952,359.831 279.34,351.737 288.892,353.583 286.004,348.273 284.55,347.326 282.396,341.773 281.739,336.721 
	281.721,331.009 288.959,330.541 298.192,325.174 286.263,322.505 286.965,314.096 285.739,313.609 288.419,314.598 290.107,308.58 
	289.146,302.057 284.097,301.561 285.87,292.081 276.05,290.507 282.274,285.345 284.685,280.048 294.672,278.953 291.825,270.724 
	287.514,267.328 284.388,267.392 283.303,263.264 290.502,262.756 285.82,255.836 289.276,250.163 279.619,252.114 279.885,244.286 
	279.475,236.327 289.322,238.468 292.446,232.733 284.122,232.209 286.398,222.226 283.146,221.175 287.279,221.023 
	283.442,209.479 298.409,209.629 291.81,201.413 280.341,205.174 279.529,198.068 280.986,191.621 289.781,192.708 297.988,186.52 
	287.628,182.485 278.417,183.988 281.585,174.958 286.074,173.599 285.747,165.565 293.242,163.406 291.894,155.109 
	285.206,154.091 272.717,151.856 278.461,142.878 284.136,140.846 287.904,140.293 292.496,131.399 286.062,130.126 
	273.304,128.747 280.259,121.566 284.611,118.211 295.293,117.19 292.24,108.546 285.317,107.762 282.573,105.63 285.93,104.128 
	284.511,95.002 289.81,94.077 283.221,94.456 283.611,86.358 277.766,82.525 285.847,80.937 288.032,75.415 291.617,70.97 
	283.015,71.553 281.92,64.941 278.969,59.415 280.77,52.75 285.697,49.971 285.464,47.855 289.108,42.351 279.731,44.021 
	280.707,36.304 284.687,33.559 290.809,31.973 284.509,24.746 283.395,24.955 280.868,19.774 280.899,12.037 "/>
<polyline class="st0" points="801.887,754.153 806.256,750.828 810.419,747.284 805.658,741.126 810.697,734.713 809.053,728.649 
	800.064,729.576 801.33,722.793 804.349,718.104 808.1,718.019 810.838,711.462 800.537,714.056 803.221,706.465 807.348,705.701 
	808.812,699.459 807,694.908 810.939,688.251 807.222,684.262 807.243,683.352 803.066,678.311 810.951,678.487 813.317,671.804 
	808.01,668.07 802.817,665.558 796.738,660.252 809.021,661.156 811.512,655.94 818.545,648.7 806.039,646.934 804.667,640.599 
	793.175,637.146 807.369,636.395 805.298,626.616 807.912,625.582 804.146,625.717 804.423,617.733 795.59,614.034 807.76,613.677 
	810.111,608.322 817.148,602.48 810.119,596.637 803.844,595.204 804.521,590.919 809.423,592.23 813.082,588.183 807.26,579.363 
	812.924,570.722 803.031,572.907 804.114,567.81 802.688,562.388 804.461,556.453 804.699,556.252 807.693,552.843 800.666,552.163 
	801.333,544.702 806.346,542.937 811.539,540.424 815.333,533.153 809.672,527.758 802.395,527.325 799.038,521.596 
	803.755,517.235 806.95,512.725 810.46,510.039 804.829,509.489 806.84,499.771 804.115,498.482 800.088,490.46 811.839,494.504 
	804.66,486.926 809.882,481.328 799.822,483.681 805.57,475.373 808.83,476.093 806.997,466.553 805.779,463.817 810.262,457.839 
	809.423,450.971 801.101,452.267 808.637,452.79 812.277,448.725 806.727,440.709 810.534,434.457 805.164,432.119 803.279,429.156 
	806.293,427.338 803.232,416.571 807.133,417.601 804.316,417.565 802.598,411.577 797.045,406.052 803.51,401.445 810.855,401.085 
	808.215,394.493 806.312,392.462 804.069,386.998 794.974,382.945 802.103,376.93 807.002,374.123 814.819,371.388 811.007,364.658 
	801.77,366.188 800.632,359.831 800.02,351.737 809.572,353.583 806.684,348.273 805.23,347.326 803.075,341.773 802.418,336.721 
	802.4,331.009 809.639,330.541 818.872,325.174 806.942,322.505 807.645,314.096 806.418,313.609 809.099,314.598 810.787,308.58 
	809.825,302.057 804.777,301.561 806.549,292.081 796.729,290.507 802.954,285.345 805.364,280.048 815.352,278.953 
	812.505,270.724 808.193,267.328 805.067,267.392 803.982,263.264 811.182,262.756 806.5,255.836 809.956,250.163 800.299,252.114 
	800.564,244.286 800.154,236.327 810.002,238.468 813.125,232.733 804.801,232.209 807.078,222.226 803.826,221.175 
	807.959,221.023 804.122,209.479 819.088,209.629 812.49,201.413 801.021,205.174 800.209,198.068 801.666,191.621 810.461,192.708 
	818.668,186.52 808.308,182.485 799.098,183.988 802.266,174.958 806.754,173.599 806.426,165.565 813.922,163.406 812.574,155.109 
	805.886,154.091 793.396,151.856 799.141,142.878 804.816,140.846 808.584,140.293 813.176,131.399 806.741,130.126 
	793.984,128.747 800.938,121.566 805.291,118.211 815.973,117.19 812.92,108.546 805.996,107.762 803.252,105.63 806.609,104.128 
	805.19,95.002 810.49,94.077 803.9,94.456 804.291,86.358 798.445,82.525 806.527,80.937 808.712,75.415 812.297,70.97 
	803.694,71.553 802.6,64.941 799.648,59.415 801.449,52.75 806.377,49.971 806.145,47.855 809.787,42.351 800.41,44.021 
	801.387,36.304 805.367,33.559 811.488,31.973 805.189,24.746 804.074,24.955 801.548,19.774 801.578,12.037 "/>
<g>
	<polyline class="st0" points="400.568,754.83 402.2,753.955 399.426,747.286 405.811,752.553 407.309,751.409 406.741,747.93 
		407.312,747.189 408.389,744.982 410.646,740.777 405.109,742.597 409.562,741.244 403.249,738.088 404.199,736.241 
		410.502,738.597 402.646,733.488 413.869,731.189 400.851,732.547 406.332,729.783 405.513,729.699 403.54,728.139 
		402.523,735.906 400.61,734.996 397.377,730.145 405.459,728.587 396.132,724.507 404.398,724.622 397.091,719.036 
		405.896,722.493 401.714,716.666 404.522,723.865 405.088,716.222 402.375,714.473 407.28,714.598 401.859,710.405 
		410.783,709.288 408.545,718.325 405.465,714.794 403.526,715.785 399.097,706.907 393.583,719.253 400.958,712.723 
		397.762,709.459 398.919,707.73 404.304,709.962 403.235,704.919 406.855,707.092 404.566,703.286 408.31,701.968 404.928,699.656 
		412.227,694.731 403.583,694.878 410.928,696.076 402.302,688.725 402.974,686.873 402.251,688.826 403.191,691.281 
		407.479,684.798 401.324,686.472 402.858,684.701 403.356,682.222 405.339,677.744 404.955,679.62 403.044,685.478 
		405.175,678.282 407.195,676.232 411.786,682.699 407.219,675.939 406.292,673.731 411.68,673.756 407.711,673.324 405.539,676.5 
		405.461,672.85 405.249,669.629 402.871,670.492 405.462,660.72 400.248,666.663 398.881,664.907 394.928,666.369 400.04,657.441 
		396.651,661.024 396.696,663.835 399.064,659.613 400.666,665.792 402.931,662.984 404.844,665 410.484,667.141 413.757,662.16 
		403.002,654.889 415.725,660.184 415.219,658.51 411.56,652.147 415.602,653.26 418.213,652.978 420.36,647.295 414.067,652.396 
		412.367,649.395 411.05,643.67 408.221,648.651 405.879,650.158 408.933,641.931 399.713,645.698 410.121,641.232 407.323,636.639 
		401.863,636.889 399.444,637.996 398.403,634.526 395.672,636.66 392.449,640.423 391.416,637.157 393.117,632.376 
		395.756,643.879 397.503,638.463 399.166,631.464 401.301,633.372 403.414,634.8 400.625,632.541 399.035,635.729 400.46,633.386 
		404.18,630.557 405.238,628.286 408.347,630.206 411.736,629.859 404.241,626.915 402.553,625.49 399.395,623.619 408.001,621.921 
		397.104,619.543 399.458,619.673 399.138,621.02 397.243,620.601 397.376,615.322 397.703,609.577 395.162,614.482 395.9,618.047 
		397.62,607.542 399.747,610.847 401.89,614.695 403.893,613.679 402.721,608.782 405.081,611.178 401.913,607.656 412.321,611.321 
		407.572,604.611 411.136,606.047 412.139,604.392 417.301,607.74 410.922,602.472 410.214,605.759 412.404,600.271 
		413.998,595.493 406.911,601.154 408.427,596.336 406.217,596.067 403.94,596.395 405.349,592.97 406.185,593.668 402.285,590.454 
		404.103,592.167 404.701,596.477 407.825,592.968 413.259,594.906 409.756,589.286 410.444,588.168 406.991,588.462 
		406.389,586.334 405.75,584.223 400.874,584.905 411.529,579.303 404.955,576.586 411.472,578.392 410.722,575.43 406.411,570.129 
		404.988,574.689 408.01,566.162 407.232,572.028 405.274,572.553 403.543,574.12 401.304,572.771 395.463,569.915 400.249,569.155 
		406.327,567.679 397.343,567.178 403.418,563.647 407.261,562.582 406.164,561.821 398.759,557.454 403.104,556.635 
		406.503,559.562 407.062,556.917 409.365,552.365 404.144,552.3 401.743,558.779 399.881,559.678 400.36,550.965 394.157,549.87 
		393,547.887 395.779,546.253 403.429,547.641 400.809,543.091 404.092,547.077 407.352,549.708 404.167,537.812 405.436,536.017 
		405.79,536.469 409.689,538.108 409.812,535.861 410.126,533.709 418.767,532.385 411.724,532.189 411.251,529.853 
		408.104,530.316 406.434,530.87 405.63,534.266 403.995,531.055 402.361,527.808 397.39,531.947 402.875,523.406 396.605,524.515 
		395.04,521.306 402.837,524.537 405.203,523.941 405.417,520.354 403.543,516.128 407.698,516.812 404.813,512.424 
		410.912,516.662 406.627,510.196 406.181,515.704 405.287,505.449 407.763,506.178 409.933,508.9 399.941,504.808 400.385,502.874 
		397.841,500.317 410.753,497.642 401.378,503.916 406.108,495.061 395.014,499.621 402.608,493.301 396.32,493.943 
		393.277,486.924 401.294,487.98 404.13,486.104 402.429,497.409 404.648,497.324 408.529,492.418 409.444,494.151 409.791,491.833 
		402.205,496.151 407.206,488.539 403.912,488.778 408.273,486.671 402.55,484.058 407.099,485.684 404.545,480.682 
		413.131,477.492 407.314,487.253 403.372,479.464 402.736,485.811 399.127,479.468 398.128,483.579 400.683,483.09 
		399.235,479.638 407.323,482.776 405.618,479.136 405.353,478.816 406.624,470.041 401.458,471.567 401.016,475.266 
		412.614,471.063 406.005,470.354 405.987,468.376 405.078,466.582 410.18,463.67 408.146,464.638 411.324,464.688 411.02,462.121 
		407.565,457.646 407.285,455.657 402.603,453.905 404.979,454.099 404.461,444.554 402.947,448.508 401.731,454.392 
		400.889,452.992 401.058,453.661 403.253,449.316 404.529,458.234 407.423,454.362 403.65,447.526 412.527,453.033 
		406.158,448.572 408.334,447.816 409.607,444.568 409.816,442.051 410.213,439.399 397.784,441.074 408.339,440.67 
		404.542,436.216 404.185,433.852 407.666,434.826 407.832,431.568 407.247,428.018 404.701,430.463 405.632,428.573 
		404.498,429.876 403.264,428.764 398.035,424.963 400.432,426.547 406.24,422.958 401.23,422.445 404.808,419.488 405.235,417.424 
		398.079,412.846 403.289,417.316 404.379,415.937 405.71,412.176 400.685,415.923 395.61,415.218 397.94,413.215 398.814,410.768 
		396.799,410.017 395.022,409.021 392.893,405.849 399.666,408.892 401.843,408.528 403.21,407.022 403.628,406.863 
		403.428,399.728 405.109,396.503 407.389,405.375 414.328,404.699 405.816,400.462 403.891,399.321 412.187,394.083 
		410.824,391.399 408.229,389.882 408.372,388.738 398.665,390.594 401.278,387.932 401.122,384.61 401.294,379.342 395.67,387.069 
		394.131,385.622 397.838,382.017 390.337,376.734 399.828,385.095 400.277,382.735 395.884,374.631 399.51,375.844 401.416,375.15 
		407.187,381.434 407.999,380.39 408.153,376.389 411.456,379.564 412.287,375.666 411.842,370.901 418.314,366.153 
		416.726,364.831 408.793,367.099 406.144,370.808 407.346,365.074 405.947,368.062 404.691,371.942 401.394,363.508 
		396.624,370.268 403.775,363.316 401.452,361.544 397.373,360.014 398.025,357.856 391.633,356.307 391.054,354.313 
		400.648,354.347 400.274,351.176 402.336,350.739 403.565,354.633 405.551,354.63 406.74,352.904 406.563,351.931 407.272,349.25 
		407.461,345.951 401.231,349.007 396.79,347.762 396.359,345.799 399.146,342.329 396.911,340.625 398.565,338.697 
		404.602,336.469 395.967,334.833 406.041,332.896 396.316,327.226 402.731,336.439 404.649,338.009 406.375,336.549 
		406.947,327.902 407.721,326.149 412.91,330.836 412.573,326.005 418.436,331.837 420.008,324.91 413.947,329.675 413.709,321.411 
		409.556,330.646 409.128,323.229 408.118,318.402 409.762,319.185 409.815,320.783 398.97,317.762 398.278,315.585 
		412.529,311.372 404.716,313.23 407.487,315.307 407.132,312.399 406.056,309.932 414.826,308.92 414.116,305.6 410.517,303.908 
		402.663,306.615 406.555,299.406 404.52,302.819 403.009,301.518 410.487,301.011 406.292,298.269 397.353,294.635 
		398.654,292.913 406.189,291.011 403.461,287.351 401.506,286.986 399.924,284.305 396.675,291.988 398.315,289.624 
		400.262,293.818 398.258,288.236 401.026,288.403 403.429,287.128 399.482,282.471 400.853,280.962 403.336,279.774 
		406.198,285.948 407.538,279.752 410.05,284.24 411.487,278.882 415.749,280.217 417.25,275.361 413.19,274.464 406.505,274.471 
		415.247,267.643 412.37,265.616 409.887,265.81 404.884,271.352 404.714,263.294 403.013,267.621 396.435,266.973 399.301,261.635 
		404.466,270.541 406.106,268.138 407.14,257.127 414.464,264.509 406.636,262.076 410.913,256.661 404.628,258.388 
		399.135,255.869 408.539,255.606 405.466,251.139 412.15,248.081 406.515,252.147 405.264,255.902 402.19,250.632 401.118,255.284 
		401.964,247.938 392.935,249.968 391.453,247.96 401.762,246.35 399.856,244.276 398.334,242.313 396.057,240.438 401.361,238.167 
		402.213,240.969 401.658,230.453 401.537,240.498 404.839,234.786 405.187,242.683 405.454,232.947 407.972,235.884 
		415.59,237.554 406.201,235.316 409.248,232.051 407.079,233.341 405.098,231.584 406.369,229.605 399.461,229.311 397.521,226.77 
		400.724,225.401 410.557,225.54 404.946,222.364 403.514,222.024 397.633,217.982 404.298,227.612 401.729,217.878 398.92,221.285 
		407.829,216.188 399.659,216.769 409.781,211.268 407.954,209.736 397.853,206.006 404.357,215.807 406.499,215.251 
		408.659,213.113 410.796,213.1 413.013,205.422 415.092,211.638 417.052,209.526 421.11,203.833 418.92,202.894 414.659,203.613 
		410.83,203.98 410.34,202.414 409.399,204.024 405.219,197.728 406.282,207.414 401.503,199.302 400.964,204.125 396.681,209.812 
		392.113,204.187 393.057,202.28 399.81,199.707 401.826,198.316 402.452,196.733 399.394,193.782 398.15,189.219 401.232,198.338 
		404.535,189.667 406.81,189.339 410.431,199.887 414.5,197.085 412.02,190.39 412.514,187.631 412.032,183.572 416.466,186.535 
		414.557,187.269 415.908,178.696 409.884,189.07 411.756,179.153 407.004,186.24 405.794,188.986 404.988,184.957 401.654,176.085 
		401.242,185.152 399.458,185.824 395.373,185.513 399.152,182.624 401.929,181.575 394.722,177.018 395.476,175.251 
		400.546,175.09 404.638,180.757 409.859,177.575 404.842,171.592 401.493,169.718 411.665,167.291 407.465,167.579 
		406.259,164.324 408.21,164.054 411.081,166.965 417.107,166.365 410.176,161.59 417.551,158.265 413.914,156.725 412.429,153.316 
		409.248,149.948 406.118,155.514 403.766,155.827 400.675,160.979 399.403,156.091 396.55,160.041 395.713,152.709 
		394.677,146.475 387.687,153.532 391.069,149.012 399.777,152.059 398.246,148.549 400.426,147.409 397.315,142.888 
		401.014,147.272 402.115,144.384 404.238,145.816 404.44,137.667 409.068,143.455 414.036,141.804 407.735,136.303 
		403.063,131.639 405.71,130.748 411.443,131.343 408.69,133.549 406.278,134.472 404.164,134.982 403.211,125.956 401.278,123.95 
		398.644,128.43 396.128,131.8 395.035,121.994 392.519,128.583 393.659,127.427 394.818,125.773 399.513,127.539 399.495,124.732 
		400.209,122.794 402.695,123.227 402.405,119.849 402.873,116.628 405.712,119.272 407.775,118.312 409.245,111.145 
		411.49,112.048 413.234,116.474 414.968,114.955 410.443,114.613 412.763,111.85 405.898,112.326 407.854,113.276 409.462,102.264 
		406.714,105.881 406.256,101.958 402.581,106.966 398.988,105.22 405.085,109.321 402.338,102.808 403.223,102.502 
		404.263,100.476 403.65,98.702 408.147,96.13 403.959,95.42 404.25,89.702 407.572,98.298 406.297,99.59 406.686,98.092 
		404.128,91.961 404.306,91.976 397.077,92.188 407.184,90.648 409.011,88.706 405.78,84.499 396.587,91.065 395.568,88.368 
		389.62,82.235 399.943,88.804 400.038,78.618 401.859,77.202 407.616,84.53 402.138,77.799 399.587,74.66 405.346,74.528 
		410.116,75.583 413.354,75.748 405.294,74.654 408.408,72.488 406.09,70.152 403.67,66.352 400.956,72.661 406.978,68.444 
		394.348,68.269 402.745,64.282 401.293,62.295 401.834,59.637 403.995,58.831 391.875,55.43 393.865,53.582 403.955,55.84 
		399.278,48.317 402.497,50.182 401.592,48.603 408.955,49.008 410.344,49.213 402.868,41.624 409.978,41.463 405.936,41.87 
		403.529,39.197 402.326,43.306 401.447,49.254 395.218,47.468 403.085,42.632 391.888,39.258 404.84,38.934 401.49,37.614 
		402.435,36.225 401.974,30.254 406.154,35.28 407.933,33.735 408.751,31.615 405.143,33.364 410.293,26.338 408.115,25.692 
		406.233,24.785 401.988,27.369 398.287,30.055 400.779,23.532 404.448,19.604 404.315,18.725 395.244,17.824 396.861,15.897 
		399.669,13.972 396.084,12.022 	"/>
</g>
<g>
	<polyline class="st0" points="923.523,757.82 925.568,757.488 924.95,753.653 926.952,753.127 923.568,746.218 927.751,748.318 
		936.104,747.79 927.781,745.978 922.641,747.493 929.699,739.573 930.585,741.251 921.182,735.931 922.741,734.563 
		926.435,734.867 924.405,733.701 922.622,734.423 934.781,728.954 929.711,726.337 925.53,723.284 924.145,727.425 
		922.762,731.631 920.536,727.695 914.752,732.344 920.312,727.5 914.057,723.992 916.393,721.381 926.801,724.851 923.986,720.825 
		920.145,712.635 925.11,719.842 924.605,714.45 930.089,717.411 925.175,713.435 925.787,711.763 927.3,714.377 928.438,715.206 
		927.201,718.994 922.613,709.462 921.282,712.887 923.891,709.48 918.07,711.463 921.929,710.692 917.711,707.062 920.018,704.01 
		925.062,711.115 926.553,706.074 927.409,703.794 927.615,701.646 920.853,700.111 922.172,699.008 922.594,694.846 
		928.777,694.401 925.812,690.4 923.974,687.062 933.052,687.978 928.667,686.812 922.149,690.397 930.342,681.938 919.885,686.633 
		923.78,682.435 928.428,675.747 915.896,676.197 923.884,678.242 925.923,675.217 927.906,674.791 927.685,675.151 
		933.044,677.761 936.753,677.196 934.509,674.518 933.037,671.452 934.315,664.988 929.141,668.584 930.275,662.322 
		923.785,670.005 921.472,670.371 920.445,667.389 918.42,666.215 923.33,657.519 916.739,662.001 917.308,661.016 917.563,661.281 
		919.229,666.6 922,656.915 923.407,665.747 925.277,668.346 930.391,665.737 922.765,656.587 923.259,654.688 930.997,656.389 
		927.751,650.598 929.354,649.347 936.393,653.368 932.77,647.029 932.84,650.453 936.037,643.256 933.474,646.365 930.343,653.482 
		929.32,645.673 927.282,645.03 921.365,650.656 921.256,645.511 918.239,643.952 920.364,643.376 923.507,633.683 920.541,636.609 
		918.375,636.881 916.277,636.908 914.49,635.894 918.975,638.197 913.701,630.551 916.373,642.696 917.767,630.61 920.098,636.224 
		921.906,631.959 924.123,635.365 931.869,640.83 929.484,633.661 920.245,633.574 931.072,629.238 928.419,627.757 
		925.182,627.379 929.325,627.522 924.838,624.609 923.144,625.574 917.034,623.513 930.171,621.973 923.595,619.744 
		929.115,614.109 921.085,617.994 917.618,621.327 919.509,611.853 914.15,619.68 915.607,614.407 916.627,619.671 918.619,618.389 
		920.635,617.9 922.591,615.421 924.424,608.598 924.022,609.731 920.973,609.075 933.911,612.628 928.952,608.319 928.509,604.921 
		933.882,608.536 937.393,609.9 930.898,599.211 935.184,602.479 935.064,600.741 935.997,596.766 933.556,596.843 930.621,597.509 
		928.596,597.421 926.017,599.918 923.31,602.128 923.374,594.746 925.352,593.429 924.519,592.25 923.561,596.736 927.672,587.916 
		929.158,595.014 934.814,595.697 928.252,587.312 934.23,588.225 932.085,585.549 925.31,587.494 931.618,580.797 929.293,579.795 
		930.795,579.317 932.232,580.91 924.65,573.477 931.785,575.682 925.124,568.841 925.693,574.672 930.238,573.174 927.329,569.396 
		925.908,572.35 924.191,573.98 923.129,571.298 928.131,572.463 923.442,569.688 915.866,568.039 922.543,565.989 922.885,563.967 
		927.208,562.559 927.034,561.877 921.664,558.119 920.679,555.454 922.534,555.332 924.771,554.31 928.192,552.618 924.27,558.037 
		922.73,555.596 921.695,547.953 918.854,552.679 925.475,550.821 925.406,548.937 916.327,546.24 925.211,548.463 920.477,540.221 
		925.719,549.768 922.434,536.356 930.106,548.683 930.594,545.274 933.658,543.732 935.339,540.703 926.452,533.753 
		931.164,533.896 932.189,533.443 932.156,532.449 931.989,529.79 928.592,530.518 929.323,525.973 926.305,534.358 
		925.297,520.602 922.778,532.202 917.084,533.387 925.909,522.029 924.961,520.019 910.777,520.643 921.062,521.882 
		916.867,514.188 920.041,514.951 928.447,519.121 922.432,512.6 921.53,508.497 930.703,515.501 922.306,510.591 927.967,504.372 
		926.061,504.488 928.882,505.872 922.128,507.145 919.044,504.481 926.632,504.025 926.525,501.974 921.465,501.336 
		927.462,492.492 923.865,497.674 919.87,497.525 917.751,496.08 919.864,492.506 923.996,494.052 920.758,491.513 923.487,489.944 
		922.441,499.349 928.171,489.062 927.294,497.984 924.41,490.563 932.695,489.727 925.982,493.218 927.985,488.443 928.441,485.13 
		929.499,486.646 925.812,486.467 923.627,481.812 928.705,483.928 927.71,482.096 927.296,484.266 924.515,481.44 922.438,481.626 
		922.014,488.901 920.457,482.378 921.719,483.337 920.385,479.963 921.062,477.975 924.295,477.75 926.799,480.452 
		926.021,475.847 932.119,479.725 925.021,474.626 924.27,472.797 930.2,469.68 919.987,469.659 931.289,464.694 917.46,463.989 
		924.59,461.463 926.168,460.311 928.694,459.867 922.532,456.374 923.235,456.234 927.53,453.386 932.706,445.655 926.652,454.251 
		923.307,446.449 922.653,455.95 915.182,450.14 921.94,450.756 923.308,458.32 925.744,450.516 925.663,448.18 928.409,451.182 
		924.694,445.409 933.93,448.824 924.635,450.849 926.961,446.871 925.449,445.546 932.305,438.424 918.286,441.085 
		927.957,440.024 925.407,436.328 926.801,435.031 933.671,432.929 927.12,434.765 926.571,431.128 923.069,433.256 
		924.644,429.635 920.12,428.683 927.055,433.919 923.653,426.789 929.971,424.027 918.719,425.287 917.859,423.596 
		916.484,422.048 916.439,420.118 922.853,417.44 925.209,412.612 927.376,420.126 922.72,418.304 925.977,414.6 925.809,412.485 
		927.605,408.002 919.977,410.282 917.111,410.386 920.797,403.9 913.261,405.82 915.036,401.441 919.604,404.434 918.377,399.286 
		919.895,394.614 923.977,397.04 925.935,399.454 927.685,397.559 934.913,404.635 927.81,399.936 927.554,398.126 923.458,397.852 
		931.569,391.354 926.73,391.38 927.596,389.336 922.793,389.178 926.569,383.437 921.968,384.238 920.914,381.722 920.246,378.329 
		918.23,377.948 907.465,384.199 920.009,387.389 920.385,384.948 917.259,378.351 921.058,379.955 923.275,380.254 
		924.524,379.388 922.211,371.563 925.314,372.942 929.184,377.394 929.378,371.681 930.732,369.279 940,374.083 929.122,371.746 
		937.842,364.583 936.017,363.393 931.301,361.721 927.76,363.467 925.422,360.789 924.037,363.887 922.927,368.663 
		920.663,366.129 915.641,364.893 926.706,360.727 921.106,359.622 914.08,358.208 915.939,356.033 917.319,353.891 914.58,347.198 
		921.954,345.997 923.504,348.211 924.613,352.729 926.24,354.577 933.427,356.995 933.687,348.426 925.381,350.649 
		925.776,348.053 921.715,349.158 928.537,343.468 917.589,345.586 918.361,342.717 917.375,340.654 916.812,339.015 
		921.474,336.708 926.894,334.802 922.728,332.91 924.289,333.717 922.639,324.53 924.666,327.772 926.729,331.556 928.467,330.486 
		927.39,324.411 931.278,326.86 930.957,322.054 938.398,330.601 934.426,325.469 935.75,324.657 933.625,324.831 932.92,318.653 
		928.812,327.683 926.518,328.593 925.657,322.599 930.479,320.782 921.803,317.942 926.646,316.228 926.578,314.06 
		925.503,312.917 929.145,318.432 932.246,313.643 928.478,310.421 930.472,308.628 934.109,305.701 929.758,304.12 
		933.232,298.158 926.955,302.257 925.228,302.526 920.509,303.572 920.991,299.109 921.964,297.333 917.949,294.619 
		931.04,295.102 923.844,293.208 924.148,287.3 921.83,289.208 918.837,295.323 916.39,298.009 920.53,289.227 916.845,288.879 
		918.344,287.52 919.163,285.336 921.938,285.451 916.933,281.001 921.854,281.108 926.553,283.35 925.703,275.243 928.438,281.756 
		930.896,285.763 932.735,284.067 931.221,277.268 933.968,276.731 937.424,273.235 935.459,271.609 934.286,268.749 
		930.148,269.298 924.576,273.414 924.497,274.255 925.437,265.418 920.539,270.89 917.385,266.903 919.73,261.494 924.968,268.032 
		926.347,261.928 928.489,266.639 936.974,265.136 924.914,263.7 922.863,262.566 921.908,260.687 924.261,255.843 924.775,252.898 
		925.314,250.633 933.532,247.719 926.978,251.07 924.776,250.122 923.342,252.968 921.754,255.07 914.889,257.193 915.693,250.039 
		918.903,248.19 913.741,246.055 923.387,244.25 917.317,242.401 917.023,240.422 925.078,238.011 923.594,241.808 919.973,241.333 
		922.79,237.85 923.955,241.979 926.967,237.622 931.782,244.435 928.127,235.599 925.77,231.835 935.754,230.811 930.256,226.809 
		928.231,225.811 925.482,236.272 920.553,234.579 917.369,228.679 930.531,229.582 919.847,225.045 930.473,225.366 
		919.567,225.171 925.103,219.21 920.016,219.23 924.514,214.998 924.093,219.083 920.442,221.004 930.474,215.537 929.073,213.865 
		922.833,213.803 922.98,211.615 924.292,210.515 925.169,202.705 927.216,211.592 929.379,209.056 931.457,215.016 
		933.672,207.427 935.77,211.884 935.257,208.269 941.581,204 930.931,209.855 936.226,202.901 930.198,205.034 932.493,197.748 
		929.374,201.875 926.932,200.879 926.007,204.503 921.465,197.113 920.633,201.042 921.675,201.828 913.874,204.065 
		912.355,202.438 913.578,200.496 925.504,198.532 919.646,195.945 920.479,193.874 920.46,191.547 921.942,198.082 
		924.433,195.989 926.318,198.814 930.438,197.211 930.414,190.766 932.06,189.542 931.031,184.763 933.416,184.507 
		944.329,186.237 936.933,182.915 933.165,187.486 931.697,186.161 931.074,182.652 927.717,186.159 927.735,176.927 
		925.041,181.117 924.419,188.869 920.921,179.018 920.479,187.92 916.996,184.752 920.16,182.739 922.308,181.469 924.673,180.27 
		913.76,174.41 923.022,177.169 922.591,171.755 922.35,170.982 924.42,171.637 927.735,169.492 930.672,167.358 927.031,166.799 
		928.204,168.722 929.883,167.501 931.058,164.527 926.867,159.928 928.82,161.92 934.967,158.794 930.011,157.469 933.121,153.304 
		929.714,151.353 926.212,159.364 924.771,153.855 922.989,151.847 921.68,147.163 918.269,154.23 915.362,158.468 913.752,155.443 
		911.507,152.175 911.966,149.151 912.65,147.064 913.724,145.221 920.961,147.316 921.689,147.426 921.708,147.316 
		923.711,146.945 923.263,139.266 924.854,135.851 929.916,143.685 934.053,141.461 926.826,135.483 926.532,133.079 
		936.026,135.723 936.757,128.774 930.763,126.51 928.707,125.63 924.881,134.741 923.321,131.226 921.525,127.949 919.925,122.865 
		916.795,131.929 914.739,131.006 917.207,126.803 909.512,122.752 919.886,130.023 920.189,127.534 915.099,119.815 
		918.899,120.581 920.64,119.678 927.172,125.149 926.518,124.663 926.568,121.118 929.093,124.983 930.903,121.389 
		932.562,116.157 940.478,121.668 940.324,113.304 932.152,114.249 926.524,114.293 932.271,110.315 930.169,110.884 
		928.733,114.699 927.422,105.634 923.059,112.706 926.099,103.312 924.375,106.015 923.189,103.567 924.908,103.832 
		918.375,103.361 917.669,101.605 928.151,98.108 923.386,96.976 922.585,93.996 926.115,96.49 927.816,95.808 928.861,95.187 
		927.155,94.445 924.849,92.671 925.087,91.862 920.105,92.301 916.632,90.106 917.038,88.096 921.245,87.417 918.916,88.55 
		918.002,85.691 921.312,82.691 918.42,77.603 922.383,87.097 922.254,75.751 928.88,85.25 932.84,81.767 932.319,79.43 
		925.157,74.025 925.764,71.525 932.144,74.223 929.9,71.855 928.557,64.668 926.644,68.287 925.036,76.463 924.404,69.271 
		915.297,70.492 921.979,67.118 925.867,63.468 925.505,60.409 923.489,59.116 912.011,60.029 911.967,55.271 926.693,56.864 
		919.969,52.518 922.301,52.472 923.225,50.269 923.023,48.951 930.7,49.272 930.825,49.081 929.275,45.416 922.212,45.168 
		926.32,40.226 925.081,44.099 922.999,43.274 919.853,36.484 921.131,42.096 912.785,41.243 913.984,39.437 921.795,38.463 
		923.937,38.81 924.791,38.654 927.166,39.817 925.955,31.887 929.179,35.921 935.887,34.175 929.375,30.268 929.547,27.58 
		928.758,25.725 923.275,27.955 923.083,26.572 922.714,25.22 927.612,20.532 921.364,21.439 925.15,18.691 920.11,17.841 
		922.974,15.918 925.116,13.99 921.582,12.042 	"/>
</g>
</svg>
