<?xml version="1.0" encoding="utf-8"?>
<!-- Generator: Adobe Illustrator 15.0.0, SVG Export Plug-In . SVG Version: 6.00 Build 0)  -->
<!DOCTYPE svg PUBLIC "-//W3C//DTD SVG 1.1//EN" "http://www.w3.org/Graphics/SVG/1.1/DTD/svg11.dtd">
<svg version="1.1" id="Layer_1" xmlns="http://www.w3.org/2000/svg" xmlns:xlink="http://www.w3.org/1999/xlink" x="0px" y="0px"
	 width="1024px" height="768px" viewBox="0 0 1024 768" style="enable-background:new 0 0 1024 768;" xml:space="preserve">
<style type="text/css">
<![CDATA[
	.st0{fill:none;stroke:#FF5F9F;stroke-miterlimit:10;}
]]>
</style>
<polyline class="st0" points="271.2,754.153 275.569,750.828 279.731,747.284 274.971,741.126 280.009,734.713 278.366,728.649 
	269.377,729.576 270.643,722.793 273.661,718.104 277.412,718.019 280.151,711.462 269.85,714.056 272.533,706.465 276.661,705.701 
	278.125,699.459 276.312,694.908 280.252,688.251 276.534,684.262 276.556,683.352 272.379,678.311 280.264,678.487 282.63,671.804 
	277.323,668.07 272.13,665.558 266.051,660.252 278.334,661.156 280.825,655.94 287.857,648.7 275.352,646.934 273.979,640.599 
	262.487,637.146 276.682,636.395 274.61,626.616 277.225,625.582 273.458,625.717 273.735,617.733 264.902,614.034 277.072,613.677 
	279.424,608.322 286.461,602.48 279.431,596.637 273.156,595.204 273.834,590.919 278.735,592.23 282.395,588.183 276.572,579.363 
	282.237,570.722 272.344,572.907 273.427,567.81 272.001,562.388 273.773,556.453 274.012,556.252 277.005,552.843 269.979,552.163 
	270.646,544.702 275.659,542.937 280.851,540.424 284.646,533.153 278.984,527.758 271.708,527.325 268.351,521.596 
	273.067,517.235 276.263,512.725 279.772,510.039 274.142,509.489 276.152,499.771 273.427,498.482 269.4,490.46 281.151,494.504 
	273.973,486.926 279.194,481.328 269.135,483.681 274.883,475.373 278.142,476.093 276.31,466.553 275.091,463.817 279.574,457.839 
	278.735,450.971 270.413,452.267 277.949,452.79 281.59,448.725 276.039,440.709 279.847,434.457 274.477,432.119 272.591,429.156 
	275.605,427.338 272.545,416.571 276.445,417.601 273.629,417.565 271.91,411.577 266.358,406.052 272.822,401.445 280.167,401.085 
	277.527,394.493 275.625,392.462 273.382,386.998 264.286,382.945 271.415,376.93 276.315,374.123 284.132,371.388 280.319,364.658 
	271.082,366.188 269.944,359.831 269.332,351.737 278.884,353.583 275.996,348.273 274.542,347.326 272.388,341.773 
	271.731,336.721 271.713,331.009 278.952,330.541 288.185,325.174 276.255,322.505 276.957,314.096 275.731,313.609 
	278.411,314.598 280.099,308.58 279.138,302.057 274.089,301.561 275.862,292.081 266.042,290.507 272.267,285.345 274.677,280.048 
	284.665,278.953 281.817,270.724 277.506,267.328 274.38,267.392 273.295,263.264 280.494,262.756 275.812,255.836 279.269,250.163 
	269.611,252.114 269.877,244.286 269.467,236.327 279.314,238.468 282.438,232.733 274.114,232.209 276.391,222.226 
	273.139,221.175 277.271,221.023 273.435,209.479 288.401,209.629 281.802,201.413 270.333,205.174 269.521,198.068 
	270.979,191.621 279.773,192.708 287.98,186.52 277.62,182.485 268.41,183.988 271.578,174.958 276.066,173.599 275.739,165.565 
	283.234,163.406 281.886,155.109 275.198,154.091 262.709,151.856 268.454,142.878 274.128,140.846 277.896,140.293 
	282.488,131.399 276.054,130.126 263.296,128.747 270.251,121.566 274.603,118.211 285.285,117.19 282.232,108.546 275.309,107.762 
	272.565,105.63 275.922,104.128 274.503,95.002 279.802,94.077 273.213,94.456 273.604,86.358 267.758,82.525 275.839,80.937 
	278.024,75.415 281.609,70.97 273.007,71.553 271.912,64.941 268.961,59.415 270.762,52.75 275.689,49.971 275.457,47.855 
	279.1,42.351 269.723,44.021 270.699,36.304 274.679,33.559 280.801,31.973 274.501,24.746 273.387,24.955 270.86,19.774 
	270.891,12.037 "/>
<polyline class="st0" points="791.879,754.153 796.248,750.828 800.411,747.284 795.65,741.126 800.689,734.713 799.045,728.649 
	790.057,729.576 791.322,722.793 794.341,718.104 798.092,718.019 800.83,711.462 790.529,714.056 793.213,706.465 797.34,705.701 
	798.805,699.459 796.992,694.908 800.932,688.251 797.214,684.262 797.235,683.352 793.059,678.311 800.943,678.487 803.31,671.804 
	798.002,668.07 792.81,665.558 786.73,660.252 799.014,661.156 801.504,655.94 808.537,648.7 796.031,646.934 794.659,640.599 
	783.167,637.146 797.361,636.395 795.29,626.616 797.904,625.582 794.139,625.717 794.415,617.733 785.582,614.034 797.752,613.677 
	800.104,608.322 807.141,602.48 800.111,596.637 793.836,595.204 794.514,590.919 799.415,592.23 803.074,588.183 797.252,579.363 
	802.916,570.722 793.023,572.907 794.106,567.81 792.681,562.388 794.453,556.453 794.691,556.252 797.686,552.843 790.658,552.163 
	791.325,544.702 796.338,542.937 801.531,540.424 805.325,533.153 799.664,527.758 792.387,527.325 789.03,521.596 793.747,517.235 
	796.942,512.725 800.452,510.039 794.821,509.489 796.832,499.771 794.107,498.482 790.08,490.46 801.831,494.504 794.652,486.926 
	799.874,481.328 789.814,483.681 795.562,475.373 798.822,476.093 796.989,466.553 795.771,463.817 800.254,457.839 
	799.415,450.971 791.093,452.267 798.629,452.79 802.27,448.725 796.719,440.709 800.526,434.457 795.156,432.119 793.271,429.156 
	796.285,427.338 793.225,416.571 797.125,417.601 794.309,417.565 792.59,411.577 787.037,406.052 793.502,401.445 800.848,401.085 
	798.207,394.493 796.305,392.462 794.062,386.998 784.966,382.945 792.095,376.93 796.994,374.123 804.812,371.388 800.999,364.658 
	791.762,366.188 790.624,359.831 790.012,351.737 799.564,353.583 796.676,348.273 795.223,347.326 793.067,341.773 792.41,336.721 
	792.393,331.009 799.631,330.541 808.864,325.174 796.935,322.505 797.637,314.096 796.41,313.609 799.091,314.598 800.779,308.58 
	799.817,302.057 794.77,301.561 796.541,292.081 786.722,290.507 792.946,285.345 795.356,280.048 805.344,278.953 802.497,270.724 
	798.186,267.328 795.06,267.392 793.975,263.264 801.174,262.756 796.492,255.836 799.948,250.163 790.291,252.114 790.557,244.286 
	790.146,236.327 799.994,238.468 803.117,232.733 794.793,232.209 797.07,222.226 793.818,221.175 797.951,221.023 794.114,209.479 
	809.08,209.629 802.482,201.413 791.013,205.174 790.201,198.068 791.658,191.621 800.453,192.708 808.66,186.52 798.3,182.485 
	789.09,183.988 792.258,174.958 796.746,173.599 796.418,165.565 803.914,163.406 802.566,155.109 795.878,154.091 783.389,151.856 
	789.133,142.878 794.809,140.846 798.576,140.293 803.168,131.399 796.733,130.126 783.977,128.747 790.931,121.566 
	795.283,118.211 805.965,117.19 802.912,108.546 795.988,107.762 793.244,105.63 796.602,104.128 795.183,95.002 800.482,94.077 
	793.893,94.456 794.283,86.358 788.438,82.525 796.52,80.937 798.704,75.415 802.289,70.97 793.687,71.553 792.592,64.941 
	789.641,59.415 791.441,52.75 796.369,49.971 796.137,47.855 799.779,42.351 790.402,44.021 791.379,36.304 795.359,33.559 
	801.48,31.973 795.182,24.746 794.066,24.955 791.54,19.774 791.57,12.037 "/>
<g>
	<polyline class="st0" points="390.561,754.83 392.192,753.955 389.418,747.286 395.803,752.553 397.301,751.409 396.733,747.93 
		397.304,747.189 398.381,744.982 400.638,740.777 395.102,742.597 399.555,741.244 393.241,738.088 394.191,736.241 
		400.494,738.597 392.638,733.488 403.861,731.189 390.843,732.547 396.324,729.783 395.505,729.699 393.532,728.139 
		392.516,735.906 390.602,734.996 387.369,730.145 395.451,728.587 386.125,724.507 394.39,724.622 387.083,719.036 
		395.889,722.493 391.706,716.666 394.514,723.865 395.08,716.222 392.368,714.473 397.272,714.598 391.852,710.405 
		400.775,709.288 398.538,718.325 395.458,714.794 393.518,715.785 389.089,706.907 383.576,719.253 390.95,712.723 
		387.754,709.459 388.911,707.73 394.296,709.962 393.228,704.919 396.847,707.092 394.558,703.286 398.302,701.968 394.92,699.656 
		402.219,694.731 393.575,694.878 400.92,696.076 392.294,688.725 392.966,686.873 392.243,688.826 393.183,691.281 
		397.472,684.798 391.316,686.472 392.851,684.701 393.349,682.222 395.332,677.744 394.947,679.62 393.036,685.478 
		395.167,678.282 397.187,676.232 401.778,682.699 397.211,675.939 396.285,673.731 401.672,673.756 397.703,673.324 395.531,676.5 
		395.453,672.85 395.241,669.629 392.863,670.492 395.454,660.72 390.24,666.663 388.873,664.907 384.92,666.369 390.032,657.441 
		386.643,661.024 386.688,663.835 389.057,659.613 390.658,665.792 392.923,662.984 394.836,665 400.476,667.141 403.749,662.16 
		392.994,654.889 405.717,660.184 405.211,658.51 401.552,652.147 405.594,653.26 408.205,652.978 410.353,647.295 404.06,652.396 
		402.359,649.395 401.042,643.67 398.213,648.651 395.871,650.158 398.925,641.931 389.705,645.698 400.113,641.232 
		397.315,636.639 391.855,636.889 389.436,637.996 388.395,634.526 385.664,636.66 382.441,640.423 381.408,637.157 
		383.109,632.376 385.748,643.879 387.496,638.463 389.158,631.464 391.293,633.372 393.406,634.8 390.618,632.541 389.027,635.729 
		390.453,633.386 394.172,630.557 395.23,628.286 398.339,630.206 401.729,629.859 394.233,626.915 392.545,625.49 389.387,623.619 
		397.993,621.921 387.096,619.543 389.45,619.673 389.13,621.02 387.235,620.601 387.368,615.322 387.695,609.577 385.154,614.482 
		385.893,618.047 387.612,607.542 389.739,610.847 391.882,614.695 393.885,613.679 392.713,608.782 395.073,611.178 
		391.905,607.656 402.313,611.321 397.564,604.611 401.128,606.047 402.131,604.392 407.293,607.74 400.914,602.472 
		400.206,605.759 402.396,600.271 403.99,595.493 396.903,601.154 398.419,596.336 396.209,596.067 393.932,596.395 395.341,592.97 
		396.177,593.668 392.277,590.454 394.095,592.167 394.693,596.477 397.817,592.968 403.251,594.906 399.748,589.286 
		400.437,588.168 396.983,588.462 396.381,586.334 395.742,584.223 390.866,584.905 401.521,579.303 394.947,576.586 
		401.464,578.392 400.714,575.43 396.403,570.129 394.98,574.689 398.002,566.162 397.225,572.028 395.266,572.553 393.536,574.12 
		391.296,572.771 385.456,569.915 390.241,569.155 396.319,567.679 387.335,567.178 393.41,563.647 397.253,562.582 
		396.156,561.821 388.751,557.454 393.096,556.635 396.495,559.562 397.055,556.917 399.357,552.365 394.136,552.3 391.735,558.779 
		389.873,559.678 390.353,550.965 384.149,549.87 382.993,547.887 385.771,546.253 393.421,547.641 390.801,543.091 
		394.084,547.077 397.344,549.708 394.159,537.812 395.428,536.017 395.782,536.469 399.682,538.108 399.804,535.861 
		400.118,533.709 408.759,532.385 401.716,532.189 401.243,529.853 398.097,530.316 396.426,530.87 395.623,534.266 
		393.987,531.055 392.353,527.808 387.382,531.947 392.867,523.406 386.597,524.515 385.032,521.306 392.83,524.537 
		395.195,523.941 395.409,520.354 393.535,516.128 397.69,516.812 394.805,512.424 400.904,516.662 396.62,510.196 396.173,515.704 
		395.279,505.449 397.755,506.178 399.925,508.9 389.933,504.808 390.377,502.874 387.833,500.317 400.745,497.642 391.37,503.916 
		396.1,495.061 385.006,499.621 392.6,493.301 386.312,493.943 383.27,486.924 391.287,487.98 394.122,486.104 392.421,497.409 
		394.641,497.324 398.521,492.418 399.436,494.151 399.783,491.833 392.197,496.151 397.198,488.539 393.904,488.778 
		398.265,486.671 392.542,484.058 397.091,485.684 394.538,480.682 403.124,477.492 397.306,487.253 393.364,479.464 
		392.728,485.811 389.12,479.468 388.12,483.579 390.675,483.09 389.227,479.638 397.315,482.776 395.61,479.136 395.345,478.816 
		396.616,470.041 391.45,471.567 391.008,475.266 402.606,471.063 395.998,470.354 395.979,468.376 395.07,466.582 400.172,463.67 
		398.139,464.638 401.316,464.688 401.012,462.121 397.558,457.646 397.277,455.657 392.595,453.905 394.972,454.099 
		394.453,444.554 392.939,448.508 391.723,454.392 390.881,452.992 391.05,453.661 393.245,449.316 394.521,458.234 
		397.416,454.362 393.642,447.526 402.519,453.033 396.15,448.572 398.326,447.816 399.6,444.568 399.809,442.051 400.206,439.399 
		387.776,441.074 398.331,440.67 394.535,436.216 394.177,433.852 397.658,434.826 397.824,431.568 397.239,428.018 
		394.693,430.463 395.624,428.573 394.49,429.876 393.256,428.764 388.027,424.963 390.424,426.547 396.232,422.958 
		391.223,422.445 394.8,419.488 395.227,417.424 388.071,412.846 393.281,417.316 394.371,415.937 395.703,412.176 390.677,415.923 
		385.603,415.218 387.933,413.215 388.807,410.768 386.792,410.017 385.015,409.021 382.885,405.849 389.658,408.892 
		391.835,408.528 393.203,407.022 393.621,406.863 393.42,399.728 395.102,396.503 397.381,405.375 404.32,404.699 395.809,400.462 
		393.883,399.321 402.179,394.083 400.816,391.399 398.221,389.882 398.364,388.738 388.657,390.594 391.271,387.932 
		391.114,384.61 391.287,379.342 385.662,387.069 384.124,385.622 387.831,382.017 380.33,376.734 389.82,385.095 390.27,382.735 
		385.876,374.631 389.502,375.844 391.408,375.15 397.179,381.434 397.991,380.39 398.145,376.389 401.448,379.564 402.279,375.666 
		401.834,370.901 408.306,366.153 406.718,364.831 398.785,367.099 396.136,370.808 397.338,365.074 395.939,368.062 
		394.684,371.942 391.386,363.508 386.616,370.268 393.768,363.316 391.444,361.544 387.365,360.014 388.017,357.856 
		381.625,356.307 381.046,354.313 390.641,354.347 390.267,351.176 392.328,350.739 393.557,354.633 395.543,354.63 
		396.732,352.904 396.556,351.931 397.265,349.25 397.453,345.951 391.224,349.007 386.782,347.762 386.352,345.799 
		389.139,342.329 386.903,340.625 388.557,338.697 394.594,336.469 385.959,334.833 396.033,332.896 386.309,327.226 
		392.723,336.439 394.642,338.009 396.367,336.549 396.939,327.902 397.713,326.149 402.902,330.836 402.565,326.005 
		408.428,331.837 410,324.91 403.939,329.675 403.702,321.411 399.548,330.646 399.121,323.229 398.11,318.402 399.754,319.185 
		399.808,320.783 388.962,317.762 388.271,315.585 402.521,311.372 394.708,313.23 397.479,315.307 397.125,312.399 
		396.048,309.932 404.818,308.92 404.108,305.6 400.509,303.908 392.655,306.615 396.547,299.406 394.512,302.819 393.001,301.518 
		400.479,301.011 396.285,298.269 387.345,294.635 388.646,292.913 396.181,291.011 393.453,287.351 391.499,286.986 
		389.916,284.305 386.667,291.988 388.308,289.624 390.254,293.818 388.25,288.236 391.019,288.403 393.421,287.128 
		389.475,282.471 390.845,280.962 393.329,279.774 396.19,285.948 397.53,279.752 400.042,284.24 401.479,278.882 405.741,280.217 
		407.242,275.361 403.183,274.464 396.497,274.471 405.239,267.643 402.362,265.616 399.879,265.81 394.876,271.352 
		394.706,263.294 393.005,267.621 386.427,266.973 389.293,261.635 394.458,270.541 396.098,268.138 397.132,257.127 
		404.457,264.509 396.628,262.076 400.905,256.661 394.62,258.388 389.127,255.869 398.531,255.606 395.458,251.139 
		402.143,248.081 396.507,252.147 395.256,255.902 392.183,250.632 391.11,255.284 391.956,247.938 382.927,249.968 381.445,247.96 
		391.754,246.35 389.848,244.276 388.326,242.313 386.049,240.438 391.353,238.167 392.206,240.969 391.65,230.453 391.529,240.498 
		394.831,234.786 395.179,242.683 395.446,232.947 397.964,235.884 405.582,237.554 396.193,235.316 399.24,232.051 
		397.071,233.341 395.09,231.584 396.361,229.605 389.453,229.311 387.513,226.77 390.716,225.401 400.549,225.54 394.938,222.364 
		393.506,222.024 387.625,217.982 394.291,227.612 391.721,217.878 388.912,221.285 397.821,216.188 389.651,216.769 
		399.773,211.268 397.946,209.736 387.845,206.006 394.35,215.807 396.491,215.251 398.651,213.113 400.789,213.1 403.005,205.422 
		405.084,211.638 407.044,209.526 411.102,203.833 408.912,202.894 404.651,203.613 400.822,203.98 400.333,202.414 
		399.392,204.024 395.211,197.728 396.274,207.414 391.496,199.302 390.957,204.125 386.673,209.812 382.105,204.187 
		383.049,202.28 389.802,199.707 391.818,198.316 392.444,196.733 389.386,193.782 388.142,189.219 391.224,198.338 
		394.527,189.667 396.802,189.339 400.423,199.887 404.493,197.085 402.012,190.39 402.506,187.631 402.024,183.572 
		406.458,186.535 404.549,187.269 405.9,178.696 399.876,189.07 401.749,179.153 396.997,186.24 395.786,188.986 394.98,184.957 
		391.646,176.085 391.234,185.152 389.45,185.824 385.365,185.513 389.144,182.624 391.921,181.575 384.714,177.018 
		385.468,175.251 390.538,175.09 394.63,180.757 399.852,177.575 394.834,171.592 391.485,169.718 401.657,167.291 397.457,167.579 
		396.251,164.324 398.202,164.054 401.073,166.965 407.1,166.365 400.168,161.59 407.543,158.265 403.906,156.725 402.421,153.316 
		399.24,149.948 396.11,155.514 393.758,155.827 390.667,160.979 389.395,156.091 386.542,160.041 385.705,152.709 384.669,146.475 
		377.679,153.532 381.062,149.012 389.77,152.059 388.238,148.549 390.418,147.409 387.308,142.888 391.006,147.272 
		392.107,144.384 394.23,145.816 394.433,137.667 399.06,143.455 404.028,141.804 397.728,136.303 393.056,131.639 395.703,130.748 
		401.436,131.343 398.683,133.549 396.27,134.472 394.156,134.982 393.204,125.956 391.271,123.95 388.636,128.43 386.12,131.8 
		385.027,121.994 382.511,128.583 383.651,127.427 384.811,125.773 389.505,127.539 389.487,124.732 390.201,122.794 
		392.688,123.227 392.397,119.849 392.865,116.628 395.705,119.272 397.768,118.312 399.237,111.145 401.482,112.048 
		403.226,116.474 404.96,114.955 400.436,114.613 402.755,111.85 395.891,112.326 397.847,113.276 399.455,102.264 396.707,105.881 
		396.249,101.958 392.573,106.966 388.98,105.22 395.077,109.321 392.331,102.808 393.215,102.502 394.255,100.476 393.642,98.702 
		398.14,96.13 393.952,95.42 394.242,89.702 397.564,98.298 396.29,99.59 396.678,98.092 394.121,91.961 394.298,91.976 
		387.069,92.188 397.176,90.648 399.003,88.706 395.772,84.499 386.579,91.065 385.56,88.368 379.612,82.235 389.935,88.804 
		390.03,78.618 391.852,77.202 397.608,84.53 392.13,77.799 389.58,74.66 395.338,74.528 400.108,75.583 403.346,75.748 
		395.287,74.654 398.4,72.488 396.083,70.152 393.663,66.352 390.948,72.661 396.97,68.444 384.34,68.269 392.737,64.282 
		391.285,62.295 391.827,59.637 393.987,58.831 381.867,55.43 383.857,53.582 393.947,55.84 389.27,48.317 392.489,50.182 
		391.584,48.603 398.947,49.008 400.336,49.213 392.86,41.624 399.97,41.463 395.928,41.87 393.521,39.197 392.318,43.306 
		391.439,49.254 385.21,47.468 393.078,42.632 381.88,39.258 394.832,38.934 391.482,37.614 392.427,36.225 391.966,30.254 
		396.146,35.28 397.925,33.735 398.743,31.615 395.135,33.364 400.286,26.338 398.107,25.692 396.226,24.785 391.98,27.369 
		388.279,30.055 390.771,23.532 394.44,19.604 394.308,18.725 385.236,17.824 386.854,15.897 389.662,13.972 386.077,12.022 	"/>
</g>
<g>
	<polyline class="st0" points="913.516,757.82 915.561,757.488 914.942,753.653 916.944,753.127 913.561,746.218 917.743,748.318 
		926.096,747.79 917.773,745.978 912.633,747.493 919.691,739.573 920.577,741.251 911.174,735.931 912.733,734.563 
		916.427,734.867 914.397,733.701 912.614,734.423 924.773,728.954 919.703,726.337 915.522,723.284 914.137,727.425 
		912.754,731.631 910.528,727.695 904.744,732.344 910.304,727.5 904.049,723.992 906.385,721.381 916.793,724.851 913.979,720.825 
		910.137,712.635 915.103,719.842 914.598,714.45 920.081,717.411 915.167,713.435 915.779,711.763 917.292,714.377 918.43,715.206 
		917.193,718.994 912.605,709.462 911.274,712.887 913.883,709.48 908.062,711.463 911.921,710.692 907.703,707.062 910.01,704.01 
		915.054,711.115 916.545,706.074 917.401,703.794 917.607,701.646 910.845,700.111 912.164,699.008 912.586,694.846 
		918.77,694.401 915.805,690.4 913.966,687.062 923.044,687.978 918.659,686.812 912.142,690.397 920.334,681.938 909.877,686.633 
		913.772,682.435 918.42,675.747 905.888,676.197 913.876,678.242 915.915,675.217 917.898,674.791 917.677,675.151 
		923.036,677.761 926.745,677.196 924.501,674.518 923.029,671.452 924.308,664.988 919.133,668.584 920.268,662.322 
		913.777,670.005 911.464,670.371 910.438,667.389 908.412,666.215 913.322,657.519 906.731,662.001 907.3,661.016 907.556,661.281 
		909.221,666.6 911.992,656.915 913.399,665.747 915.27,668.346 920.383,665.737 912.757,656.587 913.251,654.688 920.989,656.389 
		917.743,650.598 919.346,649.347 926.385,653.368 922.762,647.029 922.832,650.453 926.029,643.256 923.466,646.365 
		920.335,653.482 919.312,645.673 917.274,645.03 911.357,650.656 911.248,645.511 908.231,643.952 910.356,643.376 
		913.499,633.683 910.533,636.609 908.367,636.881 906.27,636.908 904.482,635.894 908.967,638.197 903.693,630.551 
		906.365,642.696 907.759,630.61 910.09,636.224 911.898,631.959 914.115,635.365 921.861,640.83 919.477,633.661 910.237,633.574 
		921.064,629.238 918.411,627.757 915.174,627.379 919.317,627.522 914.83,624.609 913.136,625.574 907.026,623.513 
		920.163,621.973 913.587,619.744 919.107,614.109 911.077,617.994 907.61,621.327 909.501,611.853 904.143,619.68 905.6,614.407 
		906.619,619.671 908.611,618.389 910.627,617.9 912.583,615.421 914.416,608.598 914.015,609.731 910.965,609.075 923.903,612.628 
		918.944,608.319 918.501,604.921 923.874,608.536 927.385,609.9 920.891,599.211 925.176,602.479 925.057,600.741 925.989,596.766 
		923.548,596.843 920.613,597.509 918.588,597.421 916.009,599.918 913.302,602.128 913.366,594.746 915.344,593.429 
		914.511,592.25 913.553,596.736 917.664,587.916 919.15,595.014 924.807,595.697 918.244,587.312 924.223,588.225 922.077,585.549 
		915.302,587.494 921.61,580.797 919.285,579.795 920.787,579.317 922.225,580.91 914.643,573.477 921.777,575.682 915.116,568.841 
		915.686,574.672 920.23,573.174 917.321,569.396 915.9,572.35 914.184,573.98 913.121,571.298 918.123,572.463 913.435,569.688 
		905.858,568.039 912.535,565.989 912.877,563.967 917.2,562.559 917.026,561.877 911.656,558.119 910.671,555.454 912.526,555.332 
		914.764,554.31 918.185,552.618 914.262,558.037 912.723,555.596 911.688,547.953 908.847,552.679 915.467,550.821 
		915.398,548.937 906.319,546.24 915.203,548.463 910.469,540.221 915.711,549.768 912.426,536.356 920.099,548.683 
		920.586,545.274 923.65,543.732 925.331,540.703 916.444,533.753 921.156,533.896 922.182,533.443 922.148,532.449 921.981,529.79 
		918.584,530.518 919.315,525.973 916.297,534.358 915.289,520.602 912.771,532.202 907.076,533.387 915.901,522.029 
		914.953,520.019 900.77,520.643 911.055,521.882 906.859,514.188 910.033,514.951 918.439,519.121 912.424,512.6 911.522,508.497 
		920.695,515.501 912.298,510.591 917.959,504.372 916.053,504.488 918.874,505.872 912.12,507.145 909.036,504.481 
		916.624,504.025 916.518,501.974 911.457,501.336 917.454,492.492 913.857,497.674 909.862,497.525 907.743,496.08 
		909.856,492.506 913.988,494.052 910.75,491.513 913.479,489.944 912.434,499.349 918.163,489.062 917.286,497.984 
		914.402,490.563 922.688,489.727 915.975,493.218 917.978,488.443 918.434,485.13 919.491,486.646 915.805,486.467 
		913.619,481.812 918.697,483.928 917.702,482.096 917.288,484.266 914.507,481.44 912.43,481.626 912.006,488.901 910.449,482.378 
		911.711,483.337 910.377,479.963 911.055,477.975 914.287,477.75 916.791,480.452 916.013,475.847 922.111,479.725 
		915.014,474.626 914.262,472.797 920.192,469.68 909.979,469.659 921.281,464.694 907.452,463.989 914.582,461.463 916.16,460.311 
		918.687,459.867 912.524,456.374 913.228,456.234 917.522,453.386 922.698,445.655 916.645,454.251 913.299,446.449 
		912.646,455.95 905.174,450.14 911.933,450.756 913.3,458.32 915.736,450.516 915.655,448.18 918.401,451.182 914.687,445.409 
		923.922,448.824 914.627,450.849 916.953,446.871 915.441,445.546 922.297,438.424 908.278,441.085 917.949,440.024 
		915.399,436.328 916.793,435.031 923.663,432.929 917.112,434.765 916.563,431.128 913.062,433.256 914.636,429.635 
		910.112,428.683 917.047,433.919 913.646,426.789 919.963,424.027 908.711,425.287 907.852,423.596 906.477,422.048 
		906.432,420.118 912.845,417.44 915.201,412.612 917.368,420.126 912.712,418.304 915.969,414.6 915.801,412.485 917.598,408.002 
		909.969,410.282 907.104,410.386 910.789,403.9 903.253,405.82 905.028,401.441 909.596,404.434 908.369,399.286 909.887,394.614 
		913.969,397.04 915.927,399.454 917.677,397.559 924.905,404.635 917.802,399.936 917.546,398.126 913.45,397.852 921.562,391.354 
		916.723,391.38 917.588,389.336 912.785,389.178 916.562,383.437 911.96,384.238 910.906,381.722 910.238,378.329 908.223,377.948 
		897.457,384.199 910.001,387.389 910.377,384.948 907.251,378.351 911.05,379.955 913.268,380.254 914.517,379.388 
		912.203,371.563 915.307,372.942 919.176,377.394 919.37,371.681 920.725,369.279 929.992,374.083 919.114,371.746 
		927.834,364.583 926.009,363.393 921.293,361.721 917.752,363.467 915.414,360.789 914.029,363.887 912.919,368.663 
		910.655,366.129 905.633,364.893 916.698,360.727 911.099,359.622 904.072,358.208 905.932,356.033 907.312,353.891 
		904.572,347.198 911.946,345.997 913.496,348.211 914.605,352.729 916.232,354.577 923.419,356.995 923.679,348.426 
		915.373,350.649 915.769,348.053 911.707,349.158 918.529,343.468 907.581,345.586 908.354,342.717 907.367,340.654 
		906.805,339.015 911.466,336.708 916.886,334.802 912.72,332.91 914.281,333.717 912.631,324.53 914.658,327.772 916.722,331.556 
		918.459,330.486 917.382,324.411 921.271,326.86 920.949,322.054 928.391,330.601 924.418,325.469 925.742,324.657 
		923.617,324.831 922.912,318.653 918.804,327.683 916.51,328.593 915.649,322.599 920.472,320.782 911.795,317.942 
		916.639,316.228 916.57,314.06 915.495,312.917 919.137,318.432 922.238,313.643 918.47,310.421 920.464,308.628 924.102,305.701 
		919.75,304.12 923.225,298.158 916.947,302.257 915.22,302.526 910.501,303.572 910.983,299.109 911.956,297.333 907.941,294.619 
		921.032,295.102 913.836,293.208 914.141,287.3 911.822,289.208 908.829,295.323 906.382,298.009 910.522,289.227 906.837,288.879 
		908.336,287.52 909.155,285.336 911.93,285.451 906.925,281.001 911.846,281.108 916.545,283.35 915.695,275.243 918.43,281.756 
		920.889,285.763 922.728,284.067 921.213,277.268 923.96,276.731 927.416,273.235 925.451,271.609 924.278,268.749 
		920.141,269.298 914.568,273.414 914.489,274.255 915.429,265.418 910.531,270.89 907.377,266.903 909.723,261.494 914.96,268.032 
		916.339,261.928 918.481,266.639 926.966,265.136 914.906,263.7 912.855,262.566 911.9,260.687 914.253,255.843 914.768,252.898 
		915.307,250.633 923.524,247.719 916.97,251.07 914.769,250.122 913.334,252.968 911.746,255.07 904.881,257.193 905.686,250.039 
		908.896,248.19 903.733,246.055 913.379,244.25 907.31,242.401 907.016,240.422 915.07,238.011 913.586,241.808 909.965,241.333 
		912.782,237.85 913.947,241.979 916.959,237.622 921.774,244.435 918.119,235.599 915.762,231.835 925.746,230.811 
		920.248,226.809 918.224,225.811 915.475,236.272 910.545,234.579 907.361,228.679 920.523,229.582 909.839,225.045 
		920.465,225.366 909.56,225.171 915.095,219.21 910.008,219.23 914.506,214.998 914.085,219.083 910.435,221.004 920.466,215.537 
		919.065,213.865 912.825,213.803 912.973,211.615 914.284,210.515 915.161,202.705 917.208,211.592 919.371,209.056 
		921.449,215.016 923.664,207.427 925.762,211.884 925.249,208.269 931.573,204 920.923,209.855 926.218,202.901 920.19,205.034 
		922.485,197.748 919.366,201.875 916.924,200.879 915.999,204.503 911.457,197.113 910.625,201.042 911.667,201.828 
		903.866,204.065 902.348,202.438 903.57,200.496 915.496,198.532 909.639,195.945 910.471,193.874 910.452,191.547 
		911.935,198.082 914.425,195.989 916.311,198.814 920.43,197.211 920.406,190.766 922.052,189.542 921.023,184.763 
		923.408,184.507 934.321,186.237 926.925,182.915 923.157,187.486 921.689,186.161 921.066,182.652 917.709,186.159 
		917.728,176.927 915.033,181.117 914.411,188.869 910.913,179.018 910.471,187.92 906.988,184.752 910.152,182.739 912.3,181.469 
		914.665,180.27 903.752,174.41 913.015,177.169 912.583,171.755 912.342,170.982 914.412,171.637 917.728,169.492 920.664,167.358 
		917.023,166.799 918.196,168.722 919.875,167.501 921.05,164.527 916.859,159.928 918.812,161.92 924.959,158.794 920.003,157.469 
		923.113,153.304 919.706,151.353 916.204,159.364 914.764,153.855 912.981,151.847 911.672,147.163 908.261,154.23 
		905.354,158.468 903.744,155.443 901.499,152.175 901.958,149.151 902.643,147.064 903.716,145.221 910.953,147.316 
		911.682,147.426 911.7,147.316 913.703,146.945 913.255,139.266 914.846,135.851 919.908,143.685 924.045,141.461 916.818,135.483 
		916.524,133.079 926.019,135.723 926.749,128.774 920.755,126.51 918.699,125.63 914.873,134.741 913.313,131.226 911.518,127.949 
		909.917,122.865 906.787,131.929 904.731,131.006 907.199,126.803 899.504,122.752 909.878,130.023 910.182,127.534 
		905.091,119.815 908.892,120.581 910.632,119.678 917.164,125.149 916.51,124.663 916.561,121.118 919.085,124.983 
		920.896,121.389 922.554,116.157 930.47,121.668 930.316,113.304 922.145,114.249 916.517,114.293 922.264,110.315 
		920.161,110.884 918.726,114.699 917.414,105.634 913.051,112.706 916.091,103.312 914.367,106.015 913.182,103.567 914.9,103.832 
		908.367,103.361 907.661,101.605 918.144,98.108 913.378,96.976 912.577,93.996 916.107,96.49 917.809,95.808 918.854,95.187 
		917.147,94.445 914.841,92.671 915.079,91.862 910.098,92.301 906.624,90.106 907.03,88.096 911.237,87.417 908.908,88.55 
		907.994,85.691 911.305,82.691 908.412,77.603 912.375,87.097 912.246,75.751 918.872,85.25 922.832,81.767 922.312,79.43 
		915.149,74.025 915.756,71.525 922.136,74.223 919.893,71.855 918.549,64.668 916.636,68.287 915.028,76.463 914.396,69.271 
		905.289,70.492 911.971,67.118 915.859,63.468 915.497,60.409 913.481,59.116 902.003,60.029 901.959,55.271 916.686,56.864 
		909.961,52.518 912.293,52.472 913.217,50.269 913.016,48.951 920.692,49.272 920.817,49.081 919.268,45.416 912.204,45.168 
		916.312,40.226 915.073,44.099 912.991,43.274 909.845,36.484 911.123,42.096 902.777,41.243 903.977,39.437 911.787,38.463 
		913.929,38.81 914.783,38.654 917.158,39.817 915.947,31.887 919.171,35.921 925.879,34.175 919.367,30.268 919.539,27.58 
		918.75,25.725 913.268,27.955 913.075,26.572 912.706,25.22 917.604,20.532 911.356,21.439 915.143,18.691 910.103,17.841 
		912.966,15.918 915.108,13.99 911.574,12.042 	"/>
</g>
</svg>
