<?xml version="1.0" encoding="utf-8"?>
<!-- Generator: Adobe Illustrator 15.0.0, SVG Export Plug-In . SVG Version: 6.00 Build 0)  -->
<!DOCTYPE svg PUBLIC "-//W3C//DTD SVG 1.1//EN" "http://www.w3.org/Graphics/SVG/1.1/DTD/svg11.dtd">
<svg version="1.1" id="Layer_1" xmlns="http://www.w3.org/2000/svg" xmlns:xlink="http://www.w3.org/1999/xlink" x="0px" y="0px"
	 width="1024px" height="768px" viewBox="0 0 1024 768" style="enable-background:new 0 0 1024 768;" xml:space="preserve">
<style type="text/css">
<![CDATA[
	.st0{fill:none;stroke:#FF5F9F;stroke-miterlimit:10;}
]]>
</style>
<polyline class="st0" points="261.192,754.153 265.561,750.828 269.724,747.284 264.963,741.126 270.001,734.713 268.358,728.649 
	259.37,729.576 260.635,722.793 263.653,718.104 267.404,718.019 270.143,711.462 259.842,714.056 262.525,706.465 266.653,705.701 
	268.117,699.459 266.304,694.908 270.244,688.251 266.526,684.262 266.548,683.352 262.372,678.311 270.256,678.487 
	272.622,671.804 267.315,668.07 262.122,665.558 256.043,660.252 268.326,661.156 270.817,655.94 277.85,648.7 265.344,646.934 
	263.972,640.599 252.479,637.146 266.674,636.395 264.603,626.616 267.217,625.582 263.451,625.717 263.728,617.733 
	254.894,614.034 267.064,613.677 269.417,608.322 276.453,602.48 269.423,596.637 263.148,595.204 263.826,590.919 268.728,592.23 
	272.387,588.183 266.564,579.363 272.229,570.722 262.336,572.907 263.419,567.81 261.993,562.388 263.766,556.453 264.004,556.252 
	266.998,552.843 259.971,552.163 260.638,544.702 265.651,542.937 270.843,540.424 274.638,533.153 268.976,527.758 261.7,527.325 
	258.343,521.596 263.06,517.235 266.255,512.725 269.765,510.039 264.134,509.489 266.145,499.771 263.419,498.482 259.393,490.46 
	271.144,494.504 263.965,486.926 269.187,481.328 259.127,483.681 264.875,475.373 268.134,476.093 266.302,466.553 
	265.083,463.817 269.566,457.839 268.728,450.971 260.405,452.267 267.941,452.79 271.583,448.725 266.031,440.709 269.839,434.457 
	264.469,432.119 262.583,429.156 265.597,427.338 262.538,416.571 266.438,417.601 263.621,417.565 261.902,411.577 256.35,406.052 
	262.814,401.445 270.16,401.085 267.519,394.493 265.617,392.462 263.374,386.998 254.278,382.945 261.407,376.93 266.307,374.123 
	274.124,371.388 270.312,364.658 261.074,366.188 259.937,359.831 259.324,351.737 268.876,353.583 265.988,348.273 
	264.535,347.326 262.38,341.773 261.723,336.721 261.705,331.009 268.944,330.541 278.177,325.174 266.247,322.505 266.949,314.096 
	265.723,313.609 268.403,314.598 270.091,308.58 269.13,302.057 264.082,301.561 265.854,292.081 256.034,290.507 262.259,285.345 
	264.669,280.048 274.657,278.953 271.81,270.724 267.499,267.328 264.372,267.392 263.287,263.264 270.486,262.756 265.804,255.836 
	269.261,250.163 259.603,252.114 259.87,244.286 259.459,236.327 269.307,238.468 272.43,232.733 264.106,232.209 266.383,222.226 
	263.131,221.175 267.264,221.023 263.427,209.479 278.393,209.629 271.794,201.413 260.325,205.174 259.514,198.068 
	260.971,191.621 269.765,192.708 277.972,186.52 267.612,182.485 258.402,183.988 261.57,174.958 266.058,173.599 265.731,165.565 
	273.226,163.406 271.878,155.109 265.19,154.091 252.701,151.856 258.446,142.878 264.121,140.846 267.889,140.293 272.48,131.399 
	266.046,130.126 253.289,128.747 260.243,121.566 264.595,118.211 275.277,117.19 272.224,108.546 265.301,107.762 262.557,105.63 
	265.914,104.128 264.495,95.002 269.794,94.077 263.205,94.456 263.596,86.358 257.75,82.525 265.832,80.937 268.017,75.415 
	271.601,70.97 262.999,71.553 261.904,64.941 258.954,59.415 260.754,52.75 265.682,49.971 265.449,47.855 269.092,42.351 
	259.715,44.021 260.691,36.304 264.671,33.559 270.793,31.973 264.494,24.746 263.379,24.955 260.853,19.774 260.883,12.037 "/>
<polyline class="st0" points="781.871,754.153 786.24,750.828 790.403,747.284 785.643,741.126 790.682,734.713 789.037,728.649 
	780.049,729.576 781.314,722.793 784.333,718.104 788.084,718.019 790.822,711.462 780.521,714.056 783.205,706.465 
	787.332,705.701 788.797,699.459 786.984,694.908 790.924,688.251 787.206,684.262 787.228,683.352 783.051,678.311 
	790.936,678.487 793.302,671.804 787.994,668.07 782.802,665.558 776.723,660.252 789.006,661.156 791.496,655.94 798.529,648.7 
	786.023,646.934 784.651,640.599 773.159,637.146 787.354,636.395 785.282,626.616 787.896,625.582 784.131,625.717 
	784.407,617.733 775.574,614.034 787.744,613.677 790.096,608.322 797.133,602.48 790.104,596.637 783.828,595.204 784.506,590.919 
	789.407,592.23 793.066,588.183 787.244,579.363 792.908,570.722 783.016,572.907 784.099,567.81 782.673,562.388 784.445,556.453 
	784.684,556.252 787.678,552.843 780.65,552.163 781.317,544.702 786.33,542.937 791.523,540.424 795.317,533.153 789.656,527.758 
	782.379,527.325 779.022,521.596 783.739,517.235 786.935,512.725 790.444,510.039 784.813,509.489 786.824,499.771 784.1,498.482 
	780.072,490.46 791.823,494.504 784.645,486.926 789.866,481.328 779.807,483.681 785.555,475.373 788.814,476.093 786.981,466.553 
	785.764,463.817 790.246,457.839 789.407,450.971 781.085,452.267 788.621,452.79 792.262,448.725 786.711,440.709 790.519,434.457 
	785.148,432.119 783.264,429.156 786.277,427.338 783.217,416.571 787.117,417.601 784.301,417.565 782.582,411.577 
	777.029,406.052 783.494,401.445 790.84,401.085 788.199,394.493 786.297,392.462 784.054,386.998 774.958,382.945 782.087,376.93 
	786.986,374.123 794.804,371.388 790.991,364.658 781.754,366.188 780.616,359.831 780.004,351.737 789.557,353.583 
	786.668,348.273 785.215,347.326 783.06,341.773 782.402,336.721 782.385,331.009 789.623,330.541 798.856,325.174 786.927,322.505 
	787.629,314.096 786.402,313.609 789.083,314.598 790.771,308.58 789.81,302.057 784.762,301.561 786.533,292.081 776.714,290.507 
	782.938,285.345 785.349,280.048 795.336,278.953 792.489,270.724 788.178,267.328 785.052,267.392 783.967,263.264 
	791.166,262.756 786.484,255.836 789.94,250.163 780.283,252.114 780.549,244.286 780.139,236.327 789.986,238.468 793.109,232.733 
	784.785,232.209 787.062,222.226 783.811,221.175 787.943,221.023 784.106,209.479 799.072,209.629 792.475,201.413 
	781.005,205.174 780.193,198.068 781.65,191.621 790.445,192.708 798.652,186.52 788.292,182.485 779.082,183.988 782.25,174.958 
	786.738,173.599 786.41,165.565 793.906,163.406 792.559,155.109 785.87,154.091 773.381,151.856 779.125,142.878 784.801,140.846 
	788.568,140.293 793.16,131.399 786.726,130.126 773.969,128.747 780.923,121.566 785.275,118.211 795.957,117.19 792.904,108.546 
	785.98,107.762 783.236,105.63 786.594,104.128 785.175,95.002 790.475,94.077 783.885,94.456 784.275,86.358 778.43,82.525 
	786.512,80.937 788.696,75.415 792.281,70.97 783.679,71.553 782.584,64.941 779.633,59.415 781.434,52.75 786.361,49.971 
	786.129,47.855 789.771,42.351 780.395,44.021 781.371,36.304 785.352,33.559 791.473,31.973 785.174,24.746 784.059,24.955 
	781.532,19.774 781.562,12.037 "/>
<g>
	<polyline class="st0" points="380.553,754.83 382.185,753.955 379.411,747.286 385.795,752.553 387.293,751.409 386.725,747.93 
		387.296,747.189 388.374,744.982 390.63,740.777 385.094,742.597 389.547,741.244 383.233,738.088 384.183,736.241 
		390.486,738.597 382.63,733.488 393.854,731.189 380.835,732.547 386.316,729.783 385.498,729.699 383.524,728.139 
		382.508,735.906 380.594,734.996 377.361,730.145 385.443,728.587 376.117,724.507 384.382,724.622 377.075,719.036 
		385.881,722.493 381.698,716.666 384.506,723.865 385.072,716.222 382.36,714.473 387.265,714.598 381.844,710.405 
		390.768,709.288 388.53,718.325 385.45,714.794 383.51,715.785 379.081,706.907 373.568,719.253 380.942,712.723 377.747,709.459 
		378.903,707.73 384.289,709.962 383.22,704.919 386.839,707.092 384.55,703.286 388.294,701.968 384.913,699.656 392.211,694.731 
		383.567,694.878 390.912,696.076 382.287,688.725 382.958,686.873 382.235,688.826 383.175,691.281 387.464,684.798 
		381.308,686.472 382.843,684.701 383.341,682.222 385.324,677.744 384.939,679.62 383.028,685.478 385.159,678.282 
		387.179,676.232 391.77,682.699 387.203,675.939 386.277,673.731 391.665,673.756 387.695,673.324 385.523,676.5 385.445,672.85 
		385.233,669.629 382.855,670.492 385.446,660.72 380.232,666.663 378.865,664.907 374.913,666.369 380.024,657.441 
		376.635,661.024 376.681,663.835 379.049,659.613 380.65,665.792 382.916,662.984 384.829,665 390.468,667.141 393.741,662.16 
		382.986,654.889 395.709,660.184 395.203,658.51 391.544,652.147 395.586,653.26 398.197,652.978 400.345,647.295 394.052,652.396 
		392.351,649.395 391.034,643.67 388.206,648.651 385.863,650.158 388.917,641.931 379.697,645.698 390.105,641.232 
		387.307,636.639 381.848,636.889 379.428,637.996 378.387,634.526 375.656,636.66 372.433,640.423 371.4,637.157 373.102,632.376 
		375.74,643.879 377.488,638.463 379.15,631.464 381.286,633.372 383.398,634.8 380.61,632.541 379.019,635.729 380.445,633.386 
		384.165,630.557 385.222,628.286 388.332,630.206 391.721,629.859 384.225,626.915 382.538,625.49 379.379,623.619 
		387.985,621.921 377.088,619.543 379.442,619.673 379.123,621.02 377.227,620.601 377.36,615.322 377.687,609.577 375.146,614.482 
		375.885,618.047 377.604,607.542 379.731,610.847 381.874,614.695 383.877,613.679 382.706,608.782 385.065,611.178 
		381.897,607.656 392.305,611.321 387.557,604.611 391.12,606.047 392.124,604.392 397.285,607.74 390.906,602.472 390.198,605.759 
		392.389,600.271 393.982,595.493 386.896,601.154 388.411,596.336 386.201,596.067 383.924,596.395 385.333,592.97 
		386.169,593.668 382.27,590.454 384.087,592.167 384.686,596.477 387.809,592.968 393.243,594.906 389.74,589.286 390.429,588.168 
		386.976,588.462 386.373,586.334 385.734,584.223 380.858,584.905 391.514,579.303 384.939,576.586 391.457,578.392 
		390.707,575.43 386.396,570.129 384.973,574.689 387.994,566.162 387.217,572.028 385.258,572.553 383.528,574.12 381.289,572.771 
		375.448,569.915 380.233,569.155 386.311,567.679 377.328,567.178 383.402,563.647 387.246,562.582 386.148,561.821 
		378.743,557.454 383.088,556.635 386.487,559.562 387.047,556.917 389.349,552.365 384.128,552.3 381.727,558.779 379.865,559.678 
		380.345,550.965 374.142,549.87 372.985,547.887 375.763,546.253 383.413,547.641 380.793,543.091 384.076,547.077 
		387.336,549.708 384.151,537.812 385.42,536.017 385.774,536.469 389.674,538.108 389.796,535.861 390.11,533.709 398.751,532.385 
		391.708,532.189 391.235,529.853 388.089,530.316 386.418,530.87 385.615,534.266 383.979,531.055 382.345,527.808 
		377.375,531.947 382.859,523.406 376.589,524.515 375.024,521.306 382.822,524.537 385.187,523.941 385.401,520.354 
		383.527,516.128 387.683,516.812 384.797,512.424 390.896,516.662 386.612,510.196 386.165,515.704 385.271,505.449 
		387.748,506.178 389.917,508.9 379.925,504.808 380.37,502.874 377.825,500.317 390.737,497.642 381.362,503.916 386.092,495.061 
		374.999,499.621 382.592,493.301 376.304,493.943 373.262,486.924 381.279,487.98 384.114,486.104 382.413,497.409 
		384.633,497.324 388.514,492.418 389.428,494.151 389.775,491.833 382.189,496.151 387.19,488.539 383.896,488.778 
		388.257,486.671 382.534,484.058 387.083,485.684 384.53,480.682 393.116,477.492 387.298,487.253 383.356,479.464 382.72,485.811 
		379.112,479.468 378.112,483.579 380.667,483.09 379.219,479.638 387.308,482.776 385.603,479.136 385.337,478.816 
		386.608,470.041 381.442,471.567 381,475.266 392.598,471.063 385.99,470.354 385.971,468.376 385.062,466.582 390.164,463.67 
		388.131,464.638 391.309,464.688 391.004,462.121 387.55,457.646 387.27,455.657 382.587,453.905 384.964,454.099 384.445,444.554 
		382.932,448.508 381.715,454.392 380.873,452.992 381.042,453.661 383.237,449.316 384.514,458.234 387.408,454.362 
		383.634,447.526 392.511,453.033 386.143,448.572 388.318,447.816 389.592,444.568 389.801,442.051 390.198,439.399 
		377.769,441.074 388.323,440.67 384.527,436.216 384.169,433.852 387.65,434.826 387.816,431.568 387.231,428.018 384.685,430.463 
		385.616,428.573 384.482,429.876 383.249,428.764 378.019,424.963 380.417,426.547 386.224,422.958 381.215,422.445 
		384.792,419.488 385.219,417.424 378.063,412.846 383.273,417.316 384.363,415.937 385.695,412.176 380.669,415.923 
		375.595,415.218 377.925,413.215 378.799,410.768 376.784,410.017 375.007,409.021 372.877,405.849 379.65,408.892 
		381.827,408.528 383.195,407.022 383.613,406.863 383.413,399.728 385.094,396.503 387.374,405.375 394.312,404.699 
		385.801,400.462 383.875,399.321 392.171,394.083 390.809,391.399 388.213,389.882 388.356,388.738 378.649,390.594 
		381.263,387.932 381.106,384.61 381.279,379.342 375.654,387.069 374.116,385.622 377.823,382.017 370.322,376.734 
		379.812,385.095 380.262,382.735 375.869,374.631 379.494,375.844 381.4,375.15 387.171,381.434 387.983,380.39 388.137,376.389 
		391.44,379.564 392.271,375.666 391.826,370.901 398.298,366.153 396.71,364.831 388.777,367.099 386.128,370.808 387.33,365.074 
		385.932,368.062 384.676,371.942 381.378,363.508 376.608,370.268 383.76,363.316 381.436,361.544 377.357,360.014 
		378.009,357.856 371.618,356.307 371.039,354.313 380.633,354.347 380.259,351.176 382.32,350.739 383.549,354.633 385.535,354.63 
		386.725,352.904 386.548,351.931 387.257,349.25 387.445,345.951 381.216,349.007 376.774,347.762 376.344,345.799 
		379.131,342.329 376.896,340.625 378.549,338.697 384.586,336.469 375.951,334.833 386.025,332.896 376.301,327.226 
		382.715,336.439 384.634,338.009 386.359,336.549 386.932,327.902 387.706,326.149 392.895,330.836 392.557,326.005 
		398.42,331.837 399.992,324.91 393.932,329.675 393.694,321.411 389.541,330.646 389.113,323.229 388.102,318.402 389.747,319.185 
		389.8,320.783 378.954,317.762 378.263,315.585 392.514,311.372 384.7,313.23 387.472,315.307 387.117,312.399 386.04,309.932 
		394.811,308.92 394.1,305.6 390.501,303.908 382.647,306.615 386.54,299.406 384.504,302.819 382.993,301.518 390.472,301.011 
		386.277,298.269 377.337,294.635 378.638,292.913 386.173,291.011 383.445,287.351 381.491,286.986 379.908,284.305 
		376.66,291.988 378.3,289.624 380.246,293.818 378.242,288.236 381.011,288.403 383.413,287.128 379.467,282.471 380.837,280.962 
		383.321,279.774 386.182,285.948 387.522,279.752 390.035,284.24 391.471,278.882 395.733,280.217 397.234,275.361 
		393.175,274.464 386.489,274.471 395.231,267.643 392.354,265.616 389.871,265.81 384.869,271.352 384.698,263.294 
		382.997,267.621 376.419,266.973 379.286,261.635 384.451,270.541 386.09,268.138 387.124,257.127 394.449,264.509 386.62,262.076 
		390.897,256.661 384.612,258.388 379.119,255.869 388.523,255.606 385.45,251.139 392.135,248.081 386.5,252.147 385.249,255.902 
		382.175,250.632 381.102,255.284 381.948,247.938 372.919,249.968 371.438,247.96 381.746,246.35 379.84,244.276 378.318,242.313 
		376.041,240.438 381.345,238.167 382.198,240.969 381.643,230.453 381.521,240.498 384.823,234.786 385.171,242.683 
		385.438,232.947 387.956,235.884 395.574,237.554 386.186,235.316 389.232,232.051 387.063,233.341 385.083,231.584 
		386.353,229.605 379.445,229.311 377.505,226.77 380.708,225.401 390.541,225.54 384.931,222.364 383.499,222.024 377.617,217.982 
		384.283,227.612 381.713,217.878 378.904,221.285 387.813,216.188 379.644,216.769 389.765,211.268 387.938,209.736 
		377.837,206.006 384.342,215.807 386.483,215.251 388.643,213.113 390.781,213.1 392.997,205.422 395.077,211.638 397.037,209.526 
		401.094,203.833 398.904,202.894 394.644,203.613 390.814,203.98 390.325,202.414 389.384,204.024 385.203,197.728 
		386.266,207.414 381.488,199.302 380.949,204.125 376.666,209.812 372.098,204.187 373.041,202.28 379.794,199.707 
		381.811,198.316 382.436,196.733 379.378,193.782 378.134,189.219 381.216,198.338 384.519,189.667 386.794,189.339 
		390.415,199.887 394.485,197.085 392.004,190.39 392.499,187.631 392.017,183.572 396.451,186.535 394.542,187.269 
		395.892,178.696 389.868,189.07 391.741,179.153 386.989,186.24 385.778,188.986 384.972,184.957 381.639,176.085 381.227,185.152 
		379.442,185.824 375.357,185.513 379.136,182.624 381.914,181.575 374.706,177.018 375.46,175.251 380.53,175.09 384.623,180.757 
		389.844,177.575 384.826,171.592 381.478,169.718 391.649,167.291 387.449,167.579 386.244,164.324 388.194,164.054 
		391.065,166.965 397.092,166.365 390.16,161.59 397.536,158.265 393.898,156.725 392.414,153.316 389.232,149.948 386.102,155.514 
		383.75,155.827 380.659,160.979 379.387,156.091 376.535,160.041 375.697,152.709 374.662,146.475 367.671,153.532 
		371.054,149.012 379.762,152.059 378.23,148.549 380.411,147.409 377.3,142.888 380.998,147.272 382.099,144.384 384.223,145.816 
		384.425,137.667 389.052,143.455 394.021,141.804 387.72,136.303 383.048,131.639 385.695,130.748 391.428,131.343 
		388.675,133.549 386.262,134.472 384.148,134.982 383.196,125.956 381.263,123.95 378.628,128.43 376.112,131.8 375.019,121.994 
		372.503,128.583 373.643,127.427 374.803,125.773 379.498,127.539 379.479,124.732 380.193,122.794 382.68,123.227 
		382.389,119.849 382.857,116.628 385.697,119.272 387.76,118.312 389.229,111.145 391.474,112.048 393.218,116.474 
		394.952,114.955 390.428,114.613 392.747,111.85 385.883,112.326 387.839,113.276 389.447,102.264 386.699,105.881 
		386.241,101.958 382.565,106.966 378.973,105.22 385.069,109.321 382.323,102.808 383.208,102.502 384.247,100.476 383.634,98.702 
		388.132,96.13 383.944,95.42 384.234,89.702 387.556,98.298 386.282,99.59 386.67,98.092 384.113,91.961 384.291,91.976 
		377.062,92.188 387.168,90.648 388.995,88.706 385.764,84.499 376.571,91.065 375.552,88.368 369.604,82.235 379.927,88.804 
		380.022,78.618 381.844,77.202 387.6,84.53 382.122,77.799 379.572,74.66 385.33,74.528 390.1,75.583 393.338,75.748 
		385.279,74.654 388.392,72.488 386.075,70.152 383.655,66.352 380.94,72.661 386.962,68.444 374.332,68.269 382.729,64.282 
		381.277,62.295 381.819,59.637 383.979,58.831 371.859,55.43 373.849,53.582 383.939,55.84 379.262,48.317 382.481,50.182 
		381.577,48.603 388.939,49.008 390.328,49.213 382.853,41.624 389.962,41.463 385.92,41.87 383.513,39.197 382.31,43.306 
		381.431,49.254 375.202,47.468 383.07,42.632 371.872,39.258 384.824,38.934 381.474,37.614 382.419,36.225 381.958,30.254 
		386.139,35.28 387.917,33.735 388.735,31.615 385.127,33.364 390.278,26.338 388.1,25.692 386.218,24.785 381.972,27.369 
		378.271,30.055 380.763,23.532 384.433,19.604 384.3,18.725 375.228,17.824 376.846,15.897 379.654,13.972 376.069,12.022 	"/>
</g>
<g>
	<polyline class="st0" points="903.508,757.82 905.553,757.488 904.935,753.653 906.937,753.127 903.553,746.218 907.735,748.318 
		916.088,747.79 907.766,745.978 902.625,747.493 909.684,739.573 910.569,741.251 901.166,735.931 902.726,734.563 
		906.419,734.867 904.39,733.701 902.606,734.423 914.766,728.954 909.695,726.337 905.515,723.284 904.129,727.425 
		902.746,731.631 900.521,727.695 894.736,732.344 900.296,727.5 894.041,723.992 896.377,721.381 906.785,724.851 903.971,720.825 
		900.129,712.635 905.095,719.842 904.59,714.45 910.073,717.411 905.159,713.435 905.771,711.763 907.284,714.377 908.422,715.206 
		907.186,718.994 902.598,709.462 901.267,712.887 903.875,709.48 898.055,711.463 901.913,710.692 897.695,707.062 900.002,704.01 
		905.046,711.115 906.537,706.074 907.394,703.794 907.6,701.646 900.837,700.111 902.156,699.008 902.578,694.846 908.762,694.401 
		905.797,690.4 903.958,687.062 913.036,687.978 908.651,686.812 902.134,690.397 910.326,681.938 899.869,686.633 903.765,682.435 
		908.412,675.747 895.88,676.197 903.868,678.242 905.907,675.217 907.891,674.791 907.669,675.151 913.028,677.761 
		916.737,677.196 914.493,674.518 913.021,671.452 914.3,664.988 909.125,668.584 910.26,662.322 903.77,670.005 901.456,670.371 
		900.43,667.389 898.404,666.215 903.314,657.519 896.724,662.001 897.292,661.016 897.548,661.281 899.213,666.6 901.984,656.915 
		903.392,665.747 905.262,668.346 910.375,665.737 902.749,656.587 903.243,654.688 910.981,656.389 907.735,650.598 
		909.338,649.347 916.377,653.368 912.754,647.029 912.824,650.453 916.021,643.256 913.458,646.365 910.327,653.482 
		909.305,645.673 907.267,645.03 901.35,650.656 901.24,645.511 898.224,643.952 900.349,643.376 903.491,633.683 900.525,636.609 
		898.359,636.881 896.262,636.908 894.475,635.894 898.959,638.197 893.686,630.551 896.357,642.696 897.751,630.61 
		900.082,636.224 901.891,631.959 904.107,635.365 911.854,640.83 909.469,633.661 900.229,633.574 911.057,629.238 
		908.403,627.757 905.166,627.379 909.31,627.522 904.822,624.609 903.128,625.574 897.019,623.513 910.155,621.973 
		903.579,619.744 909.1,614.109 901.069,617.994 897.603,621.327 899.493,611.853 894.135,619.68 895.592,614.407 896.611,619.671 
		898.604,618.389 900.619,617.9 902.575,615.421 904.408,608.598 904.007,609.731 900.957,609.075 913.896,612.628 908.937,608.319 
		908.493,604.921 913.866,608.536 917.377,609.9 910.883,599.211 915.168,602.479 915.049,600.741 915.981,596.766 913.54,596.843 
		910.605,597.509 908.58,597.421 906.001,599.918 903.294,602.128 903.358,594.746 905.336,593.429 904.503,592.25 903.545,596.736 
		907.656,587.916 909.143,595.014 914.799,595.697 908.236,587.312 914.215,588.225 912.069,585.549 905.294,587.494 
		911.603,580.797 909.277,579.795 910.779,579.317 912.217,580.91 904.635,573.477 911.77,575.682 905.108,568.841 905.678,574.672 
		910.223,573.174 907.313,569.396 905.893,572.35 904.176,573.98 903.113,571.298 908.115,572.463 903.427,569.688 895.851,568.039 
		902.527,565.989 902.869,563.967 907.192,562.559 907.019,561.877 901.648,558.119 900.663,555.454 902.519,555.332 
		904.756,554.31 908.177,552.618 904.254,558.037 902.715,555.596 901.68,547.953 898.839,552.679 905.459,550.821 905.391,548.937 
		896.312,546.24 905.195,548.463 900.461,540.221 905.703,549.768 902.418,536.356 910.091,548.683 910.578,545.274 
		913.643,543.732 915.323,540.703 906.437,533.753 911.148,533.896 912.174,533.443 912.141,532.449 911.974,529.79 
		908.576,530.518 909.308,525.973 906.289,534.358 905.281,520.602 902.763,532.202 897.068,533.387 905.894,522.029 
		904.945,520.019 890.762,520.643 901.047,521.882 896.852,514.188 900.025,514.951 908.432,519.121 902.416,512.6 901.515,508.497 
		910.688,515.501 902.29,510.591 907.951,504.372 906.045,504.488 908.866,505.872 902.112,507.145 899.028,504.481 
		906.616,504.025 906.51,501.974 901.449,501.336 907.446,492.492 903.85,497.674 899.854,497.525 897.735,496.08 899.849,492.506 
		903.98,494.052 900.742,491.513 903.472,489.944 902.426,499.349 908.155,489.062 907.278,497.984 904.395,490.563 912.68,489.727 
		905.967,493.218 907.97,488.443 908.426,485.13 909.483,486.646 905.797,486.467 903.611,481.812 908.689,483.928 907.694,482.096 
		907.28,484.266 904.499,481.44 902.422,481.626 901.998,488.901 900.441,482.378 901.703,483.337 900.369,479.963 901.047,477.975 
		904.279,477.75 906.783,480.452 906.005,475.847 912.104,479.725 905.006,474.626 904.254,472.797 910.185,469.68 899.972,469.659 
		911.273,464.694 897.444,463.989 904.574,461.463 906.152,460.311 908.679,459.867 902.517,456.374 903.22,456.234 
		907.515,453.386 912.69,445.655 906.637,454.251 903.291,446.449 902.638,455.95 895.166,450.14 901.925,450.756 903.292,458.32 
		905.729,450.516 905.647,448.18 908.394,451.182 904.679,445.409 913.914,448.824 904.619,450.849 906.945,446.871 
		905.434,445.546 912.289,438.424 898.271,441.085 907.941,440.024 905.392,436.328 906.785,435.031 913.655,432.929 
		907.104,434.765 906.556,431.128 903.054,433.256 904.628,429.635 900.104,428.683 907.039,433.919 903.638,426.789 
		909.955,424.027 898.703,425.287 897.844,423.596 896.469,422.048 896.424,420.118 902.837,417.44 905.193,412.612 907.36,420.126 
		902.704,418.304 905.961,414.6 905.793,412.485 907.59,408.002 899.961,410.282 897.096,410.386 900.781,403.9 893.245,405.82 
		895.021,401.441 899.588,404.434 898.361,399.286 899.879,394.614 903.961,397.04 905.919,399.454 907.669,397.559 
		914.897,404.635 907.794,399.936 907.538,398.126 903.442,397.852 911.554,391.354 906.715,391.38 907.58,389.336 902.777,389.178 
		906.554,383.437 901.952,384.238 900.898,381.722 900.23,378.329 898.215,377.948 887.449,384.199 899.993,387.389 
		900.369,384.948 897.243,378.351 901.042,379.955 903.26,380.254 904.509,379.388 902.195,371.563 905.299,372.942 
		909.168,377.394 909.362,371.681 910.717,369.279 919.984,374.083 909.106,371.746 917.826,364.583 916.001,363.393 
		911.285,361.721 907.744,363.467 905.406,360.789 904.021,363.887 902.911,368.663 900.647,366.129 895.625,364.893 
		906.69,360.727 901.091,359.622 894.064,358.208 895.924,356.033 897.304,353.891 894.564,347.198 901.938,345.997 
		903.488,348.211 904.598,352.729 906.225,354.577 913.411,356.995 913.671,348.426 905.365,350.649 905.761,348.053 
		901.699,349.158 908.521,343.468 897.573,345.586 898.346,342.717 897.359,340.654 896.797,339.015 901.458,336.708 
		906.878,334.802 902.712,332.91 904.273,333.717 902.623,324.53 904.65,327.772 906.714,331.556 908.451,330.486 907.374,324.411 
		911.263,326.86 910.941,322.054 918.383,330.601 914.41,325.469 915.734,324.657 913.609,324.831 912.904,318.653 908.796,327.683 
		906.502,328.593 905.642,322.599 910.464,320.782 901.787,317.942 906.631,316.228 906.562,314.06 905.487,312.917 
		909.129,318.432 912.23,313.643 908.462,310.421 910.456,308.628 914.094,305.701 909.742,304.12 913.217,298.158 906.939,302.257 
		905.212,302.526 900.493,303.572 900.976,299.109 901.948,297.333 897.934,294.619 911.024,295.102 903.828,293.208 904.133,287.3 
		901.814,289.208 898.821,295.323 896.374,298.009 900.515,289.227 896.829,288.879 898.328,287.52 899.147,285.336 
		901.922,285.451 896.917,281.001 901.838,281.108 906.537,283.35 905.688,275.243 908.422,281.756 910.881,285.763 912.72,284.067 
		911.205,277.268 913.952,276.731 917.408,273.235 915.443,271.609 914.271,268.749 910.133,269.298 904.561,273.414 
		904.481,274.255 905.421,265.418 900.523,270.89 897.369,266.903 899.715,261.494 904.952,268.032 906.331,261.928 
		908.474,266.639 916.958,265.136 904.898,263.7 902.848,262.566 901.893,260.687 904.245,255.843 904.76,252.898 905.299,250.633 
		913.517,247.719 906.962,251.07 904.761,250.122 903.326,252.968 901.738,255.07 894.873,257.193 895.678,250.039 898.888,248.19 
		893.726,246.055 903.371,244.25 897.302,242.401 897.008,240.422 905.062,238.011 903.578,241.808 899.957,241.333 902.774,237.85 
		903.939,241.979 906.951,237.622 911.767,244.435 908.111,235.599 905.754,231.835 915.738,230.811 910.24,226.809 
		908.216,225.811 905.467,236.272 900.537,234.579 897.354,228.679 910.516,229.582 899.831,225.045 910.457,225.366 
		899.552,225.171 905.087,219.21 900,219.23 904.498,214.998 904.077,219.083 900.427,221.004 910.458,215.537 909.058,213.865 
		902.817,213.803 902.965,211.615 904.276,210.515 905.153,202.705 907.2,211.592 909.363,209.056 911.441,215.016 913.656,207.427 
		915.754,211.884 915.241,208.269 921.565,204 910.915,209.855 916.21,202.901 910.183,205.034 912.478,197.748 909.358,201.875 
		906.916,200.879 905.991,204.503 901.449,197.113 900.617,201.042 901.659,201.828 893.858,204.065 892.34,202.438 
		893.562,200.496 905.488,198.532 899.631,195.945 900.463,193.874 900.444,191.547 901.927,198.082 904.417,195.989 
		906.303,198.814 910.422,197.211 910.398,190.766 912.044,189.542 911.016,184.763 913.4,184.507 924.313,186.237 916.917,182.915 
		913.149,187.486 911.682,186.161 911.059,182.652 907.701,186.159 907.72,176.927 905.025,181.117 904.403,188.869 
		900.905,179.018 900.463,187.92 896.98,184.752 900.145,182.739 902.292,181.469 904.657,180.27 893.744,174.41 903.007,177.169 
		902.575,171.755 902.334,170.982 904.404,171.637 907.72,169.492 910.656,167.358 907.016,166.799 908.188,168.722 
		909.867,167.501 911.042,164.527 906.852,159.928 908.805,161.92 914.951,158.794 909.995,157.469 913.105,153.304 
		909.698,151.353 906.196,159.364 904.756,153.855 902.974,151.847 901.664,147.163 898.253,154.23 895.347,158.468 
		893.736,155.443 891.491,152.175 891.95,149.151 892.635,147.064 893.708,145.221 900.945,147.316 901.674,147.426 
		901.692,147.316 903.695,146.945 903.247,139.266 904.838,135.851 909.9,143.685 914.037,141.461 906.811,135.483 906.517,133.079 
		916.011,135.723 916.741,128.774 910.747,126.51 908.691,125.63 904.865,134.741 903.306,131.226 901.51,127.949 899.909,122.865 
		896.779,131.929 894.724,131.006 897.191,126.803 889.496,122.752 899.87,130.023 900.174,127.534 895.083,119.815 
		898.884,120.581 900.624,119.678 907.156,125.149 906.502,124.663 906.553,121.118 909.077,124.983 910.888,121.389 
		912.546,116.157 920.462,121.668 920.309,113.304 912.137,114.249 906.509,114.293 912.256,110.315 910.153,110.884 
		908.718,114.699 907.406,105.634 903.043,112.706 906.083,103.312 904.359,106.015 903.174,103.567 904.893,103.832 
		898.359,103.361 897.653,101.605 908.136,98.108 903.37,96.976 902.569,93.996 906.1,96.49 907.801,95.808 908.846,95.187 
		907.14,94.445 904.833,92.671 905.071,91.862 900.09,92.301 896.616,90.106 897.022,88.096 901.229,87.417 898.9,88.55 
		897.986,85.691 901.297,82.691 898.404,77.603 902.367,87.097 902.238,75.751 908.864,85.25 912.824,81.767 912.304,79.43 
		905.142,74.025 905.748,71.525 912.128,74.223 909.885,71.855 908.541,64.668 906.628,68.287 905.021,76.463 904.389,69.271 
		895.281,70.492 901.963,67.118 905.852,63.468 905.489,60.409 903.474,59.116 891.995,60.029 891.951,55.271 906.678,56.864 
		899.953,52.518 902.285,52.472 903.209,50.269 903.008,48.951 910.685,49.272 910.81,49.081 909.26,45.416 902.196,45.168 
		906.305,40.226 905.065,44.099 902.983,43.274 899.837,36.484 901.115,42.096 892.77,41.243 893.969,39.437 901.779,38.463 
		903.921,38.81 904.775,38.654 907.15,39.817 905.939,31.887 909.163,35.921 915.871,34.175 909.359,30.268 909.531,27.58 
		908.742,25.725 903.26,27.955 903.067,26.572 902.698,25.22 907.597,20.532 901.349,21.439 905.135,18.691 900.095,17.841 
		902.958,15.918 905.101,13.99 901.566,12.042 	"/>
</g>
</svg>
