<?xml version="1.0" encoding="utf-8"?>
<!-- Generator: Adobe Illustrator 15.0.0, SVG Export Plug-In . SVG Version: 6.00 Build 0)  -->
<!DOCTYPE svg PUBLIC "-//W3C//DTD SVG 1.1//EN" "http://www.w3.org/Graphics/SVG/1.1/DTD/svg11.dtd">
<svg version="1.1" id="Layer_1" xmlns="http://www.w3.org/2000/svg" xmlns:xlink="http://www.w3.org/1999/xlink" x="0px" y="0px"
	 width="1024px" height="768px" viewBox="0 0 1024 768" style="enable-background:new 0 0 1024 768;" xml:space="preserve">
<style type="text/css">
<![CDATA[
	.st0{fill:none;stroke:#FF5F9F;stroke-miterlimit:10;}
]]>
</style>
<polyline class="st0" points="251.184,754.153 255.553,750.828 259.716,747.284 254.955,741.126 259.994,734.713 258.35,728.649 
	249.362,729.576 250.627,722.793 253.646,718.104 257.396,718.019 260.135,711.462 249.834,714.056 252.517,706.465 
	256.645,705.701 258.109,699.459 256.296,694.908 260.236,688.251 256.519,684.262 256.54,683.352 252.364,678.311 260.248,678.487 
	262.614,671.804 257.307,668.07 252.114,665.558 246.036,660.252 258.318,661.156 260.809,655.94 267.842,648.7 255.336,646.934 
	253.964,640.599 242.472,637.146 256.666,636.395 254.595,626.616 257.209,625.582 253.443,625.717 253.72,617.733 244.886,614.034 
	257.056,613.677 259.409,608.322 266.445,602.48 259.416,596.637 253.141,595.204 253.818,590.919 258.72,592.23 262.379,588.183 
	256.557,579.363 262.221,570.722 252.328,572.907 253.411,567.81 251.985,562.388 253.758,556.453 253.997,556.252 256.99,552.843 
	249.963,552.163 250.63,544.702 255.643,542.937 260.835,540.424 264.63,533.153 258.968,527.758 251.692,527.325 248.335,521.596 
	253.052,517.235 256.247,512.725 259.757,510.039 254.126,509.489 256.137,499.771 253.412,498.482 249.385,490.46 261.136,494.504 
	253.958,486.926 259.179,481.328 249.119,483.681 254.868,475.373 258.126,476.093 256.294,466.553 255.076,463.817 
	259.559,457.839 258.72,450.971 250.397,452.267 257.933,452.79 261.575,448.725 256.023,440.709 259.831,434.457 254.461,432.119 
	252.576,429.156 255.589,427.338 252.53,416.571 256.43,417.601 253.613,417.565 251.895,411.577 246.342,406.052 252.807,401.445 
	260.152,401.085 257.511,394.493 255.609,392.462 253.366,386.998 244.271,382.945 251.399,376.93 256.299,374.123 264.116,371.388 
	260.304,364.658 251.066,366.188 249.929,359.831 249.316,351.737 258.869,353.583 255.98,348.273 254.527,347.326 252.372,341.773 
	251.715,336.721 251.697,331.009 258.936,330.541 268.169,325.174 256.239,322.505 256.941,314.096 255.715,313.609 
	258.396,314.598 260.083,308.58 259.122,302.057 254.074,301.561 255.846,292.081 246.026,290.507 252.251,285.345 254.661,280.048 
	264.649,278.953 261.802,270.724 257.491,267.328 254.364,267.392 253.279,263.264 260.479,262.756 255.796,255.836 
	259.253,250.163 249.595,252.114 249.862,244.286 249.451,236.327 259.299,238.468 262.422,232.733 254.098,232.209 
	256.375,222.226 253.123,221.175 257.256,221.023 253.419,209.479 268.385,209.629 261.787,201.413 250.317,205.174 
	249.506,198.068 250.963,191.621 259.757,192.708 267.964,186.52 257.604,182.485 248.394,183.988 251.562,174.958 256.05,173.599 
	255.723,165.565 263.218,163.406 261.871,155.109 255.183,154.091 242.693,151.856 248.438,142.878 254.113,140.846 
	257.881,140.293 262.473,131.399 256.038,130.126 243.281,128.747 250.235,121.566 254.587,118.211 265.27,117.19 262.216,108.546 
	255.293,107.762 252.549,105.63 255.906,104.128 254.487,95.002 259.787,94.077 253.197,94.456 253.588,86.358 247.743,82.525 
	255.824,80.937 258.009,75.415 261.593,70.97 252.991,71.553 251.896,64.941 248.946,59.415 250.746,52.75 255.674,49.971 
	255.441,47.855 259.084,42.351 249.708,44.021 250.683,36.304 254.664,33.559 260.785,31.973 254.486,24.746 253.372,24.955 
	250.845,19.774 250.875,12.037 "/>
<polyline class="st0" points="771.863,754.153 776.232,750.828 780.396,747.284 775.635,741.126 780.674,734.713 779.029,728.649 
	770.041,729.576 771.307,722.793 774.325,718.104 778.076,718.019 780.814,711.462 770.514,714.056 773.197,706.465 
	777.324,705.701 778.789,699.459 776.977,694.908 780.916,688.251 777.198,684.262 777.22,683.352 773.043,678.311 780.928,678.487 
	783.294,671.804 777.986,668.07 772.794,665.558 766.715,660.252 778.998,661.156 781.488,655.94 788.521,648.7 776.016,646.934 
	774.644,640.599 763.151,637.146 777.346,636.395 775.274,626.616 777.889,625.582 774.123,625.717 774.399,617.733 
	765.566,614.034 777.736,613.677 780.088,608.322 787.125,602.48 780.096,596.637 773.82,595.204 774.498,590.919 779.399,592.23 
	783.059,588.183 777.236,579.363 782.9,570.722 773.008,572.907 774.091,567.81 772.665,562.388 774.438,556.453 774.676,556.252 
	777.67,552.843 770.643,552.163 771.31,544.702 776.322,542.937 781.516,540.424 785.31,533.153 779.648,527.758 772.371,527.325 
	769.015,521.596 773.731,517.235 776.927,512.725 780.437,510.039 774.806,509.489 776.816,499.771 774.092,498.482 770.064,490.46 
	781.815,494.504 774.637,486.926 779.858,481.328 769.799,483.681 775.547,475.373 778.807,476.093 776.974,466.553 
	775.756,463.817 780.238,457.839 779.399,450.971 771.077,452.267 778.613,452.79 782.254,448.725 776.703,440.709 780.511,434.457 
	775.141,432.119 773.256,429.156 776.27,427.338 773.209,416.571 777.109,417.601 774.293,417.565 772.574,411.577 767.021,406.052 
	773.486,401.445 780.832,401.085 778.191,394.493 776.289,392.462 774.046,386.998 764.95,382.945 772.079,376.93 776.979,374.123 
	784.796,371.388 780.983,364.658 771.746,366.188 770.608,359.831 769.996,351.737 779.549,353.583 776.66,348.273 775.207,347.326 
	773.052,341.773 772.395,336.721 772.377,331.009 779.615,330.541 788.849,325.174 776.919,322.505 777.621,314.096 
	776.395,313.609 779.075,314.598 780.764,308.58 779.802,302.057 774.754,301.561 776.525,292.081 766.706,290.507 772.931,285.345 
	775.341,280.048 785.328,278.953 782.481,270.724 778.17,267.328 775.044,267.392 773.959,263.264 781.158,262.756 776.477,255.836 
	779.933,250.163 770.275,252.114 770.541,244.286 770.131,236.327 779.979,238.468 783.102,232.733 774.777,232.209 
	777.055,222.226 773.803,221.175 777.936,221.023 774.099,209.479 789.064,209.629 782.467,201.413 770.997,205.174 
	770.186,198.068 771.643,191.621 780.438,192.708 788.645,186.52 778.284,182.485 769.074,183.988 772.242,174.958 776.73,173.599 
	776.402,165.565 783.898,163.406 782.551,155.109 775.862,154.091 763.373,151.856 769.117,142.878 774.793,140.846 
	778.561,140.293 783.152,131.399 776.718,130.126 763.961,128.747 770.915,121.566 775.268,118.211 785.949,117.19 782.896,108.546 
	775.973,107.762 773.229,105.63 776.586,104.128 775.167,95.002 780.467,94.077 773.877,94.456 774.268,86.358 768.422,82.525 
	776.504,80.937 778.688,75.415 782.273,70.97 773.671,71.553 772.576,64.941 769.625,59.415 771.426,52.75 776.354,49.971 
	776.121,47.855 779.764,42.351 770.387,44.021 771.363,36.304 775.344,33.559 781.465,31.973 775.166,24.746 774.051,24.955 
	771.524,19.774 771.555,12.037 "/>
<g>
	<polyline class="st0" points="370.545,754.83 372.177,753.955 369.403,747.286 375.788,752.553 377.285,751.409 376.717,747.93 
		377.288,747.189 378.366,744.982 380.623,740.777 375.086,742.597 379.539,741.244 373.225,738.088 374.175,736.241 
		380.479,738.597 372.622,733.488 383.846,731.189 370.827,732.547 376.308,729.783 375.49,729.699 373.516,728.139 372.5,735.906 
		370.586,734.996 367.354,730.145 375.436,728.587 366.109,724.507 374.375,724.622 367.067,719.036 375.873,722.493 
		371.69,716.666 374.499,723.865 375.064,716.222 372.352,714.473 377.257,714.598 371.836,710.405 380.76,709.288 378.522,718.325 
		375.442,714.794 373.502,715.785 369.073,706.907 363.56,719.253 370.934,712.723 367.739,709.459 368.896,707.73 374.281,709.962 
		373.212,704.919 376.832,707.092 374.542,703.286 378.286,701.968 374.905,699.656 382.203,694.731 373.56,694.878 
		380.904,696.076 372.279,688.725 372.951,686.873 372.228,688.826 373.167,691.281 377.456,684.798 371.3,686.472 372.835,684.701 
		373.333,682.222 375.316,677.744 374.932,679.62 373.021,685.478 375.151,678.282 377.171,676.232 381.762,682.699 
		377.195,675.939 376.269,673.731 381.657,673.756 377.688,673.324 375.516,676.5 375.438,672.85 375.226,669.629 372.847,670.492 
		375.438,660.72 370.225,666.663 368.857,664.907 364.905,666.369 370.016,657.441 366.627,661.024 366.673,663.835 
		369.041,659.613 370.643,665.792 372.908,662.984 374.821,665 380.46,667.141 383.733,662.16 372.979,654.889 385.701,660.184 
		385.195,658.51 381.536,652.147 385.579,653.26 388.189,652.978 390.337,647.295 384.044,652.396 382.343,649.395 381.026,643.67 
		378.198,648.651 375.855,650.158 378.91,641.931 369.689,645.698 380.098,641.232 377.299,636.639 371.84,636.889 369.42,637.996 
		368.379,634.526 365.648,636.66 362.425,640.423 361.393,637.157 363.094,632.376 365.732,643.879 367.48,638.463 369.143,631.464 
		371.278,633.372 373.391,634.8 370.602,632.541 369.011,635.729 370.437,633.386 374.157,630.557 375.214,628.286 378.324,630.206 
		381.713,629.859 374.217,626.915 372.53,625.49 369.372,623.619 377.978,621.921 367.081,619.543 369.435,619.673 369.115,621.02 
		367.219,620.601 367.353,615.322 367.679,609.577 365.138,614.482 365.877,618.047 367.597,607.542 369.724,610.847 
		371.866,614.695 373.87,613.679 372.698,608.782 375.057,611.178 371.889,607.656 382.297,611.321 377.549,604.611 
		381.112,606.047 382.116,604.392 387.277,607.74 380.898,602.472 380.19,605.759 382.381,600.271 383.975,595.493 376.888,601.154 
		378.403,596.336 376.193,596.067 373.917,596.395 375.325,592.97 376.161,593.668 372.262,590.454 374.079,592.167 
		374.678,596.477 377.801,592.968 383.235,594.906 379.732,589.286 380.421,588.168 376.968,588.462 376.365,586.334 
		375.727,584.223 370.851,584.905 381.506,579.303 374.931,576.586 381.449,578.392 380.699,575.43 376.388,570.129 
		374.965,574.689 377.986,566.162 377.209,572.028 375.25,572.553 373.52,574.12 371.281,572.771 365.44,569.915 370.226,569.155 
		376.303,567.679 367.32,567.178 373.395,563.647 377.238,562.582 376.14,561.821 368.735,557.454 373.08,556.635 376.479,559.562 
		377.039,556.917 379.341,552.365 374.12,552.3 371.719,558.779 369.857,559.678 370.337,550.965 364.134,549.87 362.977,547.887 
		365.755,546.253 373.405,547.641 370.785,543.091 374.068,547.077 377.328,549.708 374.143,537.812 375.412,536.017 
		375.766,536.469 379.666,538.108 379.789,535.861 380.103,533.709 388.744,532.385 381.7,532.189 381.228,529.853 378.081,530.316 
		376.411,530.87 375.607,534.266 373.972,531.055 372.337,527.808 367.367,531.947 372.851,523.406 366.582,524.515 
		365.016,521.306 372.814,524.537 375.179,523.941 375.394,520.354 373.52,516.128 377.675,516.812 374.79,512.424 380.889,516.662 
		376.604,510.196 376.157,515.704 375.263,505.449 377.74,506.178 379.909,508.9 369.917,504.808 370.362,502.874 367.817,500.317 
		380.729,497.642 371.354,503.916 376.084,495.061 364.991,499.621 372.584,493.301 366.296,493.943 363.254,486.924 
		371.271,487.98 374.106,486.104 372.405,497.409 374.625,497.324 378.506,492.418 379.42,494.151 379.768,491.833 372.182,496.151 
		377.183,488.539 373.888,488.778 378.25,486.671 372.526,484.058 377.075,485.684 374.522,480.682 383.108,477.492 
		377.291,487.253 373.349,479.464 372.712,485.811 369.104,479.468 368.104,483.579 370.659,483.09 369.211,479.638 377.3,482.776 
		375.595,479.136 375.329,478.816 376.6,470.041 371.435,471.567 370.992,475.266 382.59,471.063 375.982,470.354 375.963,468.376 
		375.055,466.582 380.156,463.67 378.123,464.638 381.301,464.688 380.997,462.121 377.542,457.646 377.262,455.657 372.58,453.905 
		374.956,454.099 374.438,444.554 372.924,448.508 371.708,454.392 370.865,452.992 371.035,453.661 373.229,449.316 
		374.506,458.234 377.4,454.362 373.626,447.526 382.503,453.033 376.135,448.572 378.311,447.816 379.584,444.568 379.793,442.051 
		380.19,439.399 367.761,441.074 378.315,440.67 374.519,436.216 374.161,433.852 377.642,434.826 377.808,431.568 377.224,428.018 
		374.677,430.463 375.608,428.573 374.474,429.876 373.241,428.764 368.011,424.963 370.409,426.547 376.216,422.958 
		371.207,422.445 374.784,419.488 375.211,417.424 368.055,412.846 373.265,417.316 374.355,415.937 375.687,412.176 
		370.661,415.923 365.587,415.218 367.917,413.215 368.791,410.768 366.776,410.017 364.999,409.021 362.869,405.849 
		369.642,408.892 371.819,408.528 373.187,407.022 373.605,406.863 373.405,399.728 375.086,396.503 377.366,405.375 
		384.305,404.699 375.793,400.462 373.868,399.321 382.164,394.083 380.801,391.399 378.205,389.882 378.349,388.738 
		368.641,390.594 371.255,387.932 371.098,384.61 371.271,379.342 365.646,387.069 364.108,385.622 367.815,382.017 
		360.314,376.734 369.804,385.095 370.254,382.735 365.861,374.631 369.486,375.844 371.393,375.15 377.164,381.434 377.975,380.39 
		378.129,376.389 381.432,379.564 382.263,375.666 381.818,370.901 388.291,366.153 386.702,364.831 378.77,367.099 
		376.121,370.808 377.322,365.074 375.924,368.062 374.668,371.942 371.37,363.508 366.6,370.268 373.752,363.316 371.428,361.544 
		367.349,360.014 368.001,357.856 361.61,356.307 361.031,354.313 370.625,354.347 370.251,351.176 372.312,350.739 
		373.542,354.633 375.527,354.63 376.717,352.904 376.54,351.931 377.249,349.25 377.438,345.951 371.208,349.007 366.767,347.762 
		366.336,345.799 369.123,342.329 366.888,340.625 368.542,338.697 374.579,336.469 365.943,334.833 376.018,332.896 
		366.293,327.226 372.708,336.439 374.626,338.009 376.351,336.549 376.924,327.902 377.698,326.149 382.887,330.836 
		382.549,326.005 388.413,331.837 389.984,324.91 383.924,329.675 383.686,321.411 379.533,330.646 379.105,323.229 
		378.094,318.402 379.739,319.185 379.792,320.783 368.946,317.762 368.255,315.585 382.506,311.372 374.692,313.23 
		377.464,315.307 377.109,312.399 376.032,309.932 384.803,308.92 384.092,305.6 380.493,303.908 372.639,306.615 376.532,299.406 
		374.496,302.819 372.985,301.518 380.464,301.011 376.269,298.269 367.329,294.635 368.63,292.913 376.166,291.011 
		373.438,287.351 371.483,286.986 369.9,284.305 366.652,291.988 368.292,289.624 370.238,293.818 368.234,288.236 371.003,288.403 
		373.405,287.128 369.459,282.471 370.829,280.962 373.313,279.774 376.174,285.948 377.515,279.752 380.027,284.24 
		381.463,278.882 385.726,280.217 387.227,275.361 383.167,274.464 376.481,274.471 385.224,267.643 382.346,265.616 
		379.863,265.81 374.861,271.352 374.69,263.294 372.989,267.621 366.412,266.973 369.278,261.635 374.443,270.541 376.083,268.138 
		377.116,257.127 384.441,264.509 376.612,262.076 380.89,256.661 374.604,258.388 369.111,255.869 378.516,255.606 
		375.442,251.139 382.127,248.081 376.492,252.147 375.241,255.902 372.167,250.632 371.094,255.284 371.94,247.938 
		362.912,249.968 361.43,247.96 371.738,246.35 369.833,244.276 368.311,242.313 366.033,240.438 371.337,238.167 372.19,240.969 
		371.635,230.453 371.513,240.498 374.815,234.786 375.164,242.683 375.43,232.947 377.948,235.884 385.566,237.554 
		376.178,235.316 379.224,232.051 377.055,233.341 375.075,231.584 376.345,229.605 369.438,229.311 367.497,226.77 370.7,225.401 
		380.533,225.54 374.923,222.364 373.491,222.024 367.609,217.982 374.275,227.612 371.705,217.878 368.896,221.285 
		377.806,216.188 369.636,216.769 379.757,211.268 377.931,209.736 367.829,206.006 374.334,215.807 376.476,215.251 
		378.635,213.113 380.773,213.1 382.989,205.422 385.069,211.638 387.029,209.526 391.086,203.833 388.896,202.894 384.636,203.613 
		380.807,203.98 380.317,202.414 379.376,204.024 375.195,197.728 376.258,207.414 371.48,199.302 370.941,204.125 366.658,209.812 
		362.09,204.187 363.033,202.28 369.786,199.707 371.803,198.316 372.428,196.733 369.371,193.782 368.126,189.219 371.208,198.338 
		374.511,189.667 376.786,189.339 380.407,199.887 384.477,197.085 381.996,190.39 382.491,187.631 382.009,183.572 
		386.443,186.535 384.534,187.269 385.884,178.696 379.86,189.07 381.733,179.153 376.981,186.24 375.771,188.986 374.964,184.957 
		371.631,176.085 371.219,185.152 369.434,185.824 365.35,185.513 369.128,182.624 371.906,181.575 364.698,177.018 
		365.452,175.251 370.522,175.09 374.615,180.757 379.836,177.575 374.818,171.592 371.47,169.718 381.641,167.291 377.441,167.579 
		376.236,164.324 378.187,164.054 381.058,166.965 387.084,166.365 380.152,161.59 387.528,158.265 383.891,156.725 
		382.406,153.316 379.224,149.948 376.094,155.514 373.742,155.827 370.651,160.979 369.379,156.091 366.527,160.041 
		365.689,152.709 364.654,146.475 357.663,153.532 361.046,149.012 369.754,152.059 368.223,148.549 370.403,147.409 
		367.292,142.888 370.99,147.272 372.091,144.384 374.215,145.816 374.417,137.667 379.044,143.455 384.013,141.804 
		377.712,136.303 373.04,131.639 375.687,130.748 381.42,131.343 378.667,133.549 376.254,134.472 374.141,134.982 373.188,125.956 
		371.255,123.95 368.62,128.43 366.104,131.8 365.011,121.994 362.496,128.583 363.635,127.427 364.795,125.773 369.49,127.539 
		369.471,124.732 370.186,122.794 372.672,123.227 372.381,119.849 372.849,116.628 375.689,119.272 377.752,118.312 
		379.222,111.145 381.466,112.048 383.21,116.474 384.944,114.955 380.42,114.613 382.739,111.85 375.875,112.326 377.831,113.276 
		379.439,102.264 376.691,105.881 376.233,101.958 372.558,106.966 368.965,105.22 375.062,109.321 372.315,102.808 373.2,102.502 
		374.239,100.476 373.626,98.702 378.124,96.13 373.936,95.42 374.227,89.702 377.548,98.298 376.274,99.59 376.662,98.092 
		374.105,91.961 374.283,91.976 367.054,92.188 377.16,90.648 378.987,88.706 375.756,84.499 366.563,91.065 365.544,88.368 
		359.597,82.235 369.919,88.804 370.014,78.618 371.836,77.202 377.592,84.53 372.114,77.799 369.564,74.66 375.322,74.528 
		380.092,75.583 383.331,75.748 375.271,74.654 378.384,72.488 376.067,70.152 373.647,66.352 370.933,72.661 376.954,68.444 
		364.324,68.269 372.722,64.282 371.27,62.295 371.811,59.637 373.971,58.831 361.852,55.43 363.841,53.582 373.932,55.84 
		369.254,48.317 372.473,50.182 371.569,48.603 378.932,49.008 380.32,49.213 372.845,41.624 379.955,41.463 375.912,41.87 
		373.505,39.197 372.302,43.306 371.423,49.254 365.194,47.468 373.062,42.632 361.864,39.258 374.816,38.934 371.466,37.614 
		372.412,36.225 371.95,30.254 376.131,35.28 377.909,33.735 378.728,31.615 375.12,33.364 380.27,26.338 378.092,25.692 
		376.21,24.785 371.964,27.369 368.264,30.055 370.755,23.532 374.425,19.604 374.292,18.725 365.22,17.824 366.838,15.897 
		369.646,13.972 366.061,12.022 	"/>
</g>
<g>
	<polyline class="st0" points="893.5,757.82 895.545,757.488 894.927,753.653 896.929,753.127 893.545,746.218 897.728,748.318 
		906.08,747.79 897.758,745.978 892.617,747.493 899.676,739.573 900.562,741.251 891.158,735.931 892.718,734.563 896.411,734.867 
		894.382,733.701 892.599,734.423 904.758,728.954 899.688,726.337 895.507,723.284 894.121,727.425 892.738,731.631 
		890.513,727.695 884.729,732.344 890.288,727.5 884.033,723.992 886.369,721.381 896.777,724.851 893.963,720.825 890.121,712.635 
		895.087,719.842 894.582,714.45 900.065,717.411 895.151,713.435 895.764,711.763 897.276,714.377 898.414,715.206 
		897.178,718.994 892.59,709.462 891.259,712.887 893.867,709.48 888.047,711.463 891.905,710.692 887.688,707.062 889.994,704.01 
		895.038,711.115 896.529,706.074 897.386,703.794 897.592,701.646 890.829,700.111 892.148,699.008 892.57,694.846 
		898.754,694.401 895.789,690.4 893.95,687.062 903.028,687.978 898.644,686.812 892.126,690.397 900.318,681.938 889.861,686.633 
		893.757,682.435 898.404,675.747 885.872,676.197 893.86,678.242 895.899,675.217 897.883,674.791 897.661,675.151 
		903.021,677.761 906.729,677.196 904.485,674.518 903.014,671.452 904.292,664.988 899.117,668.584 900.252,662.322 
		893.762,670.005 891.448,670.371 890.422,667.389 888.396,666.215 893.307,657.519 886.716,662.001 887.284,661.016 
		887.54,661.281 889.205,666.6 891.977,656.915 893.384,665.747 895.254,668.346 900.367,665.737 892.741,656.587 893.235,654.688 
		900.974,656.389 897.728,650.598 899.33,649.347 906.369,653.368 902.746,647.029 902.816,650.453 906.014,643.256 903.45,646.365 
		900.319,653.482 899.297,645.673 897.259,645.03 891.342,650.656 891.232,645.511 888.216,643.952 890.341,643.376 
		893.483,633.683 890.518,636.609 888.352,636.881 886.254,636.908 884.467,635.894 888.951,638.197 883.678,630.551 
		886.35,642.696 887.743,630.61 890.074,636.224 891.883,631.959 894.1,635.365 901.846,640.83 899.461,633.661 890.222,633.574 
		901.049,629.238 898.396,627.757 895.158,627.379 899.302,627.522 894.814,624.609 893.12,625.574 887.011,623.513 
		900.147,621.973 893.571,619.744 899.092,614.109 891.062,617.994 887.595,621.327 889.485,611.853 884.127,619.68 
		885.584,614.407 886.604,619.671 888.596,618.389 890.611,617.9 892.567,615.421 894.4,608.598 893.999,609.731 890.949,609.075 
		903.888,612.628 898.929,608.319 898.485,604.921 903.858,608.536 907.369,609.9 900.875,599.211 905.16,602.479 905.041,600.741 
		905.974,596.766 903.532,596.843 900.598,597.509 898.572,597.421 895.993,599.918 893.286,602.128 893.351,594.746 
		895.328,593.429 894.495,592.25 893.537,596.736 897.648,587.916 899.135,595.014 904.791,595.697 898.229,587.312 
		904.207,588.225 902.062,585.549 895.286,587.494 901.595,580.797 899.27,579.795 900.771,579.317 902.209,580.91 894.627,573.477 
		901.762,575.682 895.101,568.841 895.67,574.672 900.215,573.174 897.306,569.396 895.885,572.35 894.168,573.98 893.105,571.298 
		898.107,572.463 893.419,569.688 885.843,568.039 892.52,565.989 892.861,563.967 897.185,562.559 897.011,561.877 
		891.641,558.119 890.655,555.454 892.511,555.332 894.748,554.31 898.169,552.618 894.246,558.037 892.707,555.596 
		891.672,547.953 888.831,552.679 895.451,550.821 895.383,548.937 886.304,546.24 895.188,548.463 890.453,540.221 
		895.695,549.768 892.41,536.356 900.083,548.683 900.57,545.274 903.635,543.732 905.315,540.703 896.429,533.753 901.141,533.896 
		902.166,533.443 902.133,532.449 901.966,529.79 898.568,530.518 899.3,525.973 896.281,534.358 895.273,520.602 892.755,532.202 
		887.061,533.387 895.886,522.029 894.938,520.019 880.754,520.643 891.039,521.882 886.844,514.188 890.018,514.951 
		898.424,519.121 892.408,512.6 891.507,508.497 900.68,515.501 892.282,510.591 897.943,504.372 896.037,504.488 898.858,505.872 
		892.104,507.145 889.021,504.481 896.608,504.025 896.502,501.974 891.441,501.336 897.438,492.492 893.842,497.674 
		889.847,497.525 887.728,496.08 889.841,492.506 893.973,494.052 890.734,491.513 893.464,489.944 892.418,499.349 
		898.147,489.062 897.271,497.984 894.387,490.563 902.672,489.727 895.959,493.218 897.962,488.443 898.418,485.13 
		899.476,486.646 895.789,486.467 893.604,481.812 898.682,483.928 897.687,482.096 897.272,484.266 894.491,481.44 
		892.414,481.626 891.99,488.901 890.434,482.378 891.695,483.337 890.361,479.963 891.039,477.975 894.271,477.75 896.775,480.452 
		895.997,475.847 902.096,479.725 894.998,474.626 894.246,472.797 900.177,469.68 889.964,469.659 901.266,464.694 
		887.437,463.989 894.566,461.463 896.145,460.311 898.671,459.867 892.509,456.374 893.212,456.234 897.507,453.386 
		902.683,445.655 896.629,454.251 893.283,446.449 892.63,455.95 885.158,450.14 891.917,450.756 893.284,458.32 895.721,450.516 
		895.64,448.18 898.386,451.182 894.671,445.409 903.906,448.824 894.611,450.849 896.938,446.871 895.426,445.546 902.281,438.424 
		888.263,441.085 897.934,440.024 895.384,436.328 896.777,435.031 903.647,432.929 897.097,434.765 896.548,431.128 
		893.046,433.256 894.62,429.635 890.097,428.683 897.031,433.919 893.63,426.789 899.947,424.027 888.695,425.287 887.836,423.596 
		886.461,422.048 886.416,420.118 892.829,417.44 895.186,412.612 897.353,420.126 892.696,418.304 895.953,414.6 895.785,412.485 
		897.582,408.002 889.953,410.282 887.088,410.386 890.773,403.9 883.237,405.82 885.013,401.441 889.58,404.434 888.354,399.286 
		889.871,394.614 893.953,397.04 895.911,399.454 897.661,397.559 904.89,404.635 897.786,399.936 897.53,398.126 893.435,397.852 
		901.546,391.354 896.707,391.38 897.572,389.336 892.77,389.178 896.546,383.437 891.944,384.238 890.891,381.722 890.223,378.329 
		888.207,377.948 877.441,384.199 889.985,387.389 890.361,384.948 887.235,378.351 891.034,379.955 893.252,380.254 
		894.501,379.388 892.188,371.563 895.291,372.942 899.16,377.394 899.354,371.681 900.709,369.279 909.977,374.083 
		899.099,371.746 907.818,364.583 905.993,363.393 901.277,361.721 897.736,363.467 895.398,360.789 894.014,363.887 
		892.903,368.663 890.64,366.129 885.617,364.893 896.683,360.727 891.083,359.622 884.057,358.208 885.916,356.033 
		887.296,353.891 884.557,347.198 891.931,345.997 893.48,348.211 894.59,352.729 896.217,354.577 903.403,356.995 903.663,348.426 
		895.357,350.649 895.753,348.053 891.691,349.158 898.514,343.468 887.565,345.586 888.338,342.717 887.352,340.654 
		886.789,339.015 891.45,336.708 896.87,334.802 892.704,332.91 894.266,333.717 892.615,324.53 894.643,327.772 896.706,331.556 
		898.443,330.486 897.366,324.411 901.255,326.86 900.934,322.054 908.375,330.601 904.402,325.469 905.727,324.657 
		903.602,324.831 902.896,318.653 898.788,327.683 896.494,328.593 895.634,322.599 900.456,320.782 891.779,317.942 
		896.623,316.228 896.555,314.06 895.479,312.917 899.121,318.432 902.223,313.643 898.454,310.421 900.448,308.628 
		904.086,305.701 899.734,304.12 903.209,298.158 896.932,302.257 895.204,302.526 890.485,303.572 890.968,299.109 891.94,297.333 
		887.926,294.619 901.017,295.102 893.82,293.208 894.125,287.3 891.807,289.208 888.813,295.323 886.366,298.009 890.507,289.227 
		886.821,288.879 888.32,287.52 889.14,285.336 891.914,285.451 886.909,281.001 891.83,281.108 896.529,283.35 895.68,275.243 
		898.414,281.756 900.873,285.763 902.712,284.067 901.197,277.268 903.944,276.731 907.4,273.235 905.436,271.609 904.263,268.749 
		900.125,269.298 894.553,273.414 894.474,274.255 895.413,265.418 890.516,270.89 887.361,266.903 889.707,261.494 
		894.944,268.032 896.323,261.928 898.466,266.639 906.95,265.136 894.891,263.7 892.84,262.566 891.885,260.687 894.237,255.843 
		894.752,252.898 895.291,250.633 903.509,247.719 896.954,251.07 894.753,250.122 893.318,252.968 891.73,255.07 884.865,257.193 
		885.67,250.039 888.88,248.19 883.718,246.055 893.363,244.25 887.294,242.401 887,240.422 895.055,238.011 893.57,241.808 
		889.949,241.333 892.767,237.85 893.932,241.979 896.943,237.622 901.759,244.435 898.104,235.599 895.746,231.835 905.73,230.811 
		900.232,226.809 898.208,225.811 895.459,236.272 890.529,234.579 887.346,228.679 900.508,229.582 889.823,225.045 
		900.449,225.366 889.544,225.171 895.079,219.21 889.992,219.23 894.49,214.998 894.069,219.083 890.419,221.004 900.45,215.537 
		899.05,213.865 892.81,213.803 892.957,211.615 894.269,210.515 895.146,202.705 897.192,211.592 899.355,209.056 901.434,215.016 
		903.648,207.427 905.746,211.884 905.233,208.269 911.558,204 900.907,209.855 906.202,202.901 900.175,205.034 902.47,197.748 
		899.351,201.875 896.908,200.879 895.983,204.503 891.441,197.113 890.609,201.042 891.651,201.828 883.851,204.065 
		882.332,202.438 883.555,200.496 895.48,198.532 889.623,195.945 890.455,193.874 890.437,191.547 891.919,198.082 
		894.409,195.989 896.295,198.814 900.414,197.211 900.391,190.766 902.036,189.542 901.008,184.763 903.393,184.507 
		914.306,186.237 906.909,182.915 903.142,187.486 901.674,186.161 901.051,182.652 897.693,186.159 897.712,176.927 
		895.018,181.117 894.396,188.869 890.897,179.018 890.455,187.92 886.973,184.752 890.137,182.739 892.284,181.469 894.649,180.27 
		883.736,174.41 892.999,177.169 892.567,171.755 892.326,170.982 894.396,171.637 897.712,169.492 900.648,167.358 
		897.008,166.799 898.181,168.722 899.859,167.501 901.034,164.527 896.844,159.928 898.797,161.92 904.943,158.794 
		899.987,157.469 903.098,153.304 899.69,151.353 896.188,159.364 894.748,153.855 892.966,151.847 891.656,147.163 888.245,154.23 
		885.339,158.468 883.729,155.443 881.483,152.175 881.942,149.151 882.627,147.064 883.7,145.221 890.938,147.316 891.666,147.426 
		891.685,147.316 893.688,146.945 893.239,139.266 894.83,135.851 899.893,143.685 904.029,141.461 896.803,135.483 
		896.509,133.079 906.003,135.723 906.733,128.774 900.739,126.51 898.684,125.63 894.857,134.741 893.298,131.226 891.502,127.949 
		889.901,122.865 886.771,131.929 884.716,131.006 887.184,126.803 879.488,122.752 889.862,130.023 890.166,127.534 
		885.075,119.815 888.876,120.581 890.616,119.678 897.148,125.149 896.494,124.663 896.545,121.118 899.069,124.983 
		900.88,121.389 902.538,116.157 910.454,121.668 910.301,113.304 902.129,114.249 896.501,114.293 902.248,110.315 
		900.146,110.884 898.71,114.699 897.398,105.634 893.035,112.706 896.075,103.312 894.352,106.015 893.166,103.567 
		894.885,103.832 888.352,103.361 887.646,101.605 898.128,98.108 893.362,96.976 892.562,93.996 896.092,96.49 897.793,95.808 
		898.838,95.187 897.132,94.445 894.825,92.671 895.063,91.862 890.082,92.301 886.608,90.106 887.015,88.096 891.222,87.417 
		888.893,88.55 887.979,85.691 891.289,82.691 888.396,77.603 892.359,87.097 892.23,75.751 898.856,85.25 902.816,81.767 
		902.296,79.43 895.134,74.025 895.74,71.525 902.12,74.223 899.877,71.855 898.533,64.668 896.62,68.287 895.013,76.463 
		894.381,69.271 885.273,70.492 891.955,67.118 895.844,63.468 895.481,60.409 893.466,59.116 881.987,60.029 881.943,55.271 
		896.67,56.864 889.945,52.518 892.277,52.472 893.201,50.269 893,48.951 900.677,49.272 900.802,49.081 899.252,45.416 
		892.188,45.168 896.297,40.226 895.058,44.099 892.976,43.274 889.829,36.484 891.107,42.096 882.762,41.243 883.961,39.437 
		891.771,38.463 893.913,38.81 894.768,38.654 897.143,39.817 895.932,31.887 899.155,35.921 905.863,34.175 899.352,30.268 
		899.523,27.58 898.734,25.725 893.252,27.955 893.06,26.572 892.69,25.22 897.589,20.532 891.341,21.439 895.127,18.691 
		890.087,17.841 892.95,15.918 895.093,13.99 891.559,12.042 	"/>
</g>
</svg>
