<?xml version="1.0" encoding="utf-8"?>
<!-- Generator: Adobe Illustrator 15.0.0, SVG Export Plug-In . SVG Version: 6.00 Build 0)  -->
<!DOCTYPE svg PUBLIC "-//W3C//DTD SVG 1.1//EN" "http://www.w3.org/Graphics/SVG/1.1/DTD/svg11.dtd">
<svg version="1.1" id="Layer_1" xmlns="http://www.w3.org/2000/svg" xmlns:xlink="http://www.w3.org/1999/xlink" x="0px" y="0px"
	 width="1024px" height="768px" viewBox="0 0 1024 768" style="enable-background:new 0 0 1024 768;" xml:space="preserve">
<style type="text/css">
<![CDATA[
	.st0{fill:none;stroke:#FF5F9F;stroke-miterlimit:10;}
]]>
</style>
<polyline class="st0" points="241.176,754.153 245.545,750.828 249.708,747.284 244.947,741.126 249.986,734.713 248.342,728.649 
	239.354,729.576 240.619,722.793 243.638,718.104 247.388,718.019 250.127,711.462 239.827,714.056 242.509,706.465 
	246.637,705.701 248.102,699.459 246.289,694.908 250.229,688.251 246.511,684.262 246.532,683.352 242.356,678.311 250.24,678.487 
	252.606,671.804 247.299,668.07 242.106,665.558 236.028,660.252 248.311,661.156 250.801,655.94 257.834,648.7 245.328,646.934 
	243.956,640.599 232.464,637.146 246.658,636.395 244.587,626.616 247.201,625.582 243.435,625.717 243.712,617.733 
	234.878,614.034 247.048,613.677 249.401,608.322 256.438,602.48 249.408,596.637 243.133,595.204 243.811,590.919 248.712,592.23 
	252.371,588.183 246.549,579.363 252.213,570.722 242.32,572.907 243.403,567.81 241.978,562.388 243.75,556.453 243.989,556.252 
	246.982,552.843 239.956,552.163 240.622,544.702 245.635,542.937 250.828,540.424 254.622,533.153 248.96,527.758 241.684,527.325 
	238.327,521.596 243.044,517.235 246.239,512.725 249.749,510.039 244.118,509.489 246.129,499.771 243.404,498.482 239.377,490.46 
	251.128,494.504 243.95,486.926 249.171,481.328 239.111,483.681 244.86,475.373 248.119,476.093 246.286,466.553 245.068,463.817 
	249.551,457.839 248.712,450.971 240.39,452.267 247.925,452.79 251.567,448.725 246.016,440.709 249.823,434.457 244.454,432.119 
	242.568,429.156 245.582,427.338 242.522,416.571 246.422,417.601 243.605,417.565 241.887,411.577 236.334,406.052 
	242.799,401.445 250.144,401.085 247.503,394.493 245.601,392.462 243.358,386.998 234.263,382.945 241.392,376.93 246.292,374.123 
	254.108,371.388 250.296,364.658 241.059,366.188 239.921,359.831 239.309,351.737 248.861,353.583 245.973,348.273 
	244.519,347.326 242.364,341.773 241.708,336.721 241.689,331.009 248.928,330.541 258.161,325.174 246.231,322.505 
	246.934,314.096 245.708,313.609 248.388,314.598 250.076,308.58 249.114,302.057 244.066,301.561 245.838,292.081 236.019,290.507 
	242.243,285.345 244.653,280.048 254.641,278.953 251.794,270.724 247.483,267.328 244.356,267.392 243.271,263.264 
	250.471,262.756 245.789,255.836 249.245,250.163 239.587,252.114 239.854,244.286 239.443,236.327 249.291,238.468 
	252.415,232.733 244.09,232.209 246.367,222.226 243.115,221.175 247.248,221.023 243.411,209.479 258.377,209.629 251.779,201.413 
	240.31,205.174 239.498,198.068 240.955,191.621 249.75,192.708 257.957,186.52 247.597,182.485 238.386,183.988 241.554,174.958 
	246.042,173.599 245.715,165.565 253.21,163.406 251.863,155.109 245.175,154.091 232.686,151.856 238.43,142.878 244.105,140.846 
	247.873,140.293 252.465,131.399 246.03,130.126 233.273,128.747 240.228,121.566 244.58,118.211 255.262,117.19 252.208,108.546 
	245.286,107.762 242.542,105.63 245.898,104.128 244.479,95.002 249.779,94.077 243.189,94.456 243.58,86.358 237.735,82.525 
	245.816,80.937 248.001,75.415 251.585,70.97 242.983,71.553 241.889,64.941 238.938,59.415 240.738,52.75 245.666,49.971 
	245.433,47.855 249.077,42.351 239.7,44.021 240.675,36.304 244.656,33.559 250.777,31.973 244.478,24.746 243.364,24.955 
	240.837,19.774 240.868,12.037 "/>
<polyline class="st0" points="761.855,754.153 766.225,750.828 770.388,747.284 765.627,741.126 770.666,734.713 769.021,728.649 
	760.033,729.576 761.299,722.793 764.317,718.104 768.068,718.019 770.807,711.462 760.506,714.056 763.189,706.465 
	767.316,705.701 768.781,699.459 766.969,694.908 770.908,688.251 767.19,684.262 767.212,683.352 763.035,678.311 770.92,678.487 
	773.286,671.804 767.979,668.07 762.786,665.558 756.707,660.252 768.99,661.156 771.48,655.94 778.514,648.7 766.008,646.934 
	764.636,640.599 753.144,637.146 767.338,636.395 765.267,626.616 767.881,625.582 764.115,625.717 764.392,617.733 
	755.559,614.034 767.729,613.677 770.08,608.322 777.117,602.48 770.088,596.637 763.812,595.204 764.49,590.919 769.392,592.23 
	773.051,588.183 767.229,579.363 772.893,570.722 763,572.907 764.083,567.81 762.657,562.388 764.43,556.453 764.668,556.252 
	767.662,552.843 760.635,552.163 761.302,544.702 766.314,542.937 771.508,540.424 775.302,533.153 769.641,527.758 
	762.363,527.325 759.007,521.596 763.724,517.235 766.919,512.725 770.429,510.039 764.798,509.489 766.809,499.771 
	764.084,498.482 760.057,490.46 771.808,494.504 764.629,486.926 769.851,481.328 759.791,483.681 765.539,475.373 768.799,476.093 
	766.966,466.553 765.748,463.817 770.23,457.839 769.392,450.971 761.069,452.267 768.605,452.79 772.246,448.725 766.695,440.709 
	770.503,434.457 765.133,432.119 763.248,429.156 766.262,427.338 763.201,416.571 767.102,417.601 764.285,417.565 
	762.566,411.577 757.014,406.052 763.479,401.445 770.824,401.085 768.184,394.493 766.281,392.462 764.038,386.998 
	754.942,382.945 762.071,376.93 766.971,374.123 774.788,371.388 770.976,364.658 761.738,366.188 760.601,359.831 759.988,351.737 
	769.541,353.583 766.652,348.273 765.199,347.326 763.044,341.773 762.387,336.721 762.369,331.009 769.607,330.541 
	778.841,325.174 766.911,322.505 767.613,314.096 766.387,313.609 769.067,314.598 770.756,308.58 769.794,302.057 764.746,301.561 
	766.518,292.081 756.698,290.507 762.923,285.345 765.333,280.048 775.32,278.953 772.474,270.724 768.162,267.328 765.036,267.392 
	763.951,263.264 771.15,262.756 766.469,255.836 769.925,250.163 760.268,252.114 760.533,244.286 760.123,236.327 769.971,238.468 
	773.094,232.733 764.77,232.209 767.047,222.226 763.795,221.175 767.928,221.023 764.091,209.479 779.057,209.629 772.459,201.413 
	760.989,205.174 760.178,198.068 761.635,191.621 770.43,192.708 778.637,186.52 768.276,182.485 759.066,183.988 762.234,174.958 
	766.723,173.599 766.395,165.565 773.891,163.406 772.543,155.109 765.854,154.091 753.365,151.856 759.109,142.878 
	764.785,140.846 768.553,140.293 773.145,131.399 766.71,130.126 753.953,128.747 760.907,121.566 765.26,118.211 775.941,117.19 
	772.889,108.546 765.965,107.762 763.221,105.63 766.578,104.128 765.159,95.002 770.459,94.077 763.869,94.456 764.26,86.358 
	758.414,82.525 766.496,80.937 768.681,75.415 772.266,70.97 763.663,71.553 762.568,64.941 759.617,59.415 761.418,52.75 
	766.346,49.971 766.113,47.855 769.756,42.351 760.379,44.021 761.355,36.304 765.336,33.559 771.457,31.973 765.158,24.746 
	764.043,24.955 761.517,19.774 761.547,12.037 "/>
<g>
	<polyline class="st0" points="360.537,754.83 362.169,753.955 359.395,747.286 365.78,752.553 367.277,751.409 366.709,747.93 
		367.28,747.189 368.358,744.982 370.615,740.777 365.078,742.597 369.531,741.244 363.217,738.088 364.167,736.241 
		370.471,738.597 362.614,733.488 373.838,731.189 360.819,732.547 366.3,729.783 365.482,729.699 363.508,728.139 362.492,735.906 
		360.579,734.996 357.346,730.145 365.428,728.587 356.101,724.507 364.367,724.622 357.06,719.036 365.865,722.493 
		361.683,716.666 364.491,723.865 365.057,716.222 362.344,714.473 367.249,714.598 361.828,710.405 370.752,709.288 
		368.514,718.325 365.434,714.794 363.495,715.785 359.065,706.907 353.552,719.253 360.926,712.723 357.731,709.459 
		358.888,707.73 364.273,709.962 363.204,704.919 366.824,707.092 364.535,703.286 368.278,701.968 364.897,699.656 
		372.195,694.731 363.552,694.878 370.896,696.076 362.271,688.725 362.943,686.873 362.22,688.826 363.16,691.281 367.448,684.798 
		361.292,686.472 362.827,684.701 363.325,682.222 365.308,677.744 364.924,679.62 363.013,685.478 365.144,678.282 
		367.164,676.232 371.754,682.699 367.188,675.939 366.261,673.731 371.649,673.756 367.68,673.324 365.508,676.5 365.43,672.85 
		365.218,669.629 362.839,670.492 365.431,660.72 360.217,666.663 358.85,664.907 354.897,666.369 360.008,657.441 356.62,661.024 
		356.665,663.835 359.033,659.613 360.635,665.792 362.9,662.984 364.813,665 370.453,667.141 373.726,662.16 362.971,654.889 
		375.693,660.184 375.188,658.51 371.528,652.147 375.571,653.26 378.182,652.978 380.329,647.295 374.036,652.396 372.335,649.395 
		371.019,643.67 368.19,648.651 365.848,650.158 368.902,641.931 359.682,645.698 370.09,641.232 367.292,636.639 361.832,636.889 
		359.413,637.996 358.372,634.526 355.641,636.66 352.417,640.423 351.385,637.157 353.086,632.376 355.725,643.879 
		357.472,638.463 359.135,631.464 361.27,633.372 363.383,634.8 360.594,632.541 359.003,635.729 360.429,633.386 364.149,630.557 
		365.207,628.286 368.316,630.206 371.705,629.859 364.209,626.915 362.522,625.49 359.364,623.619 367.97,621.921 357.073,619.543 
		359.427,619.673 359.107,621.02 357.211,620.601 357.345,615.322 357.671,609.577 355.13,614.482 355.869,618.047 357.589,607.542 
		359.716,610.847 361.858,614.695 363.862,613.679 362.69,608.782 365.049,611.178 361.881,607.656 372.29,611.321 367.541,604.611 
		371.104,606.047 372.108,604.392 377.27,607.74 370.891,602.472 370.183,605.759 372.373,600.271 373.967,595.493 366.88,601.154 
		368.396,596.336 366.186,596.067 363.909,596.395 365.317,592.97 366.153,593.668 362.254,590.454 364.071,592.167 364.67,596.477 
		367.793,592.968 373.228,594.906 369.725,589.286 370.413,588.168 366.96,588.462 366.357,586.334 365.719,584.223 
		360.843,584.905 371.498,579.303 364.923,576.586 371.441,578.392 370.691,575.43 366.38,570.129 364.957,574.689 367.979,566.162 
		367.201,572.028 365.243,572.553 363.512,574.12 361.273,572.771 355.432,569.915 360.218,569.155 366.295,567.679 
		357.312,567.178 363.387,563.647 367.23,562.582 366.132,561.821 358.728,557.454 363.072,556.635 366.472,559.562 
		367.031,556.917 369.333,552.365 364.112,552.3 361.711,558.779 359.85,559.678 360.329,550.965 354.126,549.87 352.969,547.887 
		355.748,546.253 363.397,547.641 360.777,543.091 364.061,547.077 367.32,549.708 364.135,537.812 365.404,536.017 
		365.758,536.469 369.658,538.108 369.781,535.861 370.095,533.709 378.736,532.385 371.692,532.189 371.22,529.853 
		368.073,530.316 366.403,530.87 365.599,534.266 363.964,531.055 362.33,527.808 357.359,531.947 362.843,523.406 356.574,524.515 
		355.008,521.306 362.806,524.537 365.171,523.941 365.386,520.354 363.512,516.128 367.667,516.812 364.782,512.424 
		370.881,516.662 366.596,510.196 366.149,515.704 365.255,505.449 367.732,506.178 369.901,508.9 359.91,504.808 360.354,502.874 
		357.81,500.317 370.722,497.642 361.347,503.916 366.077,495.061 354.983,499.621 362.577,493.301 356.289,493.943 
		353.246,486.924 361.263,487.98 364.099,486.104 362.397,497.409 364.617,497.324 368.498,492.418 369.413,494.151 369.76,491.833 
		362.174,496.151 367.175,488.539 363.88,488.778 368.242,486.671 362.519,484.058 367.067,485.684 364.514,480.682 373.1,477.492 
		367.283,487.253 363.341,479.464 362.705,485.811 359.096,479.468 358.097,483.579 360.651,483.09 359.204,479.638 
		367.292,482.776 365.587,479.136 365.321,478.816 366.592,470.041 361.427,471.567 360.984,475.266 372.583,471.063 
		365.974,470.354 365.956,468.376 365.047,466.582 370.148,463.67 368.115,464.638 371.293,464.688 370.989,462.121 
		367.534,457.646 367.254,455.657 362.572,453.905 364.948,454.099 364.43,444.554 362.916,448.508 361.7,454.392 360.857,452.992 
		361.027,453.661 363.222,449.316 364.498,458.234 367.392,454.362 363.619,447.526 372.496,453.033 366.127,448.572 
		368.303,447.816 369.576,444.568 369.785,442.051 370.182,439.399 357.753,441.074 368.308,440.67 364.511,436.216 
		364.153,433.852 367.634,434.826 367.8,431.568 367.216,428.018 364.669,430.463 365.601,428.573 364.466,429.876 363.233,428.764 
		358.003,424.963 360.401,426.547 366.208,422.958 361.199,422.445 364.776,419.488 365.204,417.424 358.047,412.846 
		363.257,417.316 364.348,415.937 365.679,412.176 360.653,415.923 355.579,415.218 357.909,413.215 358.783,410.768 
		356.768,410.017 354.991,409.021 352.861,405.849 359.634,408.892 361.812,408.528 363.179,407.022 363.597,406.863 
		363.397,399.728 365.078,396.503 367.358,405.375 374.297,404.699 365.785,400.462 363.86,399.321 372.156,394.083 
		370.793,391.399 368.197,389.882 368.341,388.738 358.633,390.594 361.247,387.932 361.09,384.61 361.263,379.342 355.639,387.069 
		354.1,385.622 357.807,382.017 350.306,376.734 359.796,385.095 360.246,382.735 355.853,374.631 359.479,375.844 361.385,375.15 
		367.156,381.434 367.967,380.39 368.122,376.389 371.424,379.564 372.255,375.666 371.811,370.901 378.283,366.153 
		376.694,364.831 368.762,367.099 366.113,370.808 367.314,365.074 365.916,368.062 364.66,371.942 361.362,363.508 
		356.592,370.268 363.744,363.316 361.42,361.544 357.341,360.014 357.994,357.856 351.602,356.307 351.023,354.313 
		360.617,354.347 360.243,351.176 362.305,350.739 363.534,354.633 365.52,354.63 366.709,352.904 366.532,351.931 367.241,349.25 
		367.43,345.951 361.2,349.007 356.759,347.762 356.328,345.799 359.115,342.329 356.88,340.625 358.534,338.697 364.571,336.469 
		355.936,334.833 366.01,332.896 356.285,327.226 362.7,336.439 364.618,338.009 366.343,336.549 366.916,327.902 367.69,326.149 
		372.879,330.836 372.542,326.005 378.405,331.837 379.977,324.91 373.916,329.675 373.678,321.411 369.525,330.646 
		369.097,323.229 368.086,318.402 369.731,319.185 369.784,320.783 358.938,317.762 358.247,315.585 372.498,311.372 
		364.685,313.23 367.456,315.307 367.101,312.399 366.024,309.932 374.795,308.92 374.084,305.6 370.485,303.908 362.631,306.615 
		366.524,299.406 364.488,302.819 362.978,301.518 370.456,301.011 366.261,298.269 357.321,294.635 358.623,292.913 
		366.158,291.011 363.43,287.351 361.475,286.986 359.893,284.305 356.644,291.988 358.284,289.624 360.23,293.818 358.227,288.236 
		360.995,288.403 363.397,287.128 359.451,282.471 360.821,280.962 363.305,279.774 366.167,285.948 367.507,279.752 
		370.019,284.24 371.456,278.882 375.718,280.217 377.219,275.361 373.159,274.464 366.474,274.471 375.216,267.643 
		372.338,265.616 369.855,265.81 364.853,271.352 364.683,263.294 362.981,267.621 356.404,266.973 359.27,261.635 364.435,270.541 
		366.075,268.138 367.108,257.127 374.433,264.509 366.604,262.076 370.882,256.661 364.597,258.388 359.104,255.869 
		368.508,255.606 365.435,251.139 372.119,248.081 366.484,252.147 365.233,255.902 362.159,250.632 361.086,255.284 
		361.933,247.938 352.904,249.968 351.422,247.96 361.73,246.35 359.825,244.276 358.303,242.313 356.025,240.438 361.33,238.167 
		362.182,240.969 361.627,230.453 361.505,240.498 364.808,234.786 365.156,242.683 365.422,232.947 367.94,235.884 
		375.559,237.554 366.17,235.316 369.216,232.051 367.047,233.341 365.067,231.584 366.337,229.605 359.43,229.311 357.489,226.77 
		360.692,225.401 370.525,225.54 364.915,222.364 363.483,222.024 357.602,217.982 364.267,227.612 361.697,217.878 
		358.889,221.285 367.798,216.188 359.628,216.769 369.75,211.268 367.923,209.736 357.821,206.006 364.326,215.807 
		366.468,215.251 368.627,213.113 370.765,213.1 372.981,205.422 375.061,211.638 377.021,209.526 381.079,203.833 378.889,202.894 
		374.628,203.613 370.799,203.98 370.309,202.414 369.368,204.024 365.188,197.728 366.25,207.414 361.472,199.302 360.933,204.125 
		356.65,209.812 352.082,204.187 353.025,202.28 359.778,199.707 361.795,198.316 362.42,196.733 359.363,193.782 358.119,189.219 
		361.201,198.338 364.503,189.667 366.778,189.339 370.399,199.887 374.469,197.085 371.988,190.39 372.483,187.631 
		372.001,183.572 376.435,186.535 374.526,187.269 375.876,178.696 369.853,189.07 371.725,179.153 366.973,186.24 365.763,188.986 
		364.957,184.957 361.623,176.085 361.211,185.152 359.426,185.824 355.342,185.513 359.121,182.624 361.898,181.575 
		354.69,177.018 355.444,175.251 360.515,175.09 364.607,180.757 369.828,177.575 364.811,171.592 361.462,169.718 371.633,167.291 
		367.434,167.579 366.228,164.324 368.179,164.054 371.05,166.965 377.076,166.365 370.145,161.59 377.52,158.265 373.883,156.725 
		372.398,153.316 369.216,149.948 366.086,155.514 363.734,155.827 360.644,160.979 359.372,156.091 356.519,160.041 
		355.682,152.709 354.646,146.475 347.655,153.532 351.038,149.012 359.746,152.059 358.215,148.549 360.395,147.409 
		357.284,142.888 360.982,147.272 362.083,144.384 364.207,145.816 364.409,137.667 369.037,143.455 374.005,141.804 
		367.704,136.303 363.032,131.639 365.679,130.748 371.412,131.343 368.659,133.549 366.247,134.472 364.133,134.982 
		363.18,125.956 361.247,123.95 358.612,128.43 356.097,131.8 355.003,121.994 352.488,128.583 353.627,127.427 354.787,125.773 
		359.482,127.539 359.463,124.732 360.178,122.794 362.664,123.227 362.374,119.849 362.841,116.628 365.681,119.272 
		367.744,118.312 369.214,111.145 371.458,112.048 373.203,116.474 374.937,114.955 370.412,114.613 372.731,111.85 
		365.867,112.326 367.823,113.276 369.431,102.264 366.683,105.881 366.225,101.958 362.55,106.966 358.957,105.22 365.054,109.321 
		362.307,102.808 363.192,102.502 364.231,100.476 363.619,98.702 368.116,96.13 363.928,95.42 364.219,89.702 367.541,98.298 
		366.266,99.59 366.654,98.092 364.097,91.961 364.275,91.976 357.046,92.188 367.152,90.648 368.979,88.706 365.749,84.499 
		356.556,91.065 355.537,88.368 349.589,82.235 359.912,88.804 360.006,78.618 361.828,77.202 367.584,84.53 362.106,77.799 
		359.556,74.66 365.314,74.528 370.084,75.583 373.323,75.748 365.263,74.654 368.376,72.488 366.059,70.152 363.639,66.352 
		360.925,72.661 366.946,68.444 354.316,68.269 362.714,64.282 361.262,62.295 361.803,59.637 363.963,58.831 351.844,55.43 
		353.833,53.582 363.924,55.84 359.247,48.317 362.465,50.182 361.561,48.603 368.924,49.008 370.312,49.213 362.837,41.624 
		369.947,41.463 365.904,41.87 363.498,39.197 362.294,43.306 361.416,49.254 355.187,47.468 363.054,42.632 351.856,39.258 
		364.809,38.934 361.458,37.614 362.404,36.225 361.942,30.254 366.123,35.28 367.901,33.735 368.72,31.615 365.112,33.364 
		370.262,26.338 368.084,25.692 366.202,24.785 361.957,27.369 358.256,30.055 360.748,23.532 364.417,19.604 364.284,18.725 
		355.212,17.824 356.83,15.897 359.638,13.972 356.053,12.022 	"/>
</g>
<g>
	<polyline class="st0" points="883.492,757.82 885.537,757.488 884.919,753.653 886.921,753.127 883.537,746.218 887.72,748.318 
		896.072,747.79 887.75,745.978 882.609,747.493 889.668,739.573 890.554,741.251 881.15,735.931 882.71,734.563 886.403,734.867 
		884.374,733.701 882.591,734.423 894.75,728.954 889.68,726.337 885.499,723.284 884.113,727.425 882.73,731.631 880.505,727.695 
		874.721,732.344 880.28,727.5 874.025,723.992 876.361,721.381 886.77,724.851 883.955,720.825 880.113,712.635 885.079,719.842 
		884.574,714.45 890.058,717.411 885.144,713.435 885.756,711.763 887.269,714.377 888.406,715.206 887.17,718.994 882.582,709.462 
		881.251,712.887 883.859,709.48 878.039,711.463 881.897,710.692 877.68,707.062 879.986,704.01 885.03,711.115 886.521,706.074 
		887.378,703.794 887.584,701.646 880.821,700.111 882.141,699.008 882.562,694.846 888.746,694.401 885.781,690.4 883.942,687.062 
		893.021,687.978 888.636,686.812 882.118,690.397 890.311,681.938 879.854,686.633 883.749,682.435 888.396,675.747 
		875.864,676.197 883.853,678.242 885.892,675.217 887.875,674.791 887.653,675.151 893.013,677.761 896.722,677.196 
		894.478,674.518 893.006,671.452 894.284,664.988 889.109,668.584 890.244,662.322 883.754,670.005 881.44,670.371 
		880.414,667.389 878.389,666.215 883.299,657.519 876.708,662.001 877.276,661.016 877.532,661.281 879.197,666.6 881.969,656.915 
		883.376,665.747 885.246,668.346 890.359,665.737 882.733,656.587 883.228,654.688 890.966,656.389 887.72,650.598 
		889.322,649.347 896.361,653.368 892.738,647.029 892.809,650.453 896.006,643.256 893.442,646.365 890.312,653.482 
		889.289,645.673 887.251,645.03 881.334,650.656 881.225,645.511 878.208,643.952 880.333,643.376 883.476,633.683 880.51,636.609 
		878.344,636.881 876.246,636.908 874.459,635.894 878.943,638.197 873.67,630.551 876.342,642.696 877.735,630.61 880.066,636.224 
		881.875,631.959 884.092,635.365 891.838,640.83 889.453,633.661 880.214,633.574 891.041,629.238 888.388,627.757 885.15,627.379 
		889.294,627.522 884.807,624.609 883.112,625.574 877.003,623.513 890.14,621.973 883.563,619.744 889.084,614.109 
		881.054,617.994 877.587,621.327 879.478,611.853 874.119,619.68 875.576,614.407 876.596,619.671 878.588,618.389 880.604,617.9 
		882.56,615.421 884.393,608.598 883.991,609.731 880.941,609.075 893.88,612.628 888.921,608.319 888.478,604.921 893.851,608.536 
		897.361,609.9 890.867,599.211 895.152,602.479 895.033,600.741 895.966,596.766 893.524,596.843 890.59,597.509 888.564,597.421 
		885.985,599.918 883.278,602.128 883.343,594.746 885.32,593.429 884.487,592.25 883.529,596.736 887.641,587.916 889.127,595.014 
		894.783,595.697 888.221,587.312 894.199,588.225 892.054,585.549 885.278,587.494 891.587,580.797 889.262,579.795 
		890.764,579.317 892.201,580.91 884.619,573.477 891.754,575.682 885.093,568.841 885.662,574.672 890.207,573.174 
		887.298,569.396 885.877,572.35 884.16,573.98 883.098,571.298 888.1,572.463 883.411,569.688 875.835,568.039 882.512,565.989 
		882.854,563.967 887.177,562.559 887.003,561.877 881.633,558.119 880.647,555.454 882.503,555.332 884.74,554.31 888.161,552.618 
		884.238,558.037 882.699,555.596 881.664,547.953 878.823,552.679 885.443,550.821 885.375,548.937 876.296,546.24 885.18,548.463 
		880.445,540.221 885.688,549.768 882.402,536.356 890.075,548.683 890.562,545.274 893.627,543.732 895.308,540.703 
		886.421,533.753 891.133,533.896 892.158,533.443 892.125,532.449 891.958,529.79 888.561,530.518 889.292,525.973 
		886.273,534.358 885.266,520.602 882.747,532.202 877.053,533.387 885.878,522.029 884.93,520.019 870.746,520.643 
		881.031,521.882 876.836,514.188 880.01,514.951 888.416,519.121 882.4,512.6 881.499,508.497 890.672,515.501 882.274,510.591 
		887.936,504.372 886.029,504.488 888.851,505.872 882.097,507.145 879.013,504.481 886.601,504.025 886.494,501.974 
		881.434,501.336 887.431,492.492 883.834,497.674 879.839,497.525 877.72,496.08 879.833,492.506 883.965,494.052 880.727,491.513 
		883.456,489.944 882.41,499.349 888.14,489.062 887.263,497.984 884.379,490.563 892.664,489.727 885.951,493.218 887.954,488.443 
		888.41,485.13 889.468,486.646 885.781,486.467 883.596,481.812 888.674,483.928 887.679,482.096 887.265,484.266 884.483,481.44 
		882.406,481.626 881.982,488.901 880.426,482.378 881.688,483.337 880.354,479.963 881.031,477.975 884.264,477.75 
		886.768,480.452 885.989,475.847 892.088,479.725 884.99,474.626 884.238,472.797 890.169,469.68 879.956,469.659 891.258,464.694 
		877.429,463.989 884.559,461.463 886.137,460.311 888.663,459.867 882.501,456.374 883.204,456.234 887.499,453.386 
		892.675,445.655 886.621,454.251 883.275,446.449 882.622,455.95 875.15,450.14 881.909,450.756 883.276,458.32 885.713,450.516 
		885.632,448.18 888.378,451.182 884.663,445.409 893.898,448.824 884.604,450.849 886.93,446.871 885.418,445.546 892.273,438.424 
		878.255,441.085 887.926,440.024 885.376,436.328 886.77,435.031 893.64,432.929 887.089,434.765 886.54,431.128 883.038,433.256 
		884.612,429.635 880.089,428.683 887.023,433.919 883.622,426.789 889.939,424.027 878.688,425.287 877.828,423.596 
		876.453,422.048 876.408,420.118 882.821,417.44 885.178,412.612 887.345,420.126 882.688,418.304 885.945,414.6 885.777,412.485 
		887.574,408.002 879.945,410.282 877.08,410.386 880.766,403.9 873.229,405.82 875.005,401.441 879.572,404.434 878.346,399.286 
		879.863,394.614 883.945,397.04 885.903,399.454 887.653,397.559 894.882,404.635 887.778,399.936 887.522,398.126 
		883.427,397.852 891.538,391.354 886.699,391.38 887.564,389.336 882.762,389.178 886.538,383.437 881.937,384.238 
		880.883,381.722 880.215,378.329 878.199,377.948 867.434,384.199 879.978,387.389 880.354,384.948 877.228,378.351 
		881.026,379.955 883.244,380.254 884.493,379.388 882.18,371.563 885.283,372.942 889.152,377.394 889.347,371.681 
		890.701,369.279 899.969,374.083 889.091,371.746 897.811,364.583 895.985,363.393 891.27,361.721 887.729,363.467 
		885.391,360.789 884.006,363.887 882.896,368.663 880.632,366.129 875.609,364.893 886.675,360.727 881.075,359.622 
		874.049,358.208 875.908,356.033 877.288,353.891 874.549,347.198 881.923,345.997 883.473,348.211 884.582,352.729 
		886.209,354.577 893.396,356.995 893.655,348.426 885.35,350.649 885.745,348.053 881.684,349.158 888.506,343.468 
		877.558,345.586 878.33,342.717 877.344,340.654 876.781,339.015 881.442,336.708 886.862,334.802 882.696,332.91 884.258,333.717 
		882.607,324.53 884.635,327.772 886.698,331.556 888.436,330.486 887.358,324.411 891.247,326.86 890.926,322.054 898.367,330.601 
		894.395,325.469 895.719,324.657 893.594,324.831 892.889,318.653 888.78,327.683 886.486,328.593 885.626,322.599 
		890.448,320.782 881.771,317.942 886.615,316.228 886.547,314.06 885.472,312.917 889.113,318.432 892.215,313.643 
		888.446,310.421 890.44,308.628 894.078,305.701 889.727,304.12 893.201,298.158 886.924,302.257 885.196,302.526 880.478,303.572 
		880.96,299.109 881.933,297.333 877.918,294.619 891.009,295.102 883.812,293.208 884.117,287.3 881.799,289.208 878.806,295.323 
		876.358,298.009 880.499,289.227 876.813,288.879 878.312,287.52 879.132,285.336 881.906,285.451 876.901,281.001 
		881.822,281.108 886.521,283.35 885.672,275.243 888.406,281.756 890.865,285.763 892.704,284.067 891.189,277.268 
		893.937,276.731 897.393,273.235 895.428,271.609 894.255,268.749 890.117,269.298 884.545,273.414 884.466,274.255 
		885.405,265.418 880.508,270.89 877.354,266.903 879.699,261.494 884.937,268.032 886.315,261.928 888.458,266.639 
		896.942,265.136 884.883,263.7 882.832,262.566 881.877,260.687 884.229,255.843 884.744,252.898 885.283,250.633 893.501,247.719 
		886.946,251.07 884.745,250.122 883.311,252.968 881.723,255.07 874.857,257.193 875.662,250.039 878.872,248.19 873.71,246.055 
		883.355,244.25 877.286,242.401 876.992,240.422 885.047,238.011 883.562,241.808 879.941,241.333 882.759,237.85 883.924,241.979 
		886.936,237.622 891.751,244.435 888.096,235.599 885.738,231.835 895.723,230.811 890.225,226.809 888.2,225.811 885.451,236.272 
		880.521,234.579 877.338,228.679 890.5,229.582 879.815,225.045 890.441,225.366 879.536,225.171 885.071,219.21 879.984,219.23 
		884.482,214.998 884.062,219.083 880.411,221.004 890.442,215.537 889.042,213.865 882.802,213.803 882.949,211.615 
		884.261,210.515 885.138,202.705 887.185,211.592 889.348,209.056 891.426,215.016 893.641,207.427 895.738,211.884 
		895.226,208.269 901.55,204 890.899,209.855 896.194,202.901 890.167,205.034 892.462,197.748 889.343,201.875 886.9,200.879 
		885.976,204.503 881.434,197.113 880.602,201.042 881.644,201.828 873.843,204.065 872.324,202.438 873.547,200.496 
		885.473,198.532 879.615,195.945 880.447,193.874 880.429,191.547 881.911,198.082 884.401,195.989 886.287,198.814 
		890.406,197.211 890.383,190.766 892.028,189.542 891,184.763 893.385,184.507 904.298,186.237 896.901,182.915 893.134,187.486 
		891.666,186.161 891.043,182.652 887.686,186.159 887.704,176.927 885.01,181.117 884.388,188.869 880.89,179.018 880.447,187.92 
		876.965,184.752 880.129,182.739 882.276,181.469 884.642,180.27 873.729,174.41 882.991,177.169 882.56,171.755 882.318,170.982 
		884.389,171.637 887.704,169.492 890.641,167.358 887,166.799 888.173,168.722 889.852,167.501 891.026,164.527 886.836,159.928 
		888.789,161.92 894.936,158.794 889.979,157.469 893.09,153.304 889.683,151.353 886.181,159.364 884.74,153.855 882.958,151.847 
		881.648,147.163 878.237,154.23 875.331,158.468 873.721,155.443 871.476,152.175 871.935,149.151 872.619,147.064 
		873.692,145.221 880.93,147.316 881.658,147.426 881.677,147.316 883.68,146.945 883.231,139.266 884.822,135.851 889.885,143.685 
		894.021,141.461 886.795,135.483 886.501,133.079 895.995,135.723 896.726,128.774 890.731,126.51 888.676,125.63 884.85,134.741 
		883.29,131.226 881.494,127.949 879.894,122.865 876.764,131.929 874.708,131.006 877.176,126.803 869.48,122.752 879.854,130.023 
		880.158,127.534 875.067,119.815 878.868,120.581 880.608,119.678 887.141,125.149 886.486,124.663 886.537,121.118 
		889.062,124.983 890.872,121.389 892.53,116.157 900.446,121.668 900.293,113.304 892.121,114.249 886.493,114.293 892.24,110.315 
		890.138,110.884 888.702,114.699 887.391,105.634 883.027,112.706 886.067,103.312 884.344,106.015 883.158,103.567 
		884.877,103.832 878.344,103.361 877.638,101.605 888.12,98.108 883.354,96.976 882.554,93.996 886.084,96.49 887.785,95.808 
		888.83,95.187 887.124,94.445 884.817,92.671 885.056,91.862 880.074,92.301 876.601,90.106 877.007,88.096 881.214,87.417 
		878.885,88.55 877.971,85.691 881.281,82.691 878.389,77.603 882.352,87.097 882.223,75.751 888.849,85.25 892.809,81.767 
		892.288,79.43 885.126,74.025 885.732,71.525 892.112,74.223 889.869,71.855 888.525,64.668 886.612,68.287 885.005,76.463 
		884.373,69.271 875.266,70.492 881.947,67.118 885.836,63.468 885.474,60.409 883.458,59.116 871.979,60.029 871.936,55.271 
		886.662,56.864 879.938,52.518 882.27,52.472 883.193,50.269 882.992,48.951 890.669,49.272 890.794,49.081 889.244,45.416 
		882.181,45.168 886.289,40.226 885.05,44.099 882.968,43.274 879.821,36.484 881.1,42.096 872.754,41.243 873.953,39.437 
		881.764,38.463 883.905,38.81 884.76,38.654 887.135,39.817 885.924,31.887 889.147,35.921 895.855,34.175 889.344,30.268 
		889.516,27.58 888.727,25.725 883.244,27.955 883.052,26.572 882.683,25.22 887.581,20.532 881.333,21.439 885.119,18.691 
		880.079,17.841 882.942,15.918 885.085,13.99 881.551,12.042 	"/>
</g>
</svg>
