<?xml version="1.0" encoding="utf-8"?>
<!-- Generator: Adobe Illustrator 15.0.0, SVG Export Plug-In . SVG Version: 6.00 Build 0)  -->
<!DOCTYPE svg PUBLIC "-//W3C//DTD SVG 1.1//EN" "http://www.w3.org/Graphics/SVG/1.1/DTD/svg11.dtd">
<svg version="1.1" id="Layer_1" xmlns="http://www.w3.org/2000/svg" xmlns:xlink="http://www.w3.org/1999/xlink" x="0px" y="0px"
	 width="1024px" height="768px" viewBox="0 0 1024 768" style="enable-background:new 0 0 1024 768;" xml:space="preserve">
<style type="text/css">
<![CDATA[
	.st0{fill:none;stroke:#FF5F9F;stroke-miterlimit:10;}
]]>
</style>
<polyline class="st0" points="211.153,754.153 215.522,750.828 219.685,747.284 214.924,741.126 219.962,734.713 218.319,728.649 
	209.331,729.576 210.596,722.793 213.614,718.104 217.365,718.019 220.104,711.462 209.803,714.056 212.486,706.465 
	216.614,705.701 218.078,699.459 216.265,694.908 220.205,688.251 216.487,684.262 216.509,683.352 212.333,678.311 
	220.217,678.487 222.583,671.804 217.276,668.07 212.083,665.558 206.004,660.252 218.287,661.156 220.778,655.94 227.811,648.7 
	215.305,646.934 213.933,640.599 202.44,637.146 216.635,636.395 214.563,626.616 217.178,625.582 213.412,625.717 213.688,617.733 
	204.855,614.034 217.025,613.677 219.377,608.322 226.414,602.48 219.384,596.637 213.109,595.204 213.787,590.919 218.688,592.23 
	222.348,588.183 216.525,579.363 222.19,570.722 212.297,572.907 213.38,567.81 211.954,562.388 213.727,556.453 213.965,556.252 
	216.958,552.843 209.932,552.163 210.599,544.702 215.612,542.937 220.804,540.424 224.599,533.153 218.937,527.758 
	211.661,527.325 208.304,521.596 213.021,517.235 216.216,512.725 219.726,510.039 214.095,509.489 216.105,499.771 213.38,498.482 
	209.354,490.46 221.104,494.504 213.926,486.926 219.147,481.328 209.088,483.681 214.836,475.373 218.095,476.093 216.263,466.553 
	215.044,463.817 219.527,457.839 218.688,450.971 210.366,452.267 217.902,452.79 221.543,448.725 215.992,440.709 219.8,434.457 
	214.43,432.119 212.544,429.156 215.558,427.338 212.499,416.571 216.398,417.601 213.582,417.565 211.863,411.577 206.311,406.052 
	212.775,401.445 220.121,401.085 217.48,394.493 215.578,392.462 213.335,386.998 204.239,382.945 211.368,376.93 216.268,374.123 
	224.085,371.388 220.272,364.658 211.035,366.188 209.897,359.831 209.285,351.737 218.837,353.583 215.949,348.273 
	214.496,347.326 212.341,341.773 211.684,336.721 211.666,331.009 218.905,330.541 228.138,325.174 216.208,322.505 216.91,314.096 
	215.684,313.609 218.364,314.598 220.052,308.58 219.091,302.057 214.042,301.561 215.815,292.081 205.995,290.507 212.22,285.345 
	214.63,280.048 224.618,278.953 221.771,270.724 217.459,267.328 214.333,267.392 213.248,263.264 220.447,262.756 215.765,255.836 
	219.222,250.163 209.564,252.114 209.831,244.286 209.42,236.327 219.268,238.468 222.391,232.733 214.067,232.209 216.344,222.226 
	213.092,221.175 217.225,221.023 213.388,209.479 228.354,209.629 221.755,201.413 210.286,205.174 209.475,198.068 
	210.932,191.621 219.726,192.708 227.933,186.52 217.573,182.485 208.363,183.988 211.531,174.958 216.019,173.599 215.692,165.565 
	223.187,163.406 221.839,155.109 215.151,154.091 202.662,151.856 208.407,142.878 214.082,140.846 217.85,140.293 222.441,131.399 
	216.007,130.126 203.25,128.747 210.204,121.566 214.556,118.211 225.238,117.19 222.185,108.546 215.262,107.762 212.518,105.63 
	215.875,104.128 214.456,95.002 219.755,94.077 213.166,94.456 213.557,86.358 207.711,82.525 215.792,80.937 217.978,75.415 
	221.562,70.97 212.96,71.553 211.865,64.941 208.915,59.415 210.715,52.75 215.643,49.971 215.41,47.855 219.053,42.351 
	209.676,44.021 210.652,36.304 214.632,33.559 220.754,31.973 214.455,24.746 213.34,24.955 210.813,19.774 210.844,12.037 "/>
<polyline class="st0" points="731.832,754.153 736.201,750.828 740.364,747.284 735.604,741.126 740.643,734.713 738.998,728.649 
	730.01,729.576 731.275,722.793 734.294,718.104 738.045,718.019 740.783,711.462 730.482,714.056 733.166,706.465 737.293,705.701 
	738.758,699.459 736.945,694.908 740.885,688.251 737.167,684.262 737.188,683.352 733.012,678.311 740.896,678.487 
	743.263,671.804 737.955,668.07 732.763,665.558 726.684,660.252 738.967,661.156 741.457,655.94 748.49,648.7 735.984,646.934 
	734.612,640.599 723.12,637.146 737.314,636.395 735.243,626.616 737.857,625.582 734.092,625.717 734.368,617.733 725.535,614.034 
	737.705,613.677 740.057,608.322 747.094,602.48 740.064,596.637 733.789,595.204 734.467,590.919 739.368,592.23 743.027,588.183 
	737.205,579.363 742.869,570.722 732.977,572.907 734.06,567.81 732.634,562.388 734.406,556.453 734.645,556.252 737.639,552.843 
	730.611,552.163 731.278,544.702 736.291,542.937 741.484,540.424 745.278,533.153 739.617,527.758 732.34,527.325 728.983,521.596 
	733.7,517.235 736.896,512.725 740.405,510.039 734.774,509.489 736.785,499.771 734.061,498.482 730.033,490.46 741.784,494.504 
	734.605,486.926 739.827,481.328 729.768,483.681 735.516,475.373 738.775,476.093 736.942,466.553 735.725,463.817 
	740.207,457.839 739.368,450.971 731.046,452.267 738.582,452.79 742.223,448.725 736.672,440.709 740.479,434.457 735.109,432.119 
	733.225,429.156 736.238,427.338 733.178,416.571 737.078,417.601 734.262,417.565 732.543,411.577 726.99,406.052 733.455,401.445 
	740.801,401.085 738.16,394.493 736.258,392.462 734.015,386.998 724.919,382.945 732.048,376.93 736.947,374.123 744.765,371.388 
	740.952,364.658 731.715,366.188 730.577,359.831 729.965,351.737 739.518,353.583 736.629,348.273 735.176,347.326 
	733.021,341.773 732.363,336.721 732.346,331.009 739.584,330.541 748.817,325.174 736.888,322.505 737.59,314.096 736.363,313.609 
	739.044,314.598 740.732,308.58 739.771,302.057 734.723,301.561 736.494,292.081 726.675,290.507 732.899,285.345 735.31,280.048 
	745.297,278.953 742.45,270.724 738.139,267.328 735.013,267.392 733.928,263.264 741.127,262.756 736.445,255.836 739.901,250.163 
	730.244,252.114 730.51,244.286 730.1,236.327 739.947,238.468 743.07,232.733 734.746,232.209 737.023,222.226 733.771,221.175 
	737.904,221.023 734.067,209.479 749.033,209.629 742.436,201.413 730.966,205.174 730.154,198.068 731.611,191.621 
	740.406,192.708 748.613,186.52 738.253,182.485 729.043,183.988 732.211,174.958 736.699,173.599 736.371,165.565 743.867,163.406 
	742.52,155.109 735.831,154.091 723.342,151.856 729.086,142.878 734.762,140.846 738.529,140.293 743.121,131.399 736.687,130.126 
	723.93,128.747 730.884,121.566 735.236,118.211 745.918,117.19 742.865,108.546 735.941,107.762 733.197,105.63 736.555,104.128 
	735.136,95.002 740.436,94.077 733.846,94.456 734.236,86.358 728.391,82.525 736.473,80.937 738.657,75.415 742.242,70.97 
	733.64,71.553 732.545,64.941 729.594,59.415 731.395,52.75 736.322,49.971 736.09,47.855 739.732,42.351 730.355,44.021 
	731.332,36.304 735.312,33.559 741.434,31.973 735.135,24.746 734.02,24.955 731.493,19.774 731.523,12.037 "/>
<g>
	<polyline class="st0" points="330.514,754.83 332.146,753.955 329.372,747.286 335.756,752.553 337.254,751.409 336.686,747.93 
		337.257,747.189 338.334,744.982 340.591,740.777 335.055,742.597 339.508,741.244 333.194,738.088 334.144,736.241 
		340.447,738.597 332.591,733.488 343.814,731.189 330.796,732.547 336.277,729.783 335.458,729.699 333.485,728.139 
		332.469,735.906 330.555,734.996 327.322,730.145 335.404,728.587 326.078,724.507 334.343,724.622 327.036,719.036 
		335.842,722.493 331.659,716.666 334.467,723.865 335.033,716.222 332.321,714.473 337.226,714.598 331.805,710.405 
		340.729,709.288 338.491,718.325 335.411,714.794 333.471,715.785 329.042,706.907 323.529,719.253 330.903,712.723 
		327.708,709.459 328.864,707.73 334.25,709.962 333.181,704.919 336.8,707.092 334.511,703.286 338.255,701.968 334.874,699.656 
		342.172,694.731 333.528,694.878 340.873,696.076 332.248,688.725 332.919,686.873 332.196,688.826 333.136,691.281 
		337.425,684.798 331.269,686.472 332.804,684.701 333.302,682.222 335.285,677.744 334.9,679.62 332.989,685.478 335.12,678.282 
		337.14,676.232 341.731,682.699 337.164,675.939 336.238,673.731 341.625,673.756 337.656,673.324 335.484,676.5 335.406,672.85 
		335.194,669.629 332.816,670.492 335.407,660.72 330.193,666.663 328.826,664.907 324.874,666.369 329.985,657.441 
		326.596,661.024 326.642,663.835 329.01,659.613 330.611,665.792 332.876,662.984 334.79,665 340.429,667.141 343.702,662.16 
		332.947,654.889 345.67,660.184 345.164,658.51 341.505,652.147 345.547,653.26 348.158,652.978 350.306,647.295 344.013,652.396 
		342.312,649.395 340.995,643.67 338.167,648.651 335.824,650.158 338.878,641.931 329.658,645.698 340.066,641.232 
		337.268,636.639 331.809,636.889 329.389,637.996 328.348,634.526 325.617,636.66 322.394,640.423 321.361,637.157 
		323.062,632.376 325.701,643.879 327.449,638.463 329.111,631.464 331.247,633.372 333.359,634.8 330.571,632.541 328.98,635.729 
		330.406,633.386 334.125,630.557 335.183,628.286 338.292,630.206 341.682,629.859 334.186,626.915 332.499,625.49 329.34,623.619 
		337.946,621.921 327.049,619.543 329.403,619.673 329.083,621.02 327.188,620.601 327.321,615.322 327.648,609.577 
		325.107,614.482 325.846,618.047 327.565,607.542 329.692,610.847 331.835,614.695 333.838,613.679 332.667,608.782 
		335.026,611.178 331.858,607.656 342.266,611.321 337.518,604.611 341.081,606.047 342.084,604.392 347.246,607.74 
		340.867,602.472 340.159,605.759 342.35,600.271 343.943,595.493 336.856,601.154 338.372,596.336 336.162,596.067 
		333.885,596.395 335.294,592.97 336.13,593.668 332.23,590.454 334.048,592.167 334.646,596.477 337.77,592.968 343.204,594.906 
		339.701,589.286 340.39,588.168 336.937,588.462 336.334,586.334 335.695,584.223 330.819,584.905 341.475,579.303 334.9,576.586 
		341.417,578.392 340.667,575.43 336.356,570.129 334.934,574.689 337.955,566.162 337.178,572.028 335.219,572.553 333.489,574.12 
		331.25,572.771 325.409,569.915 330.194,569.155 336.272,567.679 327.289,567.178 333.363,563.647 337.207,562.582 
		336.109,561.821 328.704,557.454 333.049,556.635 336.448,559.562 337.008,556.917 339.31,552.365 334.089,552.3 331.688,558.779 
		329.826,559.678 330.306,550.965 324.103,549.87 322.946,547.887 325.724,546.253 333.374,547.641 330.754,543.091 
		334.037,547.077 337.297,549.708 334.112,537.812 335.381,536.017 335.735,536.469 339.635,538.108 339.757,535.861 
		340.071,533.709 348.712,532.385 341.669,532.189 341.196,529.853 338.05,530.316 336.379,530.87 335.576,534.266 333.94,531.055 
		332.306,527.808 327.335,531.947 332.82,523.406 326.55,524.515 324.985,521.306 332.783,524.537 335.148,523.941 335.362,520.354 
		333.488,516.128 337.644,516.812 334.758,512.424 340.857,516.662 336.573,510.196 336.126,515.704 335.232,505.449 
		337.708,506.178 339.878,508.9 329.886,504.808 330.331,502.874 327.786,500.317 340.698,497.642 331.323,503.916 336.053,495.061 
		324.959,499.621 332.553,493.301 326.265,493.943 323.223,486.924 331.24,487.98 334.075,486.104 332.374,497.409 334.594,497.324 
		338.475,492.418 339.389,494.151 339.736,491.833 332.15,496.151 337.151,488.539 333.857,488.778 338.218,486.671 
		332.495,484.058 337.044,485.684 334.491,480.682 343.077,477.492 337.259,487.253 333.317,479.464 332.681,485.811 
		329.073,479.468 328.073,483.579 330.628,483.09 329.18,479.638 337.269,482.776 335.563,479.136 335.298,478.816 336.569,470.041 
		331.403,471.567 330.961,475.266 342.559,471.063 335.951,470.354 335.932,468.376 335.023,466.582 340.125,463.67 
		338.092,464.638 341.27,464.688 340.965,462.121 337.511,457.646 337.23,455.657 332.548,453.905 334.925,454.099 334.406,444.554 
		332.893,448.508 331.676,454.392 330.834,452.992 331.003,453.661 333.198,449.316 334.475,458.234 337.369,454.362 
		333.595,447.526 342.472,453.033 336.104,448.572 338.279,447.816 339.553,444.568 339.762,442.051 340.159,439.399 
		327.729,441.074 338.284,440.67 334.488,436.216 334.13,433.852 337.611,434.826 337.777,431.568 337.192,428.018 334.646,430.463 
		335.577,428.573 334.443,429.876 333.209,428.764 327.98,424.963 330.377,426.547 336.185,422.958 331.176,422.445 
		334.753,419.488 335.18,417.424 328.024,412.846 333.234,417.316 334.324,415.937 335.656,412.176 330.63,415.923 325.556,415.218 
		327.886,413.215 328.76,410.768 326.745,410.017 324.968,409.021 322.838,405.849 329.611,408.892 331.788,408.528 
		333.156,407.022 333.574,406.863 333.374,399.728 335.055,396.503 337.334,405.375 344.273,404.699 335.762,400.462 
		333.836,399.321 342.132,394.083 340.77,391.399 338.174,389.882 338.317,388.738 328.61,390.594 331.224,387.932 331.067,384.61 
		331.24,379.342 325.615,387.069 324.077,385.622 327.784,382.017 320.283,376.734 329.773,385.095 330.223,382.735 325.83,374.631 
		329.455,375.844 331.361,375.15 337.132,381.434 337.944,380.39 338.098,376.389 341.401,379.564 342.232,375.666 341.787,370.901 
		348.259,366.153 346.671,364.831 338.738,367.099 336.089,370.808 337.291,365.074 335.893,368.062 334.637,371.942 
		331.339,363.508 326.569,370.268 333.721,363.316 331.397,361.544 327.318,360.014 327.97,357.856 321.579,356.307 321,354.313 
		330.594,354.347 330.22,351.176 332.281,350.739 333.51,354.633 335.496,354.63 336.686,352.904 336.509,351.931 337.218,349.25 
		337.406,345.951 331.177,349.007 326.735,347.762 326.305,345.799 329.092,342.329 326.856,340.625 328.51,338.697 
		334.547,336.469 325.912,334.833 335.986,332.896 326.262,327.226 332.676,336.439 334.595,338.009 336.32,336.549 
		336.893,327.902 337.667,326.149 342.855,330.836 342.518,326.005 348.381,331.837 349.953,324.91 343.893,329.675 
		343.655,321.411 339.501,330.646 339.074,323.229 338.063,318.402 339.708,319.185 339.761,320.783 328.915,317.762 
		328.224,315.585 342.475,311.372 334.661,313.23 337.433,315.307 337.078,312.399 336.001,309.932 344.771,308.92 344.061,305.6 
		340.462,303.908 332.608,306.615 336.5,299.406 334.465,302.819 332.954,301.518 340.433,301.011 336.238,298.269 327.298,294.635 
		328.599,292.913 336.134,291.011 333.406,287.351 331.452,286.986 329.869,284.305 326.621,291.988 328.261,289.624 
		330.207,293.818 328.203,288.236 330.972,288.403 333.374,287.128 329.428,282.471 330.798,280.962 333.282,279.774 
		336.143,285.948 337.483,279.752 339.996,284.24 341.432,278.882 345.694,280.217 347.195,275.361 343.136,274.464 336.45,274.471 
		345.192,267.643 342.315,265.616 339.832,265.81 334.83,271.352 334.659,263.294 332.958,267.621 326.38,266.973 329.247,261.635 
		334.412,270.541 336.051,268.138 337.085,257.127 344.41,264.509 336.581,262.076 340.858,256.661 334.573,258.388 329.08,255.869 
		338.484,255.606 335.411,251.139 342.096,248.081 336.46,252.147 335.209,255.902 332.136,250.632 331.063,255.284 
		331.909,247.938 322.88,249.968 321.398,247.96 331.707,246.35 329.801,244.276 328.279,242.313 326.002,240.438 331.306,238.167 
		332.159,240.969 331.604,230.453 331.482,240.498 334.784,234.786 335.132,242.683 335.399,232.947 337.917,235.884 
		345.535,237.554 336.146,235.316 339.193,232.051 337.024,233.341 335.043,231.584 336.314,229.605 329.406,229.311 
		327.466,226.77 330.669,225.401 340.502,225.54 334.892,222.364 333.459,222.024 327.578,217.982 334.244,227.612 331.674,217.878 
		328.865,221.285 337.774,216.188 329.604,216.769 339.726,211.268 337.899,209.736 327.798,206.006 334.303,215.807 
		336.444,215.251 338.604,213.113 340.742,213.1 342.958,205.422 345.038,211.638 346.998,209.526 351.055,203.833 348.865,202.894 
		344.604,203.613 340.775,203.98 340.286,202.414 339.345,204.024 335.164,197.728 336.227,207.414 331.449,199.302 330.91,204.125 
		326.626,209.812 322.059,204.187 323.002,202.28 329.755,199.707 331.771,198.316 332.397,196.733 329.339,193.782 
		328.095,189.219 331.177,198.338 334.48,189.667 336.755,189.339 340.376,199.887 344.446,197.085 341.965,190.39 342.459,187.631 
		341.978,183.572 346.412,186.535 344.502,187.269 345.853,178.696 339.829,189.07 341.702,179.153 336.95,186.24 335.739,188.986 
		334.933,184.957 331.6,176.085 331.188,185.152 329.403,185.824 325.318,185.513 329.097,182.624 331.875,181.575 324.667,177.018 
		325.421,175.251 330.491,175.09 334.583,180.757 339.805,177.575 334.787,171.592 331.438,169.718 341.61,167.291 337.41,167.579 
		336.205,164.324 338.155,164.054 341.026,166.965 347.053,166.365 340.121,161.59 347.497,158.265 343.859,156.725 
		342.375,153.316 339.193,149.948 336.063,155.514 333.711,155.827 330.62,160.979 329.348,156.091 326.496,160.041 
		325.658,152.709 324.623,146.475 317.632,153.532 321.015,149.012 329.723,152.059 328.191,148.549 330.372,147.409 
		327.261,142.888 330.959,147.272 332.06,144.384 334.184,145.816 334.386,137.667 339.013,143.455 343.981,141.804 
		337.681,136.303 333.009,131.639 335.656,130.748 341.389,131.343 338.636,133.549 336.223,134.472 334.109,134.982 
		333.157,125.956 331.224,123.95 328.589,128.43 326.073,131.8 324.98,121.994 322.464,128.583 323.604,127.427 324.764,125.773 
		329.458,127.539 329.44,124.732 330.154,122.794 332.641,123.227 332.35,119.849 332.818,116.628 335.658,119.272 337.721,118.312 
		339.19,111.145 341.435,112.048 343.179,116.474 344.913,114.955 340.389,114.613 342.708,111.85 335.844,112.326 337.8,113.276 
		339.408,102.264 336.66,105.881 336.202,101.958 332.526,106.966 328.934,105.22 335.03,109.321 332.284,102.808 333.168,102.502 
		334.208,100.476 333.595,98.702 338.093,96.13 333.905,95.42 334.195,89.702 337.517,98.298 336.243,99.59 336.631,98.092 
		334.074,91.961 334.251,91.976 327.022,92.188 337.129,90.648 338.956,88.706 335.725,84.499 326.532,91.065 325.513,88.368 
		319.565,82.235 329.888,88.804 329.983,78.618 331.805,77.202 337.561,84.53 332.083,77.799 329.533,74.66 335.291,74.528 
		340.061,75.583 343.299,75.748 335.24,74.654 338.353,72.488 336.036,70.152 333.616,66.352 330.901,72.661 336.923,68.444 
		324.293,68.269 332.69,64.282 331.238,62.295 331.78,59.637 333.94,58.831 321.82,55.43 323.81,53.582 333.9,55.84 329.223,48.317 
		332.442,50.182 331.538,48.603 338.9,49.008 340.289,49.213 332.813,41.624 339.923,41.463 335.881,41.87 333.474,39.197 
		332.271,43.306 331.392,49.254 325.163,47.468 333.031,42.632 321.833,39.258 334.785,38.934 331.435,37.614 332.38,36.225 
		331.919,30.254 336.1,35.28 337.878,33.735 338.696,31.615 335.088,33.364 340.239,26.338 338.061,25.692 336.179,24.785 
		331.933,27.369 328.232,30.055 330.724,23.532 334.394,19.604 334.261,18.725 325.189,17.824 326.807,15.897 329.615,13.972 
		326.03,12.022 	"/>
</g>
<g>
	<polyline class="st0" points="853.469,757.82 855.514,757.488 854.896,753.653 856.897,753.127 853.514,746.218 857.696,748.318 
		866.049,747.79 857.727,745.978 852.586,747.493 859.645,739.573 860.53,741.251 851.127,735.931 852.687,734.563 856.38,734.867 
		854.351,733.701 852.567,734.423 864.727,728.954 859.656,726.337 855.476,723.284 854.09,727.425 852.707,731.631 
		850.481,727.695 844.697,732.344 850.257,727.5 844.002,723.992 846.338,721.381 856.746,724.851 853.932,720.825 850.09,712.635 
		855.056,719.842 854.551,714.45 860.034,717.411 855.12,713.435 855.732,711.763 857.245,714.377 858.383,715.206 857.146,718.994 
		852.559,709.462 851.228,712.887 853.836,709.48 848.016,711.463 851.874,710.692 847.656,707.062 849.963,704.01 855.007,711.115 
		856.498,706.074 857.354,703.794 857.561,701.646 850.798,700.111 852.117,699.008 852.539,694.846 858.723,694.401 855.758,690.4 
		853.919,687.062 862.997,687.978 858.612,686.812 852.095,690.397 860.287,681.938 849.83,686.633 853.726,682.435 
		858.373,675.747 845.841,676.197 853.829,678.242 855.868,675.217 857.852,674.791 857.63,675.151 862.989,677.761 
		866.698,677.196 864.454,674.518 862.982,671.452 864.261,664.988 859.086,668.584 860.221,662.322 853.73,670.005 
		851.417,670.371 850.391,667.389 848.365,666.215 853.275,657.519 846.685,662.001 847.253,661.016 847.509,661.281 849.174,666.6 
		851.945,656.915 853.353,665.747 855.223,668.346 860.336,665.737 852.71,656.587 853.204,654.688 860.942,656.389 
		857.696,650.598 859.299,649.347 866.338,653.368 862.715,647.029 862.785,650.453 865.982,643.256 863.419,646.365 
		860.288,653.482 859.266,645.673 857.228,645.03 851.311,650.656 851.201,645.511 848.185,643.952 850.31,643.376 853.452,633.683 
		850.486,636.609 848.32,636.881 846.223,636.908 844.436,635.894 848.92,638.197 843.646,630.551 846.318,642.696 847.712,630.61 
		850.043,636.224 851.852,631.959 854.068,635.365 861.814,640.83 859.43,633.661 850.19,633.574 861.018,629.238 858.364,627.757 
		855.127,627.379 859.271,627.522 854.783,624.609 853.089,625.574 846.979,623.513 860.116,621.973 853.54,619.744 
		859.061,614.109 851.03,617.994 847.563,621.327 849.454,611.853 844.096,619.68 845.553,614.407 846.572,619.671 848.564,618.389 
		850.58,617.9 852.536,615.421 854.369,608.598 853.968,609.731 850.918,609.075 863.856,612.628 858.897,608.319 858.454,604.921 
		863.827,608.536 867.338,609.9 860.844,599.211 865.129,602.479 865.01,600.741 865.942,596.766 863.501,596.843 860.566,597.509 
		858.541,597.421 855.962,599.918 853.255,602.128 853.319,594.746 855.297,593.429 854.464,592.25 853.506,596.736 
		857.617,587.916 859.104,595.014 864.76,595.697 858.197,587.312 864.176,588.225 862.03,585.549 855.255,587.494 861.563,580.797 
		859.238,579.795 860.74,579.317 862.178,580.91 854.596,573.477 861.73,575.682 855.069,568.841 855.639,574.672 860.184,573.174 
		857.274,569.396 855.854,572.35 854.137,573.98 853.074,571.298 858.076,572.463 853.388,569.688 845.812,568.039 852.488,565.989 
		852.83,563.967 857.153,562.559 856.979,561.877 851.609,558.119 850.624,555.454 852.479,555.332 854.717,554.31 858.138,552.618 
		854.215,558.037 852.676,555.596 851.641,547.953 848.8,552.679 855.42,550.821 855.352,548.937 846.272,546.24 855.156,548.463 
		850.422,540.221 855.664,549.768 852.379,536.356 860.052,548.683 860.539,545.274 863.604,543.732 865.284,540.703 
		856.397,533.753 861.109,533.896 862.135,533.443 862.102,532.449 861.935,529.79 858.537,530.518 859.269,525.973 856.25,534.358 
		855.242,520.602 852.724,532.202 847.029,533.387 855.854,522.029 854.906,520.019 840.723,520.643 851.008,521.882 
		846.812,514.188 849.986,514.951 858.393,519.121 852.377,512.6 851.476,508.497 860.648,515.501 852.251,510.591 857.912,504.372 
		856.006,504.488 858.827,505.872 852.073,507.145 848.989,504.481 856.577,504.025 856.471,501.974 851.41,501.336 
		857.407,492.492 853.811,497.674 849.815,497.525 847.696,496.08 849.81,492.506 853.941,494.052 850.703,491.513 853.433,489.944 
		852.387,499.349 858.116,489.062 857.239,497.984 854.355,490.563 862.641,489.727 855.928,493.218 857.931,488.443 
		858.387,485.13 859.444,486.646 855.758,486.467 853.572,481.812 858.65,483.928 857.655,482.096 857.241,484.266 854.46,481.44 
		852.383,481.626 851.959,488.901 850.402,482.378 851.664,483.337 850.33,479.963 851.008,477.975 854.24,477.75 856.744,480.452 
		855.966,475.847 862.064,479.725 854.967,474.626 854.215,472.797 860.146,469.68 849.933,469.659 861.234,464.694 
		847.405,463.989 854.535,461.463 856.113,460.311 858.64,459.867 852.478,456.374 853.181,456.234 857.476,453.386 
		862.651,445.655 856.598,454.251 853.252,446.449 852.599,455.95 845.127,450.14 851.886,450.756 853.253,458.32 855.689,450.516 
		855.608,448.18 858.354,451.182 854.64,445.409 863.875,448.824 854.58,450.849 856.906,446.871 855.395,445.546 862.25,438.424 
		848.231,441.085 857.902,440.024 855.353,436.328 856.746,435.031 863.616,432.929 857.065,434.765 856.517,431.128 
		853.015,433.256 854.589,429.635 850.065,428.683 857,433.919 853.599,426.789 859.916,424.027 848.664,425.287 847.805,423.596 
		846.43,422.048 846.385,420.118 852.798,417.44 855.154,412.612 857.321,420.126 852.665,418.304 855.922,414.6 855.754,412.485 
		857.551,408.002 849.922,410.282 847.057,410.386 850.742,403.9 843.206,405.82 844.981,401.441 849.549,404.434 848.322,399.286 
		849.84,394.614 853.922,397.04 855.88,399.454 857.63,397.559 864.858,404.635 857.755,399.936 857.499,398.126 853.403,397.852 
		861.515,391.354 856.676,391.38 857.541,389.336 852.738,389.178 856.515,383.437 851.913,384.238 850.859,381.722 
		850.191,378.329 848.176,377.948 837.41,384.199 849.954,387.389 850.33,384.948 847.204,378.351 851.003,379.955 853.221,380.254 
		854.47,379.388 852.156,371.563 855.26,372.942 859.129,377.394 859.323,371.681 860.678,369.279 869.945,374.083 859.067,371.746 
		867.787,364.583 865.962,363.393 861.246,361.721 857.705,363.467 855.367,360.789 853.982,363.887 852.872,368.663 
		850.608,366.129 845.586,364.893 856.651,360.727 851.052,359.622 844.025,358.208 845.885,356.033 847.265,353.891 
		844.525,347.198 851.899,345.997 853.449,348.211 854.559,352.729 856.186,354.577 863.372,356.995 863.632,348.426 
		855.326,350.649 855.722,348.053 851.66,349.158 858.482,343.468 847.534,345.586 848.307,342.717 847.32,340.654 846.758,339.015 
		851.419,336.708 856.839,334.802 852.673,332.91 854.234,333.717 852.584,324.53 854.611,327.772 856.675,331.556 858.412,330.486 
		857.335,324.411 861.224,326.86 860.902,322.054 868.344,330.601 864.371,325.469 865.695,324.657 863.57,324.831 862.865,318.653 
		858.757,327.683 856.463,328.593 855.603,322.599 860.425,320.782 851.748,317.942 856.592,316.228 856.523,314.06 
		855.448,312.917 859.09,318.432 862.191,313.643 858.423,310.421 860.417,308.628 864.055,305.701 859.703,304.12 863.178,298.158 
		856.9,302.257 855.173,302.526 850.454,303.572 850.937,299.109 851.909,297.333 847.895,294.619 860.985,295.102 853.789,293.208 
		854.094,287.3 851.775,289.208 848.782,295.323 846.335,298.009 850.476,289.227 846.79,288.879 848.289,287.52 849.108,285.336 
		851.883,285.451 846.878,281.001 851.799,281.108 856.498,283.35 855.648,275.243 858.383,281.756 860.842,285.763 
		862.681,284.067 861.166,277.268 863.913,276.731 867.369,273.235 865.404,271.609 864.231,268.749 860.094,269.298 
		854.521,273.414 854.442,274.255 855.382,265.418 850.484,270.89 847.33,266.903 849.676,261.494 854.913,268.032 856.292,261.928 
		858.435,266.639 866.919,265.136 854.859,263.7 852.809,262.566 851.854,260.687 854.206,255.843 854.721,252.898 855.26,250.633 
		863.478,247.719 856.923,251.07 854.722,250.122 853.287,252.968 851.699,255.07 844.834,257.193 845.639,250.039 848.849,248.19 
		843.687,246.055 853.332,244.25 847.263,242.401 846.969,240.422 855.023,238.011 853.539,241.808 849.918,241.333 852.735,237.85 
		853.9,241.979 856.912,237.622 861.728,244.435 858.072,235.599 855.715,231.835 865.699,230.811 860.201,226.809 858.177,225.811 
		855.428,236.272 850.498,234.579 847.314,228.679 860.477,229.582 849.792,225.045 860.418,225.366 849.513,225.171 
		855.048,219.21 849.961,219.23 854.459,214.998 854.038,219.083 850.388,221.004 860.419,215.537 859.019,213.865 852.778,213.803 
		852.926,211.615 854.237,210.515 855.114,202.705 857.161,211.592 859.324,209.056 861.402,215.016 863.617,207.427 
		865.715,211.884 865.202,208.269 871.526,204 860.876,209.855 866.171,202.901 860.144,205.034 862.438,197.748 859.319,201.875 
		856.877,200.879 855.952,204.503 851.41,197.113 850.578,201.042 851.62,201.828 843.819,204.065 842.301,202.438 843.523,200.496 
		855.449,198.532 849.592,195.945 850.424,193.874 850.405,191.547 851.888,198.082 854.378,195.989 856.264,198.814 
		860.383,197.211 860.359,190.766 862.005,189.542 860.977,184.763 863.361,184.507 874.274,186.237 866.878,182.915 
		863.11,187.486 861.643,186.161 861.02,182.652 857.662,186.159 857.681,176.927 854.986,181.117 854.364,188.869 850.866,179.018 
		850.424,187.92 846.941,184.752 850.105,182.739 852.253,181.469 854.618,180.27 843.705,174.41 852.968,177.169 852.536,171.755 
		852.295,170.982 854.365,171.637 857.681,169.492 860.617,167.358 856.977,166.799 858.149,168.722 859.828,167.501 
		861.003,164.527 856.812,159.928 858.766,161.92 864.912,158.794 859.956,157.469 863.066,153.304 859.659,151.353 
		856.157,159.364 854.717,153.855 852.935,151.847 851.625,147.163 848.214,154.23 845.308,158.468 843.697,155.443 
		841.452,152.175 841.911,149.151 842.596,147.064 843.669,145.221 850.906,147.316 851.635,147.426 851.653,147.316 
		853.656,146.945 853.208,139.266 854.799,135.851 859.861,143.685 863.998,141.461 856.771,135.483 856.478,133.079 
		865.972,135.723 866.702,128.774 860.708,126.51 858.652,125.63 854.826,134.741 853.267,131.226 851.471,127.949 849.87,122.865 
		846.74,131.929 844.685,131.006 847.152,126.803 839.457,122.752 849.831,130.023 850.135,127.534 845.044,119.815 
		848.845,120.581 850.585,119.678 857.117,125.149 856.463,124.663 856.514,121.118 859.038,124.983 860.849,121.389 
		862.507,116.157 870.423,121.668 870.27,113.304 862.098,114.249 856.47,114.293 862.217,110.315 860.114,110.884 858.679,114.699 
		857.367,105.634 853.004,112.706 856.044,103.312 854.32,106.015 853.135,103.567 854.854,103.832 848.32,103.361 847.614,101.605 
		858.097,98.108 853.331,96.976 852.53,93.996 856.061,96.49 857.762,95.808 858.807,95.187 857.101,94.445 854.794,92.671 
		855.032,91.862 850.051,92.301 846.577,90.106 846.983,88.096 851.19,87.417 848.861,88.55 847.947,85.691 851.258,82.691 
		848.365,77.603 852.328,87.097 852.199,75.751 858.825,85.25 862.785,81.767 862.265,79.43 855.103,74.025 855.709,71.525 
		862.089,74.223 859.846,71.855 858.502,64.668 856.589,68.287 854.981,76.463 854.35,69.271 845.242,70.492 851.924,67.118 
		855.812,63.468 855.45,60.409 853.435,59.116 841.956,60.029 841.912,55.271 856.639,56.864 849.914,52.518 852.246,52.472 
		853.17,50.269 852.969,48.951 860.646,49.272 860.771,49.081 859.221,45.416 852.157,45.168 856.266,40.226 855.026,44.099 
		852.944,43.274 849.798,36.484 851.076,42.096 842.73,41.243 843.93,39.437 851.74,38.463 853.882,38.81 854.736,38.654 
		857.111,39.817 855.9,31.887 859.124,35.921 865.832,34.175 859.32,30.268 859.492,27.58 858.703,25.725 853.221,27.955 
		853.028,26.572 852.659,25.22 857.558,20.532 851.31,21.439 855.096,18.691 850.056,17.841 852.919,15.918 855.062,13.99 
		851.527,12.042 	"/>
</g>
</svg>
