<?xml version="1.0" standalone="no"?>
<!DOCTYPE svg PUBLIC "-//W3C//DTD SVG 1.1//EN" "http://www.w3.org/Graphics/SVG/1.1/DTD/svg11.dtd" >
<svg xmlns="http://www.w3.org/2000/svg">
<metadata></metadata>
<defs>
<font id="function_prolight_oblique" horiz-adv-x="547" >
<font-face units-per-em="1000" ascent="753" descent="-247" />
<missing-glyph horiz-adv-x="250" />
<glyph unicode="&#xfb01;" horiz-adv-x="390" d="M49 0l45 364h-46l4 36h46l27 219q8 71 39 100q26 24 64 24q21 0 43 -7l-5 -38q-19 8 -35 8q-31 0 -46 -22.5t-22 -78.5l-25 -205h71l-4 -36h-72l-44 -364h-40zM334 529q-11 0 -18 8t-7 20q0 14 9 23.5t22 9.5q11 0 18 -7.5t7 -18.5q0 -14 -9 -24.5t-22 -10.5zM249 0 l49 400h40l-49 -400h-40z" />
<glyph unicode="&#xfb02;" horiz-adv-x="390" d="M49 0l45 364h-46l4 36h46l27 219q8 71 39 100q26 24 64 24q21 0 43 -7l-5 -38q-19 8 -35 8q-31 0 -46 -22.5t-22 -78.5l-25 -205h71l-4 -36h-72l-44 -364h-40zM249 0l90 729h39l-89 -729h-40z" />
<glyph horiz-adv-x="0" />
<glyph horiz-adv-x="333" />
<glyph unicode=" "  horiz-adv-x="250" />
<glyph unicode="&#x09;" horiz-adv-x="250" />
<glyph unicode="&#xa0;" horiz-adv-x="250" />
<glyph unicode="!" horiz-adv-x="248" d="M91 124l67 543h39l-67 -543h-39zM68 23q0 13 9 22.5t23 9.5q13 0 21.5 -9t8.5 -22t-9.5 -22t-22.5 -9t-21.5 8.5t-8.5 21.5z" />
<glyph unicode="&#x22;" horiz-adv-x="359" d="M243 438l20 229h45l-36 -229h-29zM139 438l21 229h44l-36 -229h-29z" />
<glyph unicode="#" d="M114 3l40 217h-119l5 39h121l30 162h-119l5 39h122l38 210l41 -6l-37 -204h140l39 210l41 -6l-38 -204h116l-4 -39h-118l-30 -162h115l-4 -39h-118l-41 -223l-41 6l40 217h-142l-41 -223zM204 260h141l29 160h-141z" />
<glyph unicode="$" d="M76 137l38 14q14 -53 45 -85t77 -39l38 316q-128 73 -128 176q0 69 47 113.5t123 47.5l10 87h34l-11 -89q48 -7 79.5 -34.5t53.5 -80.5l-35 -25q-29 88 -103 101l-33 -271q34 -19 56 -35q86 -62 86 -156q0 -80 -53.5 -134t-135.5 -57l-12 -100h-34l13 103q-56 8 -97.5 48 t-57.5 100zM280 388l31 253q-55 -5 -88.5 -38t-33.5 -84q0 -76 91 -131zM269 25q63 4 102 46.5t39 108.5q0 81 -105 144z" />
<glyph unicode="%" horiz-adv-x="683" d="M81 12l521 664l25 -20l-520 -665zM185 346q-53 0 -86 41.5t-33 107.5q0 74 41 126.5t99 52.5q52 0 85.5 -42t33.5 -107q0 -74 -41 -126.5t-99 -52.5zM187 378q44 0 70 38q35 49 35 112q0 50 -25 81.5t-64 31.5q-43 0 -73.5 -43.5t-30.5 -105.5q0 -50 25 -82t63 -32z M384 142q0 74 41 126.5t99 52.5q52 0 85.5 -42t33.5 -107q0 -74 -41 -126.5t-99 -52.5q-53 0 -86 41.5t-33 107.5zM417 139q0 -50 25 -82t63 -32q43 0 74 44.5t31 105.5q0 50 -24.5 81.5t-64.5 31.5q-43 0 -73.5 -43.5t-30.5 -105.5z" />
<glyph unicode="&#x26;" horiz-adv-x="570" d="M410 93l-76 -58q-63 -45 -121 -45q-69 0 -117.5 48t-48.5 116q0 45 20.5 76.5t82.5 83.5l97 79l-7 14q-27 55 -34.5 76t-7.5 48q0 56 37.5 94.5t92.5 38.5q47 0 78 -31.5t31 -79.5q0 -28 -13 -51t-45 -52q-4 -3 -79 -65l123 -231l113 89l25 -30l-119 -93l64 -120h-46z M280 421l45 36q43 36 57 55.5t14 43.5q0 31 -20.5 51t-51.5 20q-36 0 -60.5 -28t-24.5 -69q0 -21 7 -38.5t34 -70.5zM390 129l-124 228q-78 -63 -113 -94q-39 -35 -52.5 -57.5t-13.5 -54.5q0 -51 36 -88t86 -37q37 0 68 17.5t113 85.5z" />
<glyph unicode="'" horiz-adv-x="255" d="M139 438l21 229h44l-36 -229h-29z" />
<glyph unicode="(" horiz-adv-x="264" d="M148 -152l-43 -15q-21 120 -21 273q0 328 131 631l38 -21q-126 -298 -126 -606q0 -149 21 -262z" />
<glyph unicode=")" horiz-adv-x="264" d="M25 -146q127 296 127 605q0 149 -21 262l42 16q22 -123 22 -276q0 -328 -132 -628z" />
<glyph unicode="*" d="M223 439l-31 29l94 96l-123 53l18 39l120 -60l13 133l42 -5l-20 -132l131 28l8 -41l-132 -22l68 -116l-37 -21l-62 119z" />
<glyph unicode="+" d="M267 110v211h-217v39h217v210h39v-210h217v-39h-217v-211h-39z" />
<glyph unicode="," horiz-adv-x="208" d="M-21 -96l107 193l36 -20l-118 -186z" />
<glyph unicode="-" horiz-adv-x="166" d="M-5 189l4 36h166l-4 -36h-166z" />
<glyph unicode="." horiz-adv-x="208" d="M48 20q0 14 10.5 25t24.5 11q27 0 27 -28q0 -13 -11 -24t-25 -11q-11 0 -18.5 8t-7.5 19z" />
<glyph unicode="/" horiz-adv-x="365" d="M-4 -152l369 889l35 -15l-369 -888z" />
<glyph unicode="0" d="M256 -13q-89 0 -151.5 89.5t-62.5 216.5q0 157 80 272t189 115q96 0 157.5 -86.5t61.5 -220.5q0 -154 -82 -270t-192 -116zM261 27q40 0 83.5 30t73.5 77q69 109 69 238q0 114 -50 191t-125 77q-89 0 -158 -104.5t-69 -237.5q0 -111 52 -191t124 -80z" />
<glyph unicode="1" d="M222 0l78 628h-91l24 39h114l-82 -667h-43z" />
<glyph unicode="2" d="M39 0l290 296q63 65 86.5 106.5t23.5 90.5q0 64 -40 105.5t-102 41.5q-68 0 -110 -47t-52 -132h-39q5 66 30 114t71.5 76.5t101.5 28.5q79 0 131 -52t52 -131q0 -60 -29.5 -111.5t-113.5 -135.5l-208 -211h325l-4 -39h-413z" />
<glyph unicode="3" d="M72 171h39q1 -57 17 -83q36 -61 115 -61q69 0 115.5 49.5t46.5 123.5q0 77 -58 113q-26 15 -75 22l4 36q10 -1 26 -1q55 0 90 39t35 99q0 58 -35.5 95t-91.5 37q-65 0 -98 -46q-15 -22 -26 -64h-40q11 48 29 77q21 34 57 53.5t80 19.5q74 0 121 -49t47 -125 q0 -63 -34 -105.5t-93 -53.5q33 -13 53 -29q52 -41 52 -125q0 -87 -58.5 -146.5t-143.5 -59.5q-78 0 -126.5 45.5t-48.5 118.5q0 11 1 20z" />
<glyph unicode="4" d="M30 126l436 557l-63 -518h90l-5 -39h-90l-16 -126h-42l15 126h-325zM110 165h250l46 380z" />
<glyph unicode="5" d="M39 155l38 14q11 -54 26 -79q18 -28 54.5 -45.5t78.5 -17.5q86 0 145 59.5t59 145.5q0 81 -46.5 129t-125.5 48q-46 0 -114 -27l106 285h247l-5 -39h-214l-71 -189q32 9 64 9q89 0 145.5 -59.5t56.5 -153.5q0 -104 -71.5 -176t-176.5 -72q-82 0 -133 43.5t-63 124.5z" />
<glyph unicode="6" d="M388 663l-195 -234q63 27 112 27q86 0 142.5 -60.5t56.5 -153.5q0 -110 -66 -182.5t-166 -72.5q-95 0 -155.5 62t-60.5 159q0 64 24.5 118t90.5 135l186 227zM99 215q0 -82 49.5 -135t126.5 -53t131.5 60.5t54.5 146.5q0 79 -47 130.5t-119 51.5q-83 0 -139.5 -58 t-56.5 -143z" />
<glyph unicode="7" d="M78 5l402 623h-379l4 39h448l-440 -687z" />
<glyph unicode="8" d="M72 162q0 84 68 144q31 25 83 44q-95 57 -95 150q0 74 55.5 127t133.5 53q74 0 122.5 -47.5t48.5 -119.5q0 -64 -44 -116q-28 -32 -88 -54q41 -22 61 -43q42 -45 42 -115q0 -84 -57.5 -141t-142.5 -57q-80 0 -133.5 50t-53.5 125zM300 364q60 0 102.5 42.5t42.5 102.5 q0 55 -37.5 93t-92.5 38q-58 0 -101 -42.5t-43 -100.5q0 -54 38.5 -93.5t90.5 -39.5zM115 166q0 -61 40.5 -100t103.5 -39q65 0 111 45.5t46 111.5q0 63 -38 103t-99 40q-68 0 -116 -47t-48 -114z" />
<glyph unicode="9" d="M187 4l195 234q-63 -27 -112 -27q-86 0 -142.5 60.5t-56.5 153.5q0 110 66 182.5t166 72.5q95 0 155.5 -62t60.5 -159q0 -64 -24.5 -118t-90.5 -135l-186 -227zM280 251q83 0 139.5 58t56.5 143q0 82 -49.5 135t-126.5 53t-131.5 -60.5t-54.5 -146.5q0 -79 47 -130.5 t119 -51.5z" />
<glyph unicode=":" horiz-adv-x="208" d="M123 350q-13 0 -21.5 8.5t-8.5 21.5q0 14 9.5 23t22.5 9t21.5 -9t8.5 -22t-9.5 -22t-22.5 -9zM49 23q0 13 9.5 22.5t22.5 9.5t21.5 -9t8.5 -22t-9.5 -22t-22.5 -9t-21.5 8.5t-8.5 21.5z" />
<glyph unicode=";" horiz-adv-x="208" d="M123 350q-13 0 -21.5 8.5t-8.5 21.5q0 14 9.5 23t22.5 9t21.5 -9t8.5 -22t-9.5 -22t-22.5 -9zM-21 -96l107 193l36 -20l-118 -186z" />
<glyph unicode="&#x3c;" horiz-adv-x="500" d="M45 315v40l433 193v-44l-386 -169l386 -170v-44z" />
<glyph unicode="=" d="M51 377v39h473v-39h-473zM51 265v39h473v-39h-473z" />
<glyph unicode="&#x3e;" horiz-adv-x="500" d="M46 121v44l386 170l-386 169v44l433 -193v-40z" />
<glyph unicode="?" horiz-adv-x="436" d="M329 251h37q-3 -58 -40 -93.5t-94 -35.5t-94.5 36.5t-37.5 91.5q0 66 49 102q32 23 109 48q68 21 95 55q26 32 26 73q0 51 -35 83.5t-90 32.5q-74 0 -103 -56q-15 -28 -16 -88h-36q1 51 7.5 77t24.5 48q45 52 122 52q72 0 117.5 -42t45.5 -109q0 -57 -36 -98 q-30 -36 -108 -61q-80 -26 -103 -46q-33 -27 -33 -74q0 -40 27 -65.5t69 -25.5q43 0 69 25.5t28 69.5zM176 23q0 13 9 22.5t23 9.5q13 0 21.5 -9t8.5 -22t-9.5 -22t-22.5 -9t-21.5 8.5t-8.5 21.5z" />
<glyph unicode="@" horiz-adv-x="768" d="M648 79l14 -32q-113 -56 -234 -56q-112 0 -194 47q-77 44 -122 123.5t-45 172.5q0 144 100.5 243t247.5 99q135 0 226 -84.5t91 -209.5q0 -91 -47.5 -157.5t-111.5 -66.5q-26 0 -46 17.5t-20 40.5q0 7 1 12q-35 -41 -63.5 -56.5t-68.5 -15.5q-68 0 -112.5 46.5 t-44.5 118.5q0 82 50.5 137t126.5 55q44 0 75 -18t60 -61l9 70h38l-27 -224l-8 -52q-1 -15 10.5 -25.5t28.5 -10.5q46 0 80.5 56t34.5 130q0 114 -80 188.5t-203 74.5q-131 0 -221 -89t-90 -219q0 -85 40.5 -156.5t111.5 -111.5q70 -40 171 -40q113 0 222 54zM258 324 q0 -57 34.5 -94.5t86.5 -37.5q58 0 101 48t43 112q0 55 -34.5 90t-88.5 35q-60 0 -101 -44t-41 -109z" />
<glyph unicode="A" horiz-adv-x="589" d="M-3 0l366 697l179 -697h-44l-57 226h-279l-119 -226h-46zM183 265h248l-83 319z" />
<glyph unicode="B" horiz-adv-x="540" d="M71 0l82 667h114q55 0 84.5 -7t52.5 -26q52 -44 52 -123q0 -111 -111 -161q61 -17 86 -41q52 -47 52 -128q0 -78 -52 -130q-28 -28 -65.5 -39.5t-103.5 -11.5h-191zM158 363h79q52 0 81 8.5t52 31.5q42 40 42 106q0 61 -36 92q-18 16 -41.5 21.5t-70.5 5.5h-73zM119 39 h153q77 0 113 27q54 39 54 114t-48 111q-44 33 -146 33h-92z" />
<glyph unicode="C" horiz-adv-x="670" d="M600 108l-7 -58q-99 -63 -205 -63q-139 0 -227.5 90.5t-88.5 231.5q0 77 27 148.5t75 121.5q95 101 247 101q110 0 184 -52q21 -14 53 -47l-7 -56q-84 115 -230 115q-125 0 -207 -82q-45 -44 -71.5 -111.5t-26.5 -137.5q0 -126 76 -204t198 -78q115 0 210 81z" />
<glyph unicode="D" horiz-adv-x="635" d="M71 0l82 667h133q76 0 122 -13t82 -44q47 -41 73.5 -106.5t26.5 -139.5q0 -80 -31.5 -154.5t-86.5 -126.5q-50 -47 -108 -65t-155 -18h-138zM119 39h93q88 0 142.5 18.5t97.5 63.5q44 46 69 110.5t25 133.5q0 66 -22 122.5t-62 91.5q-31 27 -70.5 38t-106.5 11h-94z" />
<glyph unicode="E" horiz-adv-x="457" d="M71 0l82 667h307l-5 -39h-264l-30 -243h264l-5 -39h-264l-37 -307h264l-5 -39h-307z" />
<glyph unicode="F" horiz-adv-x="418" d="M71 0l82 667h274l-5 -39h-231l-30 -243h231l-4 -39h-232l-42 -346h-43z" />
<glyph unicode="G" horiz-adv-x="785" d="M458 321h279q-16 -123 -77 -202q-48 -63 -118 -97.5t-148 -34.5q-70 0 -135 27t-108 73q-80 86 -80 220q0 74 27 146t75 124q94 103 244 103q203 0 295 -176l-35 -22q-31 61 -73 96q-78 62 -187 62q-131 0 -216.5 -95.5t-85.5 -241.5q0 -121 77 -198.5t197 -77.5 q74 0 139.5 32.5t105.5 90.5q36 53 56 132h-237z" />
<glyph unicode="H" horiz-adv-x="661" d="M71 0l82 667h43l-35 -280h379l34 280h43l-82 -667h-43l43 348h-379l-42 -348h-43z" />
<glyph unicode="I" horiz-adv-x="240" d="M71 0l82 667h43l-82 -667h-43z" />
<glyph unicode="J" horiz-adv-x="332" d="M-15 64l33 23q17 -34 35 -47.5t45 -13.5q36 0 55.5 26.5t26.5 87.5l65 527h42l-65 -532q-10 -79 -37 -111q-32 -38 -86 -38q-73 0 -114 78z" />
<glyph unicode="K" horiz-adv-x="521" d="M71 0l82 667h43l-37 -300l331 300h63l-358 -319l290 -348h-56l-275 332l-40 -332h-43z" />
<glyph unicode="L" horiz-adv-x="381" d="M71 0l82 667h43l-77 -628h221l-5 -39h-264z" />
<glyph unicode="M" horiz-adv-x="898" d="M-6 0l325 684l117 -590l278 595l134 -689h-46l-104 559l-277 -588l-118 588l-261 -559h-48z" />
<glyph unicode="N" horiz-adv-x="751" d="M71 0l85 691l437 -604l71 580h43l-85 -690l-437 604l-71 -581h-43z" />
<glyph unicode="O" horiz-adv-x="786" d="M71 304q0 81 31 156.5t85 128.5q96 91 233 91q144 0 232 -89t88 -235q0 -139 -82 -244q-98 -125 -264 -125q-142 0 -232.5 89t-90.5 228zM115 311q0 -126 78 -205t202 -79q128 0 214.5 94t86.5 235q0 138 -81 212q-80 72 -195 72q-131 0 -218 -93.5t-87 -235.5z" />
<glyph unicode="P" horiz-adv-x="452" d="M71 0l82 667h103q100 0 147 -44q45 -45 45 -115q0 -52 -24 -95.5t-65 -66.5q-47 -26 -146 -26h-60l-39 -320h-43zM158 359h63q83 0 118 21q65 40 65 125q0 59 -36.5 91t-103.5 32h-73z" />
<glyph unicode="Q" horiz-adv-x="784" d="M660 -27l-71 76q-93 -63 -197 -63q-138 0 -229 92t-91 231q0 79 30.5 154.5t83.5 128.5q90 88 233 88q142 0 231 -90t89 -233q0 -164 -118 -282l94 -102h-55zM519 182l75 -79q48 43 74.5 109.5t26.5 141.5q0 113 -58 186q-38 47 -96.5 73.5t-125.5 26.5 q-129 0 -214 -94.5t-85 -237.5q0 -124 77 -203t198 -79q87 0 172 51l-97 105h53z" />
<glyph unicode="R" horiz-adv-x="461" d="M71 0l82 667h83q79 0 126 -33q60 -43 60 -124q0 -44 -19.5 -85.5t-51.5 -65.5q-25 -18 -54 -26t-83 -13l201 -320h-52l-194 320h-16l-39 -320h-43zM158 359h37q68 0 106 16q35 16 56 52t21 79q0 59 -37 90.5t-106 31.5h-44z" />
<glyph unicode="S" horiz-adv-x="492" d="M457 563l-35 -24q-20 54 -50 78t-77 24q-56 0 -93 -35t-37 -88q0 -43 24 -72.5t90 -70.5q77 -48 105 -78q44 -52 44 -119q0 -81 -55 -136t-137 -55q-84 0 -138 60q-30 33 -47 90l38 14q16 -51 38 -76q42 -48 110 -48q64 0 105.5 44t41.5 111q0 46 -26 78.5t-96 76.5 q-80 50 -110.5 88.5t-30.5 92.5q0 72 49 117.5t126 45.5q58 0 96 -28t65 -90z" />
<glyph unicode="T" horiz-adv-x="410" d="M157 0l77 628h-173l5 39h386l-5 -39h-170l-77 -628h-43z" />
<glyph unicode="U" horiz-adv-x="648" d="M606 667l-52 -426q-13 -99 -41 -145q-67 -109 -200 -109q-112 0 -179 67q-43 43 -43 121q0 20 4 48l54 444h43l-55 -445q-4 -33 -4 -50q0 -55 30 -86q54 -59 150 -59q56 0 101 26.5t69 74.5q18 36 28 112l53 427h42z" />
<glyph unicode="V" horiz-adv-x="515" d="M213 -27l-134 694h46l104 -569l273 569h48z" />
<glyph unicode="W" horiz-adv-x="896" d="M212 -24l-133 691h44l106 -555l277 588l119 -588l257 555h49l-322 -685l-119 583z" />
<glyph unicode="X" horiz-adv-x="482" d="M7 0l229 343l-124 324h47l106 -280l183 280h52l-218 -324l133 -343h-49l-112 302l-194 -302h-53z" />
<glyph unicode="Y" horiz-adv-x="511" d="M199 0l38 302l-164 365h48l143 -324l227 324h56l-269 -374l-36 -293h-43z" />
<glyph unicode="Z" horiz-adv-x="563" d="M11 0l495 628h-371l5 39h448l-494 -628h368l-5 -39h-446z" />
<glyph unicode="[" horiz-adv-x="278" d="M91 -125h111l-5 -35h-151l109 889h152l-5 -35h-110z" />
<glyph unicode="\" horiz-adv-x="365" d="M237 -166l-151 895l38 8l152 -896z" />
<glyph unicode="]" horiz-adv-x="278" d="M-10 -125h111l101 819h-111l4 35h151l-109 -889h-151z" />
<glyph unicode="^" horiz-adv-x="500" d="M48 381l185 286h58l185 -286h-50l-165 252l-164 -252h-49z" />
<glyph unicode="_" horiz-adv-x="500" d="M12 -76h500v-41h-500v41z" />
<glyph unicode="`" horiz-adv-x="500" d="M299 460l-86 117l39 28l71 -129z" />
<glyph unicode="a" horiz-adv-x="518" d="M378 0l8 71q-40 -46 -74 -63.5t-81 -17.5q-81 0 -133.5 54.5t-52.5 139.5q0 97 60 161.5t150 64.5q53 0 90 -20.5t72 -70.5l10 81h39l-49 -400h-39zM86 187q0 -69 42 -114.5t106 -45.5q70 0 122.5 58t52.5 136q0 67 -42 109.5t-107 42.5q-74 0 -124 -53.5t-50 -132.5z " />
<glyph unicode="b" horiz-adv-x="519" d="M45 0l90 729h39l-49 -399q36 43 72 61.5t85 18.5q81 0 133 -54.5t52 -139.5q0 -87 -54 -153q-60 -73 -154 -73q-53 0 -91.5 22t-72.5 72l-11 -84h-39zM104 185q0 -68 43.5 -113t108.5 -45q70 0 120 55t50 131q0 70 -42 115t-108 45q-72 0 -122 -54.5t-50 -133.5z" />
<glyph unicode="c" horiz-adv-x="425" d="M366 77l-6 -50q-52 -40 -120 -40q-87 0 -141.5 55t-54.5 142q0 98 61 163.5t152 65.5q79 0 143 -57l-5 -43q-37 36 -66.5 49.5t-70.5 13.5q-75 0 -124 -55t-49 -138q0 -73 43.5 -116t115.5 -43q35 0 61.5 11.5t60.5 41.5z" />
<glyph unicode="d" horiz-adv-x="518" d="M378 0l8 66q-41 -43 -74.5 -59.5t-79.5 -16.5q-81 0 -134 54.5t-53 138.5q0 96 59.5 161.5t146.5 65.5q54 0 93 -23t72 -74l51 416h40l-90 -729h-39zM86 187q0 -68 43.5 -114t107.5 -46q69 0 119 56.5t50 134.5q0 68 -42.5 111.5t-109.5 43.5q-70 0 -119 -54t-49 -132z " />
<glyph unicode="e" horiz-adv-x="469" d="M360 90l27 -19q-36 -46 -71 -65t-85 -19q-83 0 -135 53.5t-52 138.5q0 103 56.5 170.5t142.5 67.5q54 0 96 -28.5t62 -78.5q13 -35 16 -103h-334v-28q0 -68 42 -111.5t109 -43.5q39 0 67.5 15t58.5 51zM89 243h289q-5 47 -22 75q-40 62 -114 62q-70 0 -116 -55 q-24 -31 -37 -82z" />
<glyph unicode="f" horiz-adv-x="247" d="M49 0l45 364h-46l4 36h46l27 219q8 71 39 100q26 24 64 24q21 0 43 -7l-5 -38q-19 8 -35 8q-31 0 -46 -22.5t-22 -78.5l-25 -205h71l-4 -36h-72l-44 -364h-40z" />
<glyph unicode="g" horiz-adv-x="517" d="M28 -73h37q4 -59 26 -88q37 -45 115 -45q82 0 125 52q33 43 43 131l10 87q-42 -42 -75 -58t-77 -16q-80 0 -133.5 55.5t-53.5 138.5q0 99 66 168q53 58 143 58q57 0 93 -21.5t68 -74.5l11 86h39l-50 -409q-15 -121 -55 -170q-53 -64 -154 -64q-96 0 -144 57 q-18 21 -25 45.5t-9 67.5zM126 75q20 -22 50.5 -35.5t59.5 -13.5q70 0 120 55t50 132q0 72 -40.5 116t-106.5 44q-73 0 -123 -53.5t-50 -132.5q0 -67 40 -112z" />
<glyph unicode="h" horiz-adv-x="431" d="M45 0l90 729h39l-48 -387q33 38 60 53t64 15q55 0 84.5 -30t29.5 -85q0 -14 -4 -47l-30 -248h-40l30 242q3 18 5 54q1 36 -19 56.5t-57 20.5q-62 0 -102 -45q-26 -27 -35 -100l-28 -228h-39z" />
<glyph unicode="i" horiz-adv-x="186" d="M131 529q-12 0 -19.5 7.5t-7.5 19.5q0 14 9 23t23 9q27 0 27 -26q0 -13 -9.5 -23t-22.5 -10zM45 0l49 400h40l-50 -400h-39z" />
<glyph unicode="j" horiz-adv-x="186" d="M133 530q-11 0 -18.5 7.5t-7.5 19.5q0 13 9.5 22t23.5 9q25 0 25 -25q0 -13 -9.5 -23t-22.5 -10zM17 -233l78 633h39l-78 -633h-39z" />
<glyph unicode="k" horiz-adv-x="408" d="M45 0l90 729h39l-62 -500l210 171h64l-234 -184l228 -216h-58l-213 202l-25 -202h-39z" />
<glyph unicode="l" horiz-adv-x="186" d="M45 0l90 729h39l-90 -729h-39z" />
<glyph unicode="m" horiz-adv-x="643" d="M45 0l49 400h39l-7 -58q54 68 121 68q74 0 101 -79q32 43 60.5 61t63.5 18q47 0 76 -29t29 -78q0 -15 -3 -39l-32 -264h-40l32 260q4 40 4 48q0 28 -19.5 46.5t-48.5 18.5q-25 0 -51.5 -14t-44.5 -36q-23 -27 -30 -84l-30 -239h-39l29 239q6 50 6 62q0 34 -18 53t-50 19 q-51 0 -90 -39q-29 -29 -39 -103l-29 -231h-39z" />
<glyph unicode="n" horiz-adv-x="431" d="M45 0l49 400h39l-7 -61q32 39 60.5 55t65.5 16q52 0 82 -29.5t30 -79.5q0 -17 -6 -69l-28 -232h-40l29 231q4 40 6 65q1 35 -19.5 56t-57.5 21q-57 0 -97 -42q-29 -30 -38 -100l-29 -231h-39z" />
<glyph unicode="o" horiz-adv-x="520" d="M45 190q0 93 64 158t156 65q91 0 147 -58t56 -152q0 -91 -62 -153.5t-152 -62.5q-89 0 -149 58t-60 145zM86 193q0 -71 48.5 -120t118.5 -49q74 0 124 52t50 130q0 76 -45 123t-117 47q-73 0 -126 -54t-53 -129z" />
<glyph unicode="p" horiz-adv-x="516" d="M95 84l-39 -317h-39l78 633h39l-8 -68q38 42 74 60t83 18q78 0 130 -55t52 -138q0 -95 -60 -161t-146 -66q-102 0 -164 94zM104 184q0 -68 42.5 -112.5t107.5 -44.5q71 0 120.5 53t49.5 130q0 73 -41.5 118t-108.5 45q-71 0 -120.5 -55t-49.5 -134z" />
<glyph unicode="q" horiz-adv-x="520" d="M351 -233l37 301q-42 -43 -77.5 -60.5t-80.5 -17.5q-79 0 -132 56t-53 140q0 94 61.5 159t150.5 65q70 0 116 -41q21 -17 45 -54l11 85h39l-78 -633h-39zM86 181q0 -67 41.5 -110.5t105.5 -43.5q72 0 123.5 56.5t51.5 135.5q0 68 -42.5 111t-109.5 43q-73 0 -121.5 -55 t-48.5 -137z" />
<glyph unicode="r" horiz-adv-x="284" d="M45 0l49 400h39l-7 -59q35 40 59 55t54 15q24 0 55 -15l-21 -34q-27 12 -43 12q-33 0 -63 -27q-45 -39 -56 -133l-27 -214h-39z" />
<glyph unicode="s" horiz-adv-x="340" d="M27 78l32 14q29 -68 95 -68q40 0 65 24t25 63q0 28 -15 44t-58 35q-53 23 -75 48t-22 62q0 48 35 80.5t87 32.5q62 0 108 -50l-24 -23q-38 36 -82 36q-36 0 -59.5 -22t-23.5 -56q0 -25 14.5 -40t59.5 -35q55 -25 75.5 -50t20.5 -66q0 -53 -36.5 -86.5t-93.5 -33.5 q-90 0 -128 91z" />
<glyph unicode="t" horiz-adv-x="193" d="M45 0l45 364h-46l4 36h46l19 150h39l-18 -150h68l-5 -36h-68l-44 -364h-40z" />
<glyph unicode="u" horiz-adv-x="435" d="M383 400l-29 -238q-10 -83 -39 -119q-45 -53 -120 -53q-62 0 -97 35t-35 97q0 19 4 48l28 230h39l-29 -236q-4 -32 -4 -48q0 -40 26 -64.5t70 -24.5q63 0 92 45q18 27 25 84l30 244h39z" />
<glyph unicode="v" horiz-adv-x="383" d="M149 -38l-121 438h41l93 -333l183 333h46z" />
<glyph unicode="w" horiz-adv-x="649" d="M145 -36l-117 436h43l87 -333l183 338l95 -338l175 333h46l-234 -436l-94 339z" />
<glyph unicode="x" horiz-adv-x="389" d="M-8 0l177 204l-116 196h47l98 -166l139 166h53l-172 -200l118 -200h-48l-98 168l-144 -168h-54z" />
<glyph unicode="y" horiz-adv-x="372" d="M133 35l-105 365h43l88 -318l174 318h47l-346 -623h-47z" />
<glyph unicode="z" horiz-adv-x="428" d="M-1 0l343 364h-266l5 36h342l-341 -364h286l-5 -36h-364z" />
<glyph unicode="{" horiz-adv-x="240" d="M64 -27l26 209q2 16 2 25q0 27 -11 41.5t-38 22.5l3 27q41 14 53 36t22 102l23 187q6 46 22 70q27 40 86 40h21l-4 -33h-15q-34 0 -48.5 -16t-19.5 -59l-24 -190q-10 -79 -20.5 -104t-42.5 -46q20 -17 27 -33t7 -44q0 -9 -2 -25l-26 -212q-2 -24 -2 -38q0 -35 12 -49.5 t41 -14.5h11l-4 -33h-21q-38 0 -59.5 23.5t-21.5 64.5q0 24 3 49z" />
<glyph unicode="|" horiz-adv-x="500" d="M240 -167v834h43v-834h-43z" />
<glyph unicode="}" horiz-adv-x="240" d="M68 -55l24 190q10 78 20 103t42 47q-19 16 -26 32.5t-7 44.5q0 16 1 24l26 212q3 20 3 38q0 35 -12 49.5t-41 14.5h-11l4 33h21q38 0 59.5 -23.5t21.5 -64.5q0 -15 -4 -49l-25 -209q-2 -16 -2 -24q0 -27 11 -42t38 -23l-4 -27q-40 -13 -52 -35t-22 -103l-23 -186 q-6 -48 -23 -71q-27 -40 -85 -40h-21l4 33h15q34 0 48.5 16t19.5 60z" />
<glyph unicode="~" horiz-adv-x="667" d="M132 593q-9 0 -26 19q29 55 59 79t71 24q43 0 116 -38q71 -36 104 -36t58 23q26 26 34 42q5 12 10 12q8 0 26 -18q-56 -102 -129 -102q-26 0 -51.5 8.5t-81.5 37.5q-56 28 -91 28q-32 0 -55 -23q-26 -26 -35 -44q-5 -12 -9 -12z" />
<glyph unicode="&#xa1;" horiz-adv-x="248" d="M153 450q-13 0 -21.5 9t-8.5 22t9.5 22t22.5 9t21.5 -8.5t8.5 -21.5q0 -14 -9.5 -23t-22.5 -9zM56 -160l67 542h39l-67 -542h-39z" />
<glyph unicode="&#xa2;" d="M247 27l13 104q-69 14 -109.5 66t-40.5 127q0 95 58 160.5t144 68.5l10 87h34l-11 -88q65 -5 121 -56l-5 -43q-54 59 -120 65l-44 -356q44 0 73 11.5t62 43.5l-6 -50q-54 -40 -119 -40h-14l-13 -100h-33zM264 167l43 351q-66 -2 -112 -59t-46 -137q0 -123 115 -155z" />
<glyph unicode="&#xa3;" d="M19 -6l-29 25q55 65 112 76q43 65 43 136q0 17 -3 43h-103l4 33h96q-6 68 -6 105q0 126 58 197q59 72 160 72q87 0 140 -57.5t53 -150.5l-41 -11q1 7 1 16q0 72 -44.5 119t-112.5 47q-79 0 -126.5 -60.5t-47.5 -161.5q0 -39 7 -115h169l-4 -33h-163l1 -29q1 -48 -8.5 -81 t-34.5 -73q30 -1 58.5 -10.5t104.5 -43.5q33 -14 64 -14q46 0 84 31q13 13 32 34l27 -24q-40 -43 -71.5 -60t-71.5 -17q-29 0 -50 6.5t-96 39.5q-63 27 -96 27q-54 0 -106 -66z" />
<glyph unicode="&#xa4;" horiz-adv-x="667" d="M113 91l-24 24l90 90q-56 66 -56 147q0 74 53 143l-90 90l24 25l90 -91q70 56 148 56q80 0 147 -55l91 90l24 -24l-90 -90q53 -66 53 -146q0 -75 -54 -144l91 -91l-23 -24l-92 91q-67 -55 -146 -55q-77 0 -146 54zM348 163q49 0 94 26t67 67q25 46 25 97q0 76 -55 131 t-130 55q-77 0 -132 -55t-55 -133t54.5 -133t131.5 -55z" />
<glyph unicode="&#xa5;" d="M217 0l30 249h-197l5 39h197l2 14l-41 90h-145l4 39h123l-105 236h48l143 -325l227 325h56l-169 -236h129l-5 -39h-152l-72 -104h211l-5 -39h-211l-31 -249h-42z" />
<glyph unicode="&#xa6;" horiz-adv-x="500" d="M240 341v326h43v-326h-43zM240 153h43v-320h-43v320z" />
<glyph unicode="&#xa7;" d="M93 6h40q4 -48 11 -71q20 -64 101 -64q50 0 80 31.5t30 84.5q0 69 -53 103q-16 10 -72 37q-61 28 -88 64t-27 89q0 64 36 106t104 57q-48 27 -69 59t-21 78q0 70 44.5 113.5t116.5 43.5q89 0 124 -63q18 -33 18 -108h-41q-1 67 -15 92q-24 42 -88 42q-54 0 -87 -32 t-33 -84q0 -66 55 -98q16 -10 68 -35q62 -31 89 -67t27 -91q0 -61 -35.5 -105.5t-97.5 -61.5q47 -26 66.5 -57t19.5 -79q0 -70 -42 -113t-110 -43q-50 0 -86.5 22.5t-50.5 62.5q-13 37 -14 87zM278 156q53 0 88.5 38.5t35.5 95.5q0 54 -34 89.5t-86 35.5q-53 0 -89 -38.5 t-36 -93.5q0 -54 34.5 -90.5t86.5 -36.5z" />
<glyph unicode="&#xa8;" horiz-adv-x="500" d="M358 480q-12 0 -20 9t-8 22q0 15 10.5 26.5t23.5 11.5q12 0 20 -8.5t8 -21.5q0 -16 -10 -27.5t-24 -11.5zM204 480q-12 0 -20 8.5t-8 21.5q0 15 11 26.5t25 11.5q11 0 19 -9t8 -22q0 -14 -10.5 -25.5t-24.5 -11.5z" />
<glyph unicode="&#xa9;" horiz-adv-x="733" d="M36 336q0 142 102 241.5t247 99.5q138 0 238 -101.5t100 -241.5q0 -142 -100.5 -243t-242.5 -101q-143 0 -243.5 101t-100.5 245zM77 336q0 -127 88.5 -216t214.5 -89q125 0 213.5 89t88.5 214q0 123 -88.5 212.5t-209.5 89.5q-139 0 -229 -100q-78 -86 -78 -200z M515 217l-6 -51q-65 -40 -134 -40q-89 0 -146.5 55t-57.5 140q0 95 62.5 157.5t159.5 62.5q49 0 84 -14t70 -47l-6 -53q-23 30 -39 43q-44 35 -110 35q-78 0 -129 -52t-51 -131q0 -71 46 -115t120 -44q58 0 105 30q8 5 32 24z" />
<glyph unicode="&#xaa;" horiz-adv-x="373" d="M307 400l5 39q-41 -45 -98 -45q-56 0 -93.5 37t-37.5 93q0 63 42.5 106t104.5 43q67 0 104 -53l6 47h38l-33 -267h-38zM219 428q46 0 79 35t33 82q0 41 -27.5 67.5t-70.5 26.5q-47 0 -79 -32t-32 -80q0 -43 27.5 -71t69.5 -28z" />
<glyph unicode="&#xab;" horiz-adv-x="337" d="M245 29l-98 178l137 169l27 -22l-123 -152l86 -157zM135 29l-98 178l137 169l27 -22l-123 -152l86 -157z" />
<glyph unicode="&#xac;" horiz-adv-x="500" d="M45 227v40h433v-267h-43v227h-390z" />
<glyph unicode="&#xad;" horiz-adv-x="166" d="M-5 189l4 36h166l-4 -36h-166z" />
<glyph unicode="&#xae;" horiz-adv-x="733" d="M36 336q0 142 102 241.5t247 99.5q138 0 238 -101.5t100 -241.5q0 -142 -100.5 -243t-242.5 -101q-143 0 -243.5 101t-100.5 245zM77 336q0 -127 88.5 -216t214.5 -89q125 0 213.5 89t88.5 214q0 123 -88.5 212.5t-209.5 89.5q-139 0 -229 -100q-78 -86 -78 -200z M258 133l49 400h58q57 0 89.5 -25.5t32.5 -71.5q0 -53 -38 -86q-27 -25 -84 -30l127 -187h-50l-122 185l-22 -185h-40zM325 355h16q105 0 105 77q0 65 -83 65h-21z" />
<glyph unicode="&#xaf;" horiz-adv-x="500" d="M160 497l5 38h246l-5 -38h-246z" />
<glyph unicode="&#xb0;" d="M312 400q-56 0 -95 39t-39 95q0 55 39.5 94t95.5 39q54 0 93 -39.5t39 -93.5q0 -55 -39 -94.5t-94 -39.5zM312 439q38 0 66 28t28 67q0 38 -27.5 66t-65.5 28q-40 0 -68 -27.5t-28 -66.5t28 -67t67 -28z" />
<glyph unicode="&#xb1;" d="M249 110v211h-217v39h217v210h39v-210h217v-39h-217v-211h-39zM32 20v39h473v-39h-473z" />
<glyph unicode="&#xb2;" horiz-adv-x="353" d="M44 267l187 180q38 37 52.5 61t14.5 51q0 37 -24.5 61.5t-62.5 24.5q-42 0 -67.5 -27.5t-30.5 -79.5h-31q4 64 39.5 100.5t91.5 36.5q51 0 85 -32t34 -81q0 -35 -19 -66.5t-71 -80.5l-124 -118h201l-4 -30h-271z" />
<glyph unicode="&#xb3;" horiz-adv-x="353" d="M138 579h-32q21 96 109 96q48 0 79 -30t31 -77q0 -70 -72 -95q59 -27 59 -90q0 -53 -37.5 -88.5t-92.5 -35.5q-50 0 -82 28t-32 72v15h32q1 -38 10 -51q22 -34 71 -34q41 0 69 28t28 69q0 35 -20.5 54t-64.5 25l4 27q7 -1 20 -1q32 0 53 22t21 56q0 33 -22 54.5t-56 21.5 q-31 0 -49 -15.5t-26 -50.5z" />
<glyph unicode="&#xb4;" horiz-adv-x="500" d="M272 460l-21 20l115 125l34 -32z" />
<glyph unicode="&#xb5;" horiz-adv-x="435" d="M89 38l-33 -271h-39l78 633h39l-29 -236q-3 -21 -3 -48q0 -41 26 -65t69 -24q63 0 92 45q18 27 25 84l29 244h40l-29 -238q-10 -83 -39 -119q-43 -53 -119 -53q-71 0 -107 48z" />
<glyph unicode="&#xb6;" d="M184 -102l54 440h-13q-57 0 -92.5 44t-35.5 115q0 61 32 106q46 64 163 64h227l-25 -39h-42l-89 -730h-39l89 730h-99l-91 -730h-39z" />
<glyph unicode="&#xb7;" horiz-adv-x="208" d="M97 175q-11 0 -18.5 8t-7.5 19q0 14 10.5 25t24.5 11q27 0 27 -28q0 -13 -11 -24t-25 -11z" />
<glyph unicode="&#xb8;" horiz-adv-x="500" d="M223 -47l41 -23l-90 -125l-26 16z" />
<glyph unicode="&#xb9;" horiz-adv-x="353" d="M164 267l45 370h-59l19 30h77l-49 -400h-33z" />
<glyph unicode="&#xba;" horiz-adv-x="373" d="M222 389q-63 0 -105.5 39t-42.5 97q0 62 45.5 105t109.5 43t104 -39t40 -101q0 -61 -43.5 -102.5t-107.5 -41.5zM223 423q47 0 79 31.5t32 78.5t-29.5 76.5t-76.5 29.5t-81 -32.5t-34 -78.5q0 -44 32 -74.5t78 -30.5z" />
<glyph unicode="&#xbb;" horiz-adv-x="337" d="M131 59l123 152l-86 157l29 17l98 -178l-137 -169zM48 38l-27 21l123 152l-86 157l29 17l98 -178z" />
<glyph unicode="&#xbc;" horiz-adv-x="814" d="M147 12l521 664l26 -20l-521 -665zM164 267l45 370h-59l19 30h77l-49 -400h-33zM467 74l284 343l-39 -313h57l-4 -30h-56l-10 -74h-33l9 74h-208zM531 104h148l25 210z" />
<glyph unicode="&#xbd;" horiz-adv-x="814" d="M147 12l521 664l26 -20l-521 -665zM164 267l45 370h-59l19 30h77l-49 -400h-33zM472 0l187 180q37 36 52 61t15 52q0 37 -24.5 61t-62.5 24q-86 0 -97 -106h-32q5 64 40 100t91 36q51 0 85 -32t34 -80q0 -35 -19.5 -66.5t-70.5 -80.5l-124 -119h201l-4 -30h-271z" />
<glyph unicode="&#xbe;" horiz-adv-x="814" d="M147 12l521 664l25 -20l-520 -665zM138 579h-32q21 96 109 96q48 0 79 -30t31 -77q0 -70 -72 -95q59 -27 59 -90q0 -53 -37.5 -88.5t-92.5 -35.5q-50 0 -82 28t-32 72v15h32q1 -38 10 -51q22 -34 71 -34q41 0 69 28t28 69q0 35 -20.5 54t-64.5 25l4 27q7 -1 20 -1 q32 0 53 22t21 56q0 33 -22 54.5t-56 21.5q-31 0 -49 -15.5t-26 -50.5zM467 74l283 343l-38 -313h57l-4 -30h-57l-9 -74h-34l10 74h-208zM531 104h147l26 210z" />
<glyph unicode="&#xbf;" horiz-adv-x="436" d="M234 450q-13 0 -21.5 9t-8.5 22t9.5 22t22.5 9t21.5 -9t8.5 -21q0 -14 -9 -23t-23 -9zM307 7h36q-1 -51 -7.5 -77t-24.5 -48q-45 -52 -122 -52q-72 0 -117.5 42t-45.5 109q0 56 36 98q32 36 108 61q50 16 69 24t34 21q33 27 33 75q0 39 -27 64.5t-69 25.5q-43 0 -69 -25 t-28 -69h-37q2 57 39.5 92.5t94.5 35.5t94.5 -36.5t37.5 -91.5q0 -65 -49 -101q-29 -22 -109 -48q-68 -21 -95 -55q-26 -32 -26 -74q0 -50 35 -82.5t90 -32.5q74 0 103 56q15 28 16 88z" />
<glyph unicode="&#xc0;" horiz-adv-x="589" d="M362 713l-92 113l43 29l74 -124zM-3 0l366 697l179 -697h-44l-57 226h-279l-119 -226h-46zM183 265h248l-83 319z" />
<glyph unicode="&#xc1;" horiz-adv-x="589" d="M369 713l-25 20l120 122l39 -35zM-3 0l366 697l179 -697h-44l-57 226h-279l-119 -226h-46zM183 265h248l-83 319z" />
<glyph unicode="&#xc2;" horiz-adv-x="589" d="M271 713l-24 30l140 112l106 -115l-29 -27l-82 88zM-3 0l366 697l179 -697h-44l-57 226h-279l-119 -226h-46zM183 265h248l-83 319z" />
<glyph unicode="&#xc3;" horiz-adv-x="589" d="M220 755q29 67 85 67q18 0 30.5 -4t55.5 -25q33 -15 51 -15q33 0 52 39l39 -10q-33 -68 -93 -68q-32 0 -92 29q-29 15 -44 15q-27 0 -45 -38zM-3 0l366 697l179 -697h-44l-57 226h-279l-119 -226h-46zM183 265h248l-83 319z" />
<glyph unicode="&#xc4;" horiz-adv-x="589" d="M455 737q-13 0 -21.5 9t-8.5 23q0 16 10.5 27.5t25.5 11.5q13 0 21.5 -9t8.5 -22q0 -16 -11 -28t-25 -12zM295 737q-13 0 -21.5 8.5t-8.5 21.5q0 16 11.5 28t25.5 12q13 0 21 -9t8 -23q0 -15 -11 -26.5t-25 -11.5zM-3 0l366 697l179 -697h-44l-57 226h-279l-119 -226h-46 zM183 265h248l-83 319z" />
<glyph unicode="&#xc5;" horiz-adv-x="589" d="M373 713q-31 0 -53.5 22.5t-22.5 53.5t22.5 53t54.5 22q30 0 52 -22t22 -53t-22 -53.5t-53 -22.5zM372 748q17 0 29 12t12 29q0 16 -12 28t-28 12q-17 0 -29 -11.5t-12 -28.5t11.5 -29t28.5 -12zM-3 0l366 697l179 -697h-44l-57 226h-279l-119 -226h-46zM183 265h248 l-83 319z" />
<glyph unicode="&#xc6;" horiz-adv-x="844" d="M-9 0l353 667h300l8 -39h-272l63 -243h271l9 -39h-270l79 -307h269l10 -39h-315l-58 223h-280l-117 -223h-50zM178 262h252l-82 321z" />
<glyph unicode="&#xc7;" horiz-adv-x="670" d="M600 108l-7 -58q-99 -63 -205 -63q-139 0 -227.5 90.5t-88.5 231.5q0 77 27 148.5t75 121.5q95 101 247 101q110 0 184 -52q21 -14 53 -47l-7 -56q-84 115 -230 115q-125 0 -207 -82q-45 -44 -71.5 -111.5t-26.5 -137.5q0 -126 76 -204t198 -78q115 0 210 81zM263 -179 l75 132l42 -24l-89 -126z" />
<glyph unicode="&#xc8;" horiz-adv-x="457" d="M322 713l-92 113l43 29l74 -124zM71 0l82 667h307l-5 -39h-264l-30 -243h264l-5 -39h-264l-37 -307h264l-5 -39h-307z" />
<glyph unicode="&#xc9;" horiz-adv-x="457" d="M312 713l-25 20l120 122l39 -35zM71 0l82 667h307l-5 -39h-264l-30 -243h264l-5 -39h-264l-37 -307h264l-5 -39h-307z" />
<glyph unicode="&#xca;" horiz-adv-x="457" d="M221 713l-24 30l140 112l106 -115l-29 -27l-82 88zM71 0l82 667h307l-5 -39h-264l-30 -243h264l-5 -39h-264l-37 -307h264l-5 -39h-307z" />
<glyph unicode="&#xcb;" horiz-adv-x="457" d="M399 737q-13 0 -21.5 9t-8.5 23q0 16 10.5 27.5t25.5 11.5q13 0 21.5 -9t8.5 -22q0 -16 -11 -28t-25 -12zM239 737q-13 0 -21.5 8.5t-8.5 21.5q0 16 11.5 28t25.5 12q13 0 21 -9t8 -23q0 -15 -11 -26.5t-25 -11.5zM71 0l82 667h307l-5 -39h-264l-30 -243h264l-5 -39h-264 l-37 -307h264l-5 -39h-307z" />
<glyph unicode="&#xcc;" horiz-adv-x="240" d="M169 713l-83 117l41 27l67 -126zM71 0l82 667h43l-82 -667h-43z" />
<glyph unicode="&#xcd;" horiz-adv-x="240" d="M186 713l-26 20l111 122l36 -33zM71 0l82 667h43l-82 -667h-43z" />
<glyph unicode="&#xce;" horiz-adv-x="240" d="M94 713l-24 28l124 114l89 -117l-29 -25l-65 88zM71 0l82 667h42l-81 -667h-43z" />
<glyph unicode="&#xcf;" horiz-adv-x="240" d="M239 740q-13 0 -21.5 9t-8.5 23q0 16 10.5 27.5t25.5 11.5q13 0 21.5 -9t8.5 -22q0 -16 -11 -28t-25 -12zM131 740q-13 0 -21.5 8.5t-8.5 21.5q0 16 11.5 28t25.5 12q13 0 21 -9t8 -23q0 -15 -11 -26.5t-25 -11.5zM71 0l82 667h43l-82 -667h-43z" />
<glyph unicode="&#xd0;" horiz-adv-x="635" d="M70 0l43 348h-70l5 39h70l34 280h133q77 0 123 -13t82 -44q46 -40 73 -106.5t27 -140.5q0 -80 -31 -154t-87 -126q-50 -46 -108 -64.5t-156 -18.5h-138zM118 39h93q88 0 143 18.5t98 63.5q44 45 69 109.5t25 134.5q0 66 -22 122.5t-62 91.5q-31 27 -70.5 38t-106.5 11 h-95l-29 -241h186l-5 -39h-186z" />
<glyph unicode="&#xd1;" horiz-adv-x="751" d="M302 755q29 67 85 67q18 0 30.5 -4t55.5 -25q33 -15 51 -15q33 0 52 39l39 -10q-33 -68 -93 -68q-32 0 -92 29q-29 15 -44 15q-27 0 -45 -38zM71 0l85 691l437 -604l71 580h43l-85 -690l-437 604l-71 -581h-43z" />
<glyph unicode="&#xd2;" horiz-adv-x="786" d="M459 713l-92 113l43 29l74 -124zM71 304q0 81 31 156.5t85 128.5q96 91 233 91q144 0 232 -89t88 -235q0 -139 -82 -244q-98 -125 -264 -125q-142 0 -232.5 89t-90.5 228zM115 311q0 -126 78 -205t202 -79q128 0 214.5 94t86.5 235q0 138 -81 212q-80 72 -195 72 q-131 0 -218 -93.5t-87 -235.5z" />
<glyph unicode="&#xd3;" horiz-adv-x="786" d="M441 713l-25 20l120 122l39 -35zM71 304q0 81 31 156.5t85 128.5q96 91 233 91q144 0 232 -89t88 -235q0 -139 -82 -244q-98 -125 -264 -125q-142 0 -232.5 89t-90.5 228zM115 311q0 -126 78 -205t202 -79q128 0 214.5 94t86.5 235q0 138 -81 212q-80 72 -195 72 q-131 0 -218 -93.5t-87 -235.5z" />
<glyph unicode="&#xd4;" horiz-adv-x="786" d="M357 713l-24 30l140 112l106 -115l-29 -27l-82 88zM71 304q0 81 31 156.5t85 128.5q96 91 233 91q144 0 232 -89t88 -235q0 -139 -82 -244q-98 -125 -264 -125q-142 0 -232.5 89t-90.5 228zM115 311q0 -126 78 -205t202 -79q128 0 214.5 94t86.5 235q0 138 -81 212 q-80 72 -195 72q-131 0 -218 -93.5t-87 -235.5z" />
<glyph unicode="&#xd5;" horiz-adv-x="786" d="M312 755q29 67 85 67q18 0 30.5 -4t55.5 -25q33 -15 51 -15q33 0 52 39l39 -10q-33 -68 -93 -68q-32 0 -92 29q-29 15 -44 15q-27 0 -45 -38zM71 304q0 81 31 156.5t85 128.5q96 91 233 91q144 0 232 -89t88 -235q0 -139 -82 -244q-98 -125 -264 -125q-142 0 -232.5 89 t-90.5 228zM115 311q0 -126 78 -205t202 -79q128 0 214.5 94t86.5 235q0 138 -81 212q-80 72 -195 72q-131 0 -218 -93.5t-87 -235.5z" />
<glyph unicode="&#xd6;" horiz-adv-x="786" d="M536 737q-13 0 -21.5 9t-8.5 23q0 16 10.5 27.5t25.5 11.5q13 0 21.5 -9t8.5 -22q0 -16 -11 -28t-25 -12zM376 737q-13 0 -21.5 8.5t-8.5 21.5q0 16 11.5 28t25.5 12q13 0 21 -9t8 -23q0 -15 -11 -26.5t-25 -11.5zM71 304q0 81 31 156.5t85 128.5q96 91 233 91 q144 0 232 -89t88 -235q0 -139 -82 -244q-98 -125 -264 -125q-142 0 -232.5 89t-90.5 228zM115 311q0 -126 78 -205t202 -79q128 0 214.5 94t86.5 235q0 138 -81 212q-80 72 -195 72q-131 0 -218 -93.5t-87 -235.5z" />
<glyph unicode="&#xd7;" d="M106 132l-29 28l183 181l-182 185l26 24l181 -184l183 183l28 -27l-184 -183l184 -187l-26 -24l-183 186z" />
<glyph unicode="&#xd8;" horiz-adv-x="786" d="M55 35l79 73q-63 86 -63 196q0 82 31 158t85 127q96 91 234 91q140 0 232 -90l77 72l28 -30l-79 -72q61 -85 61 -201q0 -160 -98.5 -266t-247.5 -106q-140 0 -233 91l-79 -72zM167 136l454 427q-82 77 -200 77q-132 0 -219 -93.5t-87 -235.5q0 -100 52 -175zM194 105 q81 -78 202 -78q129 0 214.5 94.5t85.5 236.5q0 103 -50 175z" />
<glyph unicode="&#xd9;" horiz-adv-x="648" d="M393 713l-92 113l43 29l74 -124zM606 667l-52 -426q-13 -99 -41 -145q-67 -109 -200 -109q-112 0 -179 67q-43 43 -43 121q0 20 4 48l54 444h43l-55 -445q-4 -33 -4 -50q0 -55 30 -86q54 -59 150 -59q56 0 101 26.5t69 74.5q18 36 28 112l53 427h42z" />
<glyph unicode="&#xda;" horiz-adv-x="648" d="M378 713l-25 20l120 122l39 -35zM606 667l-52 -426q-13 -99 -41 -145q-67 -109 -200 -109q-112 0 -179 67q-43 43 -43 121q0 20 4 48l54 444h43l-55 -445q-4 -33 -4 -50q0 -55 30 -86q54 -59 150 -59q56 0 101 26.5t69 74.5q18 36 28 112l53 427h42z" />
<glyph unicode="&#xdb;" horiz-adv-x="648" d="M294 713l-24 30l140 112l106 -115l-29 -27l-82 88zM606 667l-52 -426q-13 -99 -41 -145q-67 -109 -200 -109q-112 0 -179 67q-43 43 -43 121q0 20 4 48l54 444h43l-55 -445q-4 -33 -4 -50q0 -55 30 -86q54 -59 150 -59q56 0 101 26.5t69 74.5q18 36 28 112l53 427h42z " />
<glyph unicode="&#xdc;" horiz-adv-x="648" d="M474 737q-13 0 -21.5 9t-8.5 23q0 16 10.5 27.5t25.5 11.5q13 0 21.5 -9t8.5 -22q0 -16 -11 -28t-25 -12zM314 737q-13 0 -21.5 8.5t-8.5 21.5q0 16 11.5 28t25.5 12q13 0 21 -9t8 -23q0 -15 -11 -26.5t-25 -11.5zM606 667l-52 -426q-13 -99 -41 -145q-67 -109 -200 -109 q-112 0 -179 67q-43 43 -43 121q0 20 4 48l54 444h43l-55 -445q-4 -33 -4 -50q0 -55 30 -86q54 -59 150 -59q56 0 101 26.5t69 74.5q18 36 28 112l53 427h42z" />
<glyph unicode="&#xdd;" horiz-adv-x="511" d="M312 713l-25 20l120 122l39 -35zM199 0l38 302l-164 365h48l143 -324l227 324h56l-269 -374l-36 -293h-43z" />
<glyph unicode="&#xde;" horiz-adv-x="459" d="M71 0l82 667h43l-13 -104h61q101 0 146 -44q46 -44 46 -115q0 -52 -24 -95.5t-65 -65.5q-46 -26 -146 -26h-61l-26 -217h-43zM145 256h64q83 0 118 21q65 40 65 125q0 59 -36 90.5t-104 31.5h-74z" />
<glyph unicode="&#xdf;" horiz-adv-x="467" d="M45 0l45 364h-47l4 36h47l18 141q8 60 13.5 83t18.5 43q47 74 140 74q71 0 114 -41.5t43 -109.5q0 -48 -18.5 -94t-48.5 -72q-35 -31 -96 -42q68 -17 100 -49q49 -49 49 -131q0 -93 -53.5 -153.5t-135.5 -60.5q-30 0 -73 11l5 36q35 -9 61 -9q69 0 112.5 50t43.5 129 q0 74 -47 116t-130 43l4 36q74 3 116 35q32 23 51 65t19 89q0 53 -32 84t-87 31q-78 0 -109 -71q-13 -29 -21 -95l-66 -538h-40z" />
<glyph unicode="&#xe0;" horiz-adv-x="518" d="M293 460l-86 117l39 28l71 -129zM378 0l8 71q-40 -46 -74 -63.5t-81 -17.5q-81 0 -133.5 54.5t-52.5 139.5q0 97 60 161.5t150 64.5q53 0 90 -20.5t72 -70.5l10 81h39l-49 -400h-39zM86 187q0 -69 42 -114.5t106 -45.5q70 0 122.5 58t52.5 136q0 67 -42 109.5t-107 42.5 q-74 0 -124 -53.5t-50 -132.5z" />
<glyph unicode="&#xe1;" horiz-adv-x="518" d="M285 460l-21 20l115 125l34 -32zM378 0l8 71q-40 -46 -74 -63.5t-81 -17.5q-81 0 -133.5 54.5t-52.5 139.5q0 97 60 161.5t150 64.5q53 0 90 -20.5t72 -70.5l10 81h39l-49 -400h-39zM86 187q0 -69 42 -114.5t106 -45.5q70 0 122.5 58t52.5 136q0 67 -42 109.5t-107 42.5 q-74 0 -124 -53.5t-50 -132.5z" />
<glyph unicode="&#xe2;" horiz-adv-x="518" d="M204 460l-23 25l133 123l97 -125l-28 -23l-75 97zM378 0l8 71q-40 -46 -74 -63.5t-81 -17.5q-81 0 -133.5 54.5t-52.5 139.5q0 97 60 161.5t150 64.5q53 0 90 -20.5t72 -70.5l10 81h39l-49 -400h-39zM86 187q0 -69 42 -114.5t106 -45.5q70 0 122.5 58t52.5 136 q0 67 -42 109.5t-107 42.5q-74 0 -124 -53.5t-50 -132.5z" />
<glyph unicode="&#xe3;" horiz-adv-x="518" d="M173 494q29 65 78 65q16 0 29 -5t46 -26q24 -14 39 -14q27 0 52 40l32 -10q-29 -66 -87 -66q-25 0 -75 29q-27 16 -39 16q-25 0 -42 -38zM378 0l8 71q-40 -46 -74 -63.5t-81 -17.5q-81 0 -133.5 54.5t-52.5 139.5q0 97 60 161.5t150 64.5q53 0 90 -20.5t72 -70.5l10 81 h39l-49 -400h-39zM86 187q0 -69 42 -114.5t106 -45.5q70 0 122.5 58t52.5 136q0 67 -42 109.5t-107 42.5q-74 0 -124 -53.5t-50 -132.5z" />
<glyph unicode="&#xe4;" horiz-adv-x="518" d="M377 480q-12 0 -20 9t-8 22q0 15 10.5 26.5t23.5 11.5q12 0 20 -8.5t8 -21.5q0 -16 -10 -27.5t-24 -11.5zM223 480q-12 0 -20 8.5t-8 21.5q0 15 11 26.5t25 11.5q11 0 19 -9t8 -22q0 -14 -10.5 -25.5t-24.5 -11.5zM378 0l8 71q-40 -46 -74 -63.5t-81 -17.5 q-81 0 -133.5 54.5t-52.5 139.5q0 97 60 161.5t150 64.5q53 0 90 -20.5t72 -70.5l10 81h39l-49 -400h-39zM86 187q0 -69 42 -114.5t106 -45.5q70 0 122.5 58t52.5 136q0 67 -42 109.5t-107 42.5q-74 0 -124 -53.5t-50 -132.5z" />
<glyph unicode="&#xe5;" horiz-adv-x="518" d="M299 460q-31 0 -53.5 22t-22.5 54q0 31 22.5 53t54.5 22q30 0 52 -22t22 -53t-22 -53.5t-53 -22.5zM298 495q17 0 29 12t12 29q0 16 -12 28t-28 12q-17 0 -29 -11.5t-12 -28.5t11.5 -29t28.5 -12zM378 0l8 71q-40 -46 -74 -63.5t-81 -17.5q-81 0 -133.5 54.5t-52.5 139.5 q0 97 60 161.5t150 64.5q53 0 90 -20.5t72 -70.5l10 81h39l-49 -400h-39zM86 187q0 -69 42 -114.5t106 -45.5q70 0 122.5 58t52.5 136q0 67 -42 109.5t-107 42.5q-74 0 -124 -53.5t-50 -132.5z" />
<glyph unicode="&#xe6;" horiz-adv-x="749" d="M641 86l27 -20q-66 -79 -160 -79q-119 0 -167 106q-16 -51 -55.5 -78.5t-95.5 -27.5q-68 0 -112 38.5t-44 96.5t46 97t115 39q84 0 132 -61l4 33l6 39q3 15 3 31q0 80 -134 80q-43 0 -103 -10l5 37q60 10 103 10q71 0 115 -26q31 -18 43 -63q39 51 71.5 70t80.5 19 q80 0 127 -57t48 -155h-332l-1 -37q-1 -66 34 -101q43 -43 111 -43q40 0 70.5 14t62.5 48zM371 241h286q-9 68 -44 103.5t-92 35.5q-56 0 -95 -36t-55 -103zM75 122q0 -42 33 -70t83 -28q53 0 89.5 29.5t36.5 73.5q0 40 -34.5 67t-87.5 27q-52 0 -86 -28t-34 -71z" />
<glyph unicode="&#xe7;" horiz-adv-x="425" d="M366 77l-6 -50q-52 -40 -120 -40q-87 0 -141.5 55t-54.5 142q0 98 61 163.5t152 65.5q79 0 143 -57l-5 -43q-37 36 -66.5 49.5t-70.5 13.5q-75 0 -124 -55t-49 -138q0 -73 43.5 -116t115.5 -43q35 0 61.5 11.5t60.5 41.5zM199 -47l41 -23l-90 -125l-26 16z" />
<glyph unicode="&#xe8;" horiz-adv-x="469" d="M266 460l-86 117l39 28l71 -129zM360 90l27 -19q-36 -46 -71 -65t-85 -19q-83 0 -135 53.5t-52 138.5q0 103 56.5 170.5t142.5 67.5q54 0 96 -28.5t62 -78.5q13 -35 16 -103h-334v-28q0 -68 42 -111.5t109 -43.5q39 0 67.5 15t58.5 51zM89 243h289q-5 47 -22 75 q-40 62 -114 62q-70 0 -116 -55q-24 -31 -37 -82z" />
<glyph unicode="&#xe9;" horiz-adv-x="469" d="M255 460l-21 20l115 125l34 -32zM360 90l27 -19q-36 -46 -71 -65t-85 -19q-83 0 -135 53.5t-52 138.5q0 103 56.5 170.5t142.5 67.5q54 0 96 -28.5t62 -78.5q13 -35 16 -103h-334v-28q0 -68 42 -111.5t109 -43.5q39 0 67.5 15t58.5 51zM89 243h289q-5 47 -22 75 q-40 62 -114 62q-70 0 -116 -55q-24 -31 -37 -82z" />
<glyph unicode="&#xea;" horiz-adv-x="469" d="M181 460l-23 25l133 123l97 -125l-28 -23l-75 97zM360 90l27 -19q-36 -46 -71 -65t-85 -19q-83 0 -135 53.5t-52 138.5q0 103 56.5 170.5t142.5 67.5q54 0 96 -28.5t62 -78.5q13 -35 16 -103h-334v-28q0 -68 42 -111.5t109 -43.5q39 0 67.5 15t58.5 51zM89 243h289 q-5 47 -22 75q-40 62 -114 62q-70 0 -116 -55q-24 -31 -37 -82z" />
<glyph unicode="&#xeb;" horiz-adv-x="469" d="M352 480q-12 0 -20 9t-8 22q0 15 10.5 26.5t23.5 11.5q12 0 20 -8.5t8 -21.5q0 -16 -10 -27.5t-24 -11.5zM198 480q-12 0 -20 8.5t-8 21.5q0 15 11 26.5t25 11.5q11 0 19 -9t8 -22q0 -14 -10.5 -25.5t-24.5 -11.5zM360 90l27 -19q-36 -46 -71 -65t-85 -19 q-83 0 -135 53.5t-52 138.5q0 103 56.5 170.5t142.5 67.5q54 0 96 -28.5t62 -78.5q13 -35 16 -103h-334v-28q0 -68 42 -111.5t109 -43.5q39 0 67.5 15t58.5 51zM89 243h289q-5 47 -22 75q-40 62 -114 62q-70 0 -116 -55q-24 -31 -37 -82z" />
<glyph unicode="&#xec;" horiz-adv-x="186" d="M117 460l-80 117l39 28l65 -129zM46 0l49 400h39l-49 -400h-39z" />
<glyph unicode="&#xed;" horiz-adv-x="186" d="M129 460l-21 20l108 125l34 -32zM45 0l49 400h40l-50 -400h-39z" />
<glyph unicode="&#xee;" horiz-adv-x="186" d="M45 460l-24 23l116 125l80 -126l-28 -22l-57 93zM45 0l49 400h40l-49 -400h-40z" />
<glyph unicode="&#xef;" horiz-adv-x="186" d="M180 480q-12 0 -20 9t-8 22q0 15 10.5 26.5t23.5 11.5t21 -8.5t8 -21.5q0 -16 -10.5 -27.5t-24.5 -11.5zM78 480q-12 0 -20 8.5t-8 21.5q0 15 11 26.5t25 11.5q11 0 19 -9t8 -22q0 -14 -10.5 -25.5t-24.5 -11.5zM45 0l49 400h40l-50 -400h-39z" />
<glyph unicode="&#xf0;" horiz-adv-x="522" d="M396 685l-83 -44q72 -65 115 -171t43 -221q0 -112 -43 -175q-27 -40 -74 -63.5t-99 -23.5q-88 0 -149 58.5t-61 143.5q0 43 18 87t49 75q60 62 152 62q96 0 161 -76q-14 81 -55 160.5t-93 125.5l-102 -53l-19 31l88 47q-45 33 -117 50l19 30q80 -19 135 -61l95 47z M86 193q0 -71 48.5 -120t119.5 -49q74 0 124 52.5t50 129.5q0 76 -45 123.5t-117 47.5q-74 0 -127 -54t-53 -130z" />
<glyph unicode="&#xf1;" horiz-adv-x="431" d="M126 494q29 65 78 65q16 0 29 -5t46 -26q24 -14 39 -14q27 0 52 40l32 -10q-29 -66 -87 -66q-25 0 -75 29q-27 16 -39 16q-25 0 -42 -38zM45 0l49 400h39l-7 -61q32 39 60.5 55t65.5 16q52 0 82 -29.5t30 -79.5q0 -17 -6 -69l-28 -232h-40l29 231q4 40 6 65 q1 35 -19.5 56t-57.5 21q-57 0 -97 -42q-29 -30 -38 -100l-29 -231h-39z" />
<glyph unicode="&#xf2;" horiz-adv-x="520" d="M292 460l-86 117l39 28l71 -129zM45 190q0 93 64 158t156 65q91 0 147 -58t56 -152q0 -91 -62 -153.5t-152 -62.5q-89 0 -149 58t-60 145zM86 193q0 -71 48.5 -120t118.5 -49q74 0 124 52t50 130q0 76 -45 123t-117 47q-73 0 -126 -54t-53 -129z" />
<glyph unicode="&#xf3;" horiz-adv-x="520" d="M288 460l-21 20l115 125l34 -32zM45 190q0 93 64 158t156 65q91 0 147 -58t56 -152q0 -91 -62 -153.5t-152 -62.5q-89 0 -149 58t-60 145zM86 193q0 -71 48.5 -120t118.5 -49q74 0 124 52t50 130q0 76 -45 123t-117 47q-73 0 -126 -54t-53 -129z" />
<glyph unicode="&#xf4;" horiz-adv-x="520" d="M197 460l-24 25l141 123l103 -123l-27 -25l-82 97zM45 190q0 93 64 158t156 65q91 0 147 -58t56 -152q0 -91 -62 -153.5t-152 -62.5q-89 0 -149 58t-60 145zM86 193q0 -71 48.5 -120t118.5 -49q74 0 124 52t50 130q0 76 -45 123t-117 47q-73 0 -126 -54t-53 -129z" />
<glyph unicode="&#xf5;" horiz-adv-x="520" d="M169 494q29 65 78 65q16 0 29 -5t46 -26q24 -14 39 -14q27 0 52 40l32 -10q-29 -66 -87 -66q-25 0 -75 29q-27 16 -39 16q-25 0 -42 -38zM45 190q0 93 64 158t156 65q91 0 147 -58t56 -152q0 -91 -62 -153.5t-152 -62.5q-89 0 -149 58t-60 145zM86 193q0 -71 48.5 -120 t118.5 -49q74 0 124 52t50 130q0 76 -45 123t-117 47q-73 0 -126 -54t-53 -129z" />
<glyph unicode="&#xf6;" horiz-adv-x="520" d="M370 480q-12 0 -20 9t-8 22q0 15 10.5 26.5t23.5 11.5q12 0 20 -8.5t8 -21.5q0 -16 -10 -27.5t-24 -11.5zM216 480q-12 0 -20 8.5t-8 21.5q0 15 11 26.5t25 11.5q11 0 19 -9t8 -22q0 -14 -10.5 -25.5t-24.5 -11.5zM45 190q0 93 64 158t156 65q91 0 147 -58t56 -152 q0 -91 -62 -153.5t-152 -62.5q-89 0 -149 58t-60 145zM86 193q0 -71 48.5 -120t118.5 -49q74 0 124 52t50 130q0 76 -45 123t-117 47q-73 0 -126 -54t-53 -129z" />
<glyph unicode="&#xf7;" d="M287 413q-14 0 -24 10t-10 24q0 15 10 25t25 10q14 0 24 -10t10 -25q0 -14 -10.5 -24t-24.5 -10zM50 321v39h473v-39h-473zM253 231q0 15 10 25t25 10q14 0 24 -10t10 -25q0 -14 -10.5 -24t-24.5 -10t-24 10t-10 24z" />
<glyph unicode="&#xf8;" horiz-adv-x="520" d="M25 8l61 59q-40 53 -40 123q0 93 64 158t156 65q90 0 143 -55l64 60l24 -27l-65 -59q36 -59 36 -127q0 -92 -61.5 -155t-151.5 -63q-84 0 -146 54l-62 -60zM118 92l260 242q-45 42 -112 42q-74 0 -126.5 -54t-52.5 -130q0 -52 31 -100zM141 67q46 -43 113 -43 q74 0 123.5 52.5t49.5 130.5q0 57 -26 100z" />
<glyph unicode="&#xf9;" horiz-adv-x="435" d="M253 460l-86 117l39 28l71 -129zM383 400l-29 -238q-10 -83 -39 -119q-45 -53 -120 -53q-62 0 -97 35t-35 97q0 19 4 48l28 230h39l-29 -236q-4 -32 -4 -48q0 -40 26 -64.5t70 -24.5q63 0 92 45q18 27 25 84l30 244h39z" />
<glyph unicode="&#xfa;" horiz-adv-x="435" d="M246 460l-21 20l115 125l34 -32zM383 400l-29 -238q-10 -83 -39 -119q-45 -53 -120 -53q-62 0 -97 35t-35 97q0 19 4 48l28 230h39l-29 -236q-4 -32 -4 -48q0 -40 26 -64.5t70 -24.5q63 0 92 45q18 27 25 84l30 244h39z" />
<glyph unicode="&#xfb;" horiz-adv-x="435" d="M161 460l-23 25l133 123l97 -125l-28 -23l-75 97zM383 400l-29 -238q-10 -83 -39 -119q-45 -53 -120 -53q-62 0 -97 35t-35 97q0 19 4 48l28 230h39l-29 -236q-4 -32 -4 -48q0 -40 26 -64.5t70 -24.5q63 0 92 45q18 27 25 84l30 244h39z" />
<glyph unicode="&#xfc;" horiz-adv-x="435" d="M331 480q-12 0 -20 9t-8 22q0 15 10.5 26.5t23.5 11.5q12 0 20 -8.5t8 -21.5q0 -16 -10 -27.5t-24 -11.5zM177 480q-12 0 -20 8.5t-8 21.5q0 15 11 26.5t25 11.5q11 0 19 -9t8 -22q0 -14 -10.5 -25.5t-24.5 -11.5zM383 400l-29 -238q-10 -83 -39 -119q-45 -53 -120 -53 q-62 0 -97 35t-35 97q0 19 4 48l28 230h39l-29 -236q-4 -32 -4 -48q0 -40 26 -64.5t70 -24.5q63 0 92 45q18 27 25 84l30 244h39z" />
<glyph unicode="&#xfd;" horiz-adv-x="372" d="M209 460l-21 20l115 125l34 -32zM133 35l-105 365h43l88 -318l174 318h47l-346 -623h-47z" />
<glyph unicode="&#xfe;" horiz-adv-x="516" d="M95 84l-39 -317h-39l118 962h40l-49 -397q38 42 74 60t82 18q79 0 131 -55.5t52 -138.5q0 -95 -60 -160.5t-148 -65.5q-100 0 -162 94zM104 184q0 -68 42.5 -112.5t107.5 -44.5q71 0 120.5 53t49.5 130q0 73 -41.5 118t-108.5 45q-71 0 -120.5 -55t-49.5 -134z" />
<glyph unicode="&#xff;" horiz-adv-x="372" d="M300 480q-12 0 -20 9t-8 22q0 15 10.5 26.5t23.5 11.5q12 0 20 -8.5t8 -21.5q0 -16 -10 -27.5t-24 -11.5zM146 480q-12 0 -20 8.5t-8 21.5q0 15 11 26.5t25 11.5q11 0 19 -9t8 -22q0 -14 -10.5 -25.5t-24.5 -11.5zM133 35l-105 365h43l88 -318l174 318h47l-346 -623h-47z " />
<glyph unicode="&#x152;" horiz-adv-x="1045" d="M660 0l17 142q-62 -82 -128 -118.5t-154 -36.5q-139 0 -231 92t-92 230q0 74 28 147t75 123q96 102 246 102q117 0 201 -65q32 -25 52 -53.5t45 -82.5l23 187h305l-5 -39h-262l-30 -245h262l-4 -39h-263l-37 -305h262l-5 -39h-305zM116 303q0 -120 78.5 -198t199.5 -78 q130 0 217 93t87 232q0 129 -73 204q-38 40 -92.5 62.5t-112.5 22.5q-56 0 -109.5 -21.5t-92.5 -58.5q-46 -43 -74 -113.5t-28 -144.5z" />
<glyph unicode="&#x153;" horiz-adv-x="855" d="M746 88l28 -16q-65 -85 -157 -85q-61 0 -111 32q-38 26 -64 86q-68 -118 -190 -118q-91 0 -148.5 59t-57.5 151q0 95 61.5 157.5t155.5 62.5q76 0 133 -45q37 -29 60 -82q25 50 48 73q52 54 128 54q51 0 92 -26.5t61 -71.5q18 -41 18 -114h-334v-32q0 -74 48 -113 q42 -36 102 -36q39 0 67.5 14.5t59.5 49.5zM476 241h290q-7 56 -27 85q-38 54 -107 54q-75 0 -121 -60q-22 -28 -35 -79zM87 196q0 -76 46 -124t119 -48q76 0 129 55.5t53 135.5q0 77 -52 122q-50 43 -118 43q-78 0 -127.5 -51.5t-49.5 -132.5z" />
<glyph unicode="&#x178;" horiz-adv-x="511" d="M403 737q-13 0 -21.5 9t-8.5 23q0 16 10.5 27.5t25.5 11.5q13 0 21.5 -9t8.5 -22q0 -16 -11 -28t-25 -12zM243 737q-13 0 -21.5 8.5t-8.5 21.5q0 16 11.5 28t25.5 12q13 0 21 -9t8 -23q0 -15 -11 -26.5t-25 -11.5zM199 0l38 302l-164 365h48l143 -324l227 324h56 l-269 -374l-36 -293h-43z" />
<glyph unicode="&#x2c6;" horiz-adv-x="500" d="M191 460l-23 25l133 123l97 -125l-28 -23l-75 97z" />
<glyph unicode="&#x2dc;" horiz-adv-x="500" d="M153 494q29 65 78 65q16 0 29 -5t46 -26q24 -14 39 -14q27 0 52 40l32 -10q-29 -66 -87 -66q-25 0 -75 29q-27 16 -39 16q-25 0 -42 -38z" />
<glyph unicode="&#x2000;" horiz-adv-x="432" />
<glyph unicode="&#x2001;" horiz-adv-x="864" />
<glyph unicode="&#x2002;" horiz-adv-x="432" />
<glyph unicode="&#x2003;" horiz-adv-x="864" />
<glyph unicode="&#x2004;" horiz-adv-x="288" />
<glyph unicode="&#x2005;" horiz-adv-x="216" />
<glyph unicode="&#x2006;" horiz-adv-x="144" />
<glyph unicode="&#x2007;" horiz-adv-x="144" />
<glyph unicode="&#x2008;" horiz-adv-x="108" />
<glyph unicode="&#x2009;" horiz-adv-x="172" />
<glyph unicode="&#x200a;" horiz-adv-x="48" />
<glyph unicode="&#x2010;" horiz-adv-x="166" d="M-5 189l4 36h166l-4 -36h-166z" />
<glyph unicode="&#x2011;" horiz-adv-x="166" d="M-5 189l4 36h166l-4 -36h-166z" />
<glyph unicode="&#x2012;" horiz-adv-x="166" d="M-5 189l4 36h166l-4 -36h-166z" />
<glyph unicode="&#x2013;" d="M126 189l4 36h285l-4 -36h-285z" />
<glyph unicode="&#x2014;" horiz-adv-x="497" d="M-5 189l4 36h497l-4 -36h-497z" />
<glyph unicode="&#x2018;" horiz-adv-x="257" d="M144 511l-34 18l107 168l23 -13z" />
<glyph unicode="&#x2019;" horiz-adv-x="244" d="M133 511l-23 12l96 174l34 -18z" />
<glyph unicode="&#x201a;" horiz-adv-x="208" d="M-13 -78l96 173l34 -18l-107 -168z" />
<glyph unicode="&#x201c;" horiz-adv-x="377" d="M263 511l-33 18l107 168l23 -13zM144 511l-34 18l107 168l23 -13z" />
<glyph unicode="&#x201d;" horiz-adv-x="377" d="M252 511l-22 12l96 174l34 -18zM133 511l-23 12l96 174l34 -18z" />
<glyph unicode="&#x201e;" horiz-adv-x="377" d="M155 -87l96 174l34 -18l-108 -168zM35 -87l96 174l34 -18l-107 -168z" />
<glyph unicode="&#x2022;" horiz-adv-x="667" d="M208 338q0 58 41 98.5t100 40.5q55 0 95.5 -41t40.5 -97q0 -58 -40.5 -98.5t-97.5 -40.5t-98 41t-41 97z" />
<glyph unicode="&#x2026;" horiz-adv-x="566" d="M416 23q0 13 9 22.5t23 9.5q13 0 21.5 -9t8.5 -22t-9.5 -22t-22.5 -9t-21.5 8.5t-8.5 21.5zM227 23q0 13 9.5 22.5t22.5 9.5t21.5 -9t8.5 -22t-9.5 -22t-22.5 -9t-21.5 8.5t-8.5 21.5zM39 23q0 13 9.5 22.5t22.5 9.5t21.5 -9t8.5 -22t-9.5 -22t-22.5 -9t-21.5 8.5 t-8.5 21.5z" />
<glyph unicode="&#x202f;" horiz-adv-x="172" />
<glyph unicode="&#x2039;" horiz-adv-x="227" d="M135 29l-98 178l137 169l27 -22l-123 -152l86 -157z" />
<glyph unicode="&#x203a;" horiz-adv-x="227" d="M48 38l-27 21l123 152l-86 157l29 17l98 -178z" />
<glyph unicode="&#x205f;" horiz-adv-x="216" />
<glyph unicode="&#x20ac;" horiz-adv-x="731" d="M576 275h-426q10 -78 44 -130q37 -55 99 -86.5t135 -31.5q150 0 239 124l-5 -72q-95 -92 -235 -92q-133 0 -222.5 80t-99.5 208h-63l20 41h43q0 16 3 41h-60l20 41h47q29 128 121 205t218 77q170 0 260 -125l-22 -42q-76 127 -238 127q-110 0 -189 -65t-107 -177h479 l-20 -41h-466q-1 -4 -3 -41h448z" />
<glyph unicode="&#x2122;" horiz-adv-x="771" d="M262 287l204 402l74 -324l163 327l90 -405h-41l-63 294l-162 -323l-75 324l-147 -295h-43zM131 287l42 345h-104l4 35h245l-4 -35h-102l-42 -345h-39z" />
<glyph unicode="&#x25fc;" horiz-adv-x="400" d="M0 400h400v-400h-400v400z" />
</font>
</defs>
</svg>
