<?xml version="1.0" encoding="iso-8859-1"?>
<!-- Generator: Adobe Illustrator 21.0.0, SVG Export Plug-In . SVG Version: 6.00 Build 0)  -->
<svg version="1.1" id="Layer_1" xmlns="http://www.w3.org/2000/svg" xmlns:xlink="http://www.w3.org/1999/xlink" x="0px" y="0px"
	 viewBox="0 0 200 200" style="enable-background:new 0 0 200 200;" xml:space="preserve">
<style type="text/css">
	.st0{fill:#FFFFFF;stroke:#231F20;stroke-miterlimit:10;}
	.st1{fill:#FFFFFF;}
	.st2{fill:#FFB81A;}
	.st3{fill:none;}
	.st4{fill:none;stroke:#FFB81A;stroke-width:2.9184;stroke-miterlimit:10;}
	.st5{fill:#F9773E;}
	.st6{fill:#71A8A8;}
	.st7{fill:#53848C;}
	.st8{fill:none;stroke:#FFFFFF;stroke-width:6;stroke-miterlimit:10;}
	.st9{fill:#345D6E;}
	.st10{fill:none;stroke:#FFFFFF;stroke-width:1.4167;stroke-miterlimit:10;}
	.st11{fill:none;stroke:#FFFFFF;stroke-width:1.4167;stroke-miterlimit:1;}
	.st12{fill:none;stroke:#FFFFFF;stroke-width:1.4167;stroke-linecap:round;stroke-miterlimit:10;}
	.st13{fill:none;stroke:#6B989F;stroke-width:2;stroke-miterlimit:10;}
	.st14{opacity:0.5;fill:#6B989F;enable-background:new    ;}
	.st15{fill:#335E6E;}
	.st16{fill:#6B989F;}
	.st17{fill:none;stroke:#FFB81A;stroke-width:2;stroke-linecap:round;stroke-miterlimit:10;}
	.st18{fill:#FF7931;}
	.st19{fill:none;stroke:#FFB81A;stroke-width:3;stroke-linecap:round;stroke-linejoin:round;stroke-miterlimit:10;}
	.st20{fill:none;stroke:#E03F07;stroke-width:3;stroke-miterlimit:10;}
	.st21{fill:none;stroke:#FFB81A;stroke-width:4;stroke-miterlimit:10;}
	.st22{fill:none;stroke:#335E6E;stroke-miterlimit:10;}
	.st23{fill:none;stroke:#6B989F;stroke-miterlimit:10;}
	.st24{fill:none;stroke:#6B989F;stroke-width:0.7797;stroke-miterlimit:10;}
	.st25{fill:#262626;}
	.st26{fill:none;stroke:#FFB81A;stroke-width:2.4838;stroke-miterlimit:10;}
	.st27{fill:none;stroke:#F9773E;stroke-miterlimit:10;}
</style>
<symbol  id="New_Symbol" viewBox="-10.3 -10.3 20.6 20.6">
	<polygon class="st0" points="9.8,-9.8 -9.8,-9.8 -9.8,9.8 9.8,9.8 	"/>
</symbol>
<g id="first_x60_17x17">
	
		<use xlink:href="#New_Symbol"  width="20.6" height="20.6" x="-10.3" y="-10.3" transform="matrix(0.7046 0 0 -0.7046 7.2574 7.2574)" style="overflow:visible;"/>
</g>
<g id="ep5-badge_x60_29x32">
	<path id="_x3E_white_1_" class="st1" d="M22.599,8.5H5.8v6.9h0.098v6.462l7.933,2.203l0.535-1.935l-6.468-1.797v-5.339h9.001v0.257
		c-0.101,0.495-0.286,1.021-0.632,1.396c-0.347,0.362-0.828,0.55-1.468,0.55h-2.6h-0.6v2h0.6h2.6h3.8v3.801h2v-3.801h2L22.599,8.5
		L22.599,8.5z M13.199,10.5v2.503H11.5V10.5H13.199z M7.8,13.003V10.5h1.7v2.503H7.8z M15.199,13.003V10.5h1.7v2.503H15.199z
		 M20.599,17.199h-1.7v-1.704c0.141-0.795,0.106-1.438,0.097-1.563l-0.066-0.929h-0.031V10.5h1.7V17.199z"/>
	<g id="_x3E_yellow_3_">
		<g>
			<path class="st2" d="M14.199,2.4l12,6.299V22.4l-12,6.299l-12-6.299V8.699L14.199,2.4 M14.199,0L0,7.399v16.396l14.199,7.396
				l14.2-7.396V7.4L14.199,0L14.199,0z"/>
		</g>
	</g>
</g>
<g id="ep4-badge_x60_29x32">
	<g id="_x3E_white_4_">
		<rect x="19.383" y="21.405" class="st1" width="8.213" height="2.123"/>
		<rect x="1.415" y="21.405" class="st1" width="7.354" height="2.123"/>
	</g>
	<g id="_x3E_yellow_4_">
		<path id="XMLID_403_" class="st2" d="M14.152,2.396l12.029,6.296v13.75l-12.029,6.297L2.123,22.442V8.692L14.152,2.396 M14.152,0
			L0,7.408v16.313l14.152,7.408l14.152-7.408V7.408L14.152,0L14.152,0z"/>
		<path class="st2" d="M14.144,10.56c-1.564,0-2.836-1.271-2.836-2.836c0-1.562,1.272-2.835,2.836-2.835
			c1.563,0,2.835,1.272,2.835,2.835C16.98,9.288,15.708,10.56,14.144,10.56z M14.144,6.688c-0.571,0-1.036,0.472-1.036,1.036
			c0,0.571,0.465,1.036,1.036,1.036s1.036-0.465,1.036-1.036C15.18,7.153,14.715,6.688,14.144,6.688z"/>
		<path class="st2" d="M18.812,19.475l1.638-0.746l-2.858-6.271l0.25-1.139h-7.395l0.248,1.128l-2.863,6.275l1.638,0.746
			l1.869-4.101l0.56,2.548l-0.651,7.104v0.688h1.8l-0.004-0.604l0.584-6.348h1.033l0.58,6.266v0.688h1.8l-0.004-0.771l-0.646-7.021
			l0.558-2.536L18.812,19.475z M13.531,16.964l-0.846-3.846h2.918l-0.845,3.846H13.531z"/>
	</g>
</g>
<g id="ep3-badge_x60_29x32">
	<polygon id="_x3E_white_2_" class="st1" points="14.2,4.17 3.825,9.626 4.756,11.396 14.2,6.43 21.974,10.517 12.851,15.275 
		13.776,17.048 22.901,12.289 22.901,14 22.901,14.696 12.849,19.98 13.78,21.751 22.901,16.956 22.901,17.898 22.901,19.296 
		12.849,24.58 13.78,26.351 22.901,21.556 22.901,25.699 24.901,25.699 24.901,20.504 24.901,17.898 24.901,15.904 24.901,14 
		24.901,9.796 	"/>
	<g id="_x3E_yellow_2_">
		<g id="XMLID_68_">
			<path class="st2" d="M21.901,14.3c-0.1,0.396-0.4,0.7-0.8,0.7c-0.4,0-0.6-0.304-0.5-0.7c0.1-0.396,0.4-0.7,0.8-0.7
				S21.901,13.9,21.901,14.3z"/>
		</g>
		<g id="XMLID_67_">
			<path class="st2" d="M21.901,18.9c-0.1,0.396-0.4,0.689-0.8,0.689c-0.4,0-0.6-0.3-0.5-0.689c0.1-0.397,0.4-0.701,0.8-0.701
				S21.901,18.5,21.901,18.9z"/>
		</g>
		<g id="XMLID_66_">
			<path class="st2" d="M21.901,23.6c-0.1,0.4-0.4,0.7-0.8,0.7c-0.4,0-0.6-0.3-0.5-0.7c0.1-0.396,0.4-0.689,0.8-0.689
				S21.901,23.199,21.901,23.6z"/>
		</g>
		<path class="st2" d="M28.4,7.399L14.2,0L0,7.397v16.396l14.2,7.396l0.048-0.025l0.052,0.027v-0.062l14.1-7.344L28.4,7.399
			L28.4,7.399z M12.1,27.597l-9.9-5.188v-11.5l9.9,5.189V27.597z M26.2,22.4l-11.9,6.246V14.8L2.395,8.597L14.2,2.4l12,6.299V22.4z"
			/>
	</g>
</g>
<g id="ep2-badge_x60_29x32">
	<g id="_x3E_white">
		<polygon class="st1" points="12.195,15.863 13.205,14.137 6.982,10.492 11.964,7.886 11.037,6.114 4,9.795 4,17.9 6,17.9 
			6,12.235 		"/>
		<polygon class="st1" points="15.2,24.048 15.2,17.1 13.2,17.1 13.2,24.06 8.058,21.411 7.142,23.189 14.203,26.826 21.163,23.186 
			20.237,21.414 		"/>
		<polygon class="st1" points="17.163,6.114 16.237,7.886 21.271,10.52 15.094,14.137 16.105,15.863 22.2,12.293 22.2,17.9 
			24.2,17.9 24.2,9.795 		"/>
	</g>
	<g id="_x3E_yellow_1_">
		<g>
			<path class="st2" d="M14.2,2.4l12,6.299V22.4l-12,6.299L2.2,22.4V8.699L14.2,2.4 M14.2,0L0,7.397v16.396l14.2,7.396l14.2-7.396
				V7.397L14.2,0L14.2,0z"/>
		</g>
	</g>
</g>
<g id="ep1-badge_x60_29x32">
	<g id="_x3E_white_3_">
		<polygon class="st1" points="7.798,10.884 6.402,12.315 8.642,14.5 1.501,14.5 1.501,16.5 8.727,16.5 6.384,18.901 7.816,20.298 
			12.515,15.482 		"/>
		<polygon class="st1" points="18.907,9.207 17.493,7.793 15.2,10.086 15.2,2.1 13.2,2.1 13.2,10.086 10.907,7.793 9.493,9.207 
			14.2,13.914 		"/>
		<polygon class="st1" points="9.502,21.884 10.898,23.315 13.2,21.071 13.2,29 15.2,29 15.2,21.071 17.502,23.315 18.898,21.884 
			14.2,17.303 		"/>
		<polygon class="st1" points="27.7,14.5 19.702,14.5 21.989,12.324 20.61,10.875 15.768,15.482 20.593,20.307 22.007,18.893 
			19.614,16.5 27.7,16.5 		"/>
	</g>
	<g id="_x3E_yellow">
		<g>
			<path class="st2" d="M14.2,2.4l12,6.299V22.4l-12,6.299L2.2,22.4V8.699L14.2,2.4 M14.2,0L0,7.397v16.396l14.2,7.396l14.2-7.396
				V7.397L14.2,0L14.2,0z"/>
		</g>
	</g>
</g>
<g id="rank-badge-master-cadet_x60_29x40">
	<polygon class="st1" points="26.5,0 27.3,1.7 29,2 27.8,3.2 28.099,5 26.5,4.2 25,5 25.3,3.2 24.099,2 25.8,1.7 	"/>
	<polygon class="st1" points="2.5,0 3.201,1.7 4.901,2 3.701,3.2 4,5 2.5,4.2 1,5 1.3,3.2 0,2 1.8,1.7 	"/>
	<polygon class="st2" points="11.5,29.3 9.201,28.1 9,28.2 9,28 3.901,25.3 3.901,13 12.099,8.7 12.599,6.1 1.8,11.7 1.8,26.6 
		11,31.399 	"/>
	<rect class="st3" width="29" height="39.104"/>
	<polygon class="st2" points="16.5,6.1 16.901,8.7 25.099,13 25.099,25.3 18.099,29 17.3,31.899 27.201,26.6 27.201,11.7 	"/>
	<g>
		<polygon class="st1" points="15.201,29.3 12.401,31.3 14.5,22 11,24.8 13.099,12.1 16.599,12.1 15.201,17.7 18,15.6 15.599,25.6 
			18.201,23.6 13.701,39.1 		"/>
		<rect x="9.5" y="11.399" class="st1" width="9.896" height="1.396"/>
		<polygon class="st1" points="14.5,2.899 13.099,11.399 15.901,11.399 		"/>
		<g id="XMLID_45_">
			<g id="XMLID_157_">
				<g id="XMLID_185_">
					<g id="XMLID_229_">
						<polygon class="st1" points="14.5,1.5 13.099,2.3 13.099,4.2 14.5,5 15.901,4.2 15.901,2.3 						"/>
					</g>
				</g>
			</g>
		</g>
	</g>
</g>
<g id="rank-badge-cyber-cadet_x60_30x40">
	<polygon class="st2" points="16.75,7.1 17.051,9.3 23.75,9.3 23.75,25 17.051,29.6 16.75,32.5 25.851,26.1 25.851,7.1 	"/>
	<polygon class="st2" points="12.051,29.7 5.45,25.3 5.45,9.3 12.051,9.3 12.45,7.1 3.25,7.1 3.351,26.399 12.45,32.5 	"/>
	<line class="st4" x1="3.939" y1="15.672" x2="9.262" y2="15.672"/>
	<line class="st4" x1="3.939" y1="21.802" x2="10.449" y2="21.802"/>
	<line class="st4" x1="19.841" y1="15.672" x2="25.163" y2="15.672"/>
	<line class="st4" x1="18.653" y1="21.802" x2="25.163" y2="21.802"/>
	<g>
		<g>
			<g>
				<rect class="st3" width="29" height="39.104"/>
				<polygon class="st1" points="14.551,12.1 11.75,14.899 14.551,39 17.351,14.899 				"/>
			</g>
		</g>
		<rect x="9.551" y="11.399" class="st1" width="9.897" height="1.396"/>
		<polygon class="st1" points="14.551,2.899 13.15,11.399 15.95,11.399 		"/>
		<g id="XMLID_166_">
			<g id="XMLID_168_">
				<g id="XMLID_169_">
					<g id="XMLID_170_">
						<polygon class="st1" points="14.551,1.5 13.15,2.3 13.15,4.2 14.551,5 15.95,4.2 15.95,2.3 						"/>
					</g>
				</g>
			</g>
		</g>
	</g>
	<polygon class="st1" points="26.551,0 27.351,1.7 29.051,2 27.851,3.2 28.15,5 26.551,4.2 25.051,5 25.351,3.2 24.051,2 
		25.851,1.7 	"/>
	<polygon class="st1" points="2.551,0 3.25,1.7 4.95,2 3.75,3.2 4.051,5 2.551,4.2 1.051,5 1.351,3.2 0.051,2 1.75,1.7 	"/>
</g>
<g id="rank-badge-technical-cadet_x60_29x40">
	<rect class="st3" width="29" height="39.104"/>
	<g>
		<path class="st2" d="M23.7,9.3V25l-9.2,6.396L5.4,25.2l-0.101-16h18.4 M25.8,7.1H3.2l0.1,19.299L14.601,34l11.3-7.896v-19
			L25.8,7.1L25.8,7.1z"/>
	</g>
	<line class="st4" x1="3.8" y1="15.672" x2="25.2" y2="15.672"/>
	<polygon class="st1" points="26.5,0 27.3,1.7 29,2 27.8,3.2 28.101,5 26.5,4.2 25,5 25.3,3.2 24,2 25.8,1.7 	"/>
	<polygon class="st1" points="2.401,0 3.2,1.7 4.901,2 3.7,3.2 4,5 2.401,4.2 1,5 1.2,3.2 0,2 1.7,1.7 	"/>
	<line class="st4" x1="3.8" y1="21.802" x2="25.2" y2="21.802"/>
</g>
<g id="rank-badge-cadet-first-class_x60_29x40">
	<rect class="st3" width="29" height="39.104"/>
	<g>
		<path class="st2" d="M23.7,9.3V25l-9.2,6.396L5.4,25.2l-0.101-16h18.4 M25.8,7.1H3.2l0.1,19.299L14.601,34l11.3-7.896v-19
			L25.8,7.1L25.8,7.1z"/>
	</g>
	<line class="st4" x1="3.8" y1="17" x2="25.2" y2="17"/>
	<polygon class="st1" points="26.5,0 27.3,1.7 29,2 27.8,3.2 28.101,5 26.5,4.2 25,5 25.3,3.2 24,2 25.8,1.7 	"/>
	<polygon class="st1" points="2.401,0 3.2,1.7 4.901,2 3.7,3.2 4,5 2.401,4.2 1,5 1.2,3.2 0,2 1.7,1.7 	"/>
</g>
<g id="rank-badge-cadet_x60_29x40">
	<rect class="st3" width="29" height="39.104"/>
	<g>
		<path class="st2" d="M23.649,9.3V25l-9.199,6.399l-9.101-6.196l-0.1-16h18.399 M25.849,7.1h-22.7L3.25,26.399l11.3,7.604
			l11.3-7.896L25.849,7.1L25.849,7.1z"/>
	</g>
	<line class="st4" x1="3.849" y1="17" x2="25.25" y2="17"/>
</g>
<g id="rank-badge-recruit_x60_30x40">
	<g>
		<path class="st2" d="M23.75,9.3V25l-9.2,6.396L5.45,25.2l-0.101-16h18.4 M25.849,7.1h-22.7L3.25,26.399l11.3,7.604l11.3-7.896
			L25.849,7.1L25.849,7.1z"/>
	</g>
	<rect class="st3" width="29" height="39.104"/>
</g>
<g id="list-progress-base_x60_29x32">
	<g id="hex-outer_1_">
		<g id="XMLID_1080_">
			<path class="st5" d="M14.2,3.201l11.3,5.896v12.899l-11.3,5.896L2.9,21.996V9.101L14.2,3.201 M14.2,0L0,7.396v16.4l14.2,7.396
				l14.2-7.396v-16.4L14.2,0L14.2,0z"/>
		</g>
	</g>
	<g id="hex-inner_1_">
		<g id="XMLID_2384_">
			<polygon class="st2" points="14.2,25.901 5.099,21 5.099,10.101 14.2,5.201 23.2,10.101 23.2,20.901 			"/>
		</g>
	</g>
</g>
<g id="list-progress-complete_x60_29x32">
	<g id="hex-inner">
		<g>
			<polygon class="st6" points="17.8,9.801 21.701,12.201 17.201,12.201 16.5,12.201 23.201,17.901 23.201,10.101 14.101,5.201 
				12.101,6.201 			"/>
		</g>
		<g>
			<polygon class="st6" points="11.5,19.5 7.9,17.101 12.101,17.101 13.8,17 5.101,10.301 5.101,21 14.101,25.901 18.201,23.701 			
				"/>
		</g>
	</g>
	<g id="hex-outer">
		<polygon class="st7" points="20,24.801 14.101,28 2.8,22 2.8,9.101 6.4,7.201 4.4,5.101 0,7.401 0,23.701 14.101,31.101 
			22.8,26.601 		"/>
		<polygon class="st7" points="14.101,0 7.5,3.401 10.4,5.201 14.101,3.201 25.5,9.101 25.5,22 23.701,22.901 25.9,25 28.3,23.701 
			28.3,7.401 		"/>
	</g>
	<g id="lightning_1_">
		<g id="lightning">
			<polygon class="st2" points="3.701,2.5 17.201,10.901 13.101,10.901 24.3,20.5 19.4,20.5 26.5,27.5 12.201,18.301 17.601,18.301 
				5.601,9.101 10,8.901 			"/>
		</g>
	</g>
</g>
<g id="ctanlee_x60_40x40">
	<circle class="st1" cx="20" cy="20" r="6.398"/>
	<path class="st8" d="M24.5,36.4c7.2-2,12.5-8.5,12.5-16.396"/>
	<path class="st8" d="M3,20c0,7.801,5.3,14.396,12.5,16.396"/>
	<path class="st8" d="M31.801,7.8c-3.1-2.896-7.2-4.8-11.8-4.8c-4.7,0-8.9,1.896-12,4.896"/>
</g>
<g id="action-btn-fist_x60_65x84">
	<polygon class="st1" points="31.7,83.605 0,67.004 0,30.504 31.7,13.905 63.401,30.504 63.401,67.004 	"/>
	<polygon class="st5" points="31.7,81.205 2.2,65.705 2.2,31.705 31.7,16.305 61.2,31.705 61.2,65.705 	"/>
	<path class="st9" d="M38.3,9.405c0,0,7.4,2,10.104,3.4c-3.397,6.5-11.5,2.397-11.5,2.397s-2.3,2.799-3,3.603
		c11.103,5.196,26.2,0.696,26.2,0.696l-0.897,5.896l-5.603,13.5l-9.7,5L26.205,79.209L5.504,68.399l25.799-32.396l-2.698-19.104
		L38.3,9.405z"/>
	<path class="st10" d="M38.3,9.405c0,0,7.4,2,10.104,3.4c-3.397,6.5-11.5,2.397-11.5,2.397s-2.3,2.799-3,3.603
		c11.103,5.196,26.2,0.696,26.2,0.696l-0.897,5.896l-5.603,13.5l-9.7,5L26.205,79.209L5.504,68.399l25.799-32.396l-2.698-19.104
		L38.3,9.405z"/>
	<path class="st9" d="M44,2.205l-2.103-1.104c-1.8-0.896-3.897-0.2-4.8,1.5l-7,13.396l8.5,4.396l7-13.396
		C46.5,5.205,45.8,3.105,44,2.205"/>
	<path class="st10" d="M44,2.205l-2.103-1.104c-1.8-0.896-3.897-0.2-4.8,1.5l-7,13.396l8.5,4.396l7-13.396
		C46.5,5.205,45.8,3.105,44,2.205z"/>
	<path class="st9" d="M50.5,3.605l2.604,1.7c1.3,0.8,1.695,2.5,0.8,3.8l-7.3,11.2c-3-0.9-4.397-2.103-6.305-4.304l6.305-11.396
		C47.5,3.305,49.2,2.805,50.5,3.605"/>
	<path class="st10" d="M50.5,3.605l2.604,1.7c1.3,0.8,1.695,2.5,0.8,3.8l-7.3,11.2c-3-0.9-4.397-2.103-6.305-4.304l6.305-11.396
		C47.5,3.305,49.2,2.805,50.5,3.605z"/>
	<path class="st9" d="M58.5,11.705l-1.896-1.311c-1.305-0.896-3-0.5-3.805,0.7l-6.104,9.2c1.3,2,3.104,3.6,6,4l6.396-8.9
		C60,14.205,59.7,12.504,58.5,11.705"/>
	<path class="st10" d="M58.5,11.705l-1.896-1.311c-1.305-0.896-3-0.5-3.805,0.7l-6.104,9.2c1.3,2,3.104,3.6,6,4l6.396-8.9
		C60,14.205,59.7,12.504,58.5,11.705z"/>
	<path class="st9" d="M63.101,20.905l-5.302,6.9c-2.309-0.7-3.898-1.9-5.104-3.4l5.3-7.3c0.897-1.3,2.8-1.5,4-0.5l0.7,0.604
		C63.8,18.105,64.001,19.705,63.101,20.905"/>
	<path class="st10" d="M63.101,20.905l-5.302,6.9c-2.309-0.7-3.898-1.9-5.104-3.4l5.3-7.3c0.897-1.3,2.8-1.5,4-0.5l0.7,0.604
		C63.8,18.105,64.001,19.705,63.101,20.905z"/>
	<path class="st9" d="M54,30.805c0.897-0.603,3.8-3,3.8-3c-2.1-0.4-3.8-1.603-5.1-3.4l-2.803,2.7c-1.104,1-0.897,2.7,0.303,3.5
		l0.6,0.396C51.8,31.605,53.2,31.405,54,30.805"/>
	<path class="st11" d="M54,30.805c0.897-0.603,3.8-3,3.8-3c-2.1-0.4-3.8-1.603-5.1-3.4l-2.803,2.7c-1.104,1-0.897,2.7,0.303,3.5
		l0.6,0.396C51.8,31.605,53.2,31.405,54,30.805z"/>
	<path class="st9" d="M46.2,27.705L45,26.808c-0.8-0.603-1-1.7-0.5-2.603l2.2-3.897c1.397,2.5,3.397,3.8,6,4l-3.4,3.196
		C48.5,28.405,47.2,28.405,46.2,27.705"/>
	<path class="st11" d="M46.2,27.705L45,26.808c-0.8-0.603-1-1.7-0.5-2.603l2.2-3.897c1.397,2.5,3.397,3.8,6,4l-3.4,3.196
		C48.5,28.405,47.2,28.405,46.2,27.705z"/>
	<path class="st9" d="M37.601,21.504l6,4.304l3.103-5.5c-3-0.7-4.5-1.804-6.303-4.304L37.601,21.504z"/>
	<path class="st10" d="M37.601,21.504l6,4.304l3.103-5.5c-3-0.7-4.5-1.804-6.303-4.304L37.601,21.504z"/>
	<path class="st9" d="M6,68.205l20.897-33.397l-2.197-19l10.8-10.2c0,0,10.104,5.3,12.8,6.7c-3.396,6.5-10.101,2.3-10.101,2.3
		s-1.302,2.896-1.899,3.7c9,4.696,10.811,9,3.5,16.397"/>
	<path class="st12" d="M6,68.205l20.897-33.397l-2.197-19l10.8-10.2c0,0,10.104,5.3,12.8,6.7c-3.396,6.5-10.101,2.3-10.101,2.3
		s-1.302,2.896-1.899,3.7c9,4.696,10.811,9,3.5,16.397"/>
	<path class="st1" d="M22,70.405c0.897-8.3,2.8-16.5,5.604-24.6c0.195,1.8,0.396,3.6,0.695,5.3c1.896-5.8,4.396-11.396,7.305-16.896
		c-0.305,2.103-0.397,4.103-0.604,6.103c2.3-3.5,4.7-6.804,7.397-10c1.303-1.603,1.7-1.2,0.603,0.5c-3.8,6.104-6.896,12.5-9.3,19
		c-0.103-1.804-0.2-3.603-0.2-5.396c-2.2,5.191-4,10.5-5.3,15.896c-0.4-1.896-0.803-3.804-1.2-5.804
		C24.901,59.705,23.2,65.004,22,70.405"/>
</g>
<g id="btn-lightning_x60_72x11">
	<path class="st2" d="M0,9.561C10.851,5.13,22.325,1.898,34.213,0c-2.114,1.421-4.171,2.885-6.17,4.388
		c8.437-1.453,17.07-2.214,25.811-2.241c-2.724,1.07-5.387,2.21-7.985,3.417c8.674,0.706,17.286,2.148,25.746,4.322
		c-12.991-1.538-25.89-1.355-38.375,0.399c2.125-1.335,4.305-2.623,6.54-3.863c-7.928,0.756-15.719,2.13-23.3,4.087
		c2.05-1.812,4.174-3.584,6.371-5.309C15.141,6.075,7.502,7.531,0,9.561"/>
</g>
<g id="quiz-header_x60_554x60">
	<line class="st13" x1="0" y1="30" x2="236.561" y2="30"/>
	<line class="st13" x1="316.562" y1="30" x2="553.123" y2="30"/>
	<polygon class="st14" points="290.399,48.221 278.561,54.366 256.061,42.686 256.061,17.313 263.372,13.518 259.725,9.777 
		251.061,14.275 251.061,45.724 278.561,60 295.275,51.325 	"/>
	<polygon class="st14" points="278.561,0 265.865,6.591 270.805,9.66 278.561,5.633 301.061,17.313 301.061,42.686 297.417,44.578 
		301.197,48.25 306.061,45.724 306.061,14.275 	"/>
	<polygon class="st5" points="258.561,5 284.389,21.037 276.473,21.033 297.991,39.422 288.661,39.556 302.372,52.878 
		274.834,35.354 285.183,35.166 262.184,17.461 270.454,17.204 	"/>
</g>
<g id="quiz-answer-bg_x60_200x330">
	<polygon id="_x3E_bg" class="st15" points="1.5,304.111 1.5,25.888 99.999,1.545 198.094,25.887 198.498,304.112 100,328.455 	"/>
	<path id="_x3E_outline" class="st16" d="M99.999,3.09l96.597,23.97l0.401,275.881L100,326.913L3,302.938V27.062L99.999,3.09 M100,0
		L0,24.724v280.562L100,330l100-24.714l-0.408-280.562L100,0L100,0z"/>
	<path id="_x3E_lightning_1_" class="st16" d="M64.194,281.051c10.85-4.438,22.324-7.663,34.212-9.562
		c-2.113,1.421-4.171,2.885-6.169,4.389c8.438-1.444,17.07-2.215,25.812-2.232c-2.725,1.062-5.387,2.21-7.985,3.417
		c8.673,0.705,17.286,2.146,25.747,4.312c-12.992-1.538-25.893-1.354-38.377,0.4c2.126-1.335,4.306-2.624,6.541-3.864
		c-7.928,0.755-15.719,2.129-23.3,4.087c2.05-1.812,4.175-3.584,6.371-5.308C79.334,277.566,71.696,279.021,64.194,281.051z"/>
	<path id="_x3E_lightning" class="st16" d="M64.194,50.06c10.85-4.438,22.324-7.659,34.212-9.562
		c-2.113,1.432-4.171,2.895-6.169,4.396c8.438-1.452,17.07-2.214,25.812-2.238c-2.725,1.067-5.387,2.211-7.985,3.417
		c8.673,0.703,17.286,2.146,25.747,4.319c-12.992-1.538-25.893-1.354-38.377,0.396c2.126-1.335,4.306-2.624,6.541-3.861
		c-7.928,0.763-15.719,2.137-23.3,4.094c2.05-1.812,4.175-3.584,6.371-5.312C79.334,46.576,71.696,48.031,64.194,50.06z"/>
	<line id="_x3E_line" class="st17" x1="28.5" y1="91.5" x2="171.5" y2="91.5"/>
	<line id="_x3E_line_1_" class="st17" x1="28.5" y1="228.5" x2="171.5" y2="228.5"/>
</g>
<g id="next-question_x60_153x38">
	<polygon class="st18" points="144.999,37.446 0,37.446 0,0 144.999,0 152.007,19.472 	"/>
</g>
<g id="btn-got-it_x60_73x35">
	<path class="st5" d="M0,33.484c10.938-4.513,22.521-7.805,34.517-9.737c-2.134,1.447-4.207,2.938-6.226,4.469
		c8.514-1.479,17.224-2.255,26.039-2.282c-2.75,1.089-5.438,2.251-8.062,3.479c8.749,0.719,17.438,2.188,25.979,4.402
		c-13.104-1.566-26.115-1.381-38.721,0.408c2.146-1.36,4.353-2.673,6.604-3.937c-7.997,0.77-15.856,2.169-23.507,4.163
		c2.062-1.847,4.212-3.65,6.43-5.406C15.275,29.935,7.569,31.418,0,33.484z"/>
	<path class="st2" d="M22.764,6.141c-0.32,2.88-0.62,4.041-1.32,5.201c-0.96,1.621-2.26,2.441-3.841,2.441
		c-2.42,0-3.94-2.021-3.94-5.221c0-2.081,0.521-4.321,1.35-5.781C16.034,0.961,17.534,0,19.284,0c1.9,0,3.16,1.14,3.501,3.181
		l-2.651,1c-0.021-0.68-0.062-0.86-0.16-1.161c-0.146-0.44-0.5-0.68-0.979-0.68c-0.641,0-1.155,0.44-1.579,1.32
		c-0.602,1.28-0.979,3.241-0.979,5.062c0,1.78,0.521,2.68,1.54,2.68c1.021,0,1.643-0.92,1.922-2.9h-1.646l0.276-2.36L22.764,6.141
		L22.764,6.141z"/>
	<path class="st2" d="M25.642,10.022c0-1.201,0.318-2.541,0.84-3.541c0.681-1.32,1.801-2.041,3.146-2.041
		c1.802,0,2.812,1.22,2.812,3.421c0,3.581-1.561,5.881-3.961,5.881C26.621,13.742,25.642,12.442,25.642,10.022z M29.923,8.061
		c0-0.92-0.198-1.38-0.578-1.38c-0.66,0-1.224,1.58-1.224,3.4c0,0.9,0.224,1.42,0.611,1.42C29.403,11.502,29.923,9.941,29.923,8.061
		z"/>
	<path class="st2" d="M36.242,6.681h-0.84l0.261-2.061h0.85l0.302-2.46h2.461l-0.303,2.46h1.001l-0.238,2.061h-1l-0.855,6.881
		h-2.465L36.242,6.681z"/>
	<path class="st2" d="M48.501,4.62h2.461l-1.104,8.942h-2.461L48.501,4.62z M48.541,2.16c0-0.96,0.84-1.78,1.771-1.78
		c0.769,0,1.36,0.6,1.36,1.38c0,0.96-0.82,1.801-1.78,1.801C49.121,3.56,48.541,2.96,48.541,2.16z"/>
	<path class="st2" d="M54.541,6.681h-0.85l0.27-2.061h0.843l0.3-2.46h2.461l-0.301,2.46h1.001l-0.24,2.061h-1l-0.854,6.881h-2.468
		L54.541,6.681z"/>
	<path class="st2" d="M62.442,10.421c0.82,0,1.46,0.64,1.46,1.46c0,1.02-0.88,1.9-1.896,1.9c-0.842,0-1.46-0.64-1.46-1.48
		C60.541,11.302,61.421,10.421,62.442,10.421z M62.402,0.219h2.562l-1.146,9.342h-2.58L62.402,0.219z"/>
</g>
<g id="btn-continue_x60_100x49">
	<path class="st1" d="M49.56,3.064l47.439,10.121v22.418l-47.415,9.339L2.999,35.611V12.39L49.56,3.064 M49.578,0L0,9.935v28.139
		l49.578,9.938L100,38.074V10.763L49.578,0L49.578,0z"/>
	<path class="st1" d="M18.882,23.126c-1.135,0.379-1.513,0.463-2.171,0.463c-1.373,0-2.787-0.615-3.74-1.625
		c-0.799-0.854-1.232-1.979-1.232-3.229c0-2.759,2.188-4.938,4.944-4.938c0.729,0,1.317,0.127,2.199,0.478v2.899
		c-0.574-0.688-1.261-1.022-2.103-1.022c-1.457,0-2.508,1.077-2.508,2.577c0,0.798,0.268,1.429,0.826,1.891
		c0.477,0.396,1.062,0.616,1.682,0.616c0.798,0,1.473-0.308,2.103-0.979L18.882,23.126L18.882,23.126z"/>
	<path class="st1" d="M22.84,14.892c0.883-0.744,2.115-1.178,3.418-1.178c1.556,0,2.83,0.521,3.824,1.562
		c0.867,0.911,1.346,2.115,1.346,3.418c0,1.479-0.646,2.857-1.752,3.796c-0.938,0.785-2.087,1.187-3.459,1.187
		c-2.941,0-5.127-2.156-5.127-5.07C21.09,17.216,21.735,15.83,22.84,14.892z M26.258,21.321c1.457,0,2.634-1.177,2.634-2.634
		c0-1.442-1.177-2.618-2.634-2.618c-1.442,0-2.633,1.176-2.633,2.591C23.625,20.144,24.787,21.321,26.258,21.321z"/>
	<path class="st1" d="M34.04,13.995h2.423l4.469,5.725v-5.725h2.424v9.353h-2.424l-4.469-5.725v5.725H34.04V13.995z"/>
	<path class="st1" d="M47.383,16.054h-1.977v-2.062h6.415v2.062h-2.017v7.283H47.38L47.383,16.054L47.383,16.054z"/>
	<path class="st1" d="M53.892,13.995h2.424v9.353h-2.424V13.995z"/>
	<path class="st1" d="M59.45,13.995h2.426l4.468,5.725v-5.725h2.424v9.353h-2.424l-4.468-5.725v5.725H59.45V13.995z"/>
	<path class="st1" d="M79.838,19.388c0,1.373-0.238,2.114-0.911,2.871c-0.771,0.867-1.862,1.312-3.222,1.312
		c-1.431,0-2.689-0.53-3.333-1.396c-0.49-0.658-0.675-1.414-0.675-2.787v-5.396h2.426v5.062c0,1.062,0.025,1.271,0.266,1.666
		c0.267,0.445,0.771,0.715,1.357,0.715c0.616,0,1.163-0.295,1.415-0.756c0.21-0.365,0.253-0.646,0.253-1.625v-5.062h2.424V19.388
		L79.838,19.388z"/>
	<path class="st1" d="M82.774,13.995h5.311v2.062h-2.887v1.555h2.731v2.062h-2.731v1.604h2.887v2.062h-5.311V13.995z"/>
	<path class="st1" d="M19.785,35.591c9.118-3.729,18.764-6.439,28.75-8.035c-1.774,1.193-3.505,2.426-5.185,3.688
		c7.09-1.222,14.346-1.854,21.689-1.883c-2.289,0.897-4.526,1.856-6.71,2.87c7.286,0.594,14.524,1.807,21.636,3.633
		c-10.918-1.293-21.757-1.141-32.248,0.337c1.785-1.122,3.617-2.205,5.496-3.248c-6.662,0.645-13.21,1.79-19.58,3.438
		c1.723-1.522,3.508-3.013,5.354-4.459C32.509,32.663,26.089,33.886,19.785,35.591z"/>
</g>
<g id="perfect-answer_x60_30x33">
	<g id="XMLID_2433_">
		<polygon class="st15" points="14.725,32.129 0,24.485 0,7.644 14.725,0 29.451,7.644 29.451,24.485 		"/>
	</g>
	<polygon class="st1" points="14.725,3.843 17.697,11.764 25.715,12.239 19.533,17.707 21.516,25.821 14.725,21.381 7.934,25.821 
		9.916,17.707 3.736,12.239 11.754,11.764 	"/>
</g>
<g id="quiz-btn_x60_119x58">
	<g id="_x3E_bg_1_">
		<polygon class="st15" points="0,46 59,58 119,46 119,13 59,0 0,12 		"/>
	</g>
	<path class="st2" d="M23.545,42.795c10.854-4.434,22.326-7.664,34.213-9.562c-2.112,1.422-4.17,2.885-6.169,4.387
		c8.438-1.451,17.07-2.213,25.812-2.238c-2.729,1.068-5.396,2.209-7.983,3.416c8.672,0.705,17.284,2.148,25.746,4.322
		c-12.992-1.539-25.894-1.355-38.375,0.4c2.125-1.336,4.305-2.625,6.541-3.865c-7.933,0.756-15.721,2.129-23.302,4.088
		c2.052-1.812,4.174-3.584,6.369-5.309C38.687,39.309,31.047,40.766,23.545,42.795z"/>
</g>
<g id="btn-generic_x60_119x60">
	<path class="st2" d="M0,47.002l59,12l60-12V13L59,0l0,0L0,12V47.002z M3,14.451L58.979,3.065L116,15.419v29.123L59.005,55.94
		L3,44.549V14.451z"/>
	<path class="st2" d="M28.495,46.604c9.365-3.825,19.271-6.614,29.529-8.252c-1.824,1.227-3.6,2.491-5.326,3.787
		c7.283-1.253,14.734-1.91,22.277-1.934c-2.351,0.923-4.648,1.907-6.893,2.948c7.483,0.609,14.921,1.855,22.223,3.731
		c-11.213-1.329-22.346-1.171-33.122,0.346c1.834-1.153,3.716-2.266,5.646-3.336c-6.844,0.652-13.564,1.838-20.106,3.528
		c1.769-1.565,3.602-3.093,5.498-4.582C41.563,43.594,34.97,44.852,28.495,46.604z"/>
</g>
<g id="speaker_x60_63x67">
	<path class="st19" d="M28.61,55.993c10.218-2.746,17.732-11.951,17.732-22.892S38.827,12.955,28.61,10.21"/>
	<path class="st19" d="M36.538,64.702c14.2-4.416,24.44-16.891,24.44-31.601S50.738,5.916,36.538,1.5"/>
	<path class="st19" d="M24.11,45.321c5.122-2.226,8.655-6.85,8.655-12.219c0-5.371-3.533-9.996-8.655-12.221"/>
	<polygon class="st2" points="8.774,42.139 8.774,24.063 16.401,19.272 16.401,46.93 	"/>
	<rect y="24.063" class="st2" width="11.273" height="18.075"/>
</g>
<g id="no-phone_x60_102x102">
	<path class="st2" d="M69.191,83H32.809V19.001h36.382V83z M69.386,16.001H32.615c-1.55,0-2.807,1.256-2.807,2.806v64.388
		c0,1.549,1.257,2.806,2.807,2.806h36.771c1.55,0,2.806-1.257,2.806-2.806V18.807C72.191,17.257,70.935,16.001,69.386,16.001"/>
	<path class="st2" d="M62.44,69.066H39.559V25.435h22.882L62.44,69.066L62.44,69.066z M64.087,22.435H37.914
		c-0.748,0-1.354,0.605-1.354,1.354v46.922c0,0.748,0.606,1.355,1.354,1.355h26.173c0.748,0,1.354-0.607,1.354-1.355V23.788
		C65.44,23.04,64.835,22.435,64.087,22.435"/>
	<circle class="st20" cx="51" cy="51" r="49.5"/>
	<line class="st20" x1="85" y1="17" x2="17" y2="85"/>
	<line class="st19" x1="46" y1="77.219" x2="56" y2="77.219"/>
</g>
<g id="duty_x60_40x44">
	<path class="st16" d="M20,4.515l16,8.375v18.229l-16,8.375L4,31.119V12.89L20,4.515 M20,0L0,10.469v23.062L20,44l20-10.469V10.469
		L20,0L20,0z"/>
</g>
<g id="duty-active_x60_40x44">
	<path class="st5" d="M20,4.515l16,8.375v18.221l-16,8.375L4,31.111V12.89L20,4.515 M20,0L0,10.469v23.062L20,44l20-10.469V10.469
		L20,0L20,0z"/>
	<polygon class="st2" points="20,36.5 7.275,29.601 7.275,14.399 20,7.5 32.726,14.399 32.726,29.601 	"/>
</g>
<g id="duty-complete_x60_40x45">
	<polygon class="st6" points="25.197,13.963 30.619,17.318 24.237,17.314 23.411,17.314 32.727,25.252 32.727,14.399 20,7.5 
		17.205,9.016 	"/>
	<polygon class="st6" points="16.313,27.411 11.219,24.18 17.256,24.07 19.596,24.027 7.272,14.57 7.272,29.601 20,36.5 
		25.737,33.39 	"/>
	<polygon class="st7" points="28.608,35.363 20,39.869 3.637,31.304 3.637,12.696 8.953,9.914 6.302,7.17 0,10.469 0,33.531 20,44 
		32.154,37.639 	"/>
	<polygon class="st7" points="20,0 10.766,4.834 14.359,7.084 20,4.131 36.363,12.696 36.363,31.304 33.713,32.691 36.461,35.384 
		40,33.531 40,10.469 	"/>
	<polygon class="st2" points="5.454,3.667 24.238,15.428 18.482,15.424 34.131,28.91 27.345,29.008 37.316,38.777 17.289,25.927 
		24.816,25.789 8.09,12.806 14.102,12.616 	"/>
</g>
<g id="btn-acknowledge_x60_184x66">
	<polygon id="_x3E_bg_2_" class="st16" points="1.503,51.053 1.503,14.948 91.222,1.518 182.503,16.073 182.503,51.05 
		91.231,64.484 	"/>
	<path id="_x3E_outline_1_" class="st15" d="M91.215,3.036l89.788,14.317v32.401l-89.77,13.213L3.003,49.76V16.239L91.215,3.036
		 M91.229,0L0,13.655v38.69L91.229,66L184,52.345V14.793L91.229,0L91.229,0z"/>
	<path id="_x3E_lightning_2_" class="st2" d="M56.195,46.794c10.851-4.432,22.326-7.663,34.213-9.562
		c-2.113,1.422-4.17,2.886-6.169,4.388c8.437-1.452,17.07-2.213,25.811-2.24c-2.725,1.069-5.388,2.21-7.979,3.416
		c8.673,0.706,17.286,2.149,25.746,4.323c-12.991-1.539-25.896-1.356-38.375,0.4c2.125-1.336,4.305-2.625,6.54-3.865
		c-7.937,0.756-15.728,2.13-23.309,4.088c2.059-1.813,4.184-3.584,6.371-5.309C71.337,43.309,63.698,44.765,56.195,46.794z"/>
</g>
<g id="chapter-bracket_x60_25x105">
	<polyline class="st21" points="0,102.992 23,102.992 23,2 0,2 	"/>
</g>
<g id="tesselation_x60_1025x768">
	<rect x="0.446" class="st3" width="1024" height="768"/>
	<path class="st22" d="M154.682,144.183c-22.989,13.425-45.722,28.383-68.146,45.806c-22.438-34.314-44.562-72.895-66.35-116.986
		C63.748,101.954,108.707,125.343,154.682,144.183z"/>
	<path class="st22" d="M0.445,59.43C7,64.085,13.581,68.608,20.186,73.003c-6.612,4.599-13.188,9.448-19.739,14.581"/>
	<path class="st22" d="M0.448,244.9c6.546,1.995,13.126,3.933,19.729,5.816c-6.604,7.11-13.188,14.545-19.733,22.339"/>
	<path class="st22" d="M20.186,428.43c-6.612,9.62-13.188,19.639-19.739,30.092"/>
	<path class="st22" d="M0.441,615.841c6.549-3.326,13.131-6.562,19.745-9.698c-6.604,12.132-13.188,24.735-19.739,37.849"/>
	<path class="st22" d="M295.289,187.806c-23.813,13.436-47.479,27.41-70.924,42.702c-23.449-25.637-46.692-54.072-69.688-86.325
		C200.656,163.013,247.662,177.297,295.289,187.806z"/>
	<path class="st22" d="M439.643,208.397c-24.229,15.043-48.416,29.713-72.491,44.723c-24.065-19.889-48.046-41.379-71.854-65.313
		C342.918,198.301,391.174,205.028,439.643,208.397z"/>
	<path class="st22" d="M585.252,208.397c-24.232,18.401-48.517,35.48-72.806,51.963c-24.286-16.484-48.573-33.561-72.812-51.963
		C488.111,211.751,536.785,211.751,585.252,208.397z"/>
	<path class="st22" d="M729.605,187.806c-23.812,23.934-47.787,45.423-71.855,65.313c-24.077-15.01-48.255-29.682-72.489-44.723
		C633.723,205.028,681.976,198.302,729.605,187.806z"/>
	<path class="st22" d="M870.213,144.183c-22.988,32.255-46.24,60.689-69.687,86.325c-23.45-15.293-47.107-29.267-70.931-42.701
		C777.234,177.297,824.236,163.012,870.213,144.183z"/>
	<path class="st22" d="M1004.709,73.002c-21.777,44.094-43.914,82.672-66.343,116.986c-22.438-17.423-45.166-32.379-68.153-45.806
		C916.195,125.344,961.148,101.955,1004.709,73.002z"/>
	<path class="st22" d="M1024.443,87.578c-6.545-5.131-13.123-9.979-19.729-14.575c6.612-4.395,13.188-8.917,19.739-13.572"/>
	<path class="st22" d="M0.441,152.163c28.115,14.279,56.851,26.818,86.088,37.826c-22.434,17.427-44.562,37.314-66.345,60.728
		c-6.612-10.876-13.188-22.187-19.739-33.969"/>
	<path class="st22" d="M224.365,230.508c-23.451,15.295-46.695,31.907-69.688,50.71c-22.984-26.876-45.721-56.921-68.15-91.229
		C131.391,206.874,177.464,220.164,224.365,230.508z"/>
	<path class="st22" d="M367.152,253.12c-24.071,15.011-48.046,30.357-71.854,46.791c-23.812-20.936-47.479-43.771-70.924-69.402
		C271.268,240.844,319.002,248.239,367.152,253.12z"/>
	<path class="st22" d="M512.446,260.36c-24.286,16.484-48.573,32.371-72.812,48.372c-24.229-17.444-48.417-35.726-72.489-55.612
		C415.304,257.99,463.877,260.356,512.446,260.36z"/>
	<path class="st22" d="M657.741,253.12c-24.076,19.886-48.266,38.169-72.491,55.612c-24.23-16.002-48.521-31.888-72.803-48.372
		C561.02,260.356,609.592,257.993,657.741,253.12z"/>
	<path class="st22" d="M800.528,230.508c-23.451,25.634-47.109,48.468-70.934,69.402c-23.812-16.434-47.785-31.779-71.854-46.791
		C705.895,248.239,753.627,240.845,800.528,230.508z"/>
	<path class="st22" d="M938.367,189.99c-22.431,34.306-45.168,64.354-68.156,91.229c-22.988-18.801-46.233-35.415-69.685-50.711
		C847.432,220.165,893.503,206.875,938.367,189.99z"/>
	<path class="st22" d="M1024.45,216.745c-6.549,11.784-13.13,23.095-19.743,33.972c-21.783-23.413-43.908-43.303-66.34-60.728
		c29.241-11.008,57.97-23.546,86.085-37.825"/>
	<path class="st22" d="M154.682,281.219c-22.989,18.803-45.722,39.801-68.146,63.978c-22.438-27.561-44.562-58.66-66.35-94.48
		C63.748,263.124,108.707,273.146,154.682,281.219z"/>
	<path class="st22" d="M295.289,299.91c-23.813,16.435-47.479,33.956-70.924,53.385c-23.449-21.499-46.692-45.204-69.688-72.075
		C200.656,289.287,247.662,295.408,295.289,299.91z"/>
	<path class="st22" d="M439.643,308.731c-24.229,16.004-48.416,32.12-72.491,49.08c-24.065-17.938-48.046-36.97-71.854-57.901
		C342.918,304.408,391.174,307.288,439.643,308.731z"/>
	<path class="st22" d="M585.252,308.731c-24.232,17.441-48.517,34.045-72.806,50.526c-24.286-16.483-48.573-33.085-72.812-50.526
		C488.111,310.168,536.785,310.168,585.252,308.731z"/>
	<path class="st22" d="M729.605,299.91c-23.812,20.931-47.787,39.958-71.855,57.901c-24.077-16.962-48.255-33.078-72.489-49.08
		C633.723,307.288,681.976,304.406,729.605,299.91z"/>
	<path class="st22" d="M870.213,281.219c-22.988,26.875-46.24,50.583-69.687,72.083c-23.45-19.438-47.107-36.949-70.931-53.384
		C777.234,295.409,824.236,289.285,870.213,281.219z"/>
	<path class="st22" d="M1004.709,250.716c-21.777,35.819-43.914,66.92-66.343,94.48c-22.438-24.177-45.166-45.171-68.153-63.978
		C916.195,273.146,961.148,263.121,1004.709,250.716z"/>
	<path class="st22" d="M1024.45,273.053c-6.547-7.793-13.128-15.227-19.741-22.336c6.613-1.883,13.194-3.821,19.741-5.816"/>
	<path class="st22" d="M0.448,337.635c28.105,2.854,56.838,5.354,86.078,7.562c-22.438,24.188-44.562,51.55-66.351,83.233
		c-6.604-8.364-13.188-17.089-19.729-26.211"/>
	<path class="st22" d="M224.365,353.294c-23.451,19.435-46.695,40.771-69.688,64.96c-22.984-21.493-45.721-45.512-68.15-73.062
		C131.391,348.574,177.464,351.227,224.365,353.294z"/>
	<path class="st22" d="M367.152,357.811c-24.071,16.964-48.046,34.77-71.854,54.203c-23.812-17.938-47.479-37.229-70.924-58.72
		C271.268,355.362,319.002,356.838,367.152,357.811z"/>
	<path class="st22" d="M512.446,359.257c-24.286,16.479-48.573,32.847-72.812,49.809c-24.229-16.48-48.417-33.321-72.489-51.255
		C415.304,358.785,463.877,359.257,512.446,359.257z"/>
	<path class="st22" d="M657.741,357.811c-24.076,17.935-48.266,34.771-72.491,51.255c-24.23-16.962-48.521-33.325-72.803-49.809
		C561.02,359.257,609.592,358.785,657.741,357.811z"/>
	<path class="st22" d="M800.528,353.295c-23.451,21.486-47.109,40.777-70.934,58.719c-23.812-19.438-47.785-37.238-71.854-54.203
		C705.895,356.836,753.627,355.36,800.528,353.295z"/>
	<path class="st22" d="M938.367,345.198c-22.431,27.552-45.168,51.562-68.156,73.062c-22.988-24.188-46.233-45.525-69.685-64.959
		C847.432,351.227,893.503,348.573,938.367,345.198z"/>
	<path class="st22" d="M1024.45,402.214c-6.549,9.124-13.13,17.851-19.743,26.216c-21.783-31.688-43.908-59.051-66.34-83.232
		c29.239-2.2,57.967-4.707,86.081-7.562"/>
	<path class="st22" d="M154.682,418.254c-22.989,24.188-45.722,51.217-68.146,82.146c-22.438-20.804-44.562-44.426-66.35-71.975
		C63.748,424.295,108.707,420.947,154.682,418.254z"/>
	<path class="st22" d="M295.289,412.013c-23.813,19.438-47.479,40.501-70.924,64.062c-23.449-17.354-46.692-36.337-69.688-57.819
		C200.656,415.561,247.662,413.517,295.289,412.013z"/>
	<path class="st22" d="M439.643,409.066c-24.229,16.963-48.416,34.526-72.491,53.438c-24.065-15.984-48.046-32.562-71.854-50.489
		C342.918,410.514,391.174,409.547,439.643,409.066z"/>
	<path class="st22" d="M585.252,409.066c-24.232,16.48-48.517,32.607-72.806,49.089c-24.286-16.479-48.573-32.604-72.812-49.089
		C488.111,408.586,536.785,408.586,585.252,409.066z"/>
	<path class="st22" d="M729.605,412.013c-23.812,17.931-47.787,34.504-71.855,50.481c-24.077-18.904-48.255-36.473-72.489-53.437
		C633.723,409.547,681.976,410.51,729.605,412.013z"/>
	<path class="st22" d="M870.213,418.254c-22.988,21.483-46.24,40.465-69.687,57.819c-23.45-23.562-47.107-44.634-70.931-64.062
		C777.234,413.517,824.236,415.561,870.213,418.254z"/>
	<path class="st22" d="M1004.709,428.43c-21.777,27.547-43.914,51.172-66.343,71.975c-22.438-30.934-45.166-57.961-68.153-82.146
		C916.195,420.951,961.148,424.294,1004.709,428.43z"/>
	<path class="st22" d="M1024.45,458.523c-6.547-10.453-13.128-20.472-19.741-30.093c6.61,0.628,13.188,1.271,19.733,1.938"/>
	<path class="st22" d="M0.445,523.106c28.115-8.567,56.849-16.092,86.084-22.7c-22.434,30.938-44.562,65.784-66.345,105.738
		c-6.612-5.854-13.188-11.995-19.739-18.457"/>
	<path class="st22" d="M224.365,476.082c-23.451,23.57-46.695,49.646-69.688,79.209c-22.984-16.104-45.721-34.087-68.15-54.885
		C131.391,490.272,177.464,482.292,224.365,476.082z"/>
	<path class="st22" d="M367.152,462.503c-24.071,18.907-48.046,39.178-71.854,61.606c-23.812-14.935-47.479-30.678-70.924-48.036
		C271.268,469.874,319.002,465.436,367.152,462.503z"/>
	<path class="st22" d="M512.446,458.155c-24.286,16.484-48.573,33.323-72.812,51.246c-24.229-15.521-48.417-30.913-72.489-46.896
		C415.304,459.58,463.877,458.158,512.446,458.155z"/>
	<path class="st22" d="M657.741,462.503c-24.076,15.979-48.266,31.378-72.491,46.896c-24.23-17.925-48.521-34.764-72.803-51.246
		C561.02,458.16,609.592,459.579,657.741,462.503z"/>
	<path class="st22" d="M800.528,476.082c-23.451,17.358-47.109,33.104-70.934,48.035c-23.812-22.436-47.785-42.7-71.854-61.605
		C705.895,465.435,753.627,469.876,800.528,476.082z"/>
	<path class="st22" d="M938.367,500.406c-22.431,20.798-45.168,38.772-68.156,54.884c-22.988-29.562-46.233-55.638-69.685-79.208
		C847.432,482.288,893.503,490.273,938.367,500.406z"/>
	<path class="st22" d="M1024.45,587.687c-6.549,6.462-13.13,12.604-19.743,18.456c-21.783-39.958-43.908-74.799-66.34-105.737
		c29.241,6.606,57.97,14.132,86.086,22.7"/>
	<path class="st22" d="M154.682,555.29c-22.989,29.57-45.722,62.643-68.146,100.324c-22.438-14.046-44.562-30.188-66.35-49.471
		C63.748,585.463,108.707,568.752,154.682,555.29z"/>
	<path class="st22" d="M0.445,708.49c76.558-54.496,157.854-90.741,241.562-114.812c100.146-28.488,203.746-39.562,306.866-36.105
		c103.119,3.769,205.761,22.049,304.046,59.453c59.021,22.649,116.478,52.194,171.527,91.257"/>
	<path class="st22" d="M295.289,524.117c-23.813,22.439-47.479,47.047-70.924,74.751c-23.449-13.227-46.692-27.469-69.688-43.578
		C200.656,541.838,247.662,531.627,295.289,524.117z"/>
	<path class="st22" d="M439.643,509.401c-24.229,17.925-48.416,36.932-72.491,57.794c-24.065-14.034-48.046-28.146-71.854-43.078
		C342.918,516.617,391.174,511.809,439.643,509.401z"/>
	<path class="st22" d="M585.252,509.401c-24.232,15.521-48.517,31.169-72.806,47.65c-24.286-16.48-48.573-32.129-72.812-47.65
		C488.111,507.002,536.785,507.002,585.252,509.401z"/>
	<path class="st22" d="M729.605,524.117c-23.812,14.938-47.787,29.045-71.855,43.078c-24.077-20.862-48.255-39.869-72.489-57.794
		C633.723,511.808,681.976,516.617,729.605,524.117z"/>
	<path class="st22" d="M870.213,555.29c-22.988,16.107-46.24,30.354-69.687,43.578c-23.45-27.705-47.107-52.312-70.931-74.751
		C777.234,531.627,824.236,541.836,870.213,555.29z"/>
	<path class="st22" d="M1004.709,606.143c-21.777,19.271-43.914,35.423-66.343,49.471c-22.438-37.688-45.166-70.752-68.153-100.324
		C916.195,568.752,961.148,585.463,1004.709,606.143z"/>
	<path class="st22" d="M1024.446,643.984c-6.554-13.11-13.125-25.711-19.737-37.841c6.612,3.14,13.194,6.371,19.741,9.696"/>
</g>
<g id="lightning-fist_x60_567x141">
	<line class="st23" x1="235.281" y1="82.227" x2="0" y2="82.227"/>
	<line class="st24" x1="235.281" y1="105.56" x2="111" y2="105.56"/>
	<line class="st23" x1="331" y1="82.227" x2="566.281" y2="82.227"/>
	<line class="st24" x1="331" y1="105.56" x2="455.281" y2="105.56"/>
	<polygon class="st2" points="317.09,66.65 319.229,65.733 309.184,60.474 308.241,62.018 	"/>
	<polygon class="st2" points="322.575,86.767 324.381,86.983 324.381,76.46 322.575,77.442 	"/>
	<polygon class="st2" points="324.381,99.205 322.575,99.161 322.575,109.203 324.381,110.551 	"/>
	<polygon class="st2" points="297.18,56.228 298.274,54.764 289.562,50.204 289.514,52.214 	"/>
	<polygon class="st2" points="243.534,98.849 241.727,98.635 241.727,109.667 243.534,108.684 	"/>
	<polygon class="st2" points="249.866,66.208 258.24,61.824 257.526,60.161 248.069,65.11 	"/>
	<polygon class="st2" points="269.229,56.071 277.272,51.861 277.53,49.688 268.366,54.485 	"/>
	<polygon class="st2" points="241.727,75.175 241.727,86.427 243.534,86.472 243.534,76.525 	"/>
	<path class="st1" d="M278.671,55.384l6.115-4.312l-1.952,16.062l2.232,0.22c0.812,0.06,1.592,0.361,2.245,0.847l0.606-24.8
		l-4.562,3.783l1.771-26.329l-4.562,3.791L282.162,0l-6.076,32.806l5.834-4.854L278.671,55.384z"/>
	<path class="st1" d="M305.437,57.49l-10.419,13.86c1.076,0.188,2.024,0.754,2.701,1.627c0.355,0.476,0.604,1.011,0.752,1.573
		l13.521-22.143l-5.845,0.995l14.705-21.913l-5.854,1.002l13.705-20.545L307.039,37.31l7.479-1.277l-16.536,22.122L305.437,57.49z"
		/>
	<path class="st1" d="M313.325,70.23l6.789,3.141l-13.776,5.868c0,0.247-0.013,0.493-0.057,0.744l-0.826,4.731l22.873-12.461
		l-5.558-2.062l23.688-11.625l-5.562-2.056l22.143-10.938l-31.444,11.133l7.113,2.641L313.325,70.23z"/>
	<path class="st1" d="M249.662,37.254l10.891,25.391l3.146-6.791l5.677,13.328c0.123-0.017,0.241-0.038,0.366-0.038h3.044
		c0.588,0,1.142,0.107,1.67,0.289l-11.874-21.794l-2.062,5.56l-11.625-23.688l-2.061,5.562L235.896,12.93l11.135,31.438
		L249.662,37.254z"/>
	<polygon class="st1" points="343.157,85.771 348.003,91.606 320.575,88.346 324.885,94.462 305.016,92.046 305.46,96.932 
		332.557,97.602 328.772,93.039 355.101,94.816 351.312,90.254 375.957,91.852 	"/>
	<polygon class="st1" points="227.643,68.914 226.365,61.437 248.487,77.974 247.811,70.523 263.177,82.071 264.269,78.896 
		264.269,77.12 242.737,63.967 243.733,69.813 221.82,55.107 222.823,60.955 202.278,47.249 	"/>
	<polygon class="st1" points="339.508,117.589 340.786,125.066 318.663,108.531 319.338,115.982 306.138,106.06 303.534,109.784 
		324.412,122.537 323.418,116.692 345.33,131.397 344.329,125.549 364.873,139.255 	"/>
	<polygon class="st1" points="245.302,113.134 263.666,105.311 260.911,101.272 237.087,114.251 242.646,116.313 218.956,127.935 
		224.519,129.993 202.378,140.931 233.823,129.796 226.709,127.166 252.092,116.276 	"/>
	<polygon class="st1" points="218.281,94.031 245.708,97.291 241.398,91.173 259.297,93.349 260.893,88.708 233.726,88.035 
		237.51,92.599 211.18,90.821 214.972,95.383 190.328,93.786 223.126,99.867 	"/>
	<path class="st2" d="M315.094,118.96l-16.286,8.525l-0.062-9.26l8.196-11.729l-1.575-17.361l1.588-9.098
		c0.405-2.33-1.08-4.567-3.387-5.104l-1.196-0.279c-1.115-0.261-2.293-0.054-3.277,0.531c-0.067-0.83-0.364-1.627-0.892-2.311
		c-0.729-0.95-1.789-1.562-2.979-1.716l-2.934-0.359c-1.04-0.144-2.062,0.116-2.938,0.68c-0.021-1.021-0.362-1.991-1.03-2.779
		c-0.779-0.924-1.872-1.479-3.056-1.562l-4.116-0.403c-1.229-0.089-2.409,0.315-3.321,1.146c-0.748,0.681-1.213,1.562-1.382,2.534
		c-0.992-0.896-2.294-1.463-3.735-1.463h-3.104c-3.082,0-5.589,2.513-5.589,5.594v4.391l-6.388,18.546l14.1,20.671l-1.854,10.684
		l-19.13-10.014l-2.139,0.917l34.449,18.032l33.836-17.71L315.094,118.96z M298.779,78.629c0.104-0.729,0.499-1.359,1.108-1.778
		c0.605-0.418,1.342-0.562,2.062-0.396l1.195,0.28c1.354,0.312,2.225,1.628,1.979,2.994l-1.831,10.486
		c-2.135,0.35-4.141,0.146-6.102-0.612L298.779,78.629z M302.549,92.292c-0.604,1.437-1.443,3.375-1.803,4.122
		c-0.416,0.895-1.549,1.748-2.723,1.605l-0.874-0.093c-0.619-0.065-1.167-0.403-1.501-0.938c-0.336-0.521-0.411-1.16-0.212-1.749
		l1.299-3.812C298.745,92.254,300.672,92.542,302.549,92.292z M289.136,74.969c0.069-0.707,0.412-1.349,0.977-1.785
		c0.555-0.444,1.254-0.646,1.959-0.562l2.925,0.37c0.698,0.086,1.321,0.444,1.748,1.003c0.43,0.562,0.612,1.261,0.515,1.952
		l-1.894,13.521c-2.563,0.751-4.996,0.494-7.562-0.809L289.136,74.969z M287.704,90.761c2.309,1.146,4.659,1.438,7.012,0.872
		l-1.021,3.018c-0.002,0.003-0.001,0.006-0.005,0.011l-0.327,0.965c-0.354,1.037-1.385,1.664-2.479,1.481l-1.894-0.312
		c-0.817-0.143-1.417-0.86-1.396-1.688L287.704,90.761z M278.213,71.118c0.021-0.724,0.32-1.389,0.856-1.874
		c0.534-0.479,1.224-0.716,1.938-0.674l4.104,0.402c0.707,0.053,1.348,0.379,1.807,0.92c0.455,0.539,0.671,1.226,0.604,1.93
		l-1.562,16.6c-2.692,0.479-4.6,0.23-6.938-0.571c1.008-0.399,2.016-0.979,2.896-1.79c1.812-1.684,2.729-4.021,2.729-6.977v-0.923
		h-6.354v-3.616c0-0.416-0.054-0.812-0.14-1.208L278.213,71.118z M285.915,96.189c-1.77-1.735-4.336-3.008-7.995-3.572l-0.071-3.133
		l-0.022-0.128c1.938,0.719,3.674,1.146,5.618,1.146c0.758,0,1.568-0.089,2.434-0.22l-0.122,4.773
		C285.738,95.45,285.802,95.829,285.915,96.189z M265.857,74.545c0-2.062,1.678-3.737,3.743-3.737h3.104
		c1.729,0,3.165,1.179,3.604,2.767l-0.108,4.596h-10.343V74.545z M271.59,129.729l2.079-12.003l-13.993-20.523l5.915-17.188h17.188
		c-0.162,1.973-0.864,3.546-2.089,4.687c-2.688,2.501-7.097,2.216-7.143,2.209l-1.062-0.078l0.079,1.067
		c0.109,1.541,0.226,4.288,0.021,5.09l-0.288,1.146h1.188c11.646,0,14.247,5.471,14.562,13.681c0.021,0.496,0.434,0.888,0.921,0.888
		c0.02,0,0.022,0,0.036-0.002c0.51-0.02,0.904-0.446,0.891-0.958c-0.134-3.38-0.646-6.785-2.36-9.54
		c0.354,0.203,0.746,0.354,1.166,0.418l1.896,0.314c0.229,0.037,0.451,0.056,0.675,0.056c1.056,0,2.038-0.406,2.78-1.104
		c0.021,0.038,0.03,0.075,0.061,0.107c0.639,1.001,1.682,1.646,2.857,1.771l0.875,0.093c0.146,0.021,0.293,0.023,0.438,0.023
		c1.896,0,3.501-1.307,4.146-2.688c0.312-0.675,0.994-2.24,1.572-3.586l1.055,12.387l-8.146,11.65l0.069,10.798l-7.089,3.709v-8.248
		c0-0.511-0.409-0.924-0.924-0.924c-0.512,0-0.922,0.413-0.922,0.924v9.213l-4.979,2.609L271.59,129.729z M274.462,88.755
		c0.479-0.021,1.094-0.066,1.778-0.178l-0.031,3.826c-0.552-0.047-1.101-0.096-1.696-0.105
		C274.573,91.183,274.514,89.724,274.462,88.755z"/>
</g>
<g id="chapter-progress-chapter_x60_16x18">
	<path id="_x3E_teal_4_" class="st16" d="M8,3.403l5,2.683v5.842l-5,2.676l-5-2.676V6.086L8,3.403 M8,0L0,4.275v9.438l8,4.282
		l8-4.282V4.275L8,0L8,0z"/>
</g>
<g id="chapter-progress-slide_x60_9x9">
	<rect class="st16" width="9" height="9"/>
</g>
<g id="chapter-progress-quiz_x60_28x30">
	<polygon id="_x3E_teal_2_" class="st16" points="19.668,24.112 13.75,27.184 2.5,21.344 2.5,8.657 6.155,6.76 4.332,4.889 0,7.138 
		0,22.863 13.75,30 22.106,25.662 	"/>
	<polygon id="_x3E_teal_1_" class="st16" points="13.75,0 7.401,3.296 9.872,4.83 13.75,2.817 25,8.657 25,21.344 23.178,22.289 
		25.067,24.125 27.5,22.863 27.5,7.138 	"/>
	<g>
		<polygon class="st5" points="3.75,2.5 16.664,10.519 12.706,10.517 23.465,19.711 18.8,19.779 25.655,26.44 11.886,17.678 
			17.061,17.583 5.561,8.732 9.695,8.603 		"/>
	</g>
</g>
<g id="chapter-progress-duties_x60_9x9">
	<circle id="_x3E_teal" class="st16" cx="4.5" cy="4.5" r="4.5"/>
</g>
<g id="closed-caption-btn_x60_26x20">
	<path class="st25" d="M19.143,3c1.692,0,3.068,1.376,3.068,3.068v7.863c0,1.692-1.376,3.068-3.068,3.068H6.062
		C4.374,16.999,3,15.623,3,13.931V6.068C3,4.376,4.376,3,6.062,3H19.143 M19.143,0H6.062C2.71,0,0,2.717,0,6.068v7.863
		c0,3.352,2.716,6.068,6.062,6.068h13.081c3.354,0,6.068-2.717,6.068-6.068V6.068C25.211,2.716,22.494,0,19.143,0L19.143,0z"/>
	<path class="st25" d="M11.145,13.843c-0.565,0.234-0.896,0.312-1.391,0.312c-1.053,0-2.002-0.469-2.652-1.313
		c-0.604-0.793-0.909-1.819-0.909-3.146c0-1.456,0.363-2.549,1.137-3.381c0.695-0.754,1.625-1.144,2.699-1.144
		c0.455,0,0.739,0.052,1.155,0.208v2.482c-0.39-0.39-0.663-0.52-1.079-0.52c-0.942,0-1.521,0.871-1.521,2.314
		c0,1.403,0.546,2.235,1.481,2.235c0.438,0,0.755-0.143,1.223-0.559L11.145,13.843z"/>
	<path class="st25" d="M18.178,13.843c-0.571,0.234-0.896,0.312-1.391,0.312c-1.059,0-2.002-0.469-2.652-1.313
		c-0.61-0.793-0.91-1.819-0.91-3.146c0-1.456,0.364-2.549,1.132-3.381c0.701-0.754,1.625-1.144,2.704-1.144
		c0.455,0,0.74,0.052,1.156,0.208v2.482c-0.39-0.39-0.663-0.52-1.079-0.52c-0.947,0-1.521,0.871-1.521,2.314
		c0,1.403,0.546,2.235,1.479,2.235c0.441,0,0.754-0.143,1.228-0.559L18.178,13.843z"/>
</g>
<g id="playhead_x60_16x18">
	<path class="st2" d="M8,0L0,4.282v9.438l8,4.277l8-4.277V4.282L8,0L8,0z"/>
	<polygon class="st16" points="3.039,11.914 3.039,6.085 8,3.429 12.961,6.085 12.961,11.914 8,14.57 	"/>
</g>
<g id="pause-btn_x60_28x31">
	<g>
		<path class="st16" d="M14,3.367l11,5.604v12.054l-11,5.604L3,21.025V8.971L14,3.367 M14,0L0,7.138v15.729l14,7.138l14-7.138V7.138
			L14,0L14,0z"/>
	</g>
	<g id="_x3E_pause">
		<g>
			<rect x="9.5" y="9" class="st2" width="3" height="12"/>
		</g>
		<g>
			<rect x="15.5" y="9" class="st2" width="3" height="12"/>
		</g>
	</g>
	<g id="_x3E_play">
		<polygon class="st2" points="10.67,20.993 10.67,8.749 18.97,14.871 		"/>
	</g>
	<g id="_x3E_replay">
		<path class="st26" d="M13.819,9.11c3.182,0,5.761,2.58,5.761,5.761s-2.579,5.761-5.761,5.761c-3.182,0-5.761-2.58-5.761-5.761"/>
		<polygon class="st2" points="15.306,12.845 10.55,8.932 15.306,5.804 		"/>
	</g>
</g>
<g id="finished-exploring_x60_278x22">
	<rect x="0.5" y="0.5" class="st27" width="276.083" height="20.854"/>
	<path class="st1" d="M9.553,6.335h1.821l-1.149,9.343H8.404L9.553,6.335z"/>
	<path class="st1" d="M14.776,5.691h1.835l-2.297,3.782h-1.219L14.776,5.691z"/>
	<path class="st1" d="M17.995,9.416h1.723l-0.112,1.009c0.52-0.784,1.037-1.135,1.653-1.135c0.574,0,0.882,0.351,0.952,1.079
		c0.448-0.687,1.021-1.079,1.597-1.079c0.603,0,0.952,0.421,0.952,1.163c0,0.14-0.028,0.476-0.056,0.742l-0.562,4.482h-1.723
		l0.434-3.544c0.028-0.267,0.057-0.532,0.057-0.658c0-0.267-0.126-0.435-0.336-0.435c-0.168,0-0.322,0.099-0.42,0.28
		c-0.07,0.126-0.099,0.238-0.169,0.812l-0.434,3.544h-1.723l0.447-3.656c0.028-0.21,0.042-0.42,0.042-0.504
		c0-0.294-0.111-0.448-0.321-0.448c-0.196,0-0.394,0.14-0.478,0.351c-0.042,0.084-0.069,0.321-0.111,0.602l-0.462,3.656h-1.724
		L17.995,9.416z"/>
	<path class="st1" d="M31.127,6.335h3.67l-0.21,1.723h-1.85l-0.252,1.989h1.667l-0.21,1.778h-1.667l-0.477,3.853h-1.821
		L31.127,6.335z"/>
	<path class="st1" d="M36.363,9.416h1.724l-0.771,6.262h-1.723L36.363,9.416z M36.391,7.694c0-0.672,0.588-1.247,1.247-1.247
		c0.532,0,0.953,0.421,0.953,0.967c0,0.673-0.574,1.261-1.247,1.261C36.797,8.674,36.391,8.254,36.391,7.694z"/>
	<path class="st1" d="M40.184,9.416h1.724l-0.112,0.98c0.477-0.77,0.967-1.106,1.61-1.106c0.631,0,0.952,0.393,0.952,1.163
		c0,0.154-0.027,0.476-0.098,1.036l-0.518,4.188h-1.724l0.436-3.572c0.027-0.28,0.056-0.518,0.056-0.644
		c0-0.267-0.126-0.406-0.336-0.406c-0.196,0-0.35,0.126-0.448,0.336c-0.07,0.14-0.07,0.196-0.14,0.714l-0.448,3.572h-1.723
		L40.184,9.416z"/>
	<path class="st1" d="M46.596,9.416h1.723l-0.771,6.262h-1.723L46.596,9.416z M46.624,7.694c0-0.672,0.588-1.247,1.247-1.247
		c0.531,0,0.952,0.421,0.952,0.967c0,0.673-0.573,1.261-1.246,1.261C47.031,8.674,46.624,8.254,46.624,7.694z"/>
	<path class="st1" d="M50.362,13.843c0.309,0.294,0.519,0.393,0.799,0.393c0.35,0,0.615-0.253,0.615-0.589
		c0-0.21-0.111-0.322-0.489-0.546c-0.953-0.547-1.22-0.925-1.22-1.695c0-1.219,0.968-2.115,2.298-2.115
		c0.63,0,1.063,0.154,1.582,0.547l-0.854,1.274c-0.308-0.336-0.477-0.435-0.756-0.435c-0.294,0-0.504,0.225-0.504,0.519
		c0,0.21,0.111,0.309,0.588,0.574c0.756,0.42,1.063,0.868,1.063,1.527c0,1.414-0.979,2.507-2.269,2.507
		c-0.645,0-1.205-0.224-1.765-0.714L50.362,13.843z"/>
	<path class="st1" d="M56.2,5.691h1.723l-0.575,4.706c0.478-0.77,0.967-1.106,1.611-1.106c0.63,0,0.952,0.393,0.952,1.163
		c0,0.154-0.028,0.476-0.099,1.036l-0.518,4.188H57.57l0.436-3.572c0.028-0.28,0.056-0.518,0.056-0.644
		c0-0.267-0.126-0.406-0.336-0.406c-0.195,0-0.35,0.126-0.448,0.336c-0.069,0.14-0.069,0.196-0.14,0.714l-0.448,3.572h-1.723
		L56.2,5.691z"/>
	<path class="st1" d="M65.75,13.745c-0.183,0.574-0.28,0.798-0.462,1.106c-0.364,0.602-1.008,0.952-1.766,0.952
		c-1.232,0-2.003-0.91-2.003-2.367c0-2.367,1.177-4.146,2.761-4.146c1.12,0,1.793,0.841,1.793,2.241
		c0,0.477-0.042,0.854-0.168,1.485h-2.731c-0.028,0.322-0.042,0.49-0.042,0.658c0,0.561,0.168,0.826,0.533,0.826
		c0.35,0,0.546-0.238,0.616-0.756L65.75,13.745L65.75,13.745z M64.574,11.938c0.027-0.196,0.041-0.322,0.041-0.476
		c0-0.547-0.182-0.841-0.504-0.841c-0.42,0-0.714,0.504-0.784,1.316L64.574,11.938L64.574,11.938z"/>
	<path class="st1" d="M70.215,14.963c-0.378,0.575-0.771,0.841-1.233,0.841c-0.854,0-1.345-0.841-1.345-2.325
		c0-1.135,0.28-2.409,0.672-3.138c0.378-0.687,0.869-1.051,1.457-1.051c0.49,0,0.827,0.294,1.037,0.896l0.546-4.496h1.737
		l-1.233,9.987H70.13L70.215,14.963z M70.677,11.825c0-0.644-0.14-0.952-0.42-0.966c-0.462-0.028-0.869,1.093-0.869,2.381
		c0,0.631,0.168,0.995,0.448,0.995C70.299,14.236,70.677,13.156,70.677,11.825z"/>
	<path class="st1" d="M78.824,6.335h1.821l-1.148,9.343h-1.821L78.824,6.335z"/>
	<path class="st1" d="M82.505,9.416h1.723l-0.111,0.98c0.477-0.77,0.967-1.106,1.61-1.106c0.63,0,0.953,0.393,0.953,1.163
		c0,0.154-0.028,0.476-0.098,1.036l-0.519,4.188H84.34l0.435-3.572c0.028-0.28,0.057-0.518,0.057-0.644
		c0-0.267-0.126-0.406-0.336-0.406c-0.196,0-0.351,0.126-0.448,0.336c-0.07,0.14-0.07,0.196-0.14,0.714l-0.448,3.572h-1.724
		L82.505,9.416z"/>
	<path class="st1" d="M88.862,13.843c0.309,0.294,0.519,0.393,0.799,0.393c0.35,0,0.615-0.253,0.615-0.589
		c0-0.21-0.111-0.322-0.489-0.546c-0.953-0.547-1.22-0.925-1.22-1.695c0-1.219,0.968-2.115,2.298-2.115
		c0.63,0,1.063,0.154,1.582,0.547l-0.854,1.274c-0.308-0.336-0.477-0.435-0.756-0.435c-0.294,0-0.504,0.225-0.504,0.519
		c0,0.21,0.111,0.309,0.588,0.574c0.756,0.42,1.063,0.868,1.063,1.527c0,1.414-0.979,2.507-2.269,2.507
		c-0.645,0-1.205-0.224-1.765-0.714L88.862,13.843z"/>
	<path class="st1" d="M94.868,18.76h-1.724l1.148-9.344h1.723l-0.084,0.771c0.351-0.603,0.756-0.896,1.261-0.896
		c0.868,0,1.316,0.771,1.316,2.241c0,2.409-0.938,4.272-2.143,4.272c-0.477,0-0.784-0.252-1.022-0.841L94.868,18.76z M96.745,11.854
		c0-0.63-0.168-0.994-0.448-0.994c-0.448,0-0.827,1.078-0.827,2.396c0,0.644,0.14,0.98,0.42,0.98
		C96.352,14.236,96.745,13.143,96.745,11.854z"/>
	<path class="st1" d="M104.333,13.745c-0.183,0.574-0.28,0.798-0.462,1.106c-0.364,0.602-1.009,0.952-1.766,0.952
		c-1.232,0-2.003-0.91-2.003-2.367c0-2.367,1.178-4.146,2.76-4.146c1.121,0,1.794,0.841,1.794,2.241
		c0,0.477-0.042,0.854-0.169,1.485h-2.73c-0.028,0.322-0.042,0.49-0.042,0.658c0,0.561,0.168,0.826,0.532,0.826
		c0.35,0,0.546-0.238,0.615-0.756L104.333,13.745L104.333,13.745z M103.157,11.938c0.027-0.196,0.041-0.322,0.041-0.476
		c0-0.547-0.182-0.841-0.504-0.841c-0.42,0-0.714,0.504-0.784,1.316L103.157,11.938L103.157,11.938z"/>
	<path class="st1" d="M109.148,15.58c-0.434,0.168-0.658,0.224-1.021,0.224c-1.177,0-1.892-0.952-1.892-2.535
		c0-0.967,0.267-1.976,0.715-2.703c0.546-0.883,1.19-1.275,2.101-1.275c0.336,0,0.504,0.042,0.854,0.183L109.71,11
		c-0.154-0.154-0.252-0.196-0.462-0.196c-0.714,0-1.233,0.911-1.233,2.144c0,0.826,0.252,1.219,0.785,1.219
		c0.196,0,0.322-0.042,0.546-0.183L109.148,15.58z"/>
	<path class="st1" d="M111.807,10.86h-0.588l0.182-1.443h0.589l0.21-1.723h1.723l-0.21,1.723h0.701l-0.168,1.443h-0.7l-0.604,4.818
		h-1.723L111.807,10.86z"/>
	<path class="st1" d="M115.965,9.416h1.723l-0.771,6.262h-1.724L115.965,9.416z M115.993,7.694c0-0.672,0.588-1.247,1.246-1.247
		c0.532,0,0.953,0.421,0.953,0.967c0,0.673-0.574,1.261-1.247,1.261C116.399,8.674,115.993,8.254,115.993,7.694z"/>
	<path class="st1" d="M119.786,9.416h1.723l-0.112,0.98c0.478-0.77,0.968-1.106,1.611-1.106c0.63,0,0.953,0.393,0.953,1.163
		c0,0.154-0.028,0.476-0.099,1.036l-0.518,4.188h-1.723l0.435-3.572c0.028-0.28,0.056-0.518,0.056-0.644
		c0-0.267-0.125-0.406-0.336-0.406c-0.195,0-0.35,0.126-0.447,0.336c-0.07,0.14-0.07,0.196-0.141,0.714l-0.447,3.572h-1.724
		L119.786,9.416z"/>
	<path class="st1" d="M126.745,16.504v0.154c0,0.462,0.182,0.7,0.531,0.7c0.49,0,0.729-0.392,0.854-1.513l0.112-0.952
		c-0.519,0.729-0.784,0.91-1.262,0.91c-0.854,0-1.387-0.91-1.387-2.339c0-1.022,0.268-2.283,0.659-3.068
		c0.364-0.728,0.868-1.106,1.442-1.106c0.532,0,0.841,0.252,1.135,0.883l0.084-0.757h1.736l-0.841,6.808
		c-0.112,0.883-0.237,1.233-0.602,1.667c-0.49,0.589-1.22,0.896-2.073,0.896c-1.232,0-1.919-0.688-1.919-1.919
		c0-0.112,0-0.224,0.014-0.364L126.745,16.504L126.745,16.504z M128.65,11.854c0-0.672-0.126-0.98-0.42-0.994
		c-0.462-0.028-0.869,1.093-0.869,2.354c0,0.63,0.168,0.994,0.448,0.994C128.272,14.207,128.65,13.143,128.65,11.854z"/>
	<path class="st1" d="M138.267,14.963c-0.378,0.575-0.771,0.841-1.232,0.841c-0.854,0-1.346-0.841-1.346-2.325
		c0-1.135,0.28-2.409,0.672-3.138c0.379-0.687,0.869-1.051,1.457-1.051c0.49,0,0.827,0.294,1.037,0.896l0.099-0.771h1.724
		l-0.771,6.262h-1.723L138.267,14.963z M138.73,11.825c0-0.644-0.14-0.952-0.42-0.966c-0.462-0.028-0.869,1.093-0.869,2.381
		c0,0.631,0.168,0.995,0.448,0.995C138.351,14.236,138.73,13.156,138.73,11.825z"/>
	<path class="st1" d="M142.761,9.416h1.723l-0.111,0.98c0.477-0.77,0.967-1.106,1.61-1.106c0.63,0,0.952,0.393,0.952,1.163
		c0,0.154-0.027,0.476-0.098,1.036l-0.52,4.188h-1.723l0.434-3.572c0.028-0.28,0.058-0.518,0.058-0.644
		c0-0.267-0.126-0.406-0.337-0.406c-0.195,0-0.35,0.126-0.447,0.336c-0.07,0.14-0.07,0.196-0.141,0.714l-0.448,3.572h-1.724
		L142.761,9.416z"/>
	<path class="st1" d="M151.175,14.963c-0.378,0.575-0.77,0.841-1.232,0.841c-0.854,0-1.345-0.841-1.345-2.325
		c0-1.135,0.28-2.409,0.673-3.138c0.378-0.687,0.868-1.051,1.456-1.051c0.491,0,0.827,0.294,1.037,0.896l0.546-4.496h1.737
		l-1.232,9.987h-1.724L151.175,14.963z M151.638,11.825c0-0.644-0.141-0.952-0.42-0.966c-0.463-0.028-0.869,1.093-0.869,2.381
		c0,0.631,0.168,0.995,0.448,0.995C151.26,14.236,151.638,13.156,151.638,11.825z"/>
	<path class="st1" d="M159.798,6.335h1.976c0.938,0,1.526,0.126,1.946,0.434c0.52,0.393,0.827,1.079,0.827,1.892
		c0,1.204-0.547,2.143-1.625,2.76L164,15.679h-1.919l-1.078-4.314l-0.532,4.314h-1.821L159.798,6.335z M161.409,10.369
		c0.825,0,1.357-0.603,1.357-1.555c0-0.477-0.14-0.785-0.435-0.925c-0.153-0.084-0.252-0.099-0.896-0.099l-0.308,2.55
		C161.255,10.355,161.353,10.369,161.409,10.369z"/>
	<path class="st1" d="M170.159,13.745c-0.183,0.574-0.28,0.798-0.463,1.106c-0.363,0.602-1.009,0.952-1.766,0.952
		c-1.232,0-2.003-0.91-2.003-2.367c0-2.367,1.177-4.146,2.76-4.146c1.12,0,1.793,0.841,1.793,2.241c0,0.477-0.042,0.854-0.168,1.485
		h-2.73c-0.028,0.322-0.042,0.49-0.042,0.658c0,0.561,0.168,0.826,0.531,0.826c0.351,0,0.547-0.238,0.616-0.756L170.159,13.745
		L170.159,13.745z M168.983,11.938c0.028-0.196,0.042-0.322,0.042-0.476c0-0.547-0.182-0.841-0.504-0.841
		c-0.42,0-0.715,0.504-0.784,1.316L168.983,11.938L168.983,11.938z"/>
	<path class="st1" d="M174.624,14.963c-0.378,0.575-0.771,0.841-1.232,0.841c-0.854,0-1.345-0.841-1.345-2.325
		c0-1.135,0.28-2.409,0.673-3.138c0.378-0.687,0.868-1.051,1.456-1.051c0.491,0,0.827,0.294,1.037,0.896l0.098-0.771h1.724
		l-0.771,6.262h-1.724L174.624,14.963z M175.087,11.825c0-0.644-0.141-0.952-0.42-0.966c-0.463-0.028-0.869,1.093-0.869,2.381
		c0,0.631,0.168,0.995,0.448,0.995C174.709,14.236,175.087,13.156,175.087,11.825z"/>
	<path class="st1" d="M181.092,14.963c-0.378,0.575-0.771,0.841-1.232,0.841c-0.854,0-1.345-0.841-1.345-2.325
		c0-1.135,0.28-2.409,0.673-3.138c0.378-0.687,0.868-1.051,1.456-1.051c0.49,0,0.827,0.294,1.037,0.896l0.546-4.496h1.737
		l-1.232,9.987h-1.724L181.092,14.963z M181.555,11.825c0-0.644-0.141-0.952-0.421-0.966c-0.462-0.028-0.868,1.093-0.868,2.381
		c0,0.631,0.168,0.995,0.448,0.995C181.177,14.236,181.555,13.156,181.555,11.825z"/>
	<path class="st1" d="M185.039,9.416h1.724l0.321,2.283c0.099,0.715,0.112,1.149,0.112,1.289l1.246-3.572h1.736l-3.796,9.344h-1.681
		l1.387-3.208L185.039,9.416z"/>
	<path class="st1" d="M195.217,10.86h-0.588l0.182-1.443h0.589l0.21-1.723h1.724l-0.21,1.723h0.7l-0.168,1.443h-0.7l-0.604,4.818
		h-1.723L195.217,10.86z"/>
	<path class="st1" d="M198.773,13.198c0-0.84,0.225-1.778,0.588-2.479c0.478-0.924,1.262-1.429,2.199-1.429
		c1.262,0,1.977,0.854,1.977,2.396c0,2.508-1.094,4.118-2.773,4.118C199.459,15.804,198.773,14.894,198.773,13.198z M201.77,11.825
		c0-0.644-0.14-0.966-0.405-0.966c-0.463,0-0.854,1.106-0.854,2.381c0,0.631,0.153,0.995,0.434,0.995
		C201.407,14.236,201.77,13.143,201.77,11.825z"/>
	<path class="st1" d="M210.351,6.335h2.382l0.238,5.519l1.4-5.519h2.45l-0.182,9.343h-1.863l0.364-6.724
		c-0.153,0.771-0.28,1.261-0.546,2.157l-1.359,4.566h-1.399l-0.336-4.244c-0.028-0.322-0.07-1.345-0.07-1.583
		c0-0.252,0-0.309,0.028-0.896l-1.107,6.724h-1.961L210.351,6.335z"/>
	<path class="st1" d="M218.738,13.198c0-0.84,0.224-1.778,0.588-2.479c0.477-0.924,1.261-1.429,2.198-1.429
		c1.261,0,1.977,0.854,1.977,2.396c0,2.508-1.093,4.118-2.773,4.118C219.423,15.804,218.738,14.894,218.738,13.198z M221.734,11.825
		c0-0.644-0.14-0.966-0.405-0.966c-0.462,0-0.854,1.106-0.854,2.381c0,0.631,0.153,0.995,0.434,0.995
		C221.37,14.236,221.734,13.143,221.734,11.825z"/>
	<path class="st1" d="M225.036,9.416h1.709l0.336,2.773c0.027,0.211,0.027,0.364,0.057,0.771c0.084-0.252,0.112-0.35,0.196-0.574
		l0.084-0.196l0.979-2.773h1.778l-2.549,6.262h-1.583L225.036,9.416z"/>
	<path class="st1" d="M235.132,13.745c-0.182,0.574-0.28,0.798-0.462,1.106c-0.364,0.602-1.009,0.952-1.767,0.952
		c-1.231,0-2.003-0.91-2.003-2.367c0-2.367,1.178-4.146,2.761-4.146c1.119,0,1.793,0.841,1.793,2.241
		c0,0.477-0.042,0.854-0.168,1.485h-2.731c-0.028,0.322-0.042,0.49-0.042,0.658c0,0.561,0.168,0.826,0.532,0.826
		c0.35,0,0.546-0.238,0.616-0.756L235.132,13.745L235.132,13.745z M233.955,11.938c0.027-0.196,0.042-0.322,0.042-0.476
		c0-0.547-0.183-0.841-0.504-0.841c-0.42,0-0.716,0.504-0.784,1.316L233.955,11.938L233.955,11.938z"/>
	<path class="st1" d="M240.912,12.302c0-1.555,0.363-3.222,0.924-4.202c0.687-1.177,1.835-1.919,2.998-1.919
		c0.896,0,1.778,0.519,2.213,1.316c0.351,0.616,0.49,1.233,0.49,2.186c0,1.61-0.351,3.235-0.925,4.23
		c-0.687,1.19-1.835,1.919-3.012,1.919c-0.883,0-1.779-0.532-2.199-1.317C241.052,13.885,240.912,13.255,240.912,12.302z
		 M244.96,13.156c0.393-0.784,0.645-2.186,0.645-3.487c0-1.093-0.393-1.793-0.994-1.793c-0.405,0-0.841,0.363-1.106,0.896
		c-0.393,0.784-0.645,2.171-0.645,3.459c0,1.121,0.393,1.821,0.994,1.821C244.26,14.053,244.695,13.689,244.96,13.156z"/>
	<path class="st1" d="M249.76,9.416h1.723l-0.111,0.98c0.477-0.77,0.967-1.106,1.61-1.106c0.631,0,0.952,0.393,0.952,1.163
		c0,0.154-0.028,0.476-0.098,1.036l-0.519,4.188h-1.724l0.435-3.572c0.027-0.28,0.057-0.518,0.057-0.644
		c0-0.267-0.126-0.406-0.336-0.406c-0.196,0-0.352,0.126-0.449,0.336c-0.068,0.14-0.068,0.196-0.14,0.714l-0.448,3.572h-1.723
		L249.76,9.416z"/>
	<polygon class="st5" points="261.45,16.383 261.45,5.185 268.45,10.783 	"/>
</g>
<g id="closed-caption-big_x60_67x53">
	<path class="st2" d="M60.149,3c1.692,0,3.068,1.376,3.068,3.067v40.381c0,1.692-1.376,3.068-3.068,3.068H6.067
		C4.377,49.516,3,48.14,3,46.448V6.067C3,4.376,4.377,3,6.067,3H60.149 M60.149,0H6.067C2.716,0,0,2.717,0,6.067v40.381
		c0,3.353,2.717,6.068,6.067,6.068h54.082c3.352,0,6.068-2.716,6.068-6.068V6.067C66.218,2.716,63.501,0,60.149,0"/>
	<path class="st2" d="M29.281,36.353c-1.502,0.614-2.355,0.818-3.652,0.818c-2.765,0-5.257-1.229-6.964-3.447
		c-1.604-2.082-2.389-4.778-2.389-8.26c0-3.823,0.955-6.69,2.97-8.875c1.843-1.98,4.267-3.004,7.1-3.004
		c1.194,0,1.945,0.137,3.038,0.546v6.52c-1.024-1.023-1.741-1.365-2.834-1.365c-2.491,0-3.993,2.287-3.993,6.076
		c0,3.687,1.434,5.871,3.892,5.871c1.16,0,1.979-0.376,3.208-1.468L29.281,36.353z"/>
	<path class="st2" d="M47.749,36.353c-1.502,0.614-2.355,0.818-3.652,0.818c-2.765,0-5.257-1.229-6.964-3.447
		c-1.604-2.082-2.389-4.778-2.389-8.26c0-3.823,0.955-6.69,2.97-8.875c1.843-1.98,4.267-3.004,7.1-3.004
		c1.194,0,1.945,0.137,3.038,0.546v6.52c-1.024-1.023-1.741-1.365-2.834-1.365c-2.491,0-3.993,2.287-3.993,6.076
		c0,3.687,1.434,5.871,3.892,5.871c1.16,0,1.979-0.376,3.208-1.468L47.749,36.353z"/>
</g>
</svg>
