<?xml version="1.0" encoding="utf-8"?>
<!-- Generator: Adobe Illustrator 15.0.0, SVG Export Plug-In . SVG Version: 6.00 Build 0)  -->
<!DOCTYPE svg PUBLIC "-//W3C//DTD SVG 1.1//EN" "http://www.w3.org/Graphics/SVG/1.1/DTD/svg11.dtd">
<svg version="1.1" id="Layer_1" xmlns="http://www.w3.org/2000/svg" xmlns:xlink="http://www.w3.org/1999/xlink" x="0px" y="0px"
	 width="1024px" height="768px" viewBox="0 0 1024 768" style="enable-background:new 0 0 1024 768;" xml:space="preserve">
<style type="text/css">
<![CDATA[
	.st0{fill:#53848C;}
	.st1{fill:none;stroke:#FFFFFF;stroke-width:3;stroke-linecap:square;stroke-miterlimit:10;}
	.st2{fill:#F9773E;}
	.st3{opacity:0.5;fill:#6B989F;enable-background:new    ;}
	.st4{fill:#FFB81A;}
	.st5{fill:#FFFFFF;}
	.st6{fill:#6B989F;}
	.st7{fill:none;stroke:#FFB81A;stroke-width:2.9184;stroke-miterlimit:10;}
	.st8{fill:#71A8A8;}
	.st9{fill:#FFFFFF;stroke:#231F20;stroke-miterlimit:10;}
	.st10{fill:none;stroke:#FFFFFF;stroke-width:3;stroke-miterlimit:10;}
]]>
</style>
<symbol  id="New_Symbol" viewBox="-10.3 -10.3 20.6 20.6">
	<polygon class="st9" points="9.8,-9.8 -9.8,-9.8 -9.8,9.8 9.8,9.8 	"/>
</symbol>
<g id="first">
	
		<use xlink:href="#New_Symbol"  width="20.6" height="20.6" x="-10.3" y="-10.3" transform="matrix(0.9952 0 0 -0.9952 14.25 14.25)" style="overflow:visible;"/>
</g>
<g id="ep4-badge">
	<g id="_x3E_white_3_">
		<path id="XMLID_93_" class="st10" d="M20.3,29.8h4.5c5,0,4.5-6,4.5-6H13.6v10l10.2,2.8"/>
		<polyline id="XMLID_92_" class="st10" points="21.199,29.8 34.5,29.8 34.5,17.5 13.5,17.5 13.5,25.8 		"/>
		<line id="XMLID_91_" class="st10" x1="29.199" y1="29.8" x2="29.199" y2="17.5"/>
		<line id="XMLID_90_" class="st10" x1="31.699" y1="36.5" x2="31.699" y2="30"/>
		<line id="XMLID_89_" class="st10" x1="24" y1="23.3" x2="24" y2="17.5"/>
		<line id="XMLID_88_" class="st10" x1="18.8" y1="23.3" x2="18.8" y2="17.5"/>
	</g>
	<g id="XMLID_94_">
		<path class="st4" d="M24,7.4l17,8.9v19.4l-17,8.9L7,35.7V16.3L24,7.4 M24,4L4,14.5v23.1l20,10.5l20-10.5V14.5L24,4L24,4z"/>
	</g>
</g>
<g id="ep3-badge">
	<g id="_x3E_white_2_">
		<polyline id="XMLID_74_" class="st1" points="10.2,18.8 24,11.6 37.7,18.8 37.7,25.7 24,32.9 		"/>
		<polyline id="XMLID_73_" class="st1" points="37.7,25.3 37.7,32.1 24,39.3 		"/>
		<line id="XMLID_72_" class="st10" x1="37.7" y1="32.7" x2="37.7" y2="39"/>
		<line id="XMLID_71_" class="st1" x1="36.9" y1="19.4" x2="24" y2="26.2"/>
	</g>
	<g>
		<g id="XMLID_69_">
			<g>
				<path class="st4" d="M7,19.5l14,7.3v16.3L7,35.8V19.5 M4,14.5v23.1l20,10.5l0,0V25L4,14.5L4,14.5L4,14.5z"/>
			</g>
		</g>
		<path id="XMLID_68_" class="st4" d="M34.8,24.3c-0.101,0.6-0.601,1-1.101,1s-0.8-0.4-0.699-1c0.1-0.6,0.6-1,1.1-1
			C34.7,23.3,34.9,23.7,34.8,24.3z"/>
		<path id="XMLID_67_" class="st4" d="M34.8,30.7c-0.101,0.6-0.601,1-1.101,1s-0.8-0.4-0.699-1c0.1-0.6,0.6-1,1.1-1
			S34.9,30.2,34.8,30.7z"/>
		<path id="XMLID_66_" class="st4" d="M34.8,37.4c-0.101,0.6-0.601,1-1.101,1S32.9,38,33,37.4c0.1-0.6,0.6-1,1.1-1
			C34.7,36.4,34.9,36.8,34.8,37.4z"/>
		<g id="XMLID_59_">
			<path class="st4" d="M24,7.4l17,8.9v19.4l-17,8.9L7,35.7V16.3L24,7.4 M24,4L4,14.5v23.1l20,10.5l20-10.5V14.5L24,4L24,4z"/>
		</g>
	</g>
</g>
<g id="ep2-badge">
	<g id="_x3E_white_1_">
		<line id="XMLID_333_" class="st10" x1="35.9" y1="19.4" x2="26" y2="25.2"/>
		<line id="XMLID_332_" class="st10" x1="24" y1="39.7" x2="24" y2="28.2"/>
		<line id="XMLID_330_" class="st10" x1="22" y1="25.2" x2="12" y2="19.4"/>
		<polyline id="XMLID_329_" class="st10" points="33.2,35.5 24,40.3 14.7,35.5 		"/>
		<polyline id="XMLID_328_" class="st10" points="27.6,13.9 36.8,18.7 36.8,29.3 		"/>
		<polyline id="XMLID_327_" class="st10" points="11.1,29.3 11.1,18.7 20.3,13.9 		"/>
	</g>
	<g id="XMLID_335_">
		<path class="st4" d="M24,7.4l17,8.9v19.4l-17,8.9L7,35.7V16.3L24,7.4 M24,4L4,14.5v23.1l20,10.5l20-10.5V14.5L24,4L24,4z"/>
	</g>
</g>
<g id="ep1-badge">
	<g id="_x3E_white">
		<polyline id="XMLID_108_" class="st10" points="14,20.4 19.6,26 14,31.7 		"/>
		<polyline id="XMLID_107_" class="st10" points="34,31.7 28.3,26 34,20.4 		"/>
		<polyline id="XMLID_105_" class="st10" points="29.6,16 24,21.7 18.3,16 		"/>
		<polyline id="XMLID_104_" class="st10" points="18.3,36 24,30.4 29.6,36 		"/>
		<line id="XMLID_102_" class="st10" x1="24" y1="20" x2="24" y2="7"/>
		<line id="XMLID_101_" class="st10" x1="24" y1="45" x2="24" y2="32"/>
		<line id="XMLID_100_" class="st10" x1="30" y1="26" x2="43" y2="26"/>
		<line id="XMLID_98_" class="st10" x1="6" y1="26" x2="19" y2="26"/>
	</g>
	<g id="XMLID_60_">
		<path class="st4" d="M24,7.4l17,8.9v19.4l-17,8.9L7,35.7V16.3L24,7.4 M24,4L4,14.5v23.1l20,10.5l20-10.5V14.5L24,4L24,4z"/>
	</g>
</g>
<g id="rank-badge-cyber-cadet">
	<polygon class="st5" points="41.5,4 42.6,6.3 45,6.7 43.3,8.5 43.7,11 41.5,9.8 39.4,11 39.8,8.5 38,6.7 40.5,6.3 	"/>
	<polygon class="st5" points="7.5,4 8.6,6.3 11,6.7 9.3,8.5 9.7,11 7.5,9.8 5.4,11 5.8,8.5 4,6.7 6.5,6.3 	"/>
	<polygon class="st4" points="20.2,45.3 17,43.6 16.7,43.8 16.8,43.5 9.5,39.7 9.5,22.3 21.1,16.2 21.8,12.5 6.5,20.5 6.5,41.5 
		19.5,48.3 	"/>
	<polygon class="st4" points="27.3,12.5 27.9,16.2 39.5,22.3 39.5,39.7 29.6,44.9 28.4,49 42.5,41.5 42.5,20.5 	"/>
	<g>
		<polygon class="st5" points="25.5,45.3 21.5,48.2 24.5,35 19.5,39 22.5,21 27.5,21 25.5,29 29.5,26 26,40.1 29.7,37.3 23.3,59.2 
					"/>
		<rect x="17.5" y="20" class="st5" width="14" height="2"/>
		<polygon class="st5" points="24.5,8 22.5,20 26.5,20 		"/>
		<g id="XMLID_45_">
			<g id="XMLID_157_">
				<g id="XMLID_185_">
					<g id="XMLID_229_">
						<polygon class="st5" points="24.5,6 22.5,7.2 22.5,9.8 24.5,11 26.5,9.8 26.5,7.2 						"/>
					</g>
				</g>
			</g>
		</g>
	</g>
</g>
<g id="rank-badge-technical-cadet">
	<polygon class="st4" points="27.6,14 28.1,17 37.5,17 37.5,39.2 28.1,45.8 27.6,49.8 40.5,40.8 40.5,14 	"/>
	<polygon class="st4" points="21,45.9 11.7,39.6 11.6,17 21,17 21.5,14 8.5,14 8.7,41.2 21.5,49.9 	"/>
	<g>
		<g>
			<g>
				<polygon class="st5" points="24.5,21 20.5,25 24.5,59 28.5,25 				"/>
			</g>
		</g>
		<rect x="17.5" y="20" class="st5" width="14" height="2"/>
		<polygon class="st5" points="24.5,8 22.5,20 26.5,20 		"/>
		<g id="XMLID_166_">
			<g id="XMLID_168_">
				<g id="XMLID_169_">
					<g id="XMLID_170_">
						<polygon class="st5" points="24.5,6 22.5,7.2 22.5,9.8 24.5,11 26.5,9.8 26.5,7.2 						"/>
					</g>
				</g>
			</g>
		</g>
	</g>
	<polygon class="st5" points="41.5,4 42.6,6.3 45,6.7 43.3,8.5 43.7,11 41.5,9.8 39.4,11 39.8,8.5 38,6.7 40.5,6.3 	"/>
	<polygon class="st5" points="7.5,4 8.6,6.3 11,6.7 9.3,8.5 9.7,11 7.5,9.8 5.4,11 5.8,8.5 4,6.7 6.5,6.3 	"/>
</g>
<g id="rank-badge-cadet-first-class">
	<g>
		<path class="st4" d="M37.5,17v22.2l-13,9.1l-12.9-8.7L11.5,17H37.5 M40.5,14h-32l0.1,27.2L24.5,52l16-11.2V14L40.5,14z"/>
	</g>
	<line class="st7" x1="9.4" y1="28" x2="39.7" y2="28"/>
	<polygon class="st5" points="41.5,4 42.6,6.3 45,6.7 43.3,8.5 43.7,11 41.5,9.8 39.4,11 39.8,8.5 38,6.7 40.5,6.3 	"/>
	<polygon class="st5" points="7.5,4 8.6,6.3 11,6.7 9.3,8.5 9.7,11 7.5,9.8 5.4,11 5.8,8.5 4,6.7 6.5,6.3 	"/>
</g>
<g id="rank-badge-cadet">
	<g>
		<path class="st4" d="M33,7v22.2l-13,9.1L7.1,29.6L7,7H33 M36,4H4l0.1,27.2L20,42l16-11.2V4L36,4z"/>
	</g>
	<line class="st7" x1="4.9" y1="18" x2="35.2" y2="18"/>
</g>
<g id="rank-badge-recruit">
	<g>
		<path class="st4" d="M33,7v22.2l-13,9.1L7.1,29.6L7,7H33 M36,4H4l0.1,27.2L20,42l16-11.2V4L36,4z"/>
	</g>
</g>
<g id="chapter-progress-chapter">
	<g id="XMLID_150_">
		<path class="st6" d="M12,7.4l5,2.7v5.8l-5,2.7l-5-2.7v-5.8L12,7.4 M12,4L4,8.3v9.4l8,4.3l8-4.3V8.3L12,4L12,4z"/>
	</g>
</g>
<g id="chapter-progress-slide">
	<rect x="4" y="4" class="st6" width="9" height="9"/>
</g>
<g id="chapter-progress-test">
	<polygon class="st3" points="23.7,28.1 17.8,31.2 6.5,25.4 6.5,12.7 10.2,10.8 8.3,8.9 4,11.2 4,26.9 17.8,34 26.1,29.7 	"/>
	<polygon class="st3" points="17.8,4 11.4,7.3 13.9,8.9 17.8,6.9 29,12.7 29,25.4 27.2,26.3 29.1,28.2 31.5,26.9 31.5,11.2 	"/>
	<g>
		<polygon class="st2" points="7.8,6.5 20.7,14.6 16.7,14.5 27.5,23.7 22.8,23.8 29.7,30.5 15.9,21.7 21.1,21.6 9.6,12.8 13.7,12.6 
					"/>
	</g>
</g>
<g id="chapter-progress-duties">
	<circle class="st6" cx="8.5" cy="8.5" r="4.5"/>
</g>
<g id="list-progress-base">
	<g id="hex-outer_1_">
		<g id="XMLID_1080_">
			<path class="st2" d="M24,8.5l16,8.4v18.2l-16,8.4L8,35.1V16.9L24,8.5 M24,4L4,14.5v23.1l20,10.5l20-10.5V14.5L24,4L24,4z"/>
		</g>
	</g>
	<g id="hex-inner_1_">
		<g id="XMLID_2384_">
			<polygon class="st4" points="24,40.6 11.2,33.7 11.2,18.3 24,11.3 36.8,18.3 36.8,33.5 			"/>
		</g>
	</g>
</g>
<g id="list-progress-complete">
	<g id="hex-inner">
		<g>
			<polygon class="st8" points="29.2,17.8 34.7,21.2 28.3,21.2 27.4,21.2 36.8,29.3 36.8,18.3 24,11.3 21.2,12.8 			"/>
		</g>
		<g>
			<polygon class="st8" points="20.3,31.5 15.2,28.2 21.2,28.1 23.6,28 11.2,18.5 11.2,33.7 24,40.6 29.7,37.5 			"/>
		</g>
	</g>
	<g id="hex-outer">
		<polygon class="st0" points="32.3,39.1 24,43.5 8,35.1 8,16.9 13.1,14.2 10.2,11.2 4,14.4 4,37.5 24,48 36.2,41.6 		"/>
		<polygon class="st0" points="24,4 14.7,8.8 18.7,11.3 24,8.5 40,16.9 40,35.1 37.5,36.4 40.6,39.3 44,37.5 44,14.4 		"/>
	</g>
	<g id="lightning_1_">
		<g id="lightning">
			<polygon class="st4" points="9.3,7.6 28.3,19.4 22.5,19.4 38.3,32.9 31.4,33 41.5,42.8 21.3,29.9 28.9,29.8 12,16.8 18.1,16.6 
							"/>
		</g>
	</g>
</g>
</svg>
