<?xml version="1.0" encoding="utf-8"?>
<!-- Generator: Adobe Illustrator 15.0.0, SVG Export Plug-In . SVG Version: 6.00 Build 0)  -->
<!DOCTYPE svg PUBLIC "-//W3C//DTD SVG 1.0//EN" "http://www.w3.org/TR/2001/REC-SVG-20010904/DTD/svg10.dtd">
<svg version="1.0" id="Layer_1" xmlns="http://www.w3.org/2000/svg" xmlns:xlink="http://www.w3.org/1999/xlink" x="0px" y="0px"
	 width="725px" height="612px" viewBox="0 0 725 612" style="enable-background:new 0 0 725 612;" xml:space="preserve">
<style type="text/css">
<![CDATA[
	.st0{fill:#E03F07;}
	.st1{fill:#53848C;}
	.st2{fill:none;stroke:#FFFFFF;stroke-width:6;stroke-miterlimit:10;}
	.st3{fill:none;stroke:#F9773E;stroke-miterlimit:10;}
	.st4{fill:none;stroke:#FFFFFF;stroke-width:3;stroke-linecap:square;stroke-miterlimit:10;}
	.st5{fill:#F9773E;}
	.st6{opacity:0.5;fill:#6B989F;enable-background:new    ;}
	.st7{clip-path:url(#SVGID_2_);fill:none;stroke:#F9773E;stroke-miterlimit:10;}
	.st8{opacity:0.75;fill:#FFB81A;enable-background:new    ;}
	.st9{fill:#FFB81A;}
	.st10{fill:#FFFFFF;}
	.st11{fill:none;}
	.st12{clip-path:url(#SVGID_2_);fill:#F9773E;}
	.st13{fill:none;stroke:#335E6E;stroke-width:2;stroke-miterlimit:10;}
	.st14{fill:#335E6E;}
	.st15{fill:#345D6E;}
	.st16{fill:#6B989F;}
	.st17{fill:none;stroke:#FFFFFF;stroke-width:1.4167;stroke-miterlimit:10;}
	.st18{fill:none;stroke:#F9773E;stroke-width:2;stroke-miterlimit:10;}
	.st19{fill:none;stroke:#FFB81A;stroke-width:2.9184;stroke-miterlimit:10;}
	.st20{fill:#71A8A8;}
	.st21{clip-path:url(#SVGID_2_);fill:none;stroke:#F9773E;stroke-width:2;stroke-miterlimit:10;}
	.st22{fill:#FFFFFF;stroke:#231F20;stroke-miterlimit:10;}
	.st23{fill:none;stroke:#FFFFFF;stroke-width:3;stroke-miterlimit:10;}
	.st24{fill:none;stroke:#FFFFFF;stroke-width:1.4167;stroke-linecap:round;stroke-miterlimit:10;}
	.st25{fill:none;stroke:#FFFFFF;stroke-width:1.4167;stroke-miterlimit:1;}
]]>
</style>
<symbol  id="New_Symbol" viewBox="-10.3 -10.3 20.6 20.6">
	<polygon class="st22" points="9.8,-9.8 -9.8,-9.8 -9.8,9.8 9.8,9.8 	"/>
</symbol>
<g id="first">
	
		<use xlink:href="#New_Symbol"  width="20.6" height="20.6" x="-10.3" y="-10.3" transform="matrix(0.7046 0 0 -0.7046 11.2573 11.2573)" style="overflow:visible;"/>
</g>
<g id="ep4-badge">
	<g id="_x3E_white_3_">
		<path id="XMLID_93_" class="st23" d="M15.5,22.3h3.2c3.5,0,3.2-4.2,3.2-4.2H10.8v7.1l7.2,2"/>
		<polyline id="XMLID_92_" class="st23" points="16.2,22.3 25.6,22.3 25.6,13.6 10.7,13.6 10.7,19.4 		"/>
		<line id="XMLID_91_" class="st23" x1="21.8" y1="22.3" x2="21.8" y2="13.6"/>
		<line id="XMLID_90_" class="st23" x1="23.6" y1="27" x2="23.6" y2="22.4"/>
		<line id="XMLID_89_" class="st23" x1="18.2" y1="17.7" x2="18.2" y2="13.6"/>
		<line id="XMLID_88_" class="st23" x1="14.5" y1="17.7" x2="14.5" y2="13.6"/>
	</g>
	<g id="XMLID_94_">
		<path class="st9" d="M18.2,6.4l12,6.3v13.7l-12,6.3l-12-6.3V12.7L18.2,6.4 M18.2,4L4,11.4v16.4l14.2,7.4l14.2-7.4V11.4L18.2,4
			L18.2,4z"/>
	</g>
</g>
<g id="ep3-badge">
	<g id="_x3E_white_2_">
		<polyline id="XMLID_74_" class="st4" points="8.4,14.5 18.2,9.4 27.9,14.5 27.9,19.4 18.2,24.5 		"/>
		<polyline id="XMLID_73_" class="st4" points="27.9,19.1 27.9,23.9 18.2,29 		"/>
		<line id="XMLID_72_" class="st23" x1="27.9" y1="24.3" x2="27.9" y2="28.8"/>
		<line id="XMLID_71_" class="st4" x1="27.3" y1="14.9" x2="18.2" y2="19.7"/>
	</g>
	<g>
		<g id="XMLID_69_">
			<g>
				<path class="st9" d="M6.1,15l9.9,5.2v11.5l-9.9-5.2V15 M4,11.4v16.4l14.2,7.4l0,0V18.9L4,11.4L4,11.4L4,11.4z"/>
			</g>
		</g>
		<path id="XMLID_68_" class="st9" d="M25.8,18.4c-0.1,0.4-0.4,0.7-0.8,0.7s-0.6-0.3-0.5-0.7c0.1-0.4,0.4-0.7,0.8-0.7
			C25.7,17.7,25.9,17.9,25.8,18.4z"/>
		<path id="XMLID_67_" class="st9" d="M25.8,22.9c-0.1,0.4-0.4,0.7-0.8,0.7s-0.6-0.3-0.5-0.7c0.1-0.4,0.4-0.7,0.8-0.7
			S25.9,22.5,25.8,22.9z"/>
		<path id="XMLID_66_" class="st9" d="M25.8,27.6c-0.1,0.4-0.4,0.7-0.8,0.7s-0.6-0.3-0.5-0.7c0.1-0.4,0.4-0.7,0.8-0.7
			C25.7,26.9,25.9,27.2,25.8,27.6z"/>
		<g id="XMLID_59_">
			<path class="st9" d="M18.2,6.4l12,6.3v13.7l-12,6.3l-12-6.3V12.7L18.2,6.4 M18.2,4L4,11.4v16.4l14.2,7.4l14.2-7.4V11.4L18.2,4
				L18.2,4z"/>
		</g>
	</g>
</g>
<g id="ep2-badge">
	<g id="_x3E_white_1_">
		<line id="XMLID_333_" class="st23" x1="26.6" y1="14.9" x2="19.6" y2="19"/>
		<line id="XMLID_332_" class="st23" x1="18.2" y1="29.3" x2="18.2" y2="21.1"/>
		<line id="XMLID_330_" class="st23" x1="16.7" y1="19" x2="9.7" y2="14.9"/>
		<polyline id="XMLID_329_" class="st23" points="24.7,26.3 18.2,29.7 11.6,26.3 		"/>
		<polyline id="XMLID_328_" class="st23" points="20.7,11 27.2,14.4 27.2,21.9 		"/>
		<polyline id="XMLID_327_" class="st23" points="9,21.9 9,14.4 15.5,11 		"/>
	</g>
	<g id="XMLID_335_">
		<path class="st9" d="M18.2,6.4l12,6.3v13.7l-12,6.3l-12-6.3V12.7L18.2,6.4 M18.2,4L4,11.4v16.4l14.2,7.4l14.2-7.4V11.4L18.2,4
			L18.2,4z"/>
	</g>
</g>
<g id="ep1-badge">
	<g id="_x3E_white">
		<polyline id="XMLID_108_" class="st23" points="11.1,15.6 15,19.6 11.1,23.6 		"/>
		<polyline id="XMLID_107_" class="st23" points="25.2,23.6 21.2,19.6 25.2,15.6 		"/>
		<polyline id="XMLID_105_" class="st23" points="22.1,12.5 18.2,16.5 14.1,12.5 		"/>
		<polyline id="XMLID_104_" class="st23" points="14.1,26.7 18.2,22.7 22.1,26.7 		"/>
		<line id="XMLID_102_" class="st23" x1="18.2" y1="15.3" x2="18.2" y2="6.1"/>
		<line id="XMLID_101_" class="st23" x1="18.2" y1="33" x2="18.2" y2="23.8"/>
		<line id="XMLID_100_" class="st23" x1="22.4" y1="19.6" x2="31.6" y2="19.6"/>
		<line id="XMLID_98_" class="st23" x1="5.4" y1="19.6" x2="14.6" y2="19.6"/>
	</g>
	<g id="XMLID_60_">
		<path class="st9" d="M18.2,6.4l12,6.3v13.7l-12,6.3l-12-6.3V12.7L18.2,6.4 M18.2,4L4,11.4v16.4l14.2,7.4l14.2-7.4V11.4L18.2,4
			L18.2,4z"/>
	</g>
</g>
<g id="rank-badge-cyber-cadet">
	<polygon class="st10" points="30.5,4 31.3,5.6 33,5.9 31.8,7.2 32.1,9 30.5,8.1 29.1,9 29.3,7.2 28.1,5.9 29.8,5.6 	"/>
	<polygon class="st10" points="6.5,4 7.3,5.6 9,5.9 7.8,7.2 8,9 6.5,8.1 5,9 5.3,7.2 4,5.9 5.8,5.6 	"/>
	<polygon class="st9" points="15.5,33.2 13.2,32 13,32.2 13.1,32 7.9,29.3 7.9,17 16.1,12.6 16.6,10 5.8,15.7 5.8,30.6 15,35.4 	"/>
	<polygon class="st9" points="20.5,10 20.9,12.6 29.1,17 29.1,29.3 22.1,33 21.3,35.9 31.3,30.6 31.3,15.7 	"/>
	<g>
		<polygon class="st10" points="19.2,33.2 16.4,35.3 18.5,25.9 15,28.8 17.1,16 20.6,16 19.2,21.7 22.1,19.6 19.6,29.6 22.2,27.6 
			17.7,43.1 		"/>
		<rect x="13.6" y="15.3" class="st10" width="9.9" height="1.4"/>
		<polygon class="st10" points="18.5,6.8 17.1,15.3 19.9,15.3 		"/>
		<g id="XMLID_45_">
			<g id="XMLID_157_">
				<g id="XMLID_185_">
					<g id="XMLID_229_">
						<polygon class="st10" points="18.5,5.4 17.1,6.3 17.1,8.1 18.5,9 19.9,8.1 19.9,6.3 						"/>
					</g>
				</g>
			</g>
		</g>
	</g>
</g>
<g id="rank-badge-technical-cadet">
	<polygon class="st9" points="20.7,11.1 21.1,13.2 27.7,13.2 27.7,28.9 21.1,33.6 20.7,36.4 29.8,30.1 29.8,11.1 	"/>
	<polygon class="st9" points="16,33.7 9.5,29.2 9.4,13.2 16,13.2 16.4,11.1 7.2,11.1 7.3,30.3 16.4,36.5 	"/>
	<g>
		<g>
			<g>
				<polygon class="st10" points="18.5,16 15.7,18.9 18.5,42.9 21.3,18.9 				"/>
			</g>
		</g>
		<rect x="13.6" y="15.3" class="st10" width="9.9" height="1.4"/>
		<polygon class="st10" points="18.5,6.8 17.1,15.3 19.9,15.3 		"/>
		<g id="XMLID_166_">
			<g id="XMLID_168_">
				<g id="XMLID_169_">
					<g id="XMLID_170_">
						<polygon class="st10" points="18.5,5.4 17.1,6.3 17.1,8.1 18.5,9 19.9,8.1 19.9,6.3 						"/>
					</g>
				</g>
			</g>
		</g>
	</g>
	<polygon class="st10" points="30.6,4 31.3,5.6 33,5.9 31.8,7.2 32.1,9 30.6,8.1 29.1,9 29.3,7.2 28.1,5.9 29.8,5.6 	"/>
	<polygon class="st10" points="6.5,4 7.3,5.6 9,5.9 7.8,7.2 8,9 6.5,8.1 5,9 5.3,7.2 4,5.9 5.8,5.6 	"/>
</g>
<g id="rank-badge-cadet-first-class">
	<g>
		<path class="st9" d="M27.7,13.2v15.7l-9.2,6.4l-9.1-6.2l-0.1-16H27.7 M29.8,11.1H7.2l0.1,19.3L18.5,38l11.3-7.9V11.1L29.8,11.1z"
			/>
	</g>
	<line class="st19" x1="7.8" y1="21" x2="29.3" y2="21"/>
	<polygon class="st10" points="30.5,4 31.3,5.6 33,5.9 31.8,7.2 32.1,9 30.5,8.1 29.1,9 29.3,7.2 28.1,5.9 29.8,5.6 	"/>
	<polygon class="st10" points="6.5,4 7.3,5.6 9,5.9 7.8,7.2 8,9 6.5,8.1 5,9 5.3,7.2 4,5.9 5.8,5.6 	"/>
</g>
<g id="rank-badge-cadet">
	<g>
		<path class="st9" d="M24.5,6.1v15.7l-9.2,6.4l-9.1-6.2l-0.1-16H24.5 M26.7,4H4l0.1,19.3l11.3,7.6L26.7,23V4L26.7,4z"/>
	</g>
	<line class="st19" x1="4.6" y1="13.9" x2="26.1" y2="13.9"/>
</g>
<g id="rank-badge-recruit">
	<g>
		<path class="st9" d="M24.5,6.1v15.7l-9.2,6.4l-9.1-6.2l-0.1-16H24.5 M26.7,4H4l0.1,19.3l11.3,7.6L26.7,23V4L26.7,4z"/>
	</g>
</g>
<g id="chapter-progress-chapter">
	<g id="XMLID_150_">
		<path class="st16" d="M9.7,6.4l3.5,1.9v4.1l-3.5,1.9l-3.5-1.9V8.3L9.7,6.4 M9.7,4L4,7v6.7l5.7,3l5.7-3V7L9.7,4L9.7,4z"/>
	</g>
</g>
<g id="chapter-progress-slide">
	<rect x="4" y="4" class="st16" width="6.4" height="6.4"/>
</g>
<g id="chapter-progress-test">
	<polygon class="st6" points="17.9,21.1 13.8,23.3 5.8,19.2 5.8,10.2 8.4,8.8 7,7.5 4,9.1 4,20.2 13.8,25.2 19.6,22.2 	"/>
	<polygon class="st6" points="13.8,4 9.2,6.3 11,7.5 13.8,6.1 21.7,10.2 21.7,19.2 20.4,19.8 21.8,21.1 23.5,20.2 23.5,9.1 	"/>
	<g>
		<polygon class="st5" points="6.7,5.8 15.8,11.5 13,11.4 20.6,17.9 17.3,18 22.2,22.8 12.4,16.5 16.1,16.5 8,10.2 10.9,10.1 		"/>
	</g>
</g>
<g id="chapter-progress-duties">
	<circle class="st16" cx="7.2" cy="7.2" r="3.2"/>
</g>
<g id="list-progress-base">
	<g id="hex-outer_1_">
		<g id="XMLID_1080_">
			<path class="st5" d="M18.2,7.2l11.3,5.9V26L18.2,32L6.8,26V13.1L18.2,7.2 M18.2,4L4,11.4v16.4l14.2,7.4l14.2-7.4V11.4L18.2,4
				L18.2,4z"/>
		</g>
	</g>
	<g id="hex-inner_1_">
		<g id="XMLID_2384_">
			<polygon class="st9" points="18.2,29.9 9.1,25 9.1,14.1 18.2,9.2 27.2,14.1 27.2,24.9 			"/>
		</g>
	</g>
</g>
<g id="list-progress-complete">
	<g id="hex-inner">
		<g>
			<polygon class="st20" points="21.8,13.8 25.7,16.2 21.2,16.2 20.6,16.2 27.2,21.9 27.2,14.1 18.2,9.2 16.2,10.2 			"/>
		</g>
		<g>
			<polygon class="st20" points="15.5,23.5 11.9,21.1 16.2,21.1 17.9,21 9.1,14.3 9.1,25 18.2,29.9 22.2,27.7 			"/>
		</g>
	</g>
	<g id="hex-outer">
		<polygon class="st1" points="24,28.9 18.2,32 6.8,26 6.8,13.1 10.4,11.2 8.4,9.1 4,11.4 4,27.7 18.2,35.2 26.8,30.6 		"/>
		<polygon class="st1" points="18.2,4 11.6,7.4 14.4,9.2 18.2,7.2 29.5,13.1 29.5,26 27.7,26.9 29.9,29 32.3,27.7 32.3,11.4 		"/>
	</g>
	<g id="lightning_1_">
		<g id="lightning">
			<polygon class="st9" points="7.8,6.5 21.2,14.9 17.1,14.9 28.3,24.5 23.4,24.5 30.5,31.5 16.2,22.3 21.6,22.3 9.7,13.1 14,12.9 
							"/>
		</g>
	</g>
</g>
<g id="ctanlee">
	<circle class="st10" cx="21" cy="21" r="6.4"/>
	<path class="st2" d="M25.5,37.4C32.7,35.4,38,28.8,38,21"/>
	<path class="st2" d="M4,21c0,7.8,5.3,14.4,12.5,16.4"/>
	<path class="st2" d="M32.8,8.8C29.7,5.8,25.6,4,21,4c-4.7,0-8.9,1.9-12,4.9"/>
</g>
<g id="action-btn-fist">
	<polygon class="st10" points="35.7,87 4,70.4 4,33.8 35.7,17.2 67.4,33.8 67.4,70.4 	"/>
	<polygon class="st5" points="35.7,84.5 6.2,69.1 6.2,35.1 35.7,19.7 65.2,35.1 65.2,69.1 	"/>
	<path class="st15" d="M42.3,12.8c0,0,7.4,2,10.1,3.4c-3.4,6.5-11.5,2.4-11.5,2.4s-2.3,2.8-3,3.6c11.1,5.2,26.2,0.7,26.2,0.7
		l-0.9,5.9l-5.6,13.5l-9.7,5L30.2,82.5L9.5,71.7l25.8-32.4l-2.7-19.1L42.3,12.8z"/>
	<path class="st17" d="M42.3,12.8c0,0,7.4,2,10.1,3.4c-3.4,6.5-11.5,2.4-11.5,2.4s-2.3,2.8-3,3.6c11.1,5.2,26.2,0.7,26.2,0.7
		l-0.9,5.9l-5.6,13.5l-9.7,5L30.2,82.5L9.5,71.7l25.8-32.4l-2.7-19.1L42.3,12.8z"/>
	<path class="st15" d="M48,5.5l-2.1-1.1c-1.8-0.9-3.9-0.2-4.8,1.5l-7,13.4l8.5,4.4l7-13.4C50.4,8.6,49.8,6.4,48,5.5"/>
	<path class="st17" d="M48,5.5l-2.1-1.1c-1.8-0.9-3.9-0.2-4.8,1.5l-7,13.4l8.5,4.4l7-13.4C50.4,8.6,49.8,6.4,48,5.5z"/>
	<path class="st15" d="M54.5,7l2.6,1.7c1.3,0.8,1.7,2.5,0.8,3.8l-7.3,11.2c-3-0.9-4.4-2.1-6.3-4.3L50.7,8C51.4,6.6,53.2,6.2,54.5,7"
		/>
	<path class="st17" d="M54.5,7l2.6,1.7c1.3,0.8,1.7,2.5,0.8,3.8l-7.3,11.2c-3-0.9-4.4-2.1-6.3-4.3L50.7,8C51.4,6.6,53.2,6.2,54.5,7z
		"/>
	<path class="st15" d="M62.5,15l-1.9-1.3c-1.3-0.9-3-0.5-3.8,0.7l-6.1,9.2c1.3,2,3.1,3.6,6,4l6.4-8.9C64,17.6,63.7,15.9,62.5,15"/>
	<path class="st17" d="M62.5,15l-1.9-1.3c-1.3-0.9-3-0.5-3.8,0.7l-6.1,9.2c1.3,2,3.1,3.6,6,4l6.4-8.9C64,17.6,63.7,15.9,62.5,15z"/>
	<path class="st15" d="M67.1,24.2l-5.3,6.9c-2.3-0.7-3.9-1.9-5.1-3.4l5.3-7.3c0.9-1.3,2.8-1.5,4-0.5l0.7,0.6
		C67.8,21.5,68,23.1,67.1,24.2"/>
	<path class="st17" d="M67.1,24.2l-5.3,6.9c-2.3-0.7-3.9-1.9-5.1-3.4l5.3-7.3c0.9-1.3,2.8-1.5,4-0.5l0.7,0.6
		C67.8,21.5,68,23.1,67.1,24.2z"/>
	<path class="st15" d="M58,34.1c0.9-0.6,3.8-3,3.8-3c-2.1-0.4-3.8-1.6-5.1-3.4l-2.8,2.7c-1.1,1-0.9,2.7,0.3,3.5l0.6,0.4
		C55.8,35,57.2,34.8,58,34.1"/>
	<path class="st25" d="M58,34.1c0.9-0.6,3.8-3,3.8-3c-2.1-0.4-3.8-1.6-5.1-3.4l-2.8,2.7c-1.1,1-0.9,2.7,0.3,3.5l0.6,0.4
		C55.8,35,57.2,34.8,58,34.1z"/>
	<path class="st15" d="M50.2,31.1L49,30.2c-0.8-0.6-1-1.7-0.5-2.6l2.2-3.9c1.4,2.5,3.4,3.8,6,4l-3.4,3.2
		C52.5,31.7,51.2,31.8,50.2,31.1"/>
	<path class="st25" d="M50.2,31.1L49,30.2c-0.8-0.6-1-1.7-0.5-2.6l2.2-3.9c1.4,2.5,3.4,3.8,6,4l-3.4,3.2
		C52.5,31.7,51.2,31.8,50.2,31.1z"/>
	<path class="st15" d="M41.6,24.9l6,4.3l3.1-5.5c-3-0.7-4.5-1.8-6.3-4.3L41.6,24.9z"/>
	<path class="st17" d="M41.6,24.9l6,4.3l3.1-5.5c-3-0.7-4.5-1.8-6.3-4.3L41.6,24.9z"/>
	<path class="st15" d="M10,71.6l20.9-33.4l-2.2-19L39.4,9c0,0,10.1,5.3,12.8,6.7C48.8,22.2,42.1,18,42.1,18s-1.3,2.9-1.9,3.7
		c9,4.7,10.8,9,3.5,16.4"/>
	<path class="st24" d="M10,71.6l20.9-33.4l-2.2-19L39.4,9c0,0,10.1,5.3,12.8,6.7C48.8,22.2,42.1,18,42.1,18s-1.3,2.9-1.9,3.7
		c9,4.7,10.8,9,3.5,16.4"/>
	<path class="st10" d="M25.9,73.7c0.9-8.3,2.8-16.5,5.6-24.6c0.2,1.8,0.4,3.6,0.7,5.3c1.9-5.8,4.4-11.4,7.3-16.9
		c-0.3,2.1-0.4,4.1-0.6,6.1c2.3-3.5,4.7-6.8,7.4-10c1.3-1.6,1.7-1.2,0.6,0.5c-3.8,6.1-6.9,12.5-9.3,19c-0.1-1.8-0.2-3.6-0.2-5.4
		c-2.2,5.2-4,10.5-5.3,15.9c-0.4-1.9-0.8-3.8-1.2-5.8C28.9,63.1,27.2,68.4,25.9,73.7"/>
</g>
<g id="mini-preview-test">
	<rect x="7" y="7" class="st10" width="47.1" height="99.6"/>
	<path class="st14" d="M47.8,13.3v87.1H13.3V13.3H47.8 M54.1,7H7v99.6h47.1V7L54.1,7z"/>
	<rect x="11.4" y="82.3" class="st16" width="38.2" height="17.5"/>
	<path class="st14" d="M47.8,84.8v12.4H13.3V84.8H47.8 M50.9,81.7H10.1v18.7h40.8V81.7L50.9,81.7z"/>
	<ellipse class="st0" cx="30.5" cy="64.6" rx="7.8" ry="7.8"/>
	<path class="st14" d="M30.5,56.8c4.3,0,7.8,3.5,7.8,7.8c0,4.3-3.5,7.8-7.8,7.8s-7.8-3.5-7.8-7.8C22.7,60.3,26.2,56.8,30.5,56.8
		 M30.5,50.6c-7.8,0-14.1,6.3-14.1,14c0,7.7,6.3,14,14.1,14s14.1-6.3,14.1-14C44.6,56.9,38.3,50.6,30.5,50.6L30.5,50.6z"/>
	<path class="st8" d="M25.9,66.2c-0.9,0-1.6-0.7-1.6-1.6c0-3.4,2.8-6.1,6.2-6.1c0.9,0,1.6,0.7,1.6,1.6c0,0.9-0.7,1.6-1.6,1.6
		c-1.7,0-3.1,1.4-3.1,3C27.5,65.5,26.8,66.2,25.9,66.2z"/>
	<g>
		<path class="st5" d="M54.1,7v99.6H7V7H54.1 M57.1,4h-3H7H4v3v99.6v3h3h47.1h3v-3V7V4L57.1,4z"/>
	</g>
</g>
<g id="mini-generation">
	<rect x="4" y="4" class="st11" width="179" height="132.8"/>
	<rect x="41.6" y="53" class="st16" width="87.7" height="11.5"/>
	<path class="st5" d="M127.9,63H43.1v-8.5h84.7V63z M130.9,51.5h-3H43.1h-3v3V63v3h3h84.7h3v-3v-8.5V51.5z"/>
	<rect x="36" y="59.8" class="st16" width="99" height="66.5"/>
	<path class="st5" d="M133.5,124.8h-96V61.3h96V124.8z M136.5,58.3h-3h-96h-3v3v63.5v3h3h96h3v-3V61.3V58.3z"/>
	<polygon class="st5" points="27.1,127.7 48.9,127.7 46.5,5.9 29.4,5.9 	"/>
	<rect x="44.1" y="55.5" class="st16" width="82.7" height="6.5"/>
	<path class="st14" d="M125.9,61H45.1v-4.5h80.7V61z M127.9,54.5H43.1V63h84.7V54.5z"/>
	<rect x="38.5" y="62.3" class="st16" width="94" height="61.5"/>
	<path class="st14" d="M131.5,122.8h-92V63.3h92V122.8z M133.5,61.3h-96v63.5h96V61.3z"/>
	<rect x="128.6" y="64.1" class="st10" width="7.1" height="1.4"/>
	<rect x="128.6" y="64.1" class="st14" width="7.1" height="1.4"/>
	<rect x="124.6" y="94.1" class="st10" width="7.1" height="1.3"/>
	<rect x="124.6" y="94.1" class="st13" width="7.1" height="1.3"/>
	<path class="st10" d="M36.1,64.8h5.7H36.1z"/>
	<rect x="35.4" y="64.1" class="st14" width="7.1" height="1.4"/>
	<rect x="39.4" y="94.1" class="st10" width="7.1" height="1.3"/>
	<rect x="39.4" y="94.1" class="st13" width="7.1" height="1.3"/>
	<rect x="37.6" y="62.8" class="st10" width="95.8" height="1.2"/>
	<rect x="36.1" y="61.3" class="st14" width="98.8" height="4.2"/>
	<rect x="83.3" y="71.2" class="st9" width="5.5" height="10.5"/>
	<path class="st14" d="M87.9,80.6h-3.5v-8.5h3.5V80.6z M89.9,70.2h-2h-3.5h-2v2v8.5v2h2h3.5h2v-2v-8.5V70.2z"/>
	<rect x="64.4" y="71.2" class="st9" width="5.5" height="10.5"/>
	<path class="st14" d="M69,80.6h-3.5v-8.5H69V80.6z M71,70.2h-2h-3.5h-2v2v8.5v2h2H69h2v-2v-8.5V70.2z"/>
	<rect x="73.9" y="71.2" class="st9" width="5.5" height="10.5"/>
	<path class="st14" d="M78.4,80.6h-3.5v-8.5h3.5V80.6z M80.4,70.2h-2h-3.5h-2v2v8.5v2h2h3.5h2v-2v-8.5V70.2z"/>
	<rect x="111.7" y="71.2" class="st9" width="5.5" height="10.5"/>
	<path class="st14" d="M116.2,80.6h-3.5v-8.5h3.5V80.6z M118.2,70.2h-2h-3.5h-2v2v8.5v2h2h3.5h2v-2v-8.5V70.2z"/>
	<rect x="121.1" y="71.2" class="st9" width="5.5" height="10.5"/>
	<path class="st14" d="M125.6,80.6h-3.5v-8.5h3.5V80.6z M127.6,70.2h-2h-3.5h-2v2v8.5v2h2h3.5h2v-2v-8.5V70.2z"/>
	<rect x="92.8" y="71.2" class="st9" width="5.5" height="10.5"/>
	<path class="st14" d="M97.3,80.6h-3.5v-8.5h3.5V80.6z M99.3,70.2h-2h-3.5h-2v2v8.5v2h2h3.5h2v-2v-8.5V70.2z"/>
	<rect x="102.2" y="71.2" class="st9" width="5.5" height="10.5"/>
	<path class="st14" d="M106.7,80.6h-3.5v-8.5h3.5V80.6z M108.7,70.2h-2h-3.5h-2v2v8.5v2h2h3.5h2v-2v-8.5V70.2z"/>
	<rect x="45.6" y="71.2" class="st9" width="5.5" height="10.5"/>
	<path class="st14" d="M50.1,80.6h-3.5v-8.5h3.5V80.6z M52.1,70.2h-2h-3.5h-2v2v8.5v2h2h3.5h2v-2v-8.5V70.2z"/>
	<rect x="55" y="71.2" class="st9" width="5.5" height="10.5"/>
	<path class="st14" d="M59.5,80.6H56v-8.5h3.5V80.6z M61.5,70.2h-2H56h-2v2v8.5v2h2h3.5h2v-2v-8.5V70.2z"/>
	<rect x="111.7" y="107.9" class="st9" width="5.5" height="10.5"/>
	<path class="st14" d="M116.2,117.4h-3.5v-8.5h3.5V117.4z M118.2,106.9h-2h-3.5h-2v2v8.5v2h2h3.5h2v-2v-8.5V106.9z"/>
	<rect x="121.1" y="107.9" class="st9" width="5.5" height="10.5"/>
	<path class="st14" d="M125.6,117.4h-3.5v-8.5h3.5V117.4z M127.6,106.9h-2h-3.5h-2v2v8.5v2h2h3.5h2v-2v-8.5V106.9z"/>
	<rect x="45.6" y="107.9" class="st9" width="5.5" height="10.5"/>
	<path class="st14" d="M50.1,117.4h-3.5v-8.5h3.5V117.4z M52.1,106.9h-2h-3.5h-2v2v8.5v2h2h3.5h2v-2v-8.5V106.9z"/>
	<rect x="55" y="107.9" class="st9" width="5.5" height="10.5"/>
	<path class="st14" d="M59.5,117.4H56v-8.5h3.5V117.4z M61.5,106.9h-2H56h-2v2v8.5v2h2h3.5h2v-2v-8.5V106.9z"/>
	<rect x="25.6" y="11.1" class="st5" width="24.7" height="4"/>
	<path class="st5" d="M49.3,14H26.7v-1.9h22.6V14z M51.4,10h-2.1H26.7h-2.1v2.1V14v2.1h2.1h22.6h2.1V14v-1.9V10z"/>
	<g>
		<defs>
			<path id="SVGID_1_" d="M138.6,97.2v19.1h15.1c0.1-2.2,1.9-3.9,4.1-3.9c2.2,0,4,1.7,4.1,3.9h14.8V97.2H138.6z"/>
		</defs>
		<clipPath id="SVGID_2_">
			<use xlink:href="#SVGID_1_"  style="overflow:visible;"/>
		</clipPath>
		<path class="st12" d="M174.8,124.8h-34.2V99.2h34.2V124.8z M176.8,97.2h-38.2v29.6h38.2V97.2z"/>
		<circle class="st21" cx="157.8" cy="116.5" r="17.6"/>
		<polyline class="st7" points="157.8,116.5 147.2,112.1 148.7,107.4 157.8,116.5 		"/>
		<polyline class="st7" points="157.8,116.5 146.3,116.5 145.9,111.6 157.8,116.5 		"/>
		<polyline class="st7" points="157.8,116.5 168.5,112.1 170.7,116.5 157.8,116.5 		"/>
		<polyline class="st7" points="157.8,116.5 166,108.4 169.7,111.6 157.8,116.5 		"/>
		<polyline class="st7" points="157.8,116.5 162.2,105.9 166.9,107.4 157.8,116.5 		"/>
		<polyline class="st7" points="157.8,116.5 157.8,105 162.8,104.6 157.8,116.5 		"/>
		<polyline class="st7" points="157.8,116.5 153.4,105.9 157.8,103.6 157.8,116.5 		"/>
		<polyline class="st7" points="157.8,116.5 149.7,108.4 152.9,104.6 157.8,116.5 		"/>
	</g>
	<path class="st5" d="M177.2,125.8h-38.9V118h38.9V125.8z M179.2,116h-42.9v11.8h42.9V116z"/>
	<path class="st18" d="M153.7,123.7h8.3v-7.2c0-2.3-1.9-4.1-4.2-4.1c-2.3,0-4.1,1.9-4.1,4.1V123.7z"/>
	<path class="st5" d="M162,125.4h-8.7v-1.3h8.7V125.4z M164,122.1h-12.7v5.3H164V122.1z"/>
	<line class="st18" x1="161.9" y1="120.1" x2="153.5" y2="120.1"/>
</g>
<g id="mini-substation">
	<rect x="4" y="4" class="st11" width="179" height="132.8"/>
	<rect x="43.9" y="54.4" class="st16" width="102.6" height="71.9"/>
	<path class="st5" d="M145,124.8H45.4V55.9H145V124.8z M148,52.9h-3H45.4h-3v3v68.9v3h3H145h3v-3V55.9V52.9z"/>
	<rect x="40.1" y="53.4" class="st16" width="110.2" height="8.6"/>
	<path class="st5" d="M148.8,60.5H41.6v-5.6h107.2V60.5z M151.8,51.9h-3H41.6h-3v3v5.6v3h3h107.2h3v-3v-5.6V51.9z"/>
	<polyline class="st3" points="26.9,84.6 55.7,127.1 57.6,127.1 50.5,84.6 26.9,84.6 19.8,127.1 21.8,127.1 50.5,84.6 	"/>
	<polygon class="st3" points="26.9,84.6 50.5,84.6 48.2,69.3 29.2,69.3 	"/>
	<line class="st3" x1="26.9" y1="84.6" x2="48.2" y2="69.3"/>
	<line class="st3" x1="29.2" y1="69.3" x2="50.5" y2="84.6"/>
	<polygon class="st3" points="30.7,55.4 46.7,55.4 48.2,69.3 29.2,69.3 	"/>
	<line class="st3" x1="48.2" y1="69.3" x2="30.7" y2="55.4"/>
	<line class="st3" x1="46.7" y1="55.4" x2="29.2" y2="69.3"/>
	<polygon class="st3" points="30.7,55.4 46.7,55.4 45.7,42.7 31.7,42.7 	"/>
	<line class="st3" x1="30.7" y1="55.4" x2="45.7" y2="42.7"/>
	<line class="st3" x1="31.7" y1="42.7" x2="46.7" y2="55.4"/>
	<polygon class="st3" points="7.5,42.7 69.9,42.7 45.7,30.5 32.2,30.5 	"/>
	<polygon class="st3" points="32.2,30.5 45.7,30.5 45.7,42.7 31.7,42.7 	"/>
	<polyline class="st3" points="45.7,30.5 31.7,42.7 45.7,42.7 32.2,30.5 	"/>
	<polyline class="st3" points="51,33.1 45.7,42.7 31.7,42.7 26.9,33.1 	"/>
	<line class="st3" x1="26.9" y1="42.6" x2="19.3" y2="36.9"/>
	<line class="st3" x1="51" y1="42.6" x2="58.1" y2="36.9"/>
	<line class="st3" x1="58.1" y1="36.9" x2="58.1" y2="42.7"/>
	<line class="st3" x1="26.9" y1="33.1" x2="26.9" y2="42.6"/>
	<line class="st3" x1="51" y1="42.6" x2="51" y2="33.1"/>
	<polygon class="st3" points="32.2,30.5 45.7,30.5 44.2,22.4 33.2,22.4 	"/>
	<polyline class="st3" points="33.2,22.4 45.7,30.5 32.2,30.5 44.2,22.4 	"/>
	<polygon class="st3" points="34.7,12.5 42.7,12.5 44.2,22.4 33.2,22.4 	"/>
	<polygon class="st3" points="34.7,12.6 42.7,12.6 58.7,22.4 18.8,22.4 	"/>
	<polyline class="st3" points="42.7,12.6 33.2,22.4 44.2,22.4 34.7,12.6 	"/>
	<polyline class="st3" points="48.5,16.7 44.2,22.4 33.2,22.4 28.9,16.7 	"/>
	<line class="st3" x1="28.9" y1="16.7" x2="28.9" y2="22.2"/>
	<line class="st3" x1="48.5" y1="22.2" x2="48.5" y2="16.7"/>
	<line class="st3" x1="59.8" y1="26.4" x2="59.8" y2="22.9"/>
	<line class="st3" x1="71.4" y1="46.7" x2="71.4" y2="43.2"/>
	<line class="st3" x1="17.6" y1="26.4" x2="17.6" y2="22.9"/>
	<line class="st3" x1="6" y1="46.7" x2="6" y2="43.2"/>
	<rect x="46.4" y="56.9" class="st16" width="97.6" height="66.9"/>
	<path class="st14" d="M143,122.8H47.4V57.9H143V122.8z M145,55.9H45.4v68.9H145V55.9z"/>
	<rect x="42.6" y="55.9" class="st16" width="105.2" height="3.6"/>
	<path class="st14" d="M146.8,58.5H43.6v-1.6h103.2V58.5z M148.8,54.9H41.6v5.6h107.2V54.9z"/>
	<rect x="40.8" y="58.9" class="st14" width="108.8" height="1.5"/>
	<line class="st13" x1="143.3" y1="116.7" x2="47.1" y2="116.7"/>
	<rect x="75.2" y="66.7" class="st9" width="5.8" height="11.2"/>
	<path class="st14" d="M80,76.9h-3.8v-9.2H80V76.9z M82,65.7h-2h-3.8h-2v2v9.2v2h2H80h2v-2v-9.2V65.7z"/>
	<rect x="85.3" y="66.7" class="st9" width="5.8" height="11.2"/>
	<path class="st14" d="M90.1,76.9h-3.8v-9.2h3.8V76.9z M92.1,65.7h-2h-3.8h-2v2v9.2v2h2h3.8h2v-2v-9.2V65.7z"/>
	<rect x="55" y="66.7" class="st9" width="5.8" height="11.2"/>
	<path class="st14" d="M59.8,76.9H56v-9.2h3.8V76.9z M61.8,65.7h-2H56h-2v2v9.2v2h2h3.8h2v-2v-9.2V65.7z"/>
	<rect x="65.1" y="66.7" class="st9" width="5.8" height="11.2"/>
	<path class="st14" d="M69.9,76.9h-3.8v-9.2h3.8V76.9z M71.9,65.7h-2h-3.8h-2v2v9.2v2h2h3.8h2v-2v-9.2V65.7z"/>
	<rect x="75.2" y="81.3" class="st9" width="5.8" height="11.2"/>
	<path class="st14" d="M80,91.5h-3.8v-9.2H80V91.5z M82,80.3h-2h-3.8h-2v2v9.2v2h2H80h2v-2v-9.2V80.3z"/>
	<rect x="55" y="81.3" class="st9" width="5.8" height="11.2"/>
	<path class="st14" d="M59.8,91.5H56v-9.2h3.8V91.5z M61.8,80.3h-2H56h-2v2v9.2v2h2h3.8h2v-2v-9.2V80.3z"/>
	<rect x="65.1" y="81.3" class="st9" width="5.8" height="11.2"/>
	<path class="st14" d="M69.9,91.5h-3.8v-9.2h3.8V91.5z M71.9,80.3h-2h-3.8h-2v2v9.2v2h2h3.8h2v-2v-9.2V80.3z"/>
	<rect x="161.4" y="107.1" class="st5" width="7" height="8.2"/>
	<rect x="157.9" y="115.7" class="st5" width="14.8" height="1.6"/>
	<path class="st5" d="M171.7,118.2v8.6h0l-10.9-8.6H171.7z M172.7,117.2h-14.8l13.5,10.6h1.4V117.2z"/>
	<path class="st5" d="M169.8,118.2l-10.9,8.6h0v-8.6H169.8z M172.7,117.2h-14.8v10.6h1.4L172.7,117.2z"/>
	<path class="st5" d="M174.7,111.2c0,1.4-1.3,2.5-2,2.5s-1.2-1.1-1.2-2.5c0-1.4,0.5-2.5,1.2-2.5S174.7,109.8,174.7,111.2"/>
	<path class="st5" d="M156.1,111.2c0,1.4,1.3,2.5,2,2.5s1.2-1.1,1.2-2.5c0-1.4-0.5-2.5-1.2-2.5S156.1,109.8,156.1,111.2"/>
	<rect x="157.9" y="106.5" class="st5" width="5.1" height="9.4"/>
	
		<rect x="157.9" y="100.1" transform="matrix(0.9848 -0.1737 0.1737 0.9848 -15.0911 29.2252)" class="st5" width="3.1" height="1.4"/>
	<polygon class="st5" points="155.6,74.6 154,74.9 157.2,100.5 161.4,99.8 	"/>
	
		<rect x="158.5" y="105.6" transform="matrix(0.9848 -0.1735 0.1735 0.9848 -16.0415 29.4416)" class="st5" width="3.9" height="1.7"/>
	<path class="st5" d="M161.5,105.5L159,106c-1.2,0.2-2.4-0.6-2.6-1.8l0-0.2c-0.2-1.2,0.6-2.4,1.8-2.6l2.5-0.4
		c1.2-0.2,2.4,0.6,2.6,1.8l0,0.2C163.6,104.1,162.8,105.3,161.5,105.5"/>
	
		<rect x="153.4" y="74.2" transform="matrix(0.9848 -0.1735 0.1735 0.9848 -10.5913 27.9925)" class="st5" width="2.7" height="0.8"/>
	
		<rect x="152.7" y="74.1" transform="matrix(-0.9848 0.1735 -0.1735 -0.9848 316.7702 122.0484)" class="st5" width="0.8" height="1.6"/>
	
		<rect x="169.8" y="100.1" transform="matrix(0.9848 0.1737 -0.1737 0.9848 20.1198 -28.2322)" class="st5" width="3.1" height="1.4"/>
	<polygon class="st5" points="176.7,74.9 175.2,74.6 169.3,99.8 173.6,100.5 	"/>
	
		<rect x="168.4" y="105.6" transform="matrix(0.9848 0.1735 -0.1735 0.9848 21.0562 -27.9357)" class="st5" width="3.9" height="1.7"/>
	<path class="st5" d="M171.8,106l-2.5-0.4c-1.2-0.2-2-1.4-1.8-2.6l0-0.2c0.2-1.2,1.4-2,2.6-1.8l2.5,0.4c1.2,0.2,2,1.4,1.8,2.6l0,0.2
		C174.1,105.4,173,106.2,171.8,106"/>
	
		<rect x="174.6" y="74.2" transform="matrix(-0.9848 -0.1735 0.1735 -0.9848 336.3421 178.5356)" class="st5" width="2.7" height="0.8"/>
	
		<rect x="177.3" y="74.1" transform="matrix(0.9848 0.1737 -0.1737 0.9848 15.7077 -29.7321)" class="st5" width="0.8" height="1.6"/>
	<rect x="167.7" y="106.5" class="st5" width="5.1" height="9.4"/>
	<path class="st3" d="M152.8,74.1c0.5-3.1-1.5-4.1-6.3-3.1"/>
	<path class="st3" d="M177.8,74.1c-0.1-10.8-23-5.9-31.6-3.7"/>
</g>
<g id="mini-control-center">
	<rect x="4" y="4" class="st11" width="179" height="132.8"/>
	<rect x="30.8" y="56.1" class="st16" width="100" height="70.2"/>
	<path class="st5" d="M129.4,124.8h-97V57.6h97V124.8z M132.4,54.6h-3h-97h-3v3v67.2v3h3h97h3v-3V57.6V54.6z"/>
	<rect x="27.1" y="55.1" class="st16" width="107.5" height="8.5"/>
	<path class="st5" d="M133.1,62.1H28.6v-5.5h104.5V62.1z M136.1,53.6h-3H28.6h-3v3v5.5v3h3h104.5h3v-3v-5.5V53.6z"/>
	
		<rect x="117.3" y="46.1" transform="matrix(0.6033 0.7975 -0.7975 0.6033 84.8549 -76.9147)" class="st5" width="4.9" height="1.4"/>
	
		<rect x="117.3" y="46.1" transform="matrix(0.6033 0.7975 -0.7975 0.6033 84.8549 -76.9147)" class="st3" width="4.9" height="1.4"/>
	
		<rect x="113.4" y="50.8" transform="matrix(-0.9541 0.2994 -0.2994 -0.9541 244.0988 66.3034)" class="st5" width="7.1" height="2"/>
	
		<rect x="113.4" y="50.8" transform="matrix(-0.9541 0.2994 -0.2994 -0.9541 244.0988 66.3034)" class="st3" width="7.1" height="2"/>
	<path class="st5" d="M120.3,44.6c-0.4,1.3-1.8,2.1-3.1,1.7c-1.3-0.4-2.1-1.8-1.7-3.1c0.4-1.3,1.8-2.1,3.1-1.7
		C119.9,41.8,120.7,43.2,120.3,44.6"/>
	<circle class="st3" cx="117.9" cy="43.8" r="2.5"/>
	<path class="st5" d="M123.4,48.5c1,1,1,2.6,0,3.6c-1,1-2.6,1-3.6,0c-1-1-1-2.6,0-3.6C120.8,47.5,122.4,47.5,123.4,48.5"/>
	<circle class="st3" cx="121.6" cy="50.3" r="2.5"/>
	<path class="st5" d="M115.1,53.4c0,1.9-1.6,3.5-3.5,3.5c-1.9,0-3.5-1.6-3.5-3.5s1.6-3.5,3.5-3.5C113.5,49.9,115.1,51.4,115.1,53.4"
		/>
	<circle class="st3" cx="111.6" cy="53.4" r="3.5"/>
	<rect x="33.3" y="58.6" class="st16" width="95" height="65.2"/>
	<path class="st14" d="M127.4,122.8h-93V59.6h93V122.8z M129.4,57.6h-97v67.2h97V57.6z"/>
	<rect x="29.6" y="57.6" class="st16" width="102.5" height="3.5"/>
	<path class="st14" d="M131.1,60.1H30.6v-1.5h100.5V60.1z M133.1,56.6H28.6v5.5h104.5V56.6z"/>
	<line class="st16" x1="128.2" y1="117.7" x2="33.5" y2="117.7"/>
	<line class="st13" x1="128.2" y1="117.7" x2="33.5" y2="117.7"/>
	<path class="st5" d="M108.7,20.7c-2.5,2.5,1.3,13.2,10.3,22.1c8.9,8.9,19.7,12.7,22.1,10.3"/>
	<path class="st3" d="M108.7,20.7c-2.5,2.5,1.3,13.2,10.3,22.1c8.9,8.9,19.7,12.7,22.1,10.3"/>
	
		<ellipse transform="matrix(0.7071 0.7071 -0.7071 0.7071 62.7111 -77.5198)" class="st3" cx="124.9" cy="36.9" rx="22.9" ry="1.8"/>
	<polyline class="st3" points="118.4,33 133.8,28 128.9,43.5 	"/>
	<polyline class="st3" points="108.7,20.7 133.8,28 141.1,53.1 	"/>
	<rect x="132.6" y="26.9" transform="matrix(0.707 0.7072 -0.7072 0.707 58.9584 -86.6175)" class="st5" width="2.8" height="2"/>
	<rect x="132.6" y="26.9" transform="matrix(0.707 0.7072 -0.7072 0.707 58.9584 -86.6175)" class="st3" width="2.8" height="2"/>
	<rect x="80.1" y="68.2" class="st9" width="5.7" height="11"/>
	<path class="st14" d="M84.8,78.1h-3.7v-9h3.7V78.1z M86.8,67.2h-2h-3.7h-2v2v9v2h2h3.7h2v-2v-9V67.2z"/>
	<rect x="60.4" y="68.2" class="st9" width="5.7" height="11"/>
	<path class="st14" d="M65.1,78.1h-3.7v-9h3.7V78.1z M67.1,67.2h-2h-3.7h-2v2v9v2h2h3.7h2v-2v-9V67.2z"/>
	<rect x="70.2" y="68.2" class="st9" width="5.7" height="11"/>
	<path class="st14" d="M75,78.1h-3.7v-9H75V78.1z M77,67.2h-2h-3.7h-2v2v9v2h2H75h2v-2v-9V67.2z"/>
	<rect x="40.7" y="68.2" class="st9" width="5.7" height="11"/>
	<path class="st14" d="M45.5,78.1h-3.7v-9h3.7V78.1z M47.5,67.2h-2h-3.7h-2v2v9v2h2h3.7h2v-2v-9V67.2z"/>
	<rect x="50.6" y="68.2" class="st9" width="5.7" height="11"/>
	<path class="st14" d="M55.3,78.1h-3.7v-9h3.7V78.1z M57.3,67.2h-2h-3.7h-2v2v9v2h2h3.7h2v-2v-9V67.2z"/>
	<rect x="80.1" y="82.3" class="st9" width="5.7" height="11"/>
	<path class="st14" d="M84.8,92.3h-3.7v-9h3.7V92.3z M86.8,81.3h-2h-3.7h-2v2v9v2h2h3.7h2v-2v-9V81.3z"/>
	<rect x="60.4" y="82.3" class="st9" width="5.7" height="11"/>
	<path class="st14" d="M65.1,92.3h-3.7v-9h3.7V92.3z M67.1,81.3h-2h-3.7h-2v2v9v2h2h3.7h2v-2v-9V81.3z"/>
	<rect x="70.2" y="82.3" class="st9" width="5.7" height="11"/>
	<path class="st14" d="M75,92.3h-3.7v-9H75V92.3z M77,81.3h-2h-3.7h-2v2v9v2h2H75h2v-2v-9V81.3z"/>
	<rect x="40.7" y="82.3" class="st9" width="5.7" height="11"/>
	<path class="st14" d="M45.5,92.3h-3.7v-9h3.7V92.3z M47.5,81.3h-2h-3.7h-2v2v9v2h2h3.7h2v-2v-9V81.3z"/>
	<rect x="50.6" y="82.3" class="st9" width="5.7" height="11"/>
	<path class="st14" d="M55.3,92.3h-3.7v-9h3.7V92.3z M57.3,81.3h-2h-3.7h-2v2v9v2h2h3.7h2v-2v-9V81.3z"/>
	<path class="st5" d="M144,114.3l-0.7,0.3c-2.5,1.2-5.6,0.1-6.8-2.5c-1.2-2.5-0.1-5.6,2.5-6.8l0.7-0.3L144,114.3z"/>
	
		<rect x="142.1" y="104.9" transform="matrix(0.9074 -0.4202 0.4202 0.9074 -31.9816 71.0318)" class="st5" width="6.2" height="6.4"/>
	<polygon class="st5" points="149.1,110.8 169.8,105.4 163.4,91.4 145.9,103.9 	"/>
	
		<rect x="176.5" y="89.6" transform="matrix(0.9073 -0.4205 0.4205 0.9073 -22.1629 84.0009)" class="st5" width="5.9" height="5.3"/>
	<polygon class="st5" points="183.2,93.5 184.6,92.3 182.7,88.4 181,88.6 	"/>
	
		<rect x="166.4" y="87.5" transform="matrix(0.9073 -0.4204 0.4204 0.9073 -25.3054 79.972)" class="st5" width="4.8" height="19.8"/>
	<rect x="175.9" y="90.3" transform="matrix(0.9075 -0.42 0.42 0.9075 -22.8997 82.9258)" class="st5" width="1.9" height="6.4"/>
	<polygon class="st5" points="175.3,103.4 177.1,98.2 173.4,90.2 168.3,88.2 	"/>
	
		<rect x="156.9" y="111.6" transform="matrix(0.5462 0.8377 -0.8377 0.5462 166.7308 -82.9185)" class="st5" width="6" height="1.7"/>
	
		<rect x="152.2" y="117.1" transform="matrix(-0.9541 0.2994 -0.2994 -0.9541 341.4912 184.3063)" class="st5" width="8.8" height="2.5"/>
	<path class="st5" d="M160.8,109.7c-0.6,1.6-2.4,2.4-4,1.8c-1.6-0.6-2.4-2.4-1.8-4c0.6-1.6,2.4-2.4,4-1.8
		C160.6,106.3,161.4,108.1,160.8,109.7"/>
	<path class="st5" d="M164.6,114.2c1.2,1.2,1.2,3.2,0,4.4c-1.2,1.2-3.2,1.2-4.4,0c-1.2-1.2-1.2-3.2,0-4.4
		C161.4,113,163.3,113,164.6,114.2"/>
	<path class="st5" d="M154.3,120.2c0,2.4-1.9,4.3-4.3,4.3s-4.3-1.9-4.3-4.3s1.9-4.3,4.3-4.3S154.3,117.8,154.3,120.2"/>
	<rect x="131.5" y="121.8" class="st5" width="39" height="6"/>
</g>
</svg>
