<?xml version="1.0" encoding="utf-8"?>
<!-- Generator: Adobe Illustrator 15.0.0, SVG Export Plug-In . SVG Version: 6.00 Build 0)  -->
<!DOCTYPE svg PUBLIC "-//W3C//DTD SVG 1.1//EN" "http://www.w3.org/Graphics/SVG/1.1/DTD/svg11.dtd">
<svg version="1.1" id="Layer_1" xmlns="http://www.w3.org/2000/svg" xmlns:xlink="http://www.w3.org/1999/xlink" x="0px" y="0px"
	 width="1024px" height="768px" viewBox="0 0 1024 768" style="enable-background:new 0 0 1024 768;" xml:space="preserve">
<style type="text/css">
<![CDATA[
	.st0{fill:none;stroke:#FFFFFF;stroke-width:3;stroke-linecap:square;stroke-miterlimit:10;}
	.st1{fill:#FFB81A;}
	.st2{fill:#FFFFFF;stroke:#231F20;stroke-miterlimit:10;}
	.st3{fill:none;stroke:#FFFFFF;stroke-width:3;stroke-miterlimit:10;}
]]>
</style>
<symbol  id="New_Symbol" viewBox="-10.3 -10.3 20.6 20.6">
	<polygon class="st2" points="9.8,-9.8 -9.8,-9.8 -9.8,9.8 9.8,9.8 	"/>
</symbol>
<g id="first">
	
		<use xlink:href="#New_Symbol"  width="20.6" height="20.6" x="-10.3" y="-10.3" transform="matrix(0.9952 0 0 -0.9952 14.25 14.25)" style="overflow:visible;"/>
</g>
<g id="ep4-badge">
	<g id="_x3E_white_3_">
		<path id="XMLID_93_" class="st3" d="M20.3,29.8h4.5c5,0,4.5-6,4.5-6H13.6v10l10.2,2.8"/>
		<polyline id="XMLID_92_" class="st3" points="21.199,29.8 34.5,29.8 34.5,17.5 13.5,17.5 13.5,25.8 		"/>
		<line id="XMLID_91_" class="st3" x1="29.199" y1="29.8" x2="29.199" y2="17.5"/>
		<line id="XMLID_90_" class="st3" x1="31.699" y1="36.5" x2="31.699" y2="30"/>
		<line id="XMLID_89_" class="st3" x1="24" y1="23.3" x2="24" y2="17.5"/>
		<line id="XMLID_88_" class="st3" x1="18.8" y1="23.3" x2="18.8" y2="17.5"/>
	</g>
	<g id="XMLID_94_">
		<path class="st1" d="M24,7.4l17,8.9v19.4l-17,8.9L7,35.7V16.3L24,7.4 M24,4L4,14.5v23.1l20,10.5l20-10.5V14.5L24,4L24,4z"/>
	</g>
</g>
<g id="ep3-badge">
	<g id="_x3E_white_2_">
		<polyline id="XMLID_74_" class="st0" points="10.2,18.8 24,11.6 37.7,18.8 37.7,25.7 24,32.9 		"/>
		<polyline id="XMLID_73_" class="st0" points="37.7,25.3 37.7,32.1 24,39.3 		"/>
		<line id="XMLID_72_" class="st3" x1="37.7" y1="32.7" x2="37.7" y2="39"/>
		<line id="XMLID_71_" class="st0" x1="36.9" y1="19.4" x2="24" y2="26.2"/>
	</g>
	<g>
		<g id="XMLID_69_">
			<g>
				<path class="st1" d="M7,19.5l14,7.3v16.3L7,35.8V19.5 M4,14.5v23.1l20,10.5l0,0V25L4,14.5L4,14.5L4,14.5z"/>
			</g>
		</g>
		<path id="XMLID_68_" class="st1" d="M34.8,24.3c-0.101,0.6-0.601,1-1.101,1s-0.8-0.4-0.699-1c0.1-0.6,0.6-1,1.1-1
			C34.7,23.3,34.9,23.7,34.8,24.3z"/>
		<path id="XMLID_67_" class="st1" d="M34.8,30.7c-0.101,0.6-0.601,1-1.101,1s-0.8-0.4-0.699-1c0.1-0.6,0.6-1,1.1-1
			S34.9,30.2,34.8,30.7z"/>
		<path id="XMLID_66_" class="st1" d="M34.8,37.4c-0.101,0.6-0.601,1-1.101,1S32.9,38,33,37.4c0.1-0.6,0.6-1,1.1-1
			C34.7,36.4,34.9,36.8,34.8,37.4z"/>
		<g id="XMLID_59_">
			<path class="st1" d="M24,7.4l17,8.9v19.4l-17,8.9L7,35.7V16.3L24,7.4 M24,4L4,14.5v23.1l20,10.5l20-10.5V14.5L24,4L24,4z"/>
		</g>
	</g>
</g>
<g id="ep2-badge">
	<g id="_x3E_white_1_">
		<line id="XMLID_333_" class="st3" x1="35.9" y1="19.4" x2="26" y2="25.2"/>
		<line id="XMLID_332_" class="st3" x1="24" y1="39.7" x2="24" y2="28.2"/>
		<line id="XMLID_330_" class="st3" x1="22" y1="25.2" x2="12" y2="19.4"/>
		<polyline id="XMLID_329_" class="st3" points="33.2,35.5 24,40.3 14.7,35.5 		"/>
		<polyline id="XMLID_328_" class="st3" points="27.6,13.9 36.8,18.7 36.8,29.3 		"/>
		<polyline id="XMLID_327_" class="st3" points="11.1,29.3 11.1,18.7 20.3,13.9 		"/>
	</g>
	<g id="XMLID_335_">
		<path class="st1" d="M24,7.4l17,8.9v19.4l-17,8.9L7,35.7V16.3L24,7.4 M24,4L4,14.5v23.1l20,10.5l20-10.5V14.5L24,4L24,4z"/>
	</g>
</g>
<g id="ep1-badge">
	<g id="_x3E_white">
		<polyline id="XMLID_108_" class="st3" points="14,20.4 19.6,26 14,31.7 		"/>
		<polyline id="XMLID_107_" class="st3" points="34,31.7 28.3,26 34,20.4 		"/>
		<polyline id="XMLID_105_" class="st3" points="29.6,16 24,21.7 18.3,16 		"/>
		<polyline id="XMLID_104_" class="st3" points="18.3,36 24,30.4 29.6,36 		"/>
		<line id="XMLID_102_" class="st3" x1="24" y1="20" x2="24" y2="7"/>
		<line id="XMLID_101_" class="st3" x1="24" y1="45" x2="24" y2="32"/>
		<line id="XMLID_100_" class="st3" x1="30" y1="26" x2="43" y2="26"/>
		<line id="XMLID_98_" class="st3" x1="6" y1="26" x2="19" y2="26"/>
	</g>
	<g id="XMLID_60_">
		<path class="st1" d="M24,7.4l17,8.9v19.4l-17,8.9L7,35.7V16.3L24,7.4 M24,4L4,14.5v23.1l20,10.5l20-10.5V14.5L24,4L24,4z"/>
	</g>
</g>
</svg>
