<?xml version="1.0" encoding="utf-8"?>
<!-- Generator: Adobe Illustrator 15.0.0, SVG Export Plug-In . SVG Version: 6.00 Build 0)  -->
<!DOCTYPE svg PUBLIC "-//W3C//DTD SVG 1.1//EN" "http://www.w3.org/Graphics/SVG/1.1/DTD/svg11.dtd">
<svg version="1.1" id="Layer_1" xmlns="http://www.w3.org/2000/svg" xmlns:xlink="http://www.w3.org/1999/xlink" x="0px" y="0px"
	 width="983.062px" height="768.5px" viewBox="0 0 983.062 768.5" style="enable-background:new 0 0 983.062 768.5;"
	 xml:space="preserve">
<style type="text/css">
<![CDATA[
	.st0{clip-path:url(#SVGID_6_);fill:none;stroke:#F9773E;stroke-miterlimit:10;}
	.st1{fill:none;stroke:#FFB81A;stroke-width:3;stroke-linecap:round;stroke-linejoin:round;stroke-miterlimit:10;}
	.st2{fill:none;stroke:#E03F07;stroke-width:3;stroke-miterlimit:10;}
	.st3{clip-path:url(#SVGID_16_);fill:none;stroke:#F9773E;stroke-miterlimit:10;}
	.st4{fill:none;stroke:#6B989F;stroke-width:2;stroke-miterlimit:10;}
	.st5{fill:#53848C;}
	.st6{fill:none;stroke:#FFFFFF;stroke-width:6;stroke-miterlimit:10;}
	.st7{fill:none;stroke:#F9773E;stroke-miterlimit:10;}
	.st8{fill:none;stroke:#FFB81A;stroke-width:4;stroke-miterlimit:10;}
	.st9{fill:none;stroke:#FFFFFF;stroke-width:3;stroke-linecap:square;stroke-miterlimit:10;}
	.st10{clip-path:url(#SVGID_14_);fill:none;stroke:#F9773E;stroke-miterlimit:10;}
	.st11{fill:#F9773E;}
	.st12{opacity:0.5;fill:#6B989F;enable-background:new    ;}
	.st13{fill:#FF7931;}
	.st14{fill:#FFB81A;}
	.st15{fill:#FFFFFF;}
	.st16{clip-path:url(#SVGID_12_);fill:none;stroke:#F9773E;stroke-miterlimit:10;}
	.st17{fill:none;}
	.st18{clip-path:url(#SVGID_2_);fill:#F9773E;}
	.st19{fill:none;stroke:#335E6E;stroke-width:2;stroke-miterlimit:10;}
	.st20{fill:#335E6E;}
	.st21{fill:#345D6E;}
	.st22{fill:none;stroke:#FFB81A;stroke-width:2;stroke-linecap:round;stroke-miterlimit:10;}
	.st23{fill:#6B989F;}
	.st24{fill:none;stroke:#FFFFFF;stroke-width:1.4167;stroke-miterlimit:10;}
	.st25{clip-path:url(#SVGID_4_);fill:none;stroke:#F9773E;stroke-width:2;stroke-miterlimit:10;}
	.st26{fill:none;stroke:#F9773E;stroke-width:2;stroke-miterlimit:10;}
	.st27{clip-path:url(#SVGID_10_);fill:none;stroke:#F9773E;stroke-miterlimit:10;}
	.st28{fill:none;stroke:#FFB81A;stroke-width:2.9184;stroke-miterlimit:10;}
	.st29{clip-path:url(#SVGID_8_);fill:none;stroke:#F9773E;stroke-miterlimit:10;}
	.st30{fill:#71A8A8;}
	.st31{fill:#FFFFFF;stroke:#231F20;stroke-miterlimit:10;}
	.st32{fill:none;stroke:#FFFFFF;stroke-width:3;stroke-miterlimit:10;}
	.st33{clip-path:url(#SVGID_20_);fill:none;stroke:#F9773E;stroke-miterlimit:10;}
	.st34{clip-path:url(#SVGID_18_);fill:none;stroke:#F9773E;stroke-miterlimit:10;}
	.st35{fill:none;stroke:#FFFFFF;stroke-width:1.4167;stroke-linecap:round;stroke-miterlimit:10;}
	.st36{fill:none;stroke:#FFFFFF;stroke-width:1.4167;stroke-miterlimit:1;}
]]>
</style>
<symbol  id="New_Symbol" viewBox="-10.3 -10.3 20.6 20.6">
	<polygon class="st31" points="9.8,-9.8 -9.8,-9.8 -9.8,9.8 9.8,9.8 	"/>
</symbol>
<g id="first">
	
		<use xlink:href="#New_Symbol"  width="20.6" height="20.6" x="-10.3" y="-10.3" transform="matrix(0.7046 0 0 -0.7046 11.2573 11.2573)" style="overflow:visible;"/>
</g>
<g id="ep4-badge">
	<g id="_x3E_white_3_">
		<path id="XMLID_93_" class="st32" d="M15.599,22.199h3.2c3.5,0,3.2-4.196,3.2-4.196H10.898v7.1l7.2,2"/>
		<polyline id="XMLID_92_" class="st32" points="16.199,22.199 25.599,22.199 25.599,13.5 10.8,13.5 10.8,19.4 		"/>
		<line id="XMLID_91_" class="st32" x1="21.899" y1="22.199" x2="21.899" y2="13.5"/>
		<line id="XMLID_90_" class="st32" x1="23.599" y1="27" x2="23.599" y2="22.4"/>
		<line id="XMLID_89_" class="st32" x1="18.199" y1="17.6" x2="18.199" y2="13.5"/>
		<line id="XMLID_88_" class="st32" x1="14.5" y1="17.6" x2="14.5" y2="13.5"/>
	</g>
	<g id="XMLID_94_">
		<path class="st14" d="M18.199,6.4l12,6.299V26.4l-12,6.299l-12-6.299V12.699L18.199,6.4 M18.199,4L4,11.399v16.399l14.199,7.396
			l14.2-7.396V11.4L18.199,4L18.199,4z"/>
	</g>
</g>
<g id="ep3-badge">
	<g id="_x3E_white_2_">
		<polyline id="XMLID_74_" class="st9" points="8.5,14.4 18.2,9.3 27.901,14.4 27.901,19.3 18.2,24.4 		"/>
		<polyline id="XMLID_73_" class="st9" points="27.901,19 27.901,23.9 18.2,29 		"/>
		<line id="XMLID_72_" class="st32" x1="27.901" y1="24.3" x2="27.901" y2="28.699"/>
		<line id="XMLID_71_" class="st9" x1="27.401" y1="14.9" x2="18.2" y2="19.699"/>
	</g>
	<g>
		<g id="XMLID_69_">
			<g>
				<path class="st14" d="M6.2,14.9l9.9,5.198v11.5L6.2,26.4V14.9 M4.1,11.4v16.398l14.2,7.396l0,0V18.8L4.1,11.4L4.1,11.4L4.1,11.4
					z"/>
			</g>
		</g>
		<path id="XMLID_68_" class="st14" d="M25.901,18.3c-0.1,0.396-0.4,0.7-0.8,0.7c-0.4,0-0.6-0.304-0.5-0.7
			c0.1-0.398,0.4-0.7,0.8-0.7S25.901,17.9,25.901,18.3z"/>
		<path id="XMLID_67_" class="st14" d="M25.901,22.9c-0.1,0.398-0.4,0.698-0.8,0.698c-0.4,0-0.6-0.3-0.5-0.698
			c0.1-0.397,0.4-0.701,0.8-0.701S25.901,22.5,25.901,22.9z"/>
		<path id="XMLID_66_" class="st14" d="M25.901,27.6c-0.1,0.4-0.4,0.7-0.8,0.7c-0.4,0-0.6-0.3-0.5-0.7
			c0.1-0.399,0.4-0.698,0.8-0.698S25.901,27.199,25.901,27.6z"/>
		<g id="XMLID_59_">
			<path class="st14" d="M18.2,6.4l12,6.299V26.4l-12,6.299L6.2,26.4V12.699L18.2,6.4 M18.2,4L4,11.397v16.399l14.2,7.396
				l14.2-7.396V11.399L18.2,4L18.2,4z"/>
		</g>
	</g>
</g>
<g id="ep2-badge">
	<g id="_x3E_white_1_">
		<line id="XMLID_333_" class="st32" x1="26.6" y1="14.9" x2="19.6" y2="19"/>
		<line id="XMLID_332_" class="st32" x1="18.2" y1="29.199" x2="18.2" y2="21.1"/>
		<line id="XMLID_330_" class="st32" x1="16.7" y1="19" x2="9.7" y2="14.9"/>
		<polyline id="XMLID_329_" class="st32" points="24.7,26.3 18.2,29.699 11.6,26.3 		"/>
		<polyline id="XMLID_328_" class="st32" points="20.7,11 27.2,14.4 27.2,21.9 		"/>
		<polyline id="XMLID_327_" class="st32" points="9,21.9 9,14.4 15.5,11 		"/>
	</g>
	<g id="XMLID_335_">
		<path class="st14" d="M18.2,6.4l12,6.299V26.4l-12,6.299L6.2,26.4V12.699L18.2,6.4 M18.2,4L4,11.397v16.399l14.2,7.396l14.2-7.396
			V11.399L18.2,4L18.2,4z"/>
	</g>
</g>
<g id="ep1-badge">
	<g id="_x3E_white">
		<polyline id="XMLID_108_" class="st32" points="11.1,15.6 15.1,19.5 11.1,23.6 		"/>
		<polyline id="XMLID_107_" class="st32" points="25.3,23.6 21.2,19.5 25.3,15.6 		"/>
		<polyline id="XMLID_105_" class="st32" points="22.2,12.5 18.2,16.5 14.2,12.5 		"/>
		<polyline id="XMLID_104_" class="st32" points="14.2,26.6 18.2,22.699 22.2,26.6 		"/>
		<line id="XMLID_102_" class="st32" x1="18.2" y1="15.3" x2="18.2" y2="6.1"/>
		<line id="XMLID_101_" class="st32" x1="18.2" y1="33" x2="18.2" y2="23.8"/>
		<line id="XMLID_100_" class="st32" x1="22.401" y1="19.5" x2="31.7" y2="19.5"/>
		<line id="XMLID_98_" class="st32" x1="5.501" y1="19.5" x2="14.7" y2="19.5"/>
	</g>
	<g id="XMLID_60_">
		<path class="st14" d="M18.2,6.4l12,6.299V26.4l-12,6.299L6.2,26.4V12.699L18.2,6.4 M18.2,4L4,11.397v16.399l14.2,7.396l14.2-7.396
			V11.399L18.2,4L18.2,4z"/>
	</g>
</g>
<g id="rank-badge-cyber-cadet">
	<polygon class="st15" points="30.5,4 31.3,5.7 33,6 31.8,7.2 32.1,9 30.5,8.2 29,9 29.3,7.2 28.1,6 29.8,5.7 	"/>
	<polygon class="st15" points="6.5,4 7.201,5.7 8.901,6 7.701,7.2 8,9 6.5,8.2 5,9 5.3,7.2 4,6 5.8,5.7 	"/>
	<polygon class="st14" points="15.5,33.3 13.201,32.101 13,32.2 13,32 7.901,29.3 7.901,17 16.1,12.7 16.6,10.1 5.8,15.7 
		5.8,30.601 15,35.399 	"/>
	<polygon class="st14" points="20.5,10.1 20.901,12.7 29.1,17 29.1,29.3 22.1,33 21.3,35.899 31.201,30.601 31.201,15.7 	"/>
	<g>
		<polygon class="st15" points="19.201,33.3 16.401,35.3 18.5,26 15,28.8 17.1,16.101 20.6,16.101 19.201,21.7 22,19.601 
			19.6,29.601 22.201,27.601 17.701,43.101 		"/>
		<rect x="13.5" y="15.399" class="st15" width="9.897" height="1.399"/>
		<polygon class="st15" points="18.5,6.899 17.1,15.399 19.901,15.399 		"/>
		<g id="XMLID_45_">
			<g id="XMLID_157_">
				<g id="XMLID_185_">
					<g id="XMLID_229_">
						<polygon class="st15" points="18.5,5.5 17.1,6.3 17.1,8.2 18.5,9 19.901,8.2 19.901,6.3 						"/>
					</g>
				</g>
			</g>
		</g>
	</g>
</g>
<g id="rank-badge-technical-cadet">
	<polygon class="st14" points="20.699,11.1 21,13.3 27.699,13.3 27.699,29 21,33.601 20.699,36.5 29.8,30.101 29.8,11.1 	"/>
	<polygon class="st14" points="16,33.7 9.399,29.3 9.399,13.3 16,13.3 16.399,11.1 7.199,11.1 7.3,30.399 16.399,36.5 	"/>
	<g>
		<g>
			<g>
				<polygon class="st15" points="18.5,16.101 15.699,18.899 18.5,43 21.3,18.899 				"/>
			</g>
		</g>
		<rect x="13.5" y="15.399" class="st15" width="9.899" height="1.399"/>
		<polygon class="st15" points="18.5,6.899 17.099,15.399 19.899,15.399 		"/>
		<g id="XMLID_166_">
			<g id="XMLID_168_">
				<g id="XMLID_169_">
					<g id="XMLID_170_">
						<polygon class="st15" points="18.5,5.5 17.099,6.3 17.099,8.2 18.5,9 19.899,8.2 19.899,6.3 						"/>
					</g>
				</g>
			</g>
		</g>
	</g>
	<polygon class="st15" points="30.5,4 31.3,5.7 33,6 31.8,7.2 32.099,9 30.5,8.2 29,9 29.3,7.2 28,6 29.8,5.7 	"/>
	<polygon class="st15" points="6.5,4 7.199,5.7 8.899,6 7.699,7.2 8,9 6.5,8.2 5,9 5.3,7.2 4,6 5.699,5.7 	"/>
</g>
<g id="rank-badge-cadet-first-class">
	<g>
		<path class="st14" d="M27.7,13.3V29l-9.2,6.396L9.4,29.2l-0.101-16h18.4 M29.8,11.1H7.2l0.1,19.299L18.601,38l11.3-7.898v-19
			L29.8,11.1L29.8,11.1z"/>
	</g>
	<line class="st28" x1="7.8" y1="21" x2="29.2" y2="21"/>
	<polygon class="st15" points="30.5,4 31.3,5.7 33,6 31.8,7.2 32.101,9 30.5,8.2 29,9 29.3,7.2 28,6 29.8,5.7 	"/>
	<polygon class="st15" points="6.401,4 7.2,5.7 8.901,6 7.7,7.2 8,9 6.401,8.2 5,9 5.2,7.2 4,6 5.7,5.7 	"/>
</g>
<g id="rank-badge-cadet">
	<g>
		<path class="st14" d="M24.5,6.2v15.7l-9.199,6.399L6.2,22.103l-0.1-16h18.399 M26.7,4H4l0.101,19.299l11.3,7.604l11.3-7.898
			L26.7,4L26.7,4z"/>
	</g>
	<line class="st28" x1="4.7" y1="13.9" x2="26.101" y2="13.9"/>
</g>
<g id="rank-badge-recruit">
	<g>
		<path class="st14" d="M24.601,6.2v15.7l-9.2,6.396l-9.1-6.196L6.2,6.1h18.4 M26.7,4H4l0.101,19.299l11.3,7.604l11.3-7.898L26.7,4
			L26.7,4z"/>
	</g>
</g>
<g id="chapter-progress-chapter">
	<g id="XMLID_150_">
		<path class="st23" d="M9.7,6.399l3.5,1.899v4.101l-3.5,1.899l-3.5-1.899V8.299L9.7,6.399 M9.7,4L4,7v6.7l5.7,3l5.7-3V7L9.7,4
			L9.7,4z"/>
	</g>
</g>
<g id="chapter-progress-slide">
	<rect x="4" y="4" class="st23" width="6.4" height="6.398"/>
</g>
<g id="chapter-progress-test">
	<polygon class="st12" points="17.9,21.1 13.799,23.3 5.799,19.199 5.799,10.199 8.4,8.8 7,7.5 4,9.1 4,20.199 13.799,25.199 
		19.599,22.199 	"/>
	<polygon class="st12" points="13.799,4 9.199,6.3 11,7.5 13.799,6.1 21.699,10.199 21.699,19.199 20.4,19.8 21.799,21.1 
		23.5,20.199 23.5,9.1 	"/>
	<g>
		<polygon class="st11" points="6.699,5.8 15.799,11.5 13,11.4 20.599,18 17.299,18 22.199,22.8 12.4,16.5 16.099,16.5 8,10.199 
			10.9,10.1 		"/>
	</g>
</g>
<g id="chapter-progress-duties">
	<circle class="st23" cx="7.2" cy="7.2" r="3.2"/>
</g>
<g id="list-progress-base">
	<g id="hex-outer_1_">
		<g id="XMLID_1080_">
			<path class="st11" d="M18.2,7.201L29.5,13.1v12.899l-11.3,5.899L6.9,25.999V13.101L18.2,7.201 M18.2,4L4,11.399v16.4l14.2,7.399
				l14.2-7.397V11.4L18.2,4L18.2,4z"/>
		</g>
	</g>
	<g id="hex-inner_1_">
		<g id="XMLID_2384_">
			<polygon class="st14" points="18.2,29.9 9.099,25 9.099,14.101 18.2,9.201 27.2,14.101 27.2,24.9 			"/>
		</g>
	</g>
</g>
<g id="list-progress-complete">
	<g id="hex-inner">
		<g>
			<polygon class="st30" points="21.8,13.801 25.701,16.201 21.201,16.201 20.5,16.201 27.201,21.9 27.201,14.101 18.101,9.201 
				16.101,10.201 			"/>
		</g>
		<g>
			<polygon class="st30" points="15.5,23.5 11.9,21.101 16.101,21.101 17.8,21 9.101,14.301 9.101,25 18.101,29.9 22.201,27.701 			
				"/>
		</g>
	</g>
	<g id="hex-outer">
		<polygon class="st5" points="24,28.801 18.101,32 6.8,26 6.8,13.101 10.4,11.201 8.4,9.101 4,11.4 4,27.701 18.101,35.101 
			26.8,30.601 		"/>
		<polygon class="st5" points="18.101,4 11.5,7.4 14.4,9.201 18.101,7.201 29.5,13.101 29.5,26 27.701,26.9 29.9,29 32.3,27.701 
			32.3,11.4 		"/>
	</g>
	<g id="lightning_1_">
		<g id="lightning">
			<polygon class="st14" points="7.701,6.5 21.201,14.9 17.101,14.9 28.3,24.5 23.4,24.5 30.5,31.5 16.201,22.301 21.601,22.301 
				9.601,13.101 14,12.9 			"/>
		</g>
	</g>
</g>
<g id="ctanlee">
	<circle class="st15" cx="21" cy="21" r="6.399"/>
	<path class="st6" d="M25.5,37.399c7.2-2,12.5-8.5,12.5-16.396"/>
	<path class="st6" d="M4,21c0,7.8,5.3,14.396,12.5,16.396"/>
	<path class="st6" d="M32.8,8.8C29.7,5.9,25.6,4,21,4c-4.7,0-8.9,1.896-12,4.896"/>
</g>
<g id="action-btn-fist">
	<polygon class="st15" points="35.7,86.895 4,70.294 4,33.794 35.7,17.194 67.401,33.794 67.401,70.294 	"/>
	<polygon class="st11" points="35.7,84.495 6.2,68.995 6.2,34.995 35.7,19.595 65.2,34.995 65.2,68.995 	"/>
	<path class="st21" d="M42.299,12.694c0,0,7.4,2,10.102,3.4c-3.397,6.5-11.5,2.397-11.5,2.397s-2.3,2.799-3,3.603
		c11.103,5.196,26.2,0.696,26.2,0.696l-0.897,5.899l-5.603,13.5l-9.7,5L30.202,82.494L9.501,71.693l25.8-32.399l-2.699-19.101
		L42.299,12.694z"/>
	<path class="st24" d="M42.299,12.694c0,0,7.4,2,10.102,3.4c-3.397,6.5-11.5,2.397-11.5,2.397s-2.3,2.799-3,3.603
		c11.103,5.196,26.2,0.696,26.2,0.696l-0.897,5.899l-5.603,13.5l-9.7,5L30.202,82.494L9.501,71.693l25.8-32.399l-2.699-19.101
		L42.299,12.694z"/>
	<path class="st21" d="M48,5.495l-2.103-1.102c-1.8-0.898-3.897-0.2-4.8,1.5l-7,13.396l8.5,4.399l7-13.399
		C50.5,8.495,49.799,6.395,48,5.495"/>
	<path class="st24" d="M48,5.495l-2.103-1.102c-1.8-0.898-3.897-0.2-4.8,1.5l-7,13.396l8.5,4.399l7-13.399
		C50.5,8.495,49.799,6.395,48,5.495z"/>
	<path class="st21" d="M54.5,6.895l2.602,1.7c1.3,0.8,1.698,2.5,0.8,3.8l-7.3,11.2c-3-0.9-4.397-2.103-6.302-4.304l6.302-11.396
		C51.5,6.595,53.2,6.095,54.5,6.895"/>
	<path class="st24" d="M54.5,6.895l2.602,1.7c1.3,0.8,1.698,2.5,0.8,3.8l-7.3,11.2c-3-0.9-4.397-2.103-6.302-4.304l6.302-11.396
		C51.5,6.595,53.2,6.095,54.5,6.895z"/>
	<path class="st21" d="M62.5,14.995l-1.898-1.302c-1.302-0.899-3-0.5-3.802,0.7l-6.1,9.2c1.3,2,3.1,3.6,6,4l6.397-8.9
		C64,17.495,63.7,15.794,62.5,14.995"/>
	<path class="st24" d="M62.5,14.995l-1.898-1.302c-1.302-0.899-3-0.5-3.802,0.7l-6.1,9.2c1.3,2,3.1,3.6,6,4l6.397-8.9
		C64,17.495,63.7,15.794,62.5,14.995z"/>
	<path class="st21" d="M67.101,24.194l-5.302,6.9c-2.3-0.7-3.898-1.9-5.1-3.4l5.3-7.3c0.897-1.3,2.8-1.5,4-0.5l0.7,0.602
		C67.799,21.395,68,22.995,67.101,24.194"/>
	<path class="st24" d="M67.101,24.194l-5.302,6.9c-2.3-0.7-3.898-1.9-5.1-3.4l5.3-7.3c0.897-1.3,2.8-1.5,4-0.5l0.7,0.602
		C67.799,21.395,68,22.995,67.101,24.194z"/>
	<path class="st21" d="M58,34.095c0.897-0.603,3.8-3,3.8-3c-2.1-0.4-3.8-1.603-5.1-3.4l-2.803,2.7c-1.102,1-0.897,2.7,0.303,3.5
		l0.6,0.396C55.799,34.895,57.2,34.694,58,34.095"/>
	<path class="st36" d="M58,34.095c0.897-0.603,3.8-3,3.8-3c-2.1-0.4-3.8-1.603-5.1-3.4l-2.803,2.7c-1.102,1-0.897,2.7,0.303,3.5
		l0.6,0.396C55.799,34.895,57.2,34.694,58,34.095z"/>
	<path class="st21" d="M50.2,30.995L49,30.098c-0.8-0.603-1-1.7-0.5-2.603l2.2-3.897c1.397,2.5,3.397,3.8,6,4l-3.4,3.196
		C52.5,31.694,51.2,31.694,50.2,30.995"/>
	<path class="st36" d="M50.2,30.995L49,30.098c-0.8-0.603-1-1.7-0.5-2.603l2.2-3.897c1.397,2.5,3.397,3.8,6,4l-3.4,3.196
		C52.5,31.694,51.2,31.694,50.2,30.995z"/>
	<path class="st21" d="M41.601,24.794l6,4.304l3.103-5.5c-3-0.7-4.5-1.804-6.303-4.304L41.601,24.794z"/>
	<path class="st24" d="M41.601,24.794l6,4.304l3.103-5.5c-3-0.7-4.5-1.804-6.303-4.304L41.601,24.794z"/>
	<path class="st21" d="M10,71.495l20.897-33.397l-2.197-19l10.8-10.2c0,0,10.102,5.3,12.8,6.7c-3.398,6.5-10.101,2.3-10.101,2.3
		s-1.302,2.896-1.899,3.7c9,4.696,10.802,9,3.5,16.397"/>
	<path class="st35" d="M10,71.495l20.897-33.397l-2.197-19l10.8-10.2c0,0,10.102,5.3,12.8,6.7c-3.398,6.5-10.101,2.3-10.101,2.3
		s-1.302,2.896-1.899,3.7c9,4.696,10.802,9,3.5,16.397"/>
	<path class="st15" d="M26,73.694c0.897-8.3,2.8-16.5,5.602-24.6c0.198,1.8,0.398,3.6,0.698,5.3c1.9-5.8,4.4-11.398,7.302-16.898
		c-0.302,2.103-0.397,4.103-0.602,6.103c2.3-3.5,4.7-6.804,7.397-10c1.303-1.603,1.7-1.2,0.603,0.5c-3.8,6.1-6.898,12.5-9.3,19
		c-0.103-1.804-0.2-3.603-0.2-5.4c-2.2,5.2-4,10.5-5.3,15.9c-0.4-1.9-0.803-3.804-1.2-5.804C28.901,62.995,27.2,68.294,26,73.694"/>
</g>
<g id="mini-generation">
	<rect x="4" y="4" class="st17" width="179" height="132.801"/>
	<rect x="41.601" y="53.101" class="st23" width="87.701" height="11.5"/>
	<path class="st11" d="M127.901,63h-84.7v-8.398h84.7V63L127.901,63z M130.901,51.601h-3h-84.7h-3v3v8.5v3h3h84.7h3v-3v-8.5V51.601
		L130.901,51.601z"/>
	<rect x="36" y="59.801" class="st23" width="99" height="66.5"/>
	<path class="st11" d="M133.5,124.801h-96v-63.5h96V124.801z M136.5,58.301h-3h-96h-3v3v63.5v3h3h96h3v-3v-63.5V58.301z"/>
	<polygon class="st11" points="27.101,127.801 48.901,127.801 46.5,5.9 29.401,5.9 	"/>
	<rect x="44.101" y="55.601" class="st23" width="82.701" height="6.5"/>
	<path class="st20" d="M125.901,61h-80.7v-4.398h80.7V61L125.901,61z M127.901,54.601h-84.7v8.5h84.7V54.601L127.901,54.601z"/>
	<rect x="38.5" y="62.301" class="st23" width="94" height="61.5"/>
	<path class="st20" d="M131.5,122.801h-92v-59.5h92V122.801z M133.5,61.301h-96v63.5h96V61.301z"/>
	<rect x="128.601" y="64.101" class="st15" width="7.103" height="1.396"/>
	<rect x="128.601" y="64.101" class="st20" width="7.103" height="1.396"/>
	<rect x="124.601" y="94.101" class="st15" width="7.103" height="1.3"/>
	<rect x="124.601" y="94.101" class="st19" width="7.103" height="1.3"/>
	<path class="st15" d="M36.101,64.801h5.7H36.101z"/>
	<rect x="35.401" y="64.101" class="st20" width="7.1" height="1.396"/>
	<rect x="39.401" y="94.101" class="st15" width="7.1" height="1.3"/>
	<rect x="39.401" y="94.101" class="st19" width="7.1" height="1.3"/>
	<rect x="37.601" y="62.801" class="st15" width="95.803" height="1.196"/>
	<rect x="36.101" y="61.301" class="st20" width="98.803" height="4.196"/>
	<rect x="83.301" y="71.201" class="st14" width="5.5" height="10.5"/>
	<path class="st20" d="M87.901,80.701h-3.5v-8.5h3.5V80.701z M89.901,70.201h-2h-3.5h-2v2v8.5v2h2h3.5h2v-2v-8.5V70.201z"/>
	<rect x="64.401" y="71.201" class="st14" width="5.5" height="10.5"/>
	<path class="st20" d="M69,80.701h-3.5v-8.5H69V80.701z M71,70.201h-2h-3.5h-2v2v8.5v2h2H69h2v-2v-8.5V70.201z"/>
	<rect x="73.901" y="71.201" class="st14" width="5.5" height="10.5"/>
	<path class="st20" d="M78.401,80.701h-3.5v-8.5h3.5V80.701z M80.401,70.201h-2h-3.5h-2v2v8.5v2h2h3.5h2v-2v-8.5V70.201z"/>
	<rect x="111.7" y="71.201" class="st14" width="5.5" height="10.5"/>
	<path class="st20" d="M116.2,80.701h-3.5v-8.5h3.5V80.701z M118.2,70.201h-2h-3.5h-2v2v8.5v2h2h3.5h2v-2v-8.5V70.201z"/>
	<rect x="121.101" y="71.201" class="st14" width="5.5" height="10.5"/>
	<path class="st20" d="M125.601,80.701h-3.5v-8.5h3.5V80.701z M127.601,70.201h-2h-3.5h-2v2v8.5v2h2h3.5h2v-2v-8.5V70.201z"/>
	<rect x="92.801" y="71.201" class="st14" width="5.5" height="10.5"/>
	<path class="st20" d="M97.301,80.701h-3.5v-8.5h3.5V80.701z M99.301,70.201h-2h-3.5h-2v2v8.5v2h2h3.5h2v-2v-8.5V70.201z"/>
	<rect x="102.2" y="71.201" class="st14" width="5.5" height="10.5"/>
	<path class="st20" d="M106.801,80.701h-3.5v-8.5h3.5V80.701z M108.801,70.201h-2h-3.5h-2v2v8.5v2h2h3.5h2v-2v-8.5V70.201z"/>
	<rect x="45.601" y="71.201" class="st14" width="5.5" height="10.5"/>
	<path class="st20" d="M50.101,80.701h-3.5v-8.5h3.5V80.701z M52.101,70.201h-2h-3.5h-2v2v8.5v2h2h3.5h2v-2v-8.5V70.201z"/>
	<rect x="55" y="71.201" class="st14" width="5.5" height="10.5"/>
	<path class="st20" d="M59.5,80.701H56v-8.5h3.5V80.701z M61.5,70.201h-2H56h-2v2v8.5v2h2h3.5h2v-2v-8.5V70.201z"/>
	<rect x="111.7" y="107.9" class="st14" width="5.5" height="10.5"/>
	<path class="st20" d="M116.2,117.4h-3.5v-8.5h3.5V117.4z M118.2,106.9h-2h-3.5h-2v2v8.5v2h2h3.5h2v-2v-8.5V106.9z"/>
	<rect x="121.101" y="107.9" class="st14" width="5.5" height="10.5"/>
	<path class="st20" d="M125.601,117.4h-3.5v-8.5h3.5V117.4z M127.601,106.9h-2h-3.5h-2v2v8.5v2h2h3.5h2v-2v-8.5V106.9z"/>
	<rect x="45.601" y="107.9" class="st14" width="5.5" height="10.5"/>
	<path class="st20" d="M50.101,117.4h-3.5v-8.5h3.5V117.4z M52.101,106.9h-2h-3.5h-2v2v8.5v2h2h3.5h2v-2v-8.5V106.9z"/>
	<rect x="55" y="107.9" class="st14" width="5.5" height="10.5"/>
	<path class="st20" d="M59.5,117.4H56v-8.5h3.5V117.4z M61.5,106.9h-2H56h-2v2v8.5v2h2h3.5h2v-2v-8.5V106.9z"/>
	<rect x="25.601" y="11.101" class="st11" width="24.7" height="4"/>
	<path class="st11" d="M49.301,14H26.7v-1.898h22.601V14z M51.401,10h-2.103H26.697h-2.103v2.102v1.896v2.104h2.103h22.604h2.103V14
		v-1.898L51.401,10L51.401,10z"/>
	<g>
		<g>
			<g>
				<g>
					<g>
						<g>
							<defs>
								<path id="SVGID_1_" d="M138.601,97.201v19.104h15.101c0.101-2.2,1.896-3.9,4.101-3.9c2.198,0,4,1.7,4.104,3.9h14.799V97.201
									H138.601z"/>
							</defs>
							<clipPath id="SVGID_2_">
								<use xlink:href="#SVGID_1_"  style="overflow:visible;"/>
							</clipPath>
							<path class="st18" d="M174.801,124.801H140.6V99.2h34.201V124.801z M176.801,97.201H138.6v29.604h38.201V97.201z"/>
						</g>
					</g>
				</g>
			</g>
		</g>
		<g>
			<g>
				<g>
					<g>
						<g>
							<defs>
								<path id="SVGID_3_" d="M138.601,97.201v19.104h15.101c0.101-2.2,1.896-3.9,4.101-3.9c2.198,0,4,1.7,4.104,3.9h14.799V97.201
									H138.601z"/>
							</defs>
							<clipPath id="SVGID_4_">
								<use xlink:href="#SVGID_3_"  style="overflow:visible;"/>
							</clipPath>
							<circle class="st25" cx="157.801" cy="116.5" r="17.6"/>
						</g>
					</g>
				</g>
			</g>
		</g>
		<g>
			<g>
				<g>
					<g>
						<g>
							<defs>
								<path id="SVGID_5_" d="M138.601,97.201v19.104h15.101c0.101-2.2,1.896-3.9,4.101-3.9c2.198,0,4,1.7,4.104,3.9h14.799V97.201
									H138.601z"/>
							</defs>
							<clipPath id="SVGID_6_">
								<use xlink:href="#SVGID_5_"  style="overflow:visible;"/>
							</clipPath>
							<polyline class="st0" points="157.801,116.5 147.2,112.101 148.7,107.4 157.801,116.5 							"/>
						</g>
					</g>
				</g>
			</g>
		</g>
		<g>
			<g>
				<g>
					<g>
						<g>
							<defs>
								<path id="SVGID_7_" d="M138.601,97.201v19.104h15.101c0.101-2.2,1.896-3.9,4.101-3.9c2.198,0,4,1.7,4.104,3.9h14.799V97.201
									H138.601z"/>
							</defs>
							<clipPath id="SVGID_8_">
								<use xlink:href="#SVGID_7_"  style="overflow:visible;"/>
							</clipPath>
							<polyline class="st29" points="157.801,116.5 146.301,116.5 145.901,111.601 157.801,116.5 							"/>
						</g>
					</g>
				</g>
			</g>
		</g>
		<g>
			<g>
				<g>
					<g>
						<g>
							<defs>
								<path id="SVGID_9_" d="M138.601,97.201v19.104h15.101c0.101-2.2,1.896-3.9,4.101-3.9c2.198,0,4,1.7,4.104,3.9h14.799V97.201
									H138.601z"/>
							</defs>
							<clipPath id="SVGID_10_">
								<use xlink:href="#SVGID_9_"  style="overflow:visible;"/>
							</clipPath>
							<polyline class="st27" points="157.801,116.5 168.5,112.101 170.7,116.5 157.801,116.5 							"/>
						</g>
					</g>
				</g>
			</g>
		</g>
		<g>
			<g>
				<g>
					<g>
						<g>
							<defs>
								<path id="SVGID_11_" d="M138.601,97.201v19.104h15.101c0.101-2.2,1.896-3.9,4.101-3.9c2.198,0,4,1.7,4.104,3.9h14.799
									V97.201H138.601z"/>
							</defs>
							<clipPath id="SVGID_12_">
								<use xlink:href="#SVGID_11_"  style="overflow:visible;"/>
							</clipPath>
							<polyline class="st16" points="157.801,116.5 166,108.4 169.7,111.601 157.801,116.5 							"/>
						</g>
					</g>
				</g>
			</g>
		</g>
		<g>
			<g>
				<g>
					<g>
						<g>
							<defs>
								<path id="SVGID_13_" d="M138.601,97.201v19.104h15.101c0.101-2.2,1.896-3.9,4.101-3.9c2.198,0,4,1.7,4.104,3.9h14.799
									V97.201H138.601z"/>
							</defs>
							<clipPath id="SVGID_14_">
								<use xlink:href="#SVGID_13_"  style="overflow:visible;"/>
							</clipPath>
							<polyline class="st10" points="157.801,116.5 162.301,105.9 167,107.4 157.801,116.5 							"/>
						</g>
					</g>
				</g>
			</g>
		</g>
		<g>
			<g>
				<g>
					<g>
						<g>
							<defs>
								<path id="SVGID_15_" d="M138.601,97.201v19.104h15.101c0.101-2.2,1.896-3.9,4.101-3.9c2.198,0,4,1.7,4.104,3.9h14.799
									V97.201H138.601z"/>
							</defs>
							<clipPath id="SVGID_16_">
								<use xlink:href="#SVGID_15_"  style="overflow:visible;"/>
							</clipPath>
							<polyline class="st3" points="157.801,116.5 157.801,105 162.801,104.701 157.801,116.5 							"/>
						</g>
					</g>
				</g>
			</g>
		</g>
		<g>
			<g>
				<g>
					<g>
						<g>
							<defs>
								<path id="SVGID_17_" d="M138.601,97.201v19.104h15.101c0.101-2.2,1.896-3.9,4.101-3.9c2.198,0,4,1.7,4.104,3.9h14.799
									V97.201H138.601z"/>
							</defs>
							<clipPath id="SVGID_18_">
								<use xlink:href="#SVGID_17_"  style="overflow:visible;"/>
							</clipPath>
							<polyline class="st34" points="157.801,116.5 153.401,105.9 157.801,103.701 157.801,116.5 							"/>
						</g>
					</g>
				</g>
			</g>
		</g>
		<g>
			<g>
				<g>
					<g>
						<g>
							<defs>
								<path id="SVGID_19_" d="M138.601,97.201v19.104h15.101c0.101-2.2,1.896-3.9,4.101-3.9c2.198,0,4,1.7,4.104,3.9h14.799
									V97.201H138.601z"/>
							</defs>
							<clipPath id="SVGID_20_">
								<use xlink:href="#SVGID_19_"  style="overflow:visible;"/>
							</clipPath>
							<polyline class="st33" points="157.801,116.5 149.7,108.4 152.901,104.701 157.801,116.5 							"/>
						</g>
					</g>
				</g>
			</g>
		</g>
	</g>
	<path class="st11" d="M177.2,125.801h-38.898V118H177.2V125.801z M179.2,116h-42.898v11.801H179.2V116z"/>
	<path class="st26" d="M153.7,123.701H162V116.5c0-2.299-1.899-4.1-4.199-4.1c-2.301,0-4.102,1.899-4.102,4.1V123.701z"/>
	<path class="st11" d="M162,125.4h-8.699v-1.3H162V125.4L162,125.4z M164,122.101h-12.699v5.3H164V122.101L164,122.101z"/>
	<line class="st26" x1="161.901" y1="120.101" x2="153.5" y2="120.101"/>
</g>
<g id="mini-substation">
	<rect x="4" y="4" class="st17" width="179" height="132.8"/>
	<rect x="43.9" y="54.399" class="st23" width="102.6" height="71.899"/>
	<path class="st11" d="M145,124.8H45.4V55.9H145V124.8z M148,52.899h-3H45.4h-3v3v68.899v3h3H145h3v-3V55.899V52.899z"/>
	<rect x="40.1" y="53.399" class="st23" width="110.201" height="8.604"/>
	<path class="st11" d="M148.801,60.5H41.6v-5.601h107.201V60.5z M151.801,51.899h-3H41.6h-3v3v5.604v3h3h107.201h3v-3v-5.604V51.899
		z"/>
	<polyline class="st7" points="26.9,84.601 55.701,127.101 57.6,127.101 50.5,84.601 26.9,84.601 19.801,127.101 21.801,127.101 
		50.5,84.601 	"/>
	<polygon class="st7" points="26.9,84.601 50.5,84.601 48.201,69.3 29.201,69.3 	"/>
	<line class="st7" x1="26.9" y1="84.601" x2="48.201" y2="69.3"/>
	<line class="st7" x1="29.201" y1="69.3" x2="50.5" y2="84.601"/>
	<polygon class="st7" points="30.701,55.5 46.701,55.5 48.201,69.3 29.201,69.3 	"/>
	<line class="st7" x1="48.201" y1="69.3" x2="30.701" y2="55.5"/>
	<line class="st7" x1="46.701" y1="55.5" x2="29.201" y2="69.3"/>
	<polygon class="st7" points="30.701,55.5 46.701,55.5 45.701,42.8 31.701,42.8 	"/>
	<line class="st7" x1="30.701" y1="55.5" x2="45.701" y2="42.8"/>
	<line class="st7" x1="31.701" y1="42.8" x2="46.701" y2="55.5"/>
	<polygon class="st7" points="7.5,42.8 69.9,42.8 45.701,30.5 32.201,30.5 	"/>
	<polygon class="st7" points="32.201,30.5 45.701,30.5 45.701,42.8 31.701,42.8 	"/>
	<polyline class="st7" points="45.701,30.5 31.701,42.8 45.701,42.8 32.201,30.5 	"/>
	<polyline class="st7" points="51,33.101 45.701,42.8 31.701,42.8 26.9,33.101 	"/>
	<line class="st7" x1="26.9" y1="42.601" x2="19.301" y2="37"/>
	<line class="st7" x1="51" y1="42.601" x2="58.1" y2="37"/>
	<line class="st7" x1="58.1" y1="37" x2="58.1" y2="42.8"/>
	<line class="st7" x1="26.9" y1="33.101" x2="26.9" y2="42.601"/>
	<line class="st7" x1="51" y1="42.601" x2="51" y2="33.101"/>
	<polygon class="st7" points="32.201,30.5 45.701,30.5 44.201,22.399 33.201,22.399 	"/>
	<polyline class="st7" points="33.201,22.399 45.701,30.5 32.201,30.5 44.201,22.399 	"/>
	<polygon class="st7" points="34.701,12.5 42.701,12.5 44.201,22.399 33.201,22.399 	"/>
	<polygon class="st7" points="34.701,12.601 42.701,12.601 58.701,22.399 18.801,22.399 	"/>
	<polyline class="st7" points="42.701,12.601 33.201,22.399 44.201,22.399 34.701,12.601 	"/>
	<polyline class="st7" points="48.5,16.8 44.201,22.399 33.201,22.399 28.9,16.8 	"/>
	<line class="st7" x1="28.9" y1="16.8" x2="28.9" y2="22.2"/>
	<line class="st7" x1="48.5" y1="22.2" x2="48.5" y2="16.8"/>
	<line class="st7" x1="59.801" y1="26.399" x2="59.801" y2="22.899"/>
	<line class="st7" x1="71.4" y1="46.7" x2="71.4" y2="43.2"/>
	<line class="st7" x1="17.6" y1="26.399" x2="17.6" y2="22.899"/>
	<rect x="46.4" y="56.899" class="st23" width="97.6" height="66.899"/>
	<path class="st20" d="M143,122.8H47.4V57.9H143V122.8z M145,55.899H45.4v68.899H145V55.899z"/>
	<rect x="42.6" y="55.899" class="st23" width="105.201" height="3.604"/>
	<path class="st20" d="M146.801,58.5H43.6v-1.601h103.201V58.5z M148.801,54.899H41.6v5.604h107.201V54.899z"/>
	<rect x="40.801" y="59" class="st20" width="108.799" height="1.5"/>
	<line class="st19" x1="143.301" y1="116.8" x2="47.1" y2="116.8"/>
	<rect x="75.201" y="66.7" class="st14" width="5.799" height="11.196"/>
	<path class="st20" d="M80,76.899h-3.799V67.7H80V76.899z M82,65.7h-2h-3.799h-2v2v9.196v2h2H80h2v-2V67.7V65.7z"/>
	<rect x="85.301" y="66.7" class="st14" width="5.799" height="11.196"/>
	<path class="st20" d="M90.1,76.899h-3.799V67.7H90.1V76.899z M92.1,65.7h-2h-3.799h-2v2v9.196v2h2H90.1h2v-2V67.7V65.7z"/>
	<rect x="55" y="66.7" class="st14" width="5.804" height="11.196"/>
	<path class="st20" d="M59.801,76.899h-3.804V67.7h3.804V76.899z M61.801,65.7h-2h-3.804h-2v2v9.196v2h2h3.804h2v-2V67.7V65.7z"/>
	<rect x="65.1" y="66.7" class="st14" width="5.801" height="11.196"/>
	<path class="st20" d="M69.9,76.899H66.1V67.7H69.9V76.899z M71.9,65.7h-2H66.1h-2v2v9.196v2h2H69.9h2v-2V67.7V65.7z"/>
	<rect x="75.201" y="81.3" class="st14" width="5.799" height="11.2"/>
	<path class="st20" d="M80,91.5h-3.799v-9.2H80V91.5z M82,80.3h-2h-3.799h-2v2v9.2v2h2H80h2v-2v-9.2V80.3z"/>
	<rect x="55" y="81.3" class="st14" width="5.804" height="11.2"/>
	<path class="st20" d="M59.801,91.5h-3.804v-9.2h3.804V91.5z M61.801,80.3h-2h-3.804h-2v2v9.2v2h2h3.804h2v-2v-9.2V80.3z"/>
	<rect x="65.1" y="81.3" class="st14" width="5.801" height="11.2"/>
	<path class="st20" d="M69.9,91.5H66.1v-9.2H69.9V91.5z M71.9,80.3h-2H66.1h-2v2v9.2v2h2H69.9h2v-2v-9.2V80.3z"/>
	<rect x="161.4" y="107.101" class="st11" width="7" height="8.198"/>
	<rect x="157.9" y="115.7" class="st11" width="14.801" height="1.6"/>
	<path class="st11" d="M171.701,118.2v8.6l0,0l-10.897-8.6H171.701z M172.701,117.2H157.9l13.5,10.6h1.4v-10.6H172.701z"/>
	<path class="st11" d="M169.801,118.2l-10.9,8.6l0,0v-8.6H169.801z M172.701,117.2H157.9v10.6h1.4L172.701,117.2z"/>
	<path class="st11" d="M174.701,111.2c0,1.397-1.301,2.5-2,2.5c-0.701,0-1.201-1.103-1.201-2.5c0-1.4,0.5-2.5,1.201-2.5
		C173.4,108.7,174.701,109.8,174.701,111.2"/>
	<path class="st11" d="M156.1,111.2c0,1.397,1.301,2.5,2,2.5c0.701,0,1.201-1.103,1.201-2.5c0-1.4-0.5-2.5-1.201-2.5
		C157.4,108.7,156.1,109.8,156.1,111.2"/>
	<rect x="157.9" y="106.5" class="st11" width="5.1" height="9.396"/>
	
		<rect x="157.911" y="100.212" transform="matrix(-0.9848 0.1739 -0.1739 -0.9848 334.0413 172.5575)" class="st11" width="3.1" height="1.4"/>
	<polygon class="st11" points="155.6,74.601 154,74.899 157.201,100.601 161.4,99.8 	"/>
	
		<rect x="158.447" y="105.568" transform="matrix(-0.9849 0.1732 -0.1732 -0.9849 336.806 183.442)" class="st11" width="3.901" height="1.702"/>
	<path class="st11" d="M161.5,105.5l-2.5,0.396c-1.196,0.201-2.396-0.601-2.6-1.799v-0.2c-0.199-1.197,0.6-2.397,1.801-2.599
		l2.5-0.399c1.199-0.196,2.398,0.604,2.603,1.804v0.196C163.6,104.2,162.801,105.3,161.5,105.5"/>
	
		<rect x="153.391" y="74.163" transform="matrix(-0.985 0.1727 -0.1727 -0.985 320.0368 121.2775)" class="st11" width="2.703" height="0.798"/>
	
		<rect x="152.638" y="74.108" transform="matrix(0.9848 -0.1735 0.1735 0.9848 -10.6758 27.6893)" class="st11" width="0.799" height="1.599"/>
	
		<rect x="169.742" y="100.198" transform="matrix(-0.9848 -0.1736 0.1736 -0.9848 322.4679 229.9982)" class="st11" width="3.1" height="1.4"/>
	<polygon class="st11" points="176.701,74.899 175.201,74.601 169.301,99.8 173.6,100.601 	"/>
	
		<rect x="168.343" y="105.672" transform="matrix(-0.9848 -0.1738 0.1738 -0.9848 319.4789 241.0208)" class="st11" width="3.899" height="1.7"/>
	<path class="st11" d="M171.801,106l-2.5-0.398c-1.201-0.201-2-1.397-1.804-2.602v-0.2c0.199-1.198,1.398-2,2.603-1.8l2.5,0.396
		c1.201,0.201,2,1.399,1.801,2.604v0.2C174.1,105.399,173,106.2,171.801,106"/>
	
		<rect x="174.696" y="74.193" transform="matrix(0.9847 0.1741 -0.1741 0.9847 15.6723 -29.5062)" class="st11" width="2.698" height="0.798"/>
	
		<rect x="177.269" y="74.072" transform="matrix(-0.9849 -0.1731 0.1731 -0.9849 339.6986 179.3659)" class="st11" width="0.801" height="1.599"/>
	<rect x="167.701" y="106.5" class="st11" width="5.103" height="9.396"/>
	<path class="st7" d="M152.801,74.101c0.5-3.102-1.5-4.102-6.201-3.102"/>
	<path class="st7" d="M177.801,74.101c-0.104-10.802-23-5.897-31.604-3.701"/>
</g>
<g id="mini-control-center">
	<rect x="4" y="4" class="st17" width="179" height="132.8"/>
	<rect x="30.9" y="56.199" class="st23" width="100" height="70.201"/>
	<path class="st11" d="M129.4,124.8h-97V57.601h97V124.8z M132.4,54.699h-3h-97h-3v3V124.9v3h3h97h3v-3V57.699V54.699z"/>
	<rect x="27.1" y="55.199" class="st23" width="107.5" height="8.5"/>
	<path class="st11" d="M133.1,62.1H28.6v-5.5h104.5V62.1z M136.1,53.699h-3H28.6h-3v3v5.5v3h3h104.5h3v-3v-5.5V53.699z"/>
	
		<rect x="117.463" y="46.051" transform="matrix(-0.6031 -0.7976 0.7976 -0.6031 154.9435 170.5977)" class="st11" width="4.9" height="1.401"/>
	
		<rect x="117.463" y="46.051" transform="matrix(-0.6031 -0.7976 0.7976 -0.6031 154.9435 170.5977)" class="st7" width="4.9" height="1.401"/>
	
		<rect x="113.618" y="50.91" transform="matrix(0.9541 -0.2993 0.2993 0.9541 -10.1663 37.4532)" class="st11" width="7.099" height="2"/>
	
		<rect x="113.618" y="50.91" transform="matrix(0.9541 -0.2993 0.2993 0.9541 -10.1663 37.4532)" class="st7" width="7.099" height="2"/>
	<path class="st11" d="M120.301,44.6c-0.397,1.301-1.801,2.1-3.102,1.699c-1.299-0.399-2.103-1.8-1.699-3.104
		c0.4-1.299,1.801-2.1,3.1-1.696C120,41.9,120.699,43.3,120.301,44.6"/>
	<circle class="st7" cx="117.9" cy="43.9" r="2.5"/>
	<path class="st11" d="M123.4,48.6c1,1,1,2.6,0,3.6s-2.604,1-3.604,0s-1-2.6,0-3.6C120.9,47.6,122.5,47.6,123.4,48.6"/>
	<circle class="st7" cx="121.699" cy="50.3" r="2.5"/>
	<path class="st11" d="M115.1,53.4c0,1.898-1.6,3.5-3.5,3.5c-1.896,0-3.5-1.602-3.5-3.5c0-1.897,1.604-3.5,3.5-3.5
		C113.5,49.9,115.1,51.5,115.1,53.4"/>
	<circle class="st7" cx="111.6" cy="53.4" r="3.5"/>
	<rect x="33.4" y="58.699" class="st23" width="95" height="65.201"/>
	<path class="st20" d="M127.4,122.8h-93V59.601h93V122.8z M129.4,57.699h-97V124.9h97V57.699z"/>
	<rect x="29.6" y="57.699" class="st23" width="102.5" height="3.5"/>
	<path class="st20" d="M131.1,60.1H30.6v-1.5h100.5V60.1z M133.1,56.699H28.6v5.5h104.5V56.699z"/>
	<line class="st17" x1="128.199" y1="117.699" x2="33.5" y2="117.699"/>
	<line class="st19" x1="128.199" y1="117.699" x2="33.5" y2="117.699"/>
	<path class="st11" d="M108.801,20.8c-2.5,2.5,1.299,13.2,10.299,22.102C128,51.8,138.801,55.601,141.202,53.2"/>
	<path class="st7" d="M108.801,20.8c-2.5,2.5,1.299,13.2,10.299,22.102C128,51.8,138.801,55.601,141.202,53.2"/>
	
		<ellipse transform="matrix(0.7071 -0.7071 0.7071 0.7071 10.4439 99.2217)" class="st7" cx="124.993" cy="37.004" rx="1.8" ry="22.899"/>
	<polyline class="st7" points="118.4,33 133.9,28.1 128.9,43.5 	"/>
	<polyline class="st7" points="108.801,20.8 133.9,28.1 141.199,53.199 	"/>
	
		<rect x="132.658" y="26.932" transform="matrix(-0.7071 -0.7071 0.7071 -0.7071 209.1017 142.476)" class="st11" width="2.801" height="2"/>
	
		<rect x="132.658" y="26.932" transform="matrix(-0.7071 -0.7071 0.7071 -0.7071 209.1017 142.476)" class="st7" width="2.801" height="2"/>
	<rect x="80.1" y="68.199" class="st14" width="5.701" height="11"/>
	<path class="st20" d="M84.9,78.199h-3.701v-9H84.9V78.199z M86.9,67.199h-2h-3.701h-2v2v9v2h2H84.9h2v-2v-9V67.199z"/>
	<rect x="60.4" y="68.199" class="st14" width="5.696" height="11"/>
	<path class="st20" d="M65.199,78.199H61.5v-9h3.699V78.199z M67.199,67.199h-2H61.5h-2v2v9v2h2h3.699h2v-2v-9V67.199z"/>
	<rect x="70.301" y="68.199" class="st14" width="5.699" height="11"/>
	<path class="st20" d="M75,78.199h-3.699v-9H75V78.199L75,78.199z M77,67.199h-2h-3.699h-2v2v9v2h2H75h2v-2v-9V67.199L77,67.199z"/>
	<rect x="40.801" y="68.199" class="st14" width="5.699" height="11"/>
	<path class="st20" d="M45.5,78.199h-3.699v-9H45.5V78.199L45.5,78.199z M47.5,67.199h-2h-3.699h-2v2v9v2h2H45.5h2v-2v-9V67.199
		L47.5,67.199z"/>
	<rect x="50.6" y="68.199" class="st14" width="5.701" height="11"/>
	<path class="st20" d="M55.301,78.199H51.6v-9h3.701V78.199z M57.301,67.199h-2H51.6h-2v2v9v2h2h3.701h2v-2v-9V67.199z"/>
	<rect x="80.1" y="82.4" class="st14" width="5.701" height="11"/>
	<path class="st20" d="M84.9,92.3h-3.701v-9H84.9V92.3z M86.9,81.4h-2h-3.701h-2v2v9v2h2H84.9h2v-2v-9V81.4z"/>
	<rect x="60.4" y="82.4" class="st14" width="5.696" height="11"/>
	<path class="st20" d="M65.199,92.3H61.5v-9h3.699V92.3z M67.199,81.4h-2H61.5h-2v2v9v2h2h3.699h2v-2v-9V81.4z"/>
	<rect x="70.301" y="82.4" class="st14" width="5.699" height="11"/>
	<path class="st20" d="M75,92.3h-3.699v-9H75V92.3L75,92.3z M77,81.4h-2h-3.699h-2v2v9v2h2H75h2v-2v-9V81.4L77,81.4z"/>
	<rect x="40.801" y="82.4" class="st14" width="5.699" height="11"/>
	<path class="st20" d="M45.5,92.3h-3.699v-9H45.5V92.3L45.5,92.3z M47.5,81.4h-2h-3.699h-2v2v9v2h2H45.5h2v-2v-9V81.4L47.5,81.4z"/>
	<rect x="50.6" y="82.4" class="st14" width="5.701" height="11"/>
	<path class="st20" d="M55.301,92.3H51.6v-9h3.701V92.3z M57.301,81.4h-2H51.6h-2v2v9v2h2h3.701h2v-2v-9V81.4z"/>
	<path class="st11" d="M144,114.3l-0.699,0.301c-2.5,1.199-5.602,0.1-6.801-2.5c-1.199-2.5-0.1-5.601,2.5-6.801l0.699-0.3L144,114.3
		z"/>
	
		<rect x="142.239" y="104.955" transform="matrix(-0.9074 0.4203 -0.4203 -0.9074 322.674 145.2097)" class="st11" width="6.199" height="6.401"/>
	<polygon class="st11" points="149.199,110.8 169.9,105.5 163.4,91.5 146,103.9 	"/>
	
		<rect x="176.537" y="89.601" transform="matrix(-0.9072 0.4207 -0.4207 -0.9072 381.1263 100.4411)" class="st11" width="5.899" height="5.302"/>
	<polygon class="st11" points="183.199,93.5 184.6,92.3 182.801,88.4 181,88.6 	"/>
	
		<rect x="166.339" y="87.523" transform="matrix(-0.9074 0.4203 -0.4203 -0.9074 362.7984 114.8989)" class="st11" width="4.8" height="19.801"/>
	
		<rect x="175.884" y="90.344" transform="matrix(-0.9073 0.4205 -0.4205 -0.9073 376.6063 104.0671)" class="st11" width="1.898" height="6.402"/>
	<polygon class="st11" points="175.301,103.4 177.1,98.199 173.4,90.3 168.301,88.3 	"/>
	
		<rect x="156.909" y="111.624" transform="matrix(-0.5463 -0.8376 0.8376 -0.5463 153.0506 307.8567)" class="st11" width="6" height="1.7"/>
	
		<rect x="152.227" y="117.123" transform="matrix(0.9541 -0.2994 0.2994 0.9541 -28.2532 52.3164)" class="st11" width="8.798" height="2.498"/>
	<path class="st11" d="M160.801,109.699c-0.602,1.604-2.397,2.4-4,1.804c-1.602-0.603-2.397-2.399-1.801-4
		c0.6-1.603,2.4-2.399,4-1.804C160.6,106.3,161.4,108.1,160.801,109.699"/>
	<path class="st11" d="M164.6,114.3c1.201,1.2,1.201,3.2,0,4.396c-1.196,1.201-3.196,1.201-4.396,0
		c-1.201-1.196-1.201-3.196,0-4.396C161.4,113,163.4,113,164.6,114.3"/>
	<path class="st11" d="M154.301,120.199c0,2.4-1.897,4.304-4.301,4.304c-2.4,0-4.301-1.899-4.301-4.304
		c0-2.396,1.897-4.299,4.301-4.299S154.301,117.9,154.301,120.199"/>
	<rect x="131.6" y="121.8" class="st11" width="39" height="6"/>
</g>
<g id="btn-lightning">
	<path class="st14" d="M4,51.002l59,12l60-12l-3-2.459L63.005,59.941L7,48.55L4,51.002z M7,18.452L62.979,7.066L120,19.42l3-2.42
		L63,4l0,0L4,16L7,18.452z"/>
	<path class="st14" d="M32.495,50.604c9.364-3.825,19.271-6.614,29.528-8.252c-1.823,1.227-3.6,2.491-5.326,3.787
		c7.283-1.253,14.734-1.91,22.277-1.934c-2.351,0.923-4.647,1.907-6.893,2.948c7.482,0.609,14.921,1.855,22.223,3.731
		c-11.213-1.329-22.346-1.171-33.122,0.346c1.834-1.153,3.716-2.266,5.646-3.336c-6.845,0.652-13.564,1.838-20.106,3.528
		c1.77-1.565,3.602-3.093,5.498-4.582C45.563,47.595,38.97,48.853,32.495,50.604z"/>
</g>
<g id="quiz-header">
	<line class="st4" x1="4" y1="34" x2="281" y2="34"/>
	<line class="st4" x1="361.001" y1="34" x2="638.001" y2="34"/>
	<polygon class="st12" points="334.838,52.221 323,58.366 300.5,46.686 300.5,21.313 307.811,17.518 304.164,13.777 295.5,18.275 
		295.5,49.724 323,64 339.714,55.325 	"/>
	<polygon class="st12" points="323,4 310.304,10.591 315.244,13.66 323,9.633 345.5,21.313 345.5,46.686 341.856,48.578 
		345.636,52.25 350.5,49.724 350.5,18.275 	"/>
	<polygon class="st11" points="303,9 328.828,25.037 320.912,25.033 342.43,43.422 333.1,43.556 346.811,56.878 319.273,39.354 
		329.622,39.166 306.623,21.461 314.893,21.204 	"/>
</g>
<g id="quiz-answer-bg">
	<polygon id="_x3E_bg" class="st20" points="5.5,308.111 5.5,29.889 103.999,5.545 202.094,29.888 202.498,308.112 104,332.455 	"/>
	<path id="_x3E_outline" class="st23" d="M103.999,7.091l96.597,23.97l0.401,275.881L104,330.913L7,306.938V31.062L103.999,7.091
		 M104,4L4,28.715v280.571L104,334l100-24.714l-0.408-280.571L104,4L104,4z"/>
	<path id="_x3E_lightning_1_" class="st23" d="M68.194,285.052c10.85-4.433,22.324-7.663,34.212-9.562
		c-2.113,1.421-4.171,2.885-6.169,4.389c8.438-1.453,17.07-2.215,25.812-2.241c-2.725,1.068-5.387,2.21-7.985,3.417
		c8.673,0.705,17.286,2.147,25.747,4.321c-12.992-1.538-25.893-1.354-38.377,0.4c2.126-1.335,4.306-2.624,6.541-3.864
		c-7.928,0.755-15.719,2.129-23.3,4.087c2.05-1.812,4.175-3.584,6.371-5.308C83.334,281.566,75.696,283.021,68.194,285.052z"/>
	<path id="_x3E_lightning" class="st23" d="M68.194,54.061c10.85-4.432,22.324-7.659,34.212-9.562
		c-2.113,1.423-4.171,2.886-6.169,4.389c8.438-1.452,17.07-2.214,25.812-2.238c-2.725,1.067-5.387,2.211-7.985,3.417
		c8.673,0.703,17.286,2.146,25.747,4.319c-12.992-1.538-25.893-1.354-38.377,0.399c2.126-1.335,4.306-2.624,6.541-3.864
		c-7.928,0.757-15.719,2.131-23.3,4.088c2.05-1.812,4.175-3.584,6.371-5.309C83.334,50.576,75.696,52.031,68.194,54.061z"/>
	<line id="_x3E_line" class="st22" x1="32.5" y1="95.5" x2="175.5" y2="95.5"/>
	<line id="_x3E_line_1_" class="st22" x1="32.5" y1="232.5" x2="175.5" y2="232.5"/>
</g>
<g id="next-question">
	<polygon class="st13" points="148.999,41.446 4,41.446 4,4 148.999,4 156.007,23.473 	"/>
</g>
<g id="btn-got-it">
	<path class="st11" d="M4,37.484c10.945-4.513,22.522-7.805,34.517-9.737c-2.134,1.447-4.207,2.938-6.226,4.469
		c8.514-1.479,17.224-2.255,26.039-2.282c-2.75,1.089-5.436,2.251-8.057,3.479c8.749,0.719,17.438,2.188,25.975,4.402
		c-13.105-1.566-26.119-1.381-38.716,0.408c2.146-1.36,4.344-2.673,6.6-3.937c-7.997,0.77-15.856,2.169-23.506,4.163
		c2.067-1.847,4.211-3.65,6.429-5.406C19.274,33.935,11.568,35.418,4,37.484z"/>
	<path class="st14" d="M26.764,10.141c-0.32,2.88-0.62,4.041-1.32,5.201c-0.96,1.621-2.26,2.441-3.841,2.441
		c-2.42,0-3.94-2.021-3.94-5.221c0-2.081,0.521-4.321,1.341-5.781C20.023,4.961,21.523,4,23.283,4c1.9,0,3.16,1.14,3.501,3.181
		l-2.66,1c-0.021-0.68-0.061-0.86-0.16-1.161c-0.141-0.44-0.5-0.68-0.979-0.68c-0.641,0-1.16,0.44-1.581,1.32
		c-0.6,1.28-0.979,3.241-0.979,5.062c0,1.78,0.521,2.68,1.54,2.68c1.021,0,1.643-0.92,1.922-2.9h-1.643l0.28-2.36L26.764,10.141
		L26.764,10.141z"/>
	<path class="st14" d="M29.642,14.022c0-1.201,0.318-2.541,0.84-3.541c0.681-1.32,1.801-2.041,3.143-2.041
		c1.802,0,2.819,1.22,2.819,3.421c0,3.581-1.561,5.881-3.961,5.881C30.621,17.742,29.642,16.442,29.642,14.022z M33.923,12.061
		c0-0.92-0.198-1.38-0.578-1.38c-0.66,0-1.224,1.58-1.224,3.4c0,0.9,0.224,1.42,0.62,1.42
		C33.402,15.502,33.923,13.941,33.923,12.061z"/>
	<path class="st14" d="M40.241,10.681h-0.84l0.261-2.061h0.841l0.302-2.46h2.461l-0.303,2.46h1.001l-0.238,2.061h-1l-0.86,6.881
		h-2.461L40.241,10.681z"/>
	<path class="st14" d="M52.501,8.62h2.461l-1.102,8.942h-2.461L52.501,8.62z M52.541,6.16c0-0.96,0.84-1.78,1.779-1.78
		c0.761,0,1.36,0.6,1.36,1.38c0,0.96-0.82,1.801-1.78,1.801C53.121,7.56,52.541,6.96,52.541,6.16z"/>
	<path class="st14" d="M58.541,10.681H57.7l0.261-2.061h0.843l0.3-2.46h2.461l-0.301,2.46h1.001l-0.24,2.061h-1l-0.859,6.881h-2.462
		L58.541,10.681z"/>
	<path class="st14" d="M66.441,14.421c0.82,0,1.46,0.64,1.46,1.46c0,1.02-0.88,1.9-1.899,1.9c-0.841,0-1.46-0.64-1.46-1.48
		C64.541,15.302,65.421,14.421,66.441,14.421z M66.401,4.219h2.562l-1.142,9.342h-2.58L66.401,4.219z"/>
</g>
<g id="btn-continue">
	<path class="st15" d="M53.56,7.064l47.439,10.121v22.418l-47.415,9.339L6.999,39.611V16.391L53.56,7.064 M53.578,4L4,13.933v28.139
		l49.578,9.931L104,42.071V14.761L53.578,4L53.578,4z"/>
	<path class="st15" d="M22.882,27.127c-1.135,0.379-1.513,0.463-2.171,0.463c-1.373,0-2.787-0.615-3.74-1.625
		c-0.799-0.854-1.232-1.976-1.232-3.223c0-2.759,2.188-4.943,4.944-4.943c0.729,0,1.317,0.127,2.199,0.478v2.899
		c-0.574-0.688-1.261-1.022-2.103-1.022c-1.457,0-2.508,1.077-2.508,2.577c0,0.798,0.268,1.429,0.826,1.891
		c0.477,0.394,1.062,0.616,1.682,0.616c0.798,0,1.473-0.308,2.103-0.979V27.127L22.882,27.127z"/>
	<path class="st15" d="M26.84,18.893c0.883-0.744,2.115-1.178,3.418-1.178c1.556,0,2.83,0.521,3.824,1.567
		c0.867,0.911,1.346,2.115,1.346,3.418c0,1.472-0.646,2.857-1.752,3.796c-0.938,0.785-2.087,1.178-3.459,1.178
		c-2.941,0-5.127-2.156-5.127-5.07C25.09,21.217,25.735,19.83,26.84,18.893z M30.258,25.321c1.457,0,2.634-1.177,2.634-2.634
		c0-1.442-1.177-2.618-2.634-2.618c-1.442,0-2.633,1.176-2.633,2.591C27.625,24.145,28.787,25.321,30.258,25.321z"/>
	<path class="st15" d="M38.04,17.995h2.423l4.469,5.716v-5.716h2.424v9.344h-2.424l-4.469-5.716v5.716H38.04V17.995z"/>
	<path class="st15" d="M51.383,20.055h-1.977v-2.061h6.415v2.061h-2.017v7.283H51.38L51.383,20.055L51.383,20.055z"/>
	<path class="st15" d="M57.892,17.995h2.424v9.344h-2.424V17.995z"/>
	<path class="st15" d="M63.45,17.995h2.426l4.468,5.716v-5.716h2.424v9.344h-2.424l-4.468-5.716v5.716H63.45V17.995z"/>
	<path class="st15" d="M83.838,23.389c0,1.373-0.238,2.114-0.911,2.871c-0.771,0.867-1.862,1.315-3.222,1.315
		c-1.431,0-2.689-0.532-3.333-1.399c-0.49-0.658-0.675-1.414-0.675-2.787v-5.395h2.426v5.059c0,1.062,0.025,1.272,0.266,1.666
		c0.267,0.447,0.771,0.715,1.357,0.715c0.616,0,1.163-0.295,1.415-0.756c0.21-0.365,0.253-0.646,0.253-1.625v-5.059h2.424V23.389
		L83.838,23.389z"/>
	<path class="st15" d="M86.774,17.995h5.311v2.061h-2.887v1.555h2.731v2.061h-2.731v1.609h2.887v2.061h-5.311V17.995z"/>
	<path class="st15" d="M23.785,39.592c9.118-3.726,18.764-6.439,28.75-8.035c-1.774,1.193-3.505,2.426-5.185,3.688
		c7.09-1.222,14.346-1.859,21.689-1.883c-2.289,0.897-4.526,1.856-6.71,2.87c7.286,0.594,14.524,1.807,21.636,3.633
		c-10.918-1.293-21.757-1.141-32.248,0.337c1.785-1.122,3.617-2.205,5.496-3.248c-6.662,0.636-13.21,1.79-19.58,3.436
		c1.723-1.522,3.508-3.012,5.354-4.459C36.509,36.663,30.089,37.887,23.785,39.592z"/>
</g>
<g id="perfect-answer">
	<g id="XMLID_2433_">
		<polygon class="st20" points="18.725,36.129 4,28.485 4,11.644 18.725,4 33.451,11.644 33.451,28.485 		"/>
	</g>
	<polygon class="st15" points="18.725,7.843 21.697,15.764 29.715,16.239 23.533,21.707 25.516,29.821 18.725,25.381 11.934,29.821 
		13.916,21.707 7.735,16.239 15.754,15.764 	"/>
</g>
<g id="quiz-btn">
	<g id="_x3E_bg_1_">
		<polygon class="st20" points="4,50 63,62 123,50 123,17 63,4 4,16 		"/>
	</g>
	<path class="st14" d="M27.545,46.795c10.853-4.434,22.326-7.664,34.213-9.562c-2.112,1.422-4.17,2.885-6.169,4.387
		c8.438-1.451,17.07-2.213,25.811-2.238c-2.724,1.068-5.388,2.209-7.983,3.416c8.672,0.705,17.284,2.148,25.746,4.322
		c-12.992-1.539-25.893-1.355-38.375,0.4c2.125-1.336,4.305-2.625,6.541-3.865c-7.931,0.756-15.721,2.129-23.302,4.088
		c2.052-1.812,4.174-3.584,6.371-5.309C42.686,43.309,35.047,44.766,27.545,46.795z"/>
</g>
<g id="btn-generic">
	<path class="st14" d="M4,51.002l59,12l60-12V17L63,4l0,0L4,16V51.002z M7,18.451L62.979,7.065L120,19.419v29.123L63.005,59.94
		L7,48.549V18.451z"/>
	<path class="st14" d="M32.495,50.604c9.365-3.825,19.271-6.614,29.529-8.252c-1.824,1.227-3.6,2.491-5.326,3.787
		c7.283-1.253,14.734-1.91,22.277-1.934c-2.351,0.923-4.648,1.907-6.893,2.948c7.483,0.609,14.921,1.855,22.223,3.731
		c-11.213-1.329-22.346-1.171-33.122,0.346c1.834-1.153,3.716-2.266,5.646-3.336c-6.844,0.652-13.564,1.838-20.106,3.528
		c1.769-1.565,3.602-3.093,5.498-4.582C45.563,47.594,38.97,48.852,32.495,50.604z"/>
</g>
<g id="speaker">
	<path class="st1" d="M32.61,58.493c10.218-2.746,17.732-11.951,17.732-22.892c0-10.941-7.515-20.146-17.732-22.891"/>
	<path class="st1" d="M40.538,67.202c14.2-4.416,24.44-16.891,24.44-31.601c0-14.71-10.24-27.185-24.44-31.601"/>
	<path class="st1" d="M28.11,47.821c5.122-2.226,8.655-6.85,8.655-12.219c0-5.371-3.533-9.996-8.655-12.221"/>
	<polygon class="st14" points="12.774,44.639 12.774,26.563 20.401,21.772 20.401,49.43 	"/>
	<rect x="4" y="26.563" class="st14" width="11.273" height="18.075"/>
</g>
<g id="no-phone">
	<path class="st14" d="M71.691,85.5H35.309V21.501h36.382V85.5z M71.886,18.501H35.115c-1.55,0-2.807,1.256-2.807,2.806v64.388
		c0,1.549,1.257,2.806,2.807,2.806h36.771c1.55,0,2.806-1.257,2.806-2.806V21.307C74.691,19.757,73.435,18.501,71.886,18.501"/>
	<path class="st14" d="M64.94,71.566H42.059V27.935h22.882L64.94,71.566L64.94,71.566z M66.587,24.935H40.414
		c-0.748,0-1.354,0.605-1.354,1.354v46.922c0,0.748,0.606,1.355,1.354,1.355h26.173c0.748,0,1.354-0.607,1.354-1.355V26.288
		C67.94,25.54,67.335,24.935,66.587,24.935"/>
	<circle class="st2" cx="53.5" cy="53.5" r="49.5"/>
	<line class="st2" x1="87.5" y1="19.5" x2="19.5" y2="87.5"/>
	<line class="st1" x1="48.5" y1="79.719" x2="58.5" y2="79.719"/>
</g>
<g id="duty">
	<path class="st23" d="M24,8.515l16,8.375V35.11l-16,8.375L8,35.11V16.89L24,8.515 M24,4L4,14.469v23.062L24,48l20-10.469V14.469
		L24,4L24,4z"/>
</g>
<g id="duty-active">
	<path class="st11" d="M24,8.515l16,8.375V35.11l-16,8.375L8,35.11V16.89L24,8.515 M24,4L4,14.469v23.062L24,48l20-10.469V14.469
		L24,4L24,4z"/>
	<polygon class="st14" points="24,40.5 11.275,33.601 11.275,18.399 24,11.5 36.725,18.399 36.725,33.601 	"/>
</g>
<g id="duty-complete">
	<polygon class="st30" points="29.197,17.963 34.619,21.318 28.237,21.314 27.411,21.314 36.727,29.252 36.727,18.399 24,11.5 
		21.205,13.016 	"/>
	<polygon class="st30" points="20.313,31.411 15.219,28.18 21.256,28.07 23.596,28.027 11.272,18.57 11.272,33.601 24,40.5 
		29.737,37.39 	"/>
	<polygon class="st5" points="32.608,39.363 24,43.869 7.637,35.304 7.637,16.696 12.953,13.914 10.302,11.17 4,14.469 4,37.531 
		24,48 36.154,41.639 	"/>
	<polygon class="st5" points="24,4 14.766,8.834 18.359,11.084 24,8.131 40.363,16.696 40.363,35.304 37.713,36.691 40.461,39.384 
		44,37.531 44,14.469 	"/>
	<polygon class="st14" points="9.454,7.667 28.238,19.428 22.482,19.424 38.131,32.91 31.345,33.008 41.316,42.777 21.289,29.927 
		28.816,29.789 12.09,16.806 18.103,16.616 	"/>
</g>
<g id="btn-acknowledge">
	<polygon id="_x3E_bg_2_" class="st23" points="5.5,55.053 5.5,18.947 95.22,5.518 186.5,20.073 186.5,55.049 95.229,68.483 	"/>
	<path id="_x3E_outline_1_" class="st20" d="M95.212,7.036L185,21.353v32.401L95.23,66.967L7,53.76V20.24L95.212,7.036 M95.227,4
		L4,17.655v38.689L95.227,70L188,56.345V18.793L95.227,4L95.227,4z"/>
	<path id="_x3E_lightning_2_" class="st14" d="M60.192,50.794c10.851-4.432,22.326-7.663,34.213-9.562
		c-2.113,1.422-4.17,2.886-6.169,4.388c8.437-1.452,17.07-2.213,25.811-2.24c-2.725,1.069-5.388,2.21-7.985,3.416
		c8.673,0.706,17.286,2.149,25.746,4.323c-12.991-1.539-25.891-1.356-38.375,0.4c2.125-1.336,4.305-2.625,6.54-3.865
		c-7.928,0.756-15.719,2.13-23.3,4.088c2.05-1.813,4.175-3.584,6.371-5.309C75.334,47.309,67.695,48.765,60.192,50.794z"/>
</g>
<g id="chapter-bracket">
	<polyline class="st8" points="4,104.992 27,104.992 27,4 4,4 	"/>
</g>
</svg>
