<?xml version="1.0" encoding="utf-8"?>
<!-- Generator: Adobe Illustrator 15.0.0, SVG Export Plug-In . SVG Version: 6.00 Build 0)  -->
<!DOCTYPE svg PUBLIC "-//W3C//DTD SVG 1.1//EN" "http://www.w3.org/Graphics/SVG/1.1/DTD/svg11.dtd">
<svg version="1.1" id="Layer_1" xmlns="http://www.w3.org/2000/svg" xmlns:xlink="http://www.w3.org/1999/xlink" x="0px" y="0px"
	 width="725px" height="612px" viewBox="0 0 725 612" style="enable-background:new 0 0 725 612;" xml:space="preserve">
<style type="text/css">
<![CDATA[
	.st0{fill:#E03F07;}
	.st1{clip-path:url(#SVGID_6_);fill:none;stroke:#F9773E;stroke-miterlimit:10;}
	.st2{clip-path:url(#SVGID_16_);fill:none;stroke:#F9773E;stroke-miterlimit:10;}
	.st3{fill:#53848C;}
	.st4{fill:none;stroke:#FFFFFF;stroke-width:6;stroke-miterlimit:10;}
	.st5{fill:none;stroke:#F9773E;stroke-miterlimit:10;}
	.st6{fill:none;stroke:#FFFFFF;stroke-width:3;stroke-linecap:square;stroke-miterlimit:10;}
	.st7{clip-path:url(#SVGID_14_);fill:none;stroke:#F9773E;stroke-miterlimit:10;}
	.st8{fill:#F9773E;}
	.st9{opacity:0.5;fill:#6B989F;enable-background:new    ;}
	.st10{opacity:0.75;fill:#FFB81A;enable-background:new    ;}
	.st11{fill:#FFB81A;}
	.st12{fill:#FFFFFF;}
	.st13{clip-path:url(#SVGID_12_);fill:none;stroke:#F9773E;stroke-miterlimit:10;}
	.st14{fill:none;}
	.st15{clip-path:url(#SVGID_2_);fill:#F9773E;}
	.st16{fill:none;stroke:#335E6E;stroke-width:2;stroke-miterlimit:10;}
	.st17{fill:#335E6E;}
	.st18{fill:#345D6E;}
	.st19{fill:#6B989F;}
	.st20{fill:none;stroke:#FFFFFF;stroke-width:1.4167;stroke-miterlimit:10;}
	.st21{clip-path:url(#SVGID_4_);fill:none;stroke:#F9773E;stroke-width:2;stroke-miterlimit:10;}
	.st22{fill:none;stroke:#F9773E;stroke-width:2;stroke-miterlimit:10;}
	.st23{clip-path:url(#SVGID_10_);fill:none;stroke:#F9773E;stroke-miterlimit:10;}
	.st24{fill:none;stroke:#FFB81A;stroke-width:2.9184;stroke-miterlimit:10;}
	.st25{clip-path:url(#SVGID_8_);fill:none;stroke:#F9773E;stroke-miterlimit:10;}
	.st26{fill:#71A8A8;}
	.st27{fill:#FFFFFF;stroke:#231F20;stroke-miterlimit:10;}
	.st28{fill:none;stroke:#FFFFFF;stroke-width:3;stroke-miterlimit:10;}
	.st29{clip-path:url(#SVGID_20_);fill:none;stroke:#F9773E;stroke-miterlimit:10;}
	.st30{clip-path:url(#SVGID_18_);fill:none;stroke:#F9773E;stroke-miterlimit:10;}
	.st31{fill:none;stroke:#FFFFFF;stroke-width:1.4167;stroke-linecap:round;stroke-miterlimit:10;}
	.st32{fill:none;stroke:#FFFFFF;stroke-width:1.4167;stroke-miterlimit:1;}
]]>
</style>
<symbol  id="New_Symbol" viewBox="-10.3 -10.3 20.6 20.6">
	<polygon class="st27" points="9.8,-9.8 -9.8,-9.8 -9.8,9.8 9.8,9.8 	"/>
</symbol>
<g id="first">
	
		<use xlink:href="#New_Symbol"  width="20.6" height="20.6" x="-10.3" y="-10.3" transform="matrix(0.7046 0 0 -0.7046 11.2573 11.2573)" style="overflow:visible;"/>
</g>
<g id="ep4-badge">
	<g id="_x3E_white_3_">
		<path id="XMLID_93_" class="st28" d="M15.6,22.2h3.2c3.5,0,3.2-4.2,3.2-4.2H10.899v7.1l7.2,2"/>
		<polyline id="XMLID_92_" class="st28" points="16.199,22.2 25.6,22.2 25.6,13.5 10.8,13.5 10.8,19.4 		"/>
		<line id="XMLID_91_" class="st28" x1="21.899" y1="22.2" x2="21.899" y2="13.5"/>
		<line id="XMLID_90_" class="st28" x1="23.6" y1="27" x2="23.6" y2="22.4"/>
		<line id="XMLID_89_" class="st28" x1="18.199" y1="17.6" x2="18.199" y2="13.5"/>
		<line id="XMLID_88_" class="st28" x1="14.5" y1="17.6" x2="14.5" y2="13.5"/>
	</g>
	<g id="XMLID_94_">
		<path class="st11" d="M18.199,6.4l12,6.3v13.7l-12,6.3l-12-6.3V12.7L18.199,6.4 M18.199,4L4,11.4v16.4l14.199,7.4l14.2-7.4V11.4
			L18.199,4L18.199,4z"/>
	</g>
</g>
<g id="ep3-badge">
	<g id="_x3E_white_2_">
		<polyline id="XMLID_74_" class="st6" points="8.5,14.4 18.2,9.3 27.9,14.4 27.9,19.3 18.2,24.4 		"/>
		<polyline id="XMLID_73_" class="st6" points="27.9,19 27.9,23.9 18.2,29 		"/>
		<line id="XMLID_72_" class="st28" x1="27.9" y1="24.3" x2="27.9" y2="28.7"/>
		<line id="XMLID_71_" class="st6" x1="27.4" y1="14.9" x2="18.2" y2="19.7"/>
	</g>
	<g>
		<g id="XMLID_69_">
			<g>
				<path class="st11" d="M6.2,14.9l9.9,5.2v11.5l-9.9-5.2V14.9 M4.1,11.4v16.4l14.2,7.4l0,0V18.8L4.1,11.4L4.1,11.4L4.1,11.4z"/>
			</g>
		</g>
		<path id="XMLID_68_" class="st11" d="M25.9,18.3c-0.1,0.4-0.4,0.7-0.8,0.7s-0.6-0.3-0.5-0.7s0.4-0.7,0.8-0.7
			C25.8,17.6,25.9,17.9,25.9,18.3z"/>
		<path id="XMLID_67_" class="st11" d="M25.9,22.9c-0.1,0.4-0.4,0.7-0.8,0.7s-0.6-0.3-0.5-0.7s0.4-0.7,0.8-0.7
			C25.8,22.2,25.9,22.5,25.9,22.9z"/>
		<path id="XMLID_66_" class="st11" d="M25.9,27.6c-0.1,0.4-0.4,0.7-0.8,0.7s-0.6-0.3-0.5-0.7c0.1-0.4,0.4-0.7,0.8-0.7
			C25.8,26.9,25.9,27.2,25.9,27.6z"/>
		<g id="XMLID_59_">
			<path class="st11" d="M18.2,6.4l12,6.3v13.7l-12,6.3l-12-6.3V12.7L18.2,6.4 M18.2,4L4,11.4v16.4l14.2,7.4l14.2-7.4V11.4L18.2,4
				L18.2,4z"/>
		</g>
	</g>
</g>
<g id="ep2-badge">
	<g id="_x3E_white_1_">
		<line id="XMLID_333_" class="st28" x1="26.6" y1="14.9" x2="19.6" y2="19"/>
		<line id="XMLID_332_" class="st28" x1="18.2" y1="29.2" x2="18.2" y2="21.1"/>
		<line id="XMLID_330_" class="st28" x1="16.7" y1="19" x2="9.7" y2="14.9"/>
		<polyline id="XMLID_329_" class="st28" points="24.7,26.3 18.2,29.7 11.6,26.3 		"/>
		<polyline id="XMLID_328_" class="st28" points="20.7,11 27.2,14.4 27.2,21.9 		"/>
		<polyline id="XMLID_327_" class="st28" points="9,21.9 9,14.4 15.5,11 		"/>
	</g>
	<g id="XMLID_335_">
		<path class="st11" d="M18.2,6.4l12,6.3v13.7l-12,6.3l-12-6.3V12.7L18.2,6.4 M18.2,4L4,11.4v16.4l14.2,7.4l14.2-7.4V11.4L18.2,4
			L18.2,4z"/>
	</g>
</g>
<g id="ep1-badge">
	<g id="_x3E_white">
		<polyline id="XMLID_108_" class="st28" points="11.1,15.6 15.1,19.5 11.1,23.6 		"/>
		<polyline id="XMLID_107_" class="st28" points="25.3,23.6 21.2,19.5 25.3,15.6 		"/>
		<polyline id="XMLID_105_" class="st28" points="22.2,12.5 18.2,16.5 14.2,12.5 		"/>
		<polyline id="XMLID_104_" class="st28" points="14.2,26.6 18.2,22.7 22.2,26.6 		"/>
		<line id="XMLID_102_" class="st28" x1="18.2" y1="15.3" x2="18.2" y2="6.1"/>
		<line id="XMLID_101_" class="st28" x1="18.2" y1="33" x2="18.2" y2="23.8"/>
		<line id="XMLID_100_" class="st28" x1="22.4" y1="19.5" x2="31.7" y2="19.5"/>
		<line id="XMLID_98_" class="st28" x1="5.5" y1="19.5" x2="14.7" y2="19.5"/>
	</g>
	<g id="XMLID_60_">
		<path class="st11" d="M18.2,6.4l12,6.3v13.7l-12,6.3l-12-6.3V12.7L18.2,6.4 M18.2,4L4,11.4v16.4l14.2,7.4l14.2-7.4V11.4L18.2,4
			L18.2,4z"/>
	</g>
</g>
<g id="rank-badge-cyber-cadet">
	<polygon class="st12" points="30.5,4 31.3,5.7 33,6 31.8,7.2 32.1,9 30.5,8.2 29,9 29.3,7.2 28.1,6 29.8,5.7 	"/>
	<polygon class="st12" points="6.5,4 7.2,5.7 8.9,6 7.7,7.2 8,9 6.5,8.2 5,9 5.3,7.2 4,6 5.8,5.7 	"/>
	<polygon class="st11" points="15.5,33.3 13.2,32.1 13,32.2 13,32 7.9,29.3 7.9,17 16.1,12.7 16.6,10.1 5.8,15.7 5.8,30.6 15,35.4 	
		"/>
	<polygon class="st11" points="20.5,10.1 20.9,12.7 29.1,17 29.1,29.3 22.1,33 21.3,35.9 31.2,30.6 31.2,15.7 	"/>
	<g>
		<polygon class="st12" points="19.2,33.3 16.4,35.3 18.5,26 15,28.8 17.1,16.1 20.6,16.1 19.2,21.7 22,19.6 19.6,29.6 22.2,27.6 
			17.7,43.1 		"/>
		<rect x="13.5" y="15.4" class="st12" width="9.9" height="1.4"/>
		<polygon class="st12" points="18.5,6.9 17.1,15.4 19.9,15.4 		"/>
		<g id="XMLID_45_">
			<g id="XMLID_157_">
				<g id="XMLID_185_">
					<g id="XMLID_229_">
						<polygon class="st12" points="18.5,5.5 17.1,6.3 17.1,8.2 18.5,9 19.9,8.2 19.9,6.3 						"/>
					</g>
				</g>
			</g>
		</g>
	</g>
</g>
<g id="rank-badge-technical-cadet">
	<polygon class="st11" points="20.699,11.1 21,13.3 27.699,13.3 27.699,29 21,33.6 20.699,36.5 29.8,30.1 29.8,11.1 	"/>
	<polygon class="st11" points="16,33.7 9.399,29.3 9.399,13.3 16,13.3 16.399,11.1 7.199,11.1 7.3,30.4 16.399,36.5 	"/>
	<g>
		<g>
			<g>
				<polygon class="st12" points="18.5,16.1 15.699,18.9 18.5,43 21.3,18.9 				"/>
			</g>
		</g>
		<rect x="13.5" y="15.4" class="st12" width="9.899" height="1.4"/>
		<polygon class="st12" points="18.5,6.9 17.1,15.4 19.899,15.4 		"/>
		<g id="XMLID_166_">
			<g id="XMLID_168_">
				<g id="XMLID_169_">
					<g id="XMLID_170_">
						<polygon class="st12" points="18.5,5.5 17.1,6.3 17.1,8.2 18.5,9 19.899,8.2 19.899,6.3 						"/>
					</g>
				</g>
			</g>
		</g>
	</g>
	<polygon class="st12" points="30.5,4 31.3,5.7 33,6 31.8,7.2 32.1,9 30.5,8.2 29,9 29.3,7.2 28,6 29.8,5.7 	"/>
	<polygon class="st12" points="6.5,4 7.199,5.7 8.899,6 7.699,7.2 8,9 6.5,8.2 5,9 5.3,7.2 4,6 5.699,5.7 	"/>
</g>
<g id="rank-badge-cadet-first-class">
	<g>
		<path class="st11" d="M27.7,13.3V29l-9.2,6.4l-9.1-6.2L9.3,13.2h18.4 M29.8,11.1H7.2l0.1,19.3L18.601,38l11.3-7.9v-19H29.8z"/>
	</g>
	<line class="st24" x1="7.8" y1="21" x2="29.2" y2="21"/>
	<polygon class="st12" points="30.5,4 31.3,5.7 33,6 31.8,7.2 32.101,9 30.5,8.2 29,9 29.3,7.2 28,6 29.8,5.7 	"/>
	<polygon class="st12" points="6.4,4 7.2,5.7 8.9,6 7.7,7.2 8,9 6.4,8.2 5,9 5.2,7.2 4,6 5.7,5.7 	"/>
</g>
<g id="rank-badge-cadet">
	<g>
		<path class="st11" d="M24.5,6.2v15.7l-9.199,6.4L6.2,22.1l-0.1-16H24.5 M26.7,4H4l0.101,19.3l11.3,7.6L26.7,23V4L26.7,4z"/>
	</g>
	<line class="st24" x1="4.7" y1="13.9" x2="26.101" y2="13.9"/>
</g>
<g id="rank-badge-recruit">
	<g>
		<path class="st11" d="M24.601,6.2v15.7l-9.2,6.4l-9.1-6.2L6.2,6.1h18.4 M26.7,4H4l0.101,19.3l11.3,7.6L26.7,23V4L26.7,4z"/>
	</g>
</g>
<g id="chapter-progress-chapter">
	<g id="XMLID_150_">
		<path class="st19" d="M9.7,6.4l3.5,1.9v4.1l-3.5,1.9l-3.5-1.9V8.3L9.7,6.4 M9.7,4L4,7v6.7l5.7,3l5.7-3V7L9.7,4L9.7,4z"/>
	</g>
</g>
<g id="chapter-progress-slide">
	<rect x="4" y="4" class="st19" width="6.4" height="6.4"/>
</g>
<g id="chapter-progress-test">
	<polygon class="st9" points="17.9,21.1 13.8,23.3 5.8,19.2 5.8,10.2 8.4,8.8 7,7.5 4,9.1 4,20.2 13.8,25.2 19.6,22.2 	"/>
	<polygon class="st9" points="13.8,4 9.2,6.3 11,7.5 13.8,6.1 21.7,10.2 21.7,19.2 20.4,19.8 21.8,21.1 23.5,20.2 23.5,9.1 	"/>
	<g>
		<polygon class="st8" points="6.7,5.8 15.8,11.5 13,11.4 20.6,18 17.3,18 22.2,22.8 12.4,16.5 16.1,16.5 8,10.2 10.9,10.1 		"/>
	</g>
</g>
<g id="chapter-progress-duties">
	<circle class="st19" cx="7.2" cy="7.2" r="3.2"/>
</g>
<g id="list-progress-base">
	<g id="hex-outer_1_">
		<g id="XMLID_1080_">
			<path class="st8" d="M18.2,7.2l11.3,5.9V26l-11.3,5.9L6.9,26V13.1L18.2,7.2 M18.2,4L4,11.4v16.4l14.2,7.4l14.2-7.4V11.4L18.2,4
				L18.2,4z"/>
		</g>
	</g>
	<g id="hex-inner_1_">
		<g id="XMLID_2384_">
			<polygon class="st11" points="18.2,29.9 9.1,25 9.1,14.1 18.2,9.2 27.2,14.1 27.2,24.9 			"/>
		</g>
	</g>
</g>
<g id="list-progress-complete">
	<g id="hex-inner">
		<g>
			<polygon class="st26" points="21.8,13.8 25.7,16.2 21.2,16.2 20.5,16.2 27.2,21.9 27.2,14.1 18.1,9.2 16.1,10.2 			"/>
		</g>
		<g>
			<polygon class="st26" points="15.5,23.5 11.9,21.1 16.1,21.1 17.8,21 9.1,14.3 9.1,25 18.1,29.9 22.2,27.7 			"/>
		</g>
	</g>
	<g id="hex-outer">
		<polygon class="st3" points="24,28.8 18.1,32 6.8,26 6.8,13.1 10.4,11.2 8.4,9.1 4,11.4 4,27.7 18.1,35.1 26.8,30.6 		"/>
		<polygon class="st3" points="18.1,4 11.5,7.4 14.4,9.2 18.1,7.2 29.5,13.1 29.5,26 27.7,26.9 29.9,29 32.3,27.7 32.3,11.4 		"/>
	</g>
	<g id="lightning_1_">
		<g id="lightning">
			<polygon class="st11" points="7.7,6.5 21.2,14.9 17.1,14.9 28.3,24.5 23.4,24.5 30.5,31.5 16.2,22.3 21.6,22.3 9.6,13.1 14,12.9 
							"/>
		</g>
	</g>
</g>
<g id="ctanlee">
	<circle class="st12" cx="21" cy="21" r="6.4"/>
	<path class="st4" d="M25.5,37.4C32.7,35.4,38,28.9,38,21"/>
	<path class="st4" d="M4,21c0,7.8,5.3,14.4,12.5,16.4"/>
	<path class="st4" d="M32.8,8.8C29.7,5.9,25.6,4,21,4c-4.7,0-8.9,1.9-12,4.9"/>
</g>
<g id="action-btn-fist">
	<polygon class="st12" points="35.7,86.895 4,70.294 4,33.794 35.7,17.194 67.4,33.794 67.4,70.294 	"/>
	<polygon class="st8" points="35.7,84.494 6.2,68.994 6.2,34.994 35.7,19.595 65.2,34.994 65.2,68.994 	"/>
	<path class="st18" d="M42.3,12.694c0,0,7.4,2,10.101,3.4c-3.4,6.5-11.5,2.399-11.5,2.399s-2.3,2.8-3,3.601
		c11.1,5.199,26.2,0.699,26.2,0.699l-0.9,5.9l-5.6,13.5l-9.7,5l-17.7,35.3l-20.7-10.8l25.8-32.4l-2.699-19.1L42.3,12.694z"/>
	<path class="st20" d="M42.3,12.694c0,0,7.4,2,10.101,3.4c-3.4,6.5-11.5,2.399-11.5,2.399s-2.3,2.8-3,3.601
		c11.1,5.199,26.2,0.699,26.2,0.699l-0.9,5.9l-5.6,13.5l-9.7,5l-17.7,35.3l-20.7-10.8l25.8-32.4l-2.699-19.1L42.3,12.694z"/>
	<path class="st18" d="M48,5.494l-2.1-1.1c-1.8-0.9-3.9-0.2-4.8,1.5l-7,13.399l8.5,4.4l7-13.4C50.5,8.494,49.8,6.395,48,5.494"/>
	<path class="st20" d="M48,5.494l-2.1-1.1c-1.8-0.9-3.9-0.2-4.8,1.5l-7,13.399l8.5,4.4l7-13.4C50.5,8.494,49.8,6.395,48,5.494z"/>
	<path class="st18" d="M54.5,6.895l2.601,1.7c1.3,0.8,1.699,2.5,0.8,3.8l-7.3,11.2c-3-0.9-4.4-2.101-6.301-4.301l6.301-11.399
		C51.5,6.595,53.2,6.095,54.5,6.895"/>
	<path class="st20" d="M54.5,6.895l2.601,1.7c1.3,0.8,1.699,2.5,0.8,3.8l-7.3,11.2c-3-0.9-4.4-2.101-6.301-4.301l6.301-11.399
		C51.5,6.595,53.2,6.095,54.5,6.895z"/>
	<path class="st18" d="M62.5,14.994l-1.899-1.3c-1.301-0.9-3-0.5-3.801,0.7l-6.1,9.2c1.3,2,3.1,3.6,6,4l6.4-8.9
		C64,17.494,63.7,15.794,62.5,14.994"/>
	<path class="st20" d="M62.5,14.994l-1.899-1.3c-1.301-0.9-3-0.5-3.801,0.7l-6.1,9.2c1.3,2,3.1,3.6,6,4l6.4-8.9
		C64,17.494,63.7,15.794,62.5,14.994z"/>
	<path class="st18" d="M67.101,24.194l-5.301,6.9c-2.3-0.7-3.899-1.9-5.1-3.4l5.3-7.3c0.9-1.3,2.8-1.5,4-0.5l0.7,0.6
		C67.8,21.395,68,22.994,67.101,24.194"/>
	<path class="st20" d="M67.101,24.194l-5.301,6.9c-2.3-0.7-3.899-1.9-5.1-3.4l5.3-7.3c0.9-1.3,2.8-1.5,4-0.5l0.7,0.6
		C67.8,21.395,68,22.994,67.101,24.194z"/>
	<path class="st18" d="M58,34.095c0.9-0.601,3.8-3,3.8-3c-2.1-0.4-3.8-1.601-5.1-3.4l-2.8,2.7c-1.101,1-0.9,2.7,0.3,3.5l0.6,0.399
		C55.8,34.895,57.2,34.694,58,34.095"/>
	<path class="st32" d="M58,34.095c0.9-0.601,3.8-3,3.8-3c-2.1-0.4-3.8-1.601-5.1-3.4l-2.8,2.7c-1.101,1-0.9,2.7,0.3,3.5l0.6,0.399
		C55.8,34.895,57.2,34.694,58,34.095z"/>
	<path class="st18" d="M50.2,30.994L49,30.095c-0.8-0.601-1-1.7-0.5-2.601l2.2-3.899c1.4,2.5,3.4,3.8,6,4l-3.4,3.199
		C52.5,31.694,51.2,31.694,50.2,30.994"/>
	<path class="st32" d="M50.2,30.994L49,30.095c-0.8-0.601-1-1.7-0.5-2.601l2.2-3.899c1.4,2.5,3.4,3.8,6,4l-3.4,3.199
		C52.5,31.694,51.2,31.694,50.2,30.994z"/>
	<path class="st18" d="M41.601,24.794l6,4.301l3.1-5.5c-3-0.7-4.5-1.801-6.3-4.301L41.601,24.794z"/>
	<path class="st20" d="M41.601,24.794l6,4.301l3.1-5.5c-3-0.7-4.5-1.801-6.3-4.301L41.601,24.794z"/>
	<path class="st18" d="M10,71.494l20.9-33.399l-2.2-19l10.8-10.2c0,0,10.101,5.3,12.8,6.7c-3.399,6.5-10.1,2.3-10.1,2.3
		s-1.3,2.899-1.9,3.7c9,4.699,10.801,9,3.5,16.399"/>
	<path class="st31" d="M10,71.494l20.9-33.399l-2.2-19l10.8-10.2c0,0,10.101,5.3,12.8,6.7c-3.399,6.5-10.1,2.3-10.1,2.3
		s-1.3,2.899-1.9,3.7c9,4.699,10.801,9,3.5,16.399"/>
	<path class="st12" d="M26,73.694c0.9-8.3,2.8-16.5,5.601-24.6c0.199,1.8,0.399,3.6,0.699,5.3c1.9-5.8,4.4-11.4,7.301-16.9
		C39.3,39.595,39.2,41.595,39,43.595c2.3-3.5,4.7-6.801,7.4-10c1.3-1.601,1.7-1.2,0.6,0.5c-3.8,6.1-6.899,12.5-9.3,19
		c-0.1-1.801-0.2-3.601-0.2-5.4c-2.2,5.2-4,10.5-5.3,15.9c-0.4-1.9-0.8-3.801-1.2-5.801C28.9,62.994,27.2,68.294,26,73.694"/>
</g>
<g id="mini-preview-test">
	<rect x="7.1" y="7" class="st12" width="47.1" height="99.6"/>
	<path class="st17" d="M47.899,13.3v87.1H13.3V13.3H47.899 M54.1,7H7v99.6h47.1V7L54.1,7z"/>
	<rect x="11.5" y="82.3" class="st19" width="38.199" height="17.5"/>
	<path class="st17" d="M47.899,84.9v12.4h-34.5V84.9H47.899 M51,81.8H10.199v18.7H51V81.8L51,81.8z"/>
	<ellipse class="st0" cx="30.6" cy="64.6" rx="7.8" ry="7.8"/>
	<path class="st17" d="M30.6,56.9c4.3,0,7.8,3.5,7.8,7.8c0,4.3-3.5,7.8-7.8,7.8s-7.8-3.5-7.8-7.8C22.8,60.3,26.3,56.9,30.6,56.9
		 M30.6,50.6c-7.8,0-14.1,6.3-14.1,14s6.3,14,14.1,14s14.1-6.3,14.1-14S38.399,50.6,30.6,50.6L30.6,50.6z"/>
	<path class="st10" d="M26,66.2c-0.9,0-1.601-0.7-1.601-1.6c0-3.4,2.8-6.1,6.2-6.1c0.9,0,1.6,0.7,1.6,1.6s-0.699,1.6-1.6,1.6
		c-1.7,0-3.1,1.4-3.1,3C27.5,65.5,26.8,66.2,26,66.2z"/>
	<g>
		<path class="st8" d="M54.1,7v99.6H7V7H54.1 M57.1,4h-3H7H4v3v99.6v3h3h47.1h3v-3V7V4L57.1,4z"/>
	</g>
</g>
<g id="mini-generation">
	<rect x="4" y="4" class="st14" width="179" height="132.8"/>
	<rect x="41.601" y="53.1" class="st19" width="87.7" height="11.5"/>
	<path class="st8" d="M127.9,63H43.2v-8.4h84.7V63z M130.9,51.6h-3H43.2h-3v3v8.5v3h3h84.7h3v-3v-8.5V51.6z"/>
	<rect x="36" y="59.8" class="st19" width="99" height="66.5"/>
	<path class="st8" d="M133.5,124.8h-96V61.3h96V124.8z M136.5,58.3h-3h-96h-3v3v63.5v3h3h96h3v-3V61.3V58.3z"/>
	<polygon class="st8" points="27.101,127.8 48.9,127.8 46.5,5.9 29.4,5.9 	"/>
	<rect x="44.101" y="55.6" class="st19" width="82.7" height="6.5"/>
	<path class="st17" d="M125.9,61H45.2v-4.4h80.7V61z M127.9,54.6H43.2v8.5h84.7V54.6z"/>
	<rect x="38.5" y="62.3" class="st19" width="94" height="61.5"/>
	<path class="st17" d="M131.5,122.8h-92V63.3h92V122.8z M133.5,61.3h-96v63.5h96V61.3z"/>
	<rect x="128.601" y="64.1" class="st12" width="7.1" height="1.4"/>
	<rect x="128.601" y="64.1" class="st17" width="7.1" height="1.4"/>
	<rect x="124.601" y="94.1" class="st12" width="7.1" height="1.3"/>
	<rect x="124.601" y="94.1" class="st16" width="7.1" height="1.3"/>
	<path class="st12" d="M36.101,64.8h5.7H36.101z"/>
	<rect x="35.4" y="64.1" class="st17" width="7.1" height="1.4"/>
	<rect x="39.4" y="94.1" class="st12" width="7.1" height="1.3"/>
	<rect x="39.4" y="94.1" class="st16" width="7.1" height="1.3"/>
	<rect x="37.601" y="62.8" class="st12" width="95.8" height="1.2"/>
	<rect x="36.101" y="61.3" class="st17" width="98.8" height="4.2"/>
	<rect x="83.301" y="71.2" class="st11" width="5.5" height="10.5"/>
	<path class="st17" d="M87.9,80.7h-3.5v-8.5h3.5V80.7z M89.9,70.2h-2h-3.5h-2v2v8.5v2h2h3.5h2v-2v-8.5V70.2z"/>
	<rect x="64.4" y="71.2" class="st11" width="5.5" height="10.5"/>
	<path class="st17" d="M69,80.7h-3.5v-8.5H69V80.7z M71,70.2h-2h-3.5h-2v2v8.5v2h2H69h2v-2v-8.5V70.2z"/>
	<rect x="73.9" y="71.2" class="st11" width="5.5" height="10.5"/>
	<path class="st17" d="M78.4,80.7h-3.5v-8.5h3.5V80.7z M80.4,70.2h-2h-3.5h-2v2v8.5v2h2h3.5h2v-2v-8.5V70.2z"/>
	<rect x="111.7" y="71.2" class="st11" width="5.5" height="10.5"/>
	<path class="st17" d="M116.2,80.7h-3.5v-8.5h3.5V80.7z M118.2,70.2h-2h-3.5h-2v2v8.5v2h2h3.5h2v-2v-8.5V70.2z"/>
	<rect x="121.101" y="71.2" class="st11" width="5.5" height="10.5"/>
	<path class="st17" d="M125.601,80.7h-3.5v-8.5h3.5V80.7z M127.601,70.2h-2h-3.5h-2v2v8.5v2h2h3.5h2v-2v-8.5V70.2z"/>
	<rect x="92.801" y="71.2" class="st11" width="5.5" height="10.5"/>
	<path class="st17" d="M97.301,80.7h-3.5v-8.5h3.5V80.7z M99.301,70.2h-2h-3.5h-2v2v8.5v2h2h3.5h2v-2v-8.5V70.2z"/>
	<rect x="102.2" y="71.2" class="st11" width="5.5" height="10.5"/>
	<path class="st17" d="M106.801,80.7h-3.5v-8.5h3.5V80.7z M108.801,70.2h-2h-3.5h-2v2v8.5v2h2h3.5h2v-2v-8.5V70.2z"/>
	<rect x="45.601" y="71.2" class="st11" width="5.5" height="10.5"/>
	<path class="st17" d="M50.101,80.7h-3.5v-8.5h3.5V80.7z M52.101,70.2h-2h-3.5h-2v2v8.5v2h2h3.5h2v-2v-8.5V70.2z"/>
	<rect x="55" y="71.2" class="st11" width="5.5" height="10.5"/>
	<path class="st17" d="M59.5,80.7H56v-8.5h3.5V80.7z M61.5,70.2h-2H56h-2v2v8.5v2h2h3.5h2v-2v-8.5V70.2z"/>
	<rect x="111.7" y="107.9" class="st11" width="5.5" height="10.5"/>
	<path class="st17" d="M116.2,117.4h-3.5v-8.5h3.5V117.4z M118.2,106.9h-2h-3.5h-2v2v8.5v2h2h3.5h2v-2v-8.5V106.9z"/>
	<rect x="121.101" y="107.9" class="st11" width="5.5" height="10.5"/>
	<path class="st17" d="M125.601,117.4h-3.5v-8.5h3.5V117.4z M127.601,106.9h-2h-3.5h-2v2v8.5v2h2h3.5h2v-2v-8.5V106.9z"/>
	<rect x="45.601" y="107.9" class="st11" width="5.5" height="10.5"/>
	<path class="st17" d="M50.101,117.4h-3.5v-8.5h3.5V117.4z M52.101,106.9h-2h-3.5h-2v2v8.5v2h2h3.5h2v-2v-8.5V106.9z"/>
	<rect x="55" y="107.9" class="st11" width="5.5" height="10.5"/>
	<path class="st17" d="M59.5,117.4H56v-8.5h3.5V117.4z M61.5,106.9h-2H56h-2v2v8.5v2h2h3.5h2v-2v-8.5V106.9z"/>
	<rect x="25.601" y="11.1" class="st8" width="24.7" height="4"/>
	<path class="st8" d="M49.301,14H26.7v-1.9h22.601V14z M51.4,10h-2.1H26.7h-2.1v2.1V14v2.1h2.1h22.601h2.1V14v-1.9V10z"/>
	<g>
		<g>
			<defs>
				<path id="SVGID_1_" d="M138.601,97.2v19.1h15.1c0.101-2.2,1.9-3.9,4.101-3.9c2.199,0,4,1.7,4.1,3.9h14.8V97.2H138.601z"/>
			</defs>
			<clipPath id="SVGID_2_">
				<use xlink:href="#SVGID_1_"  style="overflow:visible;"/>
			</clipPath>
			<path class="st15" d="M174.801,124.8h-34.2V99.2h34.2V124.8z M176.801,97.2h-38.2v29.6h38.2V97.2z"/>
		</g>
		<g>
			<defs>
				<path id="SVGID_3_" d="M138.601,97.2v19.1h15.1c0.101-2.2,1.9-3.9,4.101-3.9c2.199,0,4,1.7,4.1,3.9h14.8V97.2H138.601z"/>
			</defs>
			<clipPath id="SVGID_4_">
				<use xlink:href="#SVGID_3_"  style="overflow:visible;"/>
			</clipPath>
			<circle class="st21" cx="157.801" cy="116.5" r="17.6"/>
		</g>
		<g>
			<defs>
				<path id="SVGID_5_" d="M138.601,97.2v19.1h15.1c0.101-2.2,1.9-3.9,4.101-3.9c2.199,0,4,1.7,4.1,3.9h14.8V97.2H138.601z"/>
			</defs>
			<clipPath id="SVGID_6_">
				<use xlink:href="#SVGID_5_"  style="overflow:visible;"/>
			</clipPath>
			<polyline class="st1" points="157.801,116.5 147.2,112.1 148.7,107.4 157.801,116.5 			"/>
		</g>
		<g>
			<defs>
				<path id="SVGID_7_" d="M138.601,97.2v19.1h15.1c0.101-2.2,1.9-3.9,4.101-3.9c2.199,0,4,1.7,4.1,3.9h14.8V97.2H138.601z"/>
			</defs>
			<clipPath id="SVGID_8_">
				<use xlink:href="#SVGID_7_"  style="overflow:visible;"/>
			</clipPath>
			<polyline class="st25" points="157.801,116.5 146.301,116.5 145.9,111.6 157.801,116.5 			"/>
		</g>
		<g>
			<defs>
				<path id="SVGID_9_" d="M138.601,97.2v19.1h15.1c0.101-2.2,1.9-3.9,4.101-3.9c2.199,0,4,1.7,4.1,3.9h14.8V97.2H138.601z"/>
			</defs>
			<clipPath id="SVGID_10_">
				<use xlink:href="#SVGID_9_"  style="overflow:visible;"/>
			</clipPath>
			<polyline class="st23" points="157.801,116.5 168.5,112.1 170.7,116.5 157.801,116.5 			"/>
		</g>
		<g>
			<defs>
				<path id="SVGID_11_" d="M138.601,97.2v19.1h15.1c0.101-2.2,1.9-3.9,4.101-3.9c2.199,0,4,1.7,4.1,3.9h14.8V97.2H138.601z"/>
			</defs>
			<clipPath id="SVGID_12_">
				<use xlink:href="#SVGID_11_"  style="overflow:visible;"/>
			</clipPath>
			<polyline class="st13" points="157.801,116.5 166,108.4 169.7,111.6 157.801,116.5 			"/>
		</g>
		<g>
			<defs>
				<path id="SVGID_13_" d="M138.601,97.2v19.1h15.1c0.101-2.2,1.9-3.9,4.101-3.9c2.199,0,4,1.7,4.1,3.9h14.8V97.2H138.601z"/>
			</defs>
			<clipPath id="SVGID_14_">
				<use xlink:href="#SVGID_13_"  style="overflow:visible;"/>
			</clipPath>
			<polyline class="st7" points="157.801,116.5 162.301,105.9 167,107.4 157.801,116.5 			"/>
		</g>
		<g>
			<defs>
				<path id="SVGID_15_" d="M138.601,97.2v19.1h15.1c0.101-2.2,1.9-3.9,4.101-3.9c2.199,0,4,1.7,4.1,3.9h14.8V97.2H138.601z"/>
			</defs>
			<clipPath id="SVGID_16_">
				<use xlink:href="#SVGID_15_"  style="overflow:visible;"/>
			</clipPath>
			<polyline class="st2" points="157.801,116.5 157.801,105 162.801,104.7 157.801,116.5 			"/>
		</g>
		<g>
			<defs>
				<path id="SVGID_17_" d="M138.601,97.2v19.1h15.1c0.101-2.2,1.9-3.9,4.101-3.9c2.199,0,4,1.7,4.1,3.9h14.8V97.2H138.601z"/>
			</defs>
			<clipPath id="SVGID_18_">
				<use xlink:href="#SVGID_17_"  style="overflow:visible;"/>
			</clipPath>
			<polyline class="st30" points="157.801,116.5 153.4,105.9 157.801,103.7 157.801,116.5 			"/>
		</g>
		<g>
			<defs>
				<path id="SVGID_19_" d="M138.601,97.2v19.1h15.1c0.101-2.2,1.9-3.9,4.101-3.9c2.199,0,4,1.7,4.1,3.9h14.8V97.2H138.601z"/>
			</defs>
			<clipPath id="SVGID_20_">
				<use xlink:href="#SVGID_19_"  style="overflow:visible;"/>
			</clipPath>
			<polyline class="st29" points="157.801,116.5 149.7,108.4 152.9,104.7 157.801,116.5 			"/>
		</g>
	</g>
	<path class="st8" d="M177.2,125.8h-38.899V118H177.2V125.8z M179.2,116h-42.899v11.8H179.2V116z"/>
	<path class="st22" d="M153.7,123.7h8.3v-7.2c0-2.3-1.899-4.1-4.199-4.1c-2.301,0-4.101,1.9-4.101,4.1V123.7z"/>
	<path class="st8" d="M162,125.4h-8.699v-1.3H162V125.4z M164,122.1h-12.699v5.3H164V122.1z"/>
	<line class="st22" x1="161.9" y1="120.1" x2="153.5" y2="120.1"/>
</g>
<g id="mini-substation">
	<rect x="4" y="4" class="st14" width="179" height="132.8"/>
	<rect x="43.899" y="54.4" class="st19" width="102.601" height="71.9"/>
	<path class="st8" d="M145,124.8H45.399V55.9H145V124.8z M148,52.9h-3H45.399h-3v3v68.9v3h3H145h3v-3V55.9V52.9z"/>
	<rect x="40.1" y="53.4" class="st19" width="110.2" height="8.6"/>
	<path class="st8" d="M148.8,60.5H41.6v-5.6h107.2V60.5z M151.8,51.9h-3H41.6h-3v3v5.6v3h3h107.2h3v-3v-5.6V51.9z"/>
	<polyline class="st5" points="26.899,84.6 55.7,127.1 57.6,127.1 50.5,84.6 26.899,84.6 19.8,127.1 21.8,127.1 50.5,84.6 	"/>
	<polygon class="st5" points="26.899,84.6 50.5,84.6 48.2,69.3 29.2,69.3 	"/>
	<line class="st5" x1="26.899" y1="84.6" x2="48.2" y2="69.3"/>
	<line class="st5" x1="29.2" y1="69.3" x2="50.5" y2="84.6"/>
	<polygon class="st5" points="30.7,55.5 46.7,55.5 48.2,69.3 29.2,69.3 	"/>
	<line class="st5" x1="48.2" y1="69.3" x2="30.7" y2="55.5"/>
	<line class="st5" x1="46.7" y1="55.5" x2="29.2" y2="69.3"/>
	<polygon class="st5" points="30.7,55.5 46.7,55.5 45.7,42.8 31.7,42.8 	"/>
	<line class="st5" x1="30.7" y1="55.5" x2="45.7" y2="42.8"/>
	<line class="st5" x1="31.7" y1="42.8" x2="46.7" y2="55.5"/>
	<polygon class="st5" points="7.5,42.8 69.899,42.8 45.7,30.5 32.2,30.5 	"/>
	<polygon class="st5" points="32.2,30.5 45.7,30.5 45.7,42.8 31.7,42.8 	"/>
	<polyline class="st5" points="45.7,30.5 31.7,42.8 45.7,42.8 32.2,30.5 	"/>
	<polyline class="st5" points="51,33.1 45.7,42.8 31.7,42.8 26.899,33.1 	"/>
	<line class="st5" x1="26.899" y1="42.6" x2="19.3" y2="37"/>
	<line class="st5" x1="51" y1="42.6" x2="58.1" y2="37"/>
	<line class="st5" x1="58.1" y1="37" x2="58.1" y2="42.8"/>
	<line class="st5" x1="26.899" y1="33.1" x2="26.899" y2="42.6"/>
	<line class="st5" x1="51" y1="42.6" x2="51" y2="33.1"/>
	<polygon class="st5" points="32.2,30.5 45.7,30.5 44.2,22.4 33.2,22.4 	"/>
	<polyline class="st5" points="33.2,22.4 45.7,30.5 32.2,30.5 44.2,22.4 	"/>
	<polygon class="st5" points="34.7,12.5 42.7,12.5 44.2,22.4 33.2,22.4 	"/>
	<polygon class="st5" points="34.7,12.6 42.7,12.6 58.7,22.4 18.8,22.4 	"/>
	<polyline class="st5" points="42.7,12.6 33.2,22.4 44.2,22.4 34.7,12.6 	"/>
	<polyline class="st5" points="48.5,16.8 44.2,22.4 33.2,22.4 28.899,16.8 	"/>
	<line class="st5" x1="28.899" y1="16.8" x2="28.899" y2="22.2"/>
	<line class="st5" x1="48.5" y1="22.2" x2="48.5" y2="16.8"/>
	<line class="st5" x1="59.8" y1="26.4" x2="59.8" y2="22.9"/>
	<line class="st5" x1="71.399" y1="46.7" x2="71.399" y2="43.2"/>
	<line class="st5" x1="17.6" y1="26.4" x2="17.6" y2="22.9"/>
	<line class="st5" x1="6" y1="46.7" x2="6" y2="43.2"/>
	<rect x="46.399" y="56.9" class="st19" width="97.601" height="66.9"/>
	<path class="st17" d="M143,122.8H47.399V57.9H143V122.8z M145,55.9H45.399v68.9H145V55.9z"/>
	<rect x="42.6" y="55.9" class="st19" width="105.2" height="3.6"/>
	<path class="st17" d="M146.8,58.5H43.6v-1.6h103.2V58.5z M148.8,54.9H41.6v5.6h107.2V54.9z"/>
	<rect x="40.8" y="59" class="st17" width="108.8" height="1.5"/>
	<line class="st16" x1="143.3" y1="116.8" x2="47.1" y2="116.8"/>
	<rect x="75.2" y="66.7" class="st11" width="5.8" height="11.2"/>
	<path class="st17" d="M80,76.9h-3.8v-9.2H80V76.9z M82,65.7h-2h-3.8h-2v2v9.2v2h2H80h2v-2v-9.2V65.7z"/>
	<rect x="85.3" y="66.7" class="st11" width="5.8" height="11.2"/>
	<path class="st17" d="M90.1,76.9h-3.8v-9.2h3.8V76.9z M92.1,65.7h-2h-3.8h-2v2v9.2v2h2h3.8h2v-2v-9.2V65.7z"/>
	<rect x="55" y="66.7" class="st11" width="5.8" height="11.2"/>
	<path class="st17" d="M59.8,76.9H56v-9.2h3.8V76.9z M61.8,65.7h-2H56h-2v2v9.2v2h2h3.8h2v-2v-9.2V65.7z"/>
	<rect x="65.1" y="66.7" class="st11" width="5.8" height="11.2"/>
	<path class="st17" d="M69.899,76.9h-3.8v-9.2h3.8V76.9z M71.899,65.7h-2h-3.8h-2v2v9.2v2h2h3.8h2v-2v-9.2V65.7z"/>
	<rect x="75.2" y="81.3" class="st11" width="5.8" height="11.2"/>
	<path class="st17" d="M80,91.5h-3.8v-9.2H80V91.5z M82,80.3h-2h-3.8h-2v2v9.2v2h2H80h2v-2v-9.2V80.3z"/>
	<rect x="55" y="81.3" class="st11" width="5.8" height="11.2"/>
	<path class="st17" d="M59.8,91.5H56v-9.2h3.8V91.5z M61.8,80.3h-2H56h-2v2v9.2v2h2h3.8h2v-2v-9.2V80.3z"/>
	<rect x="65.1" y="81.3" class="st11" width="5.8" height="11.2"/>
	<path class="st17" d="M69.899,91.5h-3.8v-9.2h3.8V91.5z M71.899,80.3h-2h-3.8h-2v2v9.2v2h2h3.8h2v-2v-9.2V80.3z"/>
	<rect x="161.399" y="107.1" class="st8" width="7" height="8.2"/>
	<rect x="157.899" y="115.7" class="st8" width="14.801" height="1.6"/>
	<path class="st8" d="M171.7,118.2v8.6l0,0l-10.9-8.6H171.7z M172.7,117.2h-14.801l13.5,10.6h1.4v-10.6H172.7z"/>
	<path class="st8" d="M169.8,118.2l-10.9,8.6l0,0v-8.6H169.8z M172.7,117.2h-14.801v10.6h1.4L172.7,117.2z"/>
	<path class="st8" d="M174.7,111.2c0,1.4-1.301,2.5-2,2.5c-0.7,0-1.2-1.1-1.2-2.5c0-1.4,0.5-2.5,1.2-2.5
		C173.399,108.7,174.7,109.8,174.7,111.2"/>
	<path class="st8" d="M156.1,111.2c0,1.4,1.3,2.5,2,2.5s1.2-1.1,1.2-2.5c0-1.4-0.5-2.5-1.2-2.5S156.1,109.8,156.1,111.2"/>
	<rect x="157.899" y="106.5" class="st8" width="5.101" height="9.4"/>
	
		<rect x="157.91" y="100.207" transform="matrix(-0.9848 0.1737 -0.1737 -0.9848 334.0254 172.5748)" class="st8" width="3.1" height="1.4"/>
	<polygon class="st8" points="155.6,74.6 154,74.9 157.2,100.6 161.399,99.8 	"/>
	
		<rect x="158.453" y="105.564" transform="matrix(-0.9848 0.1735 -0.1735 -0.9848 336.8391 183.3797)" class="st8" width="3.9" height="1.7"/>
	<path class="st8" d="M161.5,105.5l-2.5,0.4c-1.2,0.2-2.4-0.6-2.601-1.8v-0.2c-0.199-1.2,0.601-2.4,1.801-2.6l2.5-0.4
		c1.199-0.2,2.399,0.6,2.6,1.8v0.2C163.6,104.2,162.8,105.3,161.5,105.5"/>
	
		<rect x="153.374" y="74.242" transform="matrix(-0.9848 0.1734 -0.1734 -0.9848 320.0485 121.3207)" class="st8" width="2.7" height="0.8"/>
	
		<rect x="152.637" y="74.103" transform="matrix(0.9849 -0.1733 0.1733 0.9849 -10.665 27.6544)" class="st8" width="0.8" height="1.6"/>
	
		<rect x="169.796" y="100.187" transform="matrix(-0.9848 -0.1736 0.1736 -0.9848 322.5784 229.9854)" class="st8" width="3.1" height="1.4"/>
	<polygon class="st8" points="176.7,74.9 175.2,74.6 169.3,99.8 173.6,100.6 	"/>
	
		<rect x="168.372" y="105.624" transform="matrix(-0.9848 -0.1735 0.1735 -0.9848 319.5833 240.8891)" class="st8" width="3.9" height="1.7"/>
	<path class="st8" d="M171.8,106l-2.5-0.4c-1.2-0.2-2-1.4-1.8-2.6v-0.2c0.2-1.2,1.399-2,2.6-1.8l2.5,0.4c1.2,0.2,2,1.4,1.8,2.6v0.2
		C174.1,105.4,173,106.2,171.8,106"/>
	
		<rect x="174.68" y="74.229" transform="matrix(0.9848 0.1734 -0.1734 0.9848 15.6098 -29.397)" class="st8" width="2.7" height="0.8"/>
	
		<rect x="177.304" y="74.085" transform="matrix(-0.9849 -0.1733 0.1733 -0.9849 339.742 179.4327)" class="st8" width="0.8" height="1.6"/>
	<rect x="167.7" y="106.5" class="st8" width="5.1" height="9.4"/>
	<path class="st5" d="M152.8,74.1c0.5-3.1-1.5-4.1-6.2-3.1"/>
	<path class="st5" d="M177.8,74.1c-0.1-10.8-23-5.9-31.6-3.7"/>
</g>
<g id="mini-control-center">
	<rect x="4" y="4" class="st14" width="179" height="132.8"/>
	<rect x="30.9" y="56.2" class="st19" width="100" height="70.2"/>
	<path class="st8" d="M129.4,124.8h-97V57.6h97V124.8z M132.4,54.7h-3h-97h-3v3v67.2v3h3h97h3v-3V57.7V54.7z"/>
	<rect x="27.101" y="55.2" class="st19" width="107.5" height="8.5"/>
	<path class="st8" d="M133.101,62.1h-104.5v-5.5h104.5V62.1z M136.101,53.7h-3h-104.5h-3v3v5.5v3h3h104.5h3v-3v-5.5V53.7z"/>
	
		<rect x="117.294" y="46.157" transform="matrix(-0.6033 -0.7975 0.7975 -0.6033 154.615 170.6236)" class="st8" width="4.9" height="1.401"/>
	
		<rect x="117.294" y="46.157" transform="matrix(-0.6033 -0.7975 0.7975 -0.6033 154.615 170.6236)" class="st5" width="4.9" height="1.401"/>
	
		<rect x="113.533" y="50.878" transform="matrix(0.9541 -0.2994 0.2994 0.9541 -10.1608 37.4295)" class="st8" width="7.1" height="2"/>
	
		<rect x="113.533" y="50.878" transform="matrix(0.9541 -0.2994 0.2994 0.9541 -10.1608 37.4295)" class="st5" width="7.1" height="2"/>
	<path class="st8" d="M120.301,44.6c-0.4,1.3-1.801,2.1-3.101,1.7s-2.1-1.8-1.7-3.1c0.4-1.3,1.801-2.1,3.101-1.7
		C120,41.9,120.7,43.3,120.301,44.6"/>
	<circle class="st5" cx="117.9" cy="43.9" r="2.5"/>
	<path class="st8" d="M123.4,48.6c1,1,1,2.6,0,3.6s-2.6,1-3.6,0s-1-2.6,0-3.6C120.9,47.6,122.5,47.6,123.4,48.6"/>
	<circle class="st5" cx="121.7" cy="50.3" r="2.5"/>
	<path class="st8" d="M115.101,53.4c0,1.9-1.601,3.5-3.5,3.5c-1.9,0-3.5-1.6-3.5-3.5s1.6-3.5,3.5-3.5
		C113.5,49.9,115.101,51.5,115.101,53.4"/>
	<circle class="st5" cx="111.601" cy="53.4" r="3.5"/>
	<rect x="33.4" y="58.7" class="st19" width="95" height="65.2"/>
	<path class="st17" d="M127.4,122.8h-93V59.6h93V122.8z M129.4,57.7h-97v67.2h97V57.7z"/>
	<rect x="29.601" y="57.7" class="st19" width="102.5" height="3.5"/>
	<path class="st17" d="M131.101,60.1h-100.5v-1.5h100.5V60.1z M133.101,56.7h-104.5v5.5h104.5V56.7z"/>
	<line class="st14" x1="128.2" y1="117.7" x2="33.5" y2="117.7"/>
	<line class="st16" x1="128.2" y1="117.7" x2="33.5" y2="117.7"/>
	<path class="st8" d="M108.801,20.8c-2.5,2.5,1.3,13.2,10.3,22.1c8.899,8.9,19.7,12.7,22.1,10.3"/>
	<path class="st5" d="M108.801,20.8c-2.5,2.5,1.3,13.2,10.3,22.1c8.899,8.9,19.7,12.7,22.1,10.3"/>
	
		<ellipse transform="matrix(0.7072 -0.707 0.707 0.7072 10.4346 99.2012)" class="st5" cx="124.98" cy="37.003" rx="1.8" ry="22.9"/>
	<polyline class="st5" points="118.4,33 133.9,28.1 128.9,43.5 	"/>
	<polyline class="st5" points="108.801,20.8 133.9,28.1 141.2,53.2 	"/>
	
		<rect x="132.658" y="26.93" transform="matrix(-0.7071 -0.7071 0.7071 -0.7071 209.1015 142.474)" class="st8" width="2.801" height="2"/>
	
		<rect x="132.658" y="26.93" transform="matrix(-0.7071 -0.7071 0.7071 -0.7071 209.1015 142.474)" class="st5" width="2.801" height="2"/>
	<rect x="80.101" y="68.2" class="st11" width="5.7" height="11"/>
	<path class="st17" d="M84.9,78.2h-3.7v-9h3.7V78.2z M86.9,67.2h-2h-3.7h-2v2v9v2h2h3.7h2v-2v-9V67.2z"/>
	<rect x="60.4" y="68.2" class="st11" width="5.7" height="11"/>
	<path class="st17" d="M65.2,78.2h-3.7v-9h3.7V78.2z M67.2,67.2h-2h-3.7h-2v2v9v2h2h3.7h2v-2v-9V67.2z"/>
	<rect x="70.301" y="68.2" class="st11" width="5.699" height="11"/>
	<path class="st17" d="M75,78.2h-3.699v-9H75V78.2z M77,67.2h-2h-3.699h-2v2v9v2h2H75h2v-2v-9V67.2z"/>
	<rect x="40.801" y="68.2" class="st11" width="5.699" height="11"/>
	<path class="st17" d="M45.5,78.2h-3.699v-9H45.5V78.2z M47.5,67.2h-2h-3.699h-2v2v9v2h2H45.5h2v-2v-9V67.2z"/>
	<rect x="50.601" y="68.2" class="st11" width="5.7" height="11"/>
	<path class="st17" d="M55.301,78.2h-3.7v-9h3.7V78.2z M57.301,67.2h-2h-3.7h-2v2v9v2h2h3.7h2v-2v-9V67.2z"/>
	<rect x="80.101" y="82.4" class="st11" width="5.7" height="11"/>
	<path class="st17" d="M84.9,92.3h-3.7v-9h3.7V92.3z M86.9,81.4h-2h-3.7h-2v2v9v2h2h3.7h2v-2v-9V81.4z"/>
	<rect x="60.4" y="82.4" class="st11" width="5.7" height="11"/>
	<path class="st17" d="M65.2,92.3h-3.7v-9h3.7V92.3z M67.2,81.4h-2h-3.7h-2v2v9v2h2h3.7h2v-2v-9V81.4z"/>
	<rect x="70.301" y="82.4" class="st11" width="5.699" height="11"/>
	<path class="st17" d="M75,92.3h-3.699v-9H75V92.3z M77,81.4h-2h-3.699h-2v2v9v2h2H75h2v-2v-9V81.4z"/>
	<rect x="40.801" y="82.4" class="st11" width="5.699" height="11"/>
	<path class="st17" d="M45.5,92.3h-3.699v-9H45.5V92.3z M47.5,81.4h-2h-3.699h-2v2v9v2h2H45.5h2v-2v-9V81.4z"/>
	<rect x="50.601" y="82.4" class="st11" width="5.7" height="11"/>
	<path class="st17" d="M55.301,92.3h-3.7v-9h3.7V92.3z M57.301,81.4h-2h-3.7h-2v2v9v2h2h3.7h2v-2v-9V81.4z"/>
	<path class="st8" d="M144,114.3l-0.699,0.3c-2.5,1.2-5.601,0.1-6.801-2.5c-1.199-2.5-0.1-5.6,2.5-6.8l0.7-0.3L144,114.3z"/>
	
		<rect x="142.191" y="104.967" transform="matrix(-0.9074 0.4202 -0.4202 -0.9074 322.5823 145.2756)" class="st8" width="6.2" height="6.4"/>
	<polygon class="st8" points="149.2,110.8 169.9,105.5 163.4,91.5 146,103.9 	"/>
	
		<rect x="176.486" y="89.605" transform="matrix(-0.9073 0.4205 -0.4205 -0.9073 381.0298 100.4981)" class="st8" width="5.9" height="5.301"/>
	<polygon class="st8" points="183.2,93.5 184.601,92.3 182.801,88.4 181,88.6 	"/>
	
		<rect x="166.348" y="87.485" transform="matrix(-0.9073 0.4204 -0.4204 -0.9073 362.8005 114.8033)" class="st8" width="4.8" height="19.8"/>
	
		<rect x="175.888" y="90.347" transform="matrix(-0.9075 0.4201 -0.4201 -0.9075 376.6131 104.1564)" class="st8" width="1.899" height="6.4"/>
	<polygon class="st8" points="175.301,103.4 177.101,98.2 173.4,90.3 168.301,88.3 	"/>
	
		<rect x="156.917" y="111.621" transform="matrix(-0.5462 -0.8376 0.8376 -0.5462 153.0562 307.8587)" class="st8" width="6" height="1.7"/>
	
		<rect x="152.25" y="117.091" transform="matrix(0.9541 -0.2994 0.2994 0.9541 -28.2454 52.3296)" class="st8" width="8.8" height="2.5"/>
	<path class="st8" d="M160.801,109.7c-0.601,1.6-2.4,2.4-4,1.8c-1.601-0.6-2.4-2.4-1.801-4c0.601-1.6,2.4-2.4,4-1.8
		C160.601,106.3,161.4,108.1,160.801,109.7"/>
	<path class="st8" d="M164.601,114.3c1.2,1.2,1.2,3.2,0,4.4c-1.2,1.2-3.2,1.2-4.4,0c-1.2-1.2-1.2-3.2,0-4.4
		C161.4,113,163.4,113,164.601,114.3"/>
	<path class="st8" d="M154.301,120.2c0,2.4-1.9,4.3-4.301,4.3c-2.399,0-4.3-1.9-4.3-4.3s1.9-4.3,4.3-4.3
		C152.4,115.9,154.301,117.9,154.301,120.2"/>
	<rect x="131.601" y="121.8" class="st8" width="39" height="6"/>
</g>
<g id="btn-lightning">
	<path class="st11" d="M62.98,7.065L120,19.42v28.121L63.005,58.939L7,47.549V18.451L62.98,7.065 M63,4L4,16v34l59,12l60-12V17L63,4
		L63,4z"/>
	<path class="st11" d="M27.545,46.794c10.851-4.432,22.326-7.663,34.213-9.562c-2.113,1.422-4.17,2.886-6.17,4.388
		c8.438-1.452,17.07-2.213,25.811-2.24c-2.724,1.069-5.387,2.21-7.985,3.416c8.674,0.706,17.287,2.149,25.747,4.323
		c-12.992-1.539-25.891-1.356-38.376,0.4c2.125-1.336,4.305-2.625,6.541-3.865c-7.929,0.756-15.72,2.13-23.3,4.088
		c2.05-1.813,4.174-3.584,6.371-5.309C42.686,43.309,35.047,44.765,27.545,46.794z"/>
</g>
</svg>
