<?xml version="1.0" encoding="utf-8"?>
<!-- Generator: Adobe Illustrator 15.0.0, SVG Export Plug-In . SVG Version: 6.00 Build 0)  -->
<!DOCTYPE svg PUBLIC "-//W3C//DTD SVG 1.1//EN" "http://www.w3.org/Graphics/SVG/1.1/DTD/svg11.dtd">
<svg version="1.1" id="Layer_1" xmlns="http://www.w3.org/2000/svg" xmlns:xlink="http://www.w3.org/1999/xlink" x="0px" y="0px"
	 width="2328.031px" height="768.5px" viewBox="0 0 2328.031 768.5" style="enable-background:new 0 0 2328.031 768.5;"
	 xml:space="preserve">
<style type="text/css">
<![CDATA[
	.st0{fill:none;stroke:#FFB81A;stroke-width:3;stroke-linecap:round;stroke-linejoin:round;stroke-miterlimit:10;}
	.st1{fill:none;stroke:#E03F07;stroke-width:3;stroke-miterlimit:10;}
	.st2{fill:none;stroke:#6B989F;stroke-width:2;stroke-miterlimit:10;}
	.st3{fill:none;stroke:#6B989F;stroke-width:0.7797;stroke-miterlimit:10;}
	.st4{fill:#53848C;}
	.st5{fill:none;stroke:#FFFFFF;stroke-width:6;stroke-miterlimit:10;}
	.st6{fill:none;stroke:#FFB81A;stroke-width:4;stroke-miterlimit:10;}
	.st7{fill:#262626;}
	.st8{fill:#F9773E;}
	.st9{opacity:0.5;fill:#6B989F;enable-background:new    ;}
	.st10{fill:none;stroke:#6B989F;stroke-miterlimit:10;}
	.st11{fill:#FF7931;}
	.st12{fill:#FFB81A;}
	.st13{fill:#FFFFFF;}
	.st14{fill:none;}
	.st15{fill:none;stroke:#335E6E;stroke-miterlimit:10;}
	.st16{fill:none;stroke:#FFB81A;stroke-width:2.4838;stroke-miterlimit:10;}
	.st17{fill:#335E6E;}
	.st18{fill:#345D6E;}
	.st19{fill:none;stroke:#FFB81A;stroke-width:2;stroke-linecap:round;stroke-miterlimit:10;}
	.st20{fill:#6B989F;}
	.st21{fill:none;stroke:#FFFFFF;stroke-width:1.4167;stroke-miterlimit:10;}
	.st22{fill:none;stroke:#FFB81A;stroke-width:2.9184;stroke-miterlimit:10;}
	.st23{fill:#71A8A8;}
	.st24{fill:#FFFFFF;stroke:#231F20;stroke-miterlimit:10;}
	.st25{fill:none;stroke:#FFFFFF;stroke-width:1.4167;stroke-linecap:round;stroke-miterlimit:10;}
	.st26{fill:none;stroke:#FFFFFF;stroke-width:1.4167;stroke-miterlimit:1;}
]]>
</style>
<symbol  id="New_Symbol" viewBox="-10.3 -10.3 20.6 20.6">
	<polygon class="st24" points="9.8,-9.8 -9.8,-9.8 -9.8,9.8 9.8,9.8 	"/>
</symbol>
<g id="first">
	
		<use xlink:href="#New_Symbol"  width="20.6" height="20.6" x="-10.3" y="-10.3" transform="matrix(0.7046 0 0 -0.7046 11.2573 11.2573)" style="overflow:visible;"/>
</g>
<g id="ep5-badge">
	<path id="_x3E_white_1_" class="st13" d="M26.599,12.5H9.8v6.9h0.098v6.462l7.933,2.203l0.535-1.933l-6.468-1.797v-5.339h9.001
		v0.257c-0.101,0.495-0.286,1.021-0.632,1.395c-0.347,0.364-0.828,0.55-1.468,0.55h-2.6h-0.6v2h0.6h2.6h3.8v3.801h2v-3.801h2V12.5
		L26.599,12.5z M17.199,14.5v2.503H15.5V14.5H17.199z M11.8,17.003V14.5h1.7v2.503H11.8z M19.199,17.003V14.5h1.7v2.503H19.199z
		 M24.599,21.199h-1.7v-1.704c0.141-0.795,0.106-1.438,0.097-1.563l-0.066-0.929h-0.031V14.5h1.7V21.199z"/>
	<g id="_x3E_yellow_3_">
		<g>
			<path class="st12" d="M18.199,6.4l12,6.299V26.4l-12,6.299l-12-6.299V12.699L18.199,6.4 M18.199,4L4,11.399v16.396l14.199,7.396
				l14.2-7.396V11.4L18.199,4L18.199,4z"/>
		</g>
	</g>
</g>
<g id="ep4-badge">
	<g id="_x3E_white_4_">
		<rect x="23.383" y="25.405" class="st13" width="8.213" height="2.123"/>
		<rect x="5.415" y="25.405" class="st13" width="7.354" height="2.123"/>
	</g>
	<g id="_x3E_yellow_4_">
		<path id="XMLID_403_" class="st12" d="M18.152,6.396l12.029,6.296v13.75l-12.029,6.297L6.123,26.442v-13.75L18.152,6.396
			 M18.152,4L4,11.408v16.315l14.152,7.408l14.152-7.408V11.408L18.152,4L18.152,4z"/>
		<path class="st12" d="M18.144,14.56c-1.564,0-2.836-1.271-2.836-2.836c0-1.562,1.272-2.835,2.836-2.835
			c1.563,0,2.835,1.272,2.835,2.835C20.98,13.288,19.708,14.56,18.144,14.56z M18.144,10.688c-0.571,0-1.036,0.47-1.036,1.036
			c0,0.571,0.465,1.036,1.036,1.036c0.571,0,1.036-0.465,1.036-1.036C19.18,11.153,18.715,10.688,18.144,10.688z"/>
		<path class="st12" d="M22.812,23.475l1.638-0.746l-2.858-6.271l0.25-1.139h-7.395l0.248,1.128l-2.863,6.277l1.638,0.746
			l1.869-4.101l0.56,2.548l-0.651,7.104v0.688h1.8l-0.004-0.604l0.584-6.347h1.033l0.58,6.265v0.688h1.8l-0.004-0.771l-0.646-7.021
			l0.558-2.536L22.812,23.475z M17.531,20.964l-0.846-3.846h2.918l-0.845,3.846H17.531z"/>
	</g>
</g>
<g id="ep3-badge">
	<polygon id="_x3E_white_2_" class="st13" points="18.2,8.17 7.825,13.626 8.756,15.396 18.2,10.43 25.974,14.517 16.851,19.275 
		17.776,21.048 26.901,16.289 26.901,18 26.901,18.696 16.849,23.98 17.78,25.751 26.901,20.956 26.901,21.898 26.901,23.296 
		16.849,28.58 17.78,30.351 26.901,25.556 26.901,29.699 28.901,29.699 28.901,24.504 28.901,21.898 28.901,19.904 28.901,18 
		28.901,13.796 	"/>
	<g id="_x3E_yellow_2_">
		<g id="XMLID_68_">
			<path class="st12" d="M25.901,18.3c-0.1,0.396-0.4,0.7-0.8,0.7c-0.4,0-0.6-0.304-0.5-0.7c0.1-0.396,0.4-0.7,0.8-0.7
				S25.901,17.9,25.901,18.3z"/>
		</g>
		<g id="XMLID_67_">
			<path class="st12" d="M25.901,22.9c-0.1,0.396-0.4,0.691-0.8,0.691c-0.4,0-0.6-0.3-0.5-0.691c0.1-0.397,0.4-0.701,0.8-0.701
				S25.901,22.5,25.901,22.9z"/>
		</g>
		<g id="XMLID_66_">
			<path class="st12" d="M25.901,27.6c-0.1,0.4-0.4,0.7-0.8,0.7c-0.4,0-0.6-0.3-0.5-0.7c0.1-0.396,0.4-0.691,0.8-0.691
				S25.901,27.199,25.901,27.6z"/>
		</g>
		<path class="st12" d="M32.4,11.399L18.2,4L4,11.397v16.396l14.2,7.396l0.048-0.025l0.052,0.027v-0.06l14.1-7.344V11.399
			L32.4,11.399z M16.1,31.597l-9.9-5.19v-11.5l9.9,5.191V31.597z M30.2,26.4l-11.9,6.246V18.8L6.395,12.597L18.2,6.4l12,6.299V26.4z
			"/>
	</g>
</g>
<g id="ep2-badge">
	<g id="_x3E_white">
		<polygon class="st13" points="16.195,19.863 17.205,18.137 10.982,14.492 15.964,11.886 15.037,10.114 8,13.795 8,21.9 10,21.9 
			10,16.235 		"/>
		<polygon class="st13" points="19.2,28.048 19.2,21.1 17.2,21.1 17.2,28.06 12.058,25.411 11.142,27.189 18.203,30.826 
			25.163,27.186 24.237,25.414 		"/>
		<polygon class="st13" points="21.163,10.114 20.237,11.886 25.271,14.52 19.094,18.137 20.105,19.863 26.2,16.293 26.2,21.9 
			28.2,21.9 28.2,13.795 		"/>
	</g>
	<g id="_x3E_yellow_1_">
		<g>
			<path class="st12" d="M18.2,6.4l12,6.299V26.4l-12,6.299L6.2,26.4V12.699L18.2,6.4 M18.2,4L4,11.397v16.396l14.2,7.396
				l14.2-7.396V11.397L18.2,4L18.2,4z"/>
		</g>
	</g>
</g>
<g id="ep1-badge">
	<g id="_x3E_white_3_">
		<polygon class="st13" points="11.798,14.884 10.402,16.315 12.642,18.5 5.501,18.5 5.501,20.5 12.727,20.5 10.384,22.901 
			11.816,24.298 16.515,19.482 		"/>
		<polygon class="st13" points="22.907,13.207 21.493,11.793 19.2,14.086 19.2,6.1 17.2,6.1 17.2,14.086 14.907,11.793 
			13.493,13.207 18.2,17.914 		"/>
		<polygon class="st13" points="13.502,25.884 14.898,27.315 17.2,25.071 17.2,33 19.2,33 19.2,25.071 21.502,27.315 22.898,25.884 
			18.2,21.303 		"/>
		<polygon class="st13" points="31.7,18.5 23.702,18.5 25.989,16.324 24.61,14.875 19.768,19.482 24.593,24.307 26.007,22.893 
			23.614,20.5 31.7,20.5 		"/>
	</g>
	<g id="_x3E_yellow">
		<g>
			<path class="st12" d="M18.2,6.4l12,6.299V26.4l-12,6.299L6.2,26.4V12.699L18.2,6.4 M18.2,4L4,11.397v16.396l14.2,7.396
				l14.2-7.396V11.397L18.2,4L18.2,4z"/>
		</g>
	</g>
</g>
<g id="rank-badge-master-cadet">
	<polygon class="st13" points="30.5,4 31.3,5.7 33,6 31.8,7.2 32.099,9 30.5,8.2 29,9 29.3,7.2 28.099,6 29.8,5.7 	"/>
	<polygon class="st13" points="6.5,4 7.201,5.7 8.9,6 7.701,7.2 8,9 6.5,8.2 5,9 5.3,7.2 4,6 5.8,5.7 	"/>
	<polygon class="st12" points="15.5,33.3 13.201,32.101 13,32.2 13,32 7.9,29.3 7.9,17 16.099,12.7 16.599,10.1 5.8,15.7 
		5.8,30.601 15,35.399 	"/>
	<rect x="4" y="4" class="st14" width="29" height="39.104"/>
	<polygon class="st12" points="20.5,10.1 20.9,12.7 29.099,17 29.099,29.3 22.099,33 21.3,35.899 31.201,30.601 31.201,15.7 	"/>
	<g>
		<polygon class="st13" points="19.201,33.3 16.4,35.3 18.5,26 15,28.8 17.099,16.101 20.599,16.101 19.201,21.7 22,19.601 
			19.599,29.601 22.201,27.601 17.701,43.101 		"/>
		<rect x="13.5" y="15.399" class="st13" width="9.896" height="1.396"/>
		<polygon class="st13" points="18.5,6.899 17.099,15.399 19.9,15.399 		"/>
		<g id="XMLID_45_">
			<g id="XMLID_157_">
				<g id="XMLID_185_">
					<g id="XMLID_229_">
						<polygon class="st13" points="18.5,5.5 17.099,6.3 17.099,8.2 18.5,9 19.9,8.2 19.9,6.3 						"/>
					</g>
				</g>
			</g>
		</g>
	</g>
</g>
<g id="rank-badge-cyber-cadet">
	<polygon class="st12" points="20.75,11.1 21.051,13.3 27.75,13.3 27.75,29 21.051,33.601 20.75,36.5 29.852,30.101 29.852,11.1 	
		"/>
	<polygon class="st12" points="16.051,33.7 9.45,29.3 9.45,13.3 16.051,13.3 16.45,11.1 7.25,11.1 7.351,30.399 16.45,36.5 	"/>
	<line class="st22" x1="7.939" y1="19.672" x2="13.262" y2="19.672"/>
	<line class="st22" x1="7.939" y1="25.802" x2="14.449" y2="25.802"/>
	<line class="st22" x1="23.841" y1="19.672" x2="29.163" y2="19.672"/>
	<line class="st22" x1="22.653" y1="25.802" x2="29.163" y2="25.802"/>
	<g>
		<g>
			<g>
				<rect x="4" y="4" class="st14" width="29" height="39.104"/>
				<polygon class="st13" points="18.551,16.101 15.75,18.899 18.551,43 21.352,18.899 				"/>
			</g>
		</g>
		<rect x="13.551" y="15.399" class="st13" width="9.897" height="1.396"/>
		<polygon class="st13" points="18.551,6.899 17.15,15.399 19.95,15.399 		"/>
		<g id="XMLID_166_">
			<g id="XMLID_168_">
				<g id="XMLID_169_">
					<g id="XMLID_170_">
						<polygon class="st13" points="18.551,5.5 17.15,6.3 17.15,8.2 18.551,9 19.95,8.2 19.95,6.3 						"/>
					</g>
				</g>
			</g>
		</g>
	</g>
	<polygon class="st13" points="30.551,4 31.352,5.7 33.051,6 31.852,7.2 32.15,9 30.551,8.2 29.051,9 29.352,7.2 28.051,6 
		29.852,5.7 	"/>
	<polygon class="st13" points="6.551,4 7.25,5.7 8.95,6 7.75,7.2 8.051,9 6.551,8.2 5.051,9 5.351,7.2 4.051,6 5.75,5.7 	"/>
</g>
<g id="rank-badge-technical-cadet">
	<rect x="4" y="4" class="st14" width="29" height="39.104"/>
	<g>
		<path class="st12" d="M27.7,13.3V29l-9.2,6.396L9.4,29.2l-0.101-16h18.4 M29.8,11.1H7.2l0.1,19.299L18.601,38l11.3-7.896v-19
			L29.8,11.1L29.8,11.1z"/>
	</g>
	<line class="st22" x1="7.8" y1="19.672" x2="29.2" y2="19.672"/>
	<polygon class="st13" points="30.5,4 31.3,5.7 33,6 31.8,7.2 32.101,9 30.5,8.2 29,9 29.3,7.2 28,6 29.8,5.7 	"/>
	<polygon class="st13" points="6.401,4 7.2,5.7 8.901,6 7.7,7.2 8,9 6.401,8.2 5,9 5.2,7.2 4,6 5.7,5.7 	"/>
	<line class="st22" x1="7.8" y1="25.802" x2="29.2" y2="25.802"/>
</g>
<g id="rank-badge-cadet-first-class">
	<rect x="4" y="4" class="st14" width="29" height="39.104"/>
	<g>
		<path class="st12" d="M27.7,13.3V29l-9.2,6.396L9.4,29.2l-0.101-16h18.4 M29.8,11.1H7.2l0.1,19.299L18.602,38l11.3-7.896v-19
			L29.8,11.1L29.8,11.1z"/>
	</g>
	<line class="st22" x1="7.8" y1="21" x2="29.2" y2="21"/>
	<polygon class="st13" points="30.5,4 31.3,5.7 33,6 31.8,7.2 32.102,9 30.5,8.2 29,9 29.3,7.2 28,6 29.8,5.7 	"/>
	<polygon class="st13" points="6.401,4 7.2,5.7 8.901,6 7.7,7.2 8,9 6.401,8.2 5,9 5.2,7.2 4,6 5.7,5.7 	"/>
</g>
<g id="rank-badge-cadet">
	<rect x="4" y="4" class="st14" width="29" height="39.104"/>
	<g>
		<path class="st12" d="M27.649,13.3V29l-9.199,6.399l-9.101-6.196l-0.1-16h18.399 M29.849,11.1h-22.7L7.25,30.399l11.3,7.604
			l11.3-7.896L29.849,11.1L29.849,11.1z"/>
	</g>
	<line class="st22" x1="7.849" y1="21" x2="29.25" y2="21"/>
</g>
<g id="rank-badge-recruit">
	<g>
		<path class="st12" d="M27.75,13.3V29l-9.2,6.396L9.45,29.2l-0.101-16h18.4 M29.849,11.1h-22.7L7.25,30.399l11.3,7.604l11.3-7.896
			L29.849,11.1L29.849,11.1z"/>
	</g>
	<rect x="4" y="4" class="st14" width="29" height="39.104"/>
</g>
<g id="list-progress-base">
	<g id="hex-outer_1_">
		<g id="XMLID_1080_">
			<path class="st8" d="M18.2,7.201l11.3,5.896v12.899l-11.3,5.896L6.9,25.996V13.101L18.2,7.201 M18.2,4L4,11.396v16.4l14.2,7.396
				l14.2-7.396v-16.4L18.2,4L18.2,4z"/>
		</g>
	</g>
	<g id="hex-inner_1_">
		<g id="XMLID_2384_">
			<polygon class="st12" points="18.2,29.9 9.099,25 9.099,14.101 18.2,9.201 27.2,14.101 27.2,24.9 			"/>
		</g>
	</g>
</g>
<g id="list-progress-complete">
	<g id="hex-inner">
		<g>
			<polygon class="st23" points="21.8,13.801 25.701,16.201 21.201,16.201 20.5,16.201 27.201,21.9 27.201,14.101 18.101,9.201 
				16.101,10.201 			"/>
		</g>
		<g>
			<polygon class="st23" points="15.5,23.5 11.9,21.101 16.101,21.101 17.8,21 9.101,14.301 9.101,25 18.101,29.9 22.201,27.701 			
				"/>
		</g>
	</g>
	<g id="hex-outer">
		<polygon class="st4" points="24,28.801 18.101,32 6.8,26 6.8,13.101 10.4,11.201 8.4,9.101 4,11.4 4,27.701 18.101,35.101 
			26.8,30.601 		"/>
		<polygon class="st4" points="18.101,4 11.5,7.4 14.4,9.201 18.101,7.201 29.5,13.101 29.5,26 27.701,26.9 29.9,29 32.3,27.701 
			32.3,11.4 		"/>
	</g>
	<g id="lightning_1_">
		<g id="lightning">
			<polygon class="st12" points="7.701,6.5 21.201,14.9 17.101,14.9 28.3,24.5 23.4,24.5 30.5,31.5 16.201,22.301 21.601,22.301 
				9.601,13.101 14,12.9 			"/>
		</g>
	</g>
</g>
<g id="ctanlee">
	<circle class="st13" cx="21" cy="21" r="6.398"/>
	<path class="st5" d="M25.5,37.4c7.2-2,12.5-8.5,12.5-16.396"/>
	<path class="st5" d="M4,21c0,7.801,5.3,14.396,12.5,16.396"/>
	<path class="st5" d="M32.801,8.8c-3.1-2.896-7.2-4.8-11.8-4.8c-4.7,0-8.9,1.896-12,4.896"/>
</g>
<g id="action-btn-fist">
	<polygon class="st13" points="35.7,86.896 4,70.295 4,33.795 35.7,17.196 67.401,33.795 67.401,70.295 	"/>
	<polygon class="st8" points="35.7,84.497 6.2,68.997 6.2,34.997 35.7,19.596 65.2,34.997 65.2,68.997 	"/>
	<path class="st18" d="M42.3,12.696c0,0,7.4,2,10.104,3.4c-3.397,6.5-11.5,2.397-11.5,2.397s-2.3,2.799-3,3.603
		c11.103,5.196,26.2,0.696,26.2,0.696l-0.897,5.896l-5.603,13.5l-9.7,5L30.205,82.499L9.504,71.691l25.799-32.396l-2.698-19.104
		L42.3,12.696z"/>
	<path class="st21" d="M42.3,12.696c0,0,7.4,2,10.104,3.4c-3.397,6.5-11.5,2.397-11.5,2.397s-2.3,2.799-3,3.603
		c11.103,5.196,26.2,0.696,26.2,0.696l-0.897,5.896l-5.603,13.5l-9.7,5L30.205,82.499L9.504,71.691l25.799-32.396l-2.698-19.104
		L42.3,12.696z"/>
	<path class="st18" d="M48,5.497l-2.103-1.104c-1.8-0.896-3.897-0.2-4.8,1.5l-7,13.396l8.5,4.396l7-13.396
		C50.5,8.497,49.8,6.396,48,5.497"/>
	<path class="st21" d="M48,5.497l-2.103-1.104c-1.8-0.896-3.897-0.2-4.8,1.5l-7,13.396l8.5,4.396l7-13.396
		C50.5,8.497,49.8,6.396,48,5.497z"/>
	<path class="st18" d="M54.5,6.896l2.604,1.7c1.3,0.8,1.695,2.5,0.8,3.8l-7.3,11.2c-3-0.9-4.397-2.103-6.305-4.304l6.305-11.396
		C51.5,6.596,53.2,6.096,54.5,6.896"/>
	<path class="st21" d="M54.5,6.896l2.604,1.7c1.3,0.8,1.695,2.5,0.8,3.8l-7.3,11.2c-3-0.9-4.397-2.103-6.305-4.304l6.305-11.396
		C51.5,6.596,53.2,6.096,54.5,6.896z"/>
	<path class="st18" d="M62.5,14.997l-1.896-1.309c-1.305-0.896-3-0.5-3.805,0.7l-6.104,9.2c1.3,2,3.104,3.6,6,4l6.396-8.9
		C64,17.497,63.7,15.795,62.5,14.997"/>
	<path class="st21" d="M62.5,14.997l-1.896-1.309c-1.305-0.896-3-0.5-3.805,0.7l-6.104,9.2c1.3,2,3.104,3.6,6,4l6.396-8.9
		C64,17.497,63.7,15.795,62.5,14.997z"/>
	<path class="st18" d="M67.102,24.196l-5.302,6.9c-2.307-0.7-3.898-1.9-5.104-3.4l5.3-7.3c0.897-1.3,2.8-1.5,4-0.5l0.7,0.604
		C67.8,21.396,68.001,22.997,67.102,24.196"/>
	<path class="st21" d="M67.102,24.196l-5.302,6.9c-2.307-0.7-3.898-1.9-5.104-3.4l5.3-7.3c0.897-1.3,2.8-1.5,4-0.5l0.7,0.604
		C67.8,21.396,68.001,22.997,67.102,24.196z"/>
	<path class="st18" d="M58,34.096c0.897-0.603,3.8-3,3.8-3c-2.1-0.4-3.8-1.603-5.1-3.4l-2.803,2.7c-1.104,1-0.897,2.7,0.303,3.5
		l0.6,0.396C55.8,34.896,57.2,34.696,58,34.096"/>
	<path class="st26" d="M58,34.096c0.897-0.603,3.8-3,3.8-3c-2.1-0.4-3.8-1.603-5.1-3.4l-2.803,2.7c-1.104,1-0.897,2.7,0.303,3.5
		l0.6,0.396C55.8,34.896,57.2,34.696,58,34.096z"/>
	<path class="st18" d="M50.2,30.997L49,30.099c-0.8-0.603-1-1.7-0.5-2.603l2.2-3.897c1.397,2.5,3.397,3.8,6,4l-3.4,3.196
		C52.5,31.696,51.2,31.696,50.2,30.997"/>
	<path class="st26" d="M50.2,30.997L49,30.099c-0.8-0.603-1-1.7-0.5-2.603l2.2-3.897c1.397,2.5,3.397,3.8,6,4l-3.4,3.196
		C52.5,31.696,51.2,31.696,50.2,30.997z"/>
	<path class="st18" d="M41.602,24.795l6,4.304l3.103-5.5c-3-0.7-4.5-1.804-6.303-4.304L41.602,24.795z"/>
	<path class="st21" d="M41.602,24.795l6,4.304l3.103-5.5c-3-0.7-4.5-1.804-6.303-4.304L41.602,24.795z"/>
	<path class="st18" d="M10,71.497l20.897-33.397l-2.197-19l10.8-10.2c0,0,10.104,5.3,12.8,6.7c-3.396,6.5-10.101,2.3-10.101,2.3
		s-1.302,2.896-1.899,3.7c9,4.696,10.809,9,3.5,16.397"/>
	<path class="st25" d="M10,71.497l20.897-33.397l-2.197-19l10.8-10.2c0,0,10.104,5.3,12.8,6.7c-3.396,6.5-10.101,2.3-10.101,2.3
		s-1.302,2.896-1.899,3.7c9,4.696,10.809,9,3.5,16.397"/>
	<path class="st13" d="M26,73.696c0.897-8.3,2.8-16.5,5.604-24.6c0.195,1.8,0.396,3.6,0.695,5.3
		c1.896-5.8,4.396-11.396,7.305-16.896C39.3,39.603,39.207,41.603,39,43.603c2.3-3.5,4.7-6.804,7.397-10
		c1.303-1.603,1.7-1.2,0.603,0.5c-3.8,6.104-6.896,12.5-9.3,19c-0.103-1.804-0.2-3.603-0.2-5.396c-2.2,5.193-4,10.5-5.3,15.896
		c-0.4-1.896-0.803-3.804-1.2-5.804C28.901,62.997,27.2,68.295,26,73.696"/>
</g>
<g id="btn-lightning">
	<path class="st12" d="M4,51.002l59,12l60-12l-3-2.459L63.005,59.941L7,48.55L4,51.002z M7,18.452L62.979,7.066L120,19.42l3-2.42
		L63,4l0,0L4,16L7,18.452z"/>
	<path class="st12" d="M32.495,50.604c9.357-3.825,19.271-6.614,29.521-8.252c-1.817,1.227-3.6,2.491-5.325,3.787
		c7.282-1.253,14.733-1.91,22.276-1.934c-2.351,0.923-4.646,1.907-6.894,2.948c7.479,0.609,14.922,1.855,22.224,3.731
		c-11.213-1.329-22.346-1.171-33.122,0.346c1.834-1.153,3.716-2.266,5.646-3.336c-6.85,0.652-13.562,1.838-20.104,3.528
		c1.771-1.565,3.604-3.093,5.498-4.582C45.563,47.595,38.97,48.853,32.495,50.604z"/>
</g>
<g id="quiz-header">
	<line class="st2" x1="4" y1="34" x2="240.561" y2="34"/>
	<line class="st2" x1="320.562" y1="34" x2="557.123" y2="34"/>
	<polygon class="st9" points="294.399,52.221 282.561,58.366 260.061,46.686 260.061,21.313 267.372,17.518 263.725,13.777 
		255.061,18.275 255.061,49.724 282.561,64 299.275,55.325 	"/>
	<polygon class="st9" points="282.561,4 269.865,10.591 274.805,13.66 282.561,9.633 305.061,21.313 305.061,46.686 301.417,48.578 
		305.197,52.25 310.061,49.724 310.061,18.275 	"/>
	<polygon class="st8" points="262.561,9 288.389,25.037 280.473,25.033 301.991,43.422 292.661,43.556 306.372,56.878 
		278.834,39.354 289.183,39.166 266.184,21.461 274.454,21.204 	"/>
</g>
<g id="quiz-answer-bg">
	<polygon id="_x3E_bg" class="st17" points="5.5,308.111 5.5,29.889 103.999,5.545 202.094,29.888 202.498,308.112 104,332.455 	"/>
	<path id="_x3E_outline" class="st20" d="M103.999,7.091l96.597,23.97l0.401,275.881L104,330.913L7,306.938V31.062L103.999,7.091
		 M104,4L4,28.722v280.564L104,334l100-24.714l-0.408-280.564L104,4L104,4z"/>
	<path id="_x3E_lightning_1_" class="st20" d="M68.194,285.052c10.85-4.438,22.324-7.663,34.212-9.562
		c-2.113,1.421-4.171,2.885-6.169,4.389c8.438-1.446,17.07-2.215,25.812-2.234c-2.725,1.062-5.387,2.21-7.985,3.417
		c8.673,0.705,17.286,2.146,25.747,4.314c-12.992-1.538-25.893-1.354-38.377,0.4c2.126-1.335,4.306-2.624,6.541-3.864
		c-7.928,0.755-15.719,2.129-23.3,4.087c2.05-1.812,4.175-3.584,6.371-5.308C83.334,281.566,75.696,283.021,68.194,285.052z"/>
	<path id="_x3E_lightning" class="st20" d="M68.194,54.061c10.85-4.438,22.324-7.659,34.212-9.562
		c-2.113,1.43-4.171,2.893-6.169,4.396c8.438-1.452,17.07-2.214,25.812-2.238c-2.725,1.067-5.387,2.211-7.985,3.417
		c8.673,0.703,17.286,2.146,25.747,4.319c-12.992-1.538-25.893-1.354-38.377,0.396c2.126-1.335,4.306-2.624,6.541-3.863
		c-7.928,0.763-15.719,2.137-23.3,4.094c2.05-1.812,4.175-3.584,6.371-5.312C83.334,50.576,75.696,52.031,68.194,54.061z"/>
	<line id="_x3E_line" class="st19" x1="32.5" y1="95.5" x2="175.5" y2="95.5"/>
	<line id="_x3E_line_1_" class="st19" x1="32.5" y1="232.5" x2="175.5" y2="232.5"/>
</g>
<g id="next-question">
	<polygon class="st11" points="148.999,41.446 4,41.446 4,4 148.999,4 156.007,23.473 	"/>
</g>
<g id="btn-got-it">
	<path class="st8" d="M4,37.484c10.938-4.513,22.521-7.805,34.517-9.737c-2.134,1.447-4.207,2.938-6.226,4.469
		c8.514-1.479,17.224-2.255,26.039-2.282c-2.75,1.089-5.438,2.251-8.062,3.479c8.749,0.719,17.438,2.188,25.979,4.402
		c-13.104-1.566-26.117-1.381-38.721,0.408c2.146-1.36,4.351-2.673,6.604-3.937c-7.997,0.77-15.856,2.169-23.507,4.163
		c2.062-1.847,4.212-3.65,6.43-5.406C19.274,33.935,11.568,35.418,4,37.484z"/>
	<path class="st12" d="M26.764,10.141c-0.32,2.88-0.62,4.041-1.32,5.201c-0.96,1.621-2.26,2.441-3.841,2.441
		c-2.42,0-3.94-2.021-3.94-5.221c0-2.081,0.521-4.321,1.348-5.781C20.03,4.961,21.53,4,23.283,4c1.9,0,3.16,1.14,3.501,3.181
		l-2.653,1c-0.021-0.68-0.062-0.86-0.16-1.161c-0.146-0.44-0.5-0.68-0.979-0.68c-0.641,0-1.157,0.44-1.581,1.32
		c-0.6,1.28-0.979,3.241-0.979,5.062c0,1.78,0.521,2.68,1.54,2.68c1.021,0,1.643-0.92,1.922-2.9h-1.646l0.278-2.36L26.764,10.141
		L26.764,10.141z"/>
	<path class="st12" d="M29.642,14.022c0-1.201,0.318-2.541,0.84-3.541c0.681-1.32,1.801-2.041,3.146-2.041
		c1.802,0,2.812,1.22,2.812,3.421c0,3.581-1.561,5.881-3.961,5.881C30.621,17.742,29.642,16.442,29.642,14.022z M33.923,12.061
		c0-0.92-0.198-1.38-0.578-1.38c-0.66,0-1.224,1.58-1.224,3.4c0,0.9,0.224,1.42,0.613,1.42
		C33.402,15.502,33.923,13.941,33.923,12.061z"/>
	<path class="st12" d="M40.241,10.681h-0.84l0.261-2.061h0.848l0.302-2.46h2.461L42.97,8.62h1.001l-0.238,2.061h-1l-0.857,6.881
		h-2.464L40.241,10.681z"/>
	<path class="st12" d="M52.501,8.62h2.461l-1.104,8.942h-2.461L52.501,8.62z M52.541,6.16c0-0.96,0.84-1.78,1.772-1.78
		c0.767,0,1.36,0.6,1.36,1.38c0,0.96-0.82,1.801-1.78,1.801C53.121,7.56,52.541,6.96,52.541,6.16z"/>
	<path class="st12" d="M58.541,10.681h-0.848l0.268-2.061h0.843l0.3-2.46h2.461l-0.301,2.46h1.001l-0.24,2.061h-1l-0.854,6.881
		h-2.468L58.541,10.681z"/>
	<path class="st12" d="M66.441,14.421c0.82,0,1.46,0.64,1.46,1.46c0,1.02-0.88,1.9-1.896,1.9c-0.842,0-1.46-0.64-1.46-1.48
		C64.541,15.302,65.421,14.421,66.441,14.421z M66.401,4.219h2.562l-1.146,9.342h-2.58L66.401,4.219z"/>
</g>
<g id="btn-continue">
	<path class="st13" d="M53.56,7.064l47.439,10.121v22.418l-47.415,9.339L6.999,39.611V16.391L53.56,7.064 M53.578,4L4,13.936v28.139
		l49.578,9.938L104,42.074V14.764L53.578,4L53.578,4z"/>
	<path class="st13" d="M22.882,27.127c-1.135,0.379-1.513,0.463-2.171,0.463c-1.373,0-2.787-0.615-3.74-1.625
		c-0.799-0.854-1.232-1.979-1.232-3.229c0-2.759,2.188-4.938,4.944-4.938c0.729,0,1.317,0.127,2.199,0.478v2.899
		c-0.574-0.688-1.261-1.022-2.103-1.022c-1.457,0-2.508,1.077-2.508,2.577c0,0.798,0.268,1.429,0.826,1.891
		c0.477,0.396,1.062,0.616,1.682,0.616c0.798,0,1.473-0.308,2.103-0.979V27.127L22.882,27.127z"/>
	<path class="st13" d="M26.84,18.893c0.883-0.744,2.115-1.178,3.418-1.178c1.556,0,2.83,0.521,3.824,1.562
		c0.867,0.911,1.346,2.115,1.346,3.418c0,1.479-0.646,2.857-1.752,3.796c-0.938,0.785-2.087,1.185-3.459,1.185
		c-2.941,0-5.127-2.156-5.127-5.07C25.09,21.217,25.735,19.83,26.84,18.893z M30.258,25.321c1.457,0,2.634-1.177,2.634-2.634
		c0-1.442-1.177-2.618-2.634-2.618c-1.442,0-2.633,1.176-2.633,2.591C27.625,24.145,28.787,25.321,30.258,25.321z"/>
	<path class="st13" d="M38.04,17.995h2.423l4.469,5.723v-5.723h2.424v9.351h-2.424l-4.469-5.723v5.723H38.04V17.995z"/>
	<path class="st13" d="M51.383,20.055h-1.977v-2.062h6.415v2.062h-2.017v7.283H51.38L51.383,20.055L51.383,20.055z"/>
	<path class="st13" d="M57.892,17.995h2.424v9.351h-2.424V17.995z"/>
	<path class="st13" d="M63.45,17.995h2.426l4.468,5.723v-5.723h2.424v9.351h-2.424l-4.468-5.723v5.723H63.45V17.995z"/>
	<path class="st13" d="M83.838,23.389c0,1.373-0.238,2.114-0.911,2.871c-0.771,0.867-1.862,1.312-3.222,1.312
		c-1.431,0-2.689-0.53-3.333-1.396c-0.49-0.658-0.675-1.414-0.675-2.787v-5.396h2.426v5.062c0,1.062,0.025,1.271,0.266,1.666
		c0.267,0.445,0.771,0.715,1.357,0.715c0.616,0,1.163-0.295,1.415-0.756c0.21-0.365,0.253-0.646,0.253-1.625v-5.062h2.424V23.389
		L83.838,23.389z"/>
	<path class="st13" d="M86.774,17.995h5.311v2.062h-2.887v1.555h2.731v2.062h-2.731v1.604h2.887v2.062h-5.311V17.995z"/>
	<path class="st13" d="M23.785,39.592c9.118-3.729,18.764-6.439,28.75-8.035c-1.774,1.193-3.505,2.426-5.185,3.688
		c7.09-1.222,14.346-1.854,21.689-1.883c-2.289,0.897-4.526,1.856-6.71,2.87c7.286,0.594,14.524,1.807,21.636,3.633
		c-10.918-1.293-21.757-1.141-32.248,0.337c1.785-1.122,3.617-2.205,5.496-3.248c-6.662,0.643-13.21,1.79-19.58,3.438
		c1.723-1.522,3.508-3.013,5.354-4.459C36.509,36.663,30.089,37.887,23.785,39.592z"/>
</g>
<g id="perfect-answer">
	<g id="XMLID_2433_">
		<polygon class="st17" points="18.725,36.129 4,28.485 4,11.644 18.725,4 33.451,11.644 33.451,28.485 		"/>
	</g>
	<polygon class="st13" points="18.725,7.843 21.697,15.764 29.715,16.239 23.533,21.707 25.516,29.821 18.725,25.381 11.934,29.821 
		13.916,21.707 7.735,16.239 15.754,15.764 	"/>
</g>
<g id="quiz-btn">
	<g id="_x3E_bg_1_">
		<polygon class="st17" points="4,50 63,62 123,50 123,17 63,4 4,16 		"/>
	</g>
	<path class="st12" d="M27.545,46.795c10.854-4.434,22.326-7.664,34.213-9.562c-2.112,1.422-4.17,2.885-6.169,4.387
		c8.438-1.451,17.07-2.213,25.812-2.238c-2.729,1.068-5.395,2.209-7.983,3.416c8.672,0.705,17.284,2.148,25.746,4.322
		c-12.992-1.539-25.894-1.355-38.375,0.4c2.125-1.336,4.305-2.625,6.541-3.865c-7.933,0.756-15.721,2.129-23.302,4.088
		c2.052-1.812,4.174-3.584,6.369-5.309C42.687,43.309,35.047,44.766,27.545,46.795z"/>
</g>
<g id="btn-generic">
	<path class="st12" d="M4,51.002l59,12l60-12V17L63,4l0,0L4,16V51.002z M7,18.451L62.979,7.065L120,19.419v29.123L63.005,59.94
		L7,48.549V18.451z"/>
	<path class="st12" d="M32.495,50.604c9.365-3.825,19.271-6.614,29.529-8.252c-1.824,1.227-3.6,2.491-5.326,3.787
		c7.283-1.253,14.734-1.91,22.277-1.934c-2.351,0.923-4.648,1.907-6.893,2.948c7.483,0.609,14.921,1.855,22.223,3.731
		c-11.213-1.329-22.346-1.171-33.122,0.346c1.834-1.153,3.716-2.266,5.646-3.336c-6.844,0.652-13.564,1.838-20.106,3.528
		c1.769-1.565,3.602-3.093,5.498-4.582C45.563,47.594,38.97,48.852,32.495,50.604z"/>
</g>
<g id="speaker">
	<path class="st0" d="M32.61,58.493c10.218-2.746,17.732-11.951,17.732-22.892c0-10.941-7.515-20.146-17.732-22.891"/>
	<path class="st0" d="M40.538,67.202c14.2-4.416,24.44-16.891,24.44-31.601c0-14.71-10.24-27.185-24.44-31.601"/>
	<path class="st0" d="M28.11,47.821c5.122-2.226,8.655-6.85,8.655-12.219c0-5.371-3.533-9.996-8.655-12.221"/>
	<polygon class="st12" points="12.774,44.639 12.774,26.563 20.401,21.772 20.401,49.43 	"/>
	<rect x="4" y="26.563" class="st12" width="11.273" height="18.075"/>
</g>
<g id="no-phone">
	<path class="st12" d="M71.691,85.5H35.309V21.501h36.382V85.5z M71.886,18.501H35.115c-1.55,0-2.807,1.256-2.807,2.806v64.388
		c0,1.549,1.257,2.806,2.807,2.806h36.771c1.55,0,2.806-1.257,2.806-2.806V21.307C74.691,19.757,73.435,18.501,71.886,18.501"/>
	<path class="st12" d="M64.94,71.566H42.059V27.935h22.882L64.94,71.566L64.94,71.566z M66.587,24.935H40.414
		c-0.748,0-1.354,0.605-1.354,1.354v46.922c0,0.748,0.606,1.355,1.354,1.355h26.173c0.748,0,1.354-0.607,1.354-1.355V26.288
		C67.94,25.54,67.335,24.935,66.587,24.935"/>
	<circle class="st1" cx="53.5" cy="53.5" r="49.5"/>
	<line class="st1" x1="87.5" y1="19.5" x2="19.5" y2="87.5"/>
	<line class="st0" x1="48.5" y1="79.719" x2="58.5" y2="79.719"/>
</g>
<g id="duty">
	<path class="st20" d="M24,8.515l16,8.375v18.228l-16,8.375L8,35.117V16.89L24,8.515 M24,4L4,14.469v23.062L24,48l20-10.469V14.469
		L24,4L24,4z"/>
</g>
<g id="duty-active">
	<path class="st8" d="M24,8.515l16,8.375v18.221l-16,8.375L8,35.111V16.89L24,8.515 M24,4L4,14.469v23.062L24,48l20-10.469V14.469
		L24,4L24,4z"/>
	<polygon class="st12" points="24,40.5 11.275,33.602 11.275,18.399 24,11.5 36.726,18.399 36.726,33.602 	"/>
</g>
<g id="duty-complete">
	<polygon class="st23" points="29.197,17.963 34.619,21.318 28.237,21.314 27.411,21.314 36.728,29.252 36.728,18.399 24,11.5 
		21.205,13.016 	"/>
	<polygon class="st23" points="20.313,31.411 15.219,28.18 21.256,28.07 23.596,28.027 11.272,18.57 11.272,33.601 24,40.5 
		29.737,37.39 	"/>
	<polygon class="st4" points="32.608,39.363 24,43.869 7.637,35.304 7.637,16.696 12.953,13.914 10.302,11.17 4,14.469 4,37.531 
		24,48 36.154,41.639 	"/>
	<polygon class="st4" points="24,4 14.766,8.834 18.359,11.084 24,8.131 40.363,16.696 40.363,35.304 37.713,36.691 40.461,39.384 
		44,37.531 44,14.469 	"/>
	<polygon class="st12" points="9.454,7.667 28.238,19.428 22.482,19.424 38.131,32.91 31.345,33.008 41.316,42.777 21.289,29.927 
		28.816,29.789 12.09,16.806 18.103,16.616 	"/>
</g>
<g id="btn-acknowledge">
	<polygon id="_x3E_bg_2_" class="st20" points="5.503,55.053 5.503,18.948 95.223,5.518 186.503,20.073 186.503,55.05 
		95.231,68.484 	"/>
	<path id="_x3E_outline_1_" class="st17" d="M95.215,7.036l89.788,14.317v32.401l-89.77,13.213L7.003,53.76V20.239L95.215,7.036
		 M95.229,4L4,17.655v38.69L95.229,70L188,56.345V18.793L95.229,4L95.229,4z"/>
	<path id="_x3E_lightning_2_" class="st12" d="M60.195,50.794c10.851-4.432,22.326-7.663,34.213-9.562
		c-2.113,1.422-4.17,2.886-6.169,4.388c8.437-1.452,17.07-2.213,25.811-2.24c-2.725,1.069-5.388,2.21-7.979,3.416
		c8.673,0.706,17.286,2.149,25.746,4.323c-12.991-1.539-25.896-1.356-38.375,0.4c2.125-1.336,4.305-2.625,6.54-3.865
		c-7.935,0.756-15.726,2.13-23.307,4.088c2.057-1.813,4.182-3.584,6.371-5.309C75.337,47.309,67.698,48.765,60.195,50.794z"/>
</g>
<g id="chapter-bracket">
	<polyline class="st6" points="4,104.992 27,104.992 27,4 4,4 	"/>
</g>
<g id="tesselation">
	<rect x="4.006" y="4" class="st14" width="1024" height="768"/>
	<path class="st15" d="M158.241,148.183c-22.989,13.425-45.722,28.383-68.148,45.806C67.654,159.675,45.53,121.094,23.745,77.003
		C67.308,105.954,112.267,129.343,158.241,148.183z"/>
	<path class="st15" d="M4.004,63.43c6.553,4.655,13.134,9.178,19.741,13.573c-6.612,4.599-13.188,9.448-19.739,14.581"/>
	<path class="st15" d="M4.008,248.9c6.546,1.995,13.126,3.933,19.731,5.816c-6.606,7.11-13.188,14.545-19.735,22.339"/>
	<path class="st15" d="M23.745,432.43c-6.612,9.621-13.188,19.639-19.739,30.092"/>
	<path class="st15" d="M4,619.842c6.549-3.326,13.131-6.562,19.745-9.699c-6.605,12.133-13.188,24.736-19.739,37.85"/>
	<path class="st15" d="M298.849,191.806c-23.813,13.436-47.477,27.41-70.924,42.702c-23.449-25.637-46.692-54.072-69.688-86.325
		C204.216,167.013,251.222,181.297,298.849,191.806z"/>
	<path class="st15" d="M443.202,212.397c-24.229,15.043-48.416,29.713-72.491,44.723c-24.067-19.889-48.046-41.379-71.856-65.313
		C346.478,202.301,394.733,209.028,443.202,212.397z"/>
	<path class="st15" d="M588.812,212.397c-24.232,18.401-48.517,35.48-72.806,51.963c-24.286-16.484-48.573-33.561-72.811-51.963
		C491.67,215.751,540.345,215.751,588.812,212.397z"/>
	<path class="st15" d="M733.164,191.806c-23.812,23.934-47.787,45.423-71.857,65.313c-24.077-15.01-48.255-29.682-72.489-44.723
		C637.282,209.028,685.535,202.302,733.164,191.806z"/>
	<path class="st15" d="M873.772,148.183c-22.988,32.255-46.24,60.689-69.687,86.325c-23.45-15.293-47.107-29.267-70.929-42.701
		C780.793,181.297,827.795,167.012,873.772,148.183z"/>
	<path class="st15" d="M1008.269,77.002c-21.777,44.094-43.914,82.672-66.343,116.986c-22.438-17.423-45.166-32.379-68.153-45.806
		C919.754,129.344,964.707,105.955,1008.269,77.002z"/>
	<path class="st15" d="M1028.002,91.578c-6.545-5.131-13.123-9.979-19.729-14.575c6.612-4.395,13.188-8.917,19.739-13.572"/>
	<path class="st15" d="M4,156.163c28.115,14.279,56.849,26.818,86.088,37.826c-22.434,17.427-44.562,37.314-66.345,60.728
		c-6.612-10.876-13.188-22.187-19.739-33.969"/>
	<path class="st15" d="M227.925,234.508c-23.451,15.295-46.695,31.907-69.688,50.71c-22.984-26.876-45.721-56.921-68.15-91.229
		C134.95,210.874,181.023,224.164,227.925,234.508z"/>
	<path class="st15" d="M370.711,257.12c-24.073,15.011-48.046,30.357-71.856,46.791c-23.813-20.936-47.479-43.771-70.924-69.402
		C274.827,244.844,322.562,252.239,370.711,257.12z"/>
	<path class="st15" d="M516.006,264.36c-24.286,16.484-48.573,32.371-72.812,48.372c-24.229-17.444-48.417-35.726-72.489-55.612
		C418.863,261.99,467.437,264.356,516.006,264.36z"/>
	<path class="st15" d="M661.301,257.12c-24.076,19.886-48.264,38.169-72.491,55.612c-24.23-16.002-48.521-31.888-72.803-48.372
		C564.579,264.356,613.151,261.993,661.301,257.12z"/>
	<path class="st15" d="M804.088,234.508c-23.451,25.634-47.109,48.468-70.932,69.402c-23.812-16.434-47.785-31.779-71.854-46.791
		C709.454,252.239,757.187,244.845,804.088,234.508z"/>
	<path class="st15" d="M941.927,193.99c-22.431,34.306-45.168,64.354-68.156,91.229c-22.988-18.801-46.233-35.415-69.685-50.711
		C850.991,224.165,897.062,210.875,941.927,193.99z"/>
	<path class="st15" d="M1028.01,220.745c-6.549,11.784-13.13,23.095-19.743,33.972c-21.783-23.413-43.908-43.303-66.34-60.728
		c29.241-11.008,57.97-23.546,86.085-37.825"/>
	<path class="st15" d="M158.241,285.219c-22.989,18.803-45.722,39.801-68.148,63.978c-22.438-27.561-44.562-58.66-66.348-94.48
		C67.308,267.124,112.267,277.146,158.241,285.219z"/>
	<path class="st15" d="M298.849,303.91c-23.813,16.435-47.477,33.956-70.924,53.385c-23.449-21.499-46.692-45.204-69.688-72.075
		C204.216,293.287,251.222,299.408,298.849,303.91z"/>
	<path class="st15" d="M443.202,312.731c-24.229,16.004-48.416,32.12-72.491,49.08c-24.067-17.938-48.046-36.97-71.856-57.901
		C346.478,308.408,394.733,311.288,443.202,312.731z"/>
	<path class="st15" d="M588.812,312.731c-24.232,17.441-48.517,34.045-72.806,50.526c-24.286-16.483-48.573-33.085-72.811-50.526
		C491.67,314.167,540.345,314.167,588.812,312.731z"/>
	<path class="st15" d="M733.164,303.91c-23.812,20.931-47.787,39.96-71.857,57.901c-24.077-16.962-48.255-33.078-72.489-49.08
		C637.282,311.288,685.535,308.406,733.164,303.91z"/>
	<path class="st15" d="M873.772,285.219c-22.988,26.875-46.24,50.583-69.687,72.081c-23.45-19.437-47.107-36.949-70.929-53.384
		C780.793,299.409,827.795,293.285,873.772,285.219z"/>
	<path class="st15" d="M1008.269,254.716c-21.777,35.819-43.914,66.92-66.343,94.48c-22.438-24.177-45.166-45.171-68.153-63.978
		C919.754,277.146,964.707,267.121,1008.269,254.716z"/>
	<path class="st15" d="M1028.01,277.053c-6.547-7.793-13.128-15.227-19.741-22.336c6.613-1.883,13.194-3.821,19.741-5.816"/>
	<path class="st15" d="M4.008,341.635c28.107,2.854,56.838,5.356,86.078,7.562c-22.438,24.188-44.562,51.549-66.349,83.233
		c-6.606-8.363-13.188-17.088-19.731-26.211"/>
	<path class="st15" d="M227.925,357.294c-23.451,19.435-46.695,40.77-69.688,64.959c-22.984-21.492-45.721-45.509-68.15-73.062
		C134.95,352.574,181.023,355.227,227.925,357.294z"/>
	<path class="st15" d="M370.711,361.811c-24.073,16.964-48.046,34.769-71.856,54.203c-23.813-17.938-47.479-37.229-70.924-58.719
		C274.827,359.362,322.562,360.838,370.711,361.811z"/>
	<path class="st15" d="M516.006,363.257c-24.286,16.479-48.573,32.846-72.812,49.809c-24.229-16.48-48.417-33.322-72.489-51.255
		C418.863,362.785,467.437,363.257,516.006,363.257z"/>
	<path class="st15" d="M661.301,361.811c-24.076,17.935-48.264,34.771-72.491,51.255c-24.23-16.963-48.521-33.326-72.803-49.809
		C564.579,363.257,613.151,362.785,661.301,361.811z"/>
	<path class="st15" d="M804.088,357.295c-23.451,21.488-47.109,40.779-70.932,58.718c-23.812-19.438-47.785-37.238-71.854-54.203
		C709.454,360.835,757.187,359.36,804.088,357.295z"/>
	<path class="st15" d="M941.927,349.198c-22.431,27.552-45.168,51.562-68.156,73.062c-22.988-24.188-46.233-45.525-69.685-64.958
		C850.991,355.227,897.062,352.573,941.927,349.198z"/>
	<path class="st15" d="M1028.01,406.215c-6.549,9.123-13.13,17.85-19.743,26.215c-21.783-31.688-43.908-59.05-66.34-83.232
		c29.239-2.2,57.967-4.707,86.081-7.562"/>
	<path class="st15" d="M158.241,422.254c-22.989,24.188-45.722,51.217-68.148,82.146c-22.438-20.805-44.562-44.426-66.348-71.975
		C67.308,428.295,112.267,424.947,158.241,422.254z"/>
	<path class="st15" d="M298.849,416.014c-23.813,19.438-47.477,40.5-70.924,64.062c-23.449-17.357-46.692-36.338-69.688-57.822
		C204.216,419.561,251.222,417.518,298.849,416.014z"/>
	<path class="st15" d="M443.202,413.066c-24.229,16.963-48.416,34.525-72.491,53.438c-24.067-15.984-48.046-32.562-71.856-50.488
		C346.478,414.514,394.733,413.547,443.202,413.066z"/>
	<path class="st15" d="M588.812,413.066c-24.232,16.48-48.517,32.607-72.806,49.088c-24.286-16.479-48.573-32.604-72.811-49.088
		C491.67,412.586,540.345,412.586,588.812,413.066z"/>
	<path class="st15" d="M733.164,416.014c-23.812,17.93-47.787,34.504-71.857,50.482c-24.077-18.906-48.255-36.473-72.489-53.436
		C637.282,413.547,685.535,414.51,733.164,416.014z"/>
	<path class="st15" d="M873.772,422.254c-22.988,21.486-46.24,40.465-69.687,57.822c-23.45-23.562-47.107-44.635-70.929-64.062
		C780.793,417.518,827.795,419.561,873.772,422.254z"/>
	<path class="st15" d="M1008.269,432.43c-21.777,27.547-43.914,51.172-66.343,71.975c-22.438-30.934-45.166-57.961-68.153-82.145
		C919.754,424.951,964.707,428.295,1008.269,432.43z"/>
	<path class="st15" d="M1028.01,462.523c-6.547-10.453-13.128-20.473-19.741-30.094c6.61,0.629,13.188,1.271,19.733,1.938"/>
	<path class="st15" d="M4.004,527.105c28.115-8.566,56.847-16.092,86.084-22.699c-22.434,30.938-44.562,65.783-66.345,105.738
		c-6.612-5.855-13.188-11.996-19.739-18.457"/>
	<path class="st15" d="M227.925,480.082c-23.451,23.57-46.695,49.646-69.688,79.209c-22.984-16.107-45.721-34.088-68.15-54.885
		C134.95,494.271,181.023,486.291,227.925,480.082z"/>
	<path class="st15" d="M370.711,466.504c-24.073,18.908-48.046,39.178-71.856,61.607c-23.813-14.934-47.479-30.678-70.924-48.035
		C274.827,473.873,322.562,469.436,370.711,466.504z"/>
	<path class="st15" d="M516.006,462.154c-24.286,16.484-48.573,33.324-72.812,51.246c-24.229-15.52-48.417-30.912-72.489-46.895
		C418.863,463.58,467.437,462.158,516.006,462.154z"/>
	<path class="st15" d="M661.301,466.504c-24.076,15.979-48.264,31.377-72.491,46.895c-24.23-17.924-48.521-34.764-72.803-51.246
		C564.579,462.16,613.151,463.578,661.301,466.504z"/>
	<path class="st15" d="M804.088,480.082c-23.451,17.357-47.109,33.104-70.932,48.035c-23.812-22.436-47.785-42.701-71.854-61.607
		C709.454,469.436,757.187,473.875,804.088,480.082z"/>
	<path class="st15" d="M941.927,504.406c-22.431,20.797-45.168,38.771-68.156,54.883c-22.988-29.561-46.233-55.637-69.685-79.207
		C850.991,486.287,897.062,494.273,941.927,504.406z"/>
	<path class="st15" d="M1028.01,591.688c-6.549,6.461-13.13,12.604-19.743,18.455c-21.783-39.957-43.908-74.799-66.34-105.736
		c29.241,6.605,57.97,14.131,86.086,22.699"/>
	<path class="st15" d="M158.241,559.289c-22.989,29.57-45.722,62.641-68.148,100.324c-22.438-14.045-44.562-30.188-66.348-49.471
		C67.308,589.463,112.267,572.752,158.241,559.289z"/>
	<path class="st15" d="M4.004,712.49c76.556-54.496,157.853-90.742,241.562-114.812c100.146-28.488,203.746-39.562,306.866-36.105
		c103.119,3.768,205.761,22.049,304.046,59.453c59.021,22.65,116.478,52.195,171.527,91.258"/>
	<path class="st15" d="M298.849,528.117c-23.813,22.439-47.477,47.047-70.924,74.75c-23.449-13.227-46.692-27.469-69.688-43.578
		C204.216,545.838,251.222,535.627,298.849,528.117z"/>
	<path class="st15" d="M443.202,513.4c-24.229,17.926-48.416,36.932-72.491,57.795c-24.067-14.035-48.046-28.146-71.856-43.078
		C346.478,520.617,394.733,515.809,443.202,513.4z"/>
	<path class="st15" d="M588.812,513.4c-24.232,15.521-48.517,31.17-72.806,47.65c-24.286-16.48-48.573-32.129-72.811-47.65
		C491.67,511.002,540.345,511.002,588.812,513.4z"/>
	<path class="st15" d="M733.164,528.117c-23.812,14.936-47.787,29.045-71.857,43.078c-24.077-20.863-48.255-39.869-72.489-57.795
		C637.282,515.809,685.535,520.617,733.164,528.117z"/>
	<path class="st15" d="M873.772,559.289c-22.988,16.107-46.24,30.355-69.687,43.578c-23.45-27.705-47.107-52.311-70.929-74.75
		C780.793,535.627,827.795,545.836,873.772,559.289z"/>
	<path class="st15" d="M1008.269,610.143c-21.777,19.271-43.914,35.424-66.343,49.471c-22.438-37.688-45.166-70.752-68.153-100.324
		C919.754,572.752,964.707,589.463,1008.269,610.143z"/>
	<path class="st15" d="M1028.006,647.984c-6.552-13.111-13.125-25.711-19.737-37.842c6.612,3.141,13.194,6.371,19.741,9.697"/>
</g>
<g id="lightning-fist">
	<line class="st10" x1="239.281" y1="86.228" x2="4" y2="86.228"/>
	<line class="st3" x1="239.281" y1="109.561" x2="115" y2="109.561"/>
	<line class="st10" x1="335" y1="86.228" x2="570.281" y2="86.228"/>
	<line class="st3" x1="335" y1="109.561" x2="459.281" y2="109.561"/>
	<polygon class="st12" points="321.09,70.65 323.229,69.733 313.185,64.475 312.241,66.019 	"/>
	<polygon class="st12" points="326.575,90.768 328.381,90.983 328.381,80.46 326.575,81.442 	"/>
	<polygon class="st12" points="328.381,103.205 326.575,103.161 326.575,113.203 328.381,114.552 	"/>
	<polygon class="st12" points="301.181,60.229 302.274,58.765 293.562,54.204 293.515,56.215 	"/>
	<polygon class="st12" points="247.534,102.85 245.728,102.636 245.728,113.667 247.534,112.685 	"/>
	<polygon class="st12" points="253.866,70.208 262.24,65.824 261.526,64.161 252.069,69.11 	"/>
	<polygon class="st12" points="273.229,60.071 281.272,55.861 281.53,53.688 272.366,58.485 	"/>
	<polygon class="st12" points="245.728,79.176 245.728,90.428 247.534,90.473 247.534,80.525 	"/>
	<path class="st13" d="M282.671,59.385l6.115-4.312l-1.952,16.062l2.232,0.22c0.813,0.06,1.592,0.361,2.245,0.847l0.608-24.8
		l-4.562,3.783l1.773-26.329l-4.562,3.791L286.168,4l-6.076,32.804l5.834-4.852L282.671,59.385z"/>
	<path class="st13" d="M309.438,61.49l-10.419,13.86c1.076,0.188,2.026,0.754,2.701,1.627c0.357,0.476,0.604,1.011,0.752,1.573
		l13.521-22.141l-5.845,0.995l14.705-21.913L319,36.494l13.705-20.545l-21.664,25.364l7.479-1.277l-16.536,22.122L309.438,61.49z"/>
	<path class="st13" d="M317.325,74.23l6.789,3.141l-13.776,5.868c0,0.247-0.013,0.493-0.057,0.744l-0.826,4.731l22.873-12.461
		l-5.558-2.062l23.688-11.625l-5.562-2.056l22.143-10.938l-31.444,11.133l7.113,2.639L317.325,74.23z"/>
	<path class="st13" d="M253.662,41.254l10.891,25.389l3.146-6.791l5.677,13.328c0.123-0.015,0.241-0.038,0.366-0.038h3.044
		c0.588,0,1.142,0.109,1.67,0.289l-11.874-21.794l-2.062,5.56l-11.625-23.688l-2.059,5.562l-10.938-22.143l11.135,31.439
		L253.662,41.254z"/>
	<polygon class="st13" points="347.157,89.771 352.003,95.606 324.575,92.347 328.885,98.463 309.017,96.047 309.46,100.933 
		336.558,101.603 332.772,97.039 359.102,98.816 355.312,94.254 379.957,95.853 	"/>
	<polygon class="st13" points="231.644,72.914 230.365,65.438 252.487,81.975 251.812,74.523 267.177,86.071 268.27,82.896 
		268.27,81.12 246.737,67.968 247.733,73.813 225.82,59.107 226.823,64.955 206.278,51.249 	"/>
	<polygon class="st13" points="343.508,121.59 344.786,129.066 322.663,112.531 323.338,119.982 310.138,110.061 307.534,113.784 
		328.412,126.537 327.418,120.692 349.33,135.397 348.329,129.55 368.873,143.256 	"/>
	<polygon class="st13" points="249.302,117.135 267.666,109.312 264.911,105.272 241.087,118.251 246.646,120.313 222.956,131.936 
		228.52,133.993 206.378,144.932 237.823,133.797 230.709,131.166 256.092,120.276 	"/>
	<polygon class="st13" points="222.281,98.031 249.708,101.291 245.398,95.174 263.297,97.35 264.894,92.708 237.727,92.035 
		241.51,96.6 215.181,94.821 218.972,99.384 194.328,97.786 227.126,103.867 	"/>
	<path class="st12" d="M319.094,122.96l-16.286,8.525l-0.062-9.26l8.196-11.729l-1.575-17.363l1.588-9.096
		c0.405-2.33-1.08-4.569-3.387-5.104l-1.196-0.279c-1.115-0.261-2.293-0.054-3.277,0.531c-0.069-0.83-0.366-1.627-0.892-2.309
		c-0.729-0.952-1.789-1.562-2.979-1.716l-2.932-0.361c-1.04-0.142-2.062,0.118-2.938,0.68c-0.021-1.021-0.362-1.991-1.03-2.779
		c-0.779-0.924-1.872-1.479-3.056-1.562l-4.116-0.403c-1.227-0.089-2.409,0.315-3.321,1.146c-0.748,0.68-1.213,1.562-1.382,2.535
		c-0.992-0.896-2.294-1.463-3.735-1.463h-3.106c-3.082,0-5.589,2.512-5.589,5.594v4.389l-6.387,18.546l14.099,20.671l-1.854,10.683
		l-19.13-10.013l-2.139,0.917l34.449,18.032l33.836-17.71L319.094,122.96z M302.779,82.629c0.104-0.729,0.499-1.361,1.108-1.78
		c0.607-0.418,1.342-0.562,2.062-0.396l1.195,0.28c1.354,0.312,2.225,1.628,1.98,2.994l-1.831,10.486
		c-2.135,0.35-4.141,0.146-6.102-0.612L302.779,82.629z M306.549,96.292c-0.605,1.435-1.445,3.375-1.803,4.122
		c-0.416,0.893-1.549,1.748-2.723,1.605l-0.874-0.093c-0.619-0.065-1.167-0.403-1.501-0.936c-0.336-0.521-0.411-1.16-0.212-1.749
		l1.299-3.812C302.745,96.254,304.672,96.542,306.549,96.292z M293.136,78.97c0.069-0.707,0.412-1.347,0.975-1.785
		c0.555-0.444,1.254-0.646,1.959-0.561l2.925,0.37c0.698,0.086,1.321,0.444,1.748,1.003c0.43,0.562,0.612,1.259,0.515,1.952
		l-1.894,13.521c-2.563,0.751-4.996,0.494-7.562-0.807L293.136,78.97z M291.704,94.762c2.309,1.146,4.659,1.438,7.012,0.872
		l-1.021,3.018c-0.002,0.003-0.001,0.006-0.005,0.011l-0.327,0.965c-0.354,1.037-1.385,1.664-2.479,1.481l-1.894-0.312
		c-0.817-0.141-1.417-0.86-1.396-1.688L291.704,94.762z M282.213,75.118c0.021-0.724,0.32-1.389,0.856-1.874
		c0.534-0.479,1.224-0.716,1.938-0.674l4.104,0.402c0.707,0.053,1.348,0.379,1.807,0.92c0.455,0.539,0.671,1.226,0.604,1.93
		l-1.56,16.6c-2.694,0.479-4.6,0.23-6.938-0.573c1.008-0.399,2.016-0.977,2.896-1.79c1.812-1.682,2.729-4.021,2.729-6.975v-0.923
		h-6.354v-3.616c0-0.416-0.054-0.813-0.14-1.208L282.213,75.118z M289.915,100.189c-1.77-1.735-4.336-3.008-7.995-3.572
		l-0.071-3.133l-0.024-0.128c1.94,0.719,3.674,1.146,5.618,1.146c0.758,0,1.57-0.089,2.434-0.22l-0.122,4.773
		C289.738,99.45,289.802,99.829,289.915,100.189z M269.857,78.545c0-2.062,1.678-3.739,3.743-3.739h3.105
		c1.729,0,3.165,1.179,3.603,2.767l-0.108,4.595h-10.343V78.545z M275.59,133.729l2.079-12.003l-13.993-20.523l5.915-17.19h17.186
		c-0.162,1.973-0.864,3.546-2.089,4.687c-2.688,2.501-7.095,2.216-7.141,2.209l-1.062-0.078l0.079,1.067
		c0.111,1.541,0.226,4.288,0.021,5.09l-0.288,1.146h1.187c11.646,0,14.247,5.471,14.562,13.681c0.021,0.496,0.432,0.888,0.92,0.888
		c0.019,0,0.023,0,0.037-0.002c0.508-0.02,0.904-0.448,0.889-0.958c-0.133-3.38-0.645-6.785-2.36-9.54
		c0.353,0.203,0.746,0.354,1.166,0.418l1.896,0.314c0.229,0.037,0.452,0.056,0.675,0.056c1.056,0,2.038-0.408,2.78-1.104
		c0.021,0.038,0.032,0.075,0.061,0.109c0.639,1.001,1.682,1.646,2.857,1.771l0.875,0.093c0.146,0.019,0.293,0.023,0.438,0.023
		c1.896,0,3.501-1.305,4.146-2.686c0.313-0.675,0.994-2.241,1.573-3.586l1.054,12.386l-8.146,11.651l0.069,10.798l-7.089,3.709
		v-8.248c0-0.511-0.409-0.924-0.924-0.924c-0.51,0-0.921,0.413-0.921,0.924v9.213l-4.979,2.609L275.59,133.729z M278.462,92.756
		c0.479-0.021,1.094-0.066,1.778-0.176l-0.031,3.826c-0.552-0.047-1.101-0.096-1.696-0.107
		C278.573,95.184,278.515,93.725,278.462,92.756z"/>
</g>
<g id="chapter-progress-chapter">
	<path id="_x3E_teal_4_" class="st20" d="M12,7.402l5,2.681v5.842l-5,2.676l-5-2.676v-5.842L12,7.402 M12,4L4,8.277v9.438l8,4.282
		l8-4.282V8.277L12,4L12,4z"/>
</g>
<g id="chapter-progress-slide">
	<rect x="4" y="4" class="st20" width="9" height="9"/>
</g>
<g id="chapter-progress-quiz">
	<polygon id="_x3E_teal_2_" class="st20" points="23.668,28.111 17.75,31.184 6.5,25.344 6.5,12.656 10.155,10.76 8.332,8.889 
		4,11.138 4,26.862 17.75,34 26.106,29.662 	"/>
	<polygon id="_x3E_teal_1_" class="st20" points="17.75,4 11.401,7.296 13.872,8.83 17.75,6.816 29,12.656 29,25.344 27.178,26.289 
		29.067,28.125 31.5,26.862 31.5,11.138 	"/>
	<g>
		<polygon class="st8" points="7.75,6.5 20.664,14.519 16.706,14.517 27.465,23.711 22.8,23.778 29.655,30.439 15.886,21.678 
			21.061,21.583 9.561,12.731 13.695,12.603 		"/>
	</g>
</g>
<g id="chapter-progress-duties">
	<circle id="_x3E_teal" class="st20" cx="8.5" cy="8.5" r="4.5"/>
</g>
<g id="closed-caption-btn">
	<path class="st7" d="M23.145,7c1.692,0,3.068,1.376,3.068,3.068v7.863c0,1.692-1.376,3.068-3.068,3.068H10.063
		C8.376,20.999,7,19.623,7,17.931v-7.863C7,8.376,8.376,7,10.063,7H23.145 M23.145,4H10.063C6.712,4,4,6.717,4,10.068v7.863
		c0,3.352,2.716,6.068,6.063,6.068h13.081c3.354,0,6.068-2.717,6.068-6.068v-7.863C29.213,6.716,26.496,4,23.145,4L23.145,4z"/>
	<path class="st7" d="M15.146,17.843c-0.567,0.234-0.896,0.312-1.391,0.312c-1.053,0-2.002-0.469-2.652-1.313
		c-0.606-0.793-0.909-1.819-0.909-3.146c0-1.456,0.363-2.549,1.135-3.381c0.697-0.754,1.625-1.144,2.701-1.144
		c0.455,0,0.739,0.052,1.155,0.208v2.482c-0.39-0.39-0.663-0.52-1.079-0.52c-0.944,0-1.521,0.871-1.521,2.314
		c0,1.403,0.546,2.235,1.481,2.235c0.438,0,0.755-0.143,1.223-0.559L15.146,17.843z"/>
	<path class="st7" d="M22.18,17.843c-0.571,0.234-0.896,0.312-1.391,0.312c-1.057,0-2.002-0.469-2.652-1.313
		c-0.61-0.793-0.91-1.819-0.91-3.146c0-1.456,0.364-2.549,1.132-3.381c0.701-0.754,1.625-1.144,2.704-1.144
		c0.455,0,0.74,0.052,1.156,0.208v2.482c-0.39-0.39-0.663-0.52-1.079-0.52c-0.947,0-1.521,0.871-1.521,2.314
		c0,1.403,0.546,2.235,1.479,2.235c0.441,0,0.754-0.143,1.226-0.559L22.18,17.843z"/>
</g>
<g id="playhead">
	<path class="st12" d="M12,4L4,8.282v9.438L12,22l8-4.279V8.282L12,4L12,4z"/>
	<polygon class="st20" points="7.039,15.914 7.039,10.085 12,7.43 16.961,10.085 16.961,15.914 12,18.57 	"/>
</g>
<g id="pause-btn">
	<g>
		<path class="st20" d="M18,7.367l11,5.605v12.052L18,30.63L7,25.024V12.973L18,7.367 M18,4L4,11.138v15.728l14,7.138l14-7.138
			V11.138L18,4L18,4z"/>
	</g>
	<g id="_x3E_pause">
		<g>
			<rect x="13.5" y="13" class="st12" width="3" height="12"/>
		</g>
		<g>
			<rect x="19.5" y="13" class="st12" width="3" height="12"/>
		</g>
	</g>
	<g id="_x3E_play">
		<polygon class="st12" points="14.67,24.993 14.67,12.749 22.97,18.871 		"/>
	</g>
	<g id="_x3E_replay">
		<path class="st16" d="M17.819,13.11c3.182,0,5.761,2.58,5.761,5.761s-2.579,5.761-5.761,5.761c-3.182,0-5.761-2.58-5.761-5.761"/>
		<polygon class="st12" points="19.306,16.845 14.55,12.932 19.306,9.804 		"/>
	</g>
</g>
</svg>
