<?xml version="1.0" encoding="utf-8"?>
<!-- Generator: Adobe Illustrator 15.0.0, SVG Export Plug-In . SVG Version: 6.00 Build 0)  -->
<!DOCTYPE svg PUBLIC "-//W3C//DTD SVG 1.1//EN" "http://www.w3.org/Graphics/SVG/1.1/DTD/svg11.dtd">
<svg version="1.1" id="Layer_1" xmlns="http://www.w3.org/2000/svg" xmlns:xlink="http://www.w3.org/1999/xlink" x="0px" y="0px"
	 width="2328.031px" height="768.5px" viewBox="0 0 2328.031 768.5" style="enable-background:new 0 0 2328.031 768.5;"
	 xml:space="preserve">
<style type="text/css">
<![CDATA[
	.st0{clip-path:url(#SVGID_6_);fill:none;stroke:#F9773E;stroke-miterlimit:10;}
	.st1{fill:none;stroke:#FFB81A;stroke-width:3;stroke-linecap:round;stroke-linejoin:round;stroke-miterlimit:10;}
	.st2{fill:none;stroke:#E03F07;stroke-width:3;stroke-miterlimit:10;}
	.st3{clip-path:url(#SVGID_16_);fill:none;stroke:#F9773E;stroke-miterlimit:10;}
	.st4{fill:none;stroke:#6B989F;stroke-width:2;stroke-miterlimit:10;}
	.st5{fill:none;stroke:#6B989F;stroke-width:0.7797;stroke-miterlimit:10;}
	.st6{fill:#53848C;}
	.st7{fill:none;stroke:#FFFFFF;stroke-width:6;stroke-miterlimit:10;}
	.st8{fill:none;stroke:#F9773E;stroke-miterlimit:10;}
	.st9{fill:none;stroke:#FFB81A;stroke-width:4;stroke-miterlimit:10;}
	.st10{clip-path:url(#SVGID_14_);fill:none;stroke:#F9773E;stroke-miterlimit:10;}
	.st11{fill:#262626;}
	.st12{fill:#F9773E;}
	.st13{opacity:0.5;fill:#6B989F;enable-background:new    ;}
	.st14{fill:none;stroke:#6B989F;stroke-miterlimit:10;}
	.st15{fill:#FF7931;}
	.st16{fill:#FFB81A;}
	.st17{fill:#FFFFFF;}
	.st18{clip-path:url(#SVGID_12_);fill:none;stroke:#F9773E;stroke-miterlimit:10;}
	.st19{fill:none;}
	.st20{clip-path:url(#SVGID_2_);fill:#F9773E;}
	.st21{fill:none;stroke:#335E6E;stroke-miterlimit:10;}
	.st22{fill:none;stroke:#335E6E;stroke-width:2;stroke-miterlimit:10;}
	.st23{fill:none;stroke:#FFB81A;stroke-width:2.4838;stroke-miterlimit:10;}
	.st24{fill:#335E6E;}
	.st25{fill:#345D6E;}
	.st26{fill:none;stroke:#FFB81A;stroke-width:2;stroke-linecap:round;stroke-miterlimit:10;}
	.st27{fill:#6B989F;}
	.st28{fill:none;stroke:#FFFFFF;stroke-width:1.4167;stroke-miterlimit:10;}
	.st29{clip-path:url(#SVGID_4_);fill:none;stroke:#F9773E;stroke-width:2;stroke-miterlimit:10;}
	.st30{fill:none;stroke:#F9773E;stroke-width:2;stroke-miterlimit:10;}
	.st31{clip-path:url(#SVGID_10_);fill:none;stroke:#F9773E;stroke-miterlimit:10;}
	.st32{fill:none;stroke:#FFB81A;stroke-width:2.9184;stroke-miterlimit:10;}
	.st33{clip-path:url(#SVGID_8_);fill:none;stroke:#F9773E;stroke-miterlimit:10;}
	.st34{fill:#71A8A8;}
	.st35{fill:#FFFFFF;stroke:#231F20;stroke-miterlimit:10;}
	.st36{clip-path:url(#SVGID_20_);fill:none;stroke:#F9773E;stroke-miterlimit:10;}
	.st37{clip-path:url(#SVGID_18_);fill:none;stroke:#F9773E;stroke-miterlimit:10;}
	.st38{fill:none;stroke:#FFFFFF;stroke-width:1.4167;stroke-linecap:round;stroke-miterlimit:10;}
	.st39{fill:none;stroke:#FFFFFF;stroke-width:1.4167;stroke-miterlimit:1;}
]]>
</style>
<symbol  id="New_Symbol" viewBox="-10.3 -10.3 20.6 20.6">
	<polygon class="st35" points="9.8,-9.8 -9.8,-9.8 -9.8,9.8 9.8,9.8 	"/>
</symbol>
<g id="first">
	
		<use xlink:href="#New_Symbol"  width="20.6" height="20.6" x="-10.3" y="-10.3" transform="matrix(0.7046 0 0 -0.7046 11.2573 11.2573)" style="overflow:visible;"/>
</g>
<g id="ep5-badge">
	<path id="_x3E_white_1_" class="st17" d="M26.599,12.5H9.8v6.9h0.098v6.462l7.933,2.203l0.535-1.931l-6.468-1.797v-5.339h9.001
		v0.257c-0.101,0.495-0.286,1.021-0.632,1.393c-0.347,0.366-0.828,0.55-1.468,0.55h-2.6h-0.6v2h0.6h2.6h3.8v3.801h2v-3.801h2V12.5
		L26.599,12.5z M17.199,14.5v2.503H15.5V14.5H17.199z M11.8,17.003V14.5h1.7v2.503H11.8z M19.199,17.003V14.5h1.7v2.503H19.199z
		 M24.599,21.199h-1.7v-1.704c0.141-0.795,0.106-1.438,0.097-1.563l-0.066-0.929h-0.031V14.5h1.7V21.199z"/>
	<g id="_x3E_yellow_3_">
		<g>
			<path class="st16" d="M18.199,6.4l12,6.299V26.4l-12,6.299l-12-6.299V12.699L18.199,6.4 M18.199,4L4,11.399v16.396l14.199,7.396
				l14.2-7.396V11.4L18.199,4L18.199,4z"/>
		</g>
	</g>
</g>
<g id="ep4-badge">
	<g id="_x3E_white_4_">
		<rect x="23.383" y="25.405" class="st17" width="8.213" height="2.123"/>
		<rect x="5.415" y="25.405" class="st17" width="7.354" height="2.123"/>
	</g>
	<g id="_x3E_yellow_4_">
		<path id="XMLID_403_" class="st16" d="M18.152,6.396l12.029,6.296v13.75l-12.029,6.297L6.123,26.442v-13.75L18.152,6.396
			 M18.152,4L4,11.408v16.317l14.152,7.408l14.152-7.408V11.408L18.152,4L18.152,4z"/>
		<path class="st16" d="M18.144,14.56c-1.564,0-2.836-1.271-2.836-2.836c0-1.562,1.272-2.835,2.836-2.835
			c1.563,0,2.835,1.272,2.835,2.835C20.98,13.288,19.708,14.56,18.144,14.56z M18.144,10.688c-0.571,0-1.036,0.468-1.036,1.036
			c0,0.571,0.465,1.036,1.036,1.036c0.571,0,1.036-0.465,1.036-1.036C19.18,11.153,18.715,10.688,18.144,10.688z"/>
		<path class="st16" d="M22.812,23.475l1.638-0.746l-2.858-6.271l0.25-1.139h-7.395l0.248,1.128l-2.863,6.279l1.638,0.746
			l1.869-4.101l0.56,2.548l-0.651,7.104v0.688h1.8l-0.004-0.604l0.584-6.346h1.033l0.58,6.263v0.688h1.8l-0.004-0.771l-0.646-7.021
			l0.558-2.536L22.812,23.475z M17.531,20.964l-0.846-3.846h2.918l-0.845,3.846H17.531z"/>
	</g>
</g>
<g id="ep3-badge">
	<polygon id="_x3E_white_2_" class="st17" points="18.2,8.17 7.825,13.626 8.756,15.396 18.2,10.43 25.974,14.517 16.851,19.275 
		17.776,21.048 26.901,16.289 26.901,18 26.901,18.696 16.849,23.98 17.78,25.751 26.901,20.956 26.901,21.898 26.901,23.296 
		16.849,28.58 17.78,30.351 26.901,25.556 26.901,29.699 28.901,29.699 28.901,24.504 28.901,21.898 28.901,19.904 28.901,18 
		28.901,13.796 	"/>
	<g id="_x3E_yellow_2_">
		<g id="XMLID_68_">
			<path class="st16" d="M25.901,18.3c-0.1,0.396-0.4,0.7-0.8,0.7c-0.4,0-0.6-0.304-0.5-0.7c0.1-0.396,0.4-0.7,0.8-0.7
				S25.901,17.9,25.901,18.3z"/>
		</g>
		<g id="XMLID_67_">
			<path class="st16" d="M25.901,22.9c-0.1,0.396-0.4,0.693-0.8,0.693c-0.4,0-0.6-0.3-0.5-0.693c0.1-0.397,0.4-0.701,0.8-0.701
				S25.901,22.5,25.901,22.9z"/>
		</g>
		<g id="XMLID_66_">
			<path class="st16" d="M25.901,27.6c-0.1,0.4-0.4,0.7-0.8,0.7c-0.4,0-0.6-0.3-0.5-0.7c0.1-0.396,0.4-0.693,0.8-0.693
				S25.901,27.199,25.901,27.6z"/>
		</g>
		<path class="st16" d="M32.4,11.399L18.2,4L4,11.397v16.396l14.2,7.396l0.048-0.025l0.052,0.027v-0.058l14.1-7.344V11.399
			L32.4,11.399z M16.1,31.597l-9.9-5.192v-11.5l9.9,5.193V31.597z M30.2,26.4l-11.9,6.246V18.8L6.395,12.597L18.2,6.4l12,6.299V26.4
			z"/>
	</g>
</g>
<g id="ep2-badge">
	<g id="_x3E_white">
		<polygon class="st17" points="16.195,19.863 17.205,18.137 10.982,14.492 15.964,11.886 15.037,10.114 8,13.795 8,21.9 10,21.9 
			10,16.235 		"/>
		<polygon class="st17" points="19.2,28.048 19.2,21.1 17.2,21.1 17.2,28.06 12.058,25.411 11.142,27.189 18.203,30.826 
			25.163,27.186 24.237,25.414 		"/>
		<polygon class="st17" points="21.163,10.114 20.237,11.886 25.271,14.52 19.094,18.137 20.105,19.863 26.2,16.293 26.2,21.9 
			28.2,21.9 28.2,13.795 		"/>
	</g>
	<g id="_x3E_yellow_1_">
		<g>
			<path class="st16" d="M18.2,6.4l12,6.299V26.4l-12,6.299L6.2,26.4V12.699L18.2,6.4 M18.2,4L4,11.397v16.396l14.2,7.396
				l14.2-7.396V11.397L18.2,4L18.2,4z"/>
		</g>
	</g>
</g>
<g id="ep1-badge">
	<g id="_x3E_white_3_">
		<polygon class="st17" points="11.798,14.884 10.402,16.315 12.642,18.5 5.501,18.5 5.501,20.5 12.727,20.5 10.384,22.901 
			11.816,24.298 16.515,19.482 		"/>
		<polygon class="st17" points="22.907,13.207 21.493,11.793 19.2,14.086 19.2,6.1 17.2,6.1 17.2,14.086 14.907,11.793 
			13.493,13.207 18.2,17.914 		"/>
		<polygon class="st17" points="13.502,25.884 14.898,27.315 17.2,25.071 17.2,33 19.2,33 19.2,25.071 21.502,27.315 22.898,25.884 
			18.2,21.303 		"/>
		<polygon class="st17" points="31.7,18.5 23.702,18.5 25.989,16.324 24.61,14.875 19.768,19.482 24.593,24.307 26.007,22.893 
			23.614,20.5 31.7,20.5 		"/>
	</g>
	<g id="_x3E_yellow">
		<g>
			<path class="st16" d="M18.2,6.4l12,6.299V26.4l-12,6.299L6.2,26.4V12.699L18.2,6.4 M18.2,4L4,11.397v16.396l14.2,7.396
				l14.2-7.396V11.397L18.2,4L18.2,4z"/>
		</g>
	</g>
</g>
<g id="rank-badge-master-cadet">
	<polygon class="st17" points="30.5,4 31.3,5.7 33,6 31.8,7.2 32.1,9 30.5,8.2 29,9 29.3,7.2 28.1,6 29.8,5.7 	"/>
	<polygon class="st17" points="6.5,4 7.201,5.7 8.901,6 7.701,7.2 8,9 6.5,8.2 5,9 5.3,7.2 4,6 5.8,5.7 	"/>
	<polygon class="st16" points="15.5,33.3 13.201,32.101 13,32.2 13,32 7.901,29.3 7.901,17 16.1,12.7 16.6,10.1 5.8,15.7 
		5.8,30.601 15,35.399 	"/>
	<rect x="4" y="4" class="st19" width="29" height="39.104"/>
	<polygon class="st16" points="20.5,10.1 20.901,12.7 29.1,17 29.1,29.3 22.1,33 21.3,35.899 31.201,30.601 31.201,15.7 	"/>
	<g>
		<polygon class="st17" points="19.201,33.3 16.401,35.3 18.5,26 15,28.8 17.1,16.101 20.6,16.101 19.201,21.7 22,19.601 
			19.6,29.601 22.201,27.601 17.701,43.101 		"/>
		<rect x="13.5" y="15.399" class="st17" width="9.897" height="1.396"/>
		<polygon class="st17" points="18.5,6.899 17.1,15.399 19.901,15.399 		"/>
		<g id="XMLID_45_">
			<g id="XMLID_157_">
				<g id="XMLID_185_">
					<g id="XMLID_229_">
						<polygon class="st17" points="18.5,5.5 17.1,6.3 17.1,8.2 18.5,9 19.901,8.2 19.901,6.3 						"/>
					</g>
				</g>
			</g>
		</g>
	</g>
</g>
<g id="rank-badge-cyber-cadet">
	<polygon class="st16" points="20.75,11.1 21.051,13.3 27.75,13.3 27.75,29 21.051,33.601 20.75,36.5 29.851,30.101 29.851,11.1 	
		"/>
	<polygon class="st16" points="16.051,33.7 9.45,29.3 9.45,13.3 16.051,13.3 16.45,11.1 7.25,11.1 7.351,30.399 16.45,36.5 	"/>
	<line class="st32" x1="7.939" y1="19.672" x2="13.262" y2="19.672"/>
	<line class="st32" x1="7.939" y1="25.802" x2="14.449" y2="25.802"/>
	<line class="st32" x1="23.841" y1="19.672" x2="29.164" y2="19.672"/>
	<line class="st32" x1="22.653" y1="25.802" x2="29.164" y2="25.802"/>
	<g>
		<g>
			<g>
				<rect x="4" y="4" class="st19" width="29" height="39.104"/>
				<polygon class="st17" points="18.551,16.101 15.75,18.899 18.551,43 21.351,18.899 				"/>
			</g>
		</g>
		<rect x="13.551" y="15.399" class="st17" width="9.897" height="1.396"/>
		<polygon class="st17" points="18.551,6.899 17.15,15.399 19.95,15.399 		"/>
		<g id="XMLID_166_">
			<g id="XMLID_168_">
				<g id="XMLID_169_">
					<g id="XMLID_170_">
						<polygon class="st17" points="18.551,5.5 17.15,6.3 17.15,8.2 18.551,9 19.95,8.2 19.95,6.3 						"/>
					</g>
				</g>
			</g>
		</g>
	</g>
	<polygon class="st17" points="30.551,4 31.351,5.7 33.051,6 31.851,7.2 32.15,9 30.551,8.2 29.051,9 29.351,7.2 28.051,6 
		29.851,5.7 	"/>
	<polygon class="st17" points="6.551,4 7.25,5.7 8.95,6 7.75,7.2 8.051,9 6.551,8.2 5.051,9 5.351,7.2 4.051,6 5.75,5.7 	"/>
</g>
<g id="rank-badge-technical-cadet">
	<rect x="4" y="4" class="st19" width="29" height="39.104"/>
	<g>
		<path class="st16" d="M27.7,13.3V29l-9.2,6.396L9.4,29.2l-0.101-16h18.4 M29.8,11.1H7.2l0.1,19.299L18.602,38l11.3-7.896v-19
			L29.8,11.1L29.8,11.1z"/>
	</g>
	<line class="st32" x1="7.8" y1="19.672" x2="29.2" y2="19.672"/>
	<polygon class="st17" points="30.5,4 31.3,5.7 33,6 31.8,7.2 32.102,9 30.5,8.2 29,9 29.3,7.2 28,6 29.8,5.7 	"/>
	<polygon class="st17" points="6.401,4 7.2,5.7 8.901,6 7.7,7.2 8,9 6.401,8.2 5,9 5.2,7.2 4,6 5.7,5.7 	"/>
	<line class="st32" x1="7.8" y1="25.802" x2="29.2" y2="25.802"/>
</g>
<g id="rank-badge-cadet-first-class">
	<rect x="4" y="4" class="st19" width="29" height="39.104"/>
	<g>
		<path class="st16" d="M27.7,13.3V29l-9.2,6.396L9.4,29.2l-0.101-16h18.4 M29.8,11.1H7.2l0.1,19.299L18.602,38l11.3-7.896v-19
			L29.8,11.1L29.8,11.1z"/>
	</g>
	<line class="st32" x1="7.8" y1="21" x2="29.2" y2="21"/>
	<polygon class="st17" points="30.5,4 31.3,5.7 33,6 31.8,7.2 32.102,9 30.5,8.2 29,9 29.3,7.2 28,6 29.8,5.7 	"/>
	<polygon class="st17" points="6.401,4 7.2,5.7 8.901,6 7.7,7.2 8,9 6.401,8.2 5,9 5.2,7.2 4,6 5.7,5.7 	"/>
</g>
<g id="rank-badge-cadet">
	<rect x="4" y="4" class="st19" width="29" height="39.104"/>
	<g>
		<path class="st16" d="M27.649,13.3V29l-9.199,6.399l-9.101-6.196l-0.1-16h18.399 M29.849,11.1h-22.7L7.25,30.399l11.3,7.604
			l11.3-7.896L29.849,11.1L29.849,11.1z"/>
	</g>
	<line class="st32" x1="7.849" y1="21" x2="29.25" y2="21"/>
</g>
<g id="rank-badge-recruit">
	<g>
		<path class="st16" d="M27.75,13.3V29l-9.2,6.396L9.45,29.2l-0.101-16h18.4 M29.849,11.1h-22.7L7.25,30.399l11.3,7.604l11.3-7.896
			L29.849,11.1L29.849,11.1z"/>
	</g>
	<rect x="4" y="4" class="st19" width="29" height="39.104"/>
</g>
<g id="list-progress-base">
	<g id="hex-outer_1_">
		<g id="XMLID_1080_">
			<path class="st12" d="M18.2,7.201l11.3,5.896v12.899l-11.3,5.896L6.9,25.996V13.101L18.2,7.201 M18.2,4L4,11.396v16.4l14.2,7.396
				l14.2-7.396v-16.4L18.2,4L18.2,4z"/>
		</g>
	</g>
	<g id="hex-inner_1_">
		<g id="XMLID_2384_">
			<polygon class="st16" points="18.2,29.9 9.099,25 9.099,14.101 18.2,9.201 27.2,14.101 27.2,24.9 			"/>
		</g>
	</g>
</g>
<g id="list-progress-complete">
	<g id="hex-inner">
		<g>
			<polygon class="st34" points="21.8,13.801 25.701,16.201 21.201,16.201 20.5,16.201 27.201,21.9 27.201,14.101 18.101,9.201 
				16.101,10.201 			"/>
		</g>
		<g>
			<polygon class="st34" points="15.5,23.5 11.9,21.101 16.101,21.101 17.8,21 9.101,14.301 9.101,25 18.101,29.9 22.201,27.701 			
				"/>
		</g>
	</g>
	<g id="hex-outer">
		<polygon class="st6" points="24,28.801 18.101,32 6.8,26 6.8,13.101 10.4,11.201 8.4,9.101 4,11.4 4,27.701 18.101,35.101 
			26.8,30.601 		"/>
		<polygon class="st6" points="18.101,4 11.5,7.4 14.4,9.201 18.101,7.201 29.5,13.101 29.5,26 27.701,26.9 29.9,29 32.3,27.701 
			32.3,11.4 		"/>
	</g>
	<g id="lightning_1_">
		<g id="lightning">
			<polygon class="st16" points="7.701,6.5 21.201,14.9 17.101,14.9 28.3,24.5 23.4,24.5 30.5,31.5 16.201,22.301 21.601,22.301 
				9.601,13.101 14,12.9 			"/>
		</g>
	</g>
</g>
<g id="ctanlee">
	<circle class="st17" cx="21" cy="21" r="6.398"/>
	<path class="st7" d="M25.5,37.4c7.2-2,12.5-8.5,12.5-16.396"/>
	<path class="st7" d="M4,21c0,7.801,5.3,14.396,12.5,16.396"/>
	<path class="st7" d="M32.801,8.8c-3.1-2.896-7.2-4.8-11.8-4.8c-4.7,0-8.9,1.896-12,4.896"/>
</g>
<g id="action-btn-fist">
	<polygon class="st17" points="35.7,86.896 4,70.295 4,33.795 35.7,17.196 67.401,33.795 67.401,70.295 	"/>
	<polygon class="st12" points="35.7,84.497 6.2,68.997 6.2,34.997 35.7,19.596 65.2,34.997 65.2,68.997 	"/>
	<path class="st25" d="M42.3,12.696c0,0,7.4,2,10.104,3.4c-3.397,6.5-11.5,2.397-11.5,2.397s-2.3,2.799-3,3.603
		c11.103,5.196,26.2,0.696,26.2,0.696l-0.897,5.896l-5.603,13.5l-9.7,5L30.205,82.497L9.504,71.691l25.799-32.396l-2.698-19.104
		L42.3,12.696z"/>
	<path class="st28" d="M42.3,12.696c0,0,7.4,2,10.104,3.4c-3.397,6.5-11.5,2.397-11.5,2.397s-2.3,2.799-3,3.603
		c11.103,5.196,26.2,0.696,26.2,0.696l-0.897,5.896l-5.603,13.5l-9.7,5L30.205,82.497L9.504,71.691l25.799-32.396l-2.698-19.104
		L42.3,12.696z"/>
	<path class="st25" d="M48,5.497l-2.103-1.104c-1.8-0.896-3.897-0.2-4.8,1.5l-7,13.396l8.5,4.396l7-13.396
		C50.5,8.497,49.8,6.396,48,5.497"/>
	<path class="st28" d="M48,5.497l-2.103-1.104c-1.8-0.896-3.897-0.2-4.8,1.5l-7,13.396l8.5,4.396l7-13.396
		C50.5,8.497,49.8,6.396,48,5.497z"/>
	<path class="st25" d="M54.5,6.896l2.604,1.7c1.3,0.8,1.695,2.5,0.8,3.8l-7.3,11.2c-3-0.9-4.397-2.103-6.305-4.304l6.305-11.396
		C51.5,6.596,53.2,6.096,54.5,6.896"/>
	<path class="st28" d="M54.5,6.896l2.604,1.7c1.3,0.8,1.695,2.5,0.8,3.8l-7.3,11.2c-3-0.9-4.397-2.103-6.305-4.304l6.305-11.396
		C51.5,6.596,53.2,6.096,54.5,6.896z"/>
	<path class="st25" d="M62.5,14.997l-1.896-1.307c-1.305-0.896-3-0.5-3.805,0.7l-6.102,9.2c1.3,2,3.102,3.6,6,4l6.397-8.9
		C64,17.497,63.7,15.795,62.5,14.997"/>
	<path class="st28" d="M62.5,14.997l-1.896-1.307c-1.305-0.896-3-0.5-3.805,0.7l-6.102,9.2c1.3,2,3.102,3.6,6,4l6.397-8.9
		C64,17.497,63.7,15.795,62.5,14.997z"/>
	<path class="st25" d="M67.102,24.196l-5.302,6.9c-2.305-0.7-3.898-1.9-5.104-3.4l5.3-7.3c0.897-1.3,2.8-1.5,4-0.5l0.7,0.604
		C67.8,21.396,68.001,22.997,67.102,24.196"/>
	<path class="st28" d="M67.102,24.196l-5.302,6.9c-2.305-0.7-3.898-1.9-5.104-3.4l5.3-7.3c0.897-1.3,2.8-1.5,4-0.5l0.7,0.604
		C67.8,21.396,68.001,22.997,67.102,24.196z"/>
	<path class="st25" d="M58,34.096c0.897-0.603,3.8-3,3.8-3c-2.1-0.4-3.8-1.603-5.1-3.4l-2.803,2.7c-1.104,1-0.897,2.7,0.303,3.5
		l0.6,0.396C55.8,34.896,57.2,34.696,58,34.096"/>
	<path class="st39" d="M58,34.096c0.897-0.603,3.8-3,3.8-3c-2.1-0.4-3.8-1.603-5.1-3.4l-2.803,2.7c-1.104,1-0.897,2.7,0.303,3.5
		l0.6,0.396C55.8,34.896,57.2,34.696,58,34.096z"/>
	<path class="st25" d="M50.2,30.997L49,30.099c-0.8-0.603-1-1.7-0.5-2.603l2.2-3.897c1.397,2.5,3.397,3.8,6,4l-3.4,3.196
		C52.5,31.696,51.2,31.696,50.2,30.997"/>
	<path class="st39" d="M50.2,30.997L49,30.099c-0.8-0.603-1-1.7-0.5-2.603l2.2-3.897c1.397,2.5,3.397,3.8,6,4l-3.4,3.196
		C52.5,31.696,51.2,31.696,50.2,30.997z"/>
	<path class="st25" d="M41.602,24.795l6,4.304l3.103-5.5c-3-0.7-4.5-1.804-6.303-4.304L41.602,24.795z"/>
	<path class="st28" d="M41.602,24.795l6,4.304l3.103-5.5c-3-0.7-4.5-1.804-6.303-4.304L41.602,24.795z"/>
	<path class="st25" d="M10,71.497l20.897-33.397l-2.197-19l10.8-10.2c0,0,10.104,5.3,12.8,6.7c-3.396,6.5-10.101,2.3-10.101,2.3
		s-1.302,2.896-1.899,3.7c9,4.696,10.807,9,3.5,16.397"/>
	<path class="st38" d="M10,71.497l20.897-33.397l-2.197-19l10.8-10.2c0,0,10.104,5.3,12.8,6.7c-3.396,6.5-10.101,2.3-10.101,2.3
		s-1.302,2.896-1.899,3.7c9,4.696,10.807,9,3.5,16.397"/>
	<path class="st17" d="M26,73.696c0.897-8.3,2.8-16.5,5.604-24.6c0.195,1.8,0.396,3.6,0.695,5.3
		c1.898-5.8,4.398-11.396,7.305-16.896C39.3,39.603,39.207,41.603,39,43.603c2.3-3.5,4.7-6.804,7.397-10
		c1.303-1.603,1.7-1.2,0.603,0.5c-3.8,6.104-6.896,12.5-9.3,19c-0.103-1.804-0.2-3.603-0.2-5.396c-2.2,5.195-4,10.5-5.3,15.896
		c-0.4-1.896-0.803-3.804-1.2-5.804C28.901,62.997,27.2,68.295,26,73.696"/>
</g>
<g id="mini-generation">
	<rect x="4" y="4" class="st19" width="179" height="132.801"/>
	<rect x="41.601" y="53.101" class="st27" width="87.7" height="11.5"/>
	<path class="st12" d="M127.901,63h-84.7v-8.396h84.7V63L127.901,63z M130.901,51.601h-3h-84.7h-3v3v8.5v3h3h84.7h3v-3v-8.5V51.601
		L130.901,51.601z"/>
	<rect x="36" y="59.801" class="st27" width="99" height="66.5"/>
	<path class="st12" d="M133.5,124.801h-96v-63.5h96V124.801z M136.5,58.301h-3h-96h-3v3v63.5v3h3h96h3v-3v-63.5V58.301z"/>
	<polygon class="st12" points="27.101,127.801 48.901,127.801 46.5,5.9 29.401,5.9 	"/>
	<rect x="44.101" y="55.601" class="st27" width="82.7" height="6.5"/>
	<path class="st24" d="M125.901,61h-80.7v-4.396h80.7V61L125.901,61z M127.901,54.601h-84.7v8.5h84.7V54.601L127.901,54.601z"/>
	<rect x="38.5" y="62.301" class="st27" width="94" height="61.5"/>
	<path class="st24" d="M131.5,122.801h-92v-59.5h92V122.801z M133.5,61.301h-96v63.5h96V61.301z"/>
	<rect x="128.601" y="64.101" class="st17" width="7.103" height="1.396"/>
	<rect x="128.601" y="64.101" class="st24" width="7.103" height="1.396"/>
	<rect x="124.601" y="94.101" class="st17" width="7.103" height="1.3"/>
	<rect x="124.601" y="94.101" class="st22" width="7.103" height="1.3"/>
	<path class="st17" d="M36.101,64.801h5.7H36.101z"/>
	<rect x="35.401" y="64.101" class="st24" width="7.1" height="1.396"/>
	<rect x="39.401" y="94.101" class="st17" width="7.1" height="1.3"/>
	<rect x="39.401" y="94.101" class="st22" width="7.1" height="1.3"/>
	<rect x="37.601" y="62.801" class="st17" width="95.803" height="1.196"/>
	<rect x="36.101" y="61.301" class="st24" width="98.803" height="4.196"/>
	<rect x="83.301" y="71.201" class="st16" width="5.5" height="10.5"/>
	<path class="st24" d="M87.901,80.701h-3.5v-8.5h3.5V80.701z M89.901,70.201h-2h-3.5h-2v2v8.5v2h2h3.5h2v-2v-8.5V70.201z"/>
	<rect x="64.401" y="71.201" class="st16" width="5.5" height="10.5"/>
	<path class="st24" d="M69,80.701h-3.5v-8.5H69V80.701z M71,70.201h-2h-3.5h-2v2v8.5v2h2H69h2v-2v-8.5V70.201z"/>
	<rect x="73.901" y="71.201" class="st16" width="5.5" height="10.5"/>
	<path class="st24" d="M78.401,80.701h-3.5v-8.5h3.5V80.701z M80.401,70.201h-2h-3.5h-2v2v8.5v2h2h3.5h2v-2v-8.5V70.201z"/>
	<rect x="111.7" y="71.201" class="st16" width="5.5" height="10.5"/>
	<path class="st24" d="M116.2,80.701h-3.5v-8.5h3.5V80.701z M118.2,70.201h-2h-3.5h-2v2v8.5v2h2h3.5h2v-2v-8.5V70.201z"/>
	<rect x="121.101" y="71.201" class="st16" width="5.5" height="10.5"/>
	<path class="st24" d="M125.601,80.701h-3.5v-8.5h3.5V80.701z M127.601,70.201h-2h-3.5h-2v2v8.5v2h2h3.5h2v-2v-8.5V70.201z"/>
	<rect x="92.801" y="71.201" class="st16" width="5.5" height="10.5"/>
	<path class="st24" d="M97.301,80.701h-3.5v-8.5h3.5V80.701z M99.301,70.201h-2h-3.5h-2v2v8.5v2h2h3.5h2v-2v-8.5V70.201z"/>
	<rect x="102.2" y="71.201" class="st16" width="5.5" height="10.5"/>
	<path class="st24" d="M106.801,80.701h-3.5v-8.5h3.5V80.701z M108.801,70.201h-2h-3.5h-2v2v8.5v2h2h3.5h2v-2v-8.5V70.201z"/>
	<rect x="45.601" y="71.201" class="st16" width="5.5" height="10.5"/>
	<path class="st24" d="M50.101,80.701h-3.5v-8.5h3.5V80.701z M52.101,70.201h-2h-3.5h-2v2v8.5v2h2h3.5h2v-2v-8.5V70.201z"/>
	<rect x="55" y="71.201" class="st16" width="5.5" height="10.5"/>
	<path class="st24" d="M59.5,80.701H56v-8.5h3.5V80.701z M61.5,70.201h-2H56h-2v2v8.5v2h2h3.5h2v-2v-8.5V70.201z"/>
	<rect x="111.7" y="107.9" class="st16" width="5.5" height="10.5"/>
	<path class="st24" d="M116.2,117.4h-3.5v-8.5h3.5V117.4z M118.2,106.9h-2h-3.5h-2v2v8.5v2h2h3.5h2v-2v-8.5V106.9z"/>
	<rect x="121.101" y="107.9" class="st16" width="5.5" height="10.5"/>
	<path class="st24" d="M125.601,117.4h-3.5v-8.5h3.5V117.4z M127.601,106.9h-2h-3.5h-2v2v8.5v2h2h3.5h2v-2v-8.5V106.9z"/>
	<rect x="45.601" y="107.9" class="st16" width="5.5" height="10.5"/>
	<path class="st24" d="M50.101,117.4h-3.5v-8.5h3.5V117.4z M52.101,106.9h-2h-3.5h-2v2v8.5v2h2h3.5h2v-2v-8.5V106.9z"/>
	<rect x="55" y="107.9" class="st16" width="5.5" height="10.5"/>
	<path class="st24" d="M59.5,117.4H56v-8.5h3.5V117.4z M61.5,106.9h-2H56h-2v2v8.5v2h2h3.5h2v-2v-8.5V106.9z"/>
	<rect x="25.601" y="11.101" class="st12" width="24.7" height="4"/>
	<path class="st12" d="M49.301,14H26.7v-1.896h22.601V14z M51.401,10h-2.103H26.697h-2.103v2.104V14v2.104h2.103h22.604h2.103V14
		v-1.896L51.401,10L51.401,10z"/>
	<g>
		<g>
			<g>
				<g>
					<g>
						<g>
							<g>
								<g>
									<g>
										<g>
											<g>
												<defs>
													<path id="SVGID_1_" d="M138.601,97.201v19.104h15.101c0.104-2.195,1.896-3.896,4.104-3.896c2.193,0,4,1.7,4.104,3.896
														h14.799V97.201H138.601z"/>
												</defs>
												<clipPath id="SVGID_2_">
													<use xlink:href="#SVGID_1_"  style="overflow:visible;"/>
												</clipPath>
												<path class="st20" d="M174.801,124.801H140.6V99.2h34.201V124.801z M176.801,97.201H138.6v29.604h38.201V97.201z"/>
											</g>
										</g>
									</g>
								</g>
							</g>
						</g>
					</g>
				</g>
			</g>
		</g>
		<g>
			<g>
				<g>
					<g>
						<g>
							<g>
								<g>
									<g>
										<g>
											<g>
												<defs>
													<path id="SVGID_3_" d="M138.601,97.201v19.104h15.101c0.104-2.195,1.896-3.896,4.104-3.896c2.193,0,4,1.7,4.104,3.896
														h14.799V97.201H138.601z"/>
												</defs>
												<clipPath id="SVGID_4_">
													<use xlink:href="#SVGID_3_"  style="overflow:visible;"/>
												</clipPath>
												<circle class="st29" cx="157.801" cy="116.5" r="17.6"/>
											</g>
										</g>
									</g>
								</g>
							</g>
						</g>
					</g>
				</g>
			</g>
		</g>
		<g>
			<g>
				<g>
					<g>
						<g>
							<g>
								<g>
									<g>
										<g>
											<g>
												<defs>
													<path id="SVGID_5_" d="M138.601,97.201v19.104h15.101c0.104-2.195,1.896-3.896,4.104-3.896c2.193,0,4,1.7,4.104,3.896
														h14.799V97.201H138.601z"/>
												</defs>
												<clipPath id="SVGID_6_">
													<use xlink:href="#SVGID_5_"  style="overflow:visible;"/>
												</clipPath>
												<polyline class="st0" points="157.801,116.5 147.2,112.101 148.7,107.4 157.801,116.5 												"/>
											</g>
										</g>
									</g>
								</g>
							</g>
						</g>
					</g>
				</g>
			</g>
		</g>
		<g>
			<g>
				<g>
					<g>
						<g>
							<g>
								<g>
									<g>
										<g>
											<g>
												<defs>
													<path id="SVGID_7_" d="M138.601,97.201v19.104h15.101c0.104-2.195,1.896-3.896,4.104-3.896c2.193,0,4,1.7,4.104,3.896
														h14.799V97.201H138.601z"/>
												</defs>
												<clipPath id="SVGID_8_">
													<use xlink:href="#SVGID_7_"  style="overflow:visible;"/>
												</clipPath>
												<polyline class="st33" points="157.801,116.5 146.301,116.5 145.901,111.601 157.801,116.5 												"/>
											</g>
										</g>
									</g>
								</g>
							</g>
						</g>
					</g>
				</g>
			</g>
		</g>
		<g>
			<g>
				<g>
					<g>
						<g>
							<g>
								<g>
									<g>
										<g>
											<g>
												<defs>
													<path id="SVGID_9_" d="M138.601,97.201v19.104h15.101c0.104-2.195,1.896-3.896,4.104-3.896c2.193,0,4,1.7,4.104,3.896
														h14.799V97.201H138.601z"/>
												</defs>
												<clipPath id="SVGID_10_">
													<use xlink:href="#SVGID_9_"  style="overflow:visible;"/>
												</clipPath>
												<polyline class="st31" points="157.801,116.5 168.5,112.101 170.7,116.5 157.801,116.5 												"/>
											</g>
										</g>
									</g>
								</g>
							</g>
						</g>
					</g>
				</g>
			</g>
		</g>
		<g>
			<g>
				<g>
					<g>
						<g>
							<g>
								<g>
									<g>
										<g>
											<g>
												<defs>
													<path id="SVGID_11_" d="M138.601,97.201v19.104h15.101c0.104-2.195,1.896-3.896,4.104-3.896c2.193,0,4,1.7,4.104,3.896
														h14.799V97.201H138.601z"/>
												</defs>
												<clipPath id="SVGID_12_">
													<use xlink:href="#SVGID_11_"  style="overflow:visible;"/>
												</clipPath>
												<polyline class="st18" points="157.801,116.5 166,108.4 169.7,111.601 157.801,116.5 												"/>
											</g>
										</g>
									</g>
								</g>
							</g>
						</g>
					</g>
				</g>
			</g>
		</g>
		<g>
			<g>
				<g>
					<g>
						<g>
							<g>
								<g>
									<g>
										<g>
											<g>
												<defs>
													<path id="SVGID_13_" d="M138.601,97.201v19.104h15.101c0.104-2.195,1.896-3.896,4.104-3.896c2.193,0,4,1.7,4.104,3.896
														h14.799V97.201H138.601z"/>
												</defs>
												<clipPath id="SVGID_14_">
													<use xlink:href="#SVGID_13_"  style="overflow:visible;"/>
												</clipPath>
												<polyline class="st10" points="157.801,116.5 162.301,105.9 167,107.4 157.801,116.5 												"/>
											</g>
										</g>
									</g>
								</g>
							</g>
						</g>
					</g>
				</g>
			</g>
		</g>
		<g>
			<g>
				<g>
					<g>
						<g>
							<g>
								<g>
									<g>
										<g>
											<g>
												<defs>
													<path id="SVGID_15_" d="M138.601,97.201v19.104h15.101c0.104-2.195,1.896-3.896,4.104-3.896c2.193,0,4,1.7,4.104,3.896
														h14.799V97.201H138.601z"/>
												</defs>
												<clipPath id="SVGID_16_">
													<use xlink:href="#SVGID_15_"  style="overflow:visible;"/>
												</clipPath>
												<polyline class="st3" points="157.801,116.5 157.801,105 162.801,104.701 157.801,116.5 												"/>
											</g>
										</g>
									</g>
								</g>
							</g>
						</g>
					</g>
				</g>
			</g>
		</g>
		<g>
			<g>
				<g>
					<g>
						<g>
							<g>
								<g>
									<g>
										<g>
											<g>
												<defs>
													<path id="SVGID_17_" d="M138.601,97.201v19.104h15.101c0.104-2.195,1.896-3.896,4.104-3.896c2.193,0,4,1.7,4.104,3.896
														h14.799V97.201H138.601z"/>
												</defs>
												<clipPath id="SVGID_18_">
													<use xlink:href="#SVGID_17_"  style="overflow:visible;"/>
												</clipPath>
												<polyline class="st37" points="157.801,116.5 153.401,105.9 157.801,103.701 157.801,116.5 												"/>
											</g>
										</g>
									</g>
								</g>
							</g>
						</g>
					</g>
				</g>
			</g>
		</g>
		<g>
			<g>
				<g>
					<g>
						<g>
							<g>
								<g>
									<g>
										<g>
											<g>
												<defs>
													<path id="SVGID_19_" d="M138.601,97.201v19.104h15.101c0.104-2.195,1.896-3.896,4.104-3.896c2.193,0,4,1.7,4.104,3.896
														h14.799V97.201H138.601z"/>
												</defs>
												<clipPath id="SVGID_20_">
													<use xlink:href="#SVGID_19_"  style="overflow:visible;"/>
												</clipPath>
												<polyline class="st36" points="157.801,116.5 149.7,108.4 152.901,104.701 157.801,116.5 												"/>
											</g>
										</g>
									</g>
								</g>
							</g>
						</g>
					</g>
				</g>
			</g>
		</g>
	</g>
	<path class="st12" d="M177.2,125.801h-38.898V118H177.2V125.801z M179.2,116h-42.898v11.801H179.2V116z"/>
	<path class="st30" d="M153.7,123.701H162V116.5c0-2.299-1.896-4.1-4.199-4.1c-2.301,0-4.102,1.896-4.102,4.1V123.701z"/>
	<path class="st12" d="M162,125.4h-8.699v-1.3H162V125.4L162,125.4z M164,122.101h-12.699v5.3H164V122.101L164,122.101z"/>
	<line class="st30" x1="161.901" y1="120.101" x2="153.5" y2="120.101"/>
</g>
<g id="mini-substation">
	<rect x="4" y="4" class="st19" width="179" height="132.8"/>
	<rect x="43.9" y="54.399" class="st27" width="102.6" height="71.896"/>
	<path class="st12" d="M145,124.8H45.4V55.901H145V124.8z M148,52.899h-3H45.4h-3v3v68.896v3h3H145h3v-3V55.899V52.899z"/>
	<rect x="40.1" y="53.399" class="st27" width="110.201" height="8.604"/>
	<path class="st12" d="M148.801,60.5H41.6v-5.601h107.201V60.5z M151.801,51.899h-3H41.6h-3v3v5.604v3h3h107.201h3v-3v-5.604V51.899
		z"/>
	<polyline class="st8" points="26.9,84.601 55.701,127.101 57.6,127.101 50.5,84.601 26.9,84.601 19.801,127.101 21.801,127.101 
		50.5,84.601 	"/>
	<polygon class="st8" points="26.9,84.601 50.5,84.601 48.201,69.3 29.201,69.3 	"/>
	<line class="st8" x1="26.9" y1="84.601" x2="48.201" y2="69.3"/>
	<line class="st8" x1="29.201" y1="69.3" x2="50.5" y2="84.601"/>
	<polygon class="st8" points="30.701,55.5 46.701,55.5 48.201,69.3 29.201,69.3 	"/>
	<line class="st8" x1="48.201" y1="69.3" x2="30.701" y2="55.5"/>
	<line class="st8" x1="46.701" y1="55.5" x2="29.201" y2="69.3"/>
	<polygon class="st8" points="30.701,55.5 46.701,55.5 45.701,42.8 31.701,42.8 	"/>
	<line class="st8" x1="30.701" y1="55.5" x2="45.701" y2="42.8"/>
	<line class="st8" x1="31.701" y1="42.8" x2="46.701" y2="55.5"/>
	<polygon class="st8" points="7.5,42.8 69.9,42.8 45.701,30.5 32.201,30.5 	"/>
	<polygon class="st8" points="32.201,30.5 45.701,30.5 45.701,42.8 31.701,42.8 	"/>
	<polyline class="st8" points="45.701,30.5 31.701,42.8 45.701,42.8 32.201,30.5 	"/>
	<polyline class="st8" points="51,33.101 45.701,42.8 31.701,42.8 26.9,33.101 	"/>
	<line class="st8" x1="26.9" y1="42.601" x2="19.301" y2="37"/>
	<line class="st8" x1="51" y1="42.601" x2="58.1" y2="37"/>
	<line class="st8" x1="58.1" y1="37" x2="58.1" y2="42.8"/>
	<line class="st8" x1="26.9" y1="33.101" x2="26.9" y2="42.601"/>
	<line class="st8" x1="51" y1="42.601" x2="51" y2="33.101"/>
	<polygon class="st8" points="32.201,30.5 45.701,30.5 44.201,22.399 33.201,22.399 	"/>
	<polyline class="st8" points="33.201,22.399 45.701,30.5 32.201,30.5 44.201,22.399 	"/>
	<polygon class="st8" points="34.701,12.5 42.701,12.5 44.201,22.399 33.201,22.399 	"/>
	<polygon class="st8" points="34.701,12.601 42.701,12.601 58.701,22.399 18.801,22.399 	"/>
	<polyline class="st8" points="42.701,12.601 33.201,22.399 44.201,22.399 34.701,12.601 	"/>
	<polyline class="st8" points="48.5,16.8 44.201,22.399 33.201,22.399 28.9,16.8 	"/>
	<line class="st8" x1="28.9" y1="16.8" x2="28.9" y2="22.2"/>
	<line class="st8" x1="48.5" y1="22.2" x2="48.5" y2="16.8"/>
	<line class="st8" x1="59.801" y1="26.399" x2="59.801" y2="22.899"/>
	<line class="st8" x1="71.4" y1="46.7" x2="71.4" y2="43.2"/>
	<line class="st8" x1="17.6" y1="26.399" x2="17.6" y2="22.899"/>
	<rect x="46.4" y="56.899" class="st27" width="97.6" height="66.896"/>
	<path class="st24" d="M143,122.8H47.4V57.901H143V122.8z M145,55.899H45.4v68.896H145V55.899z"/>
	<rect x="42.6" y="55.899" class="st27" width="105.201" height="3.604"/>
	<path class="st24" d="M146.801,58.5H43.6v-1.601h103.201V58.5z M148.801,54.899H41.6v5.604h107.201V54.899z"/>
	<rect x="40.801" y="59" class="st24" width="108.799" height="1.5"/>
	<line class="st22" x1="143.301" y1="116.8" x2="47.1" y2="116.8"/>
	<rect x="75.201" y="66.7" class="st16" width="5.799" height="11.196"/>
	<path class="st24" d="M80,76.899h-3.799V67.7H80V76.899z M82,65.7h-2h-3.799h-2v2v9.196v2h2H80h2v-2V67.7V65.7z"/>
	<rect x="85.301" y="66.7" class="st16" width="5.799" height="11.196"/>
	<path class="st24" d="M90.1,76.899h-3.799V67.7H90.1V76.899z M92.1,65.7h-2h-3.799h-2v2v9.196v2h2H90.1h2v-2V67.7V65.7z"/>
	<rect x="55" y="66.7" class="st16" width="5.809" height="11.196"/>
	<path class="st24" d="M59.801,76.899h-3.809V67.7h3.809V76.899z M61.801,65.7h-2h-3.809h-2v2v9.196v2h2h3.809h2v-2V67.7V65.7z"/>
	<rect x="65.1" y="66.7" class="st16" width="5.801" height="11.196"/>
	<path class="st24" d="M69.9,76.899H66.1V67.7H69.9V76.899z M71.9,65.7h-2H66.1h-2v2v9.196v2h2H69.9h2v-2V67.7V65.7z"/>
	<rect x="75.201" y="81.3" class="st16" width="5.799" height="11.2"/>
	<path class="st24" d="M80,91.5h-3.799v-9.2H80V91.5z M82,80.3h-2h-3.799h-2v2v9.2v2h2H80h2v-2v-9.2V80.3z"/>
	<rect x="55" y="81.3" class="st16" width="5.809" height="11.2"/>
	<path class="st24" d="M59.801,91.5h-3.809v-9.2h3.809V91.5z M61.801,80.3h-2h-3.809h-2v2v9.2v2h2h3.809h2v-2v-9.2V80.3z"/>
	<rect x="65.1" y="81.3" class="st16" width="5.801" height="11.2"/>
	<path class="st24" d="M69.9,91.5H66.1v-9.2H69.9V91.5z M71.9,80.3h-2H66.1h-2v2v9.2v2h2H69.9h2v-2v-9.2V80.3z"/>
	<rect x="161.4" y="107.101" class="st12" width="7" height="8.193"/>
	<rect x="157.9" y="115.7" class="st12" width="14.801" height="1.6"/>
	<path class="st12" d="M171.701,118.2v8.6l0,0l-10.896-8.6H171.701z M172.701,117.2H157.9l13.5,10.6h1.4v-10.6H172.701z"/>
	<path class="st12" d="M169.801,118.2l-10.9,8.6l0,0v-8.6H169.801z M172.701,117.2H157.9v10.6h1.4L172.701,117.2z"/>
	<path class="st12" d="M174.701,111.2c0,1.397-1.301,2.5-2,2.5c-0.701,0-1.201-1.103-1.201-2.5c0-1.4,0.5-2.5,1.201-2.5
		C173.4,108.7,174.701,109.8,174.701,111.2"/>
	<path class="st12" d="M156.1,111.2c0,1.397,1.301,2.5,2,2.5c0.701,0,1.201-1.103,1.201-2.5c0-1.4-0.5-2.5-1.201-2.5
		C157.4,108.7,156.1,109.8,156.1,111.2"/>
	<rect x="157.9" y="106.5" class="st12" width="5.1" height="9.396"/>
	
		<rect x="157.877" y="100.193" transform="matrix(0.9848 -0.1738 0.1738 0.9848 -15.1118 29.251)" class="st12" width="3.101" height="1.4"/>
	<polygon class="st12" points="155.6,74.601 154,74.899 157.201,100.601 161.4,99.8 	"/>
	
		<rect x="158.459" y="105.518" transform="matrix(0.9849 -0.1732 0.1732 0.9849 -16.0021 29.3981)" class="st12" width="3.901" height="1.702"/>
	<path class="st12" d="M161.5,105.5l-2.5,0.396c-1.191,0.201-2.396-0.604-2.6-1.799v-0.2c-0.199-1.197,0.6-2.397,1.801-2.604
		l2.5-0.396c1.199-0.196,2.398,0.604,2.604,1.804v0.196C163.6,104.2,162.801,105.3,161.5,105.5"/>
	
		<rect x="153.441" y="74.116" transform="matrix(0.9849 -0.173 0.173 0.9849 -10.5571 27.9031)" class="st12" width="2.704" height="0.798"/>
	
		<rect x="152.607" y="74.093" transform="matrix(-0.9848 0.1735 -0.1735 -0.9848 316.6873 122.1006)" class="st12" width="0.799" height="1.598"/>
	
		<rect x="169.768" y="100.2" transform="matrix(0.9848 0.1736 -0.1736 0.9848 20.1158 -28.2068)" class="st12" width="3.1" height="1.4"/>
	<polygon class="st12" points="176.701,74.899 175.201,74.601 169.301,99.8 173.6,100.601 	"/>
	
		<rect x="168.28" y="105.7" transform="matrix(0.9848 0.1739 -0.1739 0.9848 21.1228 -27.9793)" class="st12" width="3.897" height="1.701"/>
	<path class="st12" d="M171.801,106l-2.5-0.396c-1.201-0.201-2-1.397-1.809-2.604v-0.2c0.199-1.193,1.398-2,2.604-1.8l2.5,0.396
		c1.198,0.201,2,1.396,1.801,2.604v0.2C174.1,105.399,173,106.2,171.801,106"/>
	
		<rect x="174.652" y="74.194" transform="matrix(-0.9848 -0.1738 0.1738 -0.9848 336.3608 178.6359)" class="st12" width="2.697" height="0.796"/>
	
		<rect x="177.281" y="74.068" transform="matrix(0.9849 0.1733 -0.1733 0.9849 15.6628 -29.659)" class="st12" width="0.8" height="1.598"/>
	<rect x="167.701" y="106.5" class="st12" width="5.104" height="9.396"/>
	<path class="st8" d="M152.801,74.101c0.5-3.104-1.5-4.104-6.201-3.104"/>
	<path class="st8" d="M177.801,74.101c-0.104-10.807-23-5.897-31.604-3.701"/>
</g>
<g id="mini-control-center">
	<rect x="4" y="4" class="st19" width="179" height="132.8"/>
	<rect x="30.9" y="56.199" class="st27" width="100" height="70.201"/>
	<path class="st12" d="M129.4,124.8h-97V57.602h97V124.8z M132.4,54.699h-3h-97h-3v3V124.9v3h3h97h3v-3V57.699V54.699z"/>
	<rect x="27.1" y="55.199" class="st27" width="107.5" height="8.5"/>
	<path class="st12" d="M133.1,62.1H28.6v-5.5h104.5V62.1z M136.1,53.699h-3H28.6h-3v3v5.5v3h3h104.5h3v-3v-5.5V53.699z"/>
	
		<rect x="117.444" y="46.097" transform="matrix(0.6031 0.7976 -0.7976 0.6031 84.9112 -77.0602)" class="st12" width="4.9" height="1.401"/>
	
		<rect x="117.444" y="46.097" transform="matrix(0.6031 0.7976 -0.7976 0.6031 84.9112 -77.0602)" class="st8" width="4.9" height="1.401"/>
	
		<rect x="113.546" y="50.936" transform="matrix(-0.9541 0.2994 -0.2994 -0.9541 244.3669 66.4282)" class="st12" width="7.097" height="2"/>
	
		<rect x="113.546" y="50.936" transform="matrix(-0.9541 0.2994 -0.2994 -0.9541 244.3669 66.4282)" class="st8" width="7.097" height="2"/>
	<path class="st12" d="M120.301,44.6c-0.396,1.301-1.801,2.1-3.102,1.694c-1.299-0.396-2.104-1.8-1.699-3.104
		c0.4-1.299,1.801-2.104,3.1-1.696C120,41.9,120.699,43.3,120.301,44.6"/>
	<circle class="st8" cx="117.9" cy="43.9" r="2.5"/>
	<path class="st12" d="M123.4,48.6c1,1,1,2.6,0,3.6s-2.604,1-3.604,0s-1-2.6,0-3.6C120.9,47.6,122.5,47.6,123.4,48.6"/>
	<circle class="st8" cx="121.699" cy="50.3" r="2.5"/>
	<path class="st12" d="M115.1,53.4c0,1.896-1.6,3.5-3.5,3.5c-1.896,0-3.5-1.604-3.5-3.5c0-1.897,1.604-3.5,3.5-3.5
		C113.5,49.9,115.1,51.5,115.1,53.4"/>
	<circle class="st8" cx="111.6" cy="53.4" r="3.5"/>
	<rect x="33.4" y="58.699" class="st27" width="95" height="65.201"/>
	<path class="st24" d="M127.4,122.8h-93V59.602h93V122.8z M129.4,57.699h-97V124.9h97V57.699z"/>
	<rect x="29.6" y="57.699" class="st27" width="102.5" height="3.5"/>
	<path class="st24" d="M131.1,60.1H30.6v-1.5h100.5V60.1z M133.1,56.699H28.6v5.5h104.5V56.699z"/>
	<line class="st19" x1="128.199" y1="117.699" x2="33.5" y2="117.699"/>
	<line class="st22" x1="128.199" y1="117.699" x2="33.5" y2="117.699"/>
	<path class="st12" d="M108.801,20.8c-2.5,2.5,1.299,13.2,10.299,22.104c8.9,8.896,19.701,12.699,22.104,10.299"/>
	<path class="st8" d="M108.801,20.8c-2.5,2.5,1.299,13.2,10.299,22.104c8.9,8.896,19.701,12.699,22.104,10.299"/>
	
		<ellipse transform="matrix(-0.7071 -0.7071 0.7071 -0.7071 187.2193 151.5566)" class="st8" cx="124.998" cy="37.004" rx="22.897" ry="1.8"/>
	<polyline class="st8" points="118.4,33 133.9,28.1 128.9,43.5 	"/>
	<polyline class="st8" points="108.801,20.8 133.9,28.1 141.199,53.199 	"/>
	
		<rect x="132.658" y="26.938" transform="matrix(0.7071 0.7071 -0.7071 0.7071 59.0197 -86.611)" class="st12" width="2.801" height="2"/>
	
		<rect x="132.658" y="26.938" transform="matrix(0.7071 0.7071 -0.7071 0.7071 59.0197 -86.611)" class="st8" width="2.801" height="2"/>
	<rect x="80.1" y="68.199" class="st16" width="5.701" height="11"/>
	<path class="st24" d="M84.9,78.199h-3.701v-9H84.9V78.199z M86.9,67.199h-2h-3.701h-2v2v9v2h2H84.9h2v-2v-9V67.199z"/>
	<rect x="60.4" y="68.199" class="st16" width="5.691" height="11"/>
	<path class="st24" d="M65.199,78.199H61.5v-9h3.699V78.199z M67.199,67.199h-2H61.5h-2v2v9v2h2h3.699h2v-2v-9V67.199z"/>
	<rect x="70.301" y="68.199" class="st16" width="5.699" height="11"/>
	<path class="st24" d="M75,78.199h-3.699v-9H75V78.199L75,78.199z M77,67.199h-2h-3.699h-2v2v9v2h2H75h2v-2v-9V67.199L77,67.199z"/>
	<rect x="40.801" y="68.199" class="st16" width="5.699" height="11"/>
	<path class="st24" d="M45.5,78.199h-3.699v-9H45.5V78.199L45.5,78.199z M47.5,67.199h-2h-3.699h-2v2v9v2h2H45.5h2v-2v-9V67.199
		L47.5,67.199z"/>
	<rect x="50.6" y="68.199" class="st16" width="5.701" height="11"/>
	<path class="st24" d="M55.301,78.199H51.6v-9h3.701V78.199z M57.301,67.199h-2H51.6h-2v2v9v2h2h3.701h2v-2v-9V67.199z"/>
	<rect x="80.1" y="82.4" class="st16" width="5.701" height="11"/>
	<path class="st24" d="M84.9,92.3h-3.701v-9H84.9V92.3z M86.9,81.4h-2h-3.701h-2v2v9v2h2H84.9h2v-2v-9V81.4z"/>
	<rect x="60.4" y="82.4" class="st16" width="5.691" height="11"/>
	<path class="st24" d="M65.199,92.3H61.5v-9h3.699V92.3z M67.199,81.4h-2H61.5h-2v2v9v2h2h3.699h2v-2v-9V81.4z"/>
	<rect x="70.301" y="82.4" class="st16" width="5.699" height="11"/>
	<path class="st24" d="M75,92.3h-3.699v-9H75V92.3L75,92.3z M77,81.4h-2h-3.699h-2v2v9v2h2H75h2v-2v-9V81.4L77,81.4z"/>
	<rect x="40.801" y="82.4" class="st16" width="5.699" height="11"/>
	<path class="st24" d="M45.5,92.3h-3.699v-9H45.5V92.3L45.5,92.3z M47.5,81.4h-2h-3.699h-2v2v9v2h2H45.5h2v-2v-9V81.4L47.5,81.4z"/>
	<rect x="50.6" y="82.4" class="st16" width="5.701" height="11"/>
	<path class="st24" d="M55.301,92.3H51.6v-9h3.701V92.3z M57.301,81.4h-2H51.6h-2v2v9v2h2h3.701h2v-2v-9V81.4z"/>
	<path class="st12" d="M144,114.3l-0.699,0.306c-2.5,1.194-5.602,0.1-6.801-2.5c-1.199-2.5-0.1-5.604,2.5-6.806l0.699-0.3L144,114.3
		z"/>
	
		<rect x="142.228" y="104.949" transform="matrix(0.9074 -0.4203 0.4203 0.9074 -31.9954 71.0967)" class="st12" width="6.199" height="6.401"/>
	<polygon class="st12" points="149.199,110.8 169.9,105.5 163.4,91.5 146,103.9 	"/>
	
		<rect x="176.523" y="89.636" transform="matrix(0.9072 -0.4207 0.4207 0.9072 -22.1698 84.0604)" class="st12" width="5.899" height="5.302"/>
	<polygon class="st12" points="183.199,93.5 184.6,92.3 182.801,88.4 181,88.6 	"/>
	
		<rect x="166.339" y="87.491" transform="matrix(0.9074 -0.4203 0.4203 0.9074 -25.3068 79.9456)" class="st12" width="4.8" height="19.803"/>
	
		<rect x="175.864" y="90.376" transform="matrix(0.9073 -0.4205 0.4205 0.9073 -22.9569 83.0164)" class="st12" width="1.898" height="6.403"/>
	<polygon class="st12" points="175.301,103.4 177.1,98.199 173.4,90.3 168.301,88.3 	"/>
	
		<rect x="156.962" y="111.6" transform="matrix(0.5463 0.8376 -0.8376 0.5463 166.7538 -82.9632)" class="st12" width="5.999" height="1.7"/>
	
		<rect x="152.229" y="117.071" transform="matrix(-0.9541 0.2994 -0.2994 -0.9541 341.4955 184.3189)" class="st12" width="8.797" height="2.497"/>
	<path class="st12" d="M160.801,109.699c-0.602,1.604-2.396,2.4-4,1.804c-1.602-0.603-2.396-2.396-1.801-4
		c0.6-1.603,2.4-2.396,4-1.804C160.6,106.3,161.4,108.1,160.801,109.699"/>
	<path class="st12" d="M164.6,114.3c1.201,1.2,1.201,3.2,0,4.396c-1.191,1.201-3.191,1.201-4.396,0
		c-1.201-1.196-1.201-3.196,0-4.396C161.4,113,163.4,113,164.6,114.3"/>
	<path class="st12" d="M154.301,120.199c0,2.4-1.896,4.304-4.301,4.304c-2.4,0-4.301-1.896-4.301-4.304
		c0-2.396,1.896-4.299,4.301-4.299S154.301,117.9,154.301,120.199"/>
	<rect x="131.6" y="121.8" class="st12" width="39" height="6"/>
</g>
<g id="btn-lightning">
	<path class="st16" d="M4,51.002l59,12l60-12l-3-2.459L63.005,59.941L7,48.55L4,51.002z M7,18.452L62.979,7.066L120,19.42l3-2.42
		L63,4l0,0L4,16L7,18.452z"/>
	<path class="st16" d="M32.495,50.604c9.359-3.825,19.271-6.614,29.523-8.252c-1.819,1.227-3.6,2.491-5.325,3.787
		c7.282-1.253,14.733-1.91,22.276-1.934c-2.351,0.923-4.646,1.907-6.893,2.948c7.479,0.609,14.921,1.855,22.223,3.731
		c-11.213-1.329-22.346-1.171-33.122,0.346c1.834-1.153,3.716-2.266,5.646-3.336c-6.85,0.652-13.564,1.838-20.106,3.528
		c1.771-1.565,3.604-3.093,5.498-4.582C45.563,47.595,38.97,48.853,32.495,50.604z"/>
</g>
<g id="quiz-header">
	<line class="st4" x1="4" y1="34" x2="281" y2="34"/>
	<line class="st4" x1="361.001" y1="34" x2="638.001" y2="34"/>
	<polygon class="st13" points="334.838,52.221 323,58.366 300.5,46.686 300.5,21.313 307.811,17.518 304.164,13.777 295.5,18.275 
		295.5,49.724 323,64 339.714,55.325 	"/>
	<polygon class="st13" points="323,4 310.304,10.591 315.244,13.66 323,9.633 345.5,21.313 345.5,46.686 341.856,48.578 
		345.636,52.25 350.5,49.724 350.5,18.275 	"/>
	<polygon class="st12" points="303,9 328.828,25.037 320.912,25.033 342.43,43.422 333.1,43.556 346.811,56.878 319.273,39.354 
		329.622,39.166 306.623,21.461 314.893,21.204 	"/>
</g>
<g id="quiz-answer-bg">
	<polygon id="_x3E_bg" class="st24" points="5.5,308.111 5.5,29.889 103.999,5.545 202.094,29.888 202.498,308.112 104,332.455 	"/>
	<path id="_x3E_outline" class="st27" d="M103.999,7.091l96.597,23.97l0.401,275.881L104,330.913L7,306.938V31.062L103.999,7.091
		 M104,4L4,28.72v280.566L104,334l100-24.714L203.592,28.72L104,4L104,4z"/>
	<path id="_x3E_lightning_1_" class="st27" d="M68.194,285.052c10.85-4.438,22.324-7.663,34.212-9.562
		c-2.113,1.421-4.171,2.885-6.169,4.389c8.438-1.448,17.07-2.215,25.812-2.236c-2.725,1.063-5.387,2.21-7.985,3.417
		c8.673,0.705,17.286,2.146,25.747,4.316c-12.992-1.538-25.893-1.354-38.377,0.4c2.126-1.335,4.306-2.624,6.541-3.864
		c-7.928,0.755-15.719,2.129-23.3,4.087c2.05-1.812,4.175-3.584,6.371-5.308C83.334,281.566,75.696,283.021,68.194,285.052z"/>
	<path id="_x3E_lightning" class="st27" d="M68.194,54.061c10.85-4.437,22.324-7.659,34.212-9.562
		c-2.113,1.428-4.171,2.891-6.169,4.394c8.438-1.452,17.07-2.214,25.812-2.238c-2.725,1.067-5.387,2.211-7.985,3.417
		c8.673,0.703,17.286,2.146,25.747,4.319c-12.992-1.538-25.893-1.354-38.377,0.396c2.126-1.335,4.306-2.624,6.541-3.864
		c-7.928,0.762-15.719,2.136-23.3,4.093c2.05-1.812,4.175-3.584,6.371-5.312C83.334,50.576,75.696,52.031,68.194,54.061z"/>
	<line id="_x3E_line" class="st26" x1="32.5" y1="95.5" x2="175.5" y2="95.5"/>
	<line id="_x3E_line_1_" class="st26" x1="32.5" y1="232.5" x2="175.5" y2="232.5"/>
</g>
<g id="next-question">
	<polygon class="st15" points="148.999,41.446 4,41.446 4,4 148.999,4 156.007,23.473 	"/>
</g>
<g id="btn-got-it">
	<path class="st12" d="M4,37.484c10.94-4.513,22.521-7.805,34.517-9.737c-2.134,1.447-4.207,2.938-6.226,4.469
		c8.514-1.479,17.224-2.255,26.039-2.282c-2.75,1.089-5.438,2.251-8.062,3.479c8.749,0.719,17.438,2.188,25.979,4.402
		c-13.105-1.566-26.119-1.381-38.721,0.408c2.146-1.36,4.349-2.673,6.604-3.937c-7.997,0.77-15.856,2.169-23.506,4.163
		c2.062-1.847,4.211-3.65,6.429-5.406C19.274,33.935,11.568,35.418,4,37.484z"/>
	<path class="st16" d="M26.764,10.141c-0.32,2.88-0.62,4.041-1.32,5.201c-0.96,1.621-2.26,2.441-3.841,2.441
		c-2.42,0-3.94-2.021-3.94-5.221c0-2.081,0.521-4.321,1.346-5.781C20.028,4.961,21.528,4,23.283,4c1.9,0,3.16,1.14,3.501,3.181
		l-2.655,1c-0.021-0.68-0.062-0.86-0.16-1.161c-0.146-0.44-0.5-0.68-0.979-0.68c-0.641,0-1.159,0.44-1.581,1.32
		c-0.6,1.28-0.979,3.241-0.979,5.062c0,1.78,0.521,2.68,1.54,2.68c1.021,0,1.643-0.92,1.922-2.9h-1.646l0.279-2.36L26.764,10.141
		L26.764,10.141z"/>
	<path class="st16" d="M29.642,14.022c0-1.201,0.318-2.541,0.84-3.541c0.681-1.32,1.801-2.041,3.146-2.041
		c1.802,0,2.814,1.22,2.814,3.421c0,3.581-1.561,5.881-3.961,5.881C30.621,17.742,29.642,16.442,29.642,14.022z M33.923,12.061
		c0-0.92-0.198-1.38-0.578-1.38c-0.66,0-1.224,1.58-1.224,3.4c0,0.9,0.224,1.42,0.615,1.42
		C33.402,15.502,33.923,13.941,33.923,12.061z"/>
	<path class="st16" d="M40.241,10.681h-0.84l0.261-2.061h0.846l0.302-2.46h2.461l-0.303,2.46h1.001l-0.238,2.061h-1l-0.859,6.881
		h-2.462L40.241,10.681z"/>
	<path class="st16" d="M52.501,8.62h2.461l-1.104,8.942h-2.461L52.501,8.62z M52.541,6.16c0-0.96,0.84-1.78,1.774-1.78
		c0.765,0,1.36,0.6,1.36,1.38c0,0.96-0.82,1.801-1.78,1.801C53.121,7.56,52.541,6.96,52.541,6.16z"/>
	<path class="st16" d="M58.541,10.681h-0.846l0.266-2.061h0.843l0.3-2.46h2.461l-0.301,2.46h1.001l-0.24,2.061h-1l-0.855,6.881
		h-2.466L58.541,10.681z"/>
	<path class="st16" d="M66.441,14.421c0.82,0,1.46,0.64,1.46,1.46c0,1.02-0.88,1.9-1.896,1.9c-0.842,0-1.46-0.64-1.46-1.48
		C64.541,15.302,65.421,14.421,66.441,14.421z M66.401,4.219h2.562l-1.146,9.342h-2.58L66.401,4.219z"/>
</g>
<g id="btn-continue">
	<path class="st17" d="M53.56,7.064l47.439,10.121v22.418l-47.415,9.339L6.999,39.611V16.391L53.56,7.064 M53.578,4L4,13.936v28.139
		l49.578,9.936L104,42.074V14.764L53.578,4L53.578,4z"/>
	<path class="st17" d="M22.882,27.127c-1.135,0.379-1.513,0.463-2.171,0.463c-1.373,0-2.787-0.615-3.74-1.625
		c-0.799-0.854-1.232-1.979-1.232-3.228c0-2.759,2.188-4.938,4.944-4.938c0.729,0,1.317,0.127,2.199,0.478v2.899
		c-0.574-0.688-1.261-1.022-2.103-1.022c-1.457,0-2.508,1.077-2.508,2.577c0,0.798,0.268,1.429,0.826,1.891
		c0.477,0.396,1.062,0.616,1.682,0.616c0.798,0,1.473-0.308,2.103-0.979V27.127L22.882,27.127z"/>
	<path class="st17" d="M26.84,18.893c0.883-0.744,2.115-1.178,3.418-1.178c1.556,0,2.83,0.521,3.824,1.562
		c0.867,0.911,1.346,2.115,1.346,3.418c0,1.477-0.646,2.857-1.752,3.796c-0.938,0.785-2.087,1.183-3.459,1.183
		c-2.941,0-5.127-2.156-5.127-5.07C25.09,21.217,25.735,19.83,26.84,18.893z M30.258,25.321c1.457,0,2.634-1.177,2.634-2.634
		c0-1.442-1.177-2.618-2.634-2.618c-1.442,0-2.633,1.176-2.633,2.591C27.625,24.145,28.787,25.321,30.258,25.321z"/>
	<path class="st17" d="M38.04,17.995h2.423l4.469,5.721v-5.721h2.424v9.349h-2.424l-4.469-5.721v5.721H38.04V17.995z"/>
	<path class="st17" d="M51.383,20.055h-1.977v-2.062h6.415v2.062h-2.017v7.283H51.38L51.383,20.055L51.383,20.055z"/>
	<path class="st17" d="M57.892,17.995h2.424v9.349h-2.424V17.995z"/>
	<path class="st17" d="M63.45,17.995h2.426l4.468,5.721v-5.721h2.424v9.349h-2.424l-4.468-5.721v5.721H63.45V17.995z"/>
	<path class="st17" d="M83.838,23.389c0,1.373-0.238,2.114-0.911,2.871c-0.771,0.867-1.862,1.312-3.222,1.312
		c-1.431,0-2.689-0.53-3.333-1.396c-0.49-0.658-0.675-1.414-0.675-2.787v-5.396h2.426v5.062c0,1.062,0.025,1.271,0.266,1.666
		c0.267,0.445,0.771,0.715,1.357,0.715c0.616,0,1.163-0.295,1.415-0.756c0.21-0.365,0.253-0.646,0.253-1.625v-5.062h2.424V23.389
		L83.838,23.389z"/>
	<path class="st17" d="M86.774,17.995h5.311v2.062h-2.887v1.555h2.731v2.062h-2.731v1.604h2.887v2.062h-5.311V17.995z"/>
	<path class="st17" d="M23.785,39.592c9.118-3.729,18.764-6.439,28.75-8.035c-1.774,1.193-3.505,2.426-5.185,3.688
		c7.09-1.222,14.346-1.854,21.689-1.883c-2.289,0.897-4.526,1.856-6.71,2.87c7.286,0.594,14.524,1.807,21.636,3.633
		c-10.918-1.293-21.757-1.141-32.248,0.337c1.785-1.122,3.617-2.205,5.496-3.248c-6.662,0.641-13.21,1.79-19.58,3.438
		c1.723-1.522,3.508-3.013,5.354-4.459C36.509,36.663,30.089,37.887,23.785,39.592z"/>
</g>
<g id="perfect-answer">
	<g id="XMLID_2433_">
		<polygon class="st24" points="18.725,36.129 4,28.485 4,11.644 18.725,4 33.451,11.644 33.451,28.485 		"/>
	</g>
	<polygon class="st17" points="18.725,7.843 21.697,15.764 29.715,16.239 23.533,21.707 25.516,29.821 18.725,25.381 11.934,29.821 
		13.916,21.707 7.735,16.239 15.754,15.764 	"/>
</g>
<g id="quiz-btn">
	<g id="_x3E_bg_1_">
		<polygon class="st24" points="4,50 63,62 123,50 123,17 63,4 4,16 		"/>
	</g>
	<path class="st16" d="M27.545,46.795c10.854-4.434,22.326-7.664,34.213-9.562c-2.112,1.422-4.17,2.885-6.169,4.387
		c8.438-1.451,17.07-2.213,25.812-2.238c-2.729,1.068-5.393,2.209-7.983,3.416c8.672,0.705,17.284,2.148,25.746,4.322
		c-12.992-1.539-25.894-1.355-38.375,0.4c2.125-1.336,4.305-2.625,6.541-3.865c-7.933,0.756-15.721,2.129-23.302,4.088
		c2.052-1.812,4.174-3.584,6.369-5.309C42.687,43.309,35.047,44.766,27.545,46.795z"/>
</g>
<g id="btn-generic">
	<path class="st16" d="M4,51.002l59,12l60-12V17L63,4l0,0L4,16V51.002z M7,18.451L62.979,7.065L120,19.419v29.123L63.005,59.94
		L7,48.549V18.451z"/>
	<path class="st16" d="M32.495,50.604c9.365-3.825,19.271-6.614,29.529-8.252c-1.824,1.227-3.6,2.491-5.326,3.787
		c7.283-1.253,14.734-1.91,22.277-1.934c-2.351,0.923-4.648,1.907-6.893,2.948c7.483,0.609,14.921,1.855,22.223,3.731
		c-11.213-1.329-22.346-1.171-33.122,0.346c1.834-1.153,3.716-2.266,5.646-3.336c-6.844,0.652-13.564,1.838-20.106,3.528
		c1.769-1.565,3.602-3.093,5.498-4.582C45.563,47.594,38.97,48.852,32.495,50.604z"/>
</g>
<g id="speaker">
	<path class="st1" d="M32.61,58.493c10.218-2.746,17.732-11.951,17.732-22.892c0-10.941-7.515-20.146-17.732-22.891"/>
	<path class="st1" d="M40.538,67.202c14.2-4.416,24.44-16.891,24.44-31.601c0-14.71-10.24-27.185-24.44-31.601"/>
	<path class="st1" d="M28.11,47.821c5.122-2.226,8.655-6.85,8.655-12.219c0-5.371-3.533-9.996-8.655-12.221"/>
	<polygon class="st16" points="12.774,44.639 12.774,26.563 20.401,21.772 20.401,49.43 	"/>
	<rect x="4" y="26.563" class="st16" width="11.273" height="18.075"/>
</g>
<g id="no-phone">
	<path class="st16" d="M71.691,85.5H35.309V21.501h36.382V85.5z M71.886,18.501H35.115c-1.55,0-2.807,1.256-2.807,2.806v64.388
		c0,1.549,1.257,2.806,2.807,2.806h36.771c1.55,0,2.806-1.257,2.806-2.806V21.307C74.691,19.757,73.435,18.501,71.886,18.501"/>
	<path class="st16" d="M64.94,71.566H42.059V27.935h22.882L64.94,71.566L64.94,71.566z M66.587,24.935H40.414
		c-0.748,0-1.354,0.605-1.354,1.354v46.922c0,0.748,0.606,1.355,1.354,1.355h26.173c0.748,0,1.354-0.607,1.354-1.355V26.288
		C67.94,25.54,67.335,24.935,66.587,24.935"/>
	<circle class="st2" cx="53.5" cy="53.5" r="49.5"/>
	<line class="st2" x1="87.5" y1="19.5" x2="19.5" y2="87.5"/>
	<line class="st1" x1="48.5" y1="79.719" x2="58.5" y2="79.719"/>
</g>
<g id="duty">
	<path class="st27" d="M24,8.515l16,8.375v18.226L24,43.49L8,35.115V16.89L24,8.515 M24,4L4,14.469v23.062L24,48l20-10.469V14.469
		L24,4L24,4z"/>
</g>
<g id="duty-active">
	<path class="st12" d="M24,8.515l16,8.375v18.221l-16,8.375L8,35.111V16.89L24,8.515 M24,4L4,14.469v23.062L24,48l20-10.469V14.469
		L24,4L24,4z"/>
	<polygon class="st16" points="24,40.5 11.275,33.602 11.275,18.399 24,11.5 36.726,18.399 36.726,33.602 	"/>
</g>
<g id="duty-complete">
	<polygon class="st34" points="29.197,17.963 34.619,21.318 28.237,21.314 27.411,21.314 36.728,29.252 36.728,18.399 24,11.5 
		21.205,13.016 	"/>
	<polygon class="st34" points="20.313,31.411 15.219,28.18 21.256,28.07 23.596,28.027 11.272,18.57 11.272,33.601 24,40.5 
		29.737,37.39 	"/>
	<polygon class="st6" points="32.608,39.363 24,43.869 7.637,35.304 7.637,16.696 12.953,13.914 10.302,11.17 4,14.469 4,37.531 
		24,48 36.154,41.639 	"/>
	<polygon class="st6" points="24,4 14.766,8.834 18.359,11.084 24,8.131 40.363,16.696 40.363,35.304 37.713,36.691 40.461,39.384 
		44,37.531 44,14.469 	"/>
	<polygon class="st16" points="9.454,7.667 28.238,19.428 22.482,19.424 38.131,32.91 31.345,33.008 41.316,42.777 21.289,29.927 
		28.816,29.789 12.09,16.806 18.103,16.616 	"/>
</g>
<g id="btn-acknowledge">
	<polygon id="_x3E_bg_2_" class="st27" points="5.503,55.053 5.503,18.948 95.223,5.518 186.503,20.073 186.503,55.05 
		95.231,68.484 	"/>
	<path id="_x3E_outline_1_" class="st24" d="M95.215,7.036l89.788,14.317v32.401l-89.77,13.213L7.003,53.76V20.239L95.215,7.036
		 M95.229,4L4,17.655v38.69L95.229,70L188,56.345V18.793L95.229,4L95.229,4z"/>
	<path id="_x3E_lightning_2_" class="st16" d="M60.195,50.794c10.851-4.432,22.326-7.663,34.213-9.562
		c-2.113,1.422-4.17,2.886-6.169,4.388c8.437-1.452,17.07-2.213,25.811-2.24c-2.725,1.069-5.388,2.21-7.98,3.416
		c8.673,0.706,17.286,2.149,25.746,4.323c-12.991-1.539-25.896-1.356-38.375,0.4c2.125-1.336,4.305-2.625,6.54-3.865
		c-7.933,0.756-15.724,2.13-23.305,4.088c2.055-1.813,4.18-3.584,6.371-5.309C75.337,47.309,67.698,48.765,60.195,50.794z"/>
</g>
<g id="chapter-bracket">
	<polyline class="st9" points="4,104.992 27,104.992 27,4 4,4 	"/>
</g>
<g id="tesselation">
	<rect x="4.006" y="4" class="st19" width="1024" height="768"/>
	<path class="st21" d="M158.241,148.183c-22.989,13.425-45.722,28.383-68.15,45.806c-22.438-34.314-44.562-72.895-66.346-116.986
		C67.308,105.954,112.267,129.343,158.241,148.183z"/>
	<path class="st21" d="M4.004,63.43c6.551,4.655,13.132,9.178,19.741,13.573c-6.612,4.599-13.188,9.448-19.739,14.581"/>
	<path class="st21" d="M4.008,248.9c6.546,1.995,13.126,3.933,19.733,5.816c-6.608,7.11-13.189,14.545-19.737,22.339"/>
	<path class="st21" d="M23.745,432.43c-6.612,9.621-13.188,19.639-19.739,30.092"/>
	<path class="st21" d="M4,619.842c6.549-3.326,13.131-6.562,19.745-9.699c-6.607,12.133-13.188,24.736-19.739,37.85"/>
	<path class="st21" d="M298.849,191.806c-23.813,13.436-47.475,27.41-70.924,42.702c-23.449-25.637-46.692-54.072-69.688-86.325
		C204.216,167.013,251.222,181.297,298.849,191.806z"/>
	<path class="st21" d="M443.202,212.397c-24.229,15.043-48.416,29.713-72.491,44.723c-24.069-19.889-48.046-41.379-71.858-65.313
		C346.478,202.301,394.733,209.028,443.202,212.397z"/>
	<path class="st21" d="M588.812,212.397c-24.232,18.401-48.517,35.48-72.806,51.963c-24.286-16.484-48.573-33.561-72.809-51.963
		C491.67,215.751,540.345,215.751,588.812,212.397z"/>
	<path class="st21" d="M733.164,191.806c-23.813,23.934-47.787,45.423-71.859,65.313c-24.077-15.01-48.255-29.682-72.489-44.723
		C637.282,209.028,685.535,202.302,733.164,191.806z"/>
	<path class="st21" d="M873.772,148.183c-22.988,32.255-46.24,60.689-69.687,86.325c-23.45-15.293-47.107-29.267-70.927-42.701
		C780.793,181.297,827.795,167.012,873.772,148.183z"/>
	<path class="st21" d="M1008.269,77.002c-21.777,44.094-43.914,82.672-66.343,116.986c-22.437-17.423-45.166-32.379-68.153-45.806
		C919.754,129.344,964.707,105.955,1008.269,77.002z"/>
	<path class="st21" d="M1028.002,91.578c-6.545-5.131-13.123-9.979-19.729-14.575c6.612-4.395,13.188-8.917,19.739-13.572"/>
	<path class="st21" d="M4,156.163c28.115,14.279,56.847,26.818,86.088,37.826c-22.434,17.427-44.562,37.314-66.345,60.728
		c-6.612-10.876-13.188-22.187-19.739-33.969"/>
	<path class="st21" d="M227.925,234.508c-23.451,15.295-46.695,31.907-69.688,50.71c-22.984-26.876-45.721-56.921-68.15-91.229
		C134.95,210.874,181.023,224.164,227.925,234.508z"/>
	<path class="st21" d="M370.711,257.12c-24.075,15.011-48.046,30.357-71.858,46.791c-23.813-20.936-47.478-43.771-70.924-69.402
		C274.827,244.844,322.562,252.239,370.711,257.12z"/>
	<path class="st21" d="M516.006,264.36c-24.286,16.484-48.573,32.371-72.811,48.372c-24.23-17.444-48.417-35.726-72.489-55.612
		C418.863,261.99,467.437,264.356,516.006,264.36z"/>
	<path class="st21" d="M661.301,257.12c-24.076,19.886-48.262,38.169-72.491,55.612c-24.23-16.002-48.521-31.888-72.803-48.372
		C564.579,264.356,613.151,261.993,661.301,257.12z"/>
	<path class="st21" d="M804.088,234.508c-23.451,25.634-47.109,48.468-70.93,69.402c-23.812-16.434-47.785-31.779-71.856-46.791
		C709.454,252.239,757.187,244.845,804.088,234.508z"/>
	<path class="st21" d="M941.927,193.99c-22.431,34.306-45.168,64.354-68.156,91.229c-22.988-18.801-46.233-35.415-69.685-50.711
		C850.991,224.165,897.062,210.875,941.927,193.99z"/>
	<path class="st21" d="M1028.01,220.745c-6.549,11.784-13.13,23.095-19.743,33.972c-21.783-23.413-43.908-43.303-66.34-60.728
		c29.241-11.008,57.97-23.546,86.085-37.825"/>
	<path class="st21" d="M158.241,285.219c-22.989,18.803-45.722,39.801-68.15,63.978c-22.438-27.561-44.562-58.66-66.346-94.48
		C67.308,267.124,112.267,277.146,158.241,285.219z"/>
	<path class="st21" d="M298.849,303.91c-23.813,16.435-47.475,33.956-70.924,53.385c-23.449-21.499-46.692-45.204-69.688-72.075
		C204.216,293.287,251.222,299.408,298.849,303.91z"/>
	<path class="st21" d="M443.202,312.731c-24.229,16.004-48.416,32.12-72.491,49.08c-24.069-17.938-48.046-36.97-71.858-57.901
		C346.478,308.408,394.733,311.288,443.202,312.731z"/>
	<path class="st21" d="M588.812,312.731c-24.232,17.441-48.517,34.045-72.806,50.526c-24.286-16.483-48.573-33.085-72.809-50.526
		C491.67,314.167,540.345,314.167,588.812,312.731z"/>
	<path class="st21" d="M733.164,303.91c-23.813,20.931-47.787,39.962-71.859,57.901c-24.077-16.962-48.255-33.078-72.489-49.08
		C637.282,311.288,685.535,308.406,733.164,303.91z"/>
	<path class="st21" d="M873.772,285.219c-22.988,26.875-46.24,50.581-69.687,72.079c-23.45-19.435-47.107-36.949-70.927-53.384
		C780.793,299.409,827.795,293.285,873.772,285.219z"/>
	<path class="st21" d="M1008.269,254.716c-21.777,35.819-43.914,66.92-66.343,94.48c-22.437-24.177-45.166-45.171-68.153-63.978
		C919.754,277.146,964.707,267.121,1008.269,254.716z"/>
	<path class="st21" d="M1028.01,277.053c-6.547-7.793-13.128-15.227-19.741-22.336c6.613-1.883,13.194-3.821,19.741-5.816"/>
	<path class="st21" d="M4.008,341.635c28.109,2.854,56.838,5.358,86.078,7.562c-22.436,24.186-44.562,51.549-66.347,83.233
		c-6.607-8.363-13.188-17.088-19.733-26.211"/>
	<path class="st21" d="M227.925,357.294c-23.451,19.435-46.695,40.772-69.688,64.959c-22.984-21.492-45.721-45.507-68.15-73.061
		C134.95,352.574,181.023,355.227,227.925,357.294z"/>
	<path class="st21" d="M370.711,361.811c-24.075,16.964-48.046,34.769-71.858,54.203c-23.813-17.938-47.478-37.228-70.924-58.719
		C274.827,359.362,322.562,360.838,370.711,361.811z"/>
	<path class="st21" d="M516.006,363.257c-24.286,16.479-48.573,32.846-72.811,49.809c-24.23-16.48-48.417-33.322-72.489-51.255
		C418.863,362.785,467.437,363.257,516.006,363.257z"/>
	<path class="st21" d="M661.301,361.811c-24.076,17.935-48.262,34.771-72.491,51.255c-24.23-16.963-48.521-33.326-72.803-49.809
		C564.579,363.257,613.151,362.785,661.301,361.811z"/>
	<path class="st21" d="M804.088,357.295c-23.451,21.49-47.109,40.781-70.93,58.718c-23.812-19.438-47.785-37.238-71.856-54.203
		C709.454,360.835,757.187,359.36,804.088,357.295z"/>
	<path class="st21" d="M941.927,349.198c-22.431,27.552-45.168,51.562-68.156,73.06c-22.988-24.188-46.233-45.525-69.685-64.958
		C850.991,355.227,897.062,352.573,941.927,349.198z"/>
	<path class="st21" d="M1028.01,406.215c-6.549,9.123-13.13,17.85-19.743,26.215c-21.783-31.686-43.908-59.05-66.34-83.232
		c29.239-2.2,57.967-4.707,86.081-7.562"/>
	<path class="st21" d="M158.241,422.254c-22.989,24.188-45.722,51.217-68.15,82.146c-22.438-20.803-44.562-44.426-66.346-71.975
		C67.308,428.295,112.267,424.947,158.241,422.254z"/>
	<path class="st21" d="M298.849,416.014c-23.813,19.438-47.475,40.5-70.924,64.064c-23.449-17.359-46.692-36.338-69.688-57.824
		C204.216,419.561,251.222,417.518,298.849,416.014z"/>
	<path class="st21" d="M443.202,413.066c-24.229,16.963-48.416,34.525-72.491,53.438c-24.069-15.984-48.046-32.562-71.858-50.488
		C346.478,414.514,394.733,413.547,443.202,413.066z"/>
	<path class="st21" d="M588.812,413.066c-24.232,16.48-48.517,32.607-72.806,49.088c-24.286-16.479-48.573-32.605-72.809-49.088
		C491.67,412.586,540.345,412.586,588.812,413.066z"/>
	<path class="st21" d="M733.164,416.014c-23.813,17.93-47.787,34.504-71.859,50.484c-24.077-18.908-48.255-36.473-72.489-53.436
		C637.282,413.547,685.535,414.51,733.164,416.014z"/>
	<path class="st21" d="M873.772,422.254c-22.988,21.488-46.24,40.465-69.687,57.824c-23.45-23.564-47.107-44.635-70.927-64.064
		C780.793,417.518,827.795,419.561,873.772,422.254z"/>
	<path class="st21" d="M1008.269,432.43c-21.777,27.547-43.914,51.172-66.343,71.975c-22.437-30.934-45.166-57.961-68.153-82.146
		C919.754,424.951,964.707,428.295,1008.269,432.43z"/>
	<path class="st21" d="M1028.01,462.523c-6.547-10.453-13.128-20.473-19.741-30.094c6.61,0.629,13.188,1.271,19.733,1.938"/>
	<path class="st21" d="M4.004,527.105c28.115-8.566,56.845-16.092,86.084-22.699c-22.434,30.938-44.562,65.783-66.345,105.738
		c-6.612-5.855-13.188-11.996-19.739-18.457"/>
	<path class="st21" d="M227.925,480.082c-23.451,23.57-46.695,49.646-69.688,79.209c-22.984-16.109-45.721-34.088-68.15-54.885
		C134.95,494.271,181.023,486.291,227.925,480.082z"/>
	<path class="st21" d="M370.711,466.504c-24.075,18.91-48.046,39.178-71.858,61.609c-23.813-14.934-47.478-30.678-70.924-48.035
		C274.827,473.873,322.562,469.436,370.711,466.504z"/>
	<path class="st21" d="M516.006,462.154c-24.286,16.484-48.573,33.324-72.811,51.246c-24.23-15.52-48.417-30.912-72.489-46.895
		C418.863,463.58,467.437,462.158,516.006,462.154z"/>
	<path class="st21" d="M661.301,466.504c-24.076,15.979-48.262,31.377-72.491,46.895c-24.23-17.924-48.521-34.764-72.803-51.246
		C564.579,462.16,613.151,463.578,661.301,466.504z"/>
	<path class="st21" d="M804.088,480.082c-23.451,17.357-47.109,33.104-70.93,48.035c-23.812-22.436-47.785-42.701-71.856-61.609
		C709.454,469.436,757.187,473.875,804.088,480.082z"/>
	<path class="st21" d="M941.927,504.406c-22.431,20.797-45.168,38.771-68.156,54.883c-22.988-29.561-46.233-55.637-69.685-79.207
		C850.991,486.287,897.062,494.273,941.927,504.406z"/>
	<path class="st21" d="M1028.01,591.688c-6.549,6.461-13.13,12.604-19.743,18.455c-21.783-39.957-43.908-74.799-66.34-105.736
		c29.241,6.605,57.97,14.131,86.086,22.699"/>
	<path class="st21" d="M158.241,559.289c-22.989,29.57-45.722,62.639-68.15,100.324c-22.438-14.045-44.562-30.189-66.346-49.471
		C67.308,589.463,112.267,572.752,158.241,559.289z"/>
	<path class="st21" d="M4.004,712.49c76.554-54.496,157.851-90.742,241.561-114.812c100.146-28.488,203.746-39.561,306.866-36.105
		c103.119,3.766,205.761,22.049,304.046,59.453c59.021,22.65,116.478,52.195,171.529,91.258"/>
	<path class="st21" d="M298.849,528.117c-23.813,22.439-47.475,47.047-70.924,74.75c-23.449-13.227-46.692-27.469-69.688-43.578
		C204.216,545.838,251.222,535.627,298.849,528.117z"/>
	<path class="st21" d="M443.202,513.4c-24.229,17.926-48.416,36.932-72.491,57.795c-24.069-14.035-48.046-28.146-71.858-43.078
		C346.478,520.617,394.733,515.809,443.202,513.4z"/>
	<path class="st21" d="M588.812,513.4c-24.232,15.521-48.517,31.17-72.806,47.65c-24.286-16.48-48.573-32.129-72.809-47.65
		C491.67,511.002,540.345,511.002,588.812,513.4z"/>
	<path class="st21" d="M733.164,528.117c-23.813,14.934-47.787,29.045-71.859,43.078c-24.077-20.863-48.255-39.869-72.489-57.795
		C637.282,515.809,685.535,520.617,733.164,528.117z"/>
	<path class="st21" d="M873.772,559.289c-22.988,16.107-46.24,30.355-69.687,43.578c-23.45-27.705-47.107-52.311-70.927-74.75
		C780.793,535.627,827.795,545.836,873.772,559.289z"/>
	<path class="st21" d="M1008.269,610.143c-21.777,19.271-43.914,35.424-66.343,49.471c-22.437-37.688-45.166-70.752-68.153-100.324
		C919.754,572.752,964.707,589.463,1008.269,610.143z"/>
	<path class="st21" d="M1028.006,647.984c-6.55-13.111-13.125-25.711-19.737-37.842c6.612,3.141,13.194,6.371,19.741,9.697"/>
</g>
<g id="lightning-fist">
	<line class="st14" x1="239.281" y1="86.226" x2="4" y2="86.226"/>
	<line class="st5" x1="239.281" y1="109.559" x2="115" y2="109.559"/>
	<line class="st14" x1="335" y1="86.226" x2="570.281" y2="86.226"/>
	<line class="st5" x1="335" y1="109.559" x2="459.281" y2="109.559"/>
	<polygon class="st16" points="321.09,70.648 323.229,69.731 313.185,64.473 312.241,66.017 	"/>
	<polygon class="st16" points="326.575,90.766 328.381,90.981 328.381,80.458 326.575,81.44 	"/>
	<polygon class="st16" points="328.381,103.203 326.575,103.159 326.575,113.201 328.381,114.55 	"/>
	<polygon class="st16" points="301.181,60.227 302.274,58.763 293.562,54.202 293.515,56.213 	"/>
	<polygon class="st16" points="247.534,102.848 245.728,102.634 245.728,113.665 247.534,112.683 	"/>
	<polygon class="st16" points="253.866,70.206 262.24,65.822 261.526,64.159 252.069,69.108 	"/>
	<polygon class="st16" points="273.229,60.069 281.272,55.859 281.53,53.687 272.366,58.483 	"/>
	<polygon class="st16" points="245.728,79.174 245.728,90.426 247.534,90.471 247.534,80.523 	"/>
	<path class="st17" d="M282.671,59.383l6.115-4.312l-1.952,16.062l2.232,0.22c0.815,0.06,1.592,0.361,2.245,0.847l0.61-24.8
		l-4.562,3.783l1.775-26.329l-4.562,3.791L286.172,4l-6.076,32.802l5.834-4.85L282.671,59.383z"/>
	<path class="st17" d="M309.438,61.488l-10.419,13.86c1.076,0.188,2.028,0.754,2.701,1.627c0.359,0.476,0.606,1.011,0.752,1.573
		l13.521-22.139l-5.845,0.995l14.705-21.913l-5.851,1.002l13.705-20.545l-21.664,25.364l7.479-1.277l-16.536,22.122L309.438,61.488z
		"/>
	<path class="st17" d="M317.325,74.229l6.789,3.141l-13.776,5.868c0,0.247-0.013,0.493-0.057,0.744l-0.826,4.731l22.873-12.461
		l-5.558-2.062l23.688-11.625l-5.562-2.056l22.143-10.938l-31.444,11.133l7.113,2.637L317.325,74.229z"/>
	<path class="st17" d="M253.662,41.252l10.891,25.387l3.146-6.791l5.677,13.328c0.123-0.013,0.241-0.038,0.366-0.038h3.044
		c0.588,0,1.142,0.111,1.67,0.289l-11.874-21.794l-2.062,5.56l-11.625-23.69l-2.057,5.564l-10.938-22.143l11.135,31.441
		L253.662,41.252z"/>
	<polygon class="st17" points="347.157,89.77 352.003,95.604 324.575,92.345 328.885,98.461 309.017,96.045 309.46,100.931 
		336.558,101.601 332.772,97.037 359.102,98.814 355.312,94.252 379.957,95.851 	"/>
	<polygon class="st17" points="231.644,72.912 230.365,65.436 252.487,81.973 251.812,74.521 267.177,86.069 268.27,82.895 
		268.27,81.118 246.737,67.966 247.733,73.812 225.82,59.105 226.823,64.953 206.278,51.247 	"/>
	<polygon class="st17" points="343.508,121.588 344.786,129.064 322.663,112.529 323.338,119.98 310.138,110.059 307.534,113.782 
		328.412,126.535 327.418,120.69 349.33,135.396 348.329,129.548 368.873,143.254 	"/>
	<polygon class="st17" points="249.302,117.133 267.666,109.31 264.911,105.271 241.087,118.249 246.646,120.312 222.956,131.934 
		228.52,133.991 206.378,144.93 237.823,133.795 230.709,131.164 256.092,120.274 	"/>
	<polygon class="st17" points="222.281,98.029 249.708,101.289 245.398,95.172 263.297,97.348 264.894,92.706 237.727,92.033 
		241.51,96.598 215.181,94.819 218.972,99.382 194.328,97.784 227.126,103.865 	"/>
	<path class="st16" d="M319.094,122.958l-16.286,8.525l-0.062-9.26l8.196-11.728l-1.575-17.365l1.588-9.094
		c0.405-2.33-1.08-4.571-3.387-5.104l-1.196-0.279c-1.115-0.261-2.293-0.054-3.277,0.531c-0.071-0.83-0.368-1.627-0.892-2.307
		c-0.729-0.954-1.789-1.562-2.979-1.716l-2.93-0.363c-1.04-0.14-2.062,0.119-2.938,0.68c-0.021-1.02-0.362-1.991-1.03-2.779
		c-0.779-0.924-1.872-1.479-3.056-1.562l-4.116-0.403c-1.226-0.089-2.409,0.315-3.321,1.146c-0.748,0.68-1.213,1.563-1.382,2.537
		c-0.992-0.896-2.294-1.463-3.735-1.463h-3.108c-3.082,0-5.589,2.51-5.589,5.592v4.389l-6.385,18.546l14.097,20.671l-1.854,10.683
		l-19.13-10.013l-2.139,0.917l34.45,18.032l33.836-17.71L319.094,122.958z M302.779,82.627c0.104-0.73,0.499-1.363,1.108-1.782
		c0.609-0.418,1.342-0.562,2.062-0.395l1.195,0.28c1.354,0.312,2.225,1.628,1.982,2.994l-1.831,10.486
		c-2.135,0.35-4.141,0.146-6.102-0.612L302.779,82.627z M306.549,96.29c-0.607,1.433-1.447,3.375-1.803,4.122
		c-0.416,0.891-1.549,1.748-2.723,1.605l-0.874-0.093c-0.619-0.065-1.167-0.403-1.501-0.934c-0.336-0.521-0.411-1.16-0.212-1.749
		l1.299-3.813C302.745,96.252,304.672,96.54,306.549,96.29z M293.136,78.968c0.069-0.707,0.412-1.345,0.973-1.785
		c0.555-0.444,1.254-0.646,1.959-0.559l2.925,0.37c0.698,0.086,1.321,0.444,1.748,1.003c0.43,0.562,0.612,1.257,0.515,1.952
		l-1.894,13.521c-2.563,0.751-4.996,0.494-7.562-0.805L293.136,78.968z M291.704,94.76c2.309,1.146,4.659,1.438,7.012,0.872
		l-1.021,3.018c-0.002,0.003-0.001,0.006-0.005,0.011l-0.327,0.965c-0.354,1.037-1.385,1.664-2.479,1.481l-1.894-0.312
		c-0.817-0.139-1.417-0.86-1.396-1.688L291.704,94.76z M282.213,75.116c0.021-0.724,0.32-1.389,0.856-1.874
		c0.534-0.479,1.224-0.716,1.938-0.674l4.104,0.402c0.707,0.053,1.348,0.379,1.807,0.92c0.455,0.539,0.671,1.226,0.604,1.93
		l-1.558,16.6c-2.696,0.479-4.6,0.23-6.938-0.575c1.008-0.399,2.016-0.975,2.897-1.79c1.811-1.68,2.728-4.021,2.728-6.973v-0.923
		h-6.354v-3.616c0-0.416-0.054-0.815-0.14-1.208L282.213,75.116z M289.915,100.188c-1.77-1.735-4.336-3.008-7.995-3.572
		l-0.071-3.133l-0.026-0.128c1.942,0.719,3.674,1.146,5.618,1.146c0.758,0,1.572-0.089,2.434-0.22l-0.122,4.773
		C289.738,99.448,289.802,99.827,289.915,100.188z M269.857,78.543c0-2.062,1.678-3.741,3.743-3.741h3.107
		c1.727,0,3.165,1.179,3.601,2.767l-0.108,4.595h-10.343V78.543z M275.59,133.728l2.079-12.003l-13.993-20.523l5.915-17.192h17.184
		c-0.162,1.973-0.864,3.546-2.089,4.687c-2.688,2.501-7.093,2.216-7.139,2.209l-1.064-0.078l0.079,1.067
		c0.113,1.541,0.226,4.288,0.022,5.09l-0.288,1.146h1.185c11.646,0,14.247,5.471,14.562,13.681c0.021,0.496,0.43,0.888,0.92,0.888
		c0.017,0,0.023,0,0.037-0.002c0.507-0.02,0.904-0.448,0.887-0.958c-0.131-3.38-0.643-6.785-2.36-9.54
		c0.353,0.203,0.746,0.352,1.166,0.418l1.896,0.314c0.229,0.037,0.452,0.056,0.674,0.056c1.055,0,2.039-0.409,2.781-1.104
		c0.021,0.038,0.032,0.076,0.059,0.111c0.639,1.001,1.682,1.646,2.858,1.771l0.875,0.093c0.147,0.017,0.293,0.023,0.438,0.023
		c1.896,0,3.501-1.303,4.147-2.684c0.314-0.675,0.995-2.241,1.574-3.586l1.053,12.386l-8.146,11.651l0.07,10.798l-7.088,3.709
		v-8.248c0-0.511-0.41-0.924-0.924-0.924c-0.51,0-0.921,0.413-0.921,0.924v9.213l-4.98,2.609L275.59,133.728z M278.462,92.754
		c0.479-0.02,1.094-0.066,1.778-0.174l-0.031,3.826c-0.552-0.047-1.101-0.096-1.696-0.109
		C278.573,95.182,278.515,93.723,278.462,92.754z"/>
</g>
<g id="chapter-progress-chapter">
	<path id="_x3E_teal_4_" class="st27" d="M12,7.402l5,2.679v5.842l-5,2.676l-5-2.676v-5.842L12,7.402 M12,4L4,8.279v9.438L12,22
		l8-4.282V8.279L12,4L12,4z"/>
</g>
<g id="chapter-progress-slide">
	<rect x="4" y="4" class="st27" width="9" height="9"/>
</g>
<g id="chapter-progress-quiz">
	<polygon id="_x3E_teal_2_" class="st27" points="23.668,28.111 17.75,31.184 6.5,25.344 6.5,12.656 10.155,10.76 8.332,8.889 
		4,11.138 4,26.862 17.75,34 26.106,29.662 	"/>
	<polygon id="_x3E_teal_1_" class="st27" points="17.75,4 11.401,7.296 13.872,8.83 17.75,6.816 29,12.656 29,25.344 27.178,26.289 
		29.067,28.125 31.5,26.862 31.5,11.138 	"/>
	<g>
		<polygon class="st12" points="7.75,6.5 20.664,14.519 16.706,14.517 27.465,23.711 22.8,23.778 29.655,30.439 15.886,21.678 
			21.061,21.583 9.561,12.731 13.695,12.603 		"/>
	</g>
</g>
<g id="chapter-progress-duties">
	<circle id="_x3E_teal" class="st27" cx="8.5" cy="8.5" r="4.5"/>
</g>
<g id="closed-caption-btn">
	<path class="st11" d="M23.146,7c1.692,0,3.068,1.376,3.068,3.068v7.863c0,1.692-1.376,3.068-3.068,3.068H10.065
		C8.376,20.999,7,19.623,7,17.931v-7.863C7,8.376,8.376,7,10.065,7H23.146 M23.146,4H10.065C6.714,4,4,6.717,4,10.068v7.863
		c0,3.352,2.716,6.068,6.065,6.068h13.081c3.354,0,6.068-2.717,6.068-6.068v-7.863C29.215,6.716,26.498,4,23.146,4L23.146,4z"/>
	<path class="st11" d="M15.148,17.843c-0.569,0.234-0.896,0.312-1.391,0.312c-1.053,0-2.002-0.469-2.652-1.313
		c-0.608-0.793-0.909-1.819-0.909-3.146c0-1.456,0.363-2.549,1.133-3.381c0.699-0.754,1.625-1.144,2.703-1.144
		c0.455,0,0.739,0.052,1.155,0.208v2.482c-0.39-0.39-0.663-0.52-1.079-0.52c-0.946,0-1.521,0.871-1.521,2.314
		c0,1.403,0.546,2.235,1.481,2.235c0.44,0,0.755-0.143,1.223-0.559L15.148,17.843z"/>
	<path class="st11" d="M22.182,17.843c-0.571,0.234-0.896,0.312-1.391,0.312c-1.055,0-2.002-0.469-2.652-1.313
		c-0.61-0.793-0.91-1.819-0.91-3.146c0-1.456,0.364-2.549,1.132-3.381c0.701-0.754,1.625-1.144,2.704-1.144
		c0.455,0,0.74,0.052,1.156,0.208v2.482c-0.39-0.39-0.663-0.52-1.079-0.52c-0.947,0-1.521,0.871-1.521,2.314
		c0,1.403,0.546,2.235,1.48,2.235c0.441,0,0.754-0.143,1.224-0.559L22.182,17.843z"/>
</g>
<g id="playhead">
	<path class="st16" d="M12,4L4,8.282v9.437L12,22l8-4.281V8.282L12,4L12,4z"/>
	<polygon class="st27" points="7.039,15.914 7.039,10.085 12,7.43 16.961,10.085 16.961,15.914 12,18.57 	"/>
</g>
<g id="pause-btn">
	<g>
		<path class="st27" d="M18,7.367l11,5.607v12.05l-11,5.607L7,25.024v-12.05L18,7.367 M18,4L4,11.138v15.726l14,7.138l14-7.138
			V11.138L18,4L18,4z"/>
	</g>
	<g id="_x3E_pause">
		<g>
			<rect x="13.5" y="13" class="st16" width="3" height="12"/>
		</g>
		<g>
			<rect x="19.5" y="13" class="st16" width="3" height="12"/>
		</g>
	</g>
	<g id="_x3E_play">
		<polygon class="st16" points="14.67,24.993 14.67,12.749 22.97,18.871 		"/>
	</g>
	<g id="_x3E_replay">
		<path class="st23" d="M17.819,13.11c3.182,0,5.761,2.58,5.761,5.761s-2.579,5.761-5.761,5.761c-3.182,0-5.761-2.58-5.761-5.761"/>
		<polygon class="st16" points="19.306,16.845 14.55,12.932 19.306,9.804 		"/>
	</g>
</g>
</svg>
