<?xml version="1.0" encoding="utf-8"?>
<!-- Generator: Adobe Illustrator 15.0.0, SVG Export Plug-In . SVG Version: 6.00 Build 0)  -->
<!DOCTYPE svg PUBLIC "-//W3C//DTD SVG 1.1//EN" "http://www.w3.org/Graphics/SVG/1.1/DTD/svg11.dtd">
<svg version="1.1" id="Layer_1" xmlns="http://www.w3.org/2000/svg" xmlns:xlink="http://www.w3.org/1999/xlink" x="0px" y="0px"
	 width="725px" height="612px" viewBox="0 0 725 612" style="enable-background:new 0 0 725 612;" xml:space="preserve">
<style type="text/css">
<![CDATA[
	.st0{fill:#E03F07;}
	.st1{fill:#53848C;}
	.st2{fill:none;stroke:#FFFFFF;stroke-width:6;stroke-miterlimit:10;}
	.st3{fill:none;stroke:#FFFFFF;stroke-width:3;stroke-linecap:square;stroke-miterlimit:10;}
	.st4{fill:#F9773E;}
	.st5{opacity:0.5;fill:#6B989F;enable-background:new    ;}
	.st6{opacity:0.75;fill:#FFB81A;}
	.st7{fill:#FFB81A;}
	.st8{fill:#FFFFFF;}
	.st9{fill:#335E6E;}
	.st10{fill:#345D6E;}
	.st11{fill:#6B989F;}
	.st12{fill:none;stroke:#FFFFFF;stroke-width:1.4167;stroke-miterlimit:10;}
	.st13{fill:none;stroke:#FFB81A;stroke-width:2.9184;stroke-miterlimit:10;}
	.st14{fill:#71A8A8;}
	.st15{fill:#FFFFFF;stroke:#231F20;stroke-miterlimit:10;}
	.st16{fill:none;stroke:#FFFFFF;stroke-width:3;stroke-miterlimit:10;}
	.st17{fill:none;stroke:#FFFFFF;stroke-width:1.4167;stroke-linecap:round;stroke-miterlimit:10;}
	.st18{fill:none;stroke:#FFFFFF;stroke-width:1.4167;stroke-miterlimit:1;}
]]>
</style>
<symbol  id="New_Symbol" viewBox="-10.3 -10.3 20.6 20.6">
	<polygon class="st15" points="9.8,-9.8 -9.8,-9.8 -9.8,9.8 9.8,9.8 	"/>
</symbol>
<g id="first">
	
		<use xlink:href="#New_Symbol"  width="20.6" height="20.6" x="-10.3" y="-10.3" transform="matrix(0.7046 0 0 -0.7046 11.2573 11.2573)" style="overflow:visible;"/>
</g>
<g id="ep4-badge">
	<g id="_x3E_white_3_">
		<path id="XMLID_93_" class="st16" d="M15.541,22.266h3.187c3.539,0,3.186-4.248,3.186-4.248H10.799v7.08l7.221,1.982"/>
		<polyline id="XMLID_92_" class="st16" points="16.178,22.266 25.594,22.266 25.594,13.558 10.726,13.558 10.726,19.434 		"/>
		<line id="XMLID_91_" class="st16" x1="21.842" y1="22.266" x2="21.842" y2="13.558"/>
		<line id="XMLID_90_" class="st16" x1="23.611" y1="27.01" x2="23.611" y2="22.408"/>
		<line id="XMLID_89_" class="st16" x1="18.16" y1="17.664" x2="18.16" y2="13.558"/>
		<line id="XMLID_88_" class="st16" x1="14.479" y1="17.664" x2="14.479" y2="13.558"/>
	</g>
	<g id="XMLID_94_">
		<path class="st7" d="M18.16,6.407l12.035,6.301v13.735L18.16,32.744L6.123,26.443V12.708L18.16,6.407 M18.16,4L4,11.434v16.355
			l14.16,7.434l14.16-7.434V11.434L18.16,4L18.16,4z"/>
	</g>
</g>
<g id="ep3-badge">
	<g id="_x3E_white_2_">
		<polyline id="XMLID_74_" class="st3" points="8.389,14.478 18.16,9.38 27.859,14.478 27.859,19.363 18.16,24.461 		"/>
		<polyline id="XMLID_73_" class="st3" points="27.859,19.08 27.859,23.895 18.16,28.992 		"/>
		<line id="XMLID_72_" class="st16" x1="27.859" y1="24.319" x2="27.859" y2="28.78"/>
		<line id="XMLID_71_" class="st3" x1="27.293" y1="14.903" x2="18.16" y2="19.717"/>
	</g>
	<g>
		<g id="XMLID_69_">
			<g>
				<path class="st7" d="M6.124,14.974l9.912,5.168v11.541l-9.912-5.168V14.974 M4,11.434v16.355l14.16,7.434l0,0V18.868L4,11.434
					L4,11.434L4,11.434z"/>
			</g>
		</g>
		<path id="XMLID_68_" class="st7" d="M25.806,18.372c-0.071,0.425-0.425,0.708-0.779,0.708s-0.566-0.283-0.496-0.708
			c0.07-0.425,0.425-0.708,0.779-0.708C25.735,17.664,25.877,17.947,25.806,18.372z"/>
		<path id="XMLID_67_" class="st7" d="M25.806,22.903c-0.071,0.425-0.425,0.708-0.779,0.708s-0.566-0.283-0.496-0.708
			c0.07-0.425,0.425-0.708,0.779-0.708S25.877,22.549,25.806,22.903z"/>
		<path id="XMLID_66_" class="st7" d="M25.806,27.647c-0.071,0.425-0.425,0.708-0.779,0.708s-0.566-0.283-0.496-0.708
			c0.07-0.425,0.425-0.708,0.779-0.708C25.735,26.939,25.877,27.222,25.806,27.647z"/>
		<g id="XMLID_59_">
			<path class="st7" d="M18.16,6.407l12.035,6.301v13.735L18.16,32.744L6.124,26.443V12.708L18.16,6.407 M18.16,4L4,11.434v16.355
				l14.16,7.434l14.16-7.434V11.434L18.16,4L18.16,4z"/>
		</g>
	</g>
</g>
<g id="ep2-badge">
	<g id="_x3E_white_1_">
		<line id="XMLID_333_" class="st16" x1="26.586" y1="14.903" x2="19.576" y2="19.009"/>
		<line id="XMLID_332_" class="st16" x1="18.16" y1="29.275" x2="18.16" y2="21.133"/>
		<line id="XMLID_330_" class="st16" x1="16.744" y1="19.009" x2="9.664" y2="14.903"/>
		<polyline id="XMLID_329_" class="st16" points="24.674,26.302 18.16,29.7 11.576,26.302 		"/>
		<polyline id="XMLID_328_" class="st16" points="20.709,11.009 27.223,14.407 27.223,21.912 		"/>
		<polyline id="XMLID_327_" class="st16" points="9.027,21.912 9.027,14.407 15.541,11.009 		"/>
	</g>
	<g id="XMLID_335_">
		<path class="st7" d="M18.16,6.407l12.036,6.301v13.735L18.16,32.744L6.124,26.443V12.708L18.16,6.407 M18.16,4L4,11.434v16.355
			l14.16,7.434l14.16-7.434V11.434L18.16,4L18.16,4z"/>
	</g>
</g>
<g id="ep1-badge">
	<g id="_x3E_white">
		<polyline id="XMLID_108_" class="st16" points="11.08,15.611 15.045,19.576 11.08,23.611 		"/>
		<polyline id="XMLID_107_" class="st16" points="25.24,23.611 21.204,19.576 25.24,15.611 		"/>
		<polyline id="XMLID_105_" class="st16" points="22.125,12.496 18.16,16.531 14.124,12.496 		"/>
		<polyline id="XMLID_104_" class="st16" points="14.124,26.656 18.16,22.691 22.125,26.656 		"/>
		<line id="XMLID_102_" class="st16" x1="18.16" y1="15.328" x2="18.16" y2="6.124"/>
		<line id="XMLID_101_" class="st16" x1="18.16" y1="33.028" x2="18.16" y2="23.824"/>
		<line id="XMLID_100_" class="st16" x1="22.408" y1="19.576" x2="31.612" y2="19.576"/>
		<line id="XMLID_98_" class="st16" x1="5.416" y1="19.576" x2="14.62" y2="19.576"/>
	</g>
	<g id="XMLID_60_">
		<path class="st7" d="M18.16,6.407l12.036,6.301v13.735L18.16,32.744L6.124,26.443V12.708L18.16,6.407 M18.16,4L4,11.434v16.355
			l14.16,7.434l14.16-7.434V11.434L18.16,4L18.16,4z"/>
	</g>
</g>
<g id="rank-badge-cyber-cadet">
	<polygon class="st8" points="30.55,4 31.328,5.629 33.027,5.912 31.824,7.186 32.107,8.956 30.55,8.107 29.062,8.956 29.346,7.186 
		28.072,5.912 29.842,5.629 	"/>
	<polygon class="st8" points="6.478,4 7.256,5.629 8.955,5.912 7.752,7.186 8.035,8.956 6.478,8.107 4.99,8.956 5.273,7.186 
		4,5.912 5.77,5.629 	"/>
	<polygon class="st7" points="15.469,33.241 13.203,32.037 12.992,32.179 13.062,31.967 7.894,29.276 7.894,16.957 16.106,12.638 
		16.602,10.018 5.77,15.682 5.77,30.551 14.974,35.365 	"/>
	<polygon class="st7" points="20.496,10.018 20.921,12.638 29.134,16.957 29.134,29.276 22.125,32.958 21.275,35.861 31.258,30.551 
		31.258,15.682 	"/>
	<g>
		<polygon class="st8" points="19.222,33.241 16.39,35.294 18.514,25.949 14.974,28.781 17.098,16.036 20.638,16.036 19.222,21.7 
			22.054,19.576 19.576,29.559 22.195,27.577 17.664,43.082 		"/>
		<rect x="13.558" y="15.328" class="st8" width="9.912" height="1.416"/>
		<polygon class="st8" points="18.514,6.832 17.098,15.328 19.93,15.328 		"/>
		<g id="XMLID_45_">
			<g id="XMLID_157_">
				<g id="XMLID_185_">
					<g id="XMLID_229_">
						<polygon class="st8" points="18.514,5.416 17.098,6.266 17.098,8.107 18.514,8.956 19.93,8.107 19.93,6.266 						"/>
					</g>
				</g>
			</g>
		</g>
	</g>
</g>
<g id="rank-badge-technical-cadet">
	<polygon class="st7" points="20.709,11.08 21.063,13.204 27.719,13.204 27.719,28.922 21.063,33.595 20.709,36.427 29.843,30.055 
		29.843,11.08 	"/>
	<polygon class="st7" points="16.037,33.666 9.452,29.205 9.381,13.204 16.037,13.204 16.391,11.08 7.186,11.08 7.328,30.338 
		16.391,36.498 	"/>
	<g>
		<g>
			<g>
				<polygon class="st8" points="18.515,16.036 15.683,18.868 18.515,42.941 21.347,18.868 				"/>
			</g>
		</g>
		<rect x="13.559" y="15.328" class="st8" width="9.912" height="1.416"/>
		<polygon class="st8" points="18.515,6.832 17.099,15.328 19.931,15.328 		"/>
		<g id="XMLID_166_">
			<g id="XMLID_168_">
				<g id="XMLID_169_">
					<g id="XMLID_170_">
						<polygon class="st8" points="18.515,5.416 17.099,6.266 17.099,8.107 18.515,8.956 19.931,8.107 19.931,6.266 						"/>
					</g>
				</g>
			</g>
		</g>
	</g>
	<polygon class="st8" points="30.551,4 31.33,5.629 33.029,5.912 31.825,7.186 32.108,8.956 30.551,8.107 29.064,8.956 
		29.348,7.186 28.072,5.912 29.843,5.629 	"/>
	<polygon class="st8" points="6.479,4 7.257,5.629 8.957,5.912 7.753,7.186 8.036,8.956 6.479,8.107 4.992,8.956 5.275,7.186 
		4,5.912 5.77,5.629 	"/>
</g>
<g id="rank-badge-cadet-first-class">
	<g>
		<path class="st7" d="M27.718,13.204v15.718l-9.204,6.443l-9.134-6.16L9.31,13.204H27.718 M29.842,11.08H7.186l0.07,19.258
			l11.258,7.646l11.328-7.93V11.08L29.842,11.08z"/>
	</g>
	<line class="st13" x1="7.823" y1="20.992" x2="29.275" y2="20.992"/>
	<polygon class="st8" points="30.55,4 31.328,5.629 33.027,5.912 31.824,7.186 32.107,8.956 30.55,8.107 29.063,8.956 29.346,7.186 
		28.072,5.912 29.842,5.629 	"/>
	<polygon class="st8" points="6.478,4 7.256,5.629 8.955,5.912 7.752,7.186 8.035,8.956 6.478,8.107 4.991,8.956 5.273,7.186 
		4,5.912 5.77,5.629 	"/>
</g>
<g id="rank-badge-cadet">
	<g>
		<path class="st7" d="M24.531,6.124v15.718l-9.203,6.443l-9.135-6.16L6.123,6.124H24.531 M26.656,4H4l0.07,19.258l11.258,7.646
			l11.328-7.93V4L26.656,4z"/>
	</g>
	<line class="st13" x1="4.637" y1="13.912" x2="26.09" y2="13.912"/>
</g>
<g id="rank-badge-recruit">
	<g>
		<path class="st7" d="M24.531,6.124v15.718l-9.203,6.443l-9.134-6.16L6.123,6.124H24.531 M26.656,4H4l0.07,19.258l11.258,7.646
			l11.328-7.93V4L26.656,4z"/>
	</g>
</g>
<g id="chapter-progress-chapter">
	<g id="XMLID_150_">
		<path class="st11" d="M9.664,6.407l3.54,1.912v4.106l-3.54,1.912l-3.54-1.912V8.319L9.664,6.407 M9.664,4L4,7.044v6.655
			l5.664,3.044l5.664-3.044V7.044L9.664,4L9.664,4z"/>
	</g>
</g>
<g id="chapter-progress-slide">
	<rect x="4" y="4" class="st11" width="6.372" height="6.372"/>
</g>
<g id="chapter-progress-test">
	<polygon class="st5" points="17.948,21.063 13.771,23.258 5.77,19.151 5.77,10.16 8.39,8.814 7.045,7.469 4,9.098 4,20.213 
		13.771,25.24 19.647,22.196 	"/>
	<polygon class="st5" points="13.771,4 9.24,6.336 11.01,7.469 13.771,6.053 21.701,10.16 21.701,19.151 20.426,19.789 
		21.771,21.134 23.471,20.213 23.471,9.098 	"/>
	<g>
		<polygon class="st4" points="6.691,5.77 15.824,11.505 12.992,11.434 20.639,17.948 17.311,18.019 22.196,22.762 12.426,16.532 
			16.107,16.461 7.965,10.23 10.868,10.089 		"/>
	</g>
</g>
<g id="chapter-progress-duties">
	<circle class="st11" cx="7.186" cy="7.186" r="3.186"/>
</g>
<g id="list-progress-base">
	<g id="hex-outer_1_">
		<g id="XMLID_1080_">
			<path class="st4" d="M18.16,7.186l11.328,5.947v12.886L18.16,31.966L6.832,26.019V13.133L18.16,7.186 M18.16,4L4,11.434v16.355
				l14.16,7.434l14.16-7.434V11.434L18.16,4L18.16,4z"/>
		</g>
	</g>
	<g id="hex-inner_1_">
		<g id="XMLID_2384_">
			<polygon class="st7" points="18.16,29.913 9.098,25.028 9.098,14.124 18.16,9.168 27.223,14.124 27.223,24.886 			"/>
		</g>
	</g>
</g>
<g id="list-progress-complete">
	<g id="hex-inner">
		<g>
			<polygon class="st14" points="21.842,13.77 25.736,16.178 21.204,16.178 20.567,16.178 27.222,21.913 27.222,14.124 18.16,9.168 
				16.177,10.23 			"/>
		</g>
		<g>
			<polygon class="st14" points="15.54,23.47 11.929,21.134 16.177,21.063 17.877,20.992 9.097,14.266 9.097,25.028 18.16,29.913 
				22.196,27.718 			"/>
		</g>
	</g>
	<g id="hex-outer">
		<polygon class="st1" points="24.036,28.851 18.16,31.966 6.832,26.019 6.832,13.133 10.443,11.222 8.389,9.098 4,11.363 4,27.718 
			18.16,35.152 26.798,30.621 		"/>
		<polygon class="st1" points="18.16,4 11.575,7.398 14.407,9.168 18.16,7.186 29.488,13.133 29.488,26.019 27.718,26.939 
			29.913,28.993 32.32,27.718 32.32,11.363 		"/>
	</g>
	<g id="lightning_1_">
		<g id="lightning">
			<polygon class="st7" points="7.752,6.549 21.204,14.903 17.098,14.903 28.284,24.461 23.399,24.532 30.55,31.471 16.248,22.337 
				21.629,22.267 9.664,13.062 13.983,12.921 			"/>
		</g>
	</g>
</g>
<g id="ctanlee">
	<circle class="st8" cx="21" cy="21" r="6.371"/>
	<path class="st2" d="M25.451,37.391C32.678,35.432,38,28.846,38,21"/>
	<path class="st2" d="M4,21c0,7.846,5.322,14.432,12.549,16.391"/>
	<path class="st2" d="M32.785,8.765C29.729,5.82,25.58,4,21,4c-4.678,0-8.913,1.891-11.986,4.949"/>
</g>
<g id="action-btn-fist">
	<polygon class="st8" points="35.7,86.968 4,70.375 4,33.82 35.7,17.226 67.4,33.82 67.4,70.375 	"/>
	<polygon class="st4" points="35.7,84.542 6.205,69.103 6.205,35.091 35.7,19.652 65.194,35.091 65.194,69.103 	"/>
	<path class="st10" d="M42.282,12.801c0,0,7.4,1.994,10.053,3.388c-3.4,6.472-11.455,2.374-11.455,2.374s-2.311,2.849-2.968,3.586
		c11.129,5.194,26.245,0.659,26.245,0.659l-0.922,5.878l-5.588,13.459l-9.732,5.027L30.202,82.528L9.454,71.733l25.778-32.377
		l-2.749-19.113L42.282,12.801z"/>
	<path class="st12" d="M42.282,12.801c0,0,7.4,1.994,10.053,3.388c-3.4,6.472-11.455,2.374-11.455,2.374s-2.311,2.849-2.968,3.586
		c11.129,5.194,26.245,0.659,26.245,0.659l-0.922,5.878l-5.588,13.459l-9.732,5.027L30.202,82.528L9.454,71.733l25.778-32.377
		l-2.749-19.113L42.282,12.801z"/>
	<path class="st10" d="M48.016,5.524L45.9,4.412c-1.753-0.92-3.92-0.246-4.841,1.506l-7.039,13.394l8.461,4.446l7.039-13.393
		C50.442,8.612,49.768,6.445,48.016,5.524"/>
	<path class="st12" d="M48.016,5.524L45.9,4.412c-1.753-0.92-3.92-0.246-4.841,1.506l-7.039,13.394l8.461,4.446l7.039-13.393
		C50.442,8.612,49.768,6.445,48.016,5.524z"/>
	<path class="st10" d="M54.503,7.003l2.641,1.734c1.291,0.805,1.67,2.512,0.84,3.787L50.706,23.7c-3.01-0.854-4.441-2.1-6.33-4.349
		l6.317-11.363C51.448,6.631,53.185,6.182,54.503,7.003"/>
	<path class="st12" d="M54.503,7.003l2.641,1.734c1.291,0.805,1.67,2.512,0.84,3.787L50.706,23.7c-3.01-0.854-4.441-2.1-6.33-4.349
		l6.317-11.363C51.448,6.631,53.185,6.182,54.503,7.003z"/>
	<path class="st10" d="M62.452,15.025l-1.859-1.295c-1.254-0.875-2.982-0.542-3.822,0.736L50.706,23.7
		c1.326,2.025,3.129,3.569,6.02,4.014l6.379-8.876C63.988,17.607,63.694,15.891,62.452,15.025"/>
	<path class="st12" d="M62.452,15.025l-1.859-1.295c-1.254-0.875-2.982-0.542-3.822,0.736L50.706,23.7
		c1.326,2.025,3.129,3.569,6.02,4.014l6.379-8.876C63.988,17.607,63.694,15.891,62.452,15.025z"/>
	<path class="st10" d="M67.103,24.238l-5.291,6.866c-2.295-0.652-3.893-1.86-5.086-3.391l5.312-7.341
		c0.932-1.289,2.768-1.504,3.973-0.465l0.715,0.615C67.817,21.465,67.983,23.096,67.103,24.238"/>
	<path class="st12" d="M67.103,24.238l-5.291,6.866c-2.295-0.652-3.893-1.86-5.086-3.391l5.312-7.341
		c0.932-1.289,2.768-1.504,3.973-0.465l0.715,0.615C67.817,21.465,67.983,23.096,67.103,24.238z"/>
	<path class="st10" d="M58.021,34.149c0.854-0.646,3.791-3.045,3.791-3.045c-2.127-0.376-3.768-1.599-5.086-3.391l-2.812,2.664
		c-1.058,1.003-0.911,2.728,0.3,3.538l0.561,0.375C55.772,34.957,57.169,34.793,58.021,34.149"/>
	<path class="st18" d="M58.021,34.149c0.854-0.646,3.791-3.045,3.791-3.045c-2.127-0.376-3.768-1.599-5.086-3.391l-2.812,2.664
		c-1.058,1.003-0.911,2.728,0.3,3.538l0.561,0.375C55.772,34.957,57.169,34.793,58.021,34.149z"/>
	<path class="st10" d="M50.214,31.096l-1.178-0.891c-0.792-0.599-1.021-1.69-0.536-2.558l2.206-3.948
		c1.383,2.462,3.387,3.804,6.02,4.014l-3.385,3.209C52.481,31.737,51.158,31.81,50.214,31.096"/>
	<path class="st18" d="M50.214,31.096l-1.178-0.891c-0.792-0.599-1.021-1.69-0.536-2.558l2.206-3.948
		c1.383,2.462,3.387,3.804,6.02,4.014l-3.385,3.209C52.481,31.737,51.158,31.81,50.214,31.096z"/>
	<path class="st10" d="M41.62,24.903l6.035,4.258l3.051-5.461c-3.033-0.664-4.512-1.829-6.33-4.349L41.62,24.903z"/>
	<path class="st12" d="M41.62,24.903l6.035,4.258l3.051-5.461c-3.033-0.664-4.512-1.829-6.33-4.349L41.62,24.903z"/>
	<path class="st10" d="M9.961,71.565l20.872-33.37l-2.188-19.021l10.792-10.17c0,0,10.129,5.323,12.781,6.717
		c-3.402,6.472-10.094,2.278-10.094,2.278s-1.264,2.923-1.924,3.66c8.988,4.724,10.791,8.961,3.453,16.425"/>
	<path class="st17" d="M9.961,71.565l20.872-33.37l-2.188-19.021l10.792-10.17c0,0,10.129,5.323,12.781,6.717
		c-3.402,6.472-10.094,2.278-10.094,2.278s-1.264,2.923-1.924,3.66c8.988,4.724,10.791,8.961,3.453,16.425"/>
	<path class="st8" d="M25.932,73.745c0.897-8.276,2.755-16.539,5.586-24.609c0.175,1.803,0.394,3.582,0.657,5.338
		c1.943-5.763,4.385-11.414,7.322-16.885c-0.253,2.063-0.441,4.113-0.564,6.145c2.266-3.483,4.732-6.836,7.387-10.044
		c1.293-1.563,1.715-1.218,0.645,0.502c-3.794,6.097-6.912,12.479-9.348,19.029c-0.115-1.779-0.184-3.577-0.203-5.394
		c-2.208,5.21-3.982,10.542-5.32,15.94c-0.439-1.894-0.829-3.818-1.164-5.774C28.87,63.106,27.198,68.372,25.932,73.745"/>
</g>
<g id="mini-preview-test">
	<rect x="4" y="4" class="st8" width="47.07" height="99.63"/>
	<path class="st9" d="M44.818,10.251v87.127H10.252V10.251H44.818 M51.07,4H4.001v99.63H51.07V4L51.07,4z"/>
	<rect x="8.412" y="79.306" class="st11" width="38.246" height="17.515"/>
	<path class="st9" d="M44.807,81.848v12.43H10.264v-12.43H44.807 M47.932,78.723H7.139v18.681h40.793V78.723L47.932,78.723z"/>
	<ellipse class="st0" cx="27.536" cy="61.599" rx="7.845" ry="7.784"/>
	<path class="st9" d="M27.535,53.815c4.332,0,7.845,3.485,7.845,7.784s-3.513,7.784-7.845,7.784s-7.845-3.485-7.845-7.784
		S23.203,53.815,27.535,53.815 M27.535,47.563c-7.772,0-14.096,6.296-14.096,14.035s6.323,14.035,14.096,14.035
		s14.096-6.296,14.096-14.035S35.308,47.563,27.535,47.563L27.535,47.563z"/>
	<path class="st6" d="M22.918,63.162c-0.863,0-1.562-0.7-1.562-1.563c0-3.388,2.771-6.144,6.18-6.144c0.863,0,1.562,0.7,1.562,1.563
		s-0.699,1.562-1.562,1.562c-1.684,0-3.054,1.354-3.054,3.019C24.481,62.461,23.781,63.162,22.918,63.162z"/>
	<g>
		<path class="st4" d="M51.07,4v99.63H4V4H51.07 M54.07,1h-3H4H1v3v99.63v3h3h47.07h3v-3V4V1L54.07,1z"/>
	</g>
</g>
</svg>
