<?xml version="1.0" encoding="utf-8"?>
<!-- Generator: Adobe Illustrator 15.0.0, SVG Export Plug-In . SVG Version: 6.00 Build 0)  -->
<!DOCTYPE svg PUBLIC "-//W3C//DTD SVG 1.1//EN" "http://www.w3.org/Graphics/SVG/1.1/DTD/svg11.dtd">
<svg version="1.1" id="Layer_1" xmlns="http://www.w3.org/2000/svg" xmlns:xlink="http://www.w3.org/1999/xlink" x="0px" y="0px"
	 width="1024px" height="768px" viewBox="0 0 1024 768" style="enable-background:new 0 0 1024 768;" xml:space="preserve">
<style type="text/css">
<![CDATA[
	.st0{fill:none;stroke:#FF5F9F;stroke-miterlimit:10;}
]]>
</style>
<polyline class="st0" points="55.731,754.153 60.1,750.828 64.263,747.284 59.502,741.126 64.541,734.713 62.897,728.649 
	53.909,729.576 55.174,722.793 58.192,718.104 61.943,718.019 64.682,711.462 54.381,714.056 57.064,706.465 61.192,705.701 
	62.656,699.459 60.843,694.908 64.783,688.251 61.065,684.262 61.087,683.352 56.911,678.311 64.795,678.487 67.161,671.804 
	61.854,668.07 56.661,665.558 50.583,660.252 62.865,661.156 65.356,655.94 72.389,648.7 59.883,646.934 58.511,640.599 
	47.019,637.146 61.213,636.395 59.142,626.616 61.756,625.582 57.99,625.717 58.267,617.733 49.433,614.034 61.603,613.677 
	63.956,608.322 70.992,602.48 63.962,596.637 57.688,595.204 58.365,590.919 63.267,592.23 66.926,588.183 61.104,579.363 
	66.768,570.722 56.875,572.907 57.958,567.81 56.532,562.388 58.305,556.453 58.543,556.252 61.537,552.843 54.51,552.163 
	55.177,544.702 60.19,542.937 65.382,540.424 69.177,533.153 63.515,527.758 56.239,527.325 52.882,521.596 57.599,517.235 
	60.794,512.725 64.304,510.039 58.673,509.489 60.684,499.771 57.958,498.482 53.932,490.46 65.683,494.504 58.504,486.926 
	63.726,481.328 53.666,483.681 59.415,475.373 62.673,476.093 60.841,466.553 59.623,463.817 64.105,457.839 63.267,450.971 
	54.944,452.267 62.48,452.79 66.122,448.725 60.57,440.709 64.378,434.457 59.008,432.119 57.123,429.156 60.136,427.338 
	57.077,416.571 60.977,417.601 58.16,417.565 56.441,411.577 50.889,406.052 57.354,401.445 64.699,401.085 62.058,394.493 
	60.156,392.462 57.913,386.998 48.817,382.945 55.946,376.93 60.846,374.123 68.663,371.388 64.851,364.658 55.613,366.188 
	54.476,359.831 53.863,351.737 63.416,353.583 60.527,348.273 59.074,347.326 56.919,341.773 56.262,336.721 56.244,331.009 
	63.483,330.541 72.716,325.174 60.786,322.505 61.488,314.096 60.262,313.609 62.942,314.598 64.63,308.58 63.669,302.057 
	58.621,301.561 60.393,292.081 50.573,290.507 56.798,285.345 59.208,280.048 69.196,278.953 66.349,270.724 62.038,267.328 
	58.911,267.392 57.826,263.264 65.025,262.756 60.343,255.836 63.8,250.163 54.142,252.114 54.409,244.286 53.998,236.327 
	63.846,238.468 66.969,232.733 58.645,232.209 60.922,222.226 57.67,221.175 61.803,221.023 57.966,209.479 72.932,209.629 
	66.333,201.413 54.864,205.174 54.053,198.068 55.51,191.621 64.304,192.708 72.511,186.52 62.151,182.485 52.941,183.988 
	56.109,174.958 60.597,173.599 60.27,165.565 67.765,163.406 66.417,155.109 59.729,154.091 47.24,151.856 52.985,142.878 
	58.66,140.846 62.428,140.293 67.02,131.399 60.585,130.126 47.828,128.747 54.782,121.566 59.134,118.211 69.816,117.19 
	66.763,108.546 59.84,107.762 57.096,105.63 60.453,104.128 59.034,95.002 64.333,94.077 57.744,94.456 58.135,86.358 52.29,82.525 
	60.371,80.937 62.556,75.415 66.14,70.97 57.538,71.553 56.443,64.941 53.493,59.415 55.293,52.75 60.221,49.971 59.988,47.855 
	63.631,42.351 54.254,44.021 55.23,36.304 59.21,33.559 65.332,31.973 59.033,24.746 57.918,24.955 55.392,19.774 55.422,12.037 "/>
<polyline class="st0" points="576.41,754.153 580.779,750.828 584.942,747.284 580.182,741.126 585.221,734.713 583.576,728.649 
	574.588,729.576 575.854,722.793 578.872,718.104 582.623,718.019 585.361,711.462 575.061,714.056 577.744,706.465 
	581.871,705.701 583.336,699.459 581.523,694.908 585.463,688.251 581.745,684.262 581.767,683.352 577.59,678.311 585.475,678.487 
	587.841,671.804 582.533,668.07 577.341,665.558 571.262,660.252 583.545,661.156 586.035,655.94 593.068,648.7 580.562,646.934 
	579.19,640.599 567.698,637.146 581.893,636.395 579.821,626.616 582.436,625.582 578.67,625.717 578.946,617.733 570.113,614.034 
	582.283,613.677 584.635,608.322 591.672,602.48 584.643,596.637 578.367,595.204 579.045,590.919 583.946,592.23 587.605,588.183 
	581.783,579.363 587.447,570.722 577.555,572.907 578.638,567.81 577.212,562.388 578.984,556.453 579.223,556.252 582.217,552.843 
	575.189,552.163 575.856,544.702 580.869,542.937 586.062,540.424 589.856,533.153 584.195,527.758 576.918,527.325 
	573.562,521.596 578.278,517.235 581.474,512.725 584.983,510.039 579.353,509.489 581.363,499.771 578.639,498.482 574.611,490.46 
	586.362,494.504 579.184,486.926 584.405,481.328 574.346,483.681 580.094,475.373 583.354,476.093 581.521,466.553 
	580.303,463.817 584.785,457.839 583.946,450.971 575.624,452.267 583.16,452.79 586.801,448.725 581.25,440.709 585.058,434.457 
	579.688,432.119 577.803,429.156 580.816,427.338 577.756,416.571 581.656,417.601 578.84,417.565 577.121,411.577 571.568,406.052 
	578.033,401.445 585.379,401.085 582.738,394.493 580.836,392.462 578.593,386.998 569.497,382.945 576.626,376.93 581.525,374.123 
	589.343,371.388 585.53,364.658 576.293,366.188 575.155,359.831 574.543,351.737 584.096,353.583 581.207,348.273 579.754,347.326 
	577.599,341.773 576.941,336.721 576.924,331.009 584.162,330.541 593.396,325.174 581.466,322.505 582.168,314.096 
	580.941,313.609 583.622,314.598 585.311,308.58 584.349,302.057 579.301,301.561 581.072,292.081 571.253,290.507 577.478,285.345 
	579.888,280.048 589.875,278.953 587.028,270.724 582.717,267.328 579.591,267.392 578.506,263.264 585.705,262.756 
	581.023,255.836 584.479,250.163 574.822,252.114 575.088,244.286 574.678,236.327 584.525,238.468 587.648,232.733 
	579.324,232.209 581.602,222.226 578.35,221.175 582.482,221.023 578.646,209.479 593.611,209.629 587.014,201.413 575.544,205.174 
	574.732,198.068 576.189,191.621 584.984,192.708 593.191,186.52 582.831,182.485 573.621,183.988 576.789,174.958 581.277,173.599 
	580.949,165.565 588.445,163.406 587.098,155.109 580.409,154.091 567.92,151.856 573.664,142.878 579.34,140.846 583.107,140.293 
	587.699,131.399 581.265,130.126 568.508,128.747 575.462,121.566 579.814,118.211 590.496,117.19 587.443,108.546 580.52,107.762 
	577.775,105.63 581.133,104.128 579.714,95.002 585.014,94.077 578.424,94.456 578.814,86.358 572.969,82.525 581.051,80.937 
	583.235,75.415 586.82,70.97 578.218,71.553 577.123,64.941 574.172,59.415 575.973,52.75 580.9,49.971 580.668,47.855 
	584.311,42.351 574.934,44.021 575.91,36.304 579.891,33.559 586.012,31.973 579.713,24.746 578.598,24.955 576.071,19.774 
	576.102,12.037 "/>
</svg>
