<?xml version="1.0" encoding="utf-8"?>
<!-- Generator: Adobe Illustrator 15.0.0, SVG Export Plug-In . SVG Version: 6.00 Build 0)  -->
<!DOCTYPE svg PUBLIC "-//W3C//DTD SVG 1.1//EN" "http://www.w3.org/Graphics/SVG/1.1/DTD/svg11.dtd">
<svg version="1.1" id="Layer_1" xmlns="http://www.w3.org/2000/svg" xmlns:xlink="http://www.w3.org/1999/xlink" x="0px" y="0px"
	 width="1024px" height="768px" viewBox="0 0 1024 768" style="enable-background:new 0 0 1024 768;" xml:space="preserve">
<style type="text/css">
<![CDATA[
	.st0{fill:none;stroke:#FF5F9F;stroke-miterlimit:10;}
]]>
</style>
<polyline class="st0" points="65.739,754.153 70.108,750.828 74.271,747.284 69.51,741.126 74.548,734.713 72.905,728.649 
	63.917,729.576 65.182,722.793 68.2,718.104 71.951,718.019 74.69,711.462 64.389,714.056 67.072,706.465 71.2,705.701 
	72.664,699.459 70.851,694.908 74.791,688.251 71.073,684.262 71.095,683.352 66.918,678.311 74.803,678.487 77.169,671.804 
	71.862,668.07 66.669,665.558 60.59,660.252 72.873,661.156 75.364,655.94 82.396,648.7 69.891,646.934 68.519,640.599 
	57.026,637.146 71.221,636.395 69.149,626.616 71.764,625.582 67.998,625.717 68.274,617.733 59.441,614.034 71.611,613.677 
	73.963,608.322 81,602.48 73.97,596.637 67.695,595.204 68.373,590.919 73.274,592.23 76.934,588.183 71.111,579.363 
	76.776,570.722 66.883,572.907 67.966,567.81 66.54,562.388 68.312,556.453 68.551,556.252 71.544,552.843 64.518,552.163 
	65.185,544.702 70.198,542.937 75.39,540.424 79.185,533.153 73.523,527.758 66.247,527.325 62.89,521.596 67.606,517.235 
	70.802,512.725 74.312,510.039 68.681,509.489 70.691,499.771 67.966,498.482 63.939,490.46 75.69,494.504 68.512,486.926 
	73.733,481.328 63.674,483.681 69.422,475.373 72.681,476.093 70.849,466.553 69.63,463.817 74.113,457.839 73.274,450.971 
	64.952,452.267 72.488,452.79 76.129,448.725 70.578,440.709 74.386,434.457 69.016,432.119 67.13,429.156 70.144,427.338 
	67.084,416.571 70.984,417.601 68.168,417.565 66.449,411.577 60.897,406.052 67.361,401.445 74.707,401.085 72.066,394.493 
	70.164,392.462 67.921,386.998 58.825,382.945 65.954,376.93 70.854,374.123 78.671,371.388 74.858,364.658 65.621,366.188 
	64.483,359.831 63.871,351.737 73.423,353.583 70.535,348.273 69.082,347.326 66.927,341.773 66.27,336.721 66.252,331.009 
	73.491,330.541 82.724,325.174 70.794,322.505 71.496,314.096 70.27,313.609 72.95,314.598 74.638,308.58 73.677,302.057 
	68.628,301.561 70.401,292.081 60.581,290.507 66.806,285.345 69.216,280.048 79.204,278.953 76.356,270.724 72.045,267.328 
	68.919,267.392 67.834,263.264 75.033,262.756 70.351,255.836 73.808,250.163 64.15,252.114 64.417,244.286 64.006,236.327 
	73.854,238.468 76.977,232.733 68.653,232.209 70.93,222.226 67.678,221.175 71.811,221.023 67.974,209.479 82.94,209.629 
	76.341,201.413 64.872,205.174 64.061,198.068 65.518,191.621 74.312,192.708 82.519,186.52 72.159,182.485 62.949,183.988 
	66.117,174.958 70.605,173.599 70.278,165.565 77.773,163.406 76.425,155.109 69.737,154.091 57.248,151.856 62.993,142.878 
	68.667,140.846 72.436,140.293 77.027,131.399 70.593,130.126 57.835,128.747 64.79,121.566 69.142,118.211 79.824,117.19 
	76.771,108.546 69.848,107.762 67.104,105.63 70.461,104.128 69.042,95.002 74.341,94.077 67.752,94.456 68.143,86.358 
	62.297,82.525 70.378,80.937 72.563,75.415 76.148,70.97 67.546,71.553 66.451,64.941 63.5,59.415 65.301,52.75 70.229,49.971 
	69.996,47.855 73.639,42.351 64.262,44.021 65.238,36.304 69.218,33.559 75.34,31.973 69.041,24.746 67.926,24.955 65.399,19.774 
	65.43,12.037 "/>
<polyline class="st0" points="586.418,754.153 590.787,750.828 594.95,747.284 590.189,741.126 595.229,734.713 593.584,728.649 
	584.596,729.576 585.861,722.793 588.88,718.104 592.631,718.019 595.369,711.462 585.068,714.056 587.752,706.465 591.879,705.701 
	593.344,699.459 591.531,694.908 595.471,688.251 591.753,684.262 591.774,683.352 587.598,678.311 595.482,678.487 
	597.849,671.804 592.541,668.07 587.349,665.558 581.27,660.252 593.553,661.156 596.043,655.94 603.076,648.7 590.57,646.934 
	589.198,640.599 577.706,637.146 591.9,636.395 589.829,626.616 592.443,625.582 588.678,625.717 588.954,617.733 580.121,614.034 
	592.291,613.677 594.643,608.322 601.68,602.48 594.65,596.637 588.375,595.204 589.053,590.919 593.954,592.23 597.613,588.183 
	591.791,579.363 597.455,570.722 587.562,572.907 588.646,567.81 587.22,562.388 588.992,556.453 589.23,556.252 592.225,552.843 
	585.197,552.163 585.864,544.702 590.877,542.937 596.07,540.424 599.864,533.153 594.203,527.758 586.926,527.325 583.569,521.596 
	588.286,517.235 591.481,512.725 594.991,510.039 589.36,509.489 591.371,499.771 588.646,498.482 584.619,490.46 596.37,494.504 
	589.191,486.926 594.413,481.328 584.354,483.681 590.102,475.373 593.361,476.093 591.528,466.553 590.311,463.817 
	594.793,457.839 593.954,450.971 585.632,452.267 593.168,452.79 596.809,448.725 591.258,440.709 595.065,434.457 589.695,432.119 
	587.811,429.156 590.824,427.338 587.764,416.571 591.664,417.601 588.848,417.565 587.129,411.577 581.576,406.052 
	588.041,401.445 595.387,401.085 592.746,394.493 590.844,392.462 588.601,386.998 579.505,382.945 586.634,376.93 591.533,374.123 
	599.351,371.388 595.538,364.658 586.301,366.188 585.163,359.831 584.551,351.737 594.104,353.583 591.215,348.273 
	589.762,347.326 587.606,341.773 586.949,336.721 586.932,331.009 594.17,330.541 603.403,325.174 591.474,322.505 592.176,314.096 
	590.949,313.609 593.63,314.598 595.318,308.58 594.356,302.057 589.309,301.561 591.08,292.081 581.261,290.507 587.485,285.345 
	589.896,280.048 599.883,278.953 597.036,270.724 592.725,267.328 589.599,267.392 588.514,263.264 595.713,262.756 
	591.031,255.836 594.487,250.163 584.83,252.114 585.096,244.286 584.686,236.327 594.533,238.468 597.656,232.733 589.332,232.209 
	591.609,222.226 588.357,221.175 592.49,221.023 588.653,209.479 603.619,209.629 597.021,201.413 585.552,205.174 584.74,198.068 
	586.197,191.621 594.992,192.708 603.199,186.52 592.839,182.485 583.629,183.988 586.797,174.958 591.285,173.599 590.957,165.565 
	598.453,163.406 597.105,155.109 590.417,154.091 577.928,151.856 583.672,142.878 589.348,140.846 593.115,140.293 
	597.707,131.399 591.272,130.126 578.516,128.747 585.47,121.566 589.822,118.211 600.504,117.19 597.451,108.546 590.527,107.762 
	587.783,105.63 591.141,104.128 589.722,95.002 595.021,94.077 588.432,94.456 588.822,86.358 582.977,82.525 591.059,80.937 
	593.243,75.415 596.828,70.97 588.226,71.553 587.131,64.941 584.18,59.415 585.98,52.75 590.908,49.971 590.676,47.855 
	594.318,42.351 584.941,44.021 585.918,36.304 589.898,33.559 596.02,31.973 589.721,24.746 588.605,24.955 586.079,19.774 
	586.109,12.037 "/>
</svg>
