<?xml version="1.0" encoding="utf-8"?>
<!-- Generator: Adobe Illustrator 15.0.0, SVG Export Plug-In . SVG Version: 6.00 Build 0)  -->
<!DOCTYPE svg PUBLIC "-//W3C//DTD SVG 1.1//EN" "http://www.w3.org/Graphics/SVG/1.1/DTD/svg11.dtd">
<svg version="1.1" id="Layer_1" xmlns="http://www.w3.org/2000/svg" xmlns:xlink="http://www.w3.org/1999/xlink" x="0px" y="0px"
	 width="1024px" height="768px" viewBox="0 0 1024 768" style="enable-background:new 0 0 1024 768;" xml:space="preserve">
<style type="text/css">
<![CDATA[
	.st0{fill:none;stroke:#FF5F9F;stroke-miterlimit:10;}
]]>
</style>
<polyline class="st0" points="75.747,754.153 80.116,750.828 84.278,747.284 79.518,741.126 84.556,734.713 82.913,728.649 
	73.924,729.576 75.189,722.793 78.208,718.104 81.958,718.019 84.698,711.462 74.397,714.056 77.08,706.465 81.208,705.701 
	82.672,699.459 80.859,694.908 84.799,688.251 81.081,684.262 81.103,683.352 76.926,678.311 84.811,678.487 87.177,671.804 
	81.87,668.07 76.677,665.558 70.598,660.252 82.881,661.156 85.372,655.94 92.404,648.7 79.898,646.934 78.526,640.599 
	67.034,637.146 81.229,636.395 79.157,626.616 81.771,625.582 78.005,625.717 78.282,617.733 69.449,614.034 81.619,613.677 
	83.971,608.322 91.008,602.48 83.978,596.637 77.703,595.204 78.381,590.919 83.282,592.23 86.941,588.183 81.119,579.363 
	86.784,570.722 76.891,572.907 77.974,567.81 76.548,562.388 78.32,556.453 78.559,556.252 81.552,552.843 74.526,552.163 
	75.192,544.702 80.206,542.937 85.398,540.424 89.192,533.153 83.531,527.758 76.254,527.325 72.897,521.596 77.614,517.235 
	80.81,512.725 84.319,510.039 78.688,509.489 80.699,499.771 77.974,498.482 73.947,490.46 85.698,494.504 78.52,486.926 
	83.741,481.328 73.682,483.681 79.43,475.373 82.689,476.093 80.856,466.553 79.638,463.817 84.121,457.839 83.282,450.971 
	74.96,452.267 82.496,452.79 86.137,448.725 80.586,440.709 84.394,434.457 79.024,432.119 77.138,429.156 80.152,427.338 
	77.092,416.571 80.992,417.601 78.176,417.565 76.457,411.577 70.905,406.052 77.369,401.445 84.714,401.085 82.074,394.493 
	80.171,392.462 77.929,386.998 68.833,382.945 75.962,376.93 80.862,374.123 88.679,371.388 84.866,364.658 75.629,366.188 
	74.491,359.831 73.879,351.737 83.431,353.583 80.543,348.273 79.089,347.326 76.935,341.773 76.278,336.721 76.26,331.009 
	83.499,330.541 92.731,325.174 80.802,322.505 81.504,314.096 80.278,313.609 82.958,314.598 84.646,308.58 83.685,302.057 
	78.636,301.561 80.409,292.081 70.589,290.507 76.813,285.345 79.224,280.048 89.211,278.953 86.364,270.724 82.053,267.328 
	78.927,267.392 77.842,263.264 85.041,262.756 80.359,255.836 83.815,250.163 74.158,252.114 74.424,244.286 74.014,236.327 
	83.861,238.468 86.985,232.733 78.661,232.209 80.938,222.226 77.686,221.175 81.818,221.023 77.981,209.479 92.948,209.629 
	86.349,201.413 74.88,205.174 74.068,198.068 75.525,191.621 84.32,192.708 92.527,186.52 82.167,182.485 72.957,183.988 
	76.125,174.958 80.613,173.599 80.286,165.565 87.781,163.406 86.433,155.109 79.745,154.091 67.256,151.856 73,142.878 
	78.675,140.846 82.443,140.293 87.035,131.399 80.601,130.126 67.843,128.747 74.798,121.566 79.15,118.211 89.832,117.19 
	86.779,108.546 79.856,107.762 77.112,105.63 80.469,104.128 79.05,95.002 84.349,94.077 77.76,94.456 78.15,86.358 72.305,82.525 
	80.386,80.937 82.571,75.415 86.156,70.97 77.554,71.553 76.459,64.941 73.508,59.415 75.309,52.75 80.236,49.971 80.003,47.855 
	83.647,42.351 74.27,44.021 75.246,36.304 79.226,33.559 85.348,31.973 79.048,24.746 77.934,24.955 75.407,19.774 75.438,12.037 
	"/>
<polyline class="st0" points="596.426,754.153 600.795,750.828 604.958,747.284 600.197,741.126 605.236,734.713 603.592,728.649 
	594.604,729.576 595.869,722.793 598.888,718.104 602.639,718.019 605.377,711.462 595.076,714.056 597.76,706.465 601.887,705.701 
	603.352,699.459 601.539,694.908 605.479,688.251 601.761,684.262 601.782,683.352 597.605,678.311 605.49,678.487 607.856,671.804 
	602.549,668.07 597.356,665.558 591.277,660.252 603.561,661.156 606.051,655.94 613.084,648.7 600.578,646.934 599.206,640.599 
	587.714,637.146 601.908,636.395 599.837,626.616 602.451,625.582 598.686,625.717 598.962,617.733 590.129,614.034 
	602.299,613.677 604.65,608.322 611.688,602.48 604.658,596.637 598.383,595.204 599.061,590.919 603.962,592.23 607.621,588.183 
	601.799,579.363 607.463,570.722 597.57,572.907 598.653,567.81 597.228,562.388 599,556.453 599.238,556.252 602.232,552.843 
	595.205,552.163 595.872,544.702 600.885,542.937 606.078,540.424 609.872,533.153 604.211,527.758 596.934,527.325 
	593.577,521.596 598.294,517.235 601.489,512.725 604.999,510.039 599.368,509.489 601.379,499.771 598.654,498.482 594.627,490.46 
	606.378,494.504 599.199,486.926 604.421,481.328 594.361,483.681 600.109,475.373 603.369,476.093 601.536,466.553 
	600.318,463.817 604.801,457.839 603.962,450.971 595.64,452.267 603.176,452.79 606.816,448.725 601.266,440.709 605.073,434.457 
	599.703,432.119 597.818,429.156 600.832,427.338 597.771,416.571 601.672,417.601 598.855,417.565 597.137,411.577 
	591.584,406.052 598.049,401.445 605.395,401.085 602.754,394.493 600.852,392.462 598.608,386.998 589.513,382.945 596.642,376.93 
	601.541,374.123 609.358,371.388 605.546,364.658 596.309,366.188 595.171,359.831 594.559,351.737 604.111,353.583 
	601.223,348.273 599.77,347.326 597.614,341.773 596.957,336.721 596.939,331.009 604.178,330.541 613.411,325.174 601.481,322.505 
	602.184,314.096 600.957,313.609 603.638,314.598 605.326,308.58 604.364,302.057 599.316,301.561 601.088,292.081 591.269,290.507 
	597.493,285.345 599.903,280.048 609.891,278.953 607.044,270.724 602.732,267.328 599.606,267.392 598.521,263.264 
	605.721,262.756 601.039,255.836 604.495,250.163 594.838,252.114 595.104,244.286 594.693,236.327 604.541,238.468 
	607.664,232.733 599.34,232.209 601.617,222.226 598.365,221.175 602.498,221.023 598.661,209.479 613.627,209.629 607.029,201.413 
	595.56,205.174 594.748,198.068 596.205,191.621 605,192.708 613.207,186.52 602.847,182.485 593.637,183.988 596.805,174.958 
	601.293,173.599 600.965,165.565 608.461,163.406 607.113,155.109 600.425,154.091 587.936,151.856 593.68,142.878 599.355,140.846 
	603.123,140.293 607.715,131.399 601.28,130.126 588.523,128.747 595.478,121.566 599.83,118.211 610.512,117.19 607.459,108.546 
	600.535,107.762 597.791,105.63 601.148,104.128 599.729,95.002 605.029,94.077 598.439,94.456 598.83,86.358 592.984,82.525 
	601.066,80.937 603.251,75.415 606.836,70.97 598.233,71.553 597.139,64.941 594.188,59.415 595.988,52.75 600.916,49.971 
	600.684,47.855 604.326,42.351 594.949,44.021 595.926,36.304 599.906,33.559 606.027,31.973 599.729,24.746 598.613,24.955 
	596.087,19.774 596.117,12.037 "/>
</svg>
