<?xml version="1.0" encoding="utf-8"?>
<!-- Generator: Adobe Illustrator 15.0.0, SVG Export Plug-In . SVG Version: 6.00 Build 0)  -->
<!DOCTYPE svg PUBLIC "-//W3C//DTD SVG 1.1//EN" "http://www.w3.org/Graphics/SVG/1.1/DTD/svg11.dtd">
<svg version="1.1" id="Layer_1" xmlns="http://www.w3.org/2000/svg" xmlns:xlink="http://www.w3.org/1999/xlink" x="0px" y="0px"
	 width="1024px" height="768px" viewBox="0 0 1024 768" style="enable-background:new 0 0 1024 768;" xml:space="preserve">
<style type="text/css">
<![CDATA[
	.st0{fill:none;stroke:#FF5F9F;stroke-miterlimit:10;}
]]>
</style>
<polyline class="st0" points="105.77,754.153 110.139,750.828 114.302,747.284 109.541,741.126 114.58,734.713 112.936,728.649 
	103.948,729.576 105.213,722.793 108.231,718.104 111.982,718.019 114.721,711.462 104.42,714.056 107.103,706.465 111.231,705.701 
	112.695,699.459 110.882,694.908 114.822,688.251 111.104,684.262 111.126,683.352 106.95,678.311 114.834,678.487 117.2,671.804 
	111.893,668.07 106.7,665.558 100.622,660.252 112.904,661.156 115.395,655.94 122.428,648.7 109.922,646.934 108.55,640.599 
	97.058,637.146 111.252,636.395 109.181,626.616 111.795,625.582 108.029,625.717 108.306,617.733 99.472,614.034 111.642,613.677 
	113.995,608.322 121.031,602.48 114.001,596.637 107.727,595.204 108.404,590.919 113.306,592.23 116.965,588.183 111.143,579.363 
	116.807,570.722 106.914,572.907 107.997,567.81 106.571,562.388 108.344,556.453 108.583,556.252 111.576,552.843 104.549,552.163 
	105.216,544.702 110.229,542.937 115.421,540.424 119.216,533.153 113.554,527.758 106.278,527.325 102.921,521.596 
	107.638,517.235 110.833,512.725 114.343,510.039 108.712,509.489 110.723,499.771 107.998,498.482 103.971,490.46 115.722,494.504 
	108.543,486.926 113.765,481.328 103.705,483.681 109.454,475.373 112.712,476.093 110.88,466.553 109.662,463.817 114.145,457.839 
	113.306,450.971 104.983,452.267 112.519,452.79 116.161,448.725 110.609,440.709 114.417,434.457 109.047,432.119 107.162,429.156 
	110.175,427.338 107.116,416.571 111.016,417.601 108.199,417.565 106.48,411.577 100.928,406.052 107.393,401.445 114.738,401.085 
	112.097,394.493 110.195,392.462 107.952,386.998 98.856,382.945 105.985,376.93 110.885,374.123 118.702,371.388 114.89,364.658 
	105.652,366.188 104.515,359.831 103.902,351.737 113.455,353.583 110.566,348.273 109.113,347.326 106.958,341.773 
	106.301,336.721 106.283,331.009 113.522,330.541 122.755,325.174 110.825,322.505 111.527,314.096 110.301,313.609 
	112.981,314.598 114.669,308.58 113.708,302.057 108.66,301.561 110.432,292.081 100.612,290.507 106.837,285.345 109.247,280.048 
	119.235,278.953 116.388,270.724 112.077,267.328 108.95,267.392 107.865,263.264 115.064,262.756 110.382,255.836 113.839,250.163 
	104.181,252.114 104.448,244.286 104.037,236.327 113.885,238.468 117.008,232.733 108.684,232.209 110.961,222.226 
	107.709,221.175 111.842,221.023 108.005,209.479 122.971,209.629 116.373,201.413 104.903,205.174 104.092,198.068 
	105.549,191.621 114.343,192.708 122.55,186.52 112.19,182.485 102.98,183.988 106.148,174.958 110.636,173.599 110.309,165.565 
	117.804,163.406 116.457,155.109 109.769,154.091 97.279,151.856 103.024,142.878 108.699,140.846 112.467,140.293 117.059,131.399 
	110.624,130.126 97.867,128.747 104.821,121.566 109.173,118.211 119.855,117.19 116.802,108.546 109.879,107.762 107.135,105.63 
	110.492,104.128 109.073,95.002 114.373,94.077 107.783,94.456 108.174,86.358 102.329,82.525 110.41,80.937 112.595,75.415 
	116.179,70.97 107.577,71.553 106.482,64.941 103.532,59.415 105.332,52.75 110.26,49.971 110.027,47.855 113.67,42.351 
	104.293,44.021 105.269,36.304 109.25,33.559 115.371,31.973 109.072,24.746 107.958,24.955 105.431,19.774 105.461,12.037 "/>
<polyline class="st0" points="626.449,754.153 630.818,750.828 634.981,747.284 630.221,741.126 635.26,734.713 633.615,728.649 
	624.627,729.576 625.893,722.793 628.911,718.104 632.662,718.019 635.4,711.462 625.1,714.056 627.783,706.465 631.91,705.701 
	633.375,699.459 631.562,694.908 635.502,688.251 631.784,684.262 631.806,683.352 627.629,678.311 635.514,678.487 637.88,671.804 
	632.572,668.07 627.38,665.558 621.301,660.252 633.584,661.156 636.074,655.94 643.107,648.7 630.602,646.934 629.229,640.599 
	617.737,637.146 631.932,636.395 629.86,626.616 632.475,625.582 628.709,625.717 628.985,617.733 620.152,614.034 632.322,613.677 
	634.674,608.322 641.711,602.48 634.682,596.637 628.406,595.204 629.084,590.919 633.985,592.23 637.645,588.183 631.822,579.363 
	637.486,570.722 627.594,572.907 628.677,567.81 627.251,562.388 629.023,556.453 629.262,556.252 632.256,552.843 625.229,552.163 
	625.896,544.702 630.908,542.937 636.102,540.424 639.896,533.153 634.234,527.758 626.957,527.325 623.601,521.596 
	628.317,517.235 631.513,512.725 635.022,510.039 629.392,509.489 631.402,499.771 628.678,498.482 624.65,490.46 636.401,494.504 
	629.223,486.926 634.444,481.328 624.385,483.681 630.133,475.373 633.393,476.093 631.56,466.553 630.342,463.817 634.824,457.839 
	633.985,450.971 625.663,452.267 633.199,452.79 636.84,448.725 631.289,440.709 635.097,434.457 629.727,432.119 627.842,429.156 
	630.855,427.338 627.795,416.571 631.695,417.601 628.879,417.565 627.16,411.577 621.607,406.052 628.072,401.445 635.418,401.085 
	632.777,394.493 630.875,392.462 628.632,386.998 619.536,382.945 626.665,376.93 631.564,374.123 639.382,371.388 635.569,364.658 
	626.332,366.188 625.194,359.831 624.582,351.737 634.135,353.583 631.246,348.273 629.793,347.326 627.638,341.773 626.98,336.721 
	626.963,331.009 634.201,330.541 643.435,325.174 631.505,322.505 632.207,314.096 630.98,313.609 633.661,314.598 635.35,308.58 
	634.388,302.057 629.34,301.561 631.111,292.081 621.292,290.507 627.517,285.345 629.927,280.048 639.914,278.953 637.067,270.724 
	632.756,267.328 629.63,267.392 628.545,263.264 635.744,262.756 631.062,255.836 634.519,250.163 624.861,252.114 625.127,244.286 
	624.717,236.327 634.564,238.468 637.688,232.733 629.363,232.209 631.641,222.226 628.389,221.175 632.521,221.023 
	628.685,209.479 643.65,209.629 637.053,201.413 625.583,205.174 624.771,198.068 626.229,191.621 635.023,192.708 643.23,186.52 
	632.87,182.485 623.66,183.988 626.828,174.958 631.316,173.599 630.988,165.565 638.484,163.406 637.137,155.109 630.448,154.091 
	617.959,151.856 623.703,142.878 629.379,140.846 633.146,140.293 637.738,131.399 631.304,130.126 618.547,128.747 
	625.501,121.566 629.854,118.211 640.535,117.19 637.482,108.546 630.559,107.762 627.814,105.63 631.172,104.128 629.753,95.002 
	635.053,94.077 628.463,94.456 628.854,86.358 623.008,82.525 631.09,80.937 633.274,75.415 636.859,70.97 628.257,71.553 
	627.162,64.941 624.211,59.415 626.012,52.75 630.939,49.971 630.707,47.855 634.35,42.351 624.973,44.021 625.949,36.304 
	629.93,33.559 636.051,31.973 629.752,24.746 628.637,24.955 626.11,19.774 626.141,12.037 "/>
</svg>
