<?xml version="1.0" encoding="utf-8"?>
<!-- Generator: Adobe Illustrator 15.0.0, SVG Export Plug-In . SVG Version: 6.00 Build 0)  -->
<!DOCTYPE svg PUBLIC "-//W3C//DTD SVG 1.1//EN" "http://www.w3.org/Graphics/SVG/1.1/DTD/svg11.dtd">
<svg version="1.1" id="Layer_1" xmlns="http://www.w3.org/2000/svg" xmlns:xlink="http://www.w3.org/1999/xlink" x="0px" y="0px"
	 width="1024px" height="768px" viewBox="0 0 1024 768" style="enable-background:new 0 0 1024 768;" xml:space="preserve">
<style type="text/css">
<![CDATA[
	.st0{fill:none;stroke:#FF5F9F;stroke-miterlimit:10;}
]]>
</style>
<polyline class="st0" points="115.778,754.153 120.147,750.828 124.31,747.284 119.549,741.126 124.587,734.713 122.944,728.649 
	113.956,729.576 115.221,722.793 118.239,718.104 121.99,718.019 124.729,711.462 114.428,714.056 117.111,706.465 121.239,705.701 
	122.703,699.459 120.89,694.908 124.83,688.251 121.112,684.262 121.134,683.352 116.958,678.311 124.842,678.487 127.208,671.804 
	121.901,668.07 116.708,665.558 110.629,660.252 122.912,661.156 125.403,655.94 132.436,648.7 119.93,646.934 118.558,640.599 
	107.065,637.146 121.26,636.395 119.188,626.616 121.803,625.582 118.037,625.717 118.313,617.733 109.48,614.034 121.65,613.677 
	124.002,608.322 131.039,602.48 124.009,596.637 117.734,595.204 118.412,590.919 123.313,592.23 126.973,588.183 121.15,579.363 
	126.815,570.722 116.922,572.907 118.005,567.81 116.579,562.388 118.352,556.453 118.59,556.252 121.583,552.843 114.557,552.163 
	115.224,544.702 120.237,542.937 125.429,540.424 129.224,533.153 123.562,527.758 116.286,527.325 112.929,521.596 
	117.646,517.235 120.841,512.725 124.351,510.039 118.72,509.489 120.73,499.771 118.005,498.482 113.979,490.46 125.729,494.504 
	118.551,486.926 123.772,481.328 113.713,483.681 119.461,475.373 122.72,476.093 120.888,466.553 119.669,463.817 124.152,457.839 
	123.313,450.971 114.991,452.267 122.527,452.79 126.168,448.725 120.617,440.709 124.425,434.457 119.055,432.119 117.169,429.156 
	120.183,427.338 117.124,416.571 121.023,417.601 118.207,417.565 116.488,411.577 110.936,406.052 117.4,401.445 124.746,401.085 
	122.105,394.493 120.203,392.462 117.96,386.998 108.864,382.945 115.993,376.93 120.893,374.123 128.71,371.388 124.897,364.658 
	115.66,366.188 114.522,359.831 113.91,351.737 123.462,353.583 120.574,348.273 119.121,347.326 116.966,341.773 116.309,336.721 
	116.291,331.009 123.53,330.541 132.763,325.174 120.833,322.505 121.535,314.096 120.309,313.609 122.989,314.598 124.677,308.58 
	123.716,302.057 118.667,301.561 120.44,292.081 110.62,290.507 116.845,285.345 119.255,280.048 129.243,278.953 126.396,270.724 
	122.084,267.328 118.958,267.392 117.873,263.264 125.072,262.756 120.39,255.836 123.847,250.163 114.189,252.114 114.456,244.286 
	114.045,236.327 123.893,238.468 127.016,232.733 118.692,232.209 120.969,222.226 117.717,221.175 121.85,221.023 118.013,209.479 
	132.979,209.629 126.38,201.413 114.911,205.174 114.1,198.068 115.557,191.621 124.351,192.708 132.558,186.52 122.198,182.485 
	112.988,183.988 116.156,174.958 120.644,173.599 120.317,165.565 127.812,163.406 126.464,155.109 119.776,154.091 
	107.287,151.856 113.032,142.878 118.707,140.846 122.475,140.293 127.066,131.399 120.632,130.126 107.875,128.747 
	114.829,121.566 119.181,118.211 129.863,117.19 126.81,108.546 119.887,107.762 117.143,105.63 120.5,104.128 119.081,95.002 
	124.38,94.077 117.791,94.456 118.182,86.358 112.336,82.525 120.417,80.937 122.603,75.415 126.187,70.97 117.585,71.553 
	116.49,64.941 113.54,59.415 115.34,52.75 120.268,49.971 120.035,47.855 123.678,42.351 114.301,44.021 115.277,36.304 
	119.257,33.559 125.379,31.973 119.08,24.746 117.965,24.955 115.438,19.774 115.469,12.037 "/>
<polyline class="st0" points="636.457,754.153 640.826,750.828 644.989,747.284 640.229,741.126 645.268,734.713 643.623,728.649 
	634.635,729.576 635.9,722.793 638.919,718.104 642.67,718.019 645.408,711.462 635.107,714.056 637.791,706.465 641.918,705.701 
	643.383,699.459 641.57,694.908 645.51,688.251 641.792,684.262 641.813,683.352 637.637,678.311 645.521,678.487 647.888,671.804 
	642.58,668.07 637.388,665.558 631.309,660.252 643.592,661.156 646.082,655.94 653.115,648.7 640.609,646.934 639.237,640.599 
	627.745,637.146 641.939,636.395 639.868,626.616 642.482,625.582 638.717,625.717 638.993,617.733 630.16,614.034 642.33,613.677 
	644.682,608.322 651.719,602.48 644.689,596.637 638.414,595.204 639.092,590.919 643.993,592.23 647.652,588.183 641.83,579.363 
	647.494,570.722 637.602,572.907 638.685,567.81 637.259,562.388 639.031,556.453 639.27,556.252 642.264,552.843 635.236,552.163 
	635.903,544.702 640.916,542.937 646.109,540.424 649.903,533.153 644.242,527.758 636.965,527.325 633.608,521.596 
	638.325,517.235 641.521,512.725 645.03,510.039 639.399,509.489 641.41,499.771 638.686,498.482 634.658,490.46 646.409,494.504 
	639.23,486.926 644.452,481.328 634.393,483.681 640.141,475.373 643.4,476.093 641.567,466.553 640.35,463.817 644.832,457.839 
	643.993,450.971 635.671,452.267 643.207,452.79 646.848,448.725 641.297,440.709 645.104,434.457 639.734,432.119 637.85,429.156 
	640.863,427.338 637.803,416.571 641.703,417.601 638.887,417.565 637.168,411.577 631.615,406.052 638.08,401.445 645.426,401.085 
	642.785,394.493 640.883,392.462 638.64,386.998 629.544,382.945 636.673,376.93 641.572,374.123 649.39,371.388 645.577,364.658 
	636.34,366.188 635.202,359.831 634.59,351.737 644.143,353.583 641.254,348.273 639.801,347.326 637.646,341.773 636.988,336.721 
	636.971,331.009 644.209,330.541 653.442,325.174 641.513,322.505 642.215,314.096 640.988,313.609 643.669,314.598 645.357,308.58 
	644.396,302.057 639.348,301.561 641.119,292.081 631.3,290.507 637.524,285.345 639.935,280.048 649.922,278.953 647.075,270.724 
	642.764,267.328 639.638,267.392 638.553,263.264 645.752,262.756 641.07,255.836 644.526,250.163 634.869,252.114 635.135,244.286 
	634.725,236.327 644.572,238.468 647.695,232.733 639.371,232.209 641.648,222.226 638.396,221.175 642.529,221.023 
	638.692,209.479 653.658,209.629 647.061,201.413 635.591,205.174 634.779,198.068 636.236,191.621 645.031,192.708 653.238,186.52 
	642.878,182.485 633.668,183.988 636.836,174.958 641.324,173.599 640.996,165.565 648.492,163.406 647.145,155.109 
	640.456,154.091 627.967,151.856 633.711,142.878 639.387,140.846 643.154,140.293 647.746,131.399 641.312,130.126 
	628.555,128.747 635.509,121.566 639.861,118.211 650.543,117.19 647.49,108.546 640.566,107.762 637.822,105.63 641.18,104.128 
	639.761,95.002 645.061,94.077 638.471,94.456 638.861,86.358 633.016,82.525 641.098,80.937 643.282,75.415 646.867,70.97 
	638.265,71.553 637.17,64.941 634.219,59.415 636.02,52.75 640.947,49.971 640.715,47.855 644.357,42.351 634.98,44.021 
	635.957,36.304 639.938,33.559 646.059,31.973 639.76,24.746 638.645,24.955 636.118,19.774 636.148,12.037 "/>
</svg>
