<?xml version="1.0" encoding="utf-8"?>
<!-- Generator: Adobe Illustrator 15.0.0, SVG Export Plug-In . SVG Version: 6.00 Build 0)  -->
<!DOCTYPE svg PUBLIC "-//W3C//DTD SVG 1.1//EN" "http://www.w3.org/Graphics/SVG/1.1/DTD/svg11.dtd">
<svg version="1.1" id="Layer_1" xmlns="http://www.w3.org/2000/svg" xmlns:xlink="http://www.w3.org/1999/xlink" x="0px" y="0px"
	 width="1024px" height="768px" viewBox="0 0 1024 768" style="enable-background:new 0 0 1024 768;" xml:space="preserve">
<style type="text/css">
<![CDATA[
	.st0{fill:none;stroke:#FF5F9F;stroke-miterlimit:10;}
]]>
</style>
<polyline class="st0" points="165.817,754.153 170.186,750.828 174.349,747.284 169.588,741.126 174.626,734.713 172.983,728.649 
	163.995,729.576 165.26,722.793 168.278,718.104 172.029,718.019 174.768,711.462 164.467,714.056 167.15,706.465 171.278,705.701 
	172.742,699.459 170.929,694.908 174.869,688.251 171.151,684.262 171.173,683.352 166.997,678.311 174.881,678.487 
	177.247,671.804 171.94,668.07 166.747,665.558 160.668,660.252 172.951,661.156 175.442,655.94 182.475,648.7 169.969,646.934 
	168.597,640.599 157.104,637.146 171.299,636.395 169.228,626.616 171.842,625.582 168.076,625.717 168.353,617.733 
	159.519,614.034 171.689,613.677 174.042,608.322 181.078,602.48 174.048,596.637 167.773,595.204 168.451,590.919 173.353,592.23 
	177.012,588.183 171.189,579.363 176.854,570.722 166.961,572.907 168.044,567.81 166.618,562.388 168.391,556.453 168.629,556.252 
	171.623,552.843 164.596,552.163 165.263,544.702 170.276,542.937 175.468,540.424 179.263,533.153 173.601,527.758 
	166.325,527.325 162.968,521.596 167.685,517.235 170.88,512.725 174.39,510.039 168.759,509.489 170.77,499.771 168.044,498.482 
	164.018,490.46 175.769,494.504 168.59,486.926 173.812,481.328 163.752,483.681 169.5,475.373 172.759,476.093 170.927,466.553 
	169.708,463.817 174.191,457.839 173.353,450.971 165.03,452.267 172.566,452.79 176.208,448.725 170.656,440.709 174.464,434.457 
	169.094,432.119 167.208,429.156 170.222,427.338 167.163,416.571 171.062,417.601 168.246,417.565 166.527,411.577 
	160.975,406.052 167.439,401.445 174.785,401.085 172.144,394.493 170.242,392.462 167.999,386.998 158.903,382.945 166.032,376.93 
	170.932,374.123 178.749,371.388 174.937,364.658 165.699,366.188 164.562,359.831 163.949,351.737 173.501,353.583 
	170.613,348.273 169.16,347.326 167.005,341.773 166.348,336.721 166.33,331.009 173.569,330.541 182.802,325.174 170.872,322.505 
	171.574,314.096 170.348,313.609 173.028,314.598 174.716,308.58 173.755,302.057 168.707,301.561 170.479,292.081 160.659,290.507 
	166.884,285.345 169.294,280.048 179.282,278.953 176.435,270.724 172.124,267.328 168.997,267.392 167.912,263.264 
	175.111,262.756 170.429,255.836 173.886,250.163 164.228,252.114 164.495,244.286 164.084,236.327 173.932,238.468 
	177.055,232.733 168.731,232.209 171.008,222.226 167.756,221.175 171.889,221.023 168.052,209.479 183.018,209.629 
	176.419,201.413 164.95,205.174 164.139,198.068 165.596,191.621 174.39,192.708 182.597,186.52 172.237,182.485 163.027,183.988 
	166.195,174.958 170.683,173.599 170.356,165.565 177.851,163.406 176.503,155.109 169.815,154.091 157.326,151.856 
	163.071,142.878 168.746,140.846 172.514,140.293 177.105,131.399 170.671,130.126 157.914,128.747 164.868,121.566 169.22,118.211 
	179.902,117.19 176.849,108.546 169.926,107.762 167.182,105.63 170.539,104.128 169.12,95.002 174.419,94.077 167.83,94.456 
	168.221,86.358 162.375,82.525 170.457,80.937 172.642,75.415 176.226,70.97 167.624,71.553 166.529,64.941 163.579,59.415 
	165.379,52.75 170.307,49.971 170.074,47.855 173.717,42.351 164.34,44.021 165.316,36.304 169.296,33.559 175.418,31.973 
	169.119,24.746 168.004,24.955 165.478,19.774 165.508,12.037 "/>
<polyline class="st0" points="686.496,754.153 690.865,750.828 695.028,747.284 690.268,741.126 695.307,734.713 693.662,728.649 
	684.674,729.576 685.939,722.793 688.958,718.104 692.709,718.019 695.447,711.462 685.146,714.056 687.83,706.465 691.957,705.701 
	693.422,699.459 691.609,694.908 695.549,688.251 691.831,684.262 691.853,683.352 687.676,678.311 695.561,678.487 
	697.927,671.804 692.619,668.07 687.427,665.558 681.348,660.252 693.631,661.156 696.121,655.94 703.154,648.7 690.648,646.934 
	689.276,640.599 677.784,637.146 691.979,636.395 689.907,626.616 692.521,625.582 688.756,625.717 689.032,617.733 
	680.199,614.034 692.369,613.677 694.721,608.322 701.758,602.48 694.729,596.637 688.453,595.204 689.131,590.919 694.032,592.23 
	697.691,588.183 691.869,579.363 697.533,570.722 687.641,572.907 688.724,567.81 687.298,562.388 689.07,556.453 689.309,556.252 
	692.303,552.843 685.275,552.163 685.942,544.702 690.955,542.937 696.148,540.424 699.942,533.153 694.281,527.758 
	687.004,527.325 683.647,521.596 688.364,517.235 691.56,512.725 695.069,510.039 689.438,509.489 691.449,499.771 688.725,498.482 
	684.697,490.46 696.448,494.504 689.27,486.926 694.491,481.328 684.432,483.681 690.18,475.373 693.439,476.093 691.606,466.553 
	690.389,463.817 694.871,457.839 694.032,450.971 685.71,452.267 693.246,452.79 696.887,448.725 691.336,440.709 695.144,434.457 
	689.773,432.119 687.889,429.156 690.902,427.338 687.842,416.571 691.742,417.601 688.926,417.565 687.207,411.577 
	681.654,406.052 688.119,401.445 695.465,401.085 692.824,394.493 690.922,392.462 688.679,386.998 679.583,382.945 686.712,376.93 
	691.611,374.123 699.429,371.388 695.616,364.658 686.379,366.188 685.241,359.831 684.629,351.737 694.182,353.583 
	691.293,348.273 689.84,347.326 687.685,341.773 687.027,336.721 687.01,331.009 694.248,330.541 703.481,325.174 691.552,322.505 
	692.254,314.096 691.027,313.609 693.708,314.598 695.396,308.58 694.435,302.057 689.387,301.561 691.158,292.081 681.339,290.507 
	687.563,285.345 689.974,280.048 699.961,278.953 697.114,270.724 692.803,267.328 689.677,267.392 688.592,263.264 
	695.791,262.756 691.109,255.836 694.565,250.163 684.908,252.114 685.174,244.286 684.764,236.327 694.611,238.468 
	697.734,232.733 689.41,232.209 691.688,222.226 688.436,221.175 692.568,221.023 688.731,209.479 703.697,209.629 697.1,201.413 
	685.63,205.174 684.818,198.068 686.275,191.621 695.07,192.708 703.277,186.52 692.917,182.485 683.707,183.988 686.875,174.958 
	691.363,173.599 691.035,165.565 698.531,163.406 697.184,155.109 690.495,154.091 678.006,151.856 683.75,142.878 689.426,140.846 
	693.193,140.293 697.785,131.399 691.351,130.126 678.594,128.747 685.548,121.566 689.9,118.211 700.582,117.19 697.529,108.546 
	690.605,107.762 687.861,105.63 691.219,104.128 689.8,95.002 695.1,94.077 688.51,94.456 688.9,86.358 683.055,82.525 
	691.137,80.937 693.321,75.415 696.906,70.97 688.304,71.553 687.209,64.941 684.258,59.415 686.059,52.75 690.986,49.971 
	690.754,47.855 694.396,42.351 685.02,44.021 685.996,36.304 689.977,33.559 696.098,31.973 689.799,24.746 688.684,24.955 
	686.157,19.774 686.188,12.037 "/>
</svg>
