<?xml version="1.0" encoding="utf-8"?>
<!-- Generator: Adobe Illustrator 15.0.0, SVG Export Plug-In . SVG Version: 6.00 Build 0)  -->
<!DOCTYPE svg PUBLIC "-//W3C//DTD SVG 1.1//EN" "http://www.w3.org/Graphics/SVG/1.1/DTD/svg11.dtd">
<svg version="1.1" id="Layer_1" xmlns="http://www.w3.org/2000/svg" xmlns:xlink="http://www.w3.org/1999/xlink" x="0px" y="0px"
	 width="1024px" height="768px" viewBox="0 0 1024 768" style="enable-background:new 0 0 1024 768;" xml:space="preserve">
<style type="text/css">
<![CDATA[
	.st0{fill:none;stroke:#FF5F9F;stroke-miterlimit:10;}
]]>
</style>
<polyline class="st0" points="195.84,754.153 200.209,750.828 204.372,747.284 199.611,741.126 204.65,734.713 203.006,728.649 
	194.018,729.576 195.283,722.793 198.302,718.104 202.052,718.019 204.792,711.462 194.491,714.056 197.173,706.465 
	201.301,705.701 202.766,699.459 200.953,694.908 204.893,688.251 201.175,684.262 201.196,683.352 197.02,678.311 204.904,678.487 
	207.271,671.804 201.963,668.07 196.771,665.558 190.692,660.252 202.975,661.156 205.465,655.94 212.498,648.7 199.992,646.934 
	198.62,640.599 187.128,637.146 201.322,636.395 199.251,626.616 201.865,625.582 198.099,625.717 198.376,617.733 189.542,614.034 
	201.712,613.677 204.065,608.322 211.102,602.48 204.072,596.637 197.797,595.204 198.475,590.919 203.376,592.23 207.035,588.183 
	201.213,579.363 206.877,570.722 196.984,572.907 198.067,567.81 196.642,562.388 198.414,556.453 198.653,556.252 201.646,552.843 
	194.62,552.163 195.286,544.702 200.299,542.937 205.492,540.424 209.286,533.153 203.625,527.758 196.348,527.325 192.991,521.596 
	197.708,517.235 200.903,512.725 204.413,510.039 198.782,509.489 200.793,499.771 198.068,498.482 194.041,490.46 205.792,494.504 
	198.614,486.926 203.835,481.328 193.775,483.681 199.524,475.373 202.783,476.093 200.95,466.553 199.732,463.817 204.215,457.839 
	203.376,450.971 195.054,452.267 202.589,452.79 206.231,448.725 200.68,440.709 204.487,434.457 199.118,432.119 197.232,429.156 
	200.246,427.338 197.186,416.571 201.086,417.601 198.27,417.565 196.551,411.577 190.999,406.052 197.463,401.445 204.808,401.085 
	202.167,394.493 200.265,392.462 198.022,386.998 188.927,382.945 196.056,376.93 200.956,374.123 208.772,371.388 204.96,364.658 
	195.723,366.188 194.585,359.831 193.973,351.737 203.525,353.583 200.637,348.273 199.183,347.326 197.028,341.773 
	196.372,336.721 196.354,331.009 203.592,330.541 212.825,325.174 200.896,322.505 201.598,314.096 200.372,313.609 
	203.052,314.598 204.74,308.58 203.778,302.057 198.73,301.561 200.502,292.081 190.683,290.507 196.907,285.345 199.317,280.048 
	209.305,278.953 206.458,270.724 202.147,267.328 199.021,267.392 197.936,263.264 205.135,262.756 200.453,255.836 
	203.909,250.163 194.251,252.114 194.518,244.286 194.107,236.327 203.955,238.468 207.079,232.733 198.754,232.209 
	201.031,222.226 197.779,221.175 201.912,221.023 198.075,209.479 213.042,209.629 206.443,201.413 194.974,205.174 
	194.162,198.068 195.619,191.621 204.414,192.708 212.621,186.52 202.261,182.485 193.05,183.988 196.218,174.958 200.707,173.599 
	200.379,165.565 207.875,163.406 206.527,155.109 199.839,154.091 187.35,151.856 193.094,142.878 198.769,140.846 202.537,140.293 
	207.129,131.399 200.694,130.126 187.937,128.747 194.892,121.566 199.244,118.211 209.926,117.19 206.873,108.546 199.95,107.762 
	197.206,105.63 200.562,104.128 199.144,95.002 204.443,94.077 197.854,94.456 198.244,86.358 192.399,82.525 200.48,80.937 
	202.665,75.415 206.25,70.97 197.647,71.553 196.553,64.941 193.602,59.415 195.402,52.75 200.33,49.971 200.097,47.855 
	203.741,42.351 194.364,44.021 195.339,36.304 199.32,33.559 205.441,31.973 199.142,24.746 198.028,24.955 195.501,19.774 
	195.532,12.037 "/>
<polyline class="st0" points="716.52,754.153 720.889,750.828 725.052,747.284 720.291,741.126 725.33,734.713 723.686,728.649 
	714.697,729.576 715.963,722.793 718.981,718.104 722.732,718.019 725.471,711.462 715.17,714.056 717.854,706.465 721.98,705.701 
	723.445,699.459 721.633,694.908 725.572,688.251 721.854,684.262 721.876,683.352 717.699,678.311 725.584,678.487 727.95,671.804 
	722.643,668.07 717.45,665.558 711.371,660.252 723.654,661.156 726.145,655.94 733.178,648.7 720.672,646.934 719.3,640.599 
	707.808,637.146 722.002,636.395 719.931,626.616 722.545,625.582 718.779,625.717 719.056,617.733 710.223,614.034 
	722.393,613.677 724.744,608.322 731.781,602.48 724.752,596.637 718.477,595.204 719.154,590.919 724.056,592.23 727.715,588.183 
	721.893,579.363 727.557,570.722 717.664,572.907 718.747,567.81 717.321,562.388 719.094,556.453 719.332,556.252 722.326,552.843 
	715.299,552.163 715.966,544.702 720.979,542.937 726.172,540.424 729.966,533.153 724.305,527.758 717.027,527.325 
	713.671,521.596 718.388,517.235 721.583,512.725 725.093,510.039 719.462,509.489 721.473,499.771 718.748,498.482 714.721,490.46 
	726.472,494.504 719.293,486.926 724.515,481.328 714.455,483.681 720.203,475.373 723.463,476.093 721.63,466.553 720.412,463.817 
	724.895,457.839 724.056,450.971 715.733,452.267 723.27,452.79 726.91,448.725 721.359,440.709 725.167,434.457 719.797,432.119 
	717.912,429.156 720.926,427.338 717.865,416.571 721.766,417.601 718.949,417.565 717.23,411.577 711.678,406.052 718.143,401.445 
	725.488,401.085 722.848,394.493 720.945,392.462 718.702,386.998 709.606,382.945 716.735,376.93 721.635,374.123 729.452,371.388 
	725.64,364.658 716.402,366.188 715.265,359.831 714.652,351.737 724.205,353.583 721.316,348.273 719.863,347.326 717.708,341.773 
	717.051,336.721 717.033,331.009 724.271,330.541 733.505,325.174 721.575,322.505 722.277,314.096 721.051,313.609 
	723.731,314.598 725.42,308.58 724.458,302.057 719.41,301.561 721.182,292.081 711.362,290.507 717.587,285.345 719.997,280.048 
	729.984,278.953 727.138,270.724 722.826,267.328 719.7,267.392 718.615,263.264 725.814,262.756 721.133,255.836 724.589,250.163 
	714.932,252.114 715.197,244.286 714.787,236.327 724.635,238.468 727.758,232.733 719.434,232.209 721.711,222.226 
	718.459,221.175 722.592,221.023 718.755,209.479 733.721,209.629 727.123,201.413 715.653,205.174 714.842,198.068 
	716.299,191.621 725.094,192.708 733.301,186.52 722.94,182.485 713.73,183.988 716.898,174.958 721.387,173.599 721.059,165.565 
	728.555,163.406 727.207,155.109 720.519,154.091 708.029,151.856 713.773,142.878 719.449,140.846 723.217,140.293 
	727.809,131.399 721.374,130.126 708.617,128.747 715.571,121.566 719.924,118.211 730.605,117.19 727.553,108.546 720.629,107.762 
	717.885,105.63 721.242,104.128 719.823,95.002 725.123,94.077 718.533,94.456 718.924,86.358 713.078,82.525 721.16,80.937 
	723.345,75.415 726.93,70.97 718.327,71.553 717.232,64.941 714.281,59.415 716.082,52.75 721.01,49.971 720.777,47.855 
	724.42,42.351 715.043,44.021 716.02,36.304 720,33.559 726.121,31.973 719.822,24.746 718.707,24.955 716.181,19.774 
	716.211,12.037 "/>
</svg>
