<?xml version="1.0" encoding="utf-8"?>
<!-- Generator: Adobe Illustrator 15.0.0, SVG Export Plug-In . SVG Version: 6.00 Build 0)  -->
<!DOCTYPE svg PUBLIC "-//W3C//DTD SVG 1.1//EN" "http://www.w3.org/Graphics/SVG/1.1/DTD/svg11.dtd">
<svg version="1.1" id="Layer_1" xmlns="http://www.w3.org/2000/svg" xmlns:xlink="http://www.w3.org/1999/xlink" x="0px" y="0px"
	 width="1024px" height="768px" viewBox="0 0 1024 768" style="enable-background:new 0 0 1024 768;" xml:space="preserve">
<style type="text/css">
<![CDATA[
	.st0{fill:none;stroke:#FF5F9F;stroke-miterlimit:10;}
]]>
</style>
<polyline class="st0" points="215.856,754.153 220.225,750.828 224.388,747.284 219.627,741.126 224.666,734.713 223.022,728.649 
	214.034,729.576 215.299,722.793 218.317,718.104 222.068,718.019 224.807,711.462 214.506,714.056 217.189,706.465 
	221.317,705.701 222.781,699.459 220.968,694.908 224.908,688.251 221.19,684.262 221.212,683.352 217.036,678.311 224.92,678.487 
	227.286,671.804 221.979,668.07 216.786,665.558 210.708,660.252 222.99,661.156 225.481,655.94 232.514,648.7 220.008,646.934 
	218.636,640.599 207.144,637.146 221.338,636.395 219.267,626.616 221.881,625.582 218.115,625.717 218.392,617.733 
	209.558,614.034 221.728,613.677 224.081,608.322 231.117,602.48 224.087,596.637 217.812,595.204 218.49,590.919 223.392,592.23 
	227.051,588.183 221.229,579.363 226.893,570.722 217,572.907 218.083,567.81 216.657,562.388 218.43,556.453 218.668,556.252 
	221.662,552.843 214.635,552.163 215.302,544.702 220.315,542.937 225.507,540.424 229.302,533.153 223.64,527.758 216.364,527.325 
	213.007,521.596 217.724,517.235 220.919,512.725 224.429,510.039 218.798,509.489 220.809,499.771 218.083,498.482 214.057,490.46 
	225.808,494.504 218.629,486.926 223.851,481.328 213.791,483.681 219.54,475.373 222.798,476.093 220.966,466.553 219.748,463.817 
	224.23,457.839 223.392,450.971 215.069,452.267 222.605,452.79 226.247,448.725 220.695,440.709 224.503,434.457 219.133,432.119 
	217.248,429.156 220.261,427.338 217.202,416.571 221.102,417.601 218.285,417.565 216.566,411.577 211.014,406.052 
	217.479,401.445 224.824,401.085 222.183,394.493 220.281,392.462 218.038,386.998 208.942,382.945 216.071,376.93 220.971,374.123 
	228.788,371.388 224.976,364.658 215.738,366.188 214.601,359.831 213.988,351.737 223.541,353.583 220.652,348.273 
	219.199,347.326 217.044,341.773 216.387,336.721 216.369,331.009 223.608,330.541 232.841,325.174 220.911,322.505 
	221.613,314.096 220.387,313.609 223.067,314.598 224.755,308.58 223.794,302.057 218.746,301.561 220.518,292.081 210.698,290.507 
	216.923,285.345 219.333,280.048 229.321,278.953 226.474,270.724 222.163,267.328 219.036,267.392 217.951,263.264 225.15,262.756 
	220.468,255.836 223.925,250.163 214.267,252.114 214.534,244.286 214.123,236.327 223.971,238.468 227.094,232.733 218.77,232.209 
	221.047,222.226 217.795,221.175 221.928,221.023 218.091,209.479 233.057,209.629 226.458,201.413 214.989,205.174 
	214.178,198.068 215.635,191.621 224.429,192.708 232.636,186.52 222.276,182.485 213.066,183.988 216.234,174.958 220.722,173.599 
	220.395,165.565 227.89,163.406 226.542,155.109 219.854,154.091 207.365,151.856 213.11,142.878 218.785,140.846 222.553,140.293 
	227.145,131.399 220.71,130.126 207.953,128.747 214.907,121.566 219.259,118.211 229.941,117.19 226.888,108.546 219.965,107.762 
	217.221,105.63 220.578,104.128 219.159,95.002 224.458,94.077 217.869,94.456 218.26,86.358 212.415,82.525 220.496,80.937 
	222.681,75.415 226.265,70.97 217.663,71.553 216.568,64.941 213.618,59.415 215.418,52.75 220.346,49.971 220.113,47.855 
	223.756,42.351 214.379,44.021 215.355,36.304 219.335,33.559 225.457,31.973 219.158,24.746 218.043,24.955 215.517,19.774 
	215.547,12.037 "/>
<polyline class="st0" points="736.535,754.153 740.904,750.828 745.067,747.284 740.307,741.126 745.346,734.713 743.701,728.649 
	734.713,729.576 735.979,722.793 738.997,718.104 742.748,718.019 745.486,711.462 735.186,714.056 737.869,706.465 
	741.996,705.701 743.461,699.459 741.648,694.908 745.588,688.251 741.87,684.262 741.892,683.352 737.715,678.311 745.6,678.487 
	747.966,671.804 742.658,668.07 737.466,665.558 731.387,660.252 743.67,661.156 746.16,655.94 753.193,648.7 740.688,646.934 
	739.315,640.599 727.823,637.146 742.018,636.395 739.946,626.616 742.561,625.582 738.795,625.717 739.071,617.733 
	730.238,614.034 742.408,613.677 744.76,608.322 751.797,602.48 744.768,596.637 738.492,595.204 739.17,590.919 744.071,592.23 
	747.73,588.183 741.908,579.363 747.572,570.722 737.68,572.907 738.763,567.81 737.337,562.388 739.109,556.453 739.348,556.252 
	742.342,552.843 735.314,552.163 735.981,544.702 740.994,542.937 746.188,540.424 749.981,533.153 744.32,527.758 737.043,527.325 
	733.687,521.596 738.403,517.235 741.599,512.725 745.108,510.039 739.478,509.489 741.488,499.771 738.764,498.482 734.736,490.46 
	746.487,494.504 739.309,486.926 744.53,481.328 734.471,483.681 740.219,475.373 743.479,476.093 741.646,466.553 740.428,463.817 
	744.91,457.839 744.071,450.971 735.749,452.267 743.285,452.79 746.926,448.725 741.375,440.709 745.183,434.457 739.812,432.119 
	737.928,429.156 740.941,427.338 737.881,416.571 741.781,417.601 738.965,417.565 737.246,411.577 731.693,406.052 
	738.158,401.445 745.504,401.085 742.863,394.493 740.961,392.462 738.718,386.998 729.622,382.945 736.751,376.93 741.65,374.123 
	749.468,371.388 745.655,364.658 736.418,366.188 735.28,359.831 734.668,351.737 744.221,353.583 741.332,348.273 739.879,347.326 
	737.724,341.773 737.066,336.721 737.049,331.009 744.287,330.541 753.521,325.174 741.591,322.505 742.293,314.096 
	741.066,313.609 743.747,314.598 745.436,308.58 744.474,302.057 739.426,301.561 741.197,292.081 731.378,290.507 737.603,285.345 
	740.013,280.048 750,278.953 747.153,270.724 742.842,267.328 739.716,267.392 738.631,263.264 745.83,262.756 741.148,255.836 
	744.604,250.163 734.947,252.114 735.213,244.286 734.803,236.327 744.65,238.468 747.773,232.733 739.449,232.209 741.727,222.226 
	738.475,221.175 742.607,221.023 738.771,209.479 753.736,209.629 747.139,201.413 735.669,205.174 734.857,198.068 
	736.314,191.621 745.109,192.708 753.316,186.52 742.956,182.485 733.746,183.988 736.914,174.958 741.402,173.599 741.074,165.565 
	748.57,163.406 747.223,155.109 740.534,154.091 728.045,151.856 733.789,142.878 739.465,140.846 743.232,140.293 747.824,131.399 
	741.39,130.126 728.633,128.747 735.587,121.566 739.939,118.211 750.621,117.19 747.568,108.546 740.645,107.762 737.9,105.63 
	741.258,104.128 739.839,95.002 745.139,94.077 738.549,94.456 738.939,86.358 733.094,82.525 741.176,80.937 743.36,75.415 
	746.945,70.97 738.343,71.553 737.248,64.941 734.297,59.415 736.098,52.75 741.025,49.971 740.793,47.855 744.436,42.351 
	735.059,44.021 736.035,36.304 740.016,33.559 746.137,31.973 739.838,24.746 738.723,24.955 736.196,19.774 736.227,12.037 "/>
</svg>
