<?xml version="1.0" encoding="utf-8"?>
<!-- Generator: Adobe Illustrator 15.0.0, SVG Export Plug-In . SVG Version: 6.00 Build 0)  -->
<!DOCTYPE svg PUBLIC "-//W3C//DTD SVG 1.1//EN" "http://www.w3.org/Graphics/SVG/1.1/DTD/svg11.dtd">
<svg version="1.1" id="Layer_1" xmlns="http://www.w3.org/2000/svg" xmlns:xlink="http://www.w3.org/1999/xlink" x="0px" y="0px"
	 width="1024px" height="768px" viewBox="0 0 1024 768" style="enable-background:new 0 0 1024 768;" xml:space="preserve">
<style type="text/css">
<![CDATA[
	.st0{fill:none;stroke:#FF5F9F;stroke-miterlimit:10;}
]]>
</style>
<polyline class="st0" points="245.879,754.153 250.249,750.828 254.411,747.284 249.65,741.126 254.689,734.713 253.045,728.649 
	244.057,729.576 245.322,722.793 248.341,718.104 252.091,718.019 254.831,711.462 244.53,714.056 247.212,706.465 251.34,705.701 
	252.805,699.459 250.992,694.908 254.932,688.251 251.214,684.262 251.235,683.352 247.059,678.311 254.943,678.487 257.31,671.804 
	252.002,668.07 246.81,665.558 240.731,660.252 253.014,661.156 255.504,655.94 262.537,648.7 250.031,646.934 248.659,640.599 
	237.167,637.146 251.361,636.395 249.29,626.616 251.904,625.582 248.138,625.717 248.415,617.733 239.582,614.034 251.751,613.677 
	254.104,608.322 261.141,602.48 254.111,596.637 247.836,595.204 248.514,590.919 253.415,592.23 257.074,588.183 251.252,579.363 
	256.917,570.722 247.023,572.907 248.106,567.81 246.681,562.388 248.453,556.453 248.692,556.252 251.685,552.843 244.659,552.163 
	245.325,544.702 250.338,542.937 255.531,540.424 259.325,533.153 253.664,527.758 246.387,527.325 243.03,521.596 247.747,517.235 
	250.942,512.725 254.452,510.039 248.821,509.489 250.832,499.771 248.107,498.482 244.08,490.46 255.831,494.504 248.653,486.926 
	253.874,481.328 243.814,483.681 249.563,475.373 252.822,476.093 250.989,466.553 249.771,463.817 254.254,457.839 
	253.415,450.971 245.093,452.267 252.628,452.79 256.27,448.725 250.719,440.709 254.526,434.457 249.157,432.119 247.271,429.156 
	250.285,427.338 247.225,416.571 251.125,417.601 248.309,417.565 246.59,411.577 241.038,406.052 247.502,401.445 254.847,401.085 
	252.207,394.493 250.304,392.462 248.062,386.998 238.966,382.945 246.095,376.93 250.995,374.123 258.812,371.388 254.999,364.658 
	245.762,366.188 244.624,359.831 244.012,351.737 253.564,353.583 250.676,348.273 249.222,347.326 247.067,341.773 
	246.411,336.721 246.393,331.009 253.631,330.541 262.864,325.174 250.935,322.505 251.637,314.096 250.411,313.609 
	253.091,314.598 254.779,308.58 253.817,302.057 248.769,301.561 250.542,292.081 240.722,290.507 246.946,285.345 249.356,280.048 
	259.344,278.953 256.497,270.724 252.186,267.328 249.06,267.392 247.975,263.264 255.174,262.756 250.492,255.836 253.948,250.163 
	244.291,252.114 244.557,244.286 244.146,236.327 253.994,238.468 257.118,232.733 248.793,232.209 251.07,222.226 247.818,221.175 
	251.951,221.023 248.114,209.479 263.081,209.629 256.482,201.413 245.013,205.174 244.201,198.068 245.658,191.621 
	254.453,192.708 262.66,186.52 252.3,182.485 243.089,183.988 246.257,174.958 250.746,173.599 250.418,165.565 257.914,163.406 
	256.566,155.109 249.878,154.091 237.389,151.856 243.133,142.878 248.808,140.846 252.576,140.293 257.168,131.399 
	250.733,130.126 237.976,128.747 244.931,121.566 249.283,118.211 259.965,117.19 256.912,108.546 249.989,107.762 247.245,105.63 
	250.602,104.128 249.183,95.002 254.482,94.077 247.893,94.456 248.283,86.358 242.438,82.525 250.519,80.937 252.704,75.415 
	256.289,70.97 247.687,71.553 246.592,64.941 243.641,59.415 245.441,52.75 250.369,49.971 250.136,47.855 253.78,42.351 
	244.403,44.021 245.378,36.304 249.359,33.559 255.48,31.973 249.181,24.746 248.067,24.955 245.54,19.774 245.571,12.037 "/>
<polyline class="st0" points="766.559,754.153 770.928,750.828 775.091,747.284 770.33,741.126 775.369,734.713 773.725,728.649 
	764.736,729.576 766.002,722.793 769.021,718.104 772.771,718.019 775.51,711.462 765.209,714.056 767.893,706.465 772.02,705.701 
	773.484,699.459 771.672,694.908 775.611,688.251 771.894,684.262 771.915,683.352 767.738,678.311 775.623,678.487 
	777.989,671.804 772.682,668.07 767.489,665.558 761.41,660.252 773.693,661.156 776.184,655.94 783.217,648.7 770.711,646.934 
	769.339,640.599 757.847,637.146 772.041,636.395 769.97,626.616 772.584,625.582 768.818,625.717 769.095,617.733 760.262,614.034 
	772.432,613.677 774.783,608.322 781.82,602.48 774.791,596.637 768.516,595.204 769.193,590.919 774.095,592.23 777.754,588.183 
	771.932,579.363 777.596,570.722 767.703,572.907 768.786,567.81 767.36,562.388 769.133,556.453 769.371,556.252 772.365,552.843 
	765.338,552.163 766.005,544.702 771.018,542.937 776.211,540.424 780.005,533.153 774.344,527.758 767.066,527.325 763.71,521.596 
	768.427,517.235 771.622,512.725 775.132,510.039 769.501,509.489 771.512,499.771 768.787,498.482 764.76,490.46 776.511,494.504 
	769.332,486.926 774.554,481.328 764.494,483.681 770.242,475.373 773.502,476.093 771.669,466.553 770.451,463.817 
	774.934,457.839 774.095,450.971 765.772,452.267 773.309,452.79 776.949,448.725 771.398,440.709 775.206,434.457 769.836,432.119 
	767.951,429.156 770.965,427.338 767.904,416.571 771.805,417.601 768.988,417.565 767.27,411.577 761.717,406.052 768.182,401.445 
	775.527,401.085 772.887,394.493 770.984,392.462 768.741,386.998 759.646,382.945 766.774,376.93 771.674,374.123 779.491,371.388 
	775.679,364.658 766.441,366.188 765.304,359.831 764.691,351.737 774.244,353.583 771.355,348.273 769.902,347.326 
	767.747,341.773 767.09,336.721 767.072,331.009 774.311,330.541 783.544,325.174 771.614,322.505 772.316,314.096 771.09,313.609 
	773.771,314.598 775.459,308.58 774.497,302.057 769.449,301.561 771.221,292.081 761.401,290.507 767.626,285.345 770.036,280.048 
	780.023,278.953 777.177,270.724 772.865,267.328 769.739,267.392 768.654,263.264 775.854,262.756 771.172,255.836 
	774.628,250.163 764.971,252.114 765.236,244.286 764.826,236.327 774.674,238.468 777.797,232.733 769.473,232.209 771.75,222.226 
	768.498,221.175 772.631,221.023 768.794,209.479 783.76,209.629 777.162,201.413 765.692,205.174 764.881,198.068 766.338,191.621 
	775.133,192.708 783.34,186.52 772.979,182.485 763.77,183.988 766.938,174.958 771.426,173.599 771.098,165.565 778.594,163.406 
	777.246,155.109 770.558,154.091 758.068,151.856 763.812,142.878 769.488,140.846 773.256,140.293 777.848,131.399 
	771.413,130.126 758.656,128.747 765.61,121.566 769.963,118.211 780.645,117.19 777.592,108.546 770.668,107.762 767.924,105.63 
	771.281,104.128 769.862,95.002 775.162,94.077 768.572,94.456 768.963,86.358 763.117,82.525 771.199,80.937 773.384,75.415 
	776.969,70.97 768.366,71.553 767.271,64.941 764.32,59.415 766.121,52.75 771.049,49.971 770.816,47.855 774.459,42.351 
	765.082,44.021 766.059,36.304 770.039,33.559 776.16,31.973 769.861,24.746 768.746,24.955 766.22,19.774 766.25,12.037 "/>
</svg>
