<?xml version="1.0" encoding="utf-8"?>
<!-- Generator: Adobe Illustrator 15.0.0, SVG Export Plug-In . SVG Version: 6.00 Build 0)  -->
<!DOCTYPE svg PUBLIC "-//W3C//DTD SVG 1.1//EN" "http://www.w3.org/Graphics/SVG/1.1/DTD/svg11.dtd">
<svg version="1.1" id="Layer_1" xmlns="http://www.w3.org/2000/svg" xmlns:xlink="http://www.w3.org/1999/xlink" x="0px" y="0px"
	 width="1024px" height="768px" viewBox="0 0 1024 768" style="enable-background:new 0 0 1024 768;" xml:space="preserve">
<style type="text/css">
<![CDATA[
	.st0{fill:none;stroke:#FF5F9F;stroke-miterlimit:10;}
]]>
</style>
<polyline class="st0" points="285.911,754.153 290.28,750.828 294.442,747.284 289.682,741.126 294.72,734.713 293.077,728.649 
	284.088,729.576 285.354,722.793 288.372,718.104 292.123,718.019 294.862,711.462 284.561,714.056 287.244,706.465 
	291.372,705.701 292.836,699.459 291.023,694.908 294.963,688.251 291.245,684.262 291.267,683.352 287.09,678.311 294.975,678.487 
	297.341,671.804 292.034,668.07 286.841,665.558 280.762,660.252 293.045,661.156 295.536,655.94 302.568,648.7 290.062,646.934 
	288.69,640.599 277.198,637.146 291.393,636.395 289.321,626.616 291.936,625.582 288.169,625.717 288.446,617.733 279.613,614.034 
	291.783,613.677 294.135,608.322 301.172,602.48 294.142,596.637 287.867,595.204 288.545,590.919 293.446,592.23 297.105,588.183 
	291.283,579.363 296.948,570.722 287.055,572.907 288.138,567.81 286.712,562.388 288.484,556.453 288.723,556.252 291.716,552.843 
	284.69,552.163 285.356,544.702 290.37,542.937 295.562,540.424 299.356,533.153 293.695,527.758 286.418,527.325 283.062,521.596 
	287.778,517.235 290.974,512.725 294.483,510.039 288.853,509.489 290.863,499.771 288.138,498.482 284.111,490.46 295.862,494.504 
	288.684,486.926 293.905,481.328 283.846,483.681 289.594,475.373 292.853,476.093 291.021,466.553 289.802,463.817 
	294.285,457.839 293.446,450.971 285.124,452.267 292.66,452.79 296.301,448.725 290.75,440.709 294.558,434.457 289.188,432.119 
	287.302,429.156 290.316,427.338 287.256,416.571 291.156,417.601 288.34,417.565 286.621,411.577 281.069,406.052 287.533,401.445 
	294.878,401.085 292.238,394.493 290.335,392.462 288.093,386.998 278.997,382.945 286.126,376.93 291.026,374.123 298.843,371.388 
	295.03,364.658 285.793,366.188 284.655,359.831 284.043,351.737 293.595,353.583 290.707,348.273 289.253,347.326 287.099,341.773 
	286.442,336.721 286.424,331.009 293.663,330.541 302.896,325.174 290.966,322.505 291.668,314.096 290.442,313.609 
	293.122,314.598 294.81,308.58 293.849,302.057 288.8,301.561 290.573,292.081 280.753,290.507 286.978,285.345 289.388,280.048 
	299.375,278.953 296.528,270.724 292.217,267.328 289.091,267.392 288.006,263.264 295.205,262.756 290.523,255.836 
	293.979,250.163 284.322,252.114 284.588,244.286 284.178,236.327 294.025,238.468 297.149,232.733 288.825,232.209 
	291.102,222.226 287.85,221.175 291.982,221.023 288.146,209.479 303.112,209.629 296.513,201.413 285.044,205.174 284.232,198.068 
	285.689,191.621 294.484,192.708 302.691,186.52 292.331,182.485 283.121,183.988 286.289,174.958 290.777,173.599 290.45,165.565 
	297.945,163.406 296.597,155.109 289.909,154.091 277.42,151.856 283.165,142.878 288.839,140.846 292.607,140.293 297.199,131.399 
	290.765,130.126 278.007,128.747 284.962,121.566 289.314,118.211 299.996,117.19 296.943,108.546 290.02,107.762 287.276,105.63 
	290.633,104.128 289.214,95.002 294.513,94.077 287.924,94.456 288.314,86.358 282.469,82.525 290.55,80.937 292.735,75.415 
	296.32,70.97 287.718,71.553 286.623,64.941 283.672,59.415 285.473,52.75 290.4,49.971 290.167,47.855 293.811,42.351 
	284.434,44.021 285.41,36.304 289.39,33.559 295.512,31.973 289.212,24.746 288.098,24.955 285.571,19.774 285.602,12.037 "/>
<polyline class="st0" points="806.59,754.153 810.959,750.828 815.122,747.284 810.361,741.126 815.4,734.713 813.756,728.649 
	804.768,729.576 806.033,722.793 809.052,718.104 812.803,718.019 815.541,711.462 805.24,714.056 807.924,706.465 812.051,705.701 
	813.516,699.459 811.703,694.908 815.643,688.251 811.925,684.262 811.946,683.352 807.77,678.311 815.654,678.487 818.021,671.804 
	812.713,668.07 807.521,665.558 801.441,660.252 813.725,661.156 816.215,655.94 823.248,648.7 810.742,646.934 809.37,640.599 
	797.878,637.146 812.072,636.395 810.001,626.616 812.615,625.582 808.85,625.717 809.126,617.733 800.293,614.034 812.463,613.677 
	814.814,608.322 821.852,602.48 814.822,596.637 808.547,595.204 809.225,590.919 814.126,592.23 817.785,588.183 811.963,579.363 
	817.627,570.722 807.734,572.907 808.817,567.81 807.392,562.388 809.164,556.453 809.402,556.252 812.396,552.843 805.369,552.163 
	806.036,544.702 811.049,542.937 816.242,540.424 820.036,533.153 814.375,527.758 807.098,527.325 803.741,521.596 
	808.458,517.235 811.653,512.725 815.163,510.039 809.532,509.489 811.543,499.771 808.818,498.482 804.791,490.46 816.542,494.504 
	809.363,486.926 814.585,481.328 804.525,483.681 810.273,475.373 813.533,476.093 811.7,466.553 810.482,463.817 814.965,457.839 
	814.126,450.971 805.804,452.267 813.34,452.79 816.98,448.725 811.43,440.709 815.237,434.457 809.867,432.119 807.982,429.156 
	810.996,427.338 807.936,416.571 811.836,417.601 809.02,417.565 807.301,411.577 801.748,406.052 808.213,401.445 815.559,401.085 
	812.918,394.493 811.016,392.462 808.772,386.998 799.677,382.945 806.806,376.93 811.705,374.123 819.522,371.388 815.71,364.658 
	806.473,366.188 805.335,359.831 804.723,351.737 814.275,353.583 811.387,348.273 809.934,347.326 807.778,341.773 
	807.121,336.721 807.104,331.009 814.342,330.541 823.575,325.174 811.646,322.505 812.348,314.096 811.121,313.609 
	813.802,314.598 815.49,308.58 814.528,302.057 809.48,301.561 811.252,292.081 801.433,290.507 807.657,285.345 810.067,280.048 
	820.055,278.953 817.208,270.724 812.896,267.328 809.771,267.392 808.686,263.264 815.885,262.756 811.203,255.836 
	814.659,250.163 805.002,252.114 805.268,244.286 804.857,236.327 814.705,238.468 817.828,232.733 809.504,232.209 
	811.781,222.226 808.529,221.175 812.662,221.023 808.825,209.479 823.791,209.629 817.193,201.413 805.724,205.174 
	804.912,198.068 806.369,191.621 815.164,192.708 823.371,186.52 813.011,182.485 803.801,183.988 806.969,174.958 811.457,173.599 
	811.129,165.565 818.625,163.406 817.277,155.109 810.589,154.091 798.1,151.856 803.844,142.878 809.52,140.846 813.287,140.293 
	817.879,131.399 811.444,130.126 798.688,128.747 805.642,121.566 809.994,118.211 820.676,117.19 817.623,108.546 810.699,107.762 
	807.955,105.63 811.312,104.128 809.894,95.002 815.193,94.077 808.604,94.456 808.994,86.358 803.148,82.525 811.23,80.937 
	813.415,75.415 817,70.97 808.397,71.553 807.303,64.941 804.352,59.415 806.152,52.75 811.08,49.971 810.848,47.855 814.49,42.351 
	805.113,44.021 806.09,36.304 810.07,33.559 816.191,31.973 809.893,24.746 808.777,24.955 806.251,19.774 806.281,12.037 "/>
<g>
	<polyline class="st0" points="405.271,754.83 406.903,753.955 404.129,747.286 410.514,752.553 412.012,751.409 411.444,747.93 
		412.015,747.189 413.092,744.982 415.349,740.777 409.812,742.597 414.266,741.244 407.952,738.088 408.902,736.241 
		415.205,738.597 407.349,733.488 418.572,731.189 405.554,732.547 411.035,729.783 410.216,729.699 408.243,728.139 
		407.227,735.906 405.313,734.996 402.08,730.145 410.162,728.587 400.835,724.507 409.101,724.622 401.794,719.036 410.6,722.493 
		406.417,716.666 409.225,723.865 409.791,716.222 407.079,714.473 411.983,714.598 406.562,710.405 415.486,709.288 
		413.249,718.325 410.168,714.794 408.229,715.785 403.8,706.907 398.287,719.253 405.661,712.723 402.465,709.459 403.622,707.73 
		409.007,709.962 407.938,704.919 411.558,707.092 409.269,703.286 413.013,701.968 409.631,699.656 416.93,694.731 
		408.286,694.878 415.631,696.076 407.005,688.725 407.677,686.873 406.954,688.826 407.894,691.281 412.183,684.798 
		406.027,686.472 407.562,684.701 408.06,682.222 410.042,677.744 409.658,679.62 407.747,685.478 409.878,678.282 411.898,676.232 
		416.489,682.699 411.922,675.939 410.995,673.731 416.383,673.756 412.414,673.324 410.242,676.5 410.164,672.85 409.952,669.629 
		407.574,670.492 410.165,660.72 404.951,666.663 403.584,664.907 399.631,666.369 404.743,657.441 401.354,661.024 
		401.399,663.835 403.768,659.613 405.369,665.792 407.634,662.984 409.547,665 415.188,667.141 418.459,662.16 407.706,654.888 
		420.428,660.184 419.922,658.51 416.263,652.147 420.305,653.26 422.916,652.978 425.063,647.295 418.771,652.396 417.069,649.395 
		415.753,643.67 412.924,648.651 410.582,650.158 413.636,641.931 404.416,645.698 414.824,641.232 412.026,636.639 
		406.566,636.889 404.147,637.996 403.106,634.526 400.375,636.66 397.152,640.423 396.119,637.157 397.82,632.376 400.458,643.879 
		402.207,638.463 403.869,631.464 406.004,633.372 408.117,634.8 405.329,632.541 403.738,635.729 405.164,633.386 408.883,630.557 
		409.941,628.286 413.05,630.206 416.439,629.859 408.944,626.915 407.256,625.49 404.098,623.619 412.704,621.921 401.807,619.543 
		404.162,619.674 403.841,621.02 401.946,620.601 402.079,615.322 402.406,609.577 399.865,614.482 400.604,618.047 
		402.323,607.542 404.45,610.847 406.593,614.695 408.596,613.679 407.424,608.782 409.784,611.178 406.616,607.656 
		417.024,611.321 412.275,604.611 415.839,606.047 416.843,604.392 422.004,607.74 415.625,602.472 414.917,605.759 
		417.107,600.271 418.701,595.493 411.614,601.154 413.13,596.336 410.92,596.067 408.643,596.395 410.052,592.97 410.888,593.668 
		406.988,590.454 408.806,592.167 409.404,596.477 412.528,592.968 417.962,594.906 414.459,589.286 415.147,588.168 
		411.694,588.462 411.092,586.334 410.453,584.223 405.577,584.905 416.232,579.303 409.658,576.586 416.175,578.392 
		415.425,575.43 411.114,570.129 409.692,574.69 412.714,566.162 411.936,572.027 409.978,572.553 408.247,574.12 406.007,572.771 
		400.167,569.915 404.952,569.155 411.03,567.679 402.046,567.178 408.121,563.647 411.964,562.582 410.867,561.821 
		403.462,557.454 407.807,556.635 411.206,559.562 411.766,556.917 414.068,552.365 408.847,552.3 406.446,558.779 404.584,559.678 
		405.063,550.965 398.86,549.87 397.704,547.887 400.482,546.253 408.132,547.641 405.512,543.091 408.795,547.077 412.055,549.708 
		408.87,537.812 410.139,536.017 410.492,536.469 414.393,538.108 414.515,535.861 414.829,533.709 423.47,532.385 416.427,532.189 
		415.954,529.853 412.808,530.316 411.137,530.87 410.333,534.266 408.698,531.055 407.064,527.808 402.093,531.947 
		407.578,523.406 401.308,524.515 399.743,521.306 407.541,524.537 409.906,523.941 410.12,520.354 408.246,516.128 
		412.401,516.812 409.516,512.424 415.615,516.662 411.331,510.196 410.884,515.704 409.99,505.449 412.466,506.178 414.636,508.9 
		404.644,504.808 405.088,502.874 402.544,500.317 415.456,497.642 406.081,503.916 410.811,495.061 399.717,499.621 
		407.312,493.301 401.023,493.943 397.979,486.925 405.998,487.98 408.833,486.104 407.132,497.409 409.352,497.324 
		413.232,492.418 414.147,494.151 414.494,491.833 406.908,496.151 411.909,488.539 408.615,488.778 412.976,486.671 
		407.253,484.058 411.802,485.684 409.249,480.682 417.834,477.492 412.017,487.253 408.075,479.464 407.439,485.811 
		403.831,479.468 402.831,483.579 405.386,483.09 403.938,479.638 412.027,482.775 410.321,479.136 410.056,478.816 
		411.327,470.041 406.161,471.567 405.719,475.266 417.317,471.063 410.708,470.354 410.69,468.376 409.781,466.582 
		414.883,463.669 412.85,464.638 416.027,464.688 415.723,462.121 412.269,457.646 411.988,455.657 407.306,453.905 
		409.683,454.099 409.164,444.554 407.65,448.508 406.434,454.392 405.592,452.992 405.761,453.661 407.956,449.316 
		409.232,458.234 412.126,454.362 408.353,447.526 417.23,453.033 410.861,448.572 413.037,447.816 414.311,444.568 414.52,442.051 
		414.917,439.399 402.487,441.074 413.042,440.67 409.246,436.216 408.888,433.852 412.369,434.826 412.535,431.568 411.95,428.018 
		409.404,430.463 410.335,428.573 409.201,429.876 407.967,428.764 402.738,424.963 405.135,426.547 410.943,422.958 
		405.934,422.445 409.511,419.488 409.938,417.424 402.782,412.846 407.992,417.316 409.082,415.937 410.414,412.176 
		405.388,415.923 400.313,415.218 402.644,413.215 403.518,410.768 401.502,410.017 399.726,409.021 397.596,405.849 
		404.369,408.892 406.546,408.528 407.914,407.022 408.332,406.863 408.131,399.728 409.812,396.503 412.092,405.375 
		419.032,404.698 410.519,400.462 408.594,399.321 416.89,394.083 415.527,391.399 412.932,389.882 413.075,388.738 
		403.368,390.594 405.981,387.932 405.825,384.61 405.998,379.342 400.373,387.069 398.834,385.622 402.542,382.017 
		395.041,376.734 404.53,385.095 404.981,382.735 400.587,374.631 404.213,375.844 406.119,375.15 411.89,381.434 412.702,380.39 
		412.856,376.389 416.159,379.564 416.99,375.666 416.545,370.901 423.017,366.153 421.429,364.831 413.496,367.099 
		410.847,370.808 412.049,365.074 410.65,368.062 409.395,371.942 406.097,363.508 401.327,370.268 408.479,363.316 
		406.155,361.544 402.076,360.014 402.728,357.856 396.336,356.307 395.757,354.313 405.352,354.347 404.978,351.176 
		407.039,350.739 408.268,354.633 410.254,354.63 411.443,352.903 411.267,351.931 411.976,349.25 412.164,345.951 405.935,349.007 
		401.493,347.762 401.062,345.799 403.85,342.329 401.614,340.625 403.268,338.697 409.305,336.469 400.67,334.833 410.744,332.896 
		401.02,327.226 407.434,336.439 409.353,338.009 411.078,336.549 411.65,327.902 412.424,326.149 417.613,330.837 417.276,326.006 
		423.14,331.836 424.711,324.91 418.65,329.675 418.413,321.411 414.259,330.646 413.832,323.229 412.821,318.402 414.465,319.185 
		414.519,320.783 403.673,317.762 402.981,315.585 417.232,311.372 409.419,313.23 412.19,315.307 411.835,312.399 410.759,309.932 
		419.529,308.92 418.819,305.6 415.22,303.908 407.366,306.615 411.258,299.406 409.223,302.819 407.712,301.518 415.19,301.011 
		410.996,298.269 402.056,294.635 403.357,292.913 410.892,291.011 408.164,287.351 406.209,286.986 404.627,284.305 
		401.378,291.988 403.019,289.624 404.965,293.818 402.961,288.236 405.729,288.403 408.132,287.128 404.186,282.471 
		405.556,280.962 408.04,279.774 410.901,285.948 412.241,279.752 414.753,284.24 416.19,278.882 420.452,280.217 421.953,275.361 
		417.894,274.464 411.208,274.471 419.95,267.643 417.073,265.616 414.59,265.81 409.587,271.352 409.417,263.294 407.716,267.621 
		401.138,266.973 404.004,261.635 409.169,270.541 410.809,268.138 411.843,257.127 419.167,264.509 411.339,262.076 
		415.616,256.661 409.331,258.388 403.838,255.869 413.242,255.606 410.169,251.139 416.854,248.081 411.218,252.147 
		409.967,255.902 406.894,250.632 405.821,255.284 406.667,247.938 397.638,249.968 396.156,247.96 406.465,246.35 404.559,244.276 
		403.037,242.313 400.76,240.438 406.064,238.167 406.917,240.969 406.361,230.453 406.24,240.498 409.542,234.786 409.89,242.683 
		410.157,232.947 412.675,235.884 420.294,237.554 410.905,235.317 413.951,232.051 411.782,233.341 409.801,231.584 
		411.072,229.605 404.164,229.311 402.224,226.77 405.427,225.401 415.26,225.54 409.649,222.364 408.217,222.024 402.336,217.982 
		409.001,227.612 406.432,217.878 403.623,221.285 412.532,216.188 404.362,216.769 414.484,211.268 412.657,209.736 
		402.556,206.005 409.061,215.807 411.203,215.251 413.362,213.113 415.5,213.1 417.716,205.422 419.795,211.638 421.755,209.526 
		425.813,203.833 423.623,202.894 419.362,203.613 415.533,203.98 415.043,202.414 414.103,204.024 409.922,197.728 
		410.985,207.414 406.207,199.302 405.667,204.125 401.384,209.812 396.816,204.187 397.76,202.28 404.513,199.707 406.529,198.316 
		407.155,196.733 404.097,193.782 402.853,189.219 405.935,198.338 409.238,189.667 411.512,189.339 415.133,199.887 
		419.204,197.085 416.723,190.39 417.217,187.631 416.735,183.572 421.169,186.535 419.26,187.269 420.611,178.696 414.587,189.07 
		416.459,179.153 411.708,186.24 410.497,188.986 409.691,184.957 406.357,176.085 405.945,185.152 404.161,185.824 
		400.076,185.513 403.855,182.624 406.632,181.575 399.425,177.018 400.179,175.251 405.249,175.09 409.341,180.757 
		414.562,177.575 409.545,171.592 406.196,169.718 416.368,167.291 412.168,167.579 410.962,164.324 412.913,164.054 
		415.784,166.965 421.811,166.365 414.879,161.59 422.254,158.264 418.617,156.725 417.132,153.316 413.951,149.948 
		410.821,155.514 408.469,155.827 405.378,160.979 404.106,156.091 401.253,160.041 400.416,152.709 399.38,146.475 392.39,153.532 
		395.772,149.012 404.48,152.059 402.949,148.549 405.129,147.409 402.019,142.888 405.717,147.272 406.818,144.384 
		408.941,145.816 409.144,137.667 413.771,143.455 418.739,141.804 412.438,136.303 407.767,131.639 410.414,130.749 
		416.146,131.343 413.394,133.549 410.981,134.472 408.867,134.982 407.915,125.956 405.981,123.95 403.347,128.43 400.832,131.8 
		399.738,121.994 397.222,128.583 398.362,127.427 399.521,125.773 404.216,127.539 404.198,124.732 404.912,122.794 
		407.398,123.227 407.108,119.849 407.576,116.628 410.416,119.272 412.478,118.312 413.949,111.145 416.193,112.048 
		417.937,116.474 419.671,114.955 415.146,114.613 417.466,111.85 410.602,112.326 412.558,113.276 414.166,102.264 
		411.417,105.881 410.959,101.958 407.284,106.966 403.691,105.22 409.788,109.321 407.042,102.808 407.926,102.502 
		408.966,100.476 408.353,98.702 412.851,96.13 408.663,95.42 408.953,89.702 412.275,98.298 411,99.59 411.389,98.092 
		408.832,91.961 409.009,91.976 401.78,92.188 411.887,90.648 413.714,88.706 410.483,84.499 401.29,91.065 400.271,88.368 
		394.323,82.235 404.646,88.804 404.741,78.618 406.562,77.202 412.319,84.53 406.841,77.799 404.291,74.66 410.049,74.528 
		414.819,75.583 418.057,75.748 409.998,74.654 413.111,72.488 410.793,70.152 408.374,66.352 405.659,72.661 411.681,68.444 
		399.051,68.269 407.448,64.282 405.996,62.295 406.538,59.637 408.698,58.831 396.578,55.43 398.568,53.582 408.658,55.84 
		403.981,48.317 407.2,50.182 406.295,48.603 413.658,49.008 415.047,49.212 407.571,41.624 414.681,41.464 410.639,41.87 
		408.232,39.197 407.029,43.306 406.15,49.254 399.921,47.468 407.789,42.632 396.591,39.258 409.543,38.934 406.193,37.614 
		407.138,36.225 406.677,30.254 410.857,35.28 412.636,33.735 413.454,31.615 409.846,33.364 414.997,26.338 412.818,25.692 
		410.937,24.785 406.691,27.369 402.99,30.055 405.482,23.532 409.151,19.604 409.019,18.725 399.947,17.824 401.564,15.897 
		404.373,13.972 400.788,12.022 	"/>
</g>
<g>
	<polyline class="st0" points="928.227,757.82 930.271,757.488 929.653,753.653 931.655,753.127 928.271,746.218 932.454,748.318 
		940.807,747.79 932.484,745.978 927.344,747.493 934.402,739.573 935.288,741.251 925.885,735.931 927.444,734.563 
		931.138,734.867 929.108,733.701 927.325,734.423 939.484,728.954 934.414,726.337 930.233,723.284 928.848,727.425 
		927.465,731.631 925.239,727.695 919.455,732.344 925.015,727.5 918.76,723.992 921.096,721.381 931.504,724.851 928.689,720.825 
		924.848,712.635 929.813,719.842 929.309,714.45 934.792,717.411 929.878,713.435 930.49,711.763 932.003,714.377 933.141,715.206 
		931.904,718.994 927.316,709.462 925.985,712.887 928.594,709.48 922.773,711.463 926.632,710.692 922.414,707.062 924.721,704.01 
		929.765,711.115 931.256,706.074 932.112,703.794 932.318,701.646 925.556,700.111 926.875,699.008 927.297,694.846 
		933.48,694.401 930.516,690.4 928.677,687.062 937.755,687.978 933.37,686.812 926.853,690.397 935.045,681.938 924.588,686.633 
		928.483,682.435 933.131,675.747 920.599,676.197 928.587,678.242 930.626,675.217 932.609,674.791 932.388,675.151 
		937.747,677.761 941.456,677.196 939.212,674.518 937.74,671.452 939.019,664.988 933.844,668.584 934.979,662.322 
		928.488,670.005 926.175,670.371 925.148,667.389 923.123,666.215 928.033,657.519 921.442,662.001 922.011,661.016 
		922.267,661.281 923.932,666.6 926.703,656.915 928.11,665.747 929.98,668.346 935.094,665.737 927.468,656.587 927.962,654.688 
		935.7,656.389 932.454,650.598 934.057,649.347 941.096,653.368 937.473,647.029 937.543,650.453 940.74,643.256 938.177,646.365 
		935.046,653.482 934.023,645.673 931.985,645.03 926.068,650.656 925.959,645.511 922.942,643.952 925.067,643.376 928.21,633.683 
		925.244,636.609 923.078,636.881 920.98,636.908 919.193,635.894 923.678,638.197 918.404,630.551 921.076,642.696 922.47,630.61 
		924.801,636.224 926.609,631.959 928.826,635.365 936.572,640.83 934.188,633.661 924.948,633.574 935.775,629.238 
		933.122,627.757 929.885,627.379 934.028,627.522 929.541,624.609 927.847,625.574 921.737,623.513 934.874,621.973 
		928.298,619.744 933.818,614.109 925.788,617.994 922.321,621.327 924.212,611.853 918.854,619.68 920.311,614.407 921.33,619.671 
		923.322,618.389 925.338,617.9 927.294,615.421 929.127,608.598 928.726,609.731 925.676,609.075 938.614,612.628 933.655,608.319 
		933.212,604.921 938.585,608.536 942.096,609.9 935.602,599.211 939.887,602.479 939.768,600.741 940.7,596.766 938.259,596.843 
		935.324,597.509 933.299,597.421 930.72,599.918 928.013,602.128 928.077,594.746 930.055,593.429 929.222,592.25 928.264,596.736 
		932.375,587.916 933.861,595.014 939.518,595.697 932.955,587.312 938.934,588.225 936.788,585.549 930.013,587.494 
		936.321,580.797 933.996,579.795 935.498,579.317 936.936,580.91 929.354,573.477 936.488,575.682 929.827,568.841 
		930.396,574.672 934.941,573.174 932.032,569.396 930.611,572.35 928.895,573.98 927.832,571.298 932.834,572.463 928.146,569.688 
		920.569,568.039 927.246,565.989 927.588,563.967 931.911,562.559 931.737,561.877 926.367,558.119 925.382,555.454 
		927.237,555.332 929.475,554.31 932.896,552.618 928.973,558.037 927.434,555.596 926.398,547.953 923.558,552.679 
		930.178,550.821 930.109,548.937 921.03,546.24 929.914,548.463 925.18,540.221 930.422,549.768 927.137,536.356 934.81,548.683 
		935.297,545.274 938.361,543.732 940.042,540.703 931.155,533.753 935.867,533.896 936.893,533.443 936.859,532.449 
		936.692,529.79 933.295,530.518 934.026,525.973 931.008,534.358 930,520.602 927.481,532.202 921.787,533.387 930.612,522.029 
		929.664,520.019 915.48,520.643 925.766,521.882 921.57,514.188 924.744,514.951 933.15,519.121 927.135,512.6 926.233,508.497 
		935.406,515.501 927.009,510.591 932.67,504.372 930.764,504.488 933.585,505.872 926.831,507.145 923.747,504.481 
		931.335,504.025 931.229,501.974 926.168,501.336 932.165,492.492 928.568,497.674 924.573,497.525 922.454,496.08 
		924.567,492.506 928.699,494.052 925.461,491.513 928.19,489.944 927.145,499.349 932.874,489.062 931.997,497.984 
		929.113,490.563 937.398,489.727 930.686,493.218 932.688,488.443 933.145,485.13 934.202,486.646 930.516,486.467 928.33,481.812 
		933.408,483.928 932.413,482.096 931.999,484.266 929.218,481.44 927.141,481.626 926.717,488.901 925.16,482.378 926.422,483.337 
		925.088,479.963 925.766,477.975 928.998,477.75 931.502,480.452 930.724,475.847 936.822,479.725 929.725,474.626 
		928.973,472.797 934.903,469.68 924.69,469.659 935.992,464.694 922.163,463.989 929.293,461.463 930.871,460.311 933.397,459.867 
		927.235,456.374 927.938,456.234 932.233,453.386 937.409,445.655 931.355,454.251 928.01,446.449 927.356,455.95 919.885,450.14 
		926.644,450.756 928.011,458.32 930.447,450.516 930.366,448.18 933.112,451.182 929.397,445.409 938.633,448.824 929.338,450.849 
		931.664,446.871 930.152,445.546 937.008,438.424 922.989,441.085 932.66,440.024 930.11,436.328 931.504,435.031 938.374,432.929 
		931.823,434.765 931.274,431.128 927.772,433.256 929.347,429.635 924.823,428.683 931.758,433.919 928.356,426.789 
		934.674,424.027 923.422,425.287 922.562,423.596 921.188,422.048 921.143,420.118 927.556,417.44 929.912,412.612 
		932.079,420.126 927.423,418.304 930.68,414.6 930.512,412.485 932.309,408.002 924.68,410.282 921.814,410.386 925.5,403.9 
		917.964,405.82 919.739,401.441 924.307,404.434 923.08,399.286 924.598,394.614 928.68,397.04 930.638,399.454 932.388,397.559 
		939.616,404.635 932.513,399.936 932.257,398.126 928.161,397.852 936.272,391.354 931.434,391.38 932.299,389.336 
		927.496,389.178 931.272,383.437 926.671,384.238 925.617,381.722 924.949,378.329 922.934,377.948 912.168,384.199 
		924.712,387.389 925.088,384.948 921.962,378.351 925.761,379.955 927.979,380.254 929.228,379.388 926.914,371.563 
		930.018,372.942 933.887,377.394 934.081,371.681 935.436,369.279 944.703,374.083 933.825,371.746 942.545,364.583 
		940.72,363.393 936.004,361.721 932.463,363.467 930.125,360.789 928.74,363.887 927.63,368.663 925.366,366.129 920.344,364.893 
		931.409,360.727 925.81,359.622 918.783,358.208 920.643,356.033 922.022,353.891 919.283,347.198 926.657,345.997 
		928.207,348.211 929.316,352.729 930.943,354.577 938.13,356.995 938.39,348.426 930.084,350.649 930.479,348.053 926.418,349.158 
		933.24,343.468 922.292,345.586 923.064,342.717 922.078,340.654 921.516,339.015 926.177,336.708 931.597,334.802 927.431,332.91 
		928.992,333.717 927.342,324.53 929.369,327.772 931.433,331.556 933.17,330.486 932.093,324.411 935.981,326.86 935.66,322.054 
		943.102,330.601 939.129,325.469 940.453,324.657 938.328,324.831 937.623,318.653 933.515,327.683 931.221,328.593 
		930.36,322.599 935.183,320.782 926.506,317.942 931.35,316.228 931.281,314.06 930.206,312.917 933.848,318.432 936.949,313.643 
		933.181,310.421 935.175,308.628 938.812,305.701 934.461,304.12 937.936,298.158 931.658,302.257 929.931,302.526 
		925.212,303.572 925.694,299.109 926.667,297.333 922.652,294.619 935.743,295.102 928.547,293.208 928.852,287.3 926.533,289.208 
		923.54,295.323 921.093,298.009 925.233,289.227 921.548,288.879 923.047,287.52 923.866,285.336 926.641,285.451 921.636,281.001 
		926.557,281.108 931.256,283.35 930.406,275.243 933.141,281.756 935.6,285.763 937.438,284.067 935.924,277.268 938.671,276.731 
		942.127,273.235 940.162,271.609 938.989,268.749 934.852,269.298 929.279,273.414 929.2,274.255 930.14,265.418 925.242,270.89 
		922.088,266.903 924.434,261.494 929.671,268.032 931.05,261.928 933.192,266.639 941.677,265.136 929.617,263.7 927.566,262.566 
		926.611,260.687 928.964,255.843 929.479,252.898 930.018,250.633 938.235,247.719 931.681,251.07 929.479,250.122 
		928.045,252.968 926.457,255.07 919.592,257.193 920.396,250.039 923.606,248.19 918.444,246.055 928.09,244.25 922.021,242.401 
		921.727,240.422 929.781,238.011 928.297,241.808 924.676,241.333 927.493,237.85 928.658,241.979 931.67,237.622 936.485,244.435 
		932.83,235.599 930.473,231.835 940.457,230.811 934.959,226.809 932.935,225.811 930.186,236.272 925.256,234.579 
		922.072,228.679 935.234,229.582 924.55,225.045 935.176,225.366 924.271,225.171 929.806,219.21 924.719,219.23 929.217,214.998 
		928.796,219.083 925.146,221.004 935.177,215.537 933.776,213.865 927.536,213.803 927.684,211.615 928.995,210.515 
		929.872,202.705 931.919,211.592 934.082,209.056 936.16,215.016 938.375,207.427 940.473,211.884 939.96,208.269 946.284,204 
		935.634,209.855 940.929,202.901 934.901,205.034 937.196,197.748 934.077,201.875 931.635,200.879 930.71,204.503 
		926.168,197.113 925.336,201.042 926.378,201.828 918.577,204.065 917.059,202.438 918.281,200.496 930.207,198.532 
		924.35,195.945 925.182,193.874 925.163,191.547 926.646,198.082 929.136,195.989 931.021,198.814 935.141,197.211 
		935.117,190.766 936.763,189.542 935.734,184.763 938.119,184.507 949.032,186.237 941.636,182.915 937.868,187.486 936.4,186.161 
		935.777,182.652 932.42,186.159 932.438,176.927 929.744,181.117 929.122,188.869 925.624,179.018 925.182,187.92 921.699,184.752 
		924.863,182.739 927.011,181.469 929.376,180.27 918.463,174.41 927.726,177.169 927.294,171.755 927.053,170.982 929.123,171.637 
		932.438,169.492 935.375,167.358 931.734,166.799 932.907,168.722 934.586,167.501 935.761,164.527 931.57,159.928 933.523,161.92 
		939.67,158.794 934.714,157.469 937.824,153.304 934.417,151.353 930.915,159.364 929.475,153.855 927.692,151.847 
		926.383,147.163 922.972,154.23 920.065,158.468 918.455,155.443 916.21,152.175 916.669,149.151 917.354,147.064 918.427,145.221 
		925.664,147.316 926.393,147.426 926.411,147.316 928.414,146.945 927.966,139.266 929.557,135.851 934.619,143.685 
		938.756,141.461 931.529,135.483 931.235,133.079 940.729,135.723 941.46,128.774 935.466,126.51 933.41,125.63 929.584,134.741 
		928.024,131.226 926.229,127.949 924.628,122.865 921.498,131.929 919.442,131.006 921.91,126.803 914.215,122.752 
		924.589,130.023 924.893,127.534 919.802,119.815 923.603,120.581 925.343,119.678 931.875,125.149 931.221,124.663 
		931.271,121.118 933.796,124.983 935.606,121.389 937.265,116.157 945.181,121.668 945.027,113.304 936.855,114.249 
		931.228,114.293 936.975,110.315 934.872,110.884 933.437,114.699 932.125,105.634 927.762,112.706 930.802,103.312 
		929.078,106.015 927.893,103.567 929.611,103.832 923.078,103.361 922.372,101.605 932.854,98.108 928.089,96.976 927.288,93.996 
		930.818,96.49 932.52,95.808 933.564,95.187 931.858,94.445 929.552,92.671 929.79,91.862 924.809,92.301 921.335,90.106 
		921.741,88.096 925.948,87.417 923.619,88.55 922.705,85.691 926.016,82.691 923.123,77.603 927.086,87.097 926.957,75.751 
		933.583,85.25 937.543,81.767 937.022,79.43 929.86,74.025 930.467,71.525 936.847,74.223 934.604,71.855 933.26,64.668 
		931.347,68.287 929.739,76.463 929.107,69.271 920,70.492 926.682,67.118 930.57,63.468 930.208,60.409 928.192,59.116 
		916.714,60.029 916.67,55.271 931.396,56.864 924.672,52.518 927.004,52.472 927.928,50.269 927.727,48.951 935.403,49.272 
		935.528,49.081 933.979,45.416 926.915,45.168 931.023,40.226 929.784,44.099 927.702,43.274 924.556,36.484 925.834,42.096 
		917.488,41.243 918.688,39.437 926.498,38.463 928.64,38.81 929.494,38.654 931.869,39.817 930.658,31.887 933.882,35.921 
		940.59,34.175 934.078,30.268 934.25,27.58 933.461,25.725 927.979,27.955 927.786,26.572 927.417,25.22 932.315,20.532 
		926.067,21.439 929.854,18.691 924.813,17.841 927.677,15.918 929.819,13.99 926.285,12.042 	"/>
</g>
</svg>
