<?xml version="1.0" encoding="utf-8"?>
<!-- Generator: Adobe Illustrator 15.0.0, SVG Export Plug-In . SVG Version: 6.00 Build 0)  -->
<!DOCTYPE svg PUBLIC "-//W3C//DTD SVG 1.1//EN" "http://www.w3.org/Graphics/SVG/1.1/DTD/svg11.dtd">
<svg version="1.1" id="Layer_1" xmlns="http://www.w3.org/2000/svg" xmlns:xlink="http://www.w3.org/1999/xlink" x="0px" y="0px"
	 width="1024px" height="768px" viewBox="0 0 1024 768" style="enable-background:new 0 0 1024 768;" xml:space="preserve">
<style type="text/css">
<![CDATA[
	.st0{fill:none;stroke:#FF5F9F;stroke-miterlimit:10;}
]]>
</style>
<polyline class="st0" points="305.926,754.153 310.295,750.828 314.458,747.284 309.697,741.126 314.736,734.713 313.092,728.649 
	304.104,729.576 305.369,722.793 308.388,718.104 312.138,718.019 314.877,711.462 304.577,714.056 307.259,706.465 
	311.387,705.701 312.852,699.459 311.039,694.908 314.979,688.251 311.261,684.262 311.282,683.352 307.106,678.311 314.99,678.487 
	317.356,671.804 312.049,668.07 306.856,665.558 300.778,660.252 313.061,661.156 315.551,655.94 322.584,648.7 310.078,646.934 
	308.706,640.599 297.214,637.146 311.408,636.395 309.337,626.616 311.951,625.582 308.185,625.717 308.462,617.733 
	299.628,614.034 311.798,613.677 314.151,608.322 321.188,602.48 314.158,596.637 307.883,595.204 308.561,590.919 313.462,592.23 
	317.121,588.183 311.299,579.363 316.963,570.722 307.07,572.907 308.153,567.81 306.728,562.388 308.5,556.453 308.739,556.252 
	311.732,552.843 304.706,552.163 305.372,544.702 310.385,542.937 315.578,540.424 319.372,533.153 313.71,527.758 306.434,527.325 
	303.077,521.596 307.794,517.235 310.989,512.725 314.499,510.039 308.868,509.489 310.879,499.771 308.154,498.482 304.127,490.46 
	315.878,494.504 308.7,486.926 313.921,481.328 303.861,483.681 309.61,475.373 312.869,476.093 311.036,466.553 309.818,463.817 
	314.301,457.839 313.462,450.971 305.14,452.267 312.675,452.79 316.317,448.725 310.766,440.709 314.573,434.457 309.204,432.119 
	307.318,429.156 310.332,427.338 307.272,416.571 311.172,417.601 308.355,417.565 306.637,411.577 301.084,406.052 
	307.549,401.445 314.894,401.085 312.253,394.493 310.351,392.462 308.108,386.998 299.013,382.945 306.142,376.93 311.042,374.123 
	318.858,371.388 315.046,364.658 305.809,366.188 304.671,359.831 304.059,351.737 313.611,353.583 310.723,348.273 
	309.269,347.326 307.114,341.773 306.458,336.721 306.439,331.009 313.678,330.541 322.911,325.174 310.981,322.505 
	311.684,314.096 310.458,313.609 313.138,314.598 314.826,308.58 313.864,302.057 308.816,301.561 310.588,292.081 300.769,290.507 
	306.993,285.345 309.403,280.048 319.391,278.953 316.544,270.724 312.233,267.328 309.106,267.392 308.021,263.264 
	315.221,262.756 310.539,255.836 313.995,250.163 304.337,252.114 304.604,244.286 304.193,236.327 314.041,238.468 
	317.165,232.733 308.84,232.209 311.117,222.226 307.865,221.175 311.998,221.023 308.161,209.479 323.127,209.629 316.529,201.413 
	305.06,205.174 304.248,198.068 305.705,191.621 314.5,192.708 322.707,186.52 312.347,182.485 303.136,183.988 306.304,174.958 
	310.792,173.599 310.465,165.565 317.96,163.406 316.613,155.109 309.925,154.091 297.436,151.856 303.18,142.878 308.855,140.846 
	312.623,140.293 317.215,131.399 310.78,130.126 298.023,128.747 304.978,121.566 309.33,118.211 320.012,117.19 316.958,108.546 
	310.036,107.762 307.292,105.63 310.648,104.128 309.229,95.002 314.529,94.077 307.939,94.456 308.33,86.358 302.485,82.525 
	310.566,80.937 312.751,75.415 316.335,70.97 307.733,71.553 306.639,64.941 303.688,59.415 305.488,52.75 310.416,49.971 
	310.183,47.855 313.827,42.351 304.45,44.021 305.425,36.304 309.406,33.559 315.527,31.973 309.228,24.746 308.114,24.955 
	305.587,19.774 305.618,12.037 "/>
<polyline class="st0" points="826.605,754.153 830.975,750.828 835.138,747.284 830.377,741.126 835.416,734.713 833.771,728.649 
	824.783,729.576 826.049,722.793 829.067,718.104 832.818,718.019 835.557,711.462 825.256,714.056 827.939,706.465 
	832.066,705.701 833.531,699.459 831.719,694.908 835.658,688.251 831.94,684.262 831.962,683.352 827.785,678.311 835.67,678.487 
	838.036,671.804 832.729,668.07 827.536,665.558 821.457,660.252 833.74,661.156 836.23,655.94 843.264,648.7 830.758,646.934 
	829.386,640.599 817.894,637.146 832.088,636.395 830.017,626.616 832.631,625.582 828.865,625.717 829.142,617.733 
	820.309,614.034 832.479,613.677 834.83,608.322 841.867,602.48 834.838,596.637 828.562,595.204 829.24,590.919 834.142,592.23 
	837.801,588.183 831.979,579.363 837.643,570.722 827.75,572.907 828.833,567.81 827.407,562.388 829.18,556.453 829.418,556.252 
	832.412,552.843 825.385,552.163 826.052,544.702 831.064,542.937 836.258,540.424 840.052,533.153 834.391,527.758 
	827.113,527.325 823.757,521.596 828.474,517.235 831.669,512.725 835.179,510.039 829.548,509.489 831.559,499.771 
	828.834,498.482 824.807,490.46 836.558,494.504 829.379,486.926 834.601,481.328 824.541,483.681 830.289,475.373 833.549,476.093 
	831.716,466.553 830.498,463.817 834.98,457.839 834.142,450.971 825.819,452.267 833.355,452.79 836.996,448.725 831.445,440.709 
	835.253,434.457 829.883,432.119 827.998,429.156 831.012,427.338 827.951,416.571 831.852,417.601 829.035,417.565 
	827.316,411.577 821.764,406.052 828.229,401.445 835.574,401.085 832.934,394.493 831.031,392.462 828.788,386.998 
	819.692,382.945 826.821,376.93 831.721,374.123 839.538,371.388 835.726,364.658 826.488,366.188 825.351,359.831 824.738,351.737 
	834.291,353.583 831.402,348.273 829.949,347.326 827.794,341.773 827.137,336.721 827.119,331.009 834.357,330.541 
	843.591,325.174 831.661,322.505 832.363,314.096 831.137,313.609 833.817,314.598 835.506,308.58 834.544,302.057 829.496,301.561 
	831.268,292.081 821.448,290.507 827.673,285.345 830.083,280.048 840.07,278.953 837.224,270.724 832.912,267.328 829.786,267.392 
	828.701,263.264 835.9,262.756 831.219,255.836 834.675,250.163 825.018,252.114 825.283,244.286 824.873,236.327 834.721,238.468 
	837.844,232.733 829.52,232.209 831.797,222.226 828.545,221.175 832.678,221.023 828.841,209.479 843.807,209.629 837.209,201.413 
	825.739,205.174 824.928,198.068 826.385,191.621 835.18,192.708 843.387,186.52 833.026,182.485 823.816,183.988 826.984,174.958 
	831.473,173.599 831.145,165.565 838.641,163.406 837.293,155.109 830.604,154.091 818.115,151.856 823.859,142.878 
	829.535,140.846 833.303,140.293 837.895,131.399 831.46,130.126 818.703,128.747 825.657,121.566 830.01,118.211 840.691,117.19 
	837.639,108.546 830.715,107.762 827.971,105.63 831.328,104.128 829.909,95.002 835.209,94.077 828.619,94.456 829.01,86.358 
	823.164,82.525 831.246,80.937 833.431,75.415 837.016,70.97 828.413,71.553 827.318,64.941 824.367,59.415 826.168,52.75 
	831.096,49.971 830.863,47.855 834.506,42.351 825.129,44.021 826.105,36.304 830.086,33.559 836.207,31.973 829.908,24.746 
	828.793,24.955 826.267,19.774 826.297,12.037 "/>
<g>
	<polyline class="st0" points="425.287,754.83 426.919,753.955 424.145,747.286 430.53,752.553 432.027,751.409 431.459,747.93 
		432.03,747.189 433.108,744.982 435.365,740.777 429.828,742.597 434.281,741.244 427.967,738.088 428.917,736.241 
		435.221,738.597 427.364,733.488 438.588,731.189 425.569,732.547 431.05,729.783 430.232,729.699 428.258,728.139 
		427.242,735.906 425.329,734.996 422.096,730.145 430.178,728.587 420.851,724.507 429.117,724.622 421.81,719.036 
		430.615,722.493 426.433,716.666 429.241,723.865 429.807,716.222 427.094,714.473 431.999,714.598 426.578,710.405 
		435.502,709.288 433.264,718.325 430.184,714.794 428.245,715.785 423.815,706.907 418.302,719.253 425.676,712.723 
		422.481,709.459 423.638,707.73 429.023,709.962 427.954,704.919 431.574,707.092 429.285,703.286 433.028,701.968 
		429.647,699.656 436.945,694.731 428.302,694.878 435.646,696.076 427.021,688.725 427.693,686.873 426.97,688.826 427.91,691.281 
		432.198,684.798 426.042,686.472 427.577,684.701 428.075,682.222 430.058,677.744 429.674,679.62 427.763,685.478 
		429.894,678.282 431.914,676.232 436.504,682.699 431.938,675.939 431.011,673.731 436.399,673.756 432.43,673.324 430.258,676.5 
		430.18,672.85 429.968,669.629 427.589,670.492 430.181,660.72 424.967,666.663 423.6,664.907 419.647,666.369 424.758,657.441 
		421.37,661.024 421.415,663.835 423.783,659.613 425.385,665.792 427.65,662.984 429.563,665 435.203,667.141 438.476,662.16 
		427.721,654.889 440.443,660.184 439.938,658.51 436.278,652.147 440.321,653.26 442.932,652.978 445.079,647.295 438.786,652.396 
		437.085,649.395 435.769,643.67 432.94,648.651 430.598,650.158 433.652,641.931 424.432,645.698 434.84,641.232 432.042,636.639 
		426.582,636.889 424.163,637.996 423.122,634.526 420.391,636.66 417.167,640.423 416.135,637.157 417.836,632.376 
		420.475,643.879 422.222,638.463 423.885,631.464 426.02,633.372 428.133,634.8 425.344,632.541 423.753,635.729 425.179,633.386 
		428.899,630.557 429.957,628.286 433.066,630.206 436.455,629.859 428.959,626.915 427.272,625.49 424.114,623.619 432.72,621.921 
		421.823,619.543 424.177,619.673 423.857,621.02 421.961,620.601 422.095,615.322 422.421,609.577 419.88,614.482 420.619,618.047 
		422.339,607.542 424.466,610.847 426.608,614.695 428.612,613.679 427.44,608.782 429.799,611.178 426.631,607.656 437.04,611.321 
		432.291,604.611 435.854,606.047 436.858,604.392 442.02,607.74 435.641,602.472 434.933,605.759 437.123,600.271 438.717,595.493 
		431.63,601.154 433.146,596.336 430.936,596.067 428.659,596.395 430.067,592.97 430.903,593.668 427.004,590.454 428.821,592.167 
		429.42,596.477 432.543,592.968 437.978,594.906 434.475,589.286 435.163,588.168 431.71,588.462 431.107,586.334 430.469,584.223 
		425.593,584.905 436.248,579.303 429.673,576.586 436.191,578.392 435.441,575.43 431.13,570.129 429.707,574.689 432.729,566.162 
		431.951,572.028 429.993,572.553 428.262,574.12 426.023,572.771 420.182,569.915 424.968,569.155 431.045,567.679 
		422.062,567.178 428.137,563.647 431.98,562.582 430.882,561.821 423.478,557.454 427.822,556.635 431.222,559.562 
		431.781,556.917 434.083,552.365 428.862,552.3 426.461,558.779 424.6,559.678 425.079,550.965 418.876,549.87 417.719,547.887 
		420.498,546.253 428.147,547.641 425.527,543.091 428.811,547.077 432.07,549.708 428.885,537.812 430.154,536.017 
		430.508,536.469 434.408,538.108 434.531,535.861 434.845,533.709 443.486,532.385 436.442,532.189 435.97,529.853 
		432.823,530.316 431.153,530.87 430.349,534.266 428.714,531.055 427.08,527.808 422.109,531.947 427.593,523.406 421.324,524.515 
		419.758,521.306 427.556,524.537 429.921,523.941 430.136,520.354 428.262,516.128 432.417,516.812 429.532,512.424 
		435.631,516.662 431.346,510.196 430.899,515.704 430.005,505.449 432.482,506.178 434.651,508.9 424.66,504.808 425.104,502.874 
		422.56,500.317 435.472,497.642 426.097,503.916 430.827,495.061 419.733,499.621 427.327,493.301 421.039,493.943 
		417.996,486.924 426.013,487.98 428.849,486.104 427.147,497.409 429.367,497.324 433.248,492.418 434.163,494.151 434.51,491.833 
		426.924,496.151 431.925,488.539 428.63,488.778 432.992,486.671 427.269,484.058 431.817,485.684 429.264,480.682 437.85,477.492 
		432.033,487.253 428.091,479.464 427.455,485.811 423.846,479.468 422.847,483.579 425.401,483.09 423.954,479.638 
		432.042,482.776 430.337,479.136 430.071,478.816 431.342,470.041 426.177,471.567 425.734,475.266 437.333,471.063 
		430.724,470.354 430.706,468.376 429.797,466.582 434.898,463.67 432.865,464.638 436.043,464.688 435.739,462.121 
		432.284,457.646 432.004,455.657 427.322,453.905 429.698,454.099 429.18,444.554 427.666,448.508 426.45,454.392 425.607,452.992 
		425.777,453.661 427.972,449.316 429.248,458.234 432.142,454.362 428.369,447.526 437.246,453.033 430.877,448.572 
		433.053,447.816 434.326,444.568 434.535,442.051 434.932,439.399 422.503,441.074 433.058,440.67 429.261,436.216 
		428.903,433.852 432.384,434.826 432.55,431.568 431.966,428.018 429.419,430.463 430.351,428.573 429.216,429.876 
		427.983,428.764 422.753,424.963 425.151,426.547 430.958,422.958 425.949,422.445 429.526,419.488 429.954,417.424 
		422.797,412.846 428.007,417.316 429.098,415.937 430.429,412.176 425.403,415.923 420.329,415.218 422.659,413.215 
		423.533,410.768 421.518,410.017 419.741,409.021 417.611,405.849 424.384,408.892 426.562,408.528 427.929,407.022 
		428.347,406.863 428.147,399.728 429.828,396.503 432.108,405.375 439.047,404.699 430.535,400.462 428.61,399.321 
		436.906,394.083 435.543,391.399 432.947,389.882 433.091,388.738 423.383,390.594 425.997,387.932 425.84,384.61 426.013,379.342 
		420.389,387.069 418.85,385.622 422.557,382.017 415.056,376.734 424.546,385.095 424.996,382.735 420.603,374.631 
		424.229,375.844 426.135,375.15 431.906,381.434 432.717,380.39 432.872,376.389 436.174,379.564 437.005,375.666 436.561,370.901 
		443.033,366.153 441.444,364.831 433.512,367.099 430.863,370.808 432.064,365.074 430.666,368.062 429.41,371.942 
		426.112,363.508 421.342,370.268 428.494,363.316 426.17,361.544 422.091,360.014 422.744,357.856 416.352,356.307 
		415.773,354.313 425.367,354.347 424.993,351.176 427.055,350.739 428.284,354.633 430.27,354.63 431.459,352.904 431.282,351.931 
		431.991,349.25 432.18,345.951 425.95,349.007 421.509,347.762 421.078,345.799 423.865,342.329 421.63,340.625 423.284,338.697 
		429.321,336.469 420.686,334.833 430.76,332.896 421.035,327.226 427.45,336.439 429.368,338.009 431.093,336.549 431.666,327.902 
		432.44,326.149 437.629,330.836 437.292,326.005 443.155,331.837 444.727,324.91 438.666,329.675 438.428,321.411 434.275,330.646 
		433.847,323.229 432.836,318.402 434.481,319.185 434.534,320.783 423.688,317.762 422.997,315.585 437.248,311.372 
		429.435,313.23 432.206,315.307 431.851,312.399 430.774,309.932 439.545,308.92 438.834,305.6 435.235,303.908 427.381,306.615 
		431.274,299.406 429.238,302.819 427.728,301.518 435.206,301.011 431.011,298.269 422.071,294.635 423.373,292.913 
		430.908,291.011 428.18,287.351 426.225,286.986 424.643,284.305 421.394,291.988 423.034,289.624 424.98,293.818 422.977,288.236 
		425.745,288.403 428.147,287.128 424.201,282.471 425.571,280.962 428.055,279.774 430.917,285.948 432.257,279.752 
		434.769,284.24 436.206,278.882 440.468,280.217 441.969,275.361 437.909,274.464 431.224,274.471 439.966,267.643 
		437.088,265.616 434.605,265.81 429.603,271.352 429.433,263.294 427.731,267.621 421.154,266.973 424.02,261.635 429.185,270.541 
		430.825,268.138 431.858,257.127 439.183,264.509 431.354,262.076 435.632,256.661 429.347,258.388 423.854,255.869 
		433.258,255.606 430.185,251.139 436.869,248.081 431.234,252.147 429.983,255.902 426.909,250.632 425.836,255.284 
		426.683,247.938 417.654,249.968 416.172,247.96 426.48,246.35 424.575,244.276 423.053,242.313 420.775,240.438 426.08,238.167 
		426.932,240.969 426.377,230.453 426.255,240.498 429.558,234.786 429.906,242.683 430.172,232.947 432.69,235.884 
		440.309,237.554 430.92,235.316 433.966,232.051 431.797,233.341 429.817,231.584 431.087,229.605 424.18,229.311 422.239,226.77 
		425.442,225.401 435.275,225.54 429.665,222.364 428.233,222.024 422.352,217.982 429.017,227.612 426.447,217.878 
		423.639,221.285 432.548,216.188 424.378,216.769 434.5,211.268 432.673,209.736 422.571,206.006 429.076,215.807 431.218,215.251 
		433.377,213.113 435.515,213.1 437.731,205.422 439.811,211.638 441.771,209.526 445.829,203.833 443.639,202.894 439.378,203.613 
		435.549,203.98 435.059,202.414 434.118,204.024 429.938,197.728 431,207.414 426.222,199.302 425.683,204.125 421.4,209.812 
		416.832,204.187 417.775,202.28 424.528,199.707 426.545,198.316 427.17,196.733 424.113,193.782 422.869,189.219 425.951,198.338 
		429.253,189.667 431.528,189.339 435.149,199.887 439.219,197.085 436.738,190.39 437.233,187.631 436.751,183.572 
		441.185,186.535 439.276,187.269 440.626,178.696 434.603,189.07 436.475,179.153 431.723,186.24 430.513,188.986 429.707,184.957 
		426.373,176.085 425.961,185.152 424.176,185.824 420.092,185.513 423.871,182.624 426.648,181.575 419.44,177.018 
		420.194,175.251 425.265,175.09 429.357,180.757 434.578,177.575 429.561,171.592 426.212,169.718 436.383,167.291 
		432.184,167.579 430.978,164.324 432.929,164.054 435.8,166.965 441.826,166.365 434.895,161.59 442.27,158.265 438.633,156.725 
		437.148,153.316 433.966,149.948 430.836,155.514 428.484,155.827 425.394,160.979 424.122,156.091 421.269,160.041 
		420.432,152.709 419.396,146.475 412.405,153.532 415.788,149.012 424.496,152.059 422.965,148.549 425.145,147.409 
		422.034,142.888 425.732,147.272 426.833,144.384 428.957,145.816 429.159,137.667 433.787,143.455 438.755,141.804 
		432.454,136.303 427.782,131.639 430.429,130.748 436.162,131.343 433.409,133.549 430.997,134.472 428.883,134.982 
		427.93,125.956 425.997,123.95 423.362,128.43 420.847,131.8 419.753,121.994 417.238,128.583 418.377,127.427 419.537,125.773 
		424.232,127.539 424.213,124.732 424.928,122.794 427.414,123.227 427.124,119.849 427.591,116.628 430.431,119.272 
		432.494,118.312 433.964,111.145 436.208,112.048 437.953,116.474 439.687,114.955 435.162,114.613 437.481,111.85 
		430.617,112.326 432.573,113.276 434.181,102.264 431.433,105.881 430.975,101.958 427.3,106.966 423.707,105.22 429.804,109.321 
		427.057,102.808 427.942,102.502 428.981,100.476 428.369,98.702 432.866,96.13 428.678,95.42 428.969,89.702 432.291,98.298 
		431.016,99.59 431.404,98.092 428.847,91.961 429.025,91.976 421.796,92.188 431.902,90.648 433.729,88.706 430.499,84.499 
		421.306,91.065 420.287,88.368 414.339,82.235 424.662,88.804 424.756,78.618 426.578,77.202 432.334,84.53 426.856,77.799 
		424.306,74.66 430.064,74.528 434.834,75.583 438.073,75.748 430.013,74.654 433.126,72.488 430.809,70.152 428.389,66.352 
		425.675,72.661 431.696,68.444 419.066,68.269 427.464,64.282 426.012,62.295 426.553,59.637 428.713,58.831 416.594,55.43 
		418.583,53.582 428.674,55.84 423.997,48.317 427.215,50.182 426.311,48.603 433.674,49.008 435.062,49.213 427.587,41.624 
		434.697,41.463 430.654,41.87 428.248,39.197 427.044,43.306 426.166,49.254 419.937,47.468 427.804,42.632 416.606,39.258 
		429.559,38.934 426.208,37.614 427.154,36.225 426.692,30.254 430.873,35.28 432.651,33.735 433.47,31.615 429.862,33.364 
		435.012,26.338 432.834,25.692 430.952,24.785 426.707,27.369 423.006,30.055 425.498,23.532 429.167,19.604 429.034,18.725 
		419.962,17.824 421.58,15.897 424.388,13.972 420.803,12.022 	"/>
</g>
<g>
	<polyline class="st0" points="948.242,757.82 950.287,757.488 949.669,753.653 951.671,753.127 948.287,746.218 952.47,748.318 
		960.822,747.79 952.5,745.978 947.359,747.493 954.418,739.573 955.304,741.251 945.9,735.931 947.46,734.563 951.153,734.867 
		949.124,733.701 947.341,734.423 959.5,728.954 954.43,726.337 950.249,723.284 948.863,727.425 947.48,731.631 945.255,727.695 
		939.471,732.344 945.03,727.5 938.775,723.992 941.111,721.381 951.52,724.851 948.705,720.825 944.863,712.635 949.829,719.842 
		949.324,714.45 954.808,717.411 949.894,713.435 950.506,711.763 952.019,714.377 953.156,715.206 951.92,718.994 947.332,709.462 
		946.001,712.887 948.609,709.48 942.789,711.463 946.647,710.692 942.43,707.062 944.736,704.01 949.78,711.115 951.271,706.074 
		952.128,703.794 952.334,701.646 945.571,700.111 946.891,699.008 947.312,694.846 953.496,694.401 950.531,690.4 948.692,687.062 
		957.771,687.978 953.386,686.812 946.868,690.397 955.061,681.938 944.604,686.633 948.499,682.435 953.146,675.747 
		940.614,676.197 948.603,678.242 950.642,675.217 952.625,674.791 952.403,675.151 957.763,677.761 961.472,677.196 
		959.228,674.518 957.756,671.452 959.034,664.988 953.859,668.584 954.994,662.322 948.504,670.005 946.19,670.371 
		945.164,667.389 943.139,666.215 948.049,657.519 941.458,662.001 942.026,661.016 942.282,661.281 943.947,666.6 946.719,656.915 
		948.126,665.747 949.996,668.346 955.109,665.737 947.483,656.587 947.978,654.688 955.716,656.389 952.47,650.598 
		954.072,649.347 961.111,653.368 957.488,647.029 957.559,650.453 960.756,643.256 958.192,646.365 955.062,653.482 
		954.039,645.673 952.001,645.03 946.084,650.656 945.975,645.511 942.958,643.952 945.083,643.376 948.226,633.683 945.26,636.609 
		943.094,636.881 940.996,636.908 939.209,635.894 943.693,638.197 938.42,630.551 941.092,642.696 942.485,630.61 944.816,636.224 
		946.625,631.959 948.842,635.365 956.588,640.83 954.203,633.661 944.964,633.574 955.791,629.238 953.138,627.757 949.9,627.379 
		954.044,627.522 949.557,624.609 947.862,625.574 941.753,623.513 954.89,621.973 948.313,619.744 953.834,614.109 
		945.804,617.994 942.337,621.327 944.228,611.853 938.869,619.68 940.326,614.407 941.346,619.671 943.338,618.389 945.354,617.9 
		947.31,615.421 949.143,608.598 948.741,609.731 945.691,609.075 958.63,612.628 953.671,608.319 953.228,604.921 958.601,608.536 
		962.111,609.9 955.617,599.211 959.902,602.479 959.783,600.741 960.716,596.766 958.274,596.843 955.34,597.509 953.314,597.421 
		950.735,599.918 948.028,602.128 948.093,594.746 950.07,593.429 949.237,592.25 948.279,596.736 952.391,587.916 953.877,595.014 
		959.533,595.697 952.971,587.312 958.949,588.225 956.804,585.549 950.028,587.494 956.337,580.797 954.012,579.795 
		955.514,579.317 956.951,580.91 949.369,573.477 956.504,575.682 949.843,568.841 950.412,574.672 954.957,573.174 
		952.048,569.396 950.627,572.35 948.91,573.98 947.848,571.298 952.85,572.463 948.161,569.688 940.585,568.039 947.262,565.989 
		947.604,563.967 951.927,562.559 951.753,561.877 946.383,558.119 945.397,555.454 947.253,555.332 949.49,554.31 952.911,552.618 
		948.988,558.037 947.449,555.596 946.414,547.953 943.573,552.679 950.193,550.821 950.125,548.937 941.046,546.24 949.93,548.463 
		945.195,540.221 950.438,549.768 947.152,536.356 954.825,548.683 955.312,545.274 958.377,543.732 960.058,540.703 
		951.171,533.753 955.883,533.896 956.908,533.443 956.875,532.449 956.708,529.79 953.311,530.518 954.042,525.973 
		951.023,534.358 950.016,520.602 947.497,532.202 941.803,533.387 950.628,522.029 949.68,520.019 935.496,520.643 
		945.781,521.882 941.586,514.188 944.76,514.951 953.166,519.121 947.15,512.6 946.249,508.497 955.422,515.501 947.024,510.591 
		952.686,504.372 950.779,504.488 953.601,505.872 946.847,507.145 943.763,504.481 951.351,504.025 951.244,501.974 
		946.184,501.336 952.181,492.492 948.584,497.674 944.589,497.525 942.47,496.08 944.583,492.506 948.715,494.052 945.477,491.513 
		948.206,489.944 947.16,499.349 952.89,489.062 952.013,497.984 949.129,490.563 957.414,489.727 950.701,493.218 952.704,488.443 
		953.16,485.13 954.218,486.646 950.531,486.467 948.346,481.812 953.424,483.928 952.429,482.096 952.015,484.266 949.233,481.44 
		947.156,481.626 946.732,488.901 945.176,482.378 946.438,483.337 945.104,479.963 945.781,477.975 949.014,477.75 
		951.518,480.452 950.739,475.847 956.838,479.725 949.74,474.626 948.988,472.797 954.919,469.68 944.706,469.659 956.008,464.694 
		942.179,463.989 949.309,461.463 950.887,460.311 953.413,459.867 947.251,456.374 947.954,456.234 952.249,453.386 
		957.425,445.655 951.371,454.251 948.025,446.449 947.372,455.95 939.9,450.14 946.659,450.756 948.026,458.32 950.463,450.516 
		950.382,448.18 953.128,451.182 949.413,445.409 958.648,448.824 949.354,450.849 951.68,446.871 950.168,445.546 957.023,438.424 
		943.005,441.085 952.676,440.024 950.126,436.328 951.52,435.031 958.39,432.929 951.839,434.765 951.29,431.128 947.788,433.256 
		949.362,429.635 944.839,428.683 951.773,433.919 948.372,426.789 954.689,424.027 943.438,425.287 942.578,423.596 
		941.203,422.048 941.158,420.118 947.571,417.44 949.928,412.612 952.095,420.126 947.438,418.304 950.695,414.6 950.527,412.485 
		952.324,408.002 944.695,410.282 941.83,410.386 945.516,403.9 937.979,405.82 939.755,401.441 944.322,404.434 943.096,399.286 
		944.613,394.614 948.695,397.04 950.653,399.454 952.403,397.559 959.632,404.635 952.528,399.936 952.272,398.126 
		948.177,397.852 956.288,391.354 951.449,391.38 952.314,389.336 947.512,389.178 951.288,383.437 946.687,384.238 
		945.633,381.722 944.965,378.329 942.949,377.948 932.184,384.199 944.728,387.389 945.104,384.948 941.978,378.351 
		945.776,379.955 947.994,380.254 949.243,379.388 946.93,371.563 950.033,372.942 953.902,377.394 954.097,371.681 
		955.451,369.279 964.719,374.083 953.841,371.746 962.561,364.583 960.735,363.393 956.02,361.721 952.479,363.467 
		950.141,360.789 948.756,363.887 947.646,368.663 945.382,366.129 940.359,364.893 951.425,360.727 945.825,359.622 
		938.799,358.208 940.658,356.033 942.038,353.891 939.299,347.198 946.673,345.997 948.223,348.211 949.332,352.729 
		950.959,354.577 958.146,356.995 958.405,348.426 950.1,350.649 950.495,348.053 946.434,349.158 953.256,343.468 942.308,345.586 
		943.08,342.717 942.094,340.654 941.531,339.015 946.192,336.708 951.612,334.802 947.446,332.91 949.008,333.717 947.357,324.53 
		949.385,327.772 951.448,331.556 953.186,330.486 952.108,324.411 955.997,326.86 955.676,322.054 963.117,330.601 
		959.145,325.469 960.469,324.657 958.344,324.831 957.639,318.653 953.53,327.683 951.236,328.593 950.376,322.599 
		955.198,320.782 946.521,317.942 951.365,316.228 951.297,314.06 950.222,312.917 953.863,318.432 956.965,313.643 
		953.196,310.421 955.19,308.628 958.828,305.701 954.477,304.12 957.951,298.158 951.674,302.257 949.946,302.526 945.228,303.572 
		945.71,299.109 946.683,297.333 942.668,294.619 955.759,295.102 948.562,293.208 948.867,287.3 946.549,289.208 943.556,295.323 
		941.108,298.009 945.249,289.227 941.563,288.879 943.062,287.52 943.882,285.336 946.656,285.451 941.651,281.001 
		946.572,281.108 951.271,283.35 950.422,275.243 953.156,281.756 955.615,285.763 957.454,284.067 955.939,277.268 
		958.687,276.731 962.143,273.235 960.178,271.609 959.005,268.749 954.867,269.298 949.295,273.414 949.216,274.255 
		950.155,265.418 945.258,270.89 942.104,266.903 944.449,261.494 949.687,268.032 951.065,261.928 953.208,266.639 
		961.692,265.136 949.633,263.7 947.582,262.566 946.627,260.687 948.979,255.843 949.494,252.898 950.033,250.633 958.251,247.719 
		951.696,251.07 949.495,250.122 948.061,252.968 946.473,255.07 939.607,257.193 940.412,250.039 943.622,248.19 938.46,246.055 
		948.105,244.25 942.036,242.401 941.742,240.422 949.797,238.011 948.312,241.808 944.691,241.333 947.509,237.85 948.674,241.979 
		951.686,237.622 956.501,244.435 952.846,235.599 950.488,231.835 960.473,230.811 954.975,226.809 952.95,225.811 
		950.201,236.272 945.271,234.579 942.088,228.679 955.25,229.582 944.565,225.045 955.191,225.366 944.286,225.171 949.821,219.21 
		944.734,219.23 949.232,214.998 948.812,219.083 945.161,221.004 955.192,215.537 953.792,213.865 947.552,213.803 
		947.699,211.615 949.011,210.515 949.888,202.705 951.935,211.592 954.098,209.056 956.176,215.016 958.391,207.427 
		960.488,211.884 959.976,208.269 966.3,204 955.649,209.855 960.944,202.901 954.917,205.034 957.212,197.748 954.093,201.875 
		951.65,200.879 950.726,204.503 946.184,197.113 945.352,201.042 946.394,201.828 938.593,204.065 937.074,202.438 
		938.297,200.496 950.223,198.532 944.365,195.945 945.197,193.874 945.179,191.547 946.661,198.082 949.151,195.989 
		951.037,198.814 955.156,197.211 955.133,190.766 956.778,189.542 955.75,184.763 958.135,184.507 969.048,186.237 
		961.651,182.915 957.884,187.486 956.416,186.161 955.793,182.652 952.436,186.159 952.454,176.927 949.76,181.117 
		949.138,188.869 945.64,179.018 945.197,187.92 941.715,184.752 944.879,182.739 947.026,181.469 949.392,180.27 938.479,174.41 
		947.741,177.169 947.31,171.755 947.068,170.982 949.139,171.637 952.454,169.492 955.391,167.358 951.75,166.799 952.923,168.722 
		954.602,167.501 955.776,164.527 951.586,159.928 953.539,161.92 959.686,158.794 954.729,157.469 957.84,153.304 954.433,151.353 
		950.931,159.364 949.49,153.855 947.708,151.847 946.398,147.163 942.987,154.23 940.081,158.468 938.471,155.443 936.226,152.175 
		936.685,149.151 937.369,147.064 938.442,145.221 945.68,147.316 946.408,147.426 946.427,147.316 948.43,146.945 947.981,139.266 
		949.572,135.851 954.635,143.685 958.771,141.461 951.545,135.483 951.251,133.079 960.745,135.723 961.476,128.774 
		955.481,126.51 953.426,125.63 949.6,134.741 948.04,131.226 946.244,127.949 944.644,122.865 941.514,131.929 939.458,131.006 
		941.926,126.803 934.23,122.752 944.604,130.023 944.908,127.534 939.817,119.815 943.618,120.581 945.358,119.678 
		951.891,125.149 951.236,124.663 951.287,121.118 953.812,124.983 955.622,121.389 957.28,116.157 965.196,121.668 
		965.043,113.304 956.871,114.249 951.243,114.293 956.99,110.315 954.888,110.884 953.452,114.699 952.141,105.634 
		947.777,112.706 950.817,103.312 949.094,106.015 947.908,103.567 949.627,103.832 943.094,103.361 942.388,101.605 952.87,98.108 
		948.104,96.976 947.304,93.996 950.834,96.49 952.535,95.808 953.58,95.187 951.874,94.445 949.567,92.671 949.806,91.862 
		944.824,92.301 941.351,90.106 941.757,88.096 945.964,87.417 943.635,88.55 942.721,85.691 946.031,82.691 943.139,77.603 
		947.102,87.097 946.973,75.751 953.599,85.25 957.559,81.767 957.038,79.43 949.876,74.025 950.482,71.525 956.862,74.223 
		954.619,71.855 953.275,64.668 951.362,68.287 949.755,76.463 949.123,69.271 940.016,70.492 946.697,67.118 950.586,63.468 
		950.224,60.409 948.208,59.116 936.729,60.029 936.686,55.271 951.412,56.864 944.688,52.518 947.02,52.472 947.943,50.269 
		947.742,48.951 955.419,49.272 955.544,49.081 953.994,45.416 946.931,45.168 951.039,40.226 949.8,44.099 947.718,43.274 
		944.571,36.484 945.85,42.096 937.504,41.243 938.703,39.437 946.514,38.463 948.655,38.81 949.51,38.654 951.885,39.817 
		950.674,31.887 953.897,35.921 960.605,34.175 954.094,30.268 954.266,27.58 953.477,25.725 947.994,27.955 947.802,26.572 
		947.433,25.22 952.331,20.532 946.083,21.439 949.869,18.691 944.829,17.841 947.692,15.918 949.835,13.99 946.301,12.042 	"/>
</g>
</svg>
