<?xml version="1.0" encoding="utf-8"?>
<!-- Generator: Adobe Illustrator 15.0.0, SVG Export Plug-In . SVG Version: 6.00 Build 0)  -->
<!DOCTYPE svg PUBLIC "-//W3C//DTD SVG 1.1//EN" "http://www.w3.org/Graphics/SVG/1.1/DTD/svg11.dtd">
<svg version="1.1" id="Layer_1" xmlns="http://www.w3.org/2000/svg" xmlns:xlink="http://www.w3.org/1999/xlink" x="0px" y="0px"
	 width="1024px" height="768px" viewBox="0 0 1024 768" style="enable-background:new 0 0 1024 768;" xml:space="preserve">
<style type="text/css">
<![CDATA[
	.st0{fill:none;stroke:#FF5F9F;stroke-miterlimit:10;}
]]>
</style>
<polyline class="st0" points="315.934,754.153 320.303,750.828 324.466,747.284 319.705,741.126 324.744,734.713 323.1,728.649 
	314.112,729.576 315.377,722.793 318.396,718.104 322.146,718.019 324.885,711.462 314.584,714.056 317.267,706.465 
	321.395,705.701 322.859,699.459 321.046,694.908 324.986,688.251 321.269,684.262 321.29,683.352 317.114,678.311 324.998,678.487 
	327.364,671.804 322.057,668.07 316.864,665.558 310.786,660.252 323.068,661.156 325.559,655.94 332.592,648.7 320.086,646.934 
	318.714,640.599 307.222,637.146 321.416,636.395 319.345,626.616 321.959,625.582 318.193,625.717 318.47,617.733 309.636,614.034 
	321.806,613.677 324.159,608.322 331.195,602.48 324.166,596.637 317.891,595.204 318.568,590.919 323.47,592.23 327.129,588.183 
	321.307,579.363 326.971,570.722 317.078,572.907 318.161,567.81 316.735,562.388 318.508,556.453 318.747,556.252 321.74,552.843 
	314.713,552.163 315.38,544.702 320.393,542.937 325.585,540.424 329.38,533.153 323.718,527.758 316.442,527.325 313.085,521.596 
	317.802,517.235 320.997,512.725 324.507,510.039 318.876,509.489 320.887,499.771 318.162,498.482 314.135,490.46 325.886,494.504 
	318.708,486.926 323.929,481.328 313.869,483.681 319.618,475.373 322.876,476.093 321.044,466.553 319.826,463.817 
	324.309,457.839 323.47,450.971 315.147,452.267 322.683,452.79 326.325,448.725 320.773,440.709 324.581,434.457 319.211,432.119 
	317.326,429.156 320.339,427.338 317.28,416.571 321.18,417.601 318.363,417.565 316.645,411.577 311.092,406.052 317.557,401.445 
	324.902,401.085 322.261,394.493 320.359,392.462 318.116,386.998 309.021,382.945 316.149,376.93 321.049,374.123 328.866,371.388 
	325.054,364.658 315.816,366.188 314.679,359.831 314.066,351.737 323.619,353.583 320.73,348.273 319.277,347.326 317.122,341.773 
	316.465,336.721 316.447,331.009 323.686,330.541 332.919,325.174 320.989,322.505 321.691,314.096 320.465,313.609 
	323.146,314.598 324.833,308.58 323.872,302.057 318.824,301.561 320.596,292.081 310.776,290.507 317.001,285.345 319.411,280.048 
	329.399,278.953 326.552,270.724 322.241,267.328 319.114,267.392 318.029,263.264 325.229,262.756 320.546,255.836 
	324.003,250.163 314.345,252.114 314.612,244.286 314.201,236.327 324.049,238.468 327.172,232.733 318.848,232.209 
	321.125,222.226 317.873,221.175 322.006,221.023 318.169,209.479 333.135,209.629 326.537,201.413 315.067,205.174 
	314.256,198.068 315.713,191.621 324.507,192.708 332.714,186.52 322.354,182.485 313.144,183.988 316.312,174.958 320.8,173.599 
	320.473,165.565 327.968,163.406 326.621,155.109 319.933,154.091 307.443,151.856 313.188,142.878 318.863,140.846 
	322.631,140.293 327.223,131.399 320.788,130.126 308.031,128.747 314.985,121.566 319.337,118.211 330.02,117.19 326.966,108.546 
	320.043,107.762 317.299,105.63 320.656,104.128 319.237,95.002 324.537,94.077 317.947,94.456 318.338,86.358 312.493,82.525 
	320.574,80.937 322.759,75.415 326.343,70.97 317.741,71.553 316.646,64.941 313.696,59.415 315.496,52.75 320.424,49.971 
	320.191,47.855 323.834,42.351 314.458,44.021 315.433,36.304 319.414,33.559 325.535,31.973 319.236,24.746 318.122,24.955 
	315.595,19.774 315.625,12.037 "/>
<polyline class="st0" points="836.613,754.153 840.982,750.828 845.146,747.284 840.385,741.126 845.424,734.713 843.779,728.649 
	834.791,729.576 836.057,722.793 839.075,718.104 842.826,718.019 845.564,711.462 835.264,714.056 837.947,706.465 
	842.074,705.701 843.539,699.459 841.727,694.908 845.666,688.251 841.948,684.262 841.97,683.352 837.793,678.311 845.678,678.487 
	848.044,671.804 842.736,668.07 837.544,665.558 831.465,660.252 843.748,661.156 846.238,655.94 853.271,648.7 840.766,646.934 
	839.394,640.599 827.901,637.146 842.096,636.395 840.024,626.616 842.639,625.582 838.873,625.717 839.149,617.733 
	830.316,614.034 842.486,613.677 844.838,608.322 851.875,602.48 844.846,596.637 838.57,595.204 839.248,590.919 844.149,592.23 
	847.809,588.183 841.986,579.363 847.65,570.722 837.758,572.907 838.841,567.81 837.415,562.388 839.188,556.453 839.426,556.252 
	842.42,552.843 835.393,552.163 836.06,544.702 841.072,542.937 846.266,540.424 850.06,533.153 844.398,527.758 837.121,527.325 
	833.765,521.596 838.481,517.235 841.677,512.725 845.187,510.039 839.556,509.489 841.566,499.771 838.842,498.482 834.814,490.46 
	846.565,494.504 839.387,486.926 844.608,481.328 834.549,483.681 840.297,475.373 843.557,476.093 841.724,466.553 
	840.506,463.817 844.988,457.839 844.149,450.971 835.827,452.267 843.363,452.79 847.004,448.725 841.453,440.709 845.261,434.457 
	839.891,432.119 838.006,429.156 841.02,427.338 837.959,416.571 841.859,417.601 839.043,417.565 837.324,411.577 831.771,406.052 
	838.236,401.445 845.582,401.085 842.941,394.493 841.039,392.462 838.796,386.998 829.7,382.945 836.829,376.93 841.729,374.123 
	849.546,371.388 845.733,364.658 836.496,366.188 835.358,359.831 834.746,351.737 844.299,353.583 841.41,348.273 839.957,347.326 
	837.802,341.773 837.145,336.721 837.127,331.009 844.365,330.541 853.599,325.174 841.669,322.505 842.371,314.096 
	841.145,313.609 843.825,314.598 845.514,308.58 844.552,302.057 839.504,301.561 841.275,292.081 831.456,290.507 837.681,285.345 
	840.091,280.048 850.078,278.953 847.231,270.724 842.92,267.328 839.794,267.392 838.709,263.264 845.908,262.756 841.227,255.836 
	844.683,250.163 835.025,252.114 835.291,244.286 834.881,236.327 844.729,238.468 847.852,232.733 839.527,232.209 
	841.805,222.226 838.553,221.175 842.686,221.023 838.849,209.479 853.814,209.629 847.217,201.413 835.747,205.174 
	834.936,198.068 836.393,191.621 845.188,192.708 853.395,186.52 843.034,182.485 833.824,183.988 836.992,174.958 841.48,173.599 
	841.152,165.565 848.648,163.406 847.301,155.109 840.612,154.091 828.123,151.856 833.867,142.878 839.543,140.846 
	843.311,140.293 847.902,131.399 841.468,130.126 828.711,128.747 835.665,121.566 840.018,118.211 850.699,117.19 847.646,108.546 
	840.723,107.762 837.979,105.63 841.336,104.128 839.917,95.002 845.217,94.077 838.627,94.456 839.018,86.358 833.172,82.525 
	841.254,80.937 843.438,75.415 847.023,70.97 838.421,71.553 837.326,64.941 834.375,59.415 836.176,52.75 841.104,49.971 
	840.871,47.855 844.514,42.351 835.137,44.021 836.113,36.304 840.094,33.559 846.215,31.973 839.916,24.746 838.801,24.955 
	836.274,19.774 836.305,12.037 "/>
<g>
	<polyline class="st0" points="435.295,754.83 436.927,753.955 434.153,747.286 440.538,752.553 442.035,751.409 441.467,747.93 
		442.038,747.189 443.116,744.982 445.373,740.777 439.836,742.597 444.289,741.244 437.975,738.088 438.925,736.241 
		445.229,738.597 437.372,733.488 448.596,731.189 435.577,732.547 441.058,729.783 440.24,729.699 438.266,728.139 437.25,735.906 
		435.336,734.996 432.104,730.145 440.186,728.587 430.859,724.507 439.125,724.622 431.817,719.036 440.623,722.493 
		436.44,716.666 439.249,723.865 439.814,716.222 437.102,714.473 442.007,714.598 436.586,710.405 445.51,709.288 443.272,718.325 
		440.192,714.794 438.252,715.785 433.823,706.907 428.31,719.253 435.684,712.723 432.489,709.459 433.646,707.73 439.031,709.962 
		437.962,704.919 441.582,707.092 439.292,703.286 443.036,701.968 439.655,699.656 446.953,694.731 438.31,694.878 
		445.654,696.076 437.029,688.725 437.701,686.873 436.978,688.826 437.917,691.281 442.206,684.798 436.05,686.472 
		437.585,684.701 438.083,682.222 440.066,677.744 439.682,679.62 437.771,685.478 439.901,678.282 441.921,676.232 
		446.512,682.699 441.945,675.939 441.019,673.731 446.407,673.756 442.438,673.324 440.266,676.5 440.188,672.85 439.976,669.629 
		437.597,670.492 440.188,660.72 434.975,666.663 433.607,664.907 429.655,666.369 434.766,657.441 431.377,661.024 
		431.423,663.835 433.791,659.613 435.393,665.792 437.658,662.984 439.571,665 445.21,667.141 448.483,662.16 437.729,654.889 
		450.451,660.184 449.945,658.51 446.286,652.147 450.329,653.26 452.939,652.978 455.087,647.295 448.794,652.396 447.093,649.395 
		445.776,643.67 442.948,648.651 440.605,650.158 443.66,641.931 434.439,645.698 444.848,641.232 442.049,636.639 436.59,636.889 
		434.17,637.996 433.129,634.526 430.398,636.66 427.175,640.423 426.143,637.157 427.844,632.376 430.482,643.879 432.23,638.463 
		433.893,631.464 436.028,633.372 438.141,634.8 435.352,632.541 433.761,635.729 435.187,633.386 438.907,630.557 439.964,628.286 
		443.074,630.206 446.463,629.859 438.967,626.915 437.28,625.49 434.122,623.619 442.728,621.921 431.831,619.543 434.185,619.673 
		433.865,621.02 431.969,620.601 432.103,615.322 432.429,609.577 429.888,614.482 430.627,618.047 432.347,607.542 
		434.474,610.847 436.616,614.695 438.62,613.679 437.448,608.782 439.807,611.178 436.639,607.656 447.047,611.321 
		442.299,604.611 445.862,606.047 446.866,604.392 452.027,607.74 445.648,602.472 444.94,605.759 447.131,600.271 448.725,595.493 
		441.638,601.154 443.153,596.336 440.943,596.067 438.667,596.395 440.075,592.97 440.911,593.668 437.012,590.454 
		438.829,592.167 439.428,596.477 442.551,592.968 447.985,594.906 444.482,589.286 445.171,588.168 441.718,588.462 
		441.115,586.334 440.477,584.223 435.601,584.905 446.256,579.303 439.681,576.586 446.199,578.392 445.449,575.43 
		441.138,570.129 439.715,574.689 442.736,566.162 441.959,572.028 440,572.553 438.27,574.12 436.031,572.771 430.19,569.915 
		434.976,569.155 441.053,567.679 432.07,567.178 438.145,563.647 441.988,562.582 440.89,561.821 433.485,557.454 437.83,556.635 
		441.229,559.562 441.789,556.917 444.091,552.365 438.87,552.3 436.469,558.779 434.607,559.678 435.087,550.965 428.884,549.87 
		427.727,547.887 430.505,546.253 438.155,547.641 435.535,543.091 438.818,547.077 442.078,549.708 438.893,537.812 
		440.162,536.017 440.516,536.469 444.416,538.108 444.539,535.861 444.853,533.709 453.494,532.385 446.45,532.189 
		445.978,529.853 442.831,530.316 441.161,530.87 440.357,534.266 438.722,531.055 437.087,527.808 432.117,531.947 
		437.601,523.406 431.332,524.515 429.766,521.306 437.564,524.537 439.929,523.941 440.144,520.354 438.27,516.128 
		442.425,516.812 439.54,512.424 445.639,516.662 441.354,510.196 440.907,515.704 440.013,505.449 442.49,506.178 444.659,508.9 
		434.667,504.808 435.112,502.874 432.567,500.317 445.479,497.642 436.104,503.916 440.834,495.061 429.741,499.621 
		437.334,493.301 431.046,493.943 428.004,486.924 436.021,487.98 438.856,486.104 437.155,497.409 439.375,497.324 
		443.256,492.418 444.17,494.151 444.518,491.833 436.932,496.151 441.933,488.539 438.638,488.778 443,486.671 437.276,484.058 
		441.825,485.684 439.272,480.682 447.858,477.492 442.041,487.253 438.099,479.464 437.462,485.811 433.854,479.468 
		432.854,483.579 435.409,483.09 433.961,479.638 442.05,482.776 440.345,479.136 440.079,478.816 441.35,470.041 436.185,471.567 
		435.742,475.266 447.34,471.063 440.732,470.354 440.713,468.376 439.805,466.582 444.906,463.67 442.873,464.638 446.051,464.688 
		445.747,462.121 442.292,457.646 442.012,455.657 437.33,453.905 439.706,454.099 439.188,444.554 437.674,448.508 
		436.458,454.392 435.615,452.992 435.785,453.661 437.979,449.316 439.256,458.234 442.15,454.362 438.376,447.526 
		447.253,453.033 440.885,448.572 443.061,447.816 444.334,444.568 444.543,442.051 444.94,439.399 432.511,441.074 443.065,440.67 
		439.269,436.216 438.911,433.852 442.392,434.826 442.558,431.568 441.974,428.018 439.427,430.463 440.358,428.573 
		439.224,429.876 437.991,428.764 432.761,424.963 435.159,426.547 440.966,422.958 435.957,422.445 439.534,419.488 
		439.961,417.424 432.805,412.846 438.015,417.316 439.105,415.937 440.437,412.176 435.411,415.923 430.337,415.218 
		432.667,413.215 433.541,410.768 431.526,410.017 429.749,409.021 427.619,405.849 434.392,408.892 436.569,408.528 
		437.937,407.022 438.355,406.863 438.155,399.728 439.836,396.503 442.116,405.375 449.055,404.699 440.543,400.462 
		438.618,399.321 446.914,394.083 445.551,391.399 442.955,389.882 443.099,388.738 433.391,390.594 436.005,387.932 
		435.848,384.61 436.021,379.342 430.396,387.069 428.858,385.622 432.565,382.017 425.064,376.734 434.554,385.095 
		435.004,382.735 430.611,374.631 434.236,375.844 436.143,375.15 441.914,381.434 442.725,380.39 442.879,376.389 446.182,379.564 
		447.013,375.666 446.568,370.901 453.041,366.153 451.452,364.831 443.52,367.099 440.871,370.808 442.072,365.074 
		440.674,368.062 439.418,371.942 436.12,363.508 431.35,370.268 438.502,363.316 436.178,361.544 432.099,360.014 432.751,357.856 
		426.36,356.307 425.781,354.313 435.375,354.347 435.001,351.176 437.062,350.739 438.292,354.633 440.277,354.63 441.467,352.904 
		441.29,351.931 441.999,349.25 442.188,345.951 435.958,349.007 431.517,347.762 431.086,345.799 433.873,342.329 431.638,340.625 
		433.292,338.697 439.329,336.469 430.693,334.833 440.768,332.896 431.043,327.226 437.458,336.439 439.376,338.009 
		441.101,336.549 441.674,327.902 442.448,326.149 447.637,330.836 447.299,326.005 453.163,331.837 454.734,324.91 
		448.674,329.675 448.436,321.411 444.283,330.646 443.855,323.229 442.844,318.402 444.489,319.185 444.542,320.783 
		433.696,317.762 433.005,315.585 447.256,311.372 439.442,313.23 442.214,315.307 441.859,312.399 440.782,309.932 449.553,308.92 
		448.842,305.6 445.243,303.908 437.389,306.615 441.282,299.406 439.246,302.819 437.735,301.518 445.214,301.011 441.019,298.269 
		432.079,294.635 433.38,292.913 440.916,291.011 438.188,287.351 436.233,286.986 434.65,284.305 431.402,291.988 433.042,289.624 
		434.988,293.818 432.984,288.236 435.753,288.403 438.155,287.128 434.209,282.471 435.579,280.962 438.063,279.774 
		440.924,285.948 442.265,279.752 444.777,284.24 446.213,278.882 450.476,280.217 451.977,275.361 447.917,274.464 
		441.231,274.471 449.974,267.643 447.096,265.616 444.613,265.81 439.611,271.352 439.44,263.294 437.739,267.621 431.162,266.973 
		434.028,261.635 439.193,270.541 440.833,268.138 441.866,257.127 449.191,264.509 441.362,262.076 445.64,256.661 
		439.354,258.388 433.861,255.869 443.266,255.606 440.192,251.139 446.877,248.081 441.242,252.147 439.991,255.902 
		436.917,250.632 435.844,255.284 436.69,247.938 427.662,249.968 426.18,247.96 436.488,246.35 434.583,244.276 433.061,242.313 
		430.783,240.438 436.087,238.167 436.94,240.969 436.385,230.453 436.263,240.498 439.565,234.786 439.914,242.683 440.18,232.947 
		442.698,235.884 450.316,237.554 440.928,235.316 443.974,232.051 441.805,233.341 439.825,231.584 441.095,229.605 
		434.188,229.311 432.247,226.77 435.45,225.401 445.283,225.54 439.673,222.364 438.241,222.024 432.359,217.982 439.025,227.612 
		436.455,217.878 433.646,221.285 442.556,216.188 434.386,216.769 444.507,211.268 442.681,209.736 432.579,206.006 
		439.084,215.807 441.226,215.251 443.385,213.113 445.523,213.1 447.739,205.422 449.819,211.638 451.779,209.526 455.836,203.833 
		453.646,202.894 449.386,203.613 445.557,203.98 445.067,202.414 444.126,204.024 439.945,197.728 441.008,207.414 436.23,199.302 
		435.691,204.125 431.408,209.812 426.84,204.187 427.783,202.28 434.536,199.707 436.553,198.316 437.178,196.733 434.121,193.782 
		432.876,189.219 435.958,198.338 439.261,189.667 441.536,189.339 445.157,199.887 449.227,197.085 446.746,190.39 
		447.241,187.631 446.759,183.572 451.193,186.535 449.284,187.269 450.634,178.696 444.61,189.07 446.483,179.153 441.731,186.24 
		440.521,188.986 439.714,184.957 436.381,176.085 435.969,185.152 434.184,185.824 430.1,185.513 433.878,182.624 436.656,181.575 
		429.448,177.018 430.202,175.251 435.272,175.09 439.365,180.757 444.586,177.575 439.568,171.592 436.22,169.718 446.391,167.291 
		442.191,167.579 440.986,164.324 442.937,164.054 445.808,166.965 451.834,166.365 444.902,161.59 452.278,158.265 
		448.641,156.725 447.156,153.316 443.974,149.948 440.844,155.514 438.492,155.827 435.401,160.979 434.129,156.091 
		431.277,160.041 430.439,152.709 429.404,146.475 422.413,153.532 425.796,149.012 434.504,152.059 432.973,148.549 
		435.153,147.409 432.042,142.888 435.74,147.272 436.841,144.384 438.965,145.816 439.167,137.667 443.794,143.455 
		448.763,141.804 442.462,136.303 437.79,131.639 440.437,130.748 446.17,131.343 443.417,133.549 441.004,134.472 438.891,134.982 
		437.938,125.956 436.005,123.95 433.37,128.43 430.854,131.8 429.761,121.994 427.246,128.583 428.385,127.427 429.545,125.773 
		434.24,127.539 434.221,124.732 434.936,122.794 437.422,123.227 437.131,119.849 437.599,116.628 440.439,119.272 
		442.502,118.312 443.972,111.145 446.216,112.048 447.96,116.474 449.694,114.955 445.17,114.613 447.489,111.85 440.625,112.326 
		442.581,113.276 444.189,102.264 441.441,105.881 440.983,101.958 437.308,106.966 433.715,105.22 439.812,109.321 
		437.065,102.808 437.95,102.502 438.989,100.476 438.376,98.702 442.874,96.13 438.686,95.42 438.977,89.702 442.298,98.298 
		441.024,99.59 441.412,98.092 438.855,91.961 439.033,91.976 431.804,92.188 441.91,90.648 443.737,88.706 440.506,84.499 
		431.313,91.065 430.294,88.368 424.347,82.235 434.669,88.804 434.764,78.618 436.586,77.202 442.342,84.53 436.864,77.799 
		434.314,74.66 440.072,74.528 444.842,75.583 448.081,75.748 440.021,74.654 443.134,72.488 440.817,70.152 438.397,66.352 
		435.683,72.661 441.704,68.444 429.074,68.269 437.472,64.282 436.02,62.295 436.561,59.637 438.721,58.831 426.602,55.43 
		428.591,53.582 438.682,55.84 434.004,48.317 437.223,50.182 436.319,48.603 443.682,49.008 445.07,49.213 437.595,41.624 
		444.705,41.463 440.662,41.87 438.255,39.197 437.052,43.306 436.173,49.254 429.944,47.468 437.812,42.632 426.614,39.258 
		439.566,38.934 436.216,37.614 437.162,36.225 436.7,30.254 440.881,35.28 442.659,33.735 443.478,31.615 439.87,33.364 
		445.02,26.338 442.842,25.692 440.96,24.785 436.714,27.369 433.014,30.055 435.505,23.532 439.175,19.604 439.042,18.725 
		429.97,17.824 431.588,15.897 434.396,13.972 430.811,12.022 	"/>
</g>
<g>
	<polyline class="st0" points="958.25,757.82 960.295,757.488 959.677,753.653 961.679,753.127 958.295,746.218 962.478,748.318 
		970.83,747.79 962.508,745.978 957.367,747.493 964.426,739.573 965.312,741.251 955.908,735.931 957.468,734.563 961.161,734.867 
		959.132,733.701 957.349,734.423 969.508,728.954 964.438,726.337 960.257,723.284 958.871,727.425 957.488,731.631 
		955.263,727.695 949.479,732.344 955.038,727.5 948.783,723.992 951.119,721.381 961.527,724.851 958.713,720.825 954.871,712.635 
		959.837,719.842 959.332,714.45 964.815,717.411 959.901,713.435 960.514,711.763 962.026,714.377 963.164,715.206 
		961.928,718.994 957.34,709.462 956.009,712.887 958.617,709.48 952.797,711.463 956.655,710.692 952.438,707.062 954.744,704.01 
		959.788,711.115 961.279,706.074 962.136,703.794 962.342,701.646 955.579,700.111 956.898,699.008 957.32,694.846 
		963.504,694.401 960.539,690.4 958.7,687.062 967.778,687.978 963.394,686.812 956.876,690.397 965.068,681.938 954.611,686.633 
		958.507,682.435 963.154,675.747 950.622,676.197 958.61,678.242 960.649,675.217 962.633,674.791 962.411,675.151 
		967.771,677.761 971.479,677.196 969.235,674.518 967.764,671.452 969.042,664.988 963.867,668.584 965.002,662.322 
		958.512,670.005 956.198,670.371 955.172,667.389 953.146,666.215 958.057,657.519 951.466,662.001 952.034,661.016 
		952.29,661.281 953.955,666.6 956.727,656.915 958.134,665.747 960.004,668.346 965.117,665.737 957.491,656.587 957.985,654.688 
		965.724,656.389 962.478,650.598 964.08,649.347 971.119,653.368 967.496,647.029 967.566,650.453 970.764,643.256 968.2,646.365 
		965.069,653.482 964.047,645.673 962.009,645.03 956.092,650.656 955.982,645.511 952.966,643.952 955.091,643.376 
		958.233,633.683 955.268,636.609 953.102,636.881 951.004,636.908 949.217,635.894 953.701,638.197 948.428,630.551 951.1,642.696 
		952.493,630.61 954.824,636.224 956.633,631.959 958.85,635.365 966.596,640.83 964.211,633.661 954.972,633.574 965.799,629.238 
		963.146,627.757 959.908,627.379 964.052,627.522 959.564,624.609 957.87,625.574 951.761,623.513 964.897,621.973 
		958.321,619.744 963.842,614.109 955.812,617.994 952.345,621.327 954.235,611.853 948.877,619.68 950.334,614.407 
		951.354,619.671 953.346,618.389 955.361,617.9 957.317,615.421 959.15,608.598 958.749,609.731 955.699,609.075 968.638,612.628 
		963.679,608.319 963.235,604.921 968.608,608.536 972.119,609.9 965.625,599.211 969.91,602.479 969.791,600.741 970.724,596.766 
		968.282,596.843 965.348,597.509 963.322,597.421 960.743,599.918 958.036,602.128 958.101,594.746 960.078,593.429 
		959.245,592.25 958.287,596.736 962.398,587.916 963.885,595.014 969.541,595.697 962.979,587.312 968.957,588.225 
		966.812,585.549 960.036,587.494 966.345,580.797 964.02,579.795 965.521,579.317 966.959,580.91 959.377,573.477 966.512,575.682 
		959.851,568.841 960.42,574.672 964.965,573.174 962.056,569.396 960.635,572.35 958.918,573.98 957.855,571.298 962.857,572.463 
		958.169,569.688 950.593,568.039 957.27,565.989 957.611,563.967 961.935,562.559 961.761,561.877 956.391,558.119 
		955.405,555.454 957.261,555.332 959.498,554.31 962.919,552.618 958.996,558.037 957.457,555.596 956.422,547.953 
		953.581,552.679 960.201,550.821 960.133,548.937 951.054,546.24 959.938,548.463 955.203,540.221 960.445,549.768 957.16,536.356 
		964.833,548.683 965.32,545.274 968.385,543.732 970.065,540.703 961.179,533.753 965.891,533.896 966.916,533.443 
		966.883,532.449 966.716,529.79 963.318,530.518 964.05,525.973 961.031,534.358 960.023,520.602 957.505,532.202 951.811,533.387 
		960.636,522.029 959.688,520.019 945.504,520.643 955.789,521.882 951.594,514.188 954.768,514.951 963.174,519.121 957.158,512.6 
		956.257,508.497 965.43,515.501 957.032,510.591 962.693,504.372 960.787,504.488 963.608,505.872 956.854,507.145 
		953.771,504.481 961.358,504.025 961.252,501.974 956.191,501.336 962.188,492.492 958.592,497.674 954.597,497.525 
		952.478,496.08 954.591,492.506 958.723,494.052 955.484,491.513 958.214,489.944 957.168,499.349 962.897,489.062 
		962.021,497.984 959.137,490.563 967.422,489.727 960.709,493.218 962.712,488.443 963.168,485.13 964.226,486.646 
		960.539,486.467 958.354,481.812 963.432,483.928 962.437,482.096 962.022,484.266 959.241,481.44 957.164,481.626 956.74,488.901 
		955.184,482.378 956.445,483.337 955.111,479.963 955.789,477.975 959.021,477.75 961.525,480.452 960.747,475.847 
		966.846,479.725 959.748,474.626 958.996,472.797 964.927,469.68 954.714,469.659 966.016,464.694 952.187,463.989 
		959.316,461.463 960.895,460.311 963.421,459.867 957.259,456.374 957.962,456.234 962.257,453.386 967.433,445.655 
		961.379,454.251 958.033,446.449 957.38,455.95 949.908,450.14 956.667,450.756 958.034,458.32 960.471,450.516 960.39,448.18 
		963.136,451.182 959.421,445.409 968.656,448.824 959.361,450.849 961.688,446.871 960.176,445.546 967.031,438.424 
		953.013,441.085 962.684,440.024 960.134,436.328 961.527,435.031 968.397,432.929 961.847,434.765 961.298,431.128 
		957.796,433.256 959.37,429.635 954.847,428.683 961.781,433.919 958.38,426.789 964.697,424.027 953.445,425.287 952.586,423.596 
		951.211,422.048 951.166,420.118 957.579,417.44 959.936,412.612 962.103,420.126 957.446,418.304 960.703,414.6 960.535,412.485 
		962.332,408.002 954.703,410.282 951.838,410.386 955.523,403.9 947.987,405.82 949.763,401.441 954.33,404.434 953.104,399.286 
		954.621,394.614 958.703,397.04 960.661,399.454 962.411,397.559 969.64,404.635 962.536,399.936 962.28,398.126 958.185,397.852 
		966.296,391.354 961.457,391.38 962.322,389.336 957.52,389.178 961.296,383.437 956.694,384.238 955.641,381.722 954.973,378.329 
		952.957,377.948 942.191,384.199 954.735,387.389 955.111,384.948 951.985,378.351 955.784,379.955 958.002,380.254 
		959.251,379.388 956.938,371.563 960.041,372.942 963.91,377.394 964.104,371.681 965.459,369.279 974.727,374.083 
		963.849,371.746 972.568,364.583 970.743,363.393 966.027,361.721 962.486,363.467 960.148,360.789 958.764,363.887 
		957.653,368.663 955.39,366.129 950.367,364.893 961.433,360.727 955.833,359.622 948.807,358.208 950.666,356.033 
		952.046,353.891 949.307,347.198 956.681,345.997 958.23,348.211 959.34,352.729 960.967,354.577 968.153,356.995 968.413,348.426 
		960.107,350.649 960.503,348.053 956.441,349.158 963.264,343.468 952.315,345.586 953.088,342.717 952.102,340.654 
		951.539,339.015 956.2,336.708 961.62,334.802 957.454,332.91 959.016,333.717 957.365,324.53 959.393,327.772 961.456,331.556 
		963.193,330.486 962.116,324.411 966.005,326.86 965.684,322.054 973.125,330.601 969.152,325.469 970.477,324.657 
		968.352,324.831 967.646,318.653 963.538,327.683 961.244,328.593 960.384,322.599 965.206,320.782 956.529,317.942 
		961.373,316.228 961.305,314.06 960.229,312.917 963.871,318.432 966.973,313.643 963.204,310.421 965.198,308.628 
		968.836,305.701 964.484,304.12 967.959,298.158 961.682,302.257 959.954,302.526 955.235,303.572 955.718,299.109 956.69,297.333 
		952.676,294.619 965.767,295.102 958.57,293.208 958.875,287.3 956.557,289.208 953.563,295.323 951.116,298.009 955.257,289.227 
		951.571,288.879 953.07,287.52 953.89,285.336 956.664,285.451 951.659,281.001 956.58,281.108 961.279,283.35 960.43,275.243 
		963.164,281.756 965.623,285.763 967.462,284.067 965.947,277.268 968.694,276.731 972.15,273.235 970.186,271.609 
		969.013,268.749 964.875,269.298 959.303,273.414 959.224,274.255 960.163,265.418 955.266,270.89 952.111,266.903 
		954.457,261.494 959.694,268.032 961.073,261.928 963.216,266.639 971.7,265.136 959.641,263.7 957.59,262.566 956.635,260.687 
		958.987,255.843 959.502,252.898 960.041,250.633 968.259,247.719 961.704,251.07 959.503,250.122 958.068,252.968 956.48,255.07 
		949.615,257.193 950.42,250.039 953.63,248.19 948.468,246.055 958.113,244.25 952.044,242.401 951.75,240.422 959.805,238.011 
		958.32,241.808 954.699,241.333 957.517,237.85 958.682,241.979 961.693,237.622 966.509,244.435 962.854,235.599 960.496,231.835 
		970.48,230.811 964.982,226.809 962.958,225.811 960.209,236.272 955.279,234.579 952.096,228.679 965.258,229.582 
		954.573,225.045 965.199,225.366 954.294,225.171 959.829,219.21 954.742,219.23 959.24,214.998 958.819,219.083 955.169,221.004 
		965.2,215.537 963.8,213.865 957.56,213.803 957.707,211.615 959.019,210.515 959.896,202.705 961.942,211.592 964.105,209.056 
		966.184,215.016 968.398,207.427 970.496,211.884 969.983,208.269 976.308,204 965.657,209.855 970.952,202.901 964.925,205.034 
		967.22,197.748 964.101,201.875 961.658,200.879 960.733,204.503 956.191,197.113 955.359,201.042 956.401,201.828 
		948.601,204.065 947.082,202.438 948.305,200.496 960.23,198.532 954.373,195.945 955.205,193.874 955.187,191.547 
		956.669,198.082 959.159,195.989 961.045,198.814 965.164,197.211 965.141,190.766 966.786,189.542 965.758,184.763 
		968.143,184.507 979.056,186.237 971.659,182.915 967.892,187.486 966.424,186.161 965.801,182.652 962.443,186.159 
		962.462,176.927 959.768,181.117 959.146,188.869 955.647,179.018 955.205,187.92 951.723,184.752 954.887,182.739 
		957.034,181.469 959.399,180.27 948.486,174.41 957.749,177.169 957.317,171.755 957.076,170.982 959.146,171.637 962.462,169.492 
		965.398,167.358 961.758,166.799 962.931,168.722 964.609,167.501 965.784,164.527 961.594,159.928 963.547,161.92 
		969.693,158.794 964.737,157.469 967.848,153.304 964.44,151.353 960.938,159.364 959.498,153.855 957.716,151.847 
		956.406,147.163 952.995,154.23 950.089,158.468 948.479,155.443 946.233,152.175 946.692,149.151 947.377,147.064 948.45,145.221 
		955.688,147.316 956.416,147.426 956.435,147.316 958.438,146.945 957.989,139.266 959.58,135.851 964.643,143.685 
		968.779,141.461 961.553,135.483 961.259,133.079 970.753,135.723 971.483,128.774 965.489,126.51 963.434,125.63 959.607,134.741 
		958.048,131.226 956.252,127.949 954.651,122.865 951.521,131.929 949.466,131.006 951.934,126.803 944.238,122.752 
		954.612,130.023 954.916,127.534 949.825,119.815 953.626,120.581 955.366,119.678 961.898,125.149 961.244,124.663 
		961.295,121.118 963.819,124.983 965.63,121.389 967.288,116.157 975.204,121.668 975.051,113.304 966.879,114.249 
		961.251,114.293 966.998,110.315 964.896,110.884 963.46,114.699 962.148,105.634 957.785,112.706 960.825,103.312 
		959.102,106.015 957.916,103.567 959.635,103.832 953.102,103.361 952.396,101.605 962.878,98.108 958.112,96.976 957.312,93.996 
		960.842,96.49 962.543,95.808 963.588,95.187 961.882,94.445 959.575,92.671 959.813,91.862 954.832,92.301 951.358,90.106 
		951.765,88.096 955.972,87.417 953.643,88.55 952.729,85.691 956.039,82.691 953.146,77.603 957.109,87.097 956.98,75.751 
		963.606,85.25 967.566,81.767 967.046,79.43 959.884,74.025 960.49,71.525 966.87,74.223 964.627,71.855 963.283,64.668 
		961.37,68.287 959.763,76.463 959.131,69.271 950.023,70.492 956.705,67.118 960.594,63.468 960.231,60.409 958.216,59.116 
		946.737,60.029 946.693,55.271 961.42,56.864 954.695,52.518 957.027,52.472 957.951,50.269 957.75,48.951 965.427,49.272 
		965.552,49.081 964.002,45.416 956.938,45.168 961.047,40.226 959.808,44.099 957.726,43.274 954.579,36.484 955.857,42.096 
		947.512,41.243 948.711,39.437 956.521,38.463 958.663,38.81 959.518,38.654 961.893,39.817 960.682,31.887 963.905,35.921 
		970.613,34.175 964.102,30.268 964.273,27.58 963.484,25.725 958.002,27.955 957.81,26.572 957.44,25.22 962.339,20.532 
		956.091,21.439 959.877,18.691 954.837,17.841 957.7,15.918 959.843,13.99 956.309,12.042 	"/>
</g>
</svg>
