<?xml version="1.0" encoding="utf-8"?>
<!-- Generator: Adobe Illustrator 15.0.0, SVG Export Plug-In . SVG Version: 6.00 Build 0)  -->
<!DOCTYPE svg PUBLIC "-//W3C//DTD SVG 1.1//EN" "http://www.w3.org/Graphics/SVG/1.1/DTD/svg11.dtd">
<svg version="1.1" id="Layer_1" xmlns="http://www.w3.org/2000/svg" xmlns:xlink="http://www.w3.org/1999/xlink" x="0px" y="0px"
	 width="1024px" height="768px" viewBox="0 0 1024 768" style="enable-background:new 0 0 1024 768;" xml:space="preserve">
<style type="text/css">
<![CDATA[
	.st0{fill:none;stroke:#FF5F9F;stroke-miterlimit:10;}
]]>
</style>
<polyline class="st0" points="325.942,754.153 330.311,750.828 334.474,747.284 329.713,741.126 334.751,734.713 333.108,728.649 
	324.12,729.576 325.385,722.793 328.403,718.104 332.154,718.019 334.893,711.462 324.592,714.056 327.275,706.465 331.403,705.701 
	332.867,699.459 331.054,694.908 334.994,688.251 331.276,684.262 331.298,683.352 327.122,678.311 335.006,678.487 
	337.372,671.804 332.065,668.07 326.872,665.558 320.793,660.252 333.076,661.156 335.567,655.94 342.6,648.7 330.094,646.934 
	328.722,640.599 317.229,637.146 331.424,636.395 329.353,626.616 331.967,625.582 328.201,625.717 328.478,617.733 
	319.644,614.034 331.814,613.677 334.167,608.322 341.203,602.48 334.173,596.637 327.898,595.204 328.576,590.919 333.478,592.23 
	337.137,588.183 331.314,579.363 336.979,570.722 327.086,572.907 328.169,567.81 326.743,562.388 328.516,556.453 328.754,556.252 
	331.748,552.843 324.721,552.163 325.388,544.702 330.401,542.937 335.593,540.424 339.388,533.153 333.726,527.758 326.45,527.325 
	323.093,521.596 327.81,517.235 331.005,512.725 334.515,510.039 328.884,509.489 330.895,499.771 328.169,498.482 324.143,490.46 
	335.894,494.504 328.715,486.926 333.937,481.328 323.877,483.681 329.625,475.373 332.884,476.093 331.052,466.553 
	329.833,463.817 334.316,457.839 333.478,450.971 325.155,452.267 332.691,452.79 336.333,448.725 330.781,440.709 334.589,434.457 
	329.219,432.119 327.333,429.156 330.347,427.338 327.288,416.571 331.188,417.601 328.371,417.565 326.652,411.577 321.1,406.052 
	327.564,401.445 334.91,401.085 332.269,394.493 330.367,392.462 328.124,386.998 319.028,382.945 326.157,376.93 331.057,374.123 
	338.874,371.388 335.062,364.658 325.824,366.188 324.687,359.831 324.074,351.737 333.626,353.583 330.738,348.273 
	329.285,347.326 327.13,341.773 326.473,336.721 326.455,331.009 333.694,330.541 342.927,325.174 330.997,322.505 331.699,314.096 
	330.473,313.609 333.153,314.598 334.841,308.58 333.88,302.057 328.832,301.561 330.604,292.081 320.784,290.507 327.009,285.345 
	329.419,280.048 339.407,278.953 336.56,270.724 332.249,267.328 329.122,267.392 328.037,263.264 335.236,262.756 330.554,255.836 
	334.011,250.163 324.353,252.114 324.62,244.286 324.209,236.327 334.057,238.468 337.18,232.733 328.856,232.209 331.133,222.226 
	327.881,221.175 332.014,221.023 328.177,209.479 343.143,209.629 336.544,201.413 325.075,205.174 324.264,198.068 
	325.721,191.621 334.515,192.708 342.722,186.52 332.362,182.485 323.152,183.988 326.32,174.958 330.808,173.599 330.481,165.565 
	337.976,163.406 336.628,155.109 329.94,154.091 317.451,151.856 323.196,142.878 328.871,140.846 332.639,140.293 337.23,131.399 
	330.796,130.126 318.039,128.747 324.993,121.566 329.345,118.211 340.027,117.19 336.974,108.546 330.051,107.762 327.307,105.63 
	330.664,104.128 329.245,95.002 334.544,94.077 327.955,94.456 328.346,86.358 322.5,82.525 330.582,80.937 332.767,75.415 
	336.351,70.97 327.749,71.553 326.654,64.941 323.704,59.415 325.504,52.75 330.432,49.971 330.199,47.855 333.842,42.351 
	324.465,44.021 325.441,36.304 329.421,33.559 335.543,31.973 329.244,24.746 328.129,24.955 325.603,19.774 325.633,12.037 "/>
<polyline class="st0" points="846.621,754.153 850.99,750.828 855.153,747.284 850.393,741.126 855.432,734.713 853.787,728.649 
	844.799,729.576 846.064,722.793 849.083,718.104 852.834,718.019 855.572,711.462 845.271,714.056 847.955,706.465 
	852.082,705.701 853.547,699.459 851.734,694.908 855.674,688.251 851.956,684.262 851.978,683.352 847.801,678.311 
	855.686,678.487 858.052,671.804 852.744,668.07 847.552,665.558 841.473,660.252 853.756,661.156 856.246,655.94 863.279,648.7 
	850.773,646.934 849.401,640.599 837.909,637.146 852.104,636.395 850.032,626.616 852.646,625.582 848.881,625.717 
	849.157,617.733 840.324,614.034 852.494,613.677 854.846,608.322 861.883,602.48 854.854,596.637 848.578,595.204 849.256,590.919 
	854.157,592.23 857.816,588.183 851.994,579.363 857.658,570.722 847.766,572.907 848.849,567.81 847.423,562.388 849.195,556.453 
	849.434,556.252 852.428,552.843 845.4,552.163 846.067,544.702 851.08,542.937 856.273,540.424 860.067,533.153 854.406,527.758 
	847.129,527.325 843.772,521.596 848.489,517.235 851.685,512.725 855.194,510.039 849.563,509.489 851.574,499.771 848.85,498.482 
	844.822,490.46 856.573,494.504 849.395,486.926 854.616,481.328 844.557,483.681 850.305,475.373 853.564,476.093 851.731,466.553 
	850.514,463.817 854.996,457.839 854.157,450.971 845.835,452.267 853.371,452.79 857.012,448.725 851.461,440.709 855.269,434.457 
	849.898,432.119 848.014,429.156 851.027,427.338 847.967,416.571 851.867,417.601 849.051,417.565 847.332,411.577 
	841.779,406.052 848.244,401.445 855.59,401.085 852.949,394.493 851.047,392.462 848.804,386.998 839.708,382.945 846.837,376.93 
	851.736,374.123 859.554,371.388 855.741,364.658 846.504,366.188 845.366,359.831 844.754,351.737 854.307,353.583 
	851.418,348.273 849.965,347.326 847.81,341.773 847.152,336.721 847.135,331.009 854.373,330.541 863.606,325.174 851.677,322.505 
	852.379,314.096 851.152,313.609 853.833,314.598 855.521,308.58 854.56,302.057 849.512,301.561 851.283,292.081 841.464,290.507 
	847.688,285.345 850.099,280.048 860.086,278.953 857.239,270.724 852.928,267.328 849.802,267.392 848.717,263.264 
	855.916,262.756 851.234,255.836 854.69,250.163 845.033,252.114 845.299,244.286 844.889,236.327 854.736,238.468 857.859,232.733 
	849.535,232.209 851.812,222.226 848.561,221.175 852.693,221.023 848.856,209.479 863.822,209.629 857.225,201.413 
	845.755,205.174 844.943,198.068 846.4,191.621 855.195,192.708 863.402,186.52 853.042,182.485 843.832,183.988 847,174.958 
	851.488,173.599 851.16,165.565 858.656,163.406 857.309,155.109 850.62,154.091 838.131,151.856 843.875,142.878 849.551,140.846 
	853.318,140.293 857.91,131.399 851.476,130.126 838.719,128.747 845.673,121.566 850.025,118.211 860.707,117.19 857.654,108.546 
	850.73,107.762 847.986,105.63 851.344,104.128 849.925,95.002 855.225,94.077 848.635,94.456 849.025,86.358 843.18,82.525 
	851.262,80.937 853.446,75.415 857.031,70.97 848.429,71.553 847.334,64.941 844.383,59.415 846.184,52.75 851.111,49.971 
	850.879,47.855 854.521,42.351 845.145,44.021 846.121,36.304 850.102,33.559 856.223,31.973 849.924,24.746 848.809,24.955 
	846.282,19.774 846.312,12.037 "/>
<g>
	<polyline class="st0" points="445.303,754.83 446.935,753.955 444.161,747.286 450.545,752.553 452.043,751.409 451.475,747.93 
		452.046,747.189 453.124,744.982 455.38,740.777 449.844,742.597 454.297,741.244 447.983,738.088 448.933,736.241 
		455.236,738.597 447.38,733.488 458.604,731.189 445.585,732.547 451.066,729.783 450.248,729.699 448.274,728.139 
		447.258,735.906 445.344,734.996 442.111,730.145 450.193,728.587 440.867,724.507 449.132,724.622 441.825,719.036 
		450.631,722.493 446.448,716.666 449.256,723.865 449.822,716.222 447.11,714.473 452.015,714.598 446.594,710.405 
		455.518,709.288 453.28,718.325 450.2,714.794 448.26,715.785 443.831,706.907 438.318,719.253 445.692,712.723 442.497,709.459 
		443.653,707.73 449.039,709.962 447.97,704.919 451.589,707.092 449.3,703.286 453.044,701.968 449.663,699.656 456.961,694.731 
		448.317,694.878 455.662,696.076 447.037,688.725 447.708,686.873 446.985,688.826 447.925,691.281 452.214,684.798 
		446.058,686.472 447.593,684.701 448.091,682.222 450.074,677.744 449.689,679.62 447.778,685.478 449.909,678.282 
		451.929,676.232 456.52,682.699 451.953,675.939 451.027,673.731 456.415,673.756 452.445,673.324 450.273,676.5 450.195,672.85 
		449.983,669.629 447.605,670.492 450.196,660.72 444.982,666.663 443.615,664.907 439.663,666.369 444.774,657.441 
		441.385,661.024 441.431,663.835 443.799,659.613 445.4,665.792 447.666,662.984 449.579,665 455.218,667.141 458.491,662.16 
		447.736,654.889 460.459,660.184 459.953,658.51 456.294,652.147 460.336,653.26 462.947,652.978 465.095,647.295 458.802,652.396 
		457.101,649.395 455.784,643.67 452.956,648.651 450.613,650.158 453.667,641.931 444.447,645.698 454.855,641.232 
		452.057,636.639 446.598,636.889 444.178,637.996 443.137,634.526 440.406,636.66 437.183,640.423 436.15,637.157 437.852,632.376 
		440.49,643.879 442.238,638.463 443.9,631.464 446.036,633.372 448.148,634.8 445.36,632.541 443.769,635.729 445.195,633.386 
		448.915,630.557 449.972,628.286 453.082,630.206 456.471,629.859 448.975,626.915 447.288,625.49 444.129,623.619 
		452.735,621.921 441.838,619.543 444.192,619.673 443.873,621.02 441.977,620.601 442.11,615.322 442.437,609.577 439.896,614.482 
		440.635,618.047 442.354,607.542 444.481,610.847 446.624,614.695 448.627,613.679 447.456,608.782 449.815,611.178 
		446.647,607.656 457.055,611.321 452.307,604.611 455.87,606.047 456.874,604.392 462.035,607.74 455.656,602.472 454.948,605.759 
		457.139,600.271 458.732,595.493 451.646,601.154 453.161,596.336 450.951,596.067 448.674,596.395 450.083,592.97 
		450.919,593.668 447.02,590.454 448.837,592.167 449.436,596.477 452.559,592.968 457.993,594.906 454.49,589.286 455.179,588.168 
		451.726,588.462 451.123,586.334 450.484,584.223 445.608,584.905 456.264,579.303 449.689,576.586 456.207,578.392 
		455.457,575.43 451.146,570.129 449.723,574.689 452.744,566.162 451.967,572.028 450.008,572.553 448.278,574.12 446.039,572.771 
		440.198,569.915 444.983,569.155 451.061,567.679 442.078,567.178 448.152,563.647 451.996,562.582 450.898,561.821 
		443.493,557.454 447.838,556.635 451.237,559.562 451.797,556.917 454.099,552.365 448.878,552.3 446.477,558.779 444.615,559.678 
		445.095,550.965 438.892,549.87 437.735,547.887 440.513,546.253 448.163,547.641 445.543,543.091 448.826,547.077 
		452.086,549.708 448.901,537.812 450.17,536.017 450.524,536.469 454.424,538.108 454.546,535.861 454.86,533.709 463.501,532.385 
		456.458,532.189 455.985,529.853 452.839,530.316 451.168,530.87 450.365,534.266 448.729,531.055 447.095,527.808 
		442.125,531.947 447.609,523.406 441.339,524.515 439.774,521.306 447.572,524.537 449.937,523.941 450.151,520.354 
		448.277,516.128 452.433,516.812 449.547,512.424 455.646,516.662 451.362,510.196 450.915,515.704 450.021,505.449 
		452.498,506.178 454.667,508.9 444.675,504.808 445.12,502.874 442.575,500.317 455.487,497.642 446.112,503.916 450.842,495.061 
		439.749,499.621 447.342,493.301 441.054,493.943 438.012,486.924 446.029,487.98 448.864,486.104 447.163,497.409 
		449.383,497.324 453.264,492.418 454.178,494.151 454.525,491.833 446.939,496.151 451.94,488.539 448.646,488.778 
		453.007,486.671 447.284,484.058 451.833,485.684 449.28,480.682 457.866,477.492 452.048,487.253 448.106,479.464 447.47,485.811 
		443.862,479.468 442.862,483.579 445.417,483.09 443.969,479.638 452.058,482.776 450.353,479.136 450.087,478.816 
		451.358,470.041 446.192,471.567 445.75,475.266 457.348,471.063 450.74,470.354 450.721,468.376 449.812,466.582 454.914,463.67 
		452.881,464.638 456.059,464.688 455.754,462.121 452.3,457.646 452.02,455.657 447.337,453.905 449.714,454.099 449.195,444.554 
		447.682,448.508 446.465,454.392 445.623,452.992 445.792,453.661 447.987,449.316 449.264,458.234 452.158,454.362 
		448.384,447.526 457.261,453.033 450.893,448.572 453.068,447.816 454.342,444.568 454.551,442.051 454.948,439.399 
		442.519,441.074 453.073,440.67 449.277,436.216 448.919,433.852 452.4,434.826 452.566,431.568 451.981,428.018 449.435,430.463 
		450.366,428.573 449.232,429.876 447.999,428.764 442.769,424.963 445.167,426.547 450.974,422.958 445.965,422.445 
		449.542,419.488 449.969,417.424 442.813,412.846 448.023,417.316 449.113,415.937 450.445,412.176 445.419,415.923 
		440.345,415.218 442.675,413.215 443.549,410.768 441.534,410.017 439.757,409.021 437.627,405.849 444.4,408.892 446.577,408.528 
		447.945,407.022 448.363,406.863 448.163,399.728 449.844,396.503 452.124,405.375 459.062,404.699 450.551,400.462 
		448.625,399.321 456.921,394.083 455.559,391.399 452.963,389.882 453.106,388.738 443.399,390.594 446.013,387.932 
		445.856,384.61 446.029,379.342 440.404,387.069 438.866,385.622 442.573,382.017 435.072,376.734 444.562,385.095 
		445.012,382.735 440.619,374.631 444.244,375.844 446.15,375.15 451.921,381.434 452.733,380.39 452.887,376.389 456.19,379.564 
		457.021,375.666 456.576,370.901 463.048,366.153 461.46,364.831 453.527,367.099 450.878,370.808 452.08,365.074 450.682,368.062 
		449.426,371.942 446.128,363.508 441.358,370.268 448.51,363.316 446.186,361.544 442.107,360.014 442.759,357.856 
		436.368,356.307 435.789,354.313 445.383,354.347 445.009,351.176 447.07,350.739 448.299,354.633 450.285,354.63 451.475,352.904 
		451.298,351.931 452.007,349.25 452.195,345.951 445.966,349.007 441.524,347.762 441.094,345.799 443.881,342.329 
		441.646,340.625 443.299,338.697 449.336,336.469 440.701,334.833 450.775,332.896 441.051,327.226 447.465,336.439 
		449.384,338.009 451.109,336.549 451.682,327.902 452.456,326.149 457.645,330.836 457.307,326.005 463.17,331.837 464.742,324.91 
		458.682,329.675 458.444,321.411 454.291,330.646 453.863,323.229 452.852,318.402 454.497,319.185 454.55,320.783 
		443.704,317.762 443.013,315.585 457.264,311.372 449.45,313.23 452.222,315.307 451.867,312.399 450.79,309.932 459.561,308.92 
		458.85,305.6 455.251,303.908 447.397,306.615 451.29,299.406 449.254,302.819 447.743,301.518 455.222,301.011 451.027,298.269 
		442.087,294.635 443.388,292.913 450.923,291.011 448.195,287.351 446.241,286.986 444.658,284.305 441.41,291.988 443.05,289.624 
		444.996,293.818 442.992,288.236 445.761,288.403 448.163,287.128 444.217,282.471 445.587,280.962 448.071,279.774 
		450.932,285.948 452.272,279.752 454.785,284.24 456.221,278.882 460.483,280.217 461.984,275.361 457.925,274.464 
		451.239,274.471 459.981,267.643 457.104,265.616 454.621,265.81 449.619,271.352 449.448,263.294 447.747,267.621 
		441.169,266.973 444.036,261.635 449.201,270.541 450.84,268.138 451.874,257.127 459.199,264.509 451.37,262.076 455.647,256.661 
		449.362,258.388 443.869,255.869 453.273,255.606 450.2,251.139 456.885,248.081 451.25,252.147 449.999,255.902 446.925,250.632 
		445.852,255.284 446.698,247.938 437.669,249.968 436.188,247.96 446.496,246.35 444.59,244.276 443.068,242.313 440.791,240.438 
		446.095,238.167 446.948,240.969 446.393,230.453 446.271,240.498 449.573,234.786 449.921,242.683 450.188,232.947 
		452.706,235.884 460.324,237.554 450.936,235.316 453.982,232.051 451.813,233.341 449.833,231.584 451.103,229.605 
		444.195,229.311 442.255,226.77 445.458,225.401 455.291,225.54 449.681,222.364 448.249,222.024 442.367,217.982 449.033,227.612 
		446.463,217.878 443.654,221.285 452.563,216.188 444.394,216.769 454.515,211.268 452.688,209.736 442.587,206.006 
		449.092,215.807 451.233,215.251 453.393,213.113 455.531,213.1 457.747,205.422 459.827,211.638 461.787,209.526 465.844,203.833 
		463.654,202.894 459.394,203.613 455.564,203.98 455.075,202.414 454.134,204.024 449.953,197.728 451.016,207.414 
		446.238,199.302 445.699,204.125 441.416,209.812 436.848,204.187 437.791,202.28 444.544,199.707 446.561,198.316 
		447.186,196.733 444.128,193.782 442.884,189.219 445.966,198.338 449.269,189.667 451.544,189.339 455.165,199.887 
		459.235,197.085 456.754,190.39 457.249,187.631 456.767,183.572 461.201,186.535 459.292,187.269 460.642,178.696 454.618,189.07 
		456.491,179.153 451.739,186.24 450.528,188.986 449.722,184.957 446.389,176.085 445.977,185.152 444.192,185.824 
		440.107,185.513 443.886,182.624 446.664,181.575 439.456,177.018 440.21,175.251 445.28,175.09 449.373,180.757 454.594,177.575 
		449.576,171.592 446.228,169.718 456.399,167.291 452.199,167.579 450.994,164.324 452.944,164.054 455.815,166.965 
		461.842,166.365 454.91,161.59 462.286,158.265 458.648,156.725 457.164,153.316 453.982,149.948 450.852,155.514 448.5,155.827 
		445.409,160.979 444.137,156.091 441.285,160.041 440.447,152.709 439.412,146.475 432.421,153.532 435.804,149.012 
		444.512,152.059 442.98,148.549 445.161,147.409 442.05,142.888 445.748,147.272 446.849,144.384 448.973,145.816 449.175,137.667 
		453.802,143.455 458.771,141.804 452.47,136.303 447.798,131.639 450.445,130.748 456.178,131.343 453.425,133.549 
		451.012,134.472 448.898,134.982 447.946,125.956 446.013,123.95 443.378,128.43 440.862,131.8 439.769,121.994 437.253,128.583 
		438.393,127.427 439.553,125.773 444.248,127.539 444.229,124.732 444.943,122.794 447.43,123.227 447.139,119.849 
		447.607,116.628 450.447,119.272 452.51,118.312 453.979,111.145 456.224,112.048 457.968,116.474 459.702,114.955 
		455.178,114.613 457.497,111.85 450.633,112.326 452.589,113.276 454.197,102.264 451.449,105.881 450.991,101.958 
		447.315,106.966 443.723,105.22 449.819,109.321 447.073,102.808 447.958,102.502 448.997,100.476 448.384,98.702 452.882,96.13 
		448.694,95.42 448.984,89.702 452.306,98.298 451.032,99.59 451.42,98.092 448.863,91.961 449.041,91.976 441.812,92.188 
		451.918,90.648 453.745,88.706 450.514,84.499 441.321,91.065 440.302,88.368 434.354,82.235 444.677,88.804 444.772,78.618 
		446.594,77.202 452.35,84.53 446.872,77.799 444.322,74.66 450.08,74.528 454.85,75.583 458.088,75.748 450.029,74.654 
		453.142,72.488 450.825,70.152 448.405,66.352 445.69,72.661 451.712,68.444 439.082,68.269 447.479,64.282 446.027,62.295 
		446.569,59.637 448.729,58.831 436.609,55.43 438.599,53.582 448.689,55.84 444.012,48.317 447.231,50.182 446.327,48.603 
		453.689,49.008 455.078,49.213 447.603,41.624 454.712,41.463 450.67,41.87 448.263,39.197 447.06,43.306 446.181,49.254 
		439.952,47.468 447.82,42.632 436.622,39.258 449.574,38.934 446.224,37.614 447.169,36.225 446.708,30.254 450.889,35.28 
		452.667,33.735 453.485,31.615 449.877,33.364 455.028,26.338 452.85,25.692 450.968,24.785 446.722,27.369 443.021,30.055 
		445.513,23.532 449.183,19.604 449.05,18.725 439.978,17.824 441.596,15.897 444.404,13.972 440.819,12.022 	"/>
</g>
<g>
	<polyline class="st0" points="968.258,757.82 970.303,757.488 969.685,753.653 971.687,753.127 968.303,746.218 972.485,748.318 
		980.838,747.79 972.516,745.978 967.375,747.493 974.434,739.573 975.319,741.251 965.916,735.931 967.476,734.563 
		971.169,734.867 969.14,733.701 967.356,734.423 979.516,728.954 974.445,726.337 970.265,723.284 968.879,727.425 
		967.496,731.631 965.271,727.695 959.486,732.344 965.046,727.5 958.791,723.992 961.127,721.381 971.535,724.851 968.721,720.825 
		964.879,712.635 969.845,719.842 969.34,714.45 974.823,717.411 969.909,713.435 970.521,711.763 972.034,714.377 973.172,715.206 
		971.936,718.994 967.348,709.462 966.017,712.887 968.625,709.48 962.805,711.463 966.663,710.692 962.445,707.062 964.752,704.01 
		969.796,711.115 971.287,706.074 972.144,703.794 972.35,701.646 965.587,700.111 966.906,699.008 967.328,694.846 
		973.512,694.401 970.547,690.4 968.708,687.062 977.786,687.978 973.401,686.812 966.884,690.397 975.076,681.938 964.619,686.633 
		968.515,682.435 973.162,675.747 960.63,676.197 968.618,678.242 970.657,675.217 972.641,674.791 972.419,675.151 
		977.778,677.761 981.487,677.196 979.243,674.518 977.771,671.452 979.05,664.988 973.875,668.584 975.01,662.322 968.52,670.005 
		966.206,670.371 965.18,667.389 963.154,666.215 968.064,657.519 961.474,662.001 962.042,661.016 962.298,661.281 963.963,666.6 
		966.734,656.915 968.142,665.747 970.012,668.346 975.125,665.737 967.499,656.587 967.993,654.688 975.731,656.389 
		972.485,650.598 974.088,649.347 981.127,653.368 977.504,647.029 977.574,650.453 980.771,643.256 978.208,646.365 
		975.077,653.482 974.055,645.673 972.017,645.03 966.1,650.656 965.99,645.511 962.974,643.952 965.099,643.376 968.241,633.683 
		965.275,636.609 963.109,636.881 961.012,636.908 959.225,635.894 963.709,638.197 958.436,630.551 961.107,642.696 
		962.501,630.61 964.832,636.224 966.641,631.959 968.857,635.365 976.604,640.83 974.219,633.661 964.979,633.574 975.807,629.238 
		973.153,627.757 969.916,627.379 974.06,627.522 969.572,624.609 967.878,625.574 961.769,623.513 974.905,621.973 
		968.329,619.744 973.85,614.109 965.819,617.994 962.353,621.327 964.243,611.853 958.885,619.68 960.342,614.407 961.361,619.671 
		963.354,618.389 965.369,617.9 967.325,615.421 969.158,608.598 968.757,609.731 965.707,609.075 978.646,612.628 973.687,608.319 
		973.243,604.921 978.616,608.536 982.127,609.9 975.633,599.211 979.918,602.479 979.799,600.741 980.731,596.766 978.29,596.843 
		975.355,597.509 973.33,597.421 970.751,599.918 968.044,602.128 968.108,594.746 970.086,593.429 969.253,592.25 968.295,596.736 
		972.406,587.916 973.893,595.014 979.549,595.697 972.986,587.312 978.965,588.225 976.819,585.549 970.044,587.494 
		976.353,580.797 974.027,579.795 975.529,579.317 976.967,580.91 969.385,573.477 976.52,575.682 969.858,568.841 970.428,574.672 
		974.973,573.174 972.063,569.396 970.643,572.35 968.926,573.98 967.863,571.298 972.865,572.463 968.177,569.688 960.601,568.039 
		967.277,565.989 967.619,563.967 971.942,562.559 971.769,561.877 966.398,558.119 965.413,555.454 967.269,555.332 
		969.506,554.31 972.927,552.618 969.004,558.037 967.465,555.596 966.43,547.953 963.589,552.679 970.209,550.821 970.141,548.937 
		961.062,546.24 969.945,548.463 965.211,540.221 970.453,549.768 967.168,536.356 974.841,548.683 975.328,545.274 
		978.393,543.732 980.073,540.703 971.187,533.753 975.898,533.896 976.924,533.443 976.891,532.449 976.724,529.79 
		973.326,530.518 974.058,525.973 971.039,534.358 970.031,520.602 967.513,532.202 961.818,533.387 970.644,522.029 
		969.695,520.019 955.512,520.643 965.797,521.882 961.602,514.188 964.775,514.951 973.182,519.121 967.166,512.6 966.265,508.497 
		975.438,515.501 967.04,510.591 972.701,504.372 970.795,504.488 973.616,505.872 966.862,507.145 963.778,504.481 
		971.366,504.025 971.26,501.974 966.199,501.336 972.196,492.492 968.6,497.674 964.604,497.525 962.485,496.08 964.599,492.506 
		968.73,494.052 965.492,491.513 968.222,489.944 967.176,499.349 972.905,489.062 972.028,497.984 969.145,490.563 977.43,489.727 
		970.717,493.218 972.72,488.443 973.176,485.13 974.233,486.646 970.547,486.467 968.361,481.812 973.439,483.928 972.444,482.096 
		972.03,484.266 969.249,481.44 967.172,481.626 966.748,488.901 965.191,482.378 966.453,483.337 965.119,479.963 965.797,477.975 
		969.029,477.75 971.533,480.452 970.755,475.847 976.854,479.725 969.756,474.626 969.004,472.797 974.935,469.68 964.722,469.659 
		976.023,464.694 962.194,463.989 969.324,461.463 970.902,460.311 973.429,459.867 967.267,456.374 967.97,456.234 
		972.265,453.386 977.44,445.655 971.387,454.251 968.041,446.449 967.388,455.95 959.916,450.14 966.675,450.756 968.042,458.32 
		970.479,450.516 970.397,448.18 973.144,451.182 969.429,445.409 978.664,448.824 969.369,450.849 971.695,446.871 
		970.184,445.546 977.039,438.424 963.021,441.085 972.691,440.024 970.142,436.328 971.535,435.031 978.405,432.929 
		971.854,434.765 971.306,431.128 967.804,433.256 969.378,429.635 964.854,428.683 971.789,433.919 968.388,426.789 
		974.705,424.027 963.453,425.287 962.594,423.596 961.219,422.048 961.174,420.118 967.587,417.44 969.943,412.612 972.11,420.126 
		967.454,418.304 970.711,414.6 970.543,412.485 972.34,408.002 964.711,410.282 961.846,410.386 965.531,403.9 957.995,405.82 
		959.771,401.441 964.338,404.434 963.111,399.286 964.629,394.614 968.711,397.04 970.669,399.454 972.419,397.559 
		979.647,404.635 972.544,399.936 972.288,398.126 968.192,397.852 976.304,391.354 971.465,391.38 972.33,389.336 967.527,389.178 
		971.304,383.437 966.702,384.238 965.648,381.722 964.98,378.329 962.965,377.948 952.199,384.199 964.743,387.389 
		965.119,384.948 961.993,378.351 965.792,379.955 968.01,380.254 969.259,379.388 966.945,371.563 970.049,372.942 
		973.918,377.394 974.112,371.681 975.467,369.279 984.734,374.083 973.856,371.746 982.576,364.583 980.751,363.393 
		976.035,361.721 972.494,363.467 970.156,360.789 968.771,363.887 967.661,368.663 965.397,366.129 960.375,364.893 
		971.44,360.727 965.841,359.622 958.814,358.208 960.674,356.033 962.054,353.891 959.314,347.198 966.688,345.997 
		968.238,348.211 969.348,352.729 970.975,354.577 978.161,356.995 978.421,348.426 970.115,350.649 970.511,348.053 
		966.449,349.158 973.271,343.468 962.323,345.586 963.096,342.717 962.109,340.654 961.547,339.015 966.208,336.708 
		971.628,334.802 967.462,332.91 969.023,333.717 967.373,324.53 969.4,327.772 971.464,331.556 973.201,330.486 972.124,324.411 
		976.013,326.86 975.691,322.054 983.133,330.601 979.16,325.469 980.484,324.657 978.359,324.831 977.654,318.653 973.546,327.683 
		971.252,328.593 970.392,322.599 975.214,320.782 966.537,317.942 971.381,316.228 971.312,314.06 970.237,312.917 
		973.879,318.432 976.98,313.643 973.212,310.421 975.206,308.628 978.844,305.701 974.492,304.12 977.967,298.158 971.689,302.257 
		969.962,302.526 965.243,303.572 965.726,299.109 966.698,297.333 962.684,294.619 975.774,295.102 968.578,293.208 968.883,287.3 
		966.564,289.208 963.571,295.323 961.124,298.009 965.265,289.227 961.579,288.879 963.078,287.52 963.897,285.336 
		966.672,285.451 961.667,281.001 966.588,281.108 971.287,283.35 970.438,275.243 973.172,281.756 975.631,285.763 977.47,284.067 
		975.955,277.268 978.702,276.731 982.158,273.235 980.193,271.609 979.021,268.749 974.883,269.298 969.311,273.414 
		969.231,274.255 970.171,265.418 965.273,270.89 962.119,266.903 964.465,261.494 969.702,268.032 971.081,261.928 
		973.224,266.639 981.708,265.136 969.648,263.7 967.598,262.566 966.643,260.687 968.995,255.843 969.51,252.898 970.049,250.633 
		978.267,247.719 971.712,251.07 969.511,250.122 968.076,252.968 966.488,255.07 959.623,257.193 960.428,250.039 963.638,248.19 
		958.476,246.055 968.121,244.25 962.052,242.401 961.758,240.422 969.812,238.011 968.328,241.808 964.707,241.333 967.524,237.85 
		968.689,241.979 971.701,237.622 976.517,244.435 972.861,235.599 970.504,231.835 980.488,230.811 974.99,226.809 
		972.966,225.811 970.217,236.272 965.287,234.579 962.104,228.679 975.266,229.582 964.581,225.045 975.207,225.366 
		964.302,225.171 969.837,219.21 964.75,219.23 969.248,214.998 968.827,219.083 965.177,221.004 975.208,215.537 973.808,213.865 
		967.567,213.803 967.715,211.615 969.026,210.515 969.903,202.705 971.95,211.592 974.113,209.056 976.191,215.016 
		978.406,207.427 980.504,211.884 979.991,208.269 986.315,204 975.665,209.855 980.96,202.901 974.933,205.034 977.228,197.748 
		974.108,201.875 971.666,200.879 970.741,204.503 966.199,197.113 965.367,201.042 966.409,201.828 958.608,204.065 
		957.09,202.438 958.312,200.496 970.238,198.532 964.381,195.945 965.213,193.874 965.194,191.547 966.677,198.082 
		969.167,195.989 971.053,198.814 975.172,197.211 975.148,190.766 976.794,189.542 975.766,184.763 978.15,184.507 
		989.063,186.237 981.667,182.915 977.899,187.486 976.432,186.161 975.809,182.652 972.451,186.159 972.47,176.927 
		969.775,181.117 969.153,188.869 965.655,179.018 965.213,187.92 961.73,184.752 964.895,182.739 967.042,181.469 969.407,180.27 
		958.494,174.41 967.757,177.169 967.325,171.755 967.084,170.982 969.154,171.637 972.47,169.492 975.406,167.358 971.766,166.799 
		972.938,168.722 974.617,167.501 975.792,164.527 971.602,159.928 973.555,161.92 979.701,158.794 974.745,157.469 
		977.855,153.304 974.448,151.353 970.946,159.364 969.506,153.855 967.724,151.847 966.414,147.163 963.003,154.23 
		960.097,158.468 958.486,155.443 956.241,152.175 956.7,149.151 957.385,147.064 958.458,145.221 965.695,147.316 966.424,147.426 
		966.442,147.316 968.445,146.945 967.997,139.266 969.588,135.851 974.65,143.685 978.787,141.461 971.561,135.483 
		971.267,133.079 980.761,135.723 981.491,128.774 975.497,126.51 973.441,125.63 969.615,134.741 968.056,131.226 966.26,127.949 
		964.659,122.865 961.529,131.929 959.474,131.006 961.941,126.803 954.246,122.752 964.62,130.023 964.924,127.534 
		959.833,119.815 963.634,120.581 965.374,119.678 971.906,125.149 971.252,124.663 971.303,121.118 973.827,124.983 
		975.638,121.389 977.296,116.157 985.212,121.668 985.059,113.304 976.887,114.249 971.259,114.293 977.006,110.315 
		974.903,110.884 973.468,114.699 972.156,105.634 967.793,112.706 970.833,103.312 969.109,106.015 967.924,103.567 
		969.643,103.832 963.109,103.361 962.403,101.605 972.886,98.108 968.12,96.976 967.319,93.996 970.85,96.49 972.551,95.808 
		973.596,95.187 971.89,94.445 969.583,92.671 969.821,91.862 964.84,92.301 961.366,90.106 961.772,88.096 965.979,87.417 
		963.65,88.55 962.736,85.691 966.047,82.691 963.154,77.603 967.117,87.097 966.988,75.751 973.614,85.25 977.574,81.767 
		977.054,79.43 969.892,74.025 970.498,71.525 976.878,74.223 974.635,71.855 973.291,64.668 971.378,68.287 969.771,76.463 
		969.139,69.271 960.031,70.492 966.713,67.118 970.602,63.468 970.239,60.409 968.224,59.116 956.745,60.029 956.701,55.271 
		971.428,56.864 964.703,52.518 967.035,52.472 967.959,50.269 967.758,48.951 975.435,49.272 975.56,49.081 974.01,45.416 
		966.946,45.168 971.055,40.226 969.815,44.099 967.733,43.274 964.587,36.484 965.865,42.096 957.52,41.243 958.719,39.437 
		966.529,38.463 968.671,38.81 969.525,38.654 971.9,39.817 970.689,31.887 973.913,35.921 980.621,34.175 974.109,30.268 
		974.281,27.58 973.492,25.725 968.01,27.955 967.817,26.572 967.448,25.22 972.347,20.532 966.099,21.439 969.885,18.691 
		964.845,17.841 967.708,15.918 969.851,13.99 966.316,12.042 	"/>
</g>
</svg>
