<?xml version="1.0" encoding="utf-8"?>
<!-- Generator: Adobe Illustrator 15.0.0, SVG Export Plug-In . SVG Version: 6.00 Build 0)  -->
<!DOCTYPE svg PUBLIC "-//W3C//DTD SVG 1.1//EN" "http://www.w3.org/Graphics/SVG/1.1/DTD/svg11.dtd">
<svg version="1.1" id="Layer_1" xmlns="http://www.w3.org/2000/svg" xmlns:xlink="http://www.w3.org/1999/xlink" x="0px" y="0px"
	 width="1024px" height="768px" viewBox="0 0 1024 768" style="enable-background:new 0 0 1024 768;" xml:space="preserve">
<style type="text/css">
<![CDATA[
	.st0{fill:none;stroke:#FF5F9F;stroke-miterlimit:10;}
]]>
</style>
<polyline class="st0" points="335.95,754.153 340.319,750.828 344.481,747.284 339.721,741.126 344.759,734.713 343.116,728.649 
	334.127,729.576 335.393,722.793 338.411,718.104 342.162,718.019 344.901,711.462 334.6,714.056 337.283,706.465 341.411,705.701 
	342.875,699.459 341.062,694.908 345.002,688.251 341.284,684.262 341.306,683.352 337.129,678.311 345.014,678.487 347.38,671.804 
	342.073,668.07 336.88,665.558 330.801,660.252 343.084,661.156 345.575,655.94 352.607,648.7 340.102,646.934 338.729,640.599 
	327.237,637.146 341.432,636.395 339.36,626.616 341.975,625.582 338.208,625.717 338.485,617.733 329.652,614.034 341.822,613.677 
	344.174,608.322 351.211,602.48 344.181,596.637 337.906,595.204 338.584,590.919 343.485,592.23 347.145,588.183 341.322,579.363 
	346.987,570.722 337.094,572.907 338.177,567.81 336.751,562.388 338.523,556.453 338.762,556.252 341.755,552.843 334.729,552.163 
	335.396,544.702 340.409,542.937 345.601,540.424 349.396,533.153 343.734,527.758 336.458,527.325 333.101,521.596 
	337.817,517.235 341.013,512.725 344.522,510.039 338.892,509.489 340.902,499.771 338.177,498.482 334.15,490.46 345.901,494.504 
	338.723,486.926 343.944,481.328 333.885,483.681 339.633,475.373 342.892,476.093 341.06,466.553 339.841,463.817 344.324,457.839 
	343.485,450.971 335.163,452.267 342.699,452.79 346.34,448.725 340.789,440.709 344.597,434.457 339.227,432.119 337.341,429.156 
	340.355,427.338 337.295,416.571 341.195,417.601 338.379,417.565 336.66,411.577 331.108,406.052 337.572,401.445 344.917,401.085 
	342.277,394.493 340.375,392.462 338.132,386.998 329.036,382.945 336.165,376.93 341.065,374.123 348.882,371.388 345.069,364.658 
	335.832,366.188 334.694,359.831 334.082,351.737 343.634,353.583 340.746,348.273 339.292,347.326 337.138,341.773 
	336.481,336.721 336.463,331.009 343.702,330.541 352.935,325.174 341.005,322.505 341.707,314.096 340.481,313.609 
	343.161,314.598 344.849,308.58 343.888,302.057 338.839,301.561 340.612,292.081 330.792,290.507 337.017,285.345 339.427,280.048 
	349.415,278.953 346.567,270.724 342.256,267.328 339.13,267.392 338.045,263.264 345.244,262.756 340.562,255.836 344.019,250.163 
	334.361,252.114 334.627,244.286 334.217,236.327 344.064,238.468 347.188,232.733 338.864,232.209 341.141,222.226 
	337.889,221.175 342.021,221.023 338.185,209.479 353.151,209.629 346.552,201.413 335.083,205.174 334.271,198.068 
	335.729,191.621 344.523,192.708 352.73,186.52 342.37,182.485 333.16,183.988 336.328,174.958 340.816,173.599 340.489,165.565 
	347.984,163.406 346.636,155.109 339.948,154.091 327.459,151.856 333.204,142.878 338.878,140.846 342.646,140.293 
	347.238,131.399 340.804,130.126 328.046,128.747 335.001,121.566 339.353,118.211 350.035,117.19 346.982,108.546 340.059,107.762 
	337.315,105.63 340.672,104.128 339.253,95.002 344.552,94.077 337.963,94.456 338.354,86.358 332.508,82.525 340.589,80.937 
	342.774,75.415 346.359,70.97 337.757,71.553 336.662,64.941 333.711,59.415 335.512,52.75 340.439,49.971 340.207,47.855 
	343.85,42.351 334.473,44.021 335.449,36.304 339.429,33.559 345.551,31.973 339.251,24.746 338.137,24.955 335.61,19.774 
	335.641,12.037 "/>
<polyline class="st0" points="856.629,754.153 860.998,750.828 865.161,747.284 860.4,741.126 865.439,734.713 863.795,728.649 
	854.807,729.576 856.072,722.793 859.091,718.104 862.842,718.019 865.58,711.462 855.279,714.056 857.963,706.465 862.09,705.701 
	863.555,699.459 861.742,694.908 865.682,688.251 861.964,684.262 861.985,683.352 857.809,678.311 865.693,678.487 868.06,671.804 
	862.752,668.07 857.56,665.558 851.48,660.252 863.764,661.156 866.254,655.94 873.287,648.7 860.781,646.934 859.409,640.599 
	847.917,637.146 862.111,636.395 860.04,626.616 862.654,625.582 858.889,625.717 859.165,617.733 850.332,614.034 862.502,613.677 
	864.854,608.322 871.891,602.48 864.861,596.637 858.586,595.204 859.264,590.919 864.165,592.23 867.824,588.183 862.002,579.363 
	867.666,570.722 857.773,572.907 858.856,567.81 857.431,562.388 859.203,556.453 859.441,556.252 862.436,552.843 855.408,552.163 
	856.075,544.702 861.088,542.937 866.281,540.424 870.075,533.153 864.414,527.758 857.137,527.325 853.78,521.596 858.497,517.235 
	861.692,512.725 865.202,510.039 859.571,509.489 861.582,499.771 858.857,498.482 854.83,490.46 866.581,494.504 859.402,486.926 
	864.624,481.328 854.564,483.681 860.312,475.373 863.572,476.093 861.739,466.553 860.521,463.817 865.004,457.839 
	864.165,450.971 855.843,452.267 863.379,452.79 867.02,448.725 861.469,440.709 865.276,434.457 859.906,432.119 858.021,429.156 
	861.035,427.338 857.975,416.571 861.875,417.601 859.059,417.565 857.34,411.577 851.787,406.052 858.252,401.445 865.598,401.085 
	862.957,394.493 861.055,392.462 858.812,386.998 849.716,382.945 856.845,376.93 861.744,374.123 869.562,371.388 865.749,364.658 
	856.512,366.188 855.374,359.831 854.762,351.737 864.314,353.583 861.426,348.273 859.973,347.326 857.817,341.773 857.16,336.721 
	857.143,331.009 864.381,330.541 873.614,325.174 861.685,322.505 862.387,314.096 861.16,313.609 863.841,314.598 865.529,308.58 
	864.567,302.057 859.52,301.561 861.291,292.081 851.472,290.507 857.696,285.345 860.106,280.048 870.094,278.953 867.247,270.724 
	862.936,267.328 859.81,267.392 858.725,263.264 865.924,262.756 861.242,255.836 864.698,250.163 855.041,252.114 855.307,244.286 
	854.896,236.327 864.744,238.468 867.867,232.733 859.543,232.209 861.82,222.226 858.568,221.175 862.701,221.023 858.864,209.479 
	873.83,209.629 867.232,201.413 855.763,205.174 854.951,198.068 856.408,191.621 865.203,192.708 873.41,186.52 863.05,182.485 
	853.84,183.988 857.008,174.958 861.496,173.599 861.168,165.565 868.664,163.406 867.316,155.109 860.628,154.091 848.139,151.856 
	853.883,142.878 859.559,140.846 863.326,140.293 867.918,131.399 861.483,130.126 848.727,128.747 855.681,121.566 
	860.033,118.211 870.715,117.19 867.662,108.546 860.738,107.762 857.994,105.63 861.352,104.128 859.933,95.002 865.232,94.077 
	858.643,94.456 859.033,86.358 853.188,82.525 861.27,80.937 863.454,75.415 867.039,70.97 858.437,71.553 857.342,64.941 
	854.391,59.415 856.191,52.75 861.119,49.971 860.887,47.855 864.529,42.351 855.152,44.021 856.129,36.304 860.109,33.559 
	866.23,31.973 859.932,24.746 858.816,24.955 856.29,19.774 856.32,12.037 "/>
<g>
	<polyline class="st0" points="455.311,754.83 456.942,753.955 454.168,747.286 460.553,752.553 462.051,751.409 461.483,747.93 
		462.054,747.189 463.131,744.982 465.388,740.777 459.852,742.597 464.305,741.244 457.991,738.088 458.941,736.241 
		465.244,738.597 457.388,733.488 468.611,731.189 455.593,732.547 461.074,729.783 460.255,729.699 458.282,728.139 
		457.266,735.906 455.352,734.996 452.119,730.145 460.201,728.587 450.875,724.507 459.14,724.622 451.833,719.036 
		460.639,722.493 456.456,716.666 459.264,723.865 459.83,716.222 457.118,714.473 462.022,714.598 456.602,710.405 
		465.525,709.288 463.288,718.325 460.208,714.794 458.268,715.785 453.839,706.907 448.326,719.253 455.7,712.723 452.504,709.459 
		453.661,707.73 459.046,709.962 457.978,704.919 461.597,707.092 459.308,703.286 463.052,701.968 459.67,699.656 466.969,694.731 
		458.325,694.878 465.67,696.076 457.044,688.725 457.716,686.873 456.993,688.826 457.933,691.281 462.222,684.798 
		456.066,686.472 457.601,684.701 458.099,682.222 460.082,677.744 459.697,679.62 457.786,685.478 459.917,678.282 
		461.937,676.232 466.528,682.699 461.961,675.939 461.035,673.731 466.422,673.756 462.453,673.324 460.281,676.5 460.203,672.85 
		459.991,669.629 457.613,670.492 460.204,660.72 454.99,666.663 453.623,664.907 449.67,666.369 454.782,657.441 451.393,661.024 
		451.438,663.835 453.807,659.613 455.408,665.792 457.673,662.984 459.586,665 465.226,667.141 468.499,662.16 457.744,654.889 
		470.467,660.184 469.961,658.51 466.302,652.147 470.344,653.26 472.955,652.978 475.103,647.295 468.81,652.396 467.109,649.395 
		465.792,643.67 462.963,648.651 460.621,650.158 463.675,641.931 454.455,645.698 464.863,641.232 462.065,636.639 
		456.605,636.889 454.186,637.996 453.145,634.526 450.414,636.66 447.191,640.423 446.158,637.157 447.859,632.376 
		450.498,643.879 452.246,638.463 453.908,631.464 456.043,633.372 458.156,634.8 455.368,632.541 453.777,635.729 455.203,633.386 
		458.922,630.557 459.98,628.286 463.089,630.206 466.479,629.859 458.983,626.915 457.295,625.49 454.137,623.619 462.743,621.921 
		451.846,619.543 454.2,619.673 453.88,621.02 451.985,620.601 452.118,615.322 452.445,609.577 449.904,614.482 450.643,618.047 
		452.362,607.542 454.489,610.847 456.632,614.695 458.635,613.679 457.463,608.782 459.823,611.178 456.655,607.656 
		467.063,611.321 462.314,604.611 465.878,606.047 466.881,604.392 472.043,607.74 465.664,602.472 464.956,605.759 
		467.146,600.271 468.74,595.493 461.653,601.154 463.169,596.336 460.959,596.067 458.682,596.395 460.091,592.97 460.927,593.668 
		457.027,590.454 458.845,592.167 459.443,596.477 462.567,592.968 468.001,594.906 464.498,589.286 465.187,588.168 
		461.733,588.462 461.131,586.334 460.492,584.223 455.616,584.905 466.271,579.303 459.697,576.586 466.214,578.392 
		465.464,575.43 461.153,570.129 459.73,574.689 462.752,566.162 461.975,572.028 460.016,572.553 458.286,574.12 456.046,572.771 
		450.206,569.915 454.991,569.155 461.069,567.679 452.085,567.178 458.16,563.647 462.003,562.582 460.906,561.821 
		453.501,557.454 457.846,556.635 461.245,559.562 461.805,556.917 464.107,552.365 458.886,552.3 456.485,558.779 454.623,559.678 
		455.103,550.965 448.899,549.87 447.743,547.887 450.521,546.253 458.171,547.641 455.551,543.091 458.834,547.077 
		462.094,549.708 458.909,537.812 460.178,536.017 460.532,536.469 464.432,538.108 464.554,535.861 464.868,533.709 
		473.509,532.385 466.466,532.189 465.993,529.853 462.847,530.316 461.176,530.87 460.373,534.266 458.737,531.055 
		457.103,527.808 452.132,531.947 457.617,523.406 451.347,524.515 449.782,521.306 457.58,524.537 459.945,523.941 
		460.159,520.354 458.285,516.128 462.44,516.812 459.555,512.424 465.654,516.662 461.37,510.196 460.923,515.704 460.029,505.449 
		462.505,506.178 464.675,508.9 454.683,504.808 455.127,502.874 452.583,500.317 465.495,497.642 456.12,503.916 460.85,495.061 
		449.756,499.621 457.35,493.301 451.062,493.943 448.02,486.924 456.037,487.98 458.872,486.104 457.171,497.409 459.391,497.324 
		463.271,492.418 464.186,494.151 464.533,491.833 456.947,496.151 461.948,488.539 458.654,488.778 463.015,486.671 
		457.292,484.058 461.841,485.684 459.288,480.682 467.874,477.492 462.056,487.253 458.114,479.464 457.478,485.811 
		453.87,479.468 452.87,483.579 455.425,483.09 453.977,479.638 462.065,482.776 460.36,479.136 460.095,478.816 461.366,470.041 
		456.2,471.567 455.758,475.266 467.356,471.063 460.748,470.354 460.729,468.376 459.82,466.582 464.922,463.67 462.889,464.638 
		466.066,464.688 465.762,462.121 462.308,457.646 462.027,455.657 457.345,453.905 459.722,454.099 459.203,444.554 
		457.689,448.508 456.473,454.392 455.631,452.992 455.8,453.661 457.995,449.316 459.271,458.234 462.166,454.362 458.392,447.526 
		467.269,453.033 460.9,448.572 463.076,447.816 464.35,444.568 464.559,442.051 464.956,439.399 452.526,441.074 463.081,440.67 
		459.285,436.216 458.927,433.852 462.408,434.826 462.574,431.568 461.989,428.018 459.443,430.463 460.374,428.573 
		459.24,429.876 458.006,428.764 452.777,424.963 455.174,426.547 460.982,422.958 455.973,422.445 459.55,419.488 459.977,417.424 
		452.821,412.846 458.031,417.316 459.121,415.937 460.453,412.176 455.427,415.923 450.353,415.218 452.683,413.215 
		453.557,410.768 451.542,410.017 449.765,409.021 447.635,405.849 454.408,408.892 456.585,408.528 457.953,407.022 
		458.371,406.863 458.17,399.728 459.852,396.503 462.131,405.375 469.07,404.699 460.559,400.462 458.633,399.321 466.929,394.083 
		465.566,391.399 462.971,389.882 463.114,388.738 453.407,390.594 456.021,387.932 455.864,384.61 456.037,379.342 
		450.412,387.069 448.874,385.622 452.581,382.017 445.08,376.734 454.57,385.095 455.02,382.735 450.626,374.631 454.252,375.844 
		456.158,375.15 461.929,381.434 462.741,380.39 462.895,376.389 466.198,379.564 467.029,375.666 466.584,370.901 473.056,366.153 
		471.468,364.831 463.535,367.099 460.886,370.808 462.088,365.074 460.689,368.062 459.434,371.942 456.136,363.508 
		451.366,370.268 458.518,363.316 456.194,361.544 452.115,360.014 452.767,357.856 446.375,356.307 445.796,354.313 
		455.391,354.347 455.017,351.176 457.078,350.739 458.307,354.633 460.293,354.63 461.482,352.904 461.306,351.931 462.015,349.25 
		462.203,345.951 455.974,349.007 451.532,347.762 451.102,345.799 453.889,342.329 451.653,340.625 453.307,338.697 
		459.344,336.469 450.709,334.833 460.783,332.896 451.059,327.226 457.473,336.439 459.392,338.009 461.117,336.549 
		461.689,327.902 462.463,326.149 467.652,330.836 467.315,326.005 473.178,331.837 474.75,324.91 468.689,329.675 468.452,321.411 
		464.298,330.646 463.871,323.229 462.86,318.402 464.504,319.185 464.558,320.783 453.712,317.762 453.021,315.585 
		467.271,311.372 459.458,313.23 462.229,315.307 461.875,312.399 460.798,309.932 469.568,308.92 468.858,305.6 465.259,303.908 
		457.405,306.615 461.297,299.406 459.262,302.819 457.751,301.518 465.229,301.011 461.035,298.269 452.095,294.635 
		453.396,292.913 460.931,291.011 458.203,287.351 456.249,286.986 454.666,284.305 451.417,291.988 453.058,289.624 
		455.004,293.818 453,288.236 455.769,288.403 458.171,287.128 454.225,282.471 455.595,280.962 458.079,279.774 460.94,285.948 
		462.28,279.752 464.792,284.24 466.229,278.882 470.491,280.217 471.992,275.361 467.933,274.464 461.247,274.471 469.989,267.643 
		467.112,265.616 464.629,265.81 459.626,271.352 459.456,263.294 457.755,267.621 451.177,266.973 454.043,261.635 
		459.208,270.541 460.848,268.138 461.882,257.127 469.207,264.509 461.378,262.076 465.655,256.661 459.37,258.388 
		453.877,255.869 463.281,255.606 460.208,251.139 466.893,248.081 461.257,252.147 460.006,255.902 456.933,250.632 
		455.86,255.284 456.706,247.938 447.677,249.968 446.195,247.96 456.504,246.35 454.598,244.276 453.076,242.313 450.799,240.438 
		456.103,238.167 456.956,240.969 456.4,230.453 456.279,240.498 459.581,234.786 459.929,242.683 460.196,232.947 462.714,235.884 
		470.332,237.554 460.943,235.316 463.99,232.051 461.821,233.341 459.84,231.584 461.111,229.605 454.203,229.311 452.263,226.77 
		455.466,225.401 465.299,225.54 459.688,222.364 458.256,222.024 452.375,217.982 459.041,227.612 456.471,217.878 
		453.662,221.285 462.571,216.188 454.401,216.769 464.523,211.268 462.696,209.736 452.595,206.006 459.1,215.807 461.241,215.251 
		463.401,213.113 465.539,213.1 467.755,205.422 469.834,211.638 471.794,209.526 475.852,203.833 473.662,202.894 469.401,203.613 
		465.572,203.98 465.083,202.414 464.142,204.024 459.961,197.728 461.024,207.414 456.246,199.302 455.707,204.125 
		451.423,209.812 446.855,204.187 447.799,202.28 454.552,199.707 456.568,198.316 457.194,196.733 454.136,193.782 
		452.892,189.219 455.974,198.338 459.277,189.667 461.552,189.339 465.173,199.887 469.243,197.085 466.762,190.39 
		467.256,187.631 466.774,183.572 471.208,186.535 469.299,187.269 470.65,178.696 464.626,189.07 466.499,179.153 461.747,186.24 
		460.536,188.986 459.73,184.957 456.396,176.085 455.984,185.152 454.2,185.824 450.115,185.513 453.894,182.624 456.671,181.575 
		449.464,177.018 450.218,175.251 455.288,175.09 459.38,180.757 464.602,177.575 459.584,171.592 456.235,169.718 466.407,167.291 
		462.207,167.579 461.001,164.324 462.952,164.054 465.823,166.965 471.85,166.365 464.918,161.59 472.293,158.265 468.656,156.725 
		467.171,153.316 463.99,149.948 460.86,155.514 458.508,155.827 455.417,160.979 454.145,156.091 451.292,160.041 450.455,152.709 
		449.419,146.475 442.429,153.532 445.812,149.012 454.52,152.059 452.988,148.549 455.168,147.409 452.058,142.888 
		455.756,147.272 456.857,144.384 458.98,145.816 459.183,137.667 463.81,143.455 468.778,141.804 462.478,136.303 457.806,131.639 
		460.453,130.748 466.186,131.343 463.433,133.549 461.02,134.472 458.906,134.982 457.954,125.956 456.021,123.95 453.386,128.43 
		450.87,131.8 449.777,121.994 447.261,128.583 448.401,127.427 449.561,125.773 454.255,127.539 454.237,124.732 454.951,122.794 
		457.438,123.227 457.147,119.849 457.615,116.628 460.455,119.272 462.518,118.312 463.987,111.145 466.232,112.048 
		467.976,116.474 469.71,114.955 465.186,114.613 467.505,111.85 460.641,112.326 462.597,113.276 464.205,102.264 461.457,105.881 
		460.999,101.958 457.323,106.966 453.73,105.22 459.827,109.321 457.081,102.808 457.965,102.502 459.005,100.476 458.392,98.702 
		462.89,96.13 458.702,95.42 458.992,89.702 462.314,98.298 461.04,99.59 461.428,98.092 458.871,91.961 459.048,91.976 
		451.819,92.188 461.926,90.648 463.753,88.706 460.522,84.499 451.329,91.065 450.31,88.368 444.362,82.235 454.685,88.804 
		454.78,78.618 456.602,77.202 462.358,84.53 456.88,77.799 454.33,74.66 460.088,74.528 464.858,75.583 468.096,75.748 
		460.037,74.654 463.15,72.488 460.833,70.152 458.413,66.352 455.698,72.661 461.72,68.444 449.09,68.269 457.487,64.282 
		456.035,62.295 456.577,59.637 458.737,58.831 446.617,55.43 448.607,53.582 458.697,55.84 454.02,48.317 457.239,50.182 
		456.334,48.603 463.697,49.008 465.086,49.213 457.61,41.624 464.72,41.463 460.678,41.87 458.271,39.197 457.068,43.306 
		456.189,49.254 449.96,47.468 457.828,42.632 446.63,39.258 459.582,38.934 456.232,37.614 457.177,36.225 456.716,30.254 
		460.896,35.28 462.675,33.735 463.493,31.615 459.885,33.364 465.036,26.338 462.857,25.692 460.976,24.785 456.73,27.369 
		453.029,30.055 455.521,23.532 459.19,19.604 459.058,18.725 449.986,17.824 451.604,15.897 454.412,13.972 450.827,12.022 	"/>
</g>
<g>
	<polyline class="st0" points="978.266,757.82 980.311,757.488 979.692,753.653 981.694,753.127 978.311,746.218 982.493,748.318 
		990.846,747.79 982.523,745.978 977.383,747.493 984.441,739.573 985.327,741.251 975.924,735.931 977.483,734.563 
		981.177,734.867 979.147,733.701 977.364,734.423 989.523,728.954 984.453,726.337 980.272,723.284 978.887,727.425 
		977.504,731.631 975.278,727.695 969.494,732.344 975.054,727.5 968.799,723.992 971.135,721.381 981.543,724.851 978.729,720.825 
		974.887,712.635 979.853,719.842 979.348,714.45 984.831,717.411 979.917,713.435 980.529,711.763 982.042,714.377 983.18,715.206 
		981.943,718.994 977.355,709.462 976.024,712.887 978.633,709.48 972.812,711.463 976.671,710.692 972.453,707.062 974.76,704.01 
		979.804,711.115 981.295,706.074 982.151,703.794 982.357,701.646 975.595,700.111 976.914,699.008 977.336,694.846 
		983.52,694.401 980.555,690.4 978.716,687.062 987.794,687.978 983.409,686.812 976.892,690.397 985.084,681.938 974.627,686.633 
		978.522,682.435 983.17,675.747 970.638,676.197 978.626,678.242 980.665,675.217 982.648,674.791 982.427,675.151 
		987.786,677.761 991.495,677.196 989.251,674.518 987.779,671.452 989.058,664.988 983.883,668.584 985.018,662.322 
		978.527,670.005 976.214,670.371 975.188,667.389 973.162,666.215 978.072,657.519 971.481,662.001 972.05,661.016 
		972.306,661.281 973.971,666.6 976.742,656.915 978.149,665.747 980.02,668.346 985.133,665.737 977.507,656.587 978.001,654.688 
		985.739,656.389 982.493,650.598 984.096,649.347 991.135,653.368 987.512,647.029 987.582,650.453 990.779,643.256 
		988.216,646.365 985.085,653.482 984.062,645.673 982.024,645.03 976.107,650.656 975.998,645.511 972.981,643.952 
		975.106,643.376 978.249,633.683 975.283,636.609 973.117,636.881 971.02,636.908 969.232,635.894 973.717,638.197 
		968.443,630.551 971.115,642.696 972.509,630.61 974.84,636.224 976.648,631.959 978.865,635.365 986.611,640.83 984.227,633.661 
		974.987,633.574 985.814,629.238 983.161,627.757 979.924,627.379 984.067,627.522 979.58,624.609 977.886,625.574 
		971.776,623.513 984.913,621.973 978.337,619.744 983.857,614.109 975.827,617.994 972.36,621.327 974.251,611.853 968.893,619.68 
		970.35,614.407 971.369,619.671 973.361,618.389 975.377,617.9 977.333,615.421 979.166,608.598 978.765,609.731 975.715,609.075 
		988.653,612.628 983.694,608.319 983.251,604.921 988.624,608.536 992.135,609.9 985.641,599.211 989.926,602.479 989.807,600.741 
		990.739,596.766 988.298,596.843 985.363,597.509 983.338,597.421 980.759,599.918 978.052,602.128 978.116,594.746 
		980.094,593.429 979.261,592.25 978.303,596.736 982.414,587.916 983.9,595.014 989.557,595.697 982.994,587.312 988.973,588.225 
		986.827,585.549 980.052,587.494 986.36,580.797 984.035,579.795 985.537,579.317 986.975,580.91 979.393,573.477 986.527,575.682 
		979.866,568.841 980.436,574.672 984.98,573.174 982.071,569.396 980.65,572.35 978.934,573.98 977.871,571.298 982.873,572.463 
		978.185,569.688 970.608,568.039 977.285,565.989 977.627,563.967 981.95,562.559 981.776,561.877 976.406,558.119 
		975.421,555.454 977.276,555.332 979.514,554.31 982.935,552.618 979.012,558.037 977.473,555.596 976.438,547.953 
		973.597,552.679 980.217,550.821 980.148,548.937 971.069,546.24 979.953,548.463 975.219,540.221 980.461,549.768 
		977.176,536.356 984.849,548.683 985.336,545.274 988.4,543.732 990.081,540.703 981.194,533.753 985.906,533.896 986.932,533.443 
		986.898,532.449 986.731,529.79 983.334,530.518 984.065,525.973 981.047,534.358 980.039,520.602 977.521,532.202 
		971.826,533.387 980.651,522.029 979.703,520.019 965.52,520.643 975.805,521.882 971.609,514.188 974.783,514.951 
		983.189,519.121 977.174,512.6 976.272,508.497 985.445,515.501 977.048,510.591 982.709,504.372 980.803,504.488 983.624,505.872 
		976.87,507.145 973.786,504.481 981.374,504.025 981.268,501.974 976.207,501.336 982.204,492.492 978.607,497.674 
		974.612,497.525 972.493,496.08 974.606,492.506 978.738,494.052 975.5,491.513 978.229,489.944 977.184,499.349 982.913,489.062 
		982.036,497.984 979.152,490.563 987.438,489.727 980.725,493.218 982.728,488.443 983.184,485.13 984.241,486.646 
		980.555,486.467 978.369,481.812 983.447,483.928 982.452,482.096 982.038,484.266 979.257,481.44 977.18,481.626 976.756,488.901 
		975.199,482.378 976.461,483.337 975.127,479.963 975.805,477.975 979.037,477.75 981.541,480.452 980.763,475.847 
		986.861,479.725 979.764,474.626 979.012,472.797 984.942,469.68 974.729,469.659 986.031,464.694 972.202,463.989 
		979.332,461.463 980.91,460.311 983.437,459.867 977.274,456.374 977.978,456.234 982.272,453.386 987.448,445.655 
		981.395,454.251 978.049,446.449 977.396,455.95 969.924,450.14 976.683,450.756 978.05,458.32 980.486,450.516 980.405,448.18 
		983.151,451.182 979.437,445.409 988.672,448.824 979.377,450.849 981.703,446.871 980.191,445.546 987.047,438.424 
		973.028,441.085 982.699,440.024 980.149,436.328 981.543,435.031 988.413,432.929 981.862,434.765 981.313,431.128 
		977.812,433.256 979.386,429.635 974.862,428.683 981.797,433.919 978.396,426.789 984.713,424.027 973.461,425.287 
		972.602,423.596 971.227,422.048 971.182,420.118 977.595,417.44 979.951,412.612 982.118,420.126 977.462,418.304 980.719,414.6 
		980.551,412.485 982.348,408.002 974.719,410.282 971.854,410.386 975.539,403.9 968.003,405.82 969.778,401.441 974.346,404.434 
		973.119,399.286 974.637,394.614 978.719,397.04 980.677,399.454 982.427,397.559 989.655,404.635 982.552,399.936 
		982.296,398.126 978.2,397.852 986.312,391.354 981.473,391.38 982.338,389.336 977.535,389.178 981.312,383.437 976.71,384.238 
		975.656,381.722 974.988,378.329 972.973,377.948 962.207,384.199 974.751,387.389 975.127,384.948 972.001,378.351 975.8,379.955 
		978.018,380.254 979.267,379.388 976.953,371.563 980.057,372.942 983.926,377.394 984.12,371.681 985.475,369.279 
		994.742,374.083 983.864,371.746 992.584,364.583 990.759,363.393 986.043,361.721 982.502,363.467 980.164,360.789 
		978.779,363.887 977.669,368.663 975.405,366.129 970.383,364.893 981.448,360.727 975.849,359.622 968.822,358.208 
		970.682,356.033 972.062,353.891 969.322,347.198 976.696,345.997 978.246,348.211 979.355,352.729 980.982,354.577 
		988.169,356.995 988.429,348.426 980.123,350.649 980.519,348.053 976.457,349.158 983.279,343.468 972.331,345.586 
		973.104,342.717 972.117,340.654 971.555,339.015 976.216,336.708 981.636,334.802 977.47,332.91 979.031,333.717 977.381,324.53 
		979.408,327.772 981.472,331.556 983.209,330.486 982.132,324.411 986.021,326.86 985.699,322.054 993.141,330.601 
		989.168,325.469 990.492,324.657 988.367,324.831 987.662,318.653 983.554,327.683 981.26,328.593 980.399,322.599 
		985.222,320.782 976.545,317.942 981.389,316.228 981.32,314.06 980.245,312.917 983.887,318.432 986.988,313.643 983.22,310.421 
		985.214,308.628 988.852,305.701 984.5,304.12 987.975,298.158 981.697,302.257 979.97,302.526 975.251,303.572 975.733,299.109 
		976.706,297.333 972.691,294.619 985.782,295.102 978.586,293.208 978.891,287.3 976.572,289.208 973.579,295.323 971.132,298.009 
		975.272,289.227 971.587,288.879 973.086,287.52 973.905,285.336 976.68,285.451 971.675,281.001 976.596,281.108 981.295,283.35 
		980.445,275.243 983.18,281.756 985.639,285.763 987.478,284.067 985.963,277.268 988.71,276.731 992.166,273.235 990.201,271.609 
		989.028,268.749 984.891,269.298 979.318,273.414 979.239,274.255 980.179,265.418 975.281,270.89 972.127,266.903 
		974.473,261.494 979.71,268.032 981.089,261.928 983.231,266.639 991.716,265.136 979.656,263.7 977.605,262.566 976.65,260.687 
		979.003,255.843 979.518,252.898 980.057,250.633 988.274,247.719 981.72,251.07 979.519,250.122 978.084,252.968 976.496,255.07 
		969.631,257.193 970.436,250.039 973.646,248.19 968.483,246.055 978.129,244.25 972.06,242.401 971.766,240.422 979.82,238.011 
		978.336,241.808 974.715,241.333 977.532,237.85 978.697,241.979 981.709,237.622 986.524,244.435 982.869,235.599 
		980.512,231.835 990.496,230.811 984.998,226.809 982.974,225.811 980.225,236.272 975.295,234.579 972.111,228.679 
		985.273,229.582 974.589,225.045 985.215,225.366 974.31,225.171 979.845,219.21 974.758,219.23 979.256,214.998 978.835,219.083 
		975.185,221.004 985.216,215.537 983.815,213.865 977.575,213.803 977.723,211.615 979.034,210.515 979.911,202.705 
		981.958,211.592 984.121,209.056 986.199,215.016 988.414,207.427 990.512,211.884 989.999,208.269 996.323,204 985.673,209.855 
		990.968,202.901 984.94,205.034 987.235,197.748 984.116,201.875 981.674,200.879 980.749,204.503 976.207,197.113 
		975.375,201.042 976.417,201.828 968.616,204.065 967.098,202.438 968.32,200.496 980.246,198.532 974.389,195.945 
		975.221,193.874 975.202,191.547 976.685,198.082 979.175,195.989 981.061,198.814 985.18,197.211 985.156,190.766 
		986.802,189.542 985.773,184.763 988.158,184.507 999.071,186.237 991.675,182.915 987.907,187.486 986.439,186.161 
		985.816,182.652 982.459,186.159 982.478,176.927 979.783,181.117 979.161,188.869 975.663,179.018 975.221,187.92 
		971.738,184.752 974.902,182.739 977.05,181.469 979.415,180.27 968.502,174.41 977.765,177.169 977.333,171.755 977.092,170.982 
		979.162,171.637 982.478,169.492 985.414,167.358 981.773,166.799 982.946,168.722 984.625,167.501 985.8,164.527 981.609,159.928 
		983.562,161.92 989.709,158.794 984.753,157.469 987.863,153.304 984.456,151.353 980.954,159.364 979.514,153.855 
		977.731,151.847 976.422,147.163 973.011,154.23 970.104,158.468 968.494,155.443 966.249,152.175 966.708,149.151 
		967.393,147.064 968.466,145.221 975.703,147.316 976.432,147.426 976.45,147.316 978.453,146.945 978.005,139.266 
		979.596,135.851 984.658,143.685 988.795,141.461 981.568,135.483 981.274,133.079 990.769,135.723 991.499,128.774 
		985.505,126.51 983.449,125.63 979.623,134.741 978.063,131.226 976.268,127.949 974.667,122.865 971.537,131.929 969.481,131.006 
		971.949,126.803 964.254,122.752 974.628,130.023 974.932,127.534 969.841,119.815 973.642,120.581 975.382,119.678 
		981.914,125.149 981.26,124.663 981.311,121.118 983.835,124.983 985.646,121.389 987.304,116.157 995.22,121.668 995.066,113.304 
		986.895,114.249 981.267,114.293 987.014,110.315 984.911,110.884 983.476,114.699 982.164,105.634 977.801,112.706 
		980.841,103.312 979.117,106.015 977.932,103.567 979.65,103.832 973.117,103.361 972.411,101.605 982.894,98.108 978.128,96.976 
		977.327,93.996 980.857,96.49 982.559,95.808 983.604,95.187 981.897,94.445 979.591,92.671 979.829,91.862 974.848,92.301 
		971.374,90.106 971.78,88.096 975.987,87.417 973.658,88.55 972.744,85.691 976.055,82.691 973.162,77.603 977.125,87.097 
		976.996,75.751 983.622,85.25 987.582,81.767 987.062,79.43 979.899,74.025 980.506,71.525 986.886,74.223 984.643,71.855 
		983.299,64.668 981.386,68.287 979.778,76.463 979.146,69.271 970.039,70.492 976.721,67.118 980.609,63.468 980.247,60.409 
		978.231,59.116 966.753,60.029 966.709,55.271 981.436,56.864 974.711,52.518 977.043,52.472 977.967,50.269 977.766,48.951 
		985.442,49.272 985.567,49.081 984.018,45.416 976.954,45.168 981.062,40.226 979.823,44.099 977.741,43.274 974.595,36.484 
		975.873,42.096 967.527,41.243 968.727,39.437 976.537,38.463 978.679,38.81 979.533,38.654 981.908,39.817 980.697,31.887 
		983.921,35.921 990.629,34.175 984.117,30.268 984.289,27.58 983.5,25.725 978.018,27.955 977.825,26.572 977.456,25.22 
		982.354,20.532 976.106,21.439 979.893,18.691 974.853,17.841 977.716,15.918 979.858,13.99 976.324,12.042 	"/>
</g>
</svg>
