<?xml version="1.0" encoding="utf-8"?>
<!-- Generator: Adobe Illustrator 15.0.0, SVG Export Plug-In . SVG Version: 6.00 Build 0)  -->
<!DOCTYPE svg PUBLIC "-//W3C//DTD SVG 1.1//EN" "http://www.w3.org/Graphics/SVG/1.1/DTD/svg11.dtd">
<svg version="1.1" id="Layer_1" xmlns="http://www.w3.org/2000/svg" xmlns:xlink="http://www.w3.org/1999/xlink" x="0px" y="0px"
	 width="1024px" height="768px" viewBox="0 0 1024 768" style="enable-background:new 0 0 1024 768;" xml:space="preserve">
<style type="text/css">
<![CDATA[
	.st0{fill:none;stroke:#FF5F9F;stroke-miterlimit:10;}
]]>
</style>
<polyline class="st0" points="345.958,754.153 350.327,750.828 354.489,747.284 349.729,741.126 354.767,734.713 353.124,728.649 
	344.135,729.576 345.4,722.793 348.419,718.104 352.169,718.019 354.909,711.462 344.608,714.056 347.291,706.465 351.418,705.701 
	352.883,699.459 351.07,694.908 355.01,688.251 351.292,684.262 351.313,683.352 347.137,678.311 355.021,678.487 357.388,671.804 
	352.081,668.07 346.888,665.558 340.809,660.252 353.092,661.156 355.583,655.94 362.615,648.7 350.109,646.934 348.737,640.599 
	337.245,637.146 351.439,636.395 349.368,626.616 351.982,625.582 348.216,625.717 348.493,617.733 339.66,614.034 351.83,613.677 
	354.182,608.322 361.219,602.48 354.189,596.637 347.914,595.204 348.592,590.919 353.493,592.23 357.152,588.183 351.33,579.363 
	356.995,570.722 347.102,572.907 348.185,567.81 346.759,562.388 348.531,556.453 348.77,556.252 351.763,552.843 344.737,552.163 
	345.403,544.702 350.417,542.937 355.609,540.424 359.403,533.153 353.742,527.758 346.465,527.325 343.108,521.596 
	347.825,517.235 351.021,512.725 354.53,510.039 348.899,509.489 350.91,499.771 348.185,498.482 344.158,490.46 355.909,494.504 
	348.731,486.926 353.952,481.328 343.893,483.681 349.641,475.373 352.9,476.093 351.067,466.553 349.849,463.817 354.332,457.839 
	353.493,450.971 345.171,452.267 352.707,452.79 356.348,448.725 350.797,440.709 354.604,434.457 349.235,432.119 347.349,429.156 
	350.363,427.338 347.303,416.571 351.203,417.601 348.387,417.565 346.668,411.577 341.116,406.052 347.58,401.445 354.925,401.085 
	352.285,394.493 350.382,392.462 348.14,386.998 339.044,382.945 346.173,376.93 351.073,374.123 358.89,371.388 355.077,364.658 
	345.84,366.188 344.702,359.831 344.09,351.737 353.642,353.583 350.754,348.273 349.3,347.326 347.146,341.773 346.489,336.721 
	346.471,331.009 353.709,330.541 362.942,325.174 351.013,322.505 351.715,314.096 350.489,313.609 353.169,314.598 354.857,308.58 
	353.896,302.057 348.847,301.561 350.62,292.081 340.8,290.507 347.024,285.345 349.435,280.048 359.422,278.953 356.575,270.724 
	352.264,267.328 349.138,267.392 348.053,263.264 355.252,262.756 350.57,255.836 354.026,250.163 344.369,252.114 344.635,244.286 
	344.225,236.327 354.072,238.468 357.196,232.733 348.872,232.209 351.148,222.226 347.896,221.175 352.029,221.023 
	348.192,209.479 363.159,209.629 356.56,201.413 345.091,205.174 344.279,198.068 345.736,191.621 354.531,192.708 362.738,186.52 
	352.378,182.485 343.167,183.988 346.335,174.958 350.824,173.599 350.497,165.565 357.992,163.406 356.644,155.109 
	349.956,154.091 337.467,151.856 343.211,142.878 348.886,140.846 352.654,140.293 357.246,131.399 350.812,130.126 
	338.054,128.747 345.009,121.566 349.361,118.211 360.043,117.19 356.99,108.546 350.067,107.762 347.323,105.63 350.68,104.128 
	349.261,95.002 354.56,94.077 347.971,94.456 348.361,86.358 342.516,82.525 350.597,80.937 352.782,75.415 356.367,70.97 
	347.765,71.553 346.67,64.941 343.719,59.415 345.52,52.75 350.447,49.971 350.214,47.855 353.858,42.351 344.481,44.021 
	345.457,36.304 349.437,33.559 355.559,31.973 349.259,24.746 348.145,24.955 345.618,19.774 345.649,12.037 "/>
<polyline class="st0" points="866.637,754.153 871.006,750.828 875.169,747.284 870.408,741.126 875.447,734.713 873.803,728.649 
	864.814,729.576 866.08,722.793 869.099,718.104 872.85,718.019 875.588,711.462 865.287,714.056 867.971,706.465 872.098,705.701 
	873.562,699.459 871.75,694.908 875.689,688.251 871.972,684.262 871.993,683.352 867.816,678.311 875.701,678.487 878.067,671.804 
	872.76,668.07 867.567,665.558 861.488,660.252 873.771,661.156 876.262,655.94 883.295,648.7 870.789,646.934 869.417,640.599 
	857.925,637.146 872.119,636.395 870.048,626.616 872.662,625.582 868.896,625.717 869.173,617.733 860.34,614.034 872.51,613.677 
	874.861,608.322 881.898,602.48 874.869,596.637 868.594,595.204 869.271,590.919 874.173,592.23 877.832,588.183 872.01,579.363 
	877.674,570.722 867.781,572.907 868.864,567.81 867.438,562.388 869.211,556.453 869.449,556.252 872.443,552.843 865.416,552.163 
	866.083,544.702 871.096,542.937 876.289,540.424 880.083,533.153 874.422,527.758 867.145,527.325 863.788,521.596 
	868.505,517.235 871.7,512.725 875.21,510.039 869.579,509.489 871.59,499.771 868.865,498.482 864.838,490.46 876.589,494.504 
	869.41,486.926 874.632,481.328 864.572,483.681 870.32,475.373 873.58,476.093 871.747,466.553 870.529,463.817 875.012,457.839 
	874.173,450.971 865.851,452.267 873.387,452.79 877.027,448.725 871.477,440.709 875.284,434.457 869.914,432.119 868.029,429.156 
	871.043,427.338 867.982,416.571 871.883,417.601 869.066,417.565 867.348,411.577 861.795,406.052 868.26,401.445 875.605,401.085 
	872.965,394.493 871.062,392.462 868.819,386.998 859.724,382.945 866.853,376.93 871.752,374.123 879.569,371.388 875.757,364.658 
	866.52,366.188 865.382,359.831 864.77,351.737 874.322,353.583 871.434,348.273 869.98,347.326 867.825,341.773 867.168,336.721 
	867.15,331.009 874.389,330.541 883.622,325.174 871.692,322.505 872.395,314.096 871.168,313.609 873.849,314.598 875.537,308.58 
	874.575,302.057 869.527,301.561 871.299,292.081 861.479,290.507 867.704,285.345 870.114,280.048 880.102,278.953 
	877.255,270.724 872.943,267.328 869.817,267.392 868.732,263.264 875.932,262.756 871.25,255.836 874.706,250.163 865.049,252.114 
	865.314,244.286 864.904,236.327 874.752,238.468 877.875,232.733 869.551,232.209 871.828,222.226 868.576,221.175 
	872.709,221.023 868.872,209.479 883.838,209.629 877.24,201.413 865.771,205.174 864.959,198.068 866.416,191.621 875.211,192.708 
	883.418,186.52 873.058,182.485 863.848,183.988 867.016,174.958 871.504,173.599 871.176,165.565 878.672,163.406 877.324,155.109 
	870.636,154.091 858.146,151.856 863.891,142.878 869.566,140.846 873.334,140.293 877.926,131.399 871.491,130.126 
	858.734,128.747 865.688,121.566 870.041,118.211 880.723,117.19 877.67,108.546 870.746,107.762 868.002,105.63 871.359,104.128 
	869.94,95.002 875.24,94.077 868.65,94.456 869.041,86.358 863.195,82.525 871.277,80.937 873.462,75.415 877.047,70.97 
	868.444,71.553 867.35,64.941 864.398,59.415 866.199,52.75 871.127,49.971 870.895,47.855 874.537,42.351 865.16,44.021 
	866.137,36.304 870.117,33.559 876.238,31.973 869.939,24.746 868.824,24.955 866.298,19.774 866.328,12.037 "/>
<g>
	<polyline class="st0" points="465.318,754.83 466.95,753.955 464.176,747.286 470.561,752.553 472.059,751.409 471.491,747.93 
		472.062,747.189 473.139,744.982 475.396,740.777 469.859,742.597 474.312,741.244 467.999,738.088 468.949,736.241 
		475.252,738.597 467.396,733.488 478.619,731.189 465.601,732.547 471.082,729.783 470.263,729.699 468.29,728.139 
		467.273,735.906 465.36,734.996 462.127,730.145 470.209,728.587 460.882,724.507 469.148,724.622 461.841,719.036 
		470.646,722.493 466.464,716.666 469.272,723.865 469.838,716.222 467.125,714.473 472.03,714.598 466.609,710.405 
		475.533,709.288 473.295,718.325 470.215,714.794 468.276,715.785 463.847,706.907 458.333,719.253 465.708,712.723 
		462.512,709.459 463.669,707.73 469.054,709.962 467.985,704.919 471.605,707.092 469.316,703.286 473.06,701.968 469.678,699.656 
		476.977,694.731 468.333,694.878 475.678,696.076 467.052,688.725 467.724,686.873 467.001,688.826 467.941,691.281 
		472.229,684.798 466.074,686.472 467.608,684.701 468.106,682.222 470.089,677.744 469.705,679.62 467.794,685.478 
		469.925,678.282 471.945,676.232 476.536,682.699 471.969,675.939 471.042,673.731 476.43,673.756 472.461,673.324 470.289,676.5 
		470.211,672.85 469.999,669.629 467.621,670.492 470.212,660.72 464.998,666.663 463.631,664.907 459.678,666.369 464.79,657.441 
		461.401,661.024 461.446,663.835 463.814,659.613 465.416,665.792 467.681,662.984 469.594,665 475.234,667.141 478.507,662.16 
		467.752,654.889 480.475,660.184 479.969,658.51 476.31,652.147 480.352,653.26 482.963,652.978 485.11,647.295 478.817,652.396 
		477.117,649.395 475.8,643.67 472.971,648.651 470.629,650.158 473.683,641.931 464.463,645.698 474.871,641.232 472.073,636.639 
		466.613,636.889 464.194,637.996 463.153,634.526 460.422,636.66 457.199,640.423 456.166,637.157 457.867,632.376 
		460.506,643.879 462.253,638.463 463.916,631.464 466.051,633.372 468.164,634.8 465.375,632.541 463.785,635.729 465.21,633.386 
		468.93,630.557 469.988,628.286 473.097,630.206 476.486,629.859 468.991,626.915 467.303,625.49 464.145,623.619 472.751,621.921 
		461.854,619.543 464.208,619.673 463.888,621.02 461.993,620.601 462.126,615.322 462.453,609.577 459.912,614.482 460.65,618.047 
		462.37,607.542 464.497,610.847 466.64,614.695 468.643,613.679 467.471,608.782 469.831,611.178 466.663,607.656 477.071,611.321 
		472.322,604.611 475.886,606.047 476.889,604.392 482.051,607.74 475.672,602.472 474.964,605.759 477.154,600.271 
		478.748,595.493 471.661,601.154 473.177,596.336 470.967,596.067 468.69,596.395 470.099,592.97 470.935,593.668 467.035,590.454 
		468.853,592.167 469.451,596.477 472.575,592.968 478.009,594.906 474.506,589.286 475.194,588.168 471.741,588.462 
		471.139,586.334 470.5,584.223 465.624,584.905 476.279,579.303 469.705,576.586 476.222,578.392 475.472,575.43 471.161,570.129 
		469.738,574.689 472.76,566.162 471.982,572.028 470.024,572.553 468.293,574.12 466.054,572.771 460.213,569.915 464.999,569.155 
		471.077,567.679 462.093,567.178 468.168,563.647 472.011,562.582 470.914,561.821 463.509,557.454 467.854,556.635 
		471.253,559.562 471.812,556.917 474.115,552.365 468.894,552.3 466.493,558.779 464.631,559.678 465.11,550.965 458.907,549.87 
		457.75,547.887 460.529,546.253 468.179,547.641 465.559,543.091 468.842,547.077 472.102,549.708 468.917,537.812 
		470.186,536.017 470.54,536.469 474.439,538.108 474.562,535.861 474.876,533.709 483.517,532.385 476.474,532.189 
		476.001,529.853 472.854,530.316 471.184,530.87 470.38,534.266 468.745,531.055 467.111,527.808 462.14,531.947 467.625,523.406 
		461.355,524.515 459.79,521.306 467.587,524.537 469.953,523.941 470.167,520.354 468.293,516.128 472.448,516.812 
		469.563,512.424 475.662,516.662 471.377,510.196 470.931,515.704 470.037,505.449 472.513,506.178 474.683,508.9 464.691,504.808 
		465.135,502.874 462.591,500.317 475.503,497.642 466.128,503.916 470.858,495.061 459.764,499.621 467.358,493.301 
		461.07,493.943 458.027,486.924 466.044,487.98 468.88,486.104 467.179,497.409 469.398,497.324 473.279,492.418 474.194,494.151 
		474.541,491.833 466.955,496.151 471.956,488.539 468.662,488.778 473.023,486.671 467.3,484.058 471.849,485.684 469.295,480.682 
		477.881,477.492 472.064,487.253 468.122,479.464 467.486,485.811 463.877,479.468 462.878,483.579 465.433,483.09 
		463.985,479.638 472.073,482.776 470.368,479.136 470.103,478.816 471.374,470.041 466.208,471.567 465.766,475.266 
		477.364,471.063 470.755,470.354 470.737,468.376 469.828,466.582 474.93,463.67 472.896,464.638 476.074,464.688 475.77,462.121 
		472.315,457.646 472.035,455.657 467.353,453.905 469.729,454.099 469.211,444.554 467.697,448.508 466.481,454.392 
		465.639,452.992 465.808,453.661 468.003,449.316 469.279,458.234 472.173,454.362 468.4,447.526 477.277,453.033 470.908,448.572 
		473.084,447.816 474.357,444.568 474.566,442.051 474.963,439.399 462.534,441.074 473.089,440.67 469.292,436.216 
		468.935,433.852 472.416,434.826 472.582,431.568 471.997,428.018 469.451,430.463 470.382,428.573 469.248,429.876 
		468.014,428.764 462.785,424.963 465.182,426.547 470.99,422.958 465.98,422.445 469.558,419.488 469.985,417.424 462.829,412.846 
		468.039,417.316 469.129,415.937 470.46,412.176 465.435,415.923 460.36,415.218 462.69,413.215 463.564,410.768 461.549,410.017 
		459.772,409.021 457.643,405.849 464.416,408.892 466.593,408.528 467.96,407.022 468.378,406.863 468.178,399.728 
		469.859,396.503 472.139,405.375 479.078,404.699 470.566,400.462 468.641,399.321 476.937,394.083 475.574,391.399 
		472.979,389.882 473.122,388.738 463.415,390.594 466.028,387.932 465.872,384.61 466.044,379.342 460.42,387.069 458.881,385.622 
		462.588,382.017 455.087,376.734 464.578,385.095 465.027,382.735 460.634,374.631 464.26,375.844 466.166,375.15 471.937,381.434 
		472.749,380.39 472.903,376.389 476.206,379.564 477.037,375.666 476.592,370.901 483.064,366.153 481.476,364.831 
		473.543,367.099 470.894,370.808 472.096,365.074 470.697,368.062 469.441,371.942 466.144,363.508 461.374,370.268 
		468.525,363.316 466.202,361.544 462.123,360.014 462.775,357.856 456.383,356.307 455.804,354.313 465.398,354.347 
		465.024,351.176 467.086,350.739 468.315,354.633 470.301,354.63 471.49,352.904 471.313,351.931 472.022,349.25 472.211,345.951 
		465.981,349.007 461.54,347.762 461.109,345.799 463.896,342.329 461.661,340.625 463.315,338.697 469.352,336.469 
		460.717,334.833 470.791,332.896 461.066,327.226 467.481,336.439 469.399,338.009 471.125,336.549 471.697,327.902 
		472.471,326.149 477.66,330.836 477.323,326.005 483.186,331.837 484.758,324.91 478.697,329.675 478.459,321.411 474.306,330.646 
		473.878,323.229 472.868,318.402 474.512,319.185 474.565,320.783 463.72,317.762 463.028,315.585 477.279,311.372 469.466,313.23 
		472.237,315.307 471.882,312.399 470.806,309.932 479.576,308.92 478.866,305.6 475.267,303.908 467.413,306.615 471.305,299.406 
		469.27,302.819 467.759,301.518 475.237,301.011 471.042,298.269 462.103,294.635 463.404,292.913 470.939,291.011 
		468.211,287.351 466.256,286.986 464.674,284.305 461.425,291.988 463.065,289.624 465.012,293.818 463.008,288.236 
		465.776,288.403 468.179,287.128 464.232,282.471 465.603,280.962 468.086,279.774 470.948,285.948 472.288,279.752 474.8,284.24 
		476.237,278.882 480.499,280.217 482,275.361 477.94,274.464 471.255,274.471 479.997,267.643 477.12,265.616 474.637,265.81 
		469.634,271.352 469.464,263.294 467.763,267.621 461.185,266.973 464.051,261.635 469.216,270.541 470.856,268.138 
		471.89,257.127 479.214,264.509 471.386,262.076 475.663,256.661 469.378,258.388 463.885,255.869 473.289,255.606 
		470.216,251.139 476.9,248.081 471.265,252.147 470.014,255.902 466.94,250.632 465.868,255.284 466.714,247.938 457.685,249.968 
		456.203,247.96 466.512,246.35 464.606,244.276 463.084,242.313 460.807,240.438 466.111,238.167 466.963,240.969 466.408,230.453 
		466.287,240.498 469.589,234.786 469.937,242.683 470.204,232.947 472.722,235.884 480.34,237.554 470.951,235.316 
		473.998,232.051 471.829,233.341 469.848,231.584 471.119,229.605 464.211,229.311 462.271,226.77 465.474,225.401 475.307,225.54 
		469.696,222.364 468.264,222.024 462.383,217.982 469.048,227.612 466.479,217.878 463.67,221.285 472.579,216.188 
		464.409,216.769 474.531,211.268 472.704,209.736 462.603,206.006 469.107,215.807 471.249,215.251 473.409,213.113 475.546,213.1 
		477.763,205.422 479.842,211.638 481.802,209.526 485.86,203.833 483.67,202.894 479.409,203.613 475.58,203.98 475.09,202.414 
		474.149,204.024 469.969,197.728 471.032,207.414 466.253,199.302 465.714,204.125 461.431,209.812 456.863,204.187 
		457.807,202.28 464.56,199.707 466.576,198.316 467.202,196.733 464.144,193.782 462.9,189.219 465.982,198.338 469.285,189.667 
		471.56,189.339 475.181,199.887 479.25,197.085 476.77,190.39 477.264,187.631 476.782,183.572 481.216,186.535 479.307,187.269 
		480.658,178.696 474.634,189.07 476.506,179.153 471.754,186.24 470.544,188.986 469.738,184.957 466.404,176.085 465.992,185.152 
		464.208,185.824 460.123,185.513 463.902,182.624 466.679,181.575 459.472,177.018 460.226,175.251 465.296,175.09 
		469.388,180.757 474.609,177.575 469.592,171.592 466.243,169.718 476.415,167.291 472.215,167.579 471.009,164.324 
		472.96,164.054 475.831,166.965 481.857,166.365 474.926,161.59 482.301,158.265 478.664,156.725 477.179,153.316 473.998,149.948 
		470.868,155.514 468.516,155.827 465.425,160.979 464.153,156.091 461.3,160.041 460.463,152.709 459.427,146.475 452.437,153.532 
		455.819,149.012 464.527,152.059 462.996,148.549 465.176,147.409 462.065,142.888 465.764,147.272 466.865,144.384 
		468.988,145.816 469.19,137.667 473.818,143.455 478.786,141.804 472.485,136.303 467.813,131.639 470.46,130.748 476.193,131.343 
		473.44,133.549 471.028,134.472 468.914,134.982 467.961,125.956 466.028,123.95 463.394,128.43 460.878,131.8 459.785,121.994 
		457.269,128.583 458.409,127.427 459.568,125.773 464.263,127.539 464.245,124.732 464.959,122.794 467.445,123.227 
		467.155,119.849 467.623,116.628 470.462,119.272 472.525,118.312 473.995,111.145 476.24,112.048 477.984,116.474 
		479.718,114.955 475.193,114.613 477.513,111.85 470.648,112.326 472.604,113.276 474.212,102.264 471.464,105.881 
		471.006,101.958 467.331,106.966 463.738,105.22 469.835,109.321 467.088,102.808 467.973,102.502 469.013,100.476 468.4,98.702 
		472.897,96.13 468.709,95.42 469,89.702 472.322,98.298 471.047,99.59 471.436,98.092 468.878,91.961 469.056,91.976 
		461.827,92.188 471.934,90.648 473.761,88.706 470.53,84.499 461.337,91.065 460.318,88.368 454.37,82.235 464.693,88.804 
		464.788,78.618 466.609,77.202 472.366,84.53 466.888,77.799 464.337,74.66 470.096,74.528 474.866,75.583 478.104,75.748 
		470.044,74.654 473.158,72.488 470.84,70.152 468.42,66.352 465.706,72.661 471.728,68.444 459.098,68.269 467.495,64.282 
		466.043,62.295 466.584,59.637 468.745,58.831 456.625,55.43 458.615,53.582 468.705,55.84 464.028,48.317 467.247,50.182 
		466.342,48.603 473.705,49.008 475.094,49.213 467.618,41.624 474.728,41.463 470.686,41.87 468.279,39.197 467.076,43.306 
		466.197,49.254 459.968,47.468 467.835,42.632 456.638,39.258 469.59,38.934 466.24,37.614 467.185,36.225 466.724,30.254 
		470.904,35.28 472.683,33.735 473.501,31.615 469.893,33.364 475.043,26.338 472.865,25.692 470.983,24.785 466.738,27.369 
		463.037,30.055 465.529,23.532 469.198,19.604 469.065,18.725 459.994,17.824 461.611,15.897 464.419,13.972 460.834,12.022 	"/>
</g>
<g>
	<polyline class="st0" points="988.273,757.82 990.318,757.488 989.7,753.653 991.702,753.127 988.318,746.218 992.501,748.318 
		1000.854,747.79 992.531,745.978 987.391,747.493 994.449,739.573 995.335,741.251 985.932,735.931 987.491,734.563 
		991.185,734.867 989.155,733.701 987.372,734.423 999.531,728.954 994.461,726.337 990.28,723.284 988.895,727.425 
		987.512,731.631 985.286,727.695 979.502,732.344 985.062,727.5 978.807,723.992 981.143,721.381 991.551,724.851 988.736,720.825 
		984.895,712.635 989.86,719.842 989.355,714.45 994.839,717.411 989.925,713.435 990.537,711.763 992.05,714.377 993.188,715.206 
		991.951,718.994 987.363,709.462 986.032,712.887 988.641,709.48 982.82,711.463 986.679,710.692 982.461,707.062 984.768,704.01 
		989.812,711.115 991.303,706.074 992.159,703.794 992.365,701.646 985.603,700.111 986.922,699.008 987.344,694.846 
		993.527,694.401 990.562,690.4 988.724,687.062 997.802,687.978 993.417,686.812 986.899,690.397 995.092,681.938 984.635,686.633 
		988.53,682.435 993.178,675.747 980.646,676.197 988.634,678.242 990.673,675.217 992.656,674.791 992.435,675.151 
		997.794,677.761 1001.503,677.196 999.259,674.518 997.787,671.452 999.065,664.988 993.891,668.584 995.025,662.322 
		988.535,670.005 986.222,670.371 985.195,667.389 983.17,666.215 988.08,657.519 981.489,662.001 982.058,661.016 982.313,661.281 
		983.979,666.6 986.75,656.915 988.157,665.747 990.027,668.346 995.141,665.737 987.515,656.587 988.009,654.688 995.747,656.389 
		992.501,650.598 994.104,649.347 1001.143,653.368 997.52,647.029 997.59,650.453 1000.787,643.256 998.224,646.365 
		995.093,653.482 994.07,645.673 992.032,645.03 986.115,650.656 986.006,645.511 982.989,643.952 985.114,643.376 988.257,633.683 
		985.291,636.609 983.125,636.881 981.027,636.908 979.24,635.894 983.725,638.197 978.451,630.551 981.123,642.696 982.517,630.61 
		984.848,636.224 986.656,631.959 988.873,635.365 996.619,640.83 994.234,633.661 984.995,633.574 995.822,629.238 
		993.169,627.757 989.932,627.379 994.075,627.522 989.588,624.609 987.894,625.574 981.784,623.513 994.921,621.973 
		988.345,619.744 993.865,614.109 985.835,617.994 982.368,621.327 984.259,611.853 978.9,619.68 980.357,614.407 981.377,619.671 
		983.369,618.389 985.385,617.9 987.341,615.421 989.174,608.598 988.772,609.731 985.723,609.075 998.661,612.628 993.702,608.319 
		993.259,604.921 998.632,608.536 1002.143,609.9 995.648,599.211 999.934,602.479 999.814,600.741 1000.747,596.766 
		998.306,596.843 995.371,597.509 993.346,597.421 990.767,599.918 988.06,602.128 988.124,594.746 990.102,593.429 989.269,592.25 
		988.311,596.736 992.422,587.916 993.908,595.014 999.564,595.697 993.002,587.312 998.98,588.225 996.835,585.549 990.06,587.494 
		996.368,580.797 994.043,579.795 995.545,579.317 996.982,580.91 989.4,573.477 996.535,575.682 989.874,568.841 990.443,574.672 
		994.988,573.174 992.079,569.396 990.658,572.35 988.941,573.98 987.879,571.298 992.881,572.463 988.192,569.688 980.616,568.039 
		987.293,565.989 987.635,563.967 991.958,562.559 991.784,561.877 986.414,558.119 985.429,555.454 987.284,555.332 
		989.521,554.31 992.942,552.618 989.02,558.037 987.48,555.596 986.445,547.953 983.604,552.679 990.225,550.821 990.156,548.937 
		981.077,546.24 989.961,548.463 985.227,540.221 990.469,549.768 987.184,536.356 994.856,548.683 995.344,545.274 
		998.408,543.732 1000.089,540.703 991.202,533.753 995.914,533.896 996.939,533.443 996.906,532.449 996.739,529.79 
		993.342,530.518 994.073,525.973 991.055,534.358 990.047,520.602 987.528,532.202 981.834,533.387 990.659,522.029 
		989.711,520.019 975.527,520.643 985.812,521.882 981.617,514.188 984.791,514.951 993.197,519.121 987.182,512.6 986.28,508.497 
		995.453,515.501 987.056,510.591 992.717,504.372 990.811,504.488 993.632,505.872 986.878,507.145 983.794,504.481 
		991.382,504.025 991.275,501.974 986.215,501.336 992.212,492.492 988.615,497.674 984.62,497.525 982.501,496.08 984.614,492.506 
		988.746,494.052 985.508,491.513 988.237,489.944 987.191,499.349 992.921,489.062 992.044,497.984 989.16,490.563 
		997.445,489.727 990.732,493.218 992.735,488.443 993.191,485.13 994.249,486.646 990.562,486.467 988.377,481.812 
		993.455,483.928 992.46,482.096 992.046,484.266 989.265,481.44 987.188,481.626 986.764,488.901 985.207,482.378 986.469,483.337 
		985.135,479.963 985.812,477.975 989.045,477.75 991.549,480.452 990.771,475.847 996.869,479.725 989.771,474.626 989.02,472.797 
		994.95,469.68 984.737,469.659 996.039,464.694 982.21,463.989 989.34,461.463 990.918,460.311 993.444,459.867 987.282,456.374 
		987.985,456.234 992.28,453.386 997.456,445.655 991.402,454.251 988.057,446.449 987.403,455.95 979.932,450.14 986.69,450.756 
		988.058,458.32 990.494,450.516 990.413,448.18 993.159,451.182 989.444,445.409 998.68,448.824 989.385,450.849 991.711,446.871 
		990.199,445.546 997.055,438.424 983.036,441.085 992.707,440.024 990.157,436.328 991.551,435.031 998.421,432.929 
		991.87,434.765 991.321,431.128 987.819,433.256 989.394,429.635 984.87,428.683 991.805,433.919 988.403,426.789 994.721,424.027 
		983.469,425.287 982.609,423.596 981.234,422.048 981.189,420.118 987.603,417.44 989.959,412.612 992.126,420.126 987.47,418.304 
		990.727,414.6 990.559,412.485 992.355,408.002 984.727,410.282 981.861,410.386 985.547,403.9 978.011,405.82 979.786,401.441 
		984.354,404.434 983.127,399.286 984.645,394.614 988.727,397.04 990.685,399.454 992.435,397.559 999.663,404.635 992.56,399.936 
		992.304,398.126 988.208,397.852 996.319,391.354 991.48,391.38 992.346,389.336 987.543,389.178 991.319,383.437 986.718,384.238 
		985.664,381.722 984.996,378.329 982.98,377.948 972.215,384.199 984.759,387.389 985.135,384.948 982.009,378.351 
		985.808,379.955 988.025,380.254 989.274,379.388 986.961,371.563 990.064,372.942 993.934,377.394 994.128,371.681 
		995.482,369.279 1004.75,374.083 993.872,371.746 1002.592,364.583 1000.767,363.393 996.051,361.721 992.51,363.467 
		990.172,360.789 988.787,363.887 987.677,368.663 985.413,366.129 980.391,364.893 991.456,360.727 985.856,359.622 
		978.83,358.208 980.689,356.033 982.069,353.891 979.33,347.198 986.704,345.997 988.254,348.211 989.363,352.729 990.99,354.577 
		998.177,356.995 998.437,348.426 990.131,350.649 990.526,348.053 986.465,349.158 993.287,343.468 982.339,345.586 
		983.111,342.717 982.125,340.654 981.562,339.015 986.224,336.708 991.644,334.802 987.478,332.91 989.039,333.717 987.389,324.53 
		989.416,327.772 991.479,331.556 993.217,330.486 992.14,324.411 996.028,326.86 995.707,322.054 1003.148,330.601 
		999.176,325.469 1000.5,324.657 998.375,324.831 997.67,318.653 993.562,327.683 991.268,328.593 990.407,322.599 995.229,320.782 
		986.553,317.942 991.396,316.228 991.328,314.06 990.253,312.917 993.895,318.432 996.996,313.643 993.228,310.421 
		995.222,308.628 998.859,305.701 994.508,304.12 997.982,298.158 991.705,302.257 989.978,302.526 985.259,303.572 
		985.741,299.109 986.714,297.333 982.699,294.619 995.79,295.102 988.594,293.208 988.898,287.3 986.58,289.208 983.587,295.323 
		981.14,298.009 985.28,289.227 981.595,288.879 983.094,287.52 983.913,285.336 986.688,285.451 981.683,281.001 986.604,281.108 
		991.303,283.35 990.453,275.243 993.188,281.756 995.646,285.763 997.485,284.067 995.971,277.268 998.718,276.731 
		1002.174,273.235 1000.209,271.609 999.036,268.749 994.898,269.298 989.326,273.414 989.247,274.255 990.187,265.418 
		985.289,270.89 982.135,266.903 984.48,261.494 989.718,268.032 991.097,261.928 993.239,266.639 1001.724,265.136 989.664,263.7 
		987.613,262.566 986.658,260.687 989.011,255.843 989.525,252.898 990.064,250.633 998.282,247.719 991.728,251.07 
		989.526,250.122 988.092,252.968 986.504,255.07 979.639,257.193 980.443,250.039 983.653,248.19 978.491,246.055 988.137,244.25 
		982.067,242.401 981.773,240.422 989.828,238.011 988.344,241.808 984.723,241.333 987.54,237.85 988.705,241.979 991.717,237.622 
		996.532,244.435 992.877,235.599 990.52,231.835 1000.504,230.811 995.006,226.809 992.981,225.811 990.232,236.272 
		985.303,234.579 982.119,228.679 995.281,229.582 984.597,225.045 995.223,225.366 984.317,225.171 989.853,219.21 984.766,219.23 
		989.264,214.998 988.843,219.083 985.192,221.004 995.224,215.537 993.823,213.865 987.583,213.803 987.73,211.615 
		989.042,210.515 989.919,202.705 991.966,211.592 994.129,209.056 996.207,215.016 998.422,207.427 1000.52,211.884 
		1000.007,208.269 1006.331,204 995.681,209.855 1000.976,202.901 994.948,205.034 997.243,197.748 994.124,201.875 
		991.682,200.879 990.757,204.503 986.215,197.113 985.383,201.042 986.425,201.828 978.624,204.065 977.105,202.438 
		978.328,200.496 990.254,198.532 984.396,195.945 985.229,193.874 985.21,191.547 986.692,198.082 989.183,195.989 
		991.068,198.814 995.188,197.211 995.164,190.766 996.81,189.542 995.781,184.763 998.166,184.507 1009.079,186.237 
		1001.683,182.915 997.915,187.486 996.447,186.161 995.824,182.652 992.467,186.159 992.485,176.927 989.791,181.117 
		989.169,188.869 985.671,179.018 985.229,187.92 981.746,184.752 984.91,182.739 987.058,181.469 989.423,180.27 978.51,174.41 
		987.772,177.169 987.341,171.755 987.1,170.982 989.17,171.637 992.485,169.492 995.422,167.358 991.781,166.799 992.954,168.722 
		994.633,167.501 995.808,164.527 991.617,159.928 993.57,161.92 999.717,158.794 994.761,157.469 997.871,153.304 994.464,151.353 
		990.962,159.364 989.521,153.855 987.739,151.847 986.43,147.163 983.019,154.23 980.112,158.468 978.502,155.443 976.257,152.175 
		976.716,149.151 977.4,147.064 978.474,145.221 985.711,147.316 986.439,147.426 986.458,147.316 988.461,146.945 988.013,139.266 
		989.604,135.851 994.666,143.685 998.803,141.461 991.576,135.483 991.282,133.079 1000.776,135.723 1001.507,128.774 
		995.513,126.51 993.457,125.63 989.631,134.741 988.071,131.226 986.275,127.949 984.675,122.865 981.545,131.929 979.489,131.006 
		981.957,126.803 974.262,122.752 984.636,130.023 984.939,127.534 979.849,119.815 983.649,120.581 985.39,119.678 
		991.922,125.149 991.268,124.663 991.318,121.118 993.843,124.983 995.653,121.389 997.312,116.157 1005.228,121.668 
		1005.074,113.304 996.902,114.249 991.274,114.293 997.021,110.315 994.919,110.884 993.483,114.699 992.172,105.634 
		987.809,112.706 990.849,103.312 989.125,106.015 987.939,103.567 989.658,103.832 983.125,103.361 982.419,101.605 
		992.901,98.108 988.136,96.976 987.335,93.996 990.865,96.49 992.566,95.808 993.611,95.187 991.905,94.445 989.599,92.671 
		989.837,91.862 984.855,92.301 981.382,90.106 981.788,88.096 985.995,87.417 983.666,88.55 982.752,85.691 986.062,82.691 
		983.17,77.603 987.133,87.097 987.004,75.751 993.63,85.25 997.59,81.767 997.069,79.43 989.907,74.025 990.514,71.525 
		996.894,74.223 994.65,71.855 993.307,64.668 991.394,68.287 989.786,76.463 989.154,69.271 980.047,70.492 986.729,67.118 
		990.617,63.468 990.255,60.409 988.239,59.116 976.761,60.029 976.717,55.271 991.443,56.864 984.719,52.518 987.051,52.472 
		987.975,50.269 987.773,48.951 995.45,49.272 995.575,49.081 994.025,45.416 986.962,45.168 991.07,40.226 989.831,44.099 
		987.749,43.274 984.603,36.484 985.881,42.096 977.535,41.243 978.734,39.437 986.545,38.463 988.687,38.81 989.541,38.654 
		991.916,39.817 990.705,31.887 993.929,35.921 1000.637,34.175 994.125,30.268 994.297,27.58 993.508,25.725 988.025,27.955 
		987.833,26.572 987.464,25.22 992.362,20.532 986.114,21.439 989.9,18.691 984.86,17.841 987.724,15.918 989.866,13.99 
		986.332,12.042 	"/>
</g>
</svg>
