<?xml version="1.0" encoding="utf-8"?>
<!-- Generator: Adobe Illustrator 15.0.0, SVG Export Plug-In . SVG Version: 6.00 Build 0)  -->
<!DOCTYPE svg PUBLIC "-//W3C//DTD SVG 1.1//EN" "http://www.w3.org/Graphics/SVG/1.1/DTD/svg11.dtd">
<svg version="1.1" id="Layer_1" xmlns="http://www.w3.org/2000/svg" xmlns:xlink="http://www.w3.org/1999/xlink" x="0px" y="0px"
	 width="1024px" height="768px" viewBox="0 0 1024 768" style="enable-background:new 0 0 1024 768;" xml:space="preserve">
<style type="text/css">
<![CDATA[
	.st0{fill:none;stroke:#FF5F9F;stroke-miterlimit:10;}
]]>
</style>
<polyline class="st0" points="355.965,754.153 360.334,750.828 364.497,747.284 359.736,741.126 364.775,734.713 363.131,728.649 
	354.143,729.576 355.408,722.793 358.427,718.104 362.177,718.019 364.917,711.462 354.616,714.056 357.298,706.465 
	361.426,705.701 362.891,699.459 361.078,694.908 365.018,688.251 361.3,684.262 361.321,683.352 357.145,678.311 365.029,678.487 
	367.396,671.804 362.088,668.07 356.896,665.558 350.817,660.252 363.1,661.156 365.59,655.94 372.623,648.7 360.117,646.934 
	358.745,640.599 347.253,637.146 361.447,636.395 359.376,626.616 361.99,625.582 358.224,625.717 358.501,617.733 349.667,614.034 
	361.837,613.677 364.19,608.322 371.227,602.48 364.197,596.637 357.922,595.204 358.6,590.919 363.501,592.23 367.16,588.183 
	361.338,579.363 367.002,570.722 357.109,572.907 358.192,567.81 356.767,562.388 358.539,556.453 358.778,556.252 361.771,552.843 
	354.745,552.163 355.411,544.702 360.424,542.937 365.617,540.424 369.411,533.153 363.75,527.758 356.473,527.325 353.116,521.596 
	357.833,517.235 361.028,512.725 364.538,510.039 358.907,509.489 360.918,499.771 358.193,498.482 354.166,490.46 365.917,494.504 
	358.739,486.926 363.96,481.328 353.9,483.681 359.649,475.373 362.908,476.093 361.075,466.553 359.857,463.817 364.34,457.839 
	363.501,450.971 355.179,452.267 362.714,452.79 366.356,448.725 360.805,440.709 364.612,434.457 359.243,432.119 357.357,429.156 
	360.371,427.338 357.311,416.571 361.211,417.601 358.395,417.565 356.676,411.577 351.124,406.052 357.588,401.445 
	364.933,401.085 362.292,394.493 360.39,392.462 358.147,386.998 349.052,382.945 356.181,376.93 361.081,374.123 368.897,371.388 
	365.085,364.658 355.848,366.188 354.71,359.831 354.098,351.737 363.65,353.583 360.762,348.273 359.308,347.326 357.153,341.773 
	356.497,336.721 356.479,331.009 363.717,330.541 372.95,325.174 361.021,322.505 361.723,314.096 360.497,313.609 363.177,314.598 
	364.865,308.58 363.903,302.057 358.855,301.561 360.627,292.081 350.808,290.507 357.032,285.345 359.442,280.048 369.43,278.953 
	366.583,270.724 362.272,267.328 359.146,267.392 358.061,263.264 365.26,262.756 360.578,255.836 364.034,250.163 354.376,252.114 
	354.643,244.286 354.232,236.327 364.08,238.468 367.204,232.733 358.879,232.209 361.156,222.226 357.904,221.175 362.037,221.023 
	358.2,209.479 373.167,209.629 366.568,201.413 355.099,205.174 354.287,198.068 355.744,191.621 364.539,192.708 372.746,186.52 
	362.386,182.485 353.175,183.988 356.343,174.958 360.832,173.599 360.504,165.565 368,163.406 366.652,155.109 359.964,154.091 
	347.475,151.856 353.219,142.878 358.894,140.846 362.662,140.293 367.254,131.399 360.819,130.126 348.062,128.747 
	355.017,121.566 359.369,118.211 370.051,117.19 366.998,108.546 360.075,107.762 357.331,105.63 360.688,104.128 359.269,95.002 
	364.568,94.077 357.979,94.456 358.369,86.358 352.524,82.525 360.605,80.937 362.79,75.415 366.375,70.97 357.772,71.553 
	356.678,64.941 353.727,59.415 355.527,52.75 360.455,49.971 360.222,47.855 363.866,42.351 354.489,44.021 355.464,36.304 
	359.445,33.559 365.566,31.973 359.267,24.746 358.153,24.955 355.626,19.774 355.657,12.037 "/>
<polyline class="st0" points="876.645,754.153 881.014,750.828 885.177,747.284 880.416,741.126 885.455,734.713 883.811,728.649 
	874.822,729.576 876.088,722.793 879.106,718.104 882.857,718.019 885.596,711.462 875.295,714.056 877.979,706.465 
	882.105,705.701 883.57,699.459 881.758,694.908 885.697,688.251 881.979,684.262 882.001,683.352 877.824,678.311 885.709,678.487 
	888.075,671.804 882.768,668.07 877.575,665.558 871.496,660.252 883.779,661.156 886.27,655.94 893.303,648.7 880.797,646.934 
	879.425,640.599 867.933,637.146 882.127,636.395 880.056,626.616 882.67,625.582 878.904,625.717 879.181,617.733 870.348,614.034 
	882.518,613.677 884.869,608.322 891.906,602.48 884.877,596.637 878.602,595.204 879.279,590.919 884.181,592.23 887.84,588.183 
	882.018,579.363 887.682,570.722 877.789,572.907 878.872,567.81 877.446,562.388 879.219,556.453 879.457,556.252 882.451,552.843 
	875.424,552.163 876.091,544.702 881.104,542.937 886.297,540.424 890.091,533.153 884.43,527.758 877.152,527.325 873.796,521.596 
	878.513,517.235 881.708,512.725 885.218,510.039 879.587,509.489 881.598,499.771 878.873,498.482 874.846,490.46 886.597,494.504 
	879.418,486.926 884.64,481.328 874.58,483.681 880.328,475.373 883.588,476.093 881.755,466.553 880.537,463.817 885.02,457.839 
	884.181,450.971 875.858,452.267 883.395,452.79 887.035,448.725 881.484,440.709 885.292,434.457 879.922,432.119 878.037,429.156 
	881.051,427.338 877.99,416.571 881.891,417.601 879.074,417.565 877.355,411.577 871.803,406.052 878.268,401.445 885.613,401.085 
	882.973,394.493 881.07,392.462 878.827,386.998 869.731,382.945 876.86,376.93 881.76,374.123 889.577,371.388 885.765,364.658 
	876.527,366.188 875.39,359.831 874.777,351.737 884.33,353.583 881.441,348.273 879.988,347.326 877.833,341.773 877.176,336.721 
	877.158,331.009 884.396,330.541 893.63,325.174 881.7,322.505 882.402,314.096 881.176,313.609 883.856,314.598 885.545,308.58 
	884.583,302.057 879.535,301.561 881.307,292.081 871.487,290.507 877.712,285.345 880.122,280.048 890.109,278.953 
	887.263,270.724 882.951,267.328 879.825,267.392 878.74,263.264 885.939,262.756 881.258,255.836 884.714,250.163 875.057,252.114 
	875.322,244.286 874.912,236.327 884.76,238.468 887.883,232.733 879.559,232.209 881.836,222.226 878.584,221.175 882.717,221.023 
	878.88,209.479 893.846,209.629 887.248,201.413 875.778,205.174 874.967,198.068 876.424,191.621 885.219,192.708 893.426,186.52 
	883.065,182.485 873.855,183.988 877.023,174.958 881.512,173.599 881.184,165.565 888.68,163.406 887.332,155.109 880.644,154.091 
	868.154,151.856 873.898,142.878 879.574,140.846 883.342,140.293 887.934,131.399 881.499,130.126 868.742,128.747 
	875.696,121.566 880.049,118.211 890.73,117.19 887.678,108.546 880.754,107.762 878.01,105.63 881.367,104.128 879.948,95.002 
	885.248,94.077 878.658,94.456 879.049,86.358 873.203,82.525 881.285,80.937 883.47,75.415 887.055,70.97 878.452,71.553 
	877.357,64.941 874.406,59.415 876.207,52.75 881.135,49.971 880.902,47.855 884.545,42.351 875.168,44.021 876.145,36.304 
	880.125,33.559 886.246,31.973 879.947,24.746 878.832,24.955 876.306,19.774 876.336,12.037 "/>
<g>
	<polyline class="st0" points="475.326,754.83 476.958,753.955 474.184,747.286 480.569,752.553 482.066,751.409 481.499,747.93 
		482.069,747.189 483.147,744.982 485.404,740.777 479.867,742.597 484.32,741.244 478.006,738.088 478.957,736.241 485.26,738.597 
		477.403,733.488 488.627,731.189 475.608,732.547 481.089,729.783 480.271,729.699 478.297,728.139 477.281,735.906 
		475.368,734.996 472.135,730.145 480.217,728.587 470.89,724.507 479.156,724.622 471.849,719.036 480.654,722.493 
		476.472,716.666 479.28,723.865 479.846,716.222 477.133,714.473 482.038,714.598 476.617,710.405 485.541,709.288 
		483.303,718.325 480.223,714.794 478.284,715.785 473.854,706.907 468.341,719.253 475.715,712.723 472.52,709.459 473.677,707.73 
		479.062,709.962 477.993,704.919 481.613,707.092 479.324,703.286 483.067,701.968 479.686,699.656 486.984,694.731 
		478.341,694.878 485.686,696.076 477.06,688.725 477.732,686.873 477.009,688.826 477.949,691.281 482.237,684.798 
		476.082,686.472 477.616,684.701 478.114,682.222 480.097,677.744 479.713,679.62 477.802,685.478 479.933,678.282 
		481.953,676.232 486.543,682.699 481.977,675.939 481.05,673.731 486.438,673.756 482.469,673.324 480.297,676.5 480.219,672.85 
		480.007,669.629 477.628,670.492 480.22,660.72 475.006,666.663 473.639,664.907 469.686,666.369 474.797,657.441 471.409,661.024 
		471.454,663.835 473.822,659.613 475.424,665.792 477.689,662.984 479.602,665 485.242,667.141 488.515,662.16 477.76,654.889 
		490.482,660.184 489.977,658.51 486.317,652.147 490.36,653.26 492.971,652.978 495.118,647.295 488.825,652.396 487.125,649.395 
		485.808,643.67 482.979,648.651 480.637,650.158 483.691,641.931 474.471,645.698 484.879,641.232 482.081,636.639 
		476.621,636.889 474.202,637.996 473.161,634.526 470.43,636.66 467.207,640.423 466.174,637.157 467.875,632.376 470.514,643.879 
		472.261,638.463 473.924,631.464 476.059,633.372 478.172,634.8 475.383,632.541 473.792,635.729 475.218,633.386 478.938,630.557 
		479.996,628.286 483.105,630.206 486.494,629.859 478.999,626.915 477.311,625.49 474.153,623.619 482.759,621.921 
		471.862,619.543 474.216,619.673 473.896,621.02 472,620.601 472.134,615.322 472.46,609.577 469.919,614.482 470.658,618.047 
		472.378,607.542 474.505,610.847 476.647,614.695 478.651,613.679 477.479,608.782 479.838,611.178 476.67,607.656 
		487.079,611.321 482.33,604.611 485.894,606.047 486.897,604.392 492.059,607.74 485.68,602.472 484.972,605.759 487.162,600.271 
		488.756,595.493 481.669,601.154 483.185,596.336 480.975,596.067 478.698,596.395 480.106,592.97 480.942,593.668 
		477.043,590.454 478.86,592.167 479.459,596.477 482.583,592.968 488.017,594.906 484.514,589.286 485.202,588.168 
		481.749,588.462 481.146,586.334 480.508,584.223 475.632,584.905 486.287,579.303 479.712,576.586 486.23,578.392 485.48,575.43 
		481.169,570.129 479.746,574.689 482.768,566.162 481.99,572.028 480.032,572.553 478.301,574.12 476.062,572.771 470.221,569.915 
		475.007,569.155 481.084,567.679 472.101,567.178 478.176,563.647 482.019,562.582 480.921,561.821 473.517,557.454 
		477.861,556.635 481.261,559.562 481.82,556.917 484.123,552.365 478.901,552.3 476.5,558.779 474.639,559.678 475.118,550.965 
		468.915,549.87 467.758,547.887 470.537,546.253 478.187,547.641 475.566,543.091 478.85,547.077 482.109,549.708 478.924,537.812 
		480.193,536.017 480.547,536.469 484.447,538.108 484.57,535.861 484.884,533.709 493.525,532.385 486.481,532.189 
		486.009,529.853 482.862,530.316 481.192,530.87 480.388,534.266 478.753,531.055 477.119,527.808 472.148,531.947 
		477.632,523.406 471.363,524.515 469.797,521.306 477.595,524.537 479.96,523.941 480.175,520.354 478.301,516.128 
		482.456,516.812 479.571,512.424 485.67,516.662 481.385,510.196 480.938,515.704 480.044,505.449 482.521,506.178 484.69,508.9 
		474.699,504.808 475.143,502.874 472.599,500.317 485.511,497.642 476.136,503.916 480.866,495.061 469.772,499.621 
		477.366,493.301 471.078,493.943 468.035,486.924 476.052,487.98 478.888,486.104 477.187,497.409 479.406,497.324 
		483.287,492.418 484.202,494.151 484.549,491.833 476.963,496.151 481.964,488.539 478.669,488.778 483.031,486.671 
		477.308,484.058 481.856,485.684 479.303,480.682 487.889,477.492 482.072,487.253 478.13,479.464 477.494,485.811 
		473.885,479.468 472.886,483.579 475.44,483.09 473.993,479.638 482.081,482.776 480.376,479.136 480.11,478.816 481.381,470.041 
		476.216,471.567 475.773,475.266 487.372,471.063 480.763,470.354 480.745,468.376 479.836,466.582 484.938,463.67 
		482.904,464.638 486.082,464.688 485.778,462.121 482.323,457.646 482.043,455.657 477.361,453.905 479.737,454.099 
		479.219,444.554 477.705,448.508 476.489,454.392 475.646,452.992 475.816,453.661 478.011,449.316 479.287,458.234 
		482.181,454.362 478.408,447.526 487.285,453.033 480.916,448.572 483.092,447.816 484.365,444.568 484.574,442.051 
		484.971,439.399 472.542,441.074 483.097,440.67 479.3,436.216 478.942,433.852 482.423,434.826 482.589,431.568 482.005,428.018 
		479.458,430.463 480.39,428.573 479.255,429.876 478.022,428.764 472.792,424.963 475.19,426.547 480.998,422.958 475.988,422.445 
		479.565,419.488 479.993,417.424 472.836,412.846 478.046,417.316 479.137,415.937 480.468,412.176 475.442,415.923 
		470.368,415.218 472.698,413.215 473.572,410.768 471.557,410.017 469.78,409.021 467.65,405.849 474.423,408.892 476.601,408.528 
		477.968,407.022 478.386,406.863 478.186,399.728 479.867,396.503 482.147,405.375 489.086,404.699 480.574,400.462 
		478.649,399.321 486.945,394.083 485.582,391.399 482.986,389.882 483.13,388.738 473.422,390.594 476.036,387.932 475.879,384.61 
		476.052,379.342 470.428,387.069 468.889,385.622 472.596,382.017 465.095,376.734 474.585,385.095 475.035,382.735 
		470.642,374.631 474.268,375.844 476.174,375.15 481.945,381.434 482.756,380.39 482.911,376.389 486.213,379.564 487.044,375.666 
		486.6,370.901 493.072,366.153 491.483,364.831 483.551,367.099 480.902,370.808 482.104,365.074 480.705,368.062 479.449,371.942 
		476.151,363.508 471.381,370.268 478.533,363.316 476.209,361.544 472.13,360.014 472.783,357.856 466.391,356.307 
		465.812,354.313 475.406,354.347 475.032,351.176 477.094,350.739 478.323,354.633 480.309,354.63 481.498,352.904 
		481.321,351.931 482.03,349.25 482.219,345.951 475.989,349.007 471.548,347.762 471.117,345.799 473.904,342.329 471.669,340.625 
		473.323,338.697 479.36,336.469 470.725,334.833 480.799,332.896 471.074,327.226 477.489,336.439 479.407,338.009 
		481.132,336.549 481.705,327.902 482.479,326.149 487.668,330.836 487.331,326.005 493.194,331.837 494.766,324.91 
		488.705,329.675 488.467,321.411 484.314,330.646 483.886,323.229 482.875,318.402 484.52,319.185 484.573,320.783 
		473.728,317.762 473.036,315.585 487.287,311.372 479.474,313.23 482.245,315.307 481.89,312.399 480.813,309.932 489.584,308.92 
		488.874,305.6 485.274,303.908 477.42,306.615 481.313,299.406 479.277,302.819 477.767,301.518 485.245,301.011 481.05,298.269 
		472.11,294.635 473.412,292.913 480.947,291.011 478.219,287.351 476.264,286.986 474.682,284.305 471.433,291.988 
		473.073,289.624 475.02,293.818 473.016,288.236 475.784,288.403 478.187,287.128 474.24,282.471 475.61,280.962 478.094,279.774 
		480.956,285.948 482.296,279.752 484.808,284.24 486.245,278.882 490.507,280.217 492.008,275.361 487.948,274.464 
		481.263,274.471 490.005,267.643 487.127,265.616 484.645,265.81 479.642,271.352 479.472,263.294 477.771,267.621 
		471.193,266.973 474.059,261.635 479.224,270.541 480.864,268.138 481.897,257.127 489.222,264.509 481.394,262.076 
		485.671,256.661 479.386,258.388 473.893,255.869 483.297,255.606 480.224,251.139 486.908,248.081 481.273,252.147 
		480.022,255.902 476.948,250.632 475.875,255.284 476.722,247.938 467.693,249.968 466.211,247.96 476.52,246.35 474.614,244.276 
		473.092,242.313 470.814,240.438 476.119,238.167 476.971,240.969 476.416,230.453 476.294,240.498 479.597,234.786 
		479.945,242.683 480.211,232.947 482.729,235.884 490.348,237.554 480.959,235.316 484.005,232.051 481.836,233.341 
		479.856,231.584 481.126,229.605 474.219,229.311 472.278,226.77 475.481,225.401 485.314,225.54 479.704,222.364 478.272,222.024 
		472.391,217.982 479.056,227.612 476.486,217.878 473.678,221.285 482.587,216.188 474.417,216.769 484.539,211.268 
		482.712,209.736 472.61,206.006 479.115,215.807 481.257,215.251 483.417,213.113 485.554,213.1 487.771,205.422 489.85,211.638 
		491.81,209.526 495.868,203.833 493.678,202.894 489.417,203.613 485.588,203.98 485.098,202.414 484.157,204.024 479.977,197.728 
		481.04,207.414 476.261,199.302 475.722,204.125 471.439,209.812 466.871,204.187 467.814,202.28 474.567,199.707 476.584,198.316 
		477.209,196.733 474.152,193.782 472.908,189.219 475.99,198.338 479.292,189.667 481.567,189.339 485.188,199.887 
		489.258,197.085 486.777,190.39 487.272,187.631 486.79,183.572 491.224,186.535 489.315,187.269 490.666,178.696 484.642,189.07 
		486.514,179.153 481.762,186.24 480.552,188.986 479.746,184.957 476.412,176.085 476,185.152 474.215,185.824 470.131,185.513 
		473.91,182.624 476.687,181.575 469.479,177.018 470.233,175.251 475.304,175.09 479.396,180.757 484.617,177.575 479.6,171.592 
		476.251,169.718 486.422,167.291 482.223,167.579 481.017,164.324 482.968,164.054 485.839,166.965 491.865,166.365 
		484.934,161.59 492.309,158.265 488.672,156.725 487.187,153.316 484.005,149.948 480.875,155.514 478.523,155.827 
		475.433,160.979 474.161,156.091 471.308,160.041 470.471,152.709 469.435,146.475 462.444,153.532 465.827,149.012 
		474.535,152.059 473.004,148.549 475.184,147.409 472.073,142.888 475.771,147.272 476.873,144.384 478.996,145.816 
		479.198,137.667 483.826,143.455 488.794,141.804 482.493,136.303 477.821,131.639 480.468,130.748 486.201,131.343 
		483.448,133.549 481.036,134.472 478.922,134.982 477.969,125.956 476.036,123.95 473.401,128.43 470.886,131.8 469.792,121.994 
		467.277,128.583 468.417,127.427 469.576,125.773 474.271,127.539 474.252,124.732 474.967,122.794 477.453,123.227 
		477.163,119.849 477.63,116.628 480.47,119.272 482.533,118.312 484.003,111.145 486.248,112.048 487.992,116.474 489.726,114.955 
		485.201,114.613 487.521,111.85 480.656,112.326 482.612,113.276 484.22,102.264 481.472,105.881 481.014,101.958 477.339,106.966 
		473.746,105.22 479.843,109.321 477.096,102.808 477.981,102.502 479.021,100.476 478.408,98.702 482.905,96.13 478.717,95.42 
		479.008,89.702 482.33,98.298 481.055,99.59 481.443,98.092 478.886,91.961 479.064,91.976 471.835,92.188 481.941,90.648 
		483.769,88.706 480.538,84.499 471.345,91.065 470.326,88.368 464.378,82.235 474.701,88.804 474.795,78.618 476.617,77.202 
		482.374,84.53 476.896,77.799 474.345,74.66 480.104,74.528 484.874,75.583 488.112,75.748 480.052,74.654 483.166,72.488 
		480.848,70.152 478.428,66.352 475.714,72.661 481.735,68.444 469.105,68.269 477.503,64.282 476.051,62.295 476.592,59.637 
		478.752,58.831 466.633,55.43 468.623,53.582 478.713,55.84 474.036,48.317 477.254,50.182 476.35,48.603 483.713,49.008 
		485.102,49.213 477.626,41.624 484.736,41.463 480.693,41.87 478.287,39.197 477.083,43.306 476.205,49.254 469.976,47.468 
		477.843,42.632 466.646,39.258 479.598,38.934 476.248,37.614 477.193,36.225 476.731,30.254 480.912,35.28 482.69,33.735 
		483.509,31.615 479.901,33.364 485.051,26.338 482.873,25.692 480.991,24.785 476.746,27.369 473.045,30.055 475.537,23.532 
		479.206,19.604 479.073,18.725 470.001,17.824 471.619,15.897 474.427,13.972 470.842,12.022 	"/>
</g>
<g>
	<polyline class="st0" points="998.281,757.82 1000.326,757.488 999.708,753.653 1001.71,753.127 998.326,746.218 1002.509,748.318 
		1010.861,747.79 1002.539,745.978 997.398,747.493 1004.457,739.573 1005.343,741.251 995.939,735.931 997.499,734.563 
		1001.192,734.867 999.163,733.701 997.38,734.423 1009.539,728.954 1004.469,726.337 1000.288,723.284 998.902,727.425 
		997.52,731.631 995.294,727.695 989.51,732.344 995.069,727.5 988.814,723.992 991.15,721.381 1001.559,724.851 998.744,720.825 
		994.902,712.635 999.868,719.842 999.363,714.45 1004.847,717.411 999.933,713.435 1000.545,711.763 1002.058,714.377 
		1003.195,715.206 1001.959,718.994 997.371,709.462 996.04,712.887 998.648,709.48 992.828,711.463 996.687,710.692 
		992.469,707.062 994.775,704.01 999.819,711.115 1001.311,706.074 1002.167,703.794 1002.373,701.646 995.61,700.111 
		996.93,699.008 997.352,694.846 1003.535,694.401 1000.57,690.4 998.731,687.062 1007.81,687.978 1003.425,686.812 
		996.907,690.397 1005.1,681.938 994.643,686.633 998.538,682.435 1003.186,675.747 990.653,676.197 998.642,678.242 
		1000.681,675.217 1002.664,674.791 1002.442,675.151 1007.802,677.761 1011.511,677.196 1009.267,674.518 1007.795,671.452 
		1009.073,664.988 1003.898,668.584 1005.033,662.322 998.543,670.005 996.229,670.371 995.203,667.389 993.178,666.215 
		998.088,657.519 991.497,662.001 992.065,661.016 992.321,661.281 993.986,666.6 996.758,656.915 998.165,665.747 
		1000.035,668.346 1005.148,665.737 997.522,656.587 998.017,654.688 1005.755,656.389 1002.509,650.598 1004.111,649.347 
		1011.15,653.368 1007.527,647.029 1007.598,650.453 1010.795,643.256 1008.231,646.365 1005.101,653.482 1004.078,645.673 
		1002.04,645.03 996.123,650.656 996.014,645.511 992.997,643.952 995.122,643.376 998.265,633.683 995.299,636.609 
		993.133,636.881 991.035,636.908 989.248,635.894 993.732,638.197 988.459,630.551 991.131,642.696 992.524,630.61 
		994.855,636.224 996.664,631.959 998.881,635.365 1006.627,640.83 1004.242,633.661 995.003,633.574 1005.83,629.238 
		1003.177,627.757 999.939,627.379 1004.083,627.522 999.596,624.609 997.901,625.574 991.792,623.513 1004.929,621.973 
		998.353,619.744 1003.873,614.109 995.843,617.994 992.376,621.327 994.267,611.853 988.908,619.68 990.365,614.407 
		991.385,619.671 993.377,618.389 995.393,617.9 997.349,615.421 999.182,608.598 998.78,609.731 995.73,609.075 1008.669,612.628 
		1003.71,608.319 1003.267,604.921 1008.64,608.536 1012.15,609.9 1005.656,599.211 1009.941,602.479 1009.822,600.741 
		1010.755,596.766 1008.313,596.843 1005.379,597.509 1003.354,597.421 1000.774,599.918 998.067,602.128 998.132,594.746 
		1000.109,593.429 999.276,592.25 998.318,596.736 1002.43,587.916 1003.916,595.014 1009.572,595.697 1003.01,587.312 
		1008.988,588.225 1006.843,585.549 1000.067,587.494 1006.376,580.797 1004.051,579.795 1005.553,579.317 1006.99,580.91 
		999.408,573.477 1006.543,575.682 999.882,568.841 1000.451,574.672 1004.996,573.174 1002.087,569.396 1000.666,572.35 
		998.949,573.98 997.887,571.298 1002.889,572.463 998.2,569.688 990.624,568.039 997.301,565.989 997.643,563.967 
		1001.966,562.559 1001.792,561.877 996.422,558.119 995.437,555.454 997.292,555.332 999.529,554.31 1002.95,552.618 
		999.027,558.037 997.488,555.596 996.453,547.953 993.612,552.679 1000.232,550.821 1000.164,548.937 991.085,546.24 
		999.969,548.463 995.234,540.221 1000.477,549.768 997.191,536.356 1004.864,548.683 1005.352,545.274 1008.416,543.732 
		1010.097,540.703 1001.21,533.753 1005.922,533.896 1006.947,533.443 1006.914,532.449 1006.747,529.79 1003.35,530.518 
		1004.081,525.973 1001.062,534.358 1000.055,520.602 997.536,532.202 991.842,533.387 1000.667,522.029 999.719,520.019 
		985.535,520.643 995.82,521.882 991.625,514.188 994.799,514.951 1003.205,519.121 997.189,512.6 996.288,508.497 
		1005.461,515.501 997.063,510.591 1002.725,504.372 1000.818,504.488 1003.64,505.872 996.886,507.145 993.802,504.481 
		1001.39,504.025 1001.283,501.974 996.223,501.336 1002.22,492.492 998.623,497.674 994.628,497.525 992.509,496.08 
		994.622,492.506 998.754,494.052 995.516,491.513 998.245,489.944 997.199,499.349 1002.929,489.062 1002.052,497.984 
		999.168,490.563 1007.453,489.727 1000.74,493.218 1002.743,488.443 1003.199,485.13 1004.257,486.646 1000.57,486.467 
		998.385,481.812 1003.463,483.928 1002.468,482.096 1002.054,484.266 999.272,481.44 997.195,481.626 996.771,488.901 
		995.215,482.378 996.477,483.337 995.143,479.963 995.82,477.975 999.053,477.75 1001.557,480.452 1000.778,475.847 
		1006.877,479.725 999.779,474.626 999.027,472.797 1004.958,469.68 994.745,469.659 1006.047,464.694 992.218,463.989 
		999.348,461.463 1000.926,460.311 1003.452,459.867 997.29,456.374 997.993,456.234 1002.288,453.386 1007.464,445.655 
		1001.41,454.251 998.064,446.449 997.411,455.95 989.939,450.14 996.698,450.756 998.065,458.32 1000.502,450.516 1000.421,448.18 
		1003.167,451.182 999.452,445.409 1008.688,448.824 999.393,450.849 1001.719,446.871 1000.207,445.546 1007.062,438.424 
		993.044,441.085 1002.715,440.024 1000.165,436.328 1001.559,435.031 1008.429,432.929 1001.878,434.765 1001.329,431.128 
		997.827,433.256 999.401,429.635 994.878,428.683 1001.812,433.919 998.411,426.789 1004.729,424.027 993.477,425.287 
		992.617,423.596 991.242,422.048 991.197,420.118 997.61,417.44 999.967,412.612 1002.134,420.126 997.478,418.304 1000.734,414.6 
		1000.566,412.485 1002.363,408.002 994.734,410.282 991.869,410.386 995.555,403.9 988.019,405.82 989.794,401.441 
		994.361,404.434 993.135,399.286 994.652,394.614 998.734,397.04 1000.692,399.454 1002.442,397.559 1009.671,404.635 
		1002.567,399.936 1002.312,398.126 998.216,397.852 1006.327,391.354 1001.488,391.38 1002.354,389.336 997.551,389.178 
		1001.327,383.437 996.726,384.238 995.672,381.722 995.004,378.329 992.988,377.948 982.223,384.199 994.767,387.389 
		995.143,384.948 992.017,378.351 995.815,379.955 998.033,380.254 999.282,379.388 996.969,371.563 1000.072,372.942 
		1003.941,377.394 1004.136,371.681 1005.49,369.279 1014.758,374.083 1003.88,371.746 1012.6,364.583 1010.774,363.393 
		1006.059,361.721 1002.518,363.467 1000.18,360.789 998.795,363.887 997.685,368.663 995.421,366.129 990.398,364.893 
		1001.464,360.727 995.864,359.622 988.838,358.208 990.697,356.033 992.077,353.891 989.338,347.198 996.712,345.997 
		998.262,348.211 999.371,352.729 1000.998,354.577 1008.185,356.995 1008.444,348.426 1000.139,350.649 1000.534,348.053 
		996.473,349.158 1003.295,343.468 992.347,345.586 993.119,342.717 992.133,340.654 991.57,339.015 996.231,336.708 
		1001.651,334.802 997.485,332.91 999.047,333.717 997.396,324.53 999.424,327.772 1001.487,331.556 1003.225,330.486 
		1002.147,324.411 1006.036,326.86 1005.715,322.054 1013.156,330.601 1009.184,325.469 1010.508,324.657 1008.383,324.831 
		1007.678,318.653 1003.569,327.683 1001.275,328.593 1000.415,322.599 1005.237,320.782 996.561,317.942 1001.404,316.228 
		1001.336,314.06 1000.261,312.917 1003.902,318.432 1007.004,313.643 1003.235,310.421 1005.229,308.628 1008.867,305.701 
		1004.516,304.12 1007.99,298.158 1001.713,302.257 999.985,302.526 995.267,303.572 995.749,299.109 996.722,297.333 
		992.707,294.619 1005.798,295.102 998.602,293.208 998.906,287.3 996.588,289.208 993.595,295.323 991.147,298.009 
		995.288,289.227 991.603,288.879 993.102,287.52 993.921,285.336 996.695,285.451 991.69,281.001 996.611,281.108 1001.311,283.35 
		1000.461,275.243 1003.195,281.756 1005.654,285.763 1007.493,284.067 1005.979,277.268 1008.726,276.731 1012.182,273.235 
		1010.217,271.609 1009.044,268.749 1004.906,269.298 999.334,273.414 999.255,274.255 1000.194,265.418 995.297,270.89 
		992.143,266.903 994.488,261.494 999.726,268.032 1001.104,261.928 1003.247,266.639 1011.731,265.136 999.672,263.7 
		997.621,262.566 996.666,260.687 999.019,255.843 999.533,252.898 1000.072,250.633 1008.29,247.719 1001.735,251.07 
		999.534,250.122 998.1,252.968 996.512,255.07 989.646,257.193 990.451,250.039 993.661,248.19 988.499,246.055 998.145,244.25 
		992.075,242.401 991.781,240.422 999.836,238.011 998.352,241.808 994.73,241.333 997.548,237.85 998.713,241.979 
		1001.725,237.622 1006.54,244.435 1002.885,235.599 1000.527,231.835 1010.512,230.811 1005.014,226.809 1002.989,225.811 
		1000.24,236.272 995.311,234.579 992.127,228.679 1005.289,229.582 994.604,225.045 1005.23,225.366 994.325,225.171 
		999.86,219.21 994.773,219.23 999.271,214.998 998.851,219.083 995.2,221.004 1005.231,215.537 1003.831,213.865 997.591,213.803 
		997.738,211.615 999.05,210.515 999.927,202.705 1001.974,211.592 1004.137,209.056 1006.215,215.016 1008.43,207.427 
		1010.527,211.884 1010.015,208.269 1016.339,204 1005.688,209.855 1010.983,202.901 1004.956,205.034 1007.251,197.748 
		1004.132,201.875 1001.689,200.879 1000.765,204.503 996.223,197.113 995.391,201.042 996.433,201.828 988.632,204.065 
		987.113,202.438 988.336,200.496 1000.262,198.532 994.404,195.945 995.236,193.874 995.218,191.547 996.7,198.082 999.19,195.989 
		1001.076,198.814 1005.195,197.211 1005.172,190.766 1006.817,189.542 1005.789,184.763 1008.174,184.507 1019.087,186.237 
		1011.69,182.915 1007.923,187.486 1006.455,186.161 1005.832,182.652 1002.475,186.159 1002.493,176.927 999.799,181.117 
		999.177,188.869 995.679,179.018 995.236,187.92 991.754,184.752 994.918,182.739 997.065,181.469 999.431,180.27 988.518,174.41 
		997.78,177.169 997.349,171.755 997.107,170.982 999.178,171.637 1002.493,169.492 1005.43,167.358 1001.789,166.799 
		1002.962,168.722 1004.641,167.501 1005.815,164.527 1001.625,159.928 1003.578,161.92 1009.725,158.794 1004.769,157.469 
		1007.879,153.304 1004.472,151.353 1000.97,159.364 999.529,153.855 997.747,151.847 996.438,147.163 993.026,154.23 
		990.12,158.468 988.51,155.443 986.265,152.175 986.724,149.151 987.408,147.064 988.481,145.221 995.719,147.316 996.447,147.426 
		996.466,147.316 998.469,146.945 998.021,139.266 999.611,135.851 1004.674,143.685 1008.811,141.461 1001.584,135.483 
		1001.29,133.079 1010.784,135.723 1011.515,128.774 1005.521,126.51 1003.465,125.63 999.639,134.741 998.079,131.226 
		996.283,127.949 994.683,122.865 991.553,131.929 989.497,131.006 991.965,126.803 984.27,122.752 994.644,130.023 
		994.947,127.534 989.856,119.815 993.657,120.581 995.397,119.678 1001.93,125.149 1001.275,124.663 1001.326,121.118 
		1003.851,124.983 1005.661,121.389 1007.319,116.157 1015.235,121.668 1015.082,113.304 1006.91,114.249 1001.282,114.293 
		1007.029,110.315 1004.927,110.884 1003.491,114.699 1002.18,105.634 997.816,112.706 1000.856,103.312 999.133,106.015 
		997.947,103.567 999.666,103.832 993.133,103.361 992.427,101.605 1002.909,98.108 998.144,96.976 997.343,93.996 1000.873,96.49 
		1002.574,95.808 1003.619,95.187 1001.913,94.445 999.606,92.671 999.845,91.862 994.863,92.301 991.39,90.106 991.796,88.096 
		996.003,87.417 993.674,88.55 992.76,85.691 996.07,82.691 993.178,77.603 997.141,87.097 997.012,75.751 1003.638,85.25 
		1007.598,81.767 1007.077,79.43 999.915,74.025 1000.521,71.525 1006.901,74.223 1004.658,71.855 1003.314,64.668 1001.401,68.287 
		999.794,76.463 999.162,69.271 990.055,70.492 996.736,67.118 1000.625,63.468 1000.263,60.409 998.247,59.116 986.769,60.029 
		986.725,55.271 1001.451,56.864 994.727,52.518 997.059,52.472 997.982,50.269 997.781,48.951 1005.458,49.272 1005.583,49.081 
		1004.033,45.416 996.97,45.168 1001.078,40.226 999.839,44.099 997.757,43.274 994.61,36.484 995.889,42.096 987.543,41.243 
		988.742,39.437 996.553,38.463 998.694,38.81 999.549,38.654 1001.924,39.817 1000.713,31.887 1003.937,35.921 1010.645,34.175 
		1004.133,30.268 1004.305,27.58 1003.516,25.725 998.033,27.955 997.841,26.572 997.472,25.22 1002.37,20.532 996.122,21.439 
		999.908,18.691 994.868,17.841 997.731,15.918 999.874,13.99 996.34,12.042 	"/>
</g>
</svg>
