<?xml version="1.0" encoding="utf-8"?>
<!-- Generator: Adobe Illustrator 15.0.0, SVG Export Plug-In . SVG Version: 6.00 Build 0)  -->
<!DOCTYPE svg PUBLIC "-//W3C//DTD SVG 1.1//EN" "http://www.w3.org/Graphics/SVG/1.1/DTD/svg11.dtd">
<svg version="1.1" id="Layer_1" xmlns="http://www.w3.org/2000/svg" xmlns:xlink="http://www.w3.org/1999/xlink" x="0px" y="0px"
	 width="1024px" height="768px" viewBox="0 0 1024 768" style="enable-background:new 0 0 1024 768;" xml:space="preserve">
<style type="text/css">
<![CDATA[
	.st0{fill:none;stroke:#FF5F9F;stroke-miterlimit:10;}
]]>
</style>
<polyline class="st0" points="351.262,754.153 355.631,750.828 359.794,747.284 355.033,741.126 360.072,734.713 358.428,728.649 
	349.44,729.576 350.705,722.793 353.724,718.104 357.474,718.019 360.213,711.462 349.913,714.056 352.595,706.465 356.723,705.701 
	358.188,699.459 356.375,694.908 360.314,688.251 356.597,684.262 356.618,683.352 352.442,678.311 360.326,678.487 
	362.692,671.804 357.385,668.07 352.192,665.558 346.114,660.252 358.396,661.156 360.887,655.94 367.92,648.7 355.414,646.934 
	354.042,640.599 342.55,637.146 356.744,636.395 354.673,626.616 357.287,625.582 353.521,625.717 353.798,617.733 344.964,614.034 
	357.134,613.677 359.487,608.322 366.523,602.48 359.494,596.637 353.219,595.204 353.896,590.919 358.798,592.23 362.457,588.183 
	356.635,579.363 362.299,570.722 352.406,572.907 353.489,567.81 352.063,562.388 353.836,556.453 354.075,556.252 357.068,552.843 
	350.042,552.163 350.708,544.702 355.721,542.937 360.914,540.424 364.708,533.153 359.046,527.758 351.77,527.325 348.413,521.596 
	353.13,517.235 356.325,512.725 359.835,510.039 354.204,509.489 356.215,499.771 353.49,498.482 349.463,490.46 361.214,494.504 
	354.036,486.926 359.257,481.328 349.197,483.681 354.946,475.373 358.205,476.093 356.372,466.553 355.154,463.817 
	359.637,457.839 358.798,450.971 350.476,452.267 358.011,452.79 361.653,448.725 356.102,440.709 359.909,434.457 354.54,432.119 
	352.654,429.156 355.667,427.338 352.608,416.571 356.508,417.601 353.691,417.565 351.973,411.577 346.42,406.052 352.885,401.445 
	360.23,401.085 357.589,394.493 355.687,392.462 353.444,386.998 344.349,382.945 351.478,376.93 356.377,374.123 364.194,371.388 
	360.382,364.658 351.145,366.188 350.007,359.831 349.395,351.737 358.947,353.583 356.059,348.273 354.605,347.326 352.45,341.773 
	351.793,336.721 351.775,331.009 359.014,330.541 368.247,325.174 356.317,322.505 357.02,314.096 355.793,313.609 358.474,314.598 
	360.162,308.58 359.2,302.057 354.152,301.561 355.924,292.081 346.104,290.507 352.329,285.345 354.739,280.048 364.727,278.953 
	361.88,270.724 357.569,267.328 354.442,267.392 353.357,263.264 360.557,262.756 355.875,255.836 359.331,250.163 349.673,252.114 
	349.94,244.286 349.529,236.327 359.377,238.468 362.5,232.733 354.176,232.209 356.453,222.226 353.201,221.175 357.334,221.023 
	353.497,209.479 368.463,209.629 361.865,201.413 350.396,205.174 349.584,198.068 351.041,191.621 359.835,192.708 368.042,186.52 
	357.683,182.485 348.472,183.988 351.64,174.958 356.128,173.599 355.801,165.565 363.296,163.406 361.949,155.109 355.261,154.091 
	342.771,151.856 348.516,142.878 354.191,140.846 357.959,140.293 362.551,131.399 356.116,130.126 343.359,128.747 
	350.313,121.566 354.666,118.211 365.348,117.19 362.294,108.546 355.372,107.762 352.627,105.63 355.984,104.128 354.565,95.002 
	359.865,94.077 353.275,94.456 353.666,86.358 347.821,82.525 355.902,80.937 358.087,75.415 361.671,70.97 353.069,71.553 
	351.975,64.941 349.024,59.415 350.824,52.75 355.752,49.971 355.519,47.855 359.163,42.351 349.786,44.021 350.761,36.304 
	354.742,33.559 360.863,31.973 354.564,24.746 353.45,24.955 350.923,19.774 350.954,12.037 "/>
<polyline class="st0" points="871.941,754.153 876.311,750.828 880.474,747.284 875.713,741.126 880.752,734.713 879.107,728.649 
	870.119,729.576 871.385,722.793 874.403,718.104 878.154,718.019 880.893,711.462 870.592,714.056 873.275,706.465 
	877.402,705.701 878.867,699.459 877.055,694.908 880.994,688.251 877.276,684.262 877.298,683.352 873.121,678.311 
	881.006,678.487 883.372,671.804 878.064,668.07 872.872,665.558 866.793,660.252 879.076,661.156 881.566,655.94 888.6,648.7 
	876.094,646.934 874.722,640.599 863.229,637.146 877.424,636.395 875.353,626.616 877.967,625.582 874.201,625.717 
	874.478,617.733 865.645,614.034 877.814,613.677 880.166,608.322 887.203,602.48 880.174,596.637 873.898,595.204 874.576,590.919 
	879.478,592.23 883.137,588.183 877.314,579.363 882.979,570.722 873.086,572.907 874.169,567.81 872.743,562.388 874.516,556.453 
	874.754,556.252 877.748,552.843 870.721,552.163 871.388,544.702 876.4,542.937 881.594,540.424 885.388,533.153 879.727,527.758 
	872.449,527.325 869.093,521.596 873.81,517.235 877.005,512.725 880.515,510.039 874.884,509.489 876.895,499.771 874.17,498.482 
	870.143,490.46 881.894,494.504 874.715,486.926 879.937,481.328 869.877,483.681 875.625,475.373 878.885,476.093 877.052,466.553 
	875.834,463.817 880.316,457.839 879.478,450.971 871.155,452.267 878.691,452.79 882.332,448.725 876.781,440.709 880.589,434.457 
	875.219,432.119 873.334,429.156 876.348,427.338 873.287,416.571 877.188,417.601 874.371,417.565 872.652,411.577 867.1,406.052 
	873.564,401.445 880.91,401.085 878.27,394.493 876.367,392.462 874.124,386.998 865.028,382.945 872.157,376.93 877.057,374.123 
	884.874,371.388 881.062,364.658 871.824,366.188 870.687,359.831 870.074,351.737 879.627,353.583 876.738,348.273 
	875.285,347.326 873.13,341.773 872.473,336.721 872.455,331.009 879.693,330.541 888.927,325.174 876.997,322.505 877.699,314.096 
	876.473,313.609 879.153,314.598 880.842,308.58 879.88,302.057 874.832,301.561 876.604,292.081 866.784,290.507 873.009,285.345 
	875.419,280.048 885.406,278.953 882.56,270.724 878.248,267.328 875.122,267.392 874.037,263.264 881.236,262.756 876.555,255.836 
	880.011,250.163 870.354,252.114 870.619,244.286 870.209,236.327 880.057,238.468 883.18,232.733 874.855,232.209 877.133,222.226 
	873.881,221.175 878.014,221.023 874.177,209.479 889.143,209.629 882.545,201.413 871.075,205.174 870.264,198.068 
	871.721,191.621 880.516,192.708 888.723,186.52 878.362,182.485 869.152,183.988 872.32,174.958 876.809,173.599 876.48,165.565 
	883.977,163.406 882.629,155.109 875.94,154.091 863.451,151.856 869.195,142.878 874.871,140.846 878.639,140.293 883.23,131.399 
	876.796,130.126 864.039,128.747 870.993,121.566 875.346,118.211 886.027,117.19 882.975,108.546 876.051,107.762 873.307,105.63 
	876.664,104.128 875.245,95.002 880.545,94.077 873.955,94.456 874.346,86.358 868.5,82.525 876.582,80.937 878.767,75.415 
	882.352,70.97 873.749,71.553 872.654,64.941 869.703,59.415 871.504,52.75 876.432,49.971 876.199,47.855 879.842,42.351 
	870.465,44.021 871.441,36.304 875.422,33.559 881.543,31.973 875.244,24.746 874.129,24.955 871.603,19.774 871.633,12.037 "/>
<g>
	<polyline class="st0" points="470.623,754.83 472.255,753.955 469.481,747.286 475.866,752.553 477.363,751.409 476.795,747.93 
		477.366,747.189 478.444,744.982 480.701,740.777 475.164,742.597 479.617,741.244 473.303,738.088 474.253,736.241 
		480.557,738.597 472.7,733.488 483.924,731.189 470.905,732.547 476.386,729.783 475.568,729.699 473.594,728.139 472.578,735.906 
		470.665,734.996 467.432,730.145 475.514,728.587 466.187,724.507 474.453,724.622 467.146,719.036 475.951,722.493 
		471.769,716.666 474.577,723.865 475.143,716.222 472.43,714.473 477.335,714.598 471.914,710.405 480.838,709.288 478.6,718.325 
		475.52,714.794 473.581,715.785 469.151,706.907 463.638,719.253 471.012,712.723 467.817,709.459 468.974,707.73 474.359,709.962 
		473.29,704.919 476.91,707.092 474.621,703.286 478.364,701.968 474.983,699.656 482.281,694.731 473.638,694.878 480.982,696.076 
		472.357,688.725 473.029,686.873 472.306,688.826 473.246,691.281 477.534,684.798 471.378,686.472 472.913,684.701 
		473.411,682.222 475.394,677.744 475.01,679.62 473.099,685.478 475.229,678.282 477.25,676.232 481.84,682.699 477.273,675.939 
		476.347,673.731 481.735,673.756 477.766,673.324 475.594,676.5 475.516,672.85 475.304,669.629 472.925,670.492 475.517,660.72 
		470.303,666.663 468.936,664.907 464.983,666.369 470.094,657.441 466.706,661.024 466.751,663.835 469.119,659.613 
		470.721,665.792 472.986,662.984 474.899,665 480.539,667.141 483.812,662.16 473.057,654.889 485.779,660.184 485.273,658.51 
		481.614,652.147 485.657,653.26 488.268,652.978 490.415,647.295 484.122,652.396 482.421,649.395 481.104,643.67 478.276,648.651 
		475.934,650.158 478.988,641.931 469.768,645.698 480.176,641.232 477.377,636.639 471.918,636.889 469.499,637.996 
		468.458,634.526 465.727,636.66 462.503,640.423 461.471,637.157 463.172,632.376 465.811,643.879 467.558,638.463 
		469.221,631.464 471.356,633.372 473.469,634.8 470.68,632.541 469.089,635.729 470.515,633.386 474.235,630.557 475.292,628.286 
		478.402,630.206 481.791,629.859 474.295,626.915 472.608,625.49 469.45,623.619 478.056,621.921 467.159,619.543 469.513,619.673 
		469.193,621.02 467.297,620.601 467.431,615.322 467.757,609.577 465.216,614.482 465.955,618.047 467.675,607.542 
		469.802,610.847 471.944,614.695 473.948,613.679 472.776,608.782 475.135,611.178 471.967,607.656 482.375,611.321 
		477.627,604.611 481.19,606.047 482.194,604.392 487.355,607.74 480.977,602.472 480.269,605.759 482.459,600.271 484.053,595.493 
		476.966,601.154 478.481,596.336 476.271,596.067 473.995,596.395 475.403,592.97 476.239,593.668 472.34,590.454 474.157,592.167 
		474.756,596.477 477.879,592.968 483.313,594.906 479.811,589.286 480.499,588.168 477.046,588.462 476.443,586.334 
		475.805,584.223 470.929,584.905 481.584,579.303 475.009,576.586 481.527,578.392 480.777,575.43 476.466,570.129 
		475.043,574.689 478.064,566.162 477.287,572.028 475.329,572.553 473.598,574.12 471.359,572.771 465.518,569.915 
		470.304,569.155 476.381,567.679 467.398,567.178 473.473,563.647 477.316,562.582 476.218,561.821 468.813,557.454 
		473.158,556.635 476.558,559.562 477.117,556.917 479.419,552.365 474.198,552.3 471.797,558.779 469.936,559.678 470.415,550.965 
		464.212,549.87 463.055,547.887 465.833,546.253 473.483,547.641 470.863,543.091 474.146,547.077 477.406,549.708 
		474.221,537.812 475.49,536.017 475.844,536.469 479.744,538.108 479.867,535.861 480.181,533.709 488.822,532.385 
		481.778,532.189 481.306,529.853 478.159,530.316 476.489,530.87 475.685,534.266 474.05,531.055 472.416,527.808 467.445,531.947 
		472.929,523.406 466.66,524.515 465.094,521.306 472.892,524.537 475.257,523.941 475.472,520.354 473.598,516.128 
		477.753,516.812 474.868,512.424 480.967,516.662 476.682,510.196 476.235,515.704 475.341,505.449 477.818,506.178 479.987,508.9 
		469.996,504.808 470.44,502.874 467.896,500.317 480.808,497.642 471.433,503.916 476.163,495.061 465.069,499.621 
		472.663,493.301 466.375,493.943 463.332,486.924 471.349,487.98 474.185,486.104 472.483,497.409 474.703,497.324 
		478.584,492.418 479.499,494.151 479.846,491.833 472.26,496.151 477.261,488.539 473.966,488.778 478.328,486.671 
		472.604,484.058 477.153,485.684 474.6,480.682 483.186,477.492 477.369,487.253 473.427,479.464 472.791,485.811 469.182,479.468 
		468.183,483.579 470.737,483.09 469.29,479.638 477.378,482.776 475.673,479.136 475.407,478.816 476.678,470.041 471.513,471.567 
		471.07,475.266 482.668,471.063 476.06,470.354 476.042,468.376 475.133,466.582 480.234,463.67 478.201,464.638 481.379,464.688 
		481.075,462.121 477.62,457.646 477.34,455.657 472.658,453.905 475.034,454.099 474.516,444.554 473.002,448.508 471.786,454.392 
		470.943,452.992 471.113,453.661 473.308,449.316 474.584,458.234 477.478,454.362 473.705,447.526 482.582,453.033 
		476.213,448.572 478.389,447.816 479.662,444.568 479.871,442.051 480.268,439.399 467.839,441.074 478.394,440.67 
		474.597,436.216 474.239,433.852 477.72,434.826 477.886,431.568 477.302,428.018 474.755,430.463 475.687,428.573 
		474.552,429.876 473.319,428.764 468.089,424.963 470.487,426.547 476.294,422.958 471.285,422.445 474.862,419.488 
		475.29,417.424 468.133,412.846 473.343,417.316 474.434,415.937 475.765,412.176 470.739,415.923 465.665,415.218 
		467.995,413.215 468.869,410.768 466.854,410.017 465.077,409.021 462.947,405.849 469.72,408.892 471.897,408.528 
		473.265,407.022 473.683,406.863 473.483,399.728 475.164,396.503 477.444,405.375 484.383,404.699 475.871,400.462 
		473.946,399.321 482.242,394.083 480.879,391.399 478.283,389.882 478.427,388.738 468.719,390.594 471.333,387.932 
		471.176,384.61 471.349,379.342 465.725,387.069 464.186,385.622 467.893,382.017 460.392,376.734 469.882,385.095 
		470.332,382.735 465.939,374.631 469.564,375.844 471.471,375.15 477.242,381.434 478.053,380.39 478.208,376.389 481.51,379.564 
		482.341,375.666 481.896,370.901 488.369,366.153 486.78,364.831 478.848,367.099 476.199,370.808 477.4,365.074 476.002,368.062 
		474.746,371.942 471.448,363.508 466.678,370.268 473.83,363.316 471.506,361.544 467.427,360.014 468.08,357.856 461.688,356.307 
		461.109,354.313 470.703,354.347 470.329,351.176 472.391,350.739 473.62,354.633 475.605,354.63 476.795,352.904 476.618,351.931 
		477.327,349.25 477.516,345.951 471.286,349.007 466.845,347.762 466.414,345.799 469.201,342.329 466.966,340.625 468.62,338.697 
		474.657,336.469 466.021,334.833 476.096,332.896 466.371,327.226 472.786,336.439 474.704,338.009 476.429,336.549 
		477.002,327.902 477.776,326.149 482.965,330.836 482.627,326.005 488.491,331.837 490.062,324.91 484.002,329.675 
		483.764,321.411 479.611,330.646 479.183,323.229 478.172,318.402 479.817,319.185 479.87,320.783 469.024,317.762 
		468.333,315.585 482.584,311.372 474.771,313.23 477.542,315.307 477.187,312.399 476.11,309.932 484.881,308.92 484.17,305.6 
		480.571,303.908 472.717,306.615 476.61,299.406 474.574,302.819 473.063,301.518 480.542,301.011 476.347,298.269 
		467.407,294.635 468.708,292.913 476.244,291.011 473.516,287.351 471.561,286.986 469.979,284.305 466.73,291.988 468.37,289.624 
		470.316,293.818 468.312,288.236 471.081,288.403 473.483,287.128 469.537,282.471 470.907,280.962 473.391,279.774 
		476.252,285.948 477.593,279.752 480.105,284.24 481.542,278.882 485.804,280.217 487.305,275.361 483.245,274.464 476.56,274.471 
		485.302,267.643 482.424,265.616 479.941,265.81 474.939,271.352 474.769,263.294 473.067,267.621 466.49,266.973 469.356,261.635 
		474.521,270.541 476.161,268.138 477.194,257.127 484.519,264.509 476.69,262.076 480.968,256.661 474.683,258.388 
		469.189,255.869 478.594,255.606 475.521,251.139 482.205,248.081 476.57,252.147 475.319,255.902 472.245,250.632 
		471.172,255.284 472.019,247.938 462.99,249.968 461.508,247.96 471.816,246.35 469.911,244.276 468.389,242.313 466.111,240.438 
		471.416,238.167 472.268,240.969 471.713,230.453 471.591,240.498 474.894,234.786 475.242,242.683 475.508,232.947 
		478.026,235.884 485.645,237.554 476.256,235.316 479.302,232.051 477.133,233.341 475.153,231.584 476.423,229.605 
		469.516,229.311 467.575,226.77 470.778,225.401 480.611,225.54 475.001,222.364 473.569,222.024 467.688,217.982 474.353,227.612 
		471.783,217.878 468.975,221.285 477.884,216.188 469.714,216.769 479.835,211.268 478.009,209.736 467.907,206.006 
		474.412,215.807 476.554,215.251 478.713,213.113 480.851,213.1 483.067,205.422 485.147,211.638 487.107,209.526 491.165,203.833 
		488.975,202.894 484.714,203.613 480.885,203.98 480.395,202.414 479.454,204.024 475.273,197.728 476.336,207.414 
		471.558,199.302 471.019,204.125 466.736,209.812 462.168,204.187 463.111,202.28 469.864,199.707 471.881,198.316 
		472.506,196.733 469.449,193.782 468.205,189.219 471.287,198.338 474.589,189.667 476.864,189.339 480.485,199.887 
		484.555,197.085 482.074,190.39 482.569,187.631 482.087,183.572 486.521,186.535 484.612,187.269 485.962,178.696 479.938,189.07 
		481.811,179.153 477.059,186.24 475.849,188.986 475.042,184.957 471.709,176.085 471.297,185.152 469.512,185.824 
		465.428,185.513 469.207,182.624 471.984,181.575 464.776,177.018 465.53,175.251 470.601,175.09 474.693,180.757 479.914,177.575 
		474.896,171.592 471.548,169.718 481.719,167.291 477.52,167.579 476.314,164.324 478.265,164.054 481.136,166.965 
		487.162,166.365 480.23,161.59 487.606,158.265 483.969,156.725 482.484,153.316 479.302,149.948 476.172,155.514 473.82,155.827 
		470.729,160.979 469.458,156.091 466.605,160.041 465.768,152.709 464.732,146.475 457.741,153.532 461.124,149.012 
		469.832,152.059 468.301,148.549 470.481,147.409 467.37,142.888 471.068,147.272 472.169,144.384 474.293,145.816 
		474.495,137.667 479.123,143.455 484.091,141.804 477.79,136.303 473.118,131.639 475.765,130.748 481.498,131.343 
		478.745,133.549 476.333,134.472 474.219,134.982 473.266,125.956 471.333,123.95 468.698,128.43 466.183,131.8 465.089,121.994 
		462.574,128.583 463.713,127.427 464.873,125.773 469.568,127.539 469.549,124.732 470.264,122.794 472.75,123.227 
		472.459,119.849 472.927,116.628 475.767,119.272 477.83,118.312 479.3,111.145 481.544,112.048 483.289,116.474 485.022,114.955 
		480.498,114.613 482.817,111.85 475.953,112.326 477.909,113.276 479.517,102.264 476.769,105.881 476.311,101.958 
		472.636,106.966 469.043,105.22 475.14,109.321 472.393,102.808 473.278,102.502 474.317,100.476 473.705,98.702 478.202,96.13 
		474.014,95.42 474.305,89.702 477.626,98.298 476.352,99.59 476.74,98.092 474.183,91.961 474.361,91.976 467.132,92.188 
		477.238,90.648 479.065,88.706 475.834,84.499 466.642,91.065 465.623,88.368 459.675,82.235 469.998,88.804 470.092,78.618 
		471.914,77.202 477.67,84.53 472.192,77.799 469.642,74.66 475.4,74.528 480.17,75.583 483.409,75.748 475.349,74.654 
		478.462,72.488 476.145,70.152 473.725,66.352 471.011,72.661 477.032,68.444 464.402,68.269 472.8,64.282 471.348,62.295 
		471.889,59.637 474.049,58.831 461.93,55.43 463.919,53.582 474.01,55.84 469.333,48.317 472.551,50.182 471.647,48.603 
		479.01,49.008 480.398,49.213 472.923,41.624 480.033,41.463 475.99,41.87 473.583,39.197 472.38,43.306 471.501,49.254 
		465.272,47.468 473.14,42.632 461.942,39.258 474.895,38.934 471.544,37.614 472.49,36.225 472.028,30.254 476.209,35.28 
		477.987,33.735 478.806,31.615 475.198,33.364 480.348,26.338 478.17,25.692 476.288,24.785 472.042,27.369 468.342,30.055 
		470.833,23.532 474.503,19.604 474.37,18.725 465.298,17.824 466.916,15.897 469.724,13.972 466.139,12.022 	"/>
</g>
<g>
	<polyline class="st0" points="993.578,757.82 995.623,757.488 995.005,753.653 997.007,753.127 993.623,746.218 997.806,748.318 
		1006.158,747.79 997.836,745.978 992.695,747.493 999.754,739.573 1000.64,741.251 991.236,735.931 992.796,734.563 
		996.489,734.867 994.46,733.701 992.677,734.423 1004.836,728.954 999.766,726.337 995.585,723.284 994.199,727.425 
		992.816,731.631 990.591,727.695 984.807,732.344 990.366,727.5 984.111,723.992 986.447,721.381 996.855,724.851 994.041,720.825 
		990.199,712.635 995.165,719.842 994.66,714.45 1000.144,717.411 995.229,713.435 995.842,711.763 997.354,714.377 
		998.492,715.206 997.256,718.994 992.668,709.462 991.337,712.887 993.945,709.48 988.125,711.463 991.983,710.692 
		987.766,707.062 990.072,704.01 995.116,711.115 996.607,706.074 997.464,703.794 997.67,701.646 990.907,700.111 992.227,699.008 
		992.648,694.846 998.832,694.401 995.867,690.4 994.028,687.062 1003.106,687.978 998.722,686.812 992.204,690.397 
		1000.396,681.938 989.939,686.633 993.835,682.435 998.482,675.747 985.95,676.197 993.938,678.242 995.978,675.217 
		997.961,674.791 997.739,675.151 1003.099,677.761 1006.808,677.196 1004.563,674.518 1003.092,671.452 1004.37,664.988 
		999.195,668.584 1000.33,662.322 993.84,670.005 991.526,670.371 990.5,667.389 988.475,666.215 993.385,657.519 986.794,662.001 
		987.362,661.016 987.618,661.281 989.283,666.6 992.055,656.915 993.462,665.747 995.332,668.346 1000.445,665.737 
		992.819,656.587 993.313,654.688 1001.052,656.389 997.806,650.598 999.408,649.347 1006.447,653.368 1002.824,647.029 
		1002.895,650.453 1006.092,643.256 1003.528,646.365 1000.397,653.482 999.375,645.673 997.337,645.03 991.42,650.656 
		991.311,645.511 988.294,643.952 990.419,643.376 993.562,633.683 990.596,636.609 988.43,636.881 986.332,636.908 
		984.545,635.894 989.029,638.197 983.756,630.551 986.428,642.696 987.821,630.61 990.152,636.224 991.961,631.959 
		994.178,635.365 1001.924,640.83 999.539,633.661 990.3,633.574 1001.127,629.238 998.474,627.757 995.236,627.379 999.38,627.522 
		994.893,624.609 993.198,625.574 987.089,623.513 1000.226,621.973 993.649,619.744 999.17,614.109 991.14,617.994 
		987.673,621.327 989.563,611.853 984.205,619.68 985.662,614.407 986.682,619.671 988.674,618.389 990.689,617.9 992.646,615.421 
		994.479,608.598 994.077,609.731 991.027,609.075 1003.966,612.628 999.007,608.319 998.563,604.921 1003.937,608.536 
		1007.447,609.9 1000.953,599.211 1005.238,602.479 1005.119,600.741 1006.052,596.766 1003.61,596.843 1000.676,597.509 
		998.65,597.421 996.071,599.918 993.364,602.128 993.429,594.746 995.406,593.429 994.573,592.25 993.615,596.736 997.727,587.916 
		999.213,595.014 1004.869,595.697 998.307,587.312 1004.285,588.225 1002.14,585.549 995.364,587.494 1001.673,580.797 
		999.348,579.795 1000.85,579.317 1002.287,580.91 994.705,573.477 1001.84,575.682 995.179,568.841 995.748,574.672 
		1000.293,573.174 997.384,569.396 995.963,572.35 994.246,573.98 993.184,571.298 998.186,572.463 993.497,569.688 
		985.921,568.039 992.598,565.989 992.939,563.967 997.263,562.559 997.089,561.877 991.719,558.119 990.733,555.454 
		992.589,555.332 994.826,554.31 998.247,552.618 994.324,558.037 992.785,555.596 991.75,547.953 988.909,552.679 995.529,550.821 
		995.461,548.937 986.382,546.24 995.266,548.463 990.531,540.221 995.773,549.768 992.488,536.356 1000.161,548.683 
		1000.648,545.274 1003.713,543.732 1005.394,540.703 996.507,533.753 1001.219,533.896 1002.244,533.443 1002.211,532.449 
		1002.044,529.79 998.646,530.518 999.378,525.973 996.359,534.358 995.352,520.602 992.833,532.202 987.139,533.387 
		995.964,522.029 995.016,520.019 980.832,520.643 991.117,521.882 986.922,514.188 990.096,514.951 998.502,519.121 992.486,512.6 
		991.585,508.497 1000.758,515.501 992.36,510.591 998.021,504.372 996.115,504.488 998.937,505.872 992.183,507.145 
		989.099,504.481 996.687,504.025 996.58,501.974 991.52,501.336 997.517,492.492 993.92,497.674 989.925,497.525 987.806,496.08 
		989.919,492.506 994.051,494.052 990.812,491.513 993.542,489.944 992.496,499.349 998.226,489.062 997.349,497.984 
		994.465,490.563 1002.75,489.727 996.037,493.218 998.04,488.443 998.496,485.13 999.554,486.646 995.867,486.467 993.682,481.812 
		998.76,483.928 997.765,482.096 997.351,484.266 994.569,481.44 992.492,481.626 992.068,488.901 990.512,482.378 991.773,483.337 
		990.439,479.963 991.117,477.975 994.35,477.75 996.854,480.452 996.075,475.847 1002.174,479.725 995.076,474.626 
		994.324,472.797 1000.255,469.68 990.042,469.659 1001.344,464.694 987.515,463.989 994.645,461.463 996.223,460.311 
		998.749,459.867 992.587,456.374 993.29,456.234 997.585,453.386 1002.761,445.655 996.707,454.251 993.361,446.449 
		992.708,455.95 985.236,450.14 991.995,450.756 993.362,458.32 995.799,450.516 995.718,448.18 998.464,451.182 994.749,445.409 
		1003.984,448.824 994.689,450.849 997.016,446.871 995.504,445.546 1002.359,438.424 988.341,441.085 998.012,440.024 
		995.462,436.328 996.855,435.031 1003.726,432.929 997.175,434.765 996.626,431.128 993.124,433.256 994.698,429.635 
		990.175,428.683 997.109,433.919 993.708,426.789 1000.025,424.027 988.773,425.287 987.914,423.596 986.539,422.048 
		986.494,420.118 992.907,417.44 995.264,412.612 997.431,420.126 992.774,418.304 996.031,414.6 995.863,412.485 997.66,408.002 
		990.031,410.282 987.166,410.386 990.852,403.9 983.315,405.82 985.091,401.441 989.658,404.434 988.432,399.286 989.949,394.614 
		994.031,397.04 995.989,399.454 997.739,397.559 1004.968,404.635 997.864,399.936 997.608,398.126 993.513,397.852 
		1001.624,391.354 996.785,391.38 997.65,389.336 992.848,389.178 996.624,383.437 992.022,384.238 990.969,381.722 
		990.301,378.329 988.285,377.948 977.52,384.199 990.063,387.389 990.439,384.948 987.313,378.351 991.112,379.955 993.33,380.254 
		994.579,379.388 992.266,371.563 995.369,372.942 999.238,377.394 999.433,371.681 1000.787,369.279 1010.055,374.083 
		999.177,371.746 1007.896,364.583 1006.071,363.393 1001.355,361.721 997.814,363.467 995.477,360.789 994.092,363.887 
		992.981,368.663 990.718,366.129 985.695,364.893 996.761,360.727 991.161,359.622 984.135,358.208 985.994,356.033 
		987.374,353.891 984.635,347.198 992.009,345.997 993.559,348.211 994.668,352.729 996.295,354.577 1003.481,356.995 
		1003.741,348.426 995.436,350.649 995.831,348.053 991.77,349.158 998.592,343.468 987.644,345.586 988.416,342.717 
		987.43,340.654 986.867,339.015 991.528,336.708 996.948,334.802 992.782,332.91 994.344,333.717 992.693,324.53 994.721,327.772 
		996.784,331.556 998.521,330.486 997.444,324.411 1001.333,326.86 1001.012,322.054 1008.453,330.601 1004.48,325.469 
		1005.805,324.657 1003.68,324.831 1002.975,318.653 998.866,327.683 996.572,328.593 995.712,322.599 1000.534,320.782 
		991.857,317.942 996.701,316.228 996.633,314.06 995.558,312.917 999.199,318.432 1002.301,313.643 998.532,310.421 
		1000.526,308.628 1004.164,305.701 999.812,304.12 1003.287,298.158 997.01,302.257 995.282,302.526 990.563,303.572 
		991.046,299.109 992.019,297.333 988.004,294.619 1001.095,295.102 993.898,293.208 994.203,287.3 991.885,289.208 
		988.892,295.323 986.444,298.009 990.585,289.227 986.899,288.879 988.398,287.52 989.218,285.336 991.992,285.451 
		986.987,281.001 991.908,281.108 996.607,283.35 995.758,275.243 998.492,281.756 1000.951,285.763 1002.79,284.067 
		1001.275,277.268 1004.022,276.731 1007.479,273.235 1005.514,271.609 1004.341,268.749 1000.203,269.298 994.631,273.414 
		994.552,274.255 995.491,265.418 990.594,270.89 987.439,266.903 989.785,261.494 995.022,268.032 996.401,261.928 
		998.544,266.639 1007.028,265.136 994.969,263.7 992.918,262.566 991.963,260.687 994.315,255.843 994.83,252.898 995.369,250.633 
		1003.587,247.719 997.032,251.07 994.831,250.122 993.396,252.968 991.809,255.07 984.943,257.193 985.748,250.039 988.958,248.19 
		983.796,246.055 993.441,244.25 987.372,242.401 987.078,240.422 995.133,238.011 993.648,241.808 990.027,241.333 992.845,237.85 
		994.01,241.979 997.021,237.622 1001.837,244.435 998.182,235.599 995.824,231.835 1005.809,230.811 1000.311,226.809 
		998.286,225.811 995.537,236.272 990.607,234.579 987.424,228.679 1000.586,229.582 989.901,225.045 1000.527,225.366 
		989.622,225.171 995.157,219.21 990.07,219.23 994.568,214.998 994.147,219.083 990.497,221.004 1000.528,215.537 999.128,213.865 
		992.888,213.803 993.035,211.615 994.347,210.515 995.224,202.705 997.271,211.592 999.434,209.056 1001.512,215.016 
		1003.727,207.427 1005.824,211.884 1005.312,208.269 1011.636,204 1000.985,209.855 1006.28,202.901 1000.253,205.034 
		1002.548,197.748 999.429,201.875 996.986,200.879 996.062,204.503 991.52,197.113 990.688,201.042 991.729,201.828 
		983.929,204.065 982.41,202.438 983.633,200.496 995.559,198.532 989.701,195.945 990.533,193.874 990.515,191.547 
		991.997,198.082 994.487,195.989 996.373,198.814 1000.492,197.211 1000.469,190.766 1002.114,189.542 1001.086,184.763 
		1003.471,184.507 1014.384,186.237 1006.987,182.915 1003.22,187.486 1001.752,186.161 1001.129,182.652 997.771,186.159 
		997.79,176.927 995.096,181.117 994.474,188.869 990.976,179.018 990.533,187.92 987.051,184.752 990.215,182.739 992.362,181.469 
		994.728,180.27 983.814,174.41 993.077,177.169 992.646,171.755 992.404,170.982 994.475,171.637 997.79,169.492 1000.727,167.358 
		997.086,166.799 998.259,168.722 999.938,167.501 1001.112,164.527 996.922,159.928 998.875,161.92 1005.021,158.794 
		1000.065,157.469 1003.176,153.304 999.769,151.353 996.267,159.364 994.826,153.855 993.044,151.847 991.734,147.163 
		988.323,154.23 985.417,158.468 983.807,155.443 981.562,152.175 982.021,149.151 982.705,147.064 983.778,145.221 
		991.016,147.316 991.744,147.426 991.763,147.316 993.766,146.945 993.317,139.266 994.908,135.851 999.971,143.685 
		1004.107,141.461 996.881,135.483 996.587,133.079 1006.081,135.723 1006.812,128.774 1000.817,126.51 998.762,125.63 
		994.936,134.741 993.376,131.226 991.58,127.949 989.979,122.865 986.85,131.929 984.794,131.006 987.262,126.803 979.566,122.752 
		989.94,130.023 990.244,127.534 985.153,119.815 988.954,120.581 990.694,119.678 997.227,125.149 996.572,124.663 
		996.623,121.118 999.147,124.983 1000.958,121.389 1002.616,116.157 1010.532,121.668 1010.379,113.304 1002.207,114.249 
		996.579,114.293 1002.326,110.315 1000.224,110.884 998.788,114.699 997.477,105.634 993.113,112.706 996.153,103.312 
		994.43,106.015 993.244,103.567 994.963,103.832 988.43,103.361 987.724,101.605 998.206,98.108 993.44,96.976 992.64,93.996 
		996.17,96.49 997.871,95.808 998.916,95.187 997.21,94.445 994.903,92.671 995.142,91.862 990.16,92.301 986.687,90.106 
		987.093,88.096 991.3,87.417 988.971,88.55 988.057,85.691 991.367,82.691 988.475,77.603 992.438,87.097 992.309,75.751 
		998.935,85.25 1002.895,81.767 1002.374,79.43 995.212,74.025 995.818,71.525 1002.198,74.223 999.955,71.855 998.611,64.668 
		996.698,68.287 995.091,76.463 994.459,69.271 985.352,70.492 992.033,67.118 995.922,63.468 995.56,60.409 993.544,59.116 
		982.065,60.029 982.021,55.271 996.748,56.864 990.023,52.518 992.355,52.472 993.279,50.269 993.078,48.951 1000.755,49.272 
		1000.88,49.081 999.33,45.416 992.267,45.168 996.375,40.226 995.136,44.099 993.054,43.274 989.907,36.484 991.186,42.096 
		982.84,41.243 984.039,39.437 991.85,38.463 993.991,38.81 994.846,38.654 997.221,39.817 996.01,31.887 999.233,35.921 
		1005.941,34.175 999.43,30.268 999.602,27.58 998.812,25.725 993.33,27.955 993.138,26.572 992.769,25.22 997.667,20.532 
		991.419,21.439 995.205,18.691 990.165,17.841 993.028,15.918 995.171,13.99 991.637,12.042 	"/>
</g>
</svg>
