<?xml version="1.0" encoding="utf-8"?>
<!-- Generator: Adobe Illustrator 15.0.0, SVG Export Plug-In . SVG Version: 6.00 Build 0)  -->
<!DOCTYPE svg PUBLIC "-//W3C//DTD SVG 1.1//EN" "http://www.w3.org/Graphics/SVG/1.1/DTD/svg11.dtd">
<svg version="1.1" id="Layer_1" xmlns="http://www.w3.org/2000/svg" xmlns:xlink="http://www.w3.org/1999/xlink" x="0px" y="0px"
	 width="1024px" height="768px" viewBox="0 0 1024 768" style="enable-background:new 0 0 1024 768;" xml:space="preserve">
<style type="text/css">
<![CDATA[
	.st0{fill:none;stroke:#FF5F9F;stroke-miterlimit:10;}
]]>
</style>
<polyline class="st0" points="311.231,754.153 315.6,750.828 319.763,747.284 315.002,741.126 320.041,734.713 318.397,728.649 
	309.409,729.576 310.674,722.793 313.692,718.104 317.443,718.019 320.182,711.462 309.881,714.056 312.564,706.465 
	316.692,705.701 318.156,699.459 316.343,694.908 320.283,688.251 316.565,684.262 316.587,683.352 312.411,678.311 
	320.295,678.487 322.661,671.804 317.354,668.07 312.161,665.558 306.083,660.252 318.365,661.156 320.856,655.94 327.889,648.7 
	315.383,646.934 314.011,640.599 302.519,637.146 316.713,636.395 314.642,626.616 317.256,625.582 313.49,625.717 313.767,617.733 
	304.933,614.034 317.103,613.677 319.456,608.322 326.492,602.48 319.462,596.637 313.188,595.204 313.865,590.919 318.767,592.23 
	322.426,588.183 316.604,579.363 322.268,570.722 312.375,572.907 313.458,567.81 312.032,562.388 313.805,556.453 314.043,556.252 
	317.037,552.843 310.01,552.163 310.677,544.702 315.69,542.937 320.882,540.424 324.677,533.153 319.015,527.758 311.739,527.325 
	308.382,521.596 313.099,517.235 316.294,512.725 319.804,510.039 314.173,509.489 316.184,499.771 313.458,498.482 309.432,490.46 
	321.183,494.504 314.004,486.926 319.226,481.328 309.166,483.681 314.915,475.373 318.173,476.093 316.341,466.553 
	315.123,463.817 319.605,457.839 318.767,450.971 310.444,452.267 317.98,452.79 321.622,448.725 316.07,440.709 319.878,434.457 
	314.508,432.119 312.623,429.156 315.636,427.338 312.577,416.571 316.477,417.601 313.66,417.565 311.941,411.577 306.389,406.052 
	312.854,401.445 320.199,401.085 317.558,394.493 315.656,392.462 313.413,386.998 304.317,382.945 311.446,376.93 316.346,374.123 
	324.163,371.388 320.351,364.658 311.113,366.188 309.976,359.831 309.363,351.737 318.916,353.583 316.027,348.273 
	314.574,347.326 312.419,341.773 311.762,336.721 311.744,331.009 318.983,330.541 328.216,325.174 316.286,322.505 
	316.988,314.096 315.762,313.609 318.442,314.598 320.13,308.58 319.169,302.057 314.121,301.561 315.893,292.081 306.073,290.507 
	312.298,285.345 314.708,280.048 324.696,278.953 321.849,270.724 317.538,267.328 314.411,267.392 313.326,263.264 
	320.525,262.756 315.843,255.836 319.3,250.163 309.642,252.114 309.909,244.286 309.498,236.327 319.346,238.468 322.469,232.733 
	314.145,232.209 316.422,222.226 313.17,221.175 317.303,221.023 313.466,209.479 328.432,209.629 321.833,201.413 310.364,205.174 
	309.553,198.068 311.01,191.621 319.804,192.708 328.011,186.52 317.651,182.485 308.441,183.988 311.609,174.958 316.097,173.599 
	315.77,165.565 323.265,163.406 321.917,155.109 315.229,154.091 302.74,151.856 308.485,142.878 314.16,140.846 317.928,140.293 
	322.52,131.399 316.085,130.126 303.328,128.747 310.282,121.566 314.634,118.211 325.316,117.19 322.263,108.546 315.34,107.762 
	312.596,105.63 315.953,104.128 314.534,95.002 319.833,94.077 313.244,94.456 313.635,86.358 307.79,82.525 315.871,80.937 
	318.056,75.415 321.64,70.97 313.038,71.553 311.943,64.941 308.993,59.415 310.793,52.75 315.721,49.971 315.488,47.855 
	319.131,42.351 309.754,44.021 310.73,36.304 314.71,33.559 320.832,31.973 314.533,24.746 313.418,24.955 310.892,19.774 
	310.922,12.037 "/>
<polyline class="st0" points="831.91,754.153 836.279,750.828 840.442,747.284 835.682,741.126 840.721,734.713 839.076,728.649 
	830.088,729.576 831.354,722.793 834.372,718.104 838.123,718.019 840.861,711.462 830.561,714.056 833.244,706.465 
	837.371,705.701 838.836,699.459 837.023,694.908 840.963,688.251 837.245,684.262 837.267,683.352 833.09,678.311 840.975,678.487 
	843.341,671.804 838.033,668.07 832.841,665.558 826.762,660.252 839.045,661.156 841.535,655.94 848.568,648.7 836.062,646.934 
	834.69,640.599 823.198,637.146 837.393,636.395 835.321,626.616 837.936,625.582 834.17,625.717 834.446,617.733 825.613,614.034 
	837.783,613.677 840.135,608.322 847.172,602.48 840.143,596.637 833.867,595.204 834.545,590.919 839.446,592.23 843.105,588.183 
	837.283,579.363 842.947,570.722 833.055,572.907 834.138,567.81 832.712,562.388 834.484,556.453 834.723,556.252 837.717,552.843 
	830.689,552.163 831.356,544.702 836.369,542.937 841.562,540.424 845.356,533.153 839.695,527.758 832.418,527.325 
	829.062,521.596 833.778,517.235 836.974,512.725 840.483,510.039 834.853,509.489 836.863,499.771 834.139,498.482 830.111,490.46 
	841.862,494.504 834.684,486.926 839.905,481.328 829.846,483.681 835.594,475.373 838.854,476.093 837.021,466.553 
	835.803,463.817 840.285,457.839 839.446,450.971 831.124,452.267 838.66,452.79 842.301,448.725 836.75,440.709 840.558,434.457 
	835.188,432.119 833.303,429.156 836.316,427.338 833.256,416.571 837.156,417.601 834.34,417.565 832.621,411.577 827.068,406.052 
	833.533,401.445 840.879,401.085 838.238,394.493 836.336,392.462 834.093,386.998 824.997,382.945 832.126,376.93 837.025,374.123 
	844.843,371.388 841.03,364.658 831.793,366.188 830.655,359.831 830.043,351.737 839.596,353.583 836.707,348.273 835.254,347.326 
	833.099,341.773 832.441,336.721 832.424,331.009 839.662,330.541 848.896,325.174 836.966,322.505 837.668,314.096 
	836.441,313.609 839.122,314.598 840.811,308.58 839.849,302.057 834.801,301.561 836.572,292.081 826.753,290.507 832.978,285.345 
	835.388,280.048 845.375,278.953 842.528,270.724 838.217,267.328 835.091,267.392 834.006,263.264 841.205,262.756 
	836.523,255.836 839.979,250.163 830.322,252.114 830.588,244.286 830.178,236.327 840.025,238.468 843.148,232.733 
	834.824,232.209 837.102,222.226 833.85,221.175 837.982,221.023 834.146,209.479 849.111,209.629 842.514,201.413 831.044,205.174 
	830.232,198.068 831.689,191.621 840.484,192.708 848.691,186.52 838.331,182.485 829.121,183.988 832.289,174.958 836.777,173.599 
	836.449,165.565 843.945,163.406 842.598,155.109 835.909,154.091 823.42,151.856 829.164,142.878 834.84,140.846 838.607,140.293 
	843.199,131.399 836.765,130.126 824.008,128.747 830.962,121.566 835.314,118.211 845.996,117.19 842.943,108.546 836.02,107.762 
	833.275,105.63 836.633,104.128 835.214,95.002 840.514,94.077 833.924,94.456 834.314,86.358 828.469,82.525 836.551,80.937 
	838.735,75.415 842.32,70.97 833.718,71.553 832.623,64.941 829.672,59.415 831.473,52.75 836.4,49.971 836.168,47.855 
	839.811,42.351 830.434,44.021 831.41,36.304 835.391,33.559 841.512,31.973 835.213,24.746 834.098,24.955 831.571,19.774 
	831.602,12.037 "/>
<g>
	<polyline class="st0" points="430.592,754.83 432.224,753.955 429.45,747.286 435.834,752.553 437.332,751.409 436.764,747.93 
		437.335,747.189 438.413,744.982 440.669,740.777 435.133,742.597 439.586,741.244 433.272,738.088 434.222,736.241 
		440.525,738.597 432.669,733.488 443.893,731.189 430.874,732.547 436.355,729.783 435.537,729.699 433.563,728.139 
		432.547,735.906 430.633,734.996 427.4,730.145 435.482,728.587 426.156,724.507 434.421,724.622 427.114,719.036 435.92,722.493 
		431.737,716.666 434.545,723.865 435.111,716.222 432.399,714.473 437.304,714.598 431.883,710.405 440.807,709.288 
		438.569,718.325 435.489,714.794 433.549,715.785 429.12,706.907 423.607,719.253 430.981,712.723 427.786,709.459 428.942,707.73 
		434.328,709.962 433.259,704.919 436.878,707.092 434.589,703.286 438.333,701.968 434.952,699.656 442.25,694.731 
		433.606,694.878 440.951,696.076 432.326,688.725 432.998,686.873 432.274,688.826 433.214,691.281 437.503,684.798 
		431.347,686.472 432.882,684.701 433.38,682.222 435.363,677.744 434.979,679.62 433.067,685.478 435.198,678.282 437.218,676.232 
		441.809,682.699 437.242,675.939 436.316,673.731 441.704,673.756 437.734,673.324 435.562,676.5 435.484,672.85 435.272,669.629 
		432.894,670.492 435.485,660.72 430.271,666.663 428.904,664.907 424.952,666.369 430.063,657.441 426.674,661.024 426.72,663.835 
		429.088,659.613 430.689,665.792 432.955,662.984 434.868,665 440.507,667.141 443.78,662.16 433.025,654.889 445.748,660.184 
		445.242,658.51 441.583,652.147 445.625,653.26 448.236,652.978 450.384,647.295 444.091,652.396 442.39,649.395 441.073,643.67 
		438.245,648.651 435.902,650.158 438.957,641.931 429.736,645.698 440.145,641.232 437.346,636.639 431.887,636.889 
		429.467,637.996 428.426,634.526 425.695,636.66 422.472,640.423 421.439,637.157 423.141,632.376 425.779,643.879 
		427.527,638.463 429.189,631.464 431.325,633.372 433.438,634.8 430.649,632.541 429.058,635.729 430.484,633.386 434.204,630.557 
		435.261,628.286 438.371,630.206 441.76,629.859 434.264,626.915 432.577,625.49 429.418,623.619 438.024,621.921 427.127,619.543 
		429.481,619.673 429.162,621.02 427.266,620.601 427.399,615.322 427.726,609.577 425.185,614.482 425.924,618.047 
		427.644,607.542 429.771,610.847 431.913,614.695 433.917,613.679 432.745,608.782 435.104,611.178 431.936,607.656 
		442.344,611.321 437.596,604.611 441.159,606.047 442.163,604.392 447.324,607.74 440.945,602.472 440.237,605.759 
		442.428,600.271 444.021,595.493 436.935,601.154 438.45,596.336 436.24,596.067 433.963,596.395 435.372,592.97 436.208,593.668 
		432.309,590.454 434.126,592.167 434.725,596.477 437.848,592.968 443.282,594.906 439.779,589.286 440.468,588.168 
		437.015,588.462 436.412,586.334 435.773,584.223 430.897,584.905 441.553,579.303 434.978,576.586 441.496,578.392 
		440.746,575.43 436.435,570.129 435.012,574.689 438.033,566.162 437.256,572.028 435.297,572.553 433.567,574.12 431.328,572.771 
		425.487,569.915 430.272,569.155 436.35,567.679 427.367,567.178 433.441,563.647 437.285,562.582 436.187,561.821 
		428.782,557.454 433.127,556.635 436.526,559.562 437.086,556.917 439.388,552.365 434.167,552.3 431.766,558.779 429.904,559.678 
		430.384,550.965 424.181,549.87 423.024,547.887 425.802,546.253 433.452,547.641 430.832,543.091 434.115,547.077 
		437.375,549.708 434.19,537.812 435.459,536.017 435.813,536.469 439.713,538.108 439.835,535.861 440.149,533.709 
		448.791,532.385 441.747,532.189 441.274,529.853 438.128,530.316 436.458,530.87 435.654,534.266 434.019,531.055 
		432.384,527.808 427.414,531.947 432.898,523.406 426.628,524.515 425.063,521.306 432.861,524.537 435.226,523.941 
		435.44,520.354 433.566,516.128 437.722,516.812 434.836,512.424 440.936,516.662 436.651,510.196 436.204,515.704 435.31,505.449 
		437.787,506.178 439.956,508.9 429.964,504.808 430.409,502.874 427.864,500.317 440.776,497.642 431.401,503.916 436.131,495.061 
		425.038,499.621 432.631,493.301 426.343,493.943 423.301,486.924 431.318,487.98 434.153,486.104 432.452,497.409 
		434.672,497.324 438.553,492.418 439.467,494.151 439.814,491.833 432.229,496.151 437.229,488.539 433.935,488.778 
		438.296,486.671 432.573,484.058 437.122,485.684 434.569,480.682 443.155,477.492 437.337,487.253 433.396,479.464 
		432.759,485.811 429.151,479.468 428.151,483.579 430.706,483.09 429.258,479.638 437.347,482.776 435.642,479.136 
		435.376,478.816 436.647,470.041 431.481,471.567 431.039,475.266 442.637,471.063 436.029,470.354 436.01,468.376 
		435.102,466.582 440.203,463.67 438.17,464.638 441.348,464.688 441.043,462.121 437.589,457.646 437.309,455.657 432.626,453.905 
		435.003,454.099 434.484,444.554 432.971,448.508 431.754,454.392 430.912,452.992 431.082,453.661 433.276,449.316 
		434.553,458.234 437.447,454.362 433.673,447.526 442.55,453.033 436.182,448.572 438.357,447.816 439.631,444.568 439.84,442.051 
		440.237,439.399 427.808,441.074 438.362,440.67 434.566,436.216 434.208,433.852 437.689,434.826 437.855,431.568 
		437.271,428.018 434.724,430.463 435.655,428.573 434.521,429.876 433.288,428.764 428.058,424.963 430.456,426.547 
		436.263,422.958 431.254,422.445 434.831,419.488 435.258,417.424 428.102,412.846 433.312,417.316 434.402,415.937 
		435.734,412.176 430.708,415.923 425.634,415.218 427.964,413.215 428.838,410.768 426.823,410.017 425.046,409.021 
		422.916,405.849 429.689,408.892 431.866,408.528 433.234,407.022 433.652,406.863 433.452,399.728 435.133,396.503 
		437.413,405.375 444.352,404.699 435.84,400.462 433.915,399.321 442.21,394.083 440.848,391.399 438.252,389.882 438.396,388.738 
		428.688,390.594 431.302,387.932 431.145,384.61 431.318,379.342 425.693,387.069 424.155,385.622 427.862,382.017 
		420.361,376.734 429.851,385.095 430.301,382.735 425.908,374.631 429.533,375.844 431.439,375.15 437.21,381.434 438.022,380.39 
		438.176,376.389 441.479,379.564 442.31,375.666 441.865,370.901 448.337,366.153 446.749,364.831 438.816,367.099 
		436.167,370.808 437.369,365.074 435.971,368.062 434.715,371.942 431.417,363.508 426.647,370.268 433.799,363.316 
		431.475,361.544 427.396,360.014 428.048,357.856 421.657,356.307 421.078,354.313 430.672,354.347 430.298,351.176 
		432.359,350.739 433.588,354.633 435.574,354.63 436.764,352.904 436.587,351.931 437.296,349.25 437.484,345.951 431.255,349.007 
		426.813,347.762 426.383,345.799 429.17,342.329 426.935,340.625 428.588,338.697 434.625,336.469 425.99,334.833 436.064,332.896 
		426.34,327.226 432.754,336.439 434.673,338.009 436.398,336.549 436.971,327.902 437.745,326.149 442.934,330.836 
		442.596,326.005 448.459,331.837 450.031,324.91 443.971,329.675 443.733,321.411 439.58,330.646 439.152,323.229 438.141,318.402 
		439.786,319.185 439.839,320.783 428.993,317.762 428.302,315.585 442.553,311.372 434.739,313.23 437.511,315.307 
		437.156,312.399 436.079,309.932 444.85,308.92 444.139,305.6 440.54,303.908 432.686,306.615 436.579,299.406 434.543,302.819 
		433.032,301.518 440.511,301.011 436.316,298.269 427.376,294.635 428.677,292.913 436.212,291.011 433.484,287.351 
		431.53,286.986 429.947,284.305 426.699,291.988 428.339,289.624 430.285,293.818 428.281,288.236 431.05,288.403 433.452,287.128 
		429.506,282.471 430.876,280.962 433.36,279.774 436.221,285.948 437.562,279.752 440.074,284.24 441.51,278.882 445.772,280.217 
		447.273,275.361 443.214,274.464 436.528,274.471 445.271,267.643 442.393,265.616 439.91,265.81 434.908,271.352 434.737,263.294 
		433.036,267.621 426.458,266.973 429.325,261.635 434.49,270.541 436.129,268.138 437.163,257.127 444.488,264.509 
		436.659,262.076 440.937,256.661 434.651,258.388 429.158,255.869 438.562,255.606 435.489,251.139 442.174,248.081 
		436.539,252.147 435.288,255.902 432.214,250.632 431.141,255.284 431.987,247.938 422.958,249.968 421.477,247.96 431.785,246.35 
		429.879,244.276 428.357,242.313 426.08,240.438 431.384,238.167 432.237,240.969 431.682,230.453 431.56,240.498 434.862,234.786 
		435.21,242.683 435.477,232.947 437.995,235.884 445.613,237.554 436.225,235.316 439.271,232.051 437.102,233.341 
		435.122,231.584 436.392,229.605 429.484,229.311 427.544,226.77 430.747,225.401 440.58,225.54 434.97,222.364 433.538,222.024 
		427.656,217.982 434.322,227.612 431.752,217.878 428.943,221.285 437.853,216.188 429.683,216.769 439.804,211.268 
		437.978,209.736 427.876,206.006 434.381,215.807 436.522,215.251 438.682,213.113 440.82,213.1 443.036,205.422 445.116,211.638 
		447.076,209.526 451.133,203.833 448.943,202.894 444.683,203.613 440.854,203.98 440.364,202.414 439.423,204.024 
		435.242,197.728 436.305,207.414 431.527,199.302 430.988,204.125 426.705,209.812 422.137,204.187 423.08,202.28 429.833,199.707 
		431.85,198.316 432.475,196.733 429.417,193.782 428.173,189.219 431.255,198.338 434.558,189.667 436.833,189.339 
		440.454,199.887 444.524,197.085 442.043,190.39 442.538,187.631 442.056,183.572 446.49,186.535 444.581,187.269 445.931,178.696 
		439.907,189.07 441.78,179.153 437.028,186.24 435.817,188.986 435.011,184.957 431.678,176.085 431.266,185.152 429.481,185.824 
		425.396,185.513 429.175,182.624 431.953,181.575 424.745,177.018 425.499,175.251 430.569,175.09 434.662,180.757 
		439.883,177.575 434.865,171.592 431.517,169.718 441.688,167.291 437.488,167.579 436.283,164.324 438.233,164.054 
		441.104,166.965 447.131,166.365 440.199,161.59 447.575,158.265 443.938,156.725 442.453,153.316 439.271,149.948 
		436.141,155.514 433.789,155.827 430.698,160.979 429.426,156.091 426.574,160.041 425.736,152.709 424.701,146.475 
		417.71,153.532 421.093,149.012 429.801,152.059 428.27,148.549 430.45,147.409 427.339,142.888 431.037,147.272 432.138,144.384 
		434.262,145.816 434.464,137.667 439.091,143.455 444.06,141.804 437.759,136.303 433.087,131.639 435.734,130.748 
		441.467,131.343 438.714,133.549 436.301,134.472 434.188,134.982 433.235,125.956 431.302,123.95 428.667,128.43 426.151,131.8 
		425.058,121.994 422.542,128.583 423.682,127.427 424.842,125.773 429.537,127.539 429.518,124.732 430.232,122.794 
		432.719,123.227 432.428,119.849 432.896,116.628 435.736,119.272 437.799,118.312 439.269,111.145 441.513,112.048 
		443.257,116.474 444.991,114.955 440.467,114.613 442.786,111.85 435.922,112.326 437.878,113.276 439.486,102.264 
		436.738,105.881 436.28,101.958 432.604,106.966 429.012,105.22 435.108,109.321 432.362,102.808 433.247,102.502 434.286,100.476 
		433.673,98.702 438.171,96.13 433.983,95.42 434.273,89.702 437.595,98.298 436.321,99.59 436.709,98.092 434.152,91.961 
		434.33,91.976 427.101,92.188 437.207,90.648 439.034,88.706 435.803,84.499 426.61,91.065 425.591,88.368 419.644,82.235 
		429.966,88.804 430.061,78.618 431.883,77.202 437.639,84.53 432.161,77.799 429.611,74.66 435.369,74.528 440.139,75.583 
		443.377,75.748 435.318,74.654 438.431,72.488 436.114,70.152 433.694,66.352 430.979,72.661 437.001,68.444 424.371,68.269 
		432.769,64.282 431.316,62.295 431.858,59.637 434.018,58.831 421.898,55.43 423.888,53.582 433.979,55.84 429.301,48.317 
		432.52,50.182 431.616,48.603 438.979,49.008 440.367,49.213 432.892,41.624 440.001,41.463 435.959,41.87 433.552,39.197 
		432.349,43.306 431.47,49.254 425.241,47.468 433.109,42.632 421.911,39.258 434.863,38.934 431.513,37.614 432.458,36.225 
		431.997,30.254 436.178,35.28 437.956,33.735 438.774,31.615 435.167,33.364 440.317,26.338 438.139,25.692 436.257,24.785 
		432.011,27.369 428.311,30.055 430.802,23.532 434.472,19.604 434.339,18.725 425.267,17.824 426.885,15.897 429.693,13.972 
		426.108,12.022 	"/>
</g>
<g>
	<polyline class="st0" points="953.547,757.82 955.592,757.488 954.974,753.653 956.976,753.127 953.592,746.218 957.774,748.318 
		966.127,747.79 957.805,745.978 952.664,747.493 959.723,739.573 960.608,741.251 951.205,735.931 952.765,734.563 
		956.458,734.867 954.429,733.701 952.646,734.423 964.805,728.954 959.734,726.337 955.554,723.284 954.168,727.425 
		952.785,731.631 950.56,727.695 944.775,732.344 950.335,727.5 944.08,723.992 946.416,721.381 956.824,724.851 954.01,720.825 
		950.168,712.635 955.134,719.842 954.629,714.45 960.112,717.411 955.198,713.435 955.811,711.763 957.323,714.377 
		958.461,715.206 957.225,718.994 952.637,709.462 951.306,712.887 953.914,709.48 948.094,711.463 951.952,710.692 
		947.734,707.062 950.041,704.01 955.085,711.115 956.576,706.074 957.433,703.794 957.639,701.646 950.876,700.111 
		952.195,699.008 952.617,694.846 958.801,694.401 955.836,690.4 953.997,687.062 963.075,687.978 958.69,686.812 952.173,690.397 
		960.365,681.938 949.908,686.633 953.804,682.435 958.451,675.747 945.919,676.197 953.907,678.242 955.946,675.217 
		957.93,674.791 957.708,675.151 963.067,677.761 966.776,677.196 964.532,674.518 963.061,671.452 964.339,664.988 
		959.164,668.584 960.299,662.322 953.809,670.005 951.495,670.371 950.469,667.389 948.443,666.215 953.354,657.519 
		946.763,662.001 947.331,661.016 947.587,661.281 949.252,666.6 952.023,656.915 953.431,665.747 955.301,668.346 960.414,665.737 
		952.788,656.587 953.282,654.688 961.021,656.389 957.774,650.598 959.377,649.347 966.416,653.368 962.793,647.029 
		962.863,650.453 966.061,643.256 963.497,646.365 960.366,653.482 959.344,645.673 957.306,645.03 951.389,650.656 
		951.279,645.511 948.263,643.952 950.388,643.376 953.53,633.683 950.564,636.609 948.398,636.881 946.301,636.908 
		944.514,635.894 948.998,638.197 943.725,630.551 946.396,642.696 947.79,630.61 950.121,636.224 951.93,631.959 954.146,635.365 
		961.893,640.83 959.508,633.661 950.269,633.574 961.096,629.238 958.442,627.757 955.205,627.379 959.349,627.522 
		954.861,624.609 953.167,625.574 947.058,623.513 960.194,621.973 953.618,619.744 959.139,614.109 951.108,617.994 
		947.642,621.327 949.532,611.853 944.174,619.68 945.631,614.407 946.65,619.671 948.643,618.389 950.658,617.9 952.614,615.421 
		954.447,608.598 954.046,609.731 950.996,609.075 963.935,612.628 958.976,608.319 958.532,604.921 963.905,608.536 967.416,609.9 
		960.922,599.211 965.207,602.479 965.088,600.741 966.021,596.766 963.579,596.843 960.645,597.509 958.619,597.421 
		956.04,599.918 953.333,602.128 953.397,594.746 955.375,593.429 954.542,592.25 953.584,596.736 957.695,587.916 959.182,595.014 
		964.838,595.697 958.275,587.312 964.254,588.225 962.108,585.549 955.333,587.494 961.642,580.797 959.316,579.795 
		960.818,579.317 962.256,580.91 954.674,573.477 961.809,575.682 955.147,568.841 955.717,574.672 960.262,573.174 
		957.353,569.396 955.932,572.35 954.215,573.98 953.152,571.298 958.154,572.463 953.466,569.688 945.89,568.039 952.566,565.989 
		952.908,563.967 957.231,562.559 957.058,561.877 951.688,558.119 950.702,555.454 952.558,555.332 954.795,554.31 
		958.216,552.618 954.293,558.037 952.754,555.596 951.719,547.953 948.878,552.679 955.498,550.821 955.43,548.937 946.351,546.24 
		955.234,548.463 950.5,540.221 955.742,549.768 952.457,536.356 960.13,548.683 960.617,545.274 963.682,543.732 965.362,540.703 
		956.476,533.753 961.188,533.896 962.213,533.443 962.18,532.449 962.013,529.79 958.615,530.518 959.347,525.973 956.328,534.358 
		955.32,520.602 952.802,532.202 947.107,533.387 955.933,522.029 954.984,520.019 940.801,520.643 951.086,521.882 
		946.891,514.188 950.064,514.951 958.471,519.121 952.455,512.6 951.554,508.497 960.727,515.501 952.329,510.591 957.99,504.372 
		956.084,504.488 958.905,505.872 952.151,507.145 949.067,504.481 956.655,504.025 956.549,501.974 951.488,501.336 
		957.485,492.492 953.889,497.674 949.894,497.525 947.774,496.08 949.888,492.506 954.02,494.052 950.781,491.513 953.511,489.944 
		952.465,499.349 958.194,489.062 957.317,497.984 954.434,490.563 962.719,489.727 956.006,493.218 958.009,488.443 
		958.465,485.13 959.522,486.646 955.836,486.467 953.65,481.812 958.729,483.928 957.733,482.096 957.319,484.266 954.538,481.44 
		952.461,481.626 952.037,488.901 950.48,482.378 951.742,483.337 950.408,479.963 951.086,477.975 954.318,477.75 956.822,480.452 
		956.044,475.847 962.143,479.725 955.045,474.626 954.293,472.797 960.224,469.68 950.011,469.659 961.312,464.694 
		947.483,463.989 954.613,461.463 956.191,460.311 958.718,459.867 952.556,456.374 953.259,456.234 957.554,453.386 
		962.729,445.655 956.676,454.251 953.33,446.449 952.677,455.95 945.205,450.14 951.964,450.756 953.331,458.32 955.768,450.516 
		955.687,448.18 958.433,451.182 954.718,445.409 963.953,448.824 954.658,450.849 956.984,446.871 955.473,445.546 
		962.328,438.424 948.31,441.085 957.98,440.024 955.431,436.328 956.824,435.031 963.694,432.929 957.144,434.765 956.595,431.128 
		953.093,433.256 954.667,429.635 950.144,428.683 957.078,433.919 953.677,426.789 959.994,424.027 948.742,425.287 
		947.883,423.596 946.508,422.048 946.463,420.118 952.876,417.44 955.232,412.612 957.399,420.126 952.743,418.304 956,414.6 
		955.832,412.485 957.629,408.002 950,410.282 947.135,410.386 950.82,403.9 943.284,405.82 945.06,401.441 949.627,404.434 
		948.4,399.286 949.918,394.614 954,397.04 955.958,399.454 957.708,397.559 964.937,404.635 957.833,399.936 957.577,398.126 
		953.481,397.852 961.593,391.354 956.754,391.38 957.619,389.336 952.816,389.178 956.593,383.437 951.991,384.238 
		950.938,381.722 950.27,378.329 948.254,377.948 937.488,384.199 950.032,387.389 950.408,384.948 947.282,378.351 
		951.081,379.955 953.299,380.254 954.548,379.388 952.234,371.563 955.338,372.942 959.207,377.394 959.401,371.681 
		960.756,369.279 970.023,374.083 959.146,371.746 967.865,364.583 966.04,363.393 961.324,361.721 957.783,363.467 
		955.445,360.789 954.061,363.887 952.95,368.663 950.687,366.129 945.664,364.893 956.729,360.727 951.13,359.622 944.104,358.208 
		945.963,356.033 947.343,353.891 944.604,347.198 951.978,345.997 953.527,348.211 954.637,352.729 956.264,354.577 
		963.45,356.995 963.71,348.426 955.404,350.649 955.8,348.053 951.738,349.158 958.561,343.468 947.612,345.586 948.385,342.717 
		947.398,340.654 946.836,339.015 951.497,336.708 956.917,334.802 952.751,332.91 954.312,333.717 952.662,324.53 954.689,327.772 
		956.753,331.556 958.49,330.486 957.413,324.411 961.302,326.86 960.98,322.054 968.422,330.601 964.449,325.469 965.773,324.657 
		963.648,324.831 962.943,318.653 958.835,327.683 956.541,328.593 955.681,322.599 960.503,320.782 951.826,317.942 
		956.67,316.228 956.602,314.06 955.526,312.917 959.168,318.432 962.27,313.643 958.501,310.421 960.495,308.628 964.133,305.701 
		959.781,304.12 963.256,298.158 956.979,302.257 955.251,302.526 950.532,303.572 951.015,299.109 951.987,297.333 
		947.973,294.619 961.063,295.102 953.867,293.208 954.172,287.3 951.854,289.208 948.86,295.323 946.413,298.009 950.554,289.227 
		946.868,288.879 948.367,287.52 949.187,285.336 951.961,285.451 946.956,281.001 951.877,281.108 956.576,283.35 955.727,275.243 
		958.461,281.756 960.92,285.763 962.759,284.067 961.244,277.268 963.991,276.731 967.447,273.235 965.482,271.609 964.31,268.749 
		960.172,269.298 954.6,273.414 954.521,274.255 955.46,265.418 950.562,270.89 947.408,266.903 949.754,261.494 954.991,268.032 
		956.37,261.928 958.513,266.639 966.997,265.136 954.938,263.7 952.887,262.566 951.932,260.687 954.284,255.843 954.799,252.898 
		955.338,250.633 963.556,247.719 957.001,251.07 954.8,250.122 953.365,252.968 951.777,255.07 944.912,257.193 945.717,250.039 
		948.927,248.19 943.765,246.055 953.41,244.25 947.341,242.401 947.047,240.422 955.102,238.011 953.617,241.808 949.996,241.333 
		952.813,237.85 953.979,241.979 956.99,237.622 961.806,244.435 958.15,235.599 955.793,231.835 965.777,230.811 960.279,226.809 
		958.255,225.811 955.506,236.272 950.576,234.579 947.393,228.679 960.555,229.582 949.87,225.045 960.496,225.366 
		949.591,225.171 955.126,219.21 950.039,219.23 954.537,214.998 954.116,219.083 950.466,221.004 960.497,215.537 959.097,213.865 
		952.856,213.803 953.004,211.615 954.315,210.515 955.192,202.705 957.239,211.592 959.402,209.056 961.48,215.016 
		963.695,207.427 965.793,211.884 965.28,208.269 971.604,204 960.954,209.855 966.249,202.901 960.222,205.034 962.517,197.748 
		959.397,201.875 956.955,200.879 956.03,204.503 951.488,197.113 950.656,201.042 951.698,201.828 943.897,204.065 
		942.379,202.438 943.602,200.496 955.527,198.532 949.67,195.945 950.502,193.874 950.483,191.547 951.966,198.082 
		954.456,195.989 956.342,198.814 960.461,197.211 960.438,190.766 962.083,189.542 961.055,184.763 963.439,184.507 
		974.353,186.237 966.956,182.915 963.188,187.486 961.721,186.161 961.098,182.652 957.74,186.159 957.759,176.927 
		955.064,181.117 954.442,188.869 950.944,179.018 950.502,187.92 947.02,184.752 950.184,182.739 952.331,181.469 954.696,180.27 
		943.783,174.41 953.046,177.169 952.614,171.755 952.373,170.982 954.443,171.637 957.759,169.492 960.695,167.358 
		957.055,166.799 958.228,168.722 959.906,167.501 961.081,164.527 956.891,159.928 958.844,161.92 964.99,158.794 960.034,157.469 
		963.145,153.304 959.737,151.353 956.235,159.364 954.795,153.855 953.013,151.847 951.703,147.163 948.292,154.23 
		945.386,158.468 943.775,155.443 941.53,152.175 941.989,149.151 942.674,147.064 943.747,145.221 950.984,147.316 
		951.713,147.426 951.731,147.316 953.734,146.945 953.286,139.266 954.877,135.851 959.939,143.685 964.076,141.461 
		956.85,135.483 956.556,133.079 966.05,135.723 966.78,128.774 960.786,126.51 958.73,125.63 954.904,134.741 953.345,131.226 
		951.549,127.949 949.948,122.865 946.818,131.929 944.763,131.006 947.23,126.803 939.535,122.752 949.909,130.023 
		950.213,127.534 945.122,119.815 948.923,120.581 950.663,119.678 957.195,125.149 956.541,124.663 956.592,121.118 
		959.116,124.983 960.927,121.389 962.585,116.157 970.501,121.668 970.348,113.304 962.176,114.249 956.548,114.293 
		962.295,110.315 960.192,110.884 958.757,114.699 957.445,105.634 953.082,112.706 956.122,103.312 954.398,106.015 
		953.213,103.567 954.932,103.832 948.398,103.361 947.692,101.605 958.175,98.108 953.409,96.976 952.608,93.996 956.139,96.49 
		957.84,95.808 958.885,95.187 957.179,94.445 954.872,92.671 955.11,91.862 950.129,92.301 946.655,90.106 947.062,88.096 
		951.269,87.417 948.939,88.55 948.025,85.691 951.336,82.691 948.443,77.603 952.406,87.097 952.277,75.751 958.903,85.25 
		962.863,81.767 962.343,79.43 955.181,74.025 955.787,71.525 962.167,74.223 959.924,71.855 958.58,64.668 956.667,68.287 
		955.06,76.463 954.428,69.271 945.32,70.492 952.002,67.118 955.891,63.468 955.528,60.409 953.513,59.116 942.034,60.029 
		941.99,55.271 956.717,56.864 949.992,52.518 952.324,52.472 953.248,50.269 953.047,48.951 960.724,49.272 960.849,49.081 
		959.299,45.416 952.235,45.168 956.344,40.226 955.104,44.099 953.022,43.274 949.876,36.484 951.154,42.096 942.809,41.243 
		944.008,39.437 951.818,38.463 953.96,38.81 954.814,38.654 957.189,39.817 955.979,31.887 959.202,35.921 965.91,34.175 
		959.398,30.268 959.57,27.58 958.781,25.725 953.299,27.955 953.106,26.572 952.737,25.22 957.636,20.532 951.388,21.439 
		955.174,18.691 950.134,17.841 952.997,15.918 955.14,13.99 951.605,12.042 	"/>
</g>
</svg>
