<?xml version="1.0" encoding="utf-8"?>
<!-- Generator: Adobe Illustrator 15.0.0, SVG Export Plug-In . SVG Version: 6.00 Build 0)  -->
<!DOCTYPE svg PUBLIC "-//W3C//DTD SVG 1.1//EN" "http://www.w3.org/Graphics/SVG/1.1/DTD/svg11.dtd">
<svg version="1.1" id="Layer_1" xmlns="http://www.w3.org/2000/svg" xmlns:xlink="http://www.w3.org/1999/xlink" x="0px" y="0px"
	 width="1024px" height="768px" viewBox="0 0 1024 768" style="enable-background:new 0 0 1024 768;" xml:space="preserve">
<style type="text/css">
<![CDATA[
	.st0{fill:none;stroke:#FF5F9F;stroke-miterlimit:10;}
]]>
</style>
<polyline class="st0" points="301.223,754.153 305.592,750.828 309.755,747.284 304.994,741.126 310.033,734.713 308.389,728.649 
	299.401,729.576 300.666,722.793 303.685,718.104 307.435,718.019 310.174,711.462 299.874,714.056 302.556,706.465 
	306.684,705.701 308.148,699.459 306.335,694.908 310.275,688.251 306.558,684.262 306.579,683.352 302.403,678.311 
	310.287,678.487 312.653,671.804 307.346,668.07 302.153,665.558 296.075,660.252 308.357,661.156 310.848,655.94 317.881,648.7 
	305.375,646.934 304.003,640.599 292.511,637.146 306.705,636.395 304.634,626.616 307.248,625.582 303.482,625.717 
	303.759,617.733 294.925,614.034 307.095,613.677 309.448,608.322 316.484,602.48 309.455,596.637 303.18,595.204 303.857,590.919 
	308.759,592.23 312.418,588.183 306.596,579.363 312.26,570.722 302.367,572.907 303.45,567.81 302.024,562.388 303.797,556.453 
	304.036,556.252 307.029,552.843 300.002,552.163 300.669,544.702 305.682,542.937 310.875,540.424 314.669,533.153 
	309.007,527.758 301.731,527.325 298.374,521.596 303.091,517.235 306.286,512.725 309.796,510.039 304.165,509.489 
	306.176,499.771 303.451,498.482 299.424,490.46 311.175,494.504 303.997,486.926 309.218,481.328 299.158,483.681 304.907,475.373 
	308.166,476.093 306.333,466.553 305.115,463.817 309.598,457.839 308.759,450.971 300.437,452.267 307.972,452.79 311.614,448.725 
	306.062,440.709 309.87,434.457 304.5,432.119 302.615,429.156 305.628,427.338 302.569,416.571 306.469,417.601 303.652,417.565 
	301.934,411.577 296.381,406.052 302.846,401.445 310.191,401.085 307.55,394.493 305.648,392.462 303.405,386.998 294.31,382.945 
	301.438,376.93 306.338,374.123 314.155,371.388 310.343,364.658 301.105,366.188 299.968,359.831 299.355,351.737 308.908,353.583 
	306.02,348.273 304.566,347.326 302.411,341.773 301.754,336.721 301.736,331.009 308.975,330.541 318.208,325.174 306.278,322.505 
	306.98,314.096 305.754,313.609 308.435,314.598 310.123,308.58 309.161,302.057 304.113,301.561 305.885,292.081 296.065,290.507 
	302.29,285.345 304.7,280.048 314.688,278.953 311.841,270.724 307.53,267.328 304.403,267.392 303.318,263.264 310.518,262.756 
	305.835,255.836 309.292,250.163 299.634,252.114 299.901,244.286 299.49,236.327 309.338,238.468 312.461,232.733 304.137,232.209 
	306.414,222.226 303.162,221.175 307.295,221.023 303.458,209.479 318.424,209.629 311.826,201.413 300.356,205.174 
	299.545,198.068 301.002,191.621 309.796,192.708 318.003,186.52 307.644,182.485 298.433,183.988 301.601,174.958 306.089,173.599 
	305.762,165.565 313.257,163.406 311.91,155.109 305.222,154.091 292.732,151.856 298.477,142.878 304.152,140.846 307.92,140.293 
	312.512,131.399 306.077,130.126 293.32,128.747 300.274,121.566 304.626,118.211 315.309,117.19 312.255,108.546 305.333,107.762 
	302.588,105.63 305.945,104.128 304.526,95.002 309.826,94.077 303.236,94.456 303.627,86.358 297.782,82.525 305.863,80.937 
	308.048,75.415 311.632,70.97 303.03,71.553 301.936,64.941 298.985,59.415 300.785,52.75 305.713,49.971 305.48,47.855 
	309.124,42.351 299.747,44.021 300.722,36.304 304.703,33.559 310.824,31.973 304.525,24.746 303.411,24.955 300.884,19.774 
	300.915,12.037 "/>
<polyline class="st0" points="821.902,754.153 826.271,750.828 830.435,747.284 825.674,741.126 830.713,734.713 829.068,728.649 
	820.08,729.576 821.346,722.793 824.364,718.104 828.115,718.019 830.854,711.462 820.553,714.056 823.236,706.465 827.363,705.701 
	828.828,699.459 827.016,694.908 830.955,688.251 827.237,684.262 827.259,683.352 823.082,678.311 830.967,678.487 
	833.333,671.804 828.025,668.07 822.833,665.558 816.754,660.252 829.037,661.156 831.527,655.94 838.561,648.7 826.055,646.934 
	824.683,640.599 813.19,637.146 827.385,636.395 825.313,626.616 827.928,625.582 824.162,625.717 824.438,617.733 815.605,614.034 
	827.775,613.677 830.127,608.322 837.164,602.48 830.135,596.637 823.859,595.204 824.537,590.919 829.438,592.23 833.098,588.183 
	827.275,579.363 832.939,570.722 823.047,572.907 824.13,567.81 822.704,562.388 824.477,556.453 824.715,556.252 827.709,552.843 
	820.682,552.163 821.349,544.702 826.361,542.937 831.555,540.424 835.349,533.153 829.688,527.758 822.41,527.325 819.054,521.596 
	823.771,517.235 826.966,512.725 830.476,510.039 824.845,509.489 826.855,499.771 824.131,498.482 820.104,490.46 831.854,494.504 
	824.676,486.926 829.897,481.328 819.838,483.681 825.586,475.373 828.846,476.093 827.013,466.553 825.795,463.817 
	830.277,457.839 829.438,450.971 821.116,452.267 828.652,452.79 832.293,448.725 826.742,440.709 830.55,434.457 825.18,432.119 
	823.295,429.156 826.309,427.338 823.248,416.571 827.148,417.601 824.332,417.565 822.613,411.577 817.061,406.052 
	823.525,401.445 830.871,401.085 828.23,394.493 826.328,392.462 824.085,386.998 814.989,382.945 822.118,376.93 827.018,374.123 
	834.835,371.388 831.022,364.658 821.785,366.188 820.647,359.831 820.035,351.737 829.588,353.583 826.699,348.273 
	825.246,347.326 823.091,341.773 822.434,336.721 822.416,331.009 829.654,330.541 838.888,325.174 826.958,322.505 827.66,314.096 
	826.434,313.609 829.114,314.598 830.803,308.58 829.841,302.057 824.793,301.561 826.564,292.081 816.745,290.507 822.97,285.345 
	825.38,280.048 835.367,278.953 832.521,270.724 828.209,267.328 825.083,267.392 823.998,263.264 831.197,262.756 826.516,255.836 
	829.972,250.163 820.314,252.114 820.58,244.286 820.17,236.327 830.018,238.468 833.141,232.733 824.816,232.209 827.094,222.226 
	823.842,221.175 827.975,221.023 824.138,209.479 839.104,209.629 832.506,201.413 821.036,205.174 820.225,198.068 
	821.682,191.621 830.477,192.708 838.684,186.52 828.323,182.485 819.113,183.988 822.281,174.958 826.77,173.599 826.441,165.565 
	833.938,163.406 832.59,155.109 825.901,154.091 813.412,151.856 819.156,142.878 824.832,140.846 828.6,140.293 833.191,131.399 
	826.757,130.126 814,128.747 820.954,121.566 825.307,118.211 835.988,117.19 832.936,108.546 826.012,107.762 823.268,105.63 
	826.625,104.128 825.206,95.002 830.506,94.077 823.916,94.456 824.307,86.358 818.461,82.525 826.543,80.937 828.728,75.415 
	832.312,70.97 823.71,71.553 822.615,64.941 819.664,59.415 821.465,52.75 826.393,49.971 826.16,47.855 829.803,42.351 
	820.426,44.021 821.402,36.304 825.383,33.559 831.504,31.973 825.205,24.746 824.09,24.955 821.563,19.774 821.594,12.037 "/>
<g>
	<polyline class="st0" points="420.584,754.83 422.216,753.955 419.442,747.286 425.827,752.553 427.324,751.409 426.756,747.93 
		427.327,747.189 428.405,744.982 430.662,740.777 425.125,742.597 429.578,741.244 423.264,738.088 424.214,736.241 
		430.518,738.597 422.661,733.488 433.885,731.189 420.866,732.547 426.347,729.783 425.529,729.699 423.555,728.139 
		422.539,735.906 420.625,734.996 417.393,730.145 425.475,728.587 416.148,724.507 424.414,724.622 417.106,719.036 
		425.912,722.493 421.729,716.666 424.538,723.865 425.104,716.222 422.391,714.473 427.296,714.598 421.875,710.405 
		430.799,709.288 428.561,718.325 425.481,714.794 423.542,715.785 419.112,706.907 413.599,719.253 420.973,712.723 
		417.778,709.459 418.935,707.73 424.32,709.962 423.251,704.919 426.871,707.092 424.582,703.286 428.325,701.968 424.944,699.656 
		432.242,694.731 423.599,694.878 430.943,696.076 422.318,688.725 422.99,686.873 422.267,688.826 423.207,691.281 
		427.495,684.798 421.339,686.472 422.874,684.701 423.372,682.222 425.355,677.744 424.971,679.62 423.06,685.478 425.19,678.282 
		427.21,676.232 431.801,682.699 427.234,675.939 426.308,673.731 431.696,673.756 427.727,673.324 425.555,676.5 425.477,672.85 
		425.265,669.629 422.886,670.492 425.478,660.72 420.264,666.663 418.896,664.907 414.944,666.369 420.055,657.441 
		416.667,661.024 416.712,663.835 419.08,659.613 420.682,665.792 422.947,662.984 424.86,665 430.5,667.141 433.772,662.16 
		423.018,654.889 435.74,660.184 435.234,658.51 431.575,652.147 435.618,653.26 438.229,652.978 440.376,647.295 434.083,652.396 
		432.382,649.395 431.065,643.67 428.237,648.651 425.895,650.158 428.949,641.931 419.729,645.698 430.137,641.232 
		427.338,636.639 421.879,636.889 419.459,637.996 418.418,634.526 415.688,636.66 412.464,640.423 411.432,637.157 
		413.133,632.376 415.771,643.879 417.519,638.463 419.182,631.464 421.317,633.372 423.43,634.8 420.641,632.541 419.05,635.729 
		420.476,633.386 424.196,630.557 425.253,628.286 428.363,630.206 431.752,629.859 424.256,626.915 422.569,625.49 
		419.411,623.619 428.017,621.921 417.12,619.543 419.474,619.673 419.154,621.02 417.258,620.601 417.392,615.322 417.718,609.577 
		415.177,614.482 415.916,618.047 417.636,607.542 419.763,610.847 421.905,614.695 423.909,613.679 422.737,608.782 
		425.096,611.178 421.928,607.656 432.336,611.321 427.588,604.611 431.151,606.047 432.155,604.392 437.316,607.74 
		430.938,602.472 430.229,605.759 432.42,600.271 434.014,595.493 426.927,601.154 428.442,596.336 426.232,596.067 
		423.956,596.395 425.364,592.97 426.2,593.668 422.301,590.454 424.118,592.167 424.717,596.477 427.84,592.968 433.274,594.906 
		429.771,589.286 430.46,588.168 427.007,588.462 426.404,586.334 425.766,584.223 420.89,584.905 431.545,579.303 424.97,576.586 
		431.488,578.392 430.738,575.43 426.427,570.129 425.004,574.689 428.025,566.162 427.248,572.028 425.29,572.553 423.559,574.12 
		421.32,572.771 415.479,569.915 420.265,569.155 426.342,567.679 417.359,567.178 423.434,563.647 427.277,562.582 
		426.179,561.821 418.774,557.454 423.119,556.635 426.519,559.562 427.078,556.917 429.38,552.365 424.159,552.3 421.758,558.779 
		419.896,559.678 420.376,550.965 414.173,549.87 413.016,547.887 415.794,546.253 423.444,547.641 420.824,543.091 
		424.107,547.077 427.367,549.708 424.182,537.812 425.451,536.017 425.805,536.469 429.705,538.108 429.828,535.861 
		430.142,533.709 438.783,532.385 431.739,532.189 431.267,529.853 428.12,530.316 426.45,530.87 425.646,534.266 424.011,531.055 
		422.376,527.808 417.406,531.947 422.89,523.406 416.621,524.515 415.055,521.306 422.853,524.537 425.218,523.941 
		425.433,520.354 423.559,516.128 427.714,516.812 424.829,512.424 430.928,516.662 426.643,510.196 426.196,515.704 
		425.302,505.449 427.779,506.178 429.948,508.9 419.957,504.808 420.401,502.874 417.856,500.317 430.769,497.642 421.394,503.916 
		426.124,495.061 415.03,499.621 422.624,493.301 416.335,493.943 413.293,486.924 421.31,487.98 424.146,486.104 422.444,497.409 
		424.664,497.324 428.545,492.418 429.459,494.151 429.807,491.833 422.221,496.151 427.222,488.539 423.927,488.778 
		428.289,486.671 422.565,484.058 427.114,485.684 424.561,480.682 433.147,477.492 427.33,487.253 423.388,479.464 
		422.751,485.811 419.143,479.468 418.144,483.579 420.698,483.09 419.25,479.638 427.339,482.776 425.634,479.136 425.368,478.816 
		426.639,470.041 421.474,471.567 421.031,475.266 432.629,471.063 426.021,470.354 426.002,468.376 425.094,466.582 
		430.195,463.67 428.162,464.638 431.34,464.688 431.036,462.121 427.581,457.646 427.301,455.657 422.619,453.905 424.995,454.099 
		424.477,444.554 422.963,448.508 421.747,454.392 420.904,452.992 421.074,453.661 423.269,449.316 424.545,458.234 
		427.439,454.362 423.666,447.526 432.542,453.033 426.174,448.572 428.35,447.816 429.623,444.568 429.832,442.051 
		430.229,439.399 417.8,441.074 428.354,440.67 424.558,436.216 424.2,433.852 427.681,434.826 427.847,431.568 427.263,428.018 
		424.716,430.463 425.647,428.573 424.513,429.876 423.28,428.764 418.05,424.963 420.448,426.547 426.255,422.958 421.246,422.445 
		424.823,419.488 425.25,417.424 418.094,412.846 423.304,417.316 424.395,415.937 425.726,412.176 420.7,415.923 415.626,415.218 
		417.956,413.215 418.83,410.768 416.815,410.017 415.038,409.021 412.908,405.849 419.681,408.892 421.858,408.528 
		423.226,407.022 423.644,406.863 423.444,399.728 425.125,396.503 427.405,405.375 434.344,404.699 425.832,400.462 
		423.907,399.321 432.203,394.083 430.84,391.399 428.244,389.882 428.388,388.738 418.68,390.594 421.294,387.932 421.137,384.61 
		421.31,379.342 415.686,387.069 414.147,385.622 417.854,382.017 410.353,376.734 419.843,385.095 420.293,382.735 415.9,374.631 
		419.525,375.844 421.432,375.15 427.203,381.434 428.014,380.39 428.168,376.389 431.471,379.564 432.302,375.666 431.857,370.901 
		438.33,366.153 436.741,364.831 428.809,367.099 426.16,370.808 427.361,365.074 425.963,368.062 424.707,371.942 421.409,363.508 
		416.639,370.268 423.791,363.316 421.467,361.544 417.388,360.014 418.041,357.856 411.649,356.307 411.07,354.313 
		420.664,354.347 420.29,351.176 422.352,350.739 423.581,354.633 425.566,354.63 426.756,352.904 426.579,351.931 427.288,349.25 
		427.477,345.951 421.247,349.007 416.806,347.762 416.375,345.799 419.162,342.329 416.927,340.625 418.581,338.697 
		424.618,336.469 415.982,334.833 426.057,332.896 416.332,327.226 422.747,336.439 424.665,338.009 426.39,336.549 
		426.963,327.902 427.737,326.149 432.926,330.836 432.588,326.005 438.452,331.837 440.023,324.91 433.963,329.675 
		433.725,321.411 429.572,330.646 429.144,323.229 428.133,318.402 429.778,319.185 429.831,320.783 418.985,317.762 
		418.294,315.585 432.545,311.372 424.731,313.23 427.503,315.307 427.148,312.399 426.071,309.932 434.842,308.92 434.131,305.6 
		430.532,303.908 422.678,306.615 426.571,299.406 424.535,302.819 423.024,301.518 430.503,301.011 426.308,298.269 
		417.368,294.635 418.669,292.913 426.205,291.011 423.477,287.351 421.522,286.986 419.939,284.305 416.691,291.988 
		418.331,289.624 420.277,293.818 418.273,288.236 421.042,288.403 423.444,287.128 419.498,282.471 420.868,280.962 
		423.352,279.774 426.213,285.948 427.554,279.752 430.066,284.24 431.502,278.882 435.765,280.217 437.266,275.361 
		433.206,274.464 426.521,274.471 435.263,267.643 432.385,265.616 429.902,265.81 424.9,271.352 424.729,263.294 423.028,267.621 
		416.451,266.973 419.317,261.635 424.482,270.541 426.122,268.138 427.155,257.127 434.48,264.509 426.651,262.076 
		430.929,256.661 424.644,258.388 419.15,255.869 428.555,255.606 425.481,251.139 432.166,248.081 426.531,252.147 425.28,255.902 
		422.206,250.632 421.133,255.284 421.979,247.938 412.951,249.968 411.469,247.96 421.777,246.35 419.872,244.276 418.35,242.313 
		416.072,240.438 421.376,238.167 422.229,240.969 421.674,230.453 421.552,240.498 424.854,234.786 425.203,242.683 
		425.469,232.947 427.987,235.884 435.605,237.554 426.217,235.316 429.263,232.051 427.094,233.341 425.114,231.584 
		426.384,229.605 419.477,229.311 417.536,226.77 420.739,225.401 430.572,225.54 424.962,222.364 423.53,222.024 417.648,217.982 
		424.314,227.612 421.744,217.878 418.936,221.285 427.845,216.188 419.675,216.769 429.796,211.268 427.97,209.736 
		417.868,206.006 424.373,215.807 426.515,215.251 428.674,213.113 430.812,213.1 433.028,205.422 435.108,211.638 437.068,209.526 
		441.125,203.833 438.936,202.894 434.675,203.613 430.846,203.98 430.356,202.414 429.415,204.024 425.234,197.728 
		426.297,207.414 421.519,199.302 420.98,204.125 416.697,209.812 412.129,204.187 413.072,202.28 419.825,199.707 421.842,198.316 
		422.467,196.733 419.41,193.782 418.166,189.219 421.248,198.338 424.55,189.667 426.825,189.339 430.446,199.887 434.516,197.085 
		432.035,190.39 432.53,187.631 432.048,183.572 436.482,186.535 434.573,187.269 435.923,178.696 429.899,189.07 431.772,179.153 
		427.02,186.24 425.81,188.986 425.003,184.957 421.67,176.085 421.258,185.152 419.473,185.824 415.389,185.513 419.167,182.624 
		421.945,181.575 414.737,177.018 415.491,175.251 420.562,175.09 424.654,180.757 429.875,177.575 424.857,171.592 
		421.509,169.718 431.68,167.291 427.48,167.579 426.275,164.324 428.226,164.054 431.097,166.965 437.123,166.365 430.191,161.59 
		437.567,158.265 433.93,156.725 432.445,153.316 429.263,149.948 426.133,155.514 423.781,155.827 420.69,160.979 419.418,156.091 
		416.566,160.041 415.729,152.709 414.693,146.475 407.702,153.532 411.085,149.012 419.793,152.059 418.262,148.549 
		420.442,147.409 417.331,142.888 421.029,147.272 422.13,144.384 424.254,145.816 424.456,137.667 429.083,143.455 
		434.052,141.804 427.751,136.303 423.079,131.639 425.726,130.748 431.459,131.343 428.706,133.549 426.293,134.472 
		424.18,134.982 423.227,125.956 421.294,123.95 418.659,128.43 416.144,131.8 415.05,121.994 412.535,128.583 413.674,127.427 
		414.834,125.773 419.529,127.539 419.51,124.732 420.225,122.794 422.711,123.227 422.42,119.849 422.888,116.628 425.728,119.272 
		427.791,118.312 429.261,111.145 431.505,112.048 433.25,116.474 434.983,114.955 430.459,114.613 432.778,111.85 425.914,112.326 
		427.87,113.276 429.478,102.264 426.73,105.881 426.272,101.958 422.597,106.966 419.004,105.22 425.101,109.321 422.354,102.808 
		423.239,102.502 424.278,100.476 423.666,98.702 428.163,96.13 423.975,95.42 424.266,89.702 427.587,98.298 426.313,99.59 
		426.701,98.092 424.144,91.961 424.322,91.976 417.093,92.188 427.199,90.648 429.026,88.706 425.795,84.499 416.603,91.065 
		415.583,88.368 409.636,82.235 419.958,88.804 420.053,78.618 421.875,77.202 427.631,84.53 422.153,77.799 419.603,74.66 
		425.361,74.528 430.131,75.583 433.37,75.748 425.31,74.654 428.423,72.488 426.106,70.152 423.686,66.352 420.972,72.661 
		426.993,68.444 414.363,68.269 422.761,64.282 421.309,62.295 421.85,59.637 424.01,58.831 411.891,55.43 413.88,53.582 
		423.971,55.84 419.293,48.317 422.512,50.182 421.608,48.603 428.971,49.008 430.359,49.213 422.884,41.624 429.994,41.463 
		425.951,41.87 423.544,39.197 422.341,43.306 421.462,49.254 415.233,47.468 423.101,42.632 411.903,39.258 424.855,38.934 
		421.505,37.614 422.451,36.225 421.989,30.254 426.17,35.28 427.948,33.735 428.767,31.615 425.159,33.364 430.309,26.338 
		428.131,25.692 426.249,24.785 422.003,27.369 418.303,30.055 420.794,23.532 424.464,19.604 424.331,18.725 415.259,17.824 
		416.877,15.897 419.685,13.972 416.1,12.022 	"/>
</g>
<g>
	<polyline class="st0" points="943.539,757.82 945.584,757.488 944.966,753.653 946.968,753.127 943.584,746.218 947.767,748.318 
		956.119,747.79 947.797,745.978 942.656,747.493 949.715,739.573 950.601,741.251 941.197,735.931 942.757,734.563 946.45,734.867 
		944.421,733.701 942.638,734.423 954.797,728.954 949.727,726.337 945.546,723.284 944.16,727.425 942.777,731.631 
		940.552,727.695 934.768,732.344 940.327,727.5 934.072,723.992 936.408,721.381 946.816,724.851 944.002,720.825 940.16,712.635 
		945.126,719.842 944.621,714.45 950.104,717.411 945.19,713.435 945.803,711.763 947.315,714.377 948.453,715.206 947.217,718.994 
		942.629,709.462 941.298,712.887 943.906,709.48 938.086,711.463 941.944,710.692 937.727,707.062 940.033,704.01 945.077,711.115 
		946.568,706.074 947.425,703.794 947.631,701.646 940.868,700.111 942.188,699.008 942.609,694.846 948.793,694.401 945.828,690.4 
		943.989,687.062 953.067,687.978 948.683,686.812 942.165,690.397 950.357,681.938 939.9,686.633 943.796,682.435 948.443,675.747 
		935.911,676.197 943.899,678.242 945.938,675.217 947.922,674.791 947.7,675.151 953.06,677.761 956.769,677.196 954.524,674.518 
		953.053,671.452 954.331,664.988 949.156,668.584 950.291,662.322 943.801,670.005 941.487,670.371 940.461,667.389 
		938.436,666.215 943.346,657.519 936.755,662.001 937.323,661.016 937.579,661.281 939.244,666.6 942.016,656.915 943.423,665.747 
		945.293,668.346 950.406,665.737 942.78,656.587 943.274,654.688 951.013,656.389 947.767,650.598 949.369,649.347 
		956.408,653.368 952.785,647.029 952.855,650.453 956.053,643.256 953.489,646.365 950.358,653.482 949.336,645.673 
		947.298,645.03 941.381,650.656 941.271,645.511 938.255,643.952 940.38,643.376 943.522,633.683 940.557,636.609 938.391,636.881 
		936.293,636.908 934.506,635.894 938.99,638.197 933.717,630.551 936.389,642.696 937.782,630.61 940.113,636.224 941.922,631.959 
		944.139,635.365 951.885,640.83 949.5,633.661 940.261,633.574 951.088,629.238 948.435,627.757 945.197,627.379 949.341,627.522 
		944.854,624.609 943.159,625.574 937.05,623.513 950.187,621.973 943.61,619.744 949.131,614.109 941.101,617.994 937.634,621.327 
		939.524,611.853 934.166,619.68 935.623,614.407 936.643,619.671 938.635,618.389 940.65,617.9 942.606,615.421 944.439,608.598 
		944.038,609.731 940.988,609.075 953.927,612.628 948.968,608.319 948.524,604.921 953.897,608.536 957.408,609.9 950.914,599.211 
		955.199,602.479 955.08,600.741 956.013,596.766 953.571,596.843 950.637,597.509 948.611,597.421 946.032,599.918 
		943.325,602.128 943.39,594.746 945.367,593.429 944.534,592.25 943.576,596.736 947.688,587.916 949.174,595.014 954.83,595.697 
		948.268,587.312 954.246,588.225 952.101,585.549 945.325,587.494 951.634,580.797 949.309,579.795 950.811,579.317 
		952.248,580.91 944.666,573.477 951.801,575.682 945.14,568.841 945.709,574.672 950.254,573.174 947.345,569.396 945.924,572.35 
		944.207,573.98 943.145,571.298 948.146,572.463 943.458,569.688 935.882,568.039 942.559,565.989 942.9,563.967 947.224,562.559 
		947.05,561.877 941.68,558.119 940.694,555.454 942.55,555.332 944.787,554.31 948.208,552.618 944.285,558.037 942.746,555.596 
		941.711,547.953 938.87,552.679 945.49,550.821 945.422,548.937 936.343,546.24 945.227,548.463 940.492,540.221 945.734,549.768 
		942.449,536.356 950.122,548.683 950.609,545.274 953.674,543.732 955.354,540.703 946.468,533.753 951.18,533.896 
		952.205,533.443 952.172,532.449 952.005,529.79 948.607,530.518 949.339,525.973 946.32,534.358 945.312,520.602 942.794,532.202 
		937.1,533.387 945.925,522.029 944.977,520.019 930.793,520.643 941.078,521.882 936.883,514.188 940.057,514.951 948.463,519.121 
		942.447,512.6 941.546,508.497 950.719,515.501 942.321,510.591 947.982,504.372 946.076,504.488 948.897,505.872 942.144,507.145 
		939.06,504.481 946.647,504.025 946.541,501.974 941.48,501.336 947.478,492.492 943.881,497.674 939.886,497.525 937.767,496.08 
		939.88,492.506 944.012,494.052 940.773,491.513 943.503,489.944 942.457,499.349 948.187,489.062 947.31,497.984 944.426,490.563 
		952.711,489.727 945.998,493.218 948.001,488.443 948.457,485.13 949.515,486.646 945.828,486.467 943.643,481.812 
		948.721,483.928 947.726,482.096 947.312,484.266 944.53,481.44 942.453,481.626 942.029,488.901 940.473,482.378 941.734,483.337 
		940.4,479.963 941.078,477.975 944.311,477.75 946.814,480.452 946.036,475.847 952.135,479.725 945.037,474.626 944.285,472.797 
		950.216,469.68 940.003,469.659 951.305,464.694 937.476,463.989 944.605,461.463 946.184,460.311 948.71,459.867 942.548,456.374 
		943.251,456.234 947.546,453.386 952.722,445.655 946.668,454.251 943.322,446.449 942.669,455.95 935.197,450.14 941.956,450.756 
		943.323,458.32 945.76,450.516 945.679,448.18 948.425,451.182 944.71,445.409 953.945,448.824 944.65,450.849 946.977,446.871 
		945.465,445.546 952.32,438.424 938.302,441.085 947.973,440.024 945.423,436.328 946.816,435.031 953.687,432.929 
		947.136,434.765 946.587,431.128 943.085,433.256 944.659,429.635 940.136,428.683 947.07,433.919 943.669,426.789 
		949.986,424.027 938.734,425.287 937.875,423.596 936.5,422.048 936.455,420.118 942.868,417.44 945.225,412.612 947.392,420.126 
		942.735,418.304 945.992,414.6 945.824,412.485 947.621,408.002 939.992,410.282 937.127,410.386 940.812,403.9 933.276,405.82 
		935.052,401.441 939.619,404.434 938.393,399.286 939.91,394.614 943.992,397.04 945.95,399.454 947.7,397.559 954.929,404.635 
		947.825,399.936 947.569,398.126 943.474,397.852 951.585,391.354 946.746,391.38 947.611,389.336 942.809,389.178 
		946.585,383.437 941.983,384.238 940.93,381.722 940.262,378.329 938.246,377.948 927.48,384.199 940.024,387.389 940.4,384.948 
		937.274,378.351 941.073,379.955 943.291,380.254 944.54,379.388 942.227,371.563 945.33,372.942 949.199,377.394 949.394,371.681 
		950.748,369.279 960.016,374.083 949.138,371.746 957.857,364.583 956.032,363.393 951.316,361.721 947.775,363.467 
		945.438,360.789 944.053,363.887 942.942,368.663 940.679,366.129 935.656,364.893 946.722,360.727 941.122,359.622 
		934.096,358.208 935.955,356.033 937.335,353.891 934.596,347.198 941.97,345.997 943.52,348.211 944.629,352.729 946.256,354.577 
		953.442,356.995 953.702,348.426 945.396,350.649 945.792,348.053 941.73,349.158 948.553,343.468 937.604,345.586 
		938.377,342.717 937.391,340.654 936.828,339.015 941.489,336.708 946.909,334.802 942.743,332.91 944.305,333.717 942.654,324.53 
		944.682,327.772 946.745,331.556 948.482,330.486 947.405,324.411 951.294,326.86 950.973,322.054 958.414,330.601 
		954.441,325.469 955.766,324.657 953.641,324.831 952.936,318.653 948.827,327.683 946.533,328.593 945.673,322.599 
		950.495,320.782 941.818,317.942 946.662,316.228 946.594,314.06 945.519,312.917 949.16,318.432 952.262,313.643 948.493,310.421 
		950.487,308.628 954.125,305.701 949.773,304.12 953.248,298.158 946.971,302.257 945.243,302.526 940.524,303.572 
		941.007,299.109 941.979,297.333 937.965,294.619 951.056,295.102 943.859,293.208 944.164,287.3 941.846,289.208 938.853,295.323 
		936.405,298.009 940.546,289.227 936.86,288.879 938.359,287.52 939.179,285.336 941.953,285.451 936.948,281.001 941.869,281.108 
		946.568,283.35 945.719,275.243 948.453,281.756 950.912,285.763 952.751,284.067 951.236,277.268 953.983,276.731 
		957.439,273.235 955.475,271.609 954.302,268.749 950.164,269.298 944.592,273.414 944.513,274.255 945.452,265.418 
		940.555,270.89 937.4,266.903 939.746,261.494 944.983,268.032 946.362,261.928 948.505,266.639 956.989,265.136 944.93,263.7 
		942.879,262.566 941.924,260.687 944.276,255.843 944.791,252.898 945.33,250.633 953.548,247.719 946.993,251.07 944.792,250.122 
		943.357,252.968 941.77,255.07 934.904,257.193 935.709,250.039 938.919,248.19 933.757,246.055 943.402,244.25 937.333,242.401 
		937.039,240.422 945.094,238.011 943.609,241.808 939.988,241.333 942.806,237.85 943.971,241.979 946.982,237.622 
		951.798,244.435 948.143,235.599 945.785,231.835 955.77,230.811 950.271,226.809 948.247,225.811 945.498,236.272 
		940.568,234.579 937.385,228.679 950.547,229.582 939.862,225.045 950.488,225.366 939.583,225.171 945.118,219.21 940.031,219.23 
		944.529,214.998 944.108,219.083 940.458,221.004 950.489,215.537 949.089,213.865 942.849,213.803 942.996,211.615 
		944.308,210.515 945.185,202.705 947.231,211.592 949.395,209.056 951.473,215.016 953.688,207.427 955.785,211.884 
		955.272,208.269 961.597,204 950.946,209.855 956.241,202.901 950.214,205.034 952.509,197.748 949.39,201.875 946.947,200.879 
		946.022,204.503 941.48,197.113 940.648,201.042 941.69,201.828 933.89,204.065 932.371,202.438 933.594,200.496 945.52,198.532 
		939.662,195.945 940.494,193.874 940.476,191.547 941.958,198.082 944.448,195.989 946.334,198.814 950.453,197.211 
		950.43,190.766 952.075,189.542 951.047,184.763 953.432,184.507 964.345,186.237 956.948,182.915 953.181,187.486 
		951.713,186.161 951.09,182.652 947.732,186.159 947.751,176.927 945.057,181.117 944.435,188.869 940.937,179.018 940.494,187.92 
		937.012,184.752 940.176,182.739 942.323,181.469 944.688,180.27 933.775,174.41 943.038,177.169 942.606,171.755 942.365,170.982 
		944.436,171.637 947.751,169.492 950.688,167.358 947.047,166.799 948.22,168.722 949.898,167.501 951.073,164.527 
		946.883,159.928 948.836,161.92 954.982,158.794 950.026,157.469 953.137,153.304 949.729,151.353 946.228,159.364 
		944.787,153.855 943.005,151.847 941.695,147.163 938.284,154.23 935.378,158.468 933.768,155.443 931.522,152.175 
		931.981,149.151 932.666,147.064 933.739,145.221 940.977,147.316 941.705,147.426 941.724,147.316 943.727,146.945 
		943.278,139.266 944.869,135.851 949.932,143.685 954.068,141.461 946.842,135.483 946.548,133.079 956.042,135.723 
		956.772,128.774 950.778,126.51 948.723,125.63 944.896,134.741 943.337,131.226 941.541,127.949 939.94,122.865 936.811,131.929 
		934.755,131.006 937.223,126.803 929.527,122.752 939.901,130.023 940.205,127.534 935.114,119.815 938.915,120.581 
		940.655,119.678 947.188,125.149 946.533,124.663 946.584,121.118 949.108,124.983 950.919,121.389 952.577,116.157 
		960.493,121.668 960.34,113.304 952.168,114.249 946.54,114.293 952.287,110.315 950.185,110.884 948.749,114.699 947.438,105.634 
		943.074,112.706 946.114,103.312 944.391,106.015 943.205,103.567 944.924,103.832 938.391,103.361 937.685,101.605 
		948.167,98.108 943.401,96.976 942.601,93.996 946.131,96.49 947.832,95.808 948.877,95.187 947.171,94.445 944.864,92.671 
		945.103,91.862 940.121,92.301 936.647,90.106 937.054,88.096 941.261,87.417 938.932,88.55 938.018,85.691 941.328,82.691 
		938.436,77.603 942.398,87.097 942.27,75.751 948.896,85.25 952.855,81.767 952.335,79.43 945.173,74.025 945.779,71.525 
		952.159,74.223 949.916,71.855 948.572,64.668 946.659,68.287 945.052,76.463 944.42,69.271 935.312,70.492 941.994,67.118 
		945.883,63.468 945.521,60.409 943.505,59.116 932.026,60.029 931.982,55.271 946.709,56.864 939.984,52.518 942.316,52.472 
		943.24,50.269 943.039,48.951 950.716,49.272 950.841,49.081 949.291,45.416 942.228,45.168 946.336,40.226 945.097,44.099 
		943.015,43.274 939.868,36.484 941.146,42.096 932.801,41.243 934,39.437 941.811,38.463 943.952,38.81 944.807,38.654 
		947.182,39.817 945.971,31.887 949.194,35.921 955.902,34.175 949.391,30.268 949.562,27.58 948.773,25.725 943.291,27.955 
		943.099,26.572 942.729,25.22 947.628,20.532 941.38,21.439 945.166,18.691 940.126,17.841 942.989,15.918 945.132,13.99 
		941.598,12.042 	"/>
</g>
</svg>
