<?xml version="1.0" encoding="utf-8"?>
<!-- Generator: Adobe Illustrator 15.0.0, SVG Export Plug-In . SVG Version: 6.00 Build 0)  -->
<!DOCTYPE svg PUBLIC "-//W3C//DTD SVG 1.1//EN" "http://www.w3.org/Graphics/SVG/1.1/DTD/svg11.dtd">
<svg version="1.1" id="Layer_1" xmlns="http://www.w3.org/2000/svg" xmlns:xlink="http://www.w3.org/1999/xlink" x="0px" y="0px"
	 width="1024px" height="768px" viewBox="0 0 1024 768" style="enable-background:new 0 0 1024 768;" xml:space="preserve">
<style type="text/css">
<![CDATA[
	.st0{fill:none;stroke:#FF5F9F;stroke-miterlimit:10;}
]]>
</style>
<polyline class="st0" points="291.215,754.153 295.584,750.828 299.747,747.284 294.986,741.126 300.025,734.713 298.381,728.649 
	289.393,729.576 290.658,722.793 293.677,718.104 297.427,718.019 300.167,711.462 289.866,714.056 292.548,706.465 
	296.676,705.701 298.141,699.459 296.328,694.908 300.268,688.251 296.55,684.262 296.571,683.352 292.395,678.311 300.279,678.487 
	302.646,671.804 297.338,668.07 292.146,665.558 286.067,660.252 298.35,661.156 300.84,655.94 307.873,648.7 295.367,646.934 
	293.995,640.599 282.503,637.146 296.697,636.395 294.626,626.616 297.24,625.582 293.474,625.717 293.751,617.733 284.917,614.034 
	297.087,613.677 299.44,608.322 306.477,602.48 299.447,596.637 293.172,595.204 293.85,590.919 298.751,592.23 302.41,588.183 
	296.588,579.363 302.252,570.722 292.359,572.907 293.442,567.81 292.017,562.388 293.789,556.453 294.028,556.252 297.021,552.843 
	289.995,552.163 290.661,544.702 295.674,542.937 300.867,540.424 304.661,533.153 299,527.758 291.723,527.325 288.366,521.596 
	293.083,517.235 296.278,512.725 299.788,510.039 294.157,509.489 296.168,499.771 293.443,498.482 289.416,490.46 301.167,494.504 
	293.989,486.926 299.21,481.328 289.15,483.681 294.899,475.373 298.158,476.093 296.325,466.553 295.107,463.817 299.59,457.839 
	298.751,450.971 290.429,452.267 297.964,452.79 301.606,448.725 296.055,440.709 299.862,434.457 294.493,432.119 292.607,429.156 
	295.621,427.338 292.561,416.571 296.461,417.601 293.645,417.565 291.926,411.577 286.374,406.052 292.838,401.445 
	300.183,401.085 297.542,394.493 295.64,392.462 293.397,386.998 284.302,382.945 291.431,376.93 296.331,374.123 304.147,371.388 
	300.335,364.658 291.098,366.188 289.96,359.831 289.348,351.737 298.9,353.583 296.012,348.273 294.558,347.326 292.403,341.773 
	291.747,336.721 291.729,331.009 298.967,330.541 308.2,325.174 296.271,322.505 296.973,314.096 295.747,313.609 298.427,314.598 
	300.115,308.58 299.153,302.057 294.105,301.561 295.877,292.081 286.058,290.507 292.282,285.345 294.692,280.048 304.68,278.953 
	301.833,270.724 297.522,267.328 294.396,267.392 293.311,263.264 300.51,262.756 295.828,255.836 299.284,250.163 289.626,252.114 
	289.893,244.286 289.482,236.327 299.33,238.468 302.454,232.733 294.129,232.209 296.406,222.226 293.154,221.175 297.287,221.023 
	293.45,209.479 308.417,209.629 301.818,201.413 290.349,205.174 289.537,198.068 290.994,191.621 299.789,192.708 307.996,186.52 
	297.636,182.485 288.425,183.988 291.593,174.958 296.082,173.599 295.754,165.565 303.25,163.406 301.902,155.109 295.214,154.091 
	282.725,151.856 288.469,142.878 294.144,140.846 297.912,140.293 302.504,131.399 296.069,130.126 283.312,128.747 
	290.267,121.566 294.619,118.211 305.301,117.19 302.248,108.546 295.325,107.762 292.581,105.63 295.938,104.128 294.519,95.002 
	299.818,94.077 293.229,94.456 293.619,86.358 287.774,82.525 295.855,80.937 298.04,75.415 301.625,70.97 293.022,71.553 
	291.928,64.941 288.977,59.415 290.777,52.75 295.705,49.971 295.472,47.855 299.116,42.351 289.739,44.021 290.714,36.304 
	294.695,33.559 300.816,31.973 294.517,24.746 293.403,24.955 290.876,19.774 290.907,12.037 "/>
<polyline class="st0" points="811.895,754.153 816.264,750.828 820.427,747.284 815.666,741.126 820.705,734.713 819.061,728.649 
	810.072,729.576 811.338,722.793 814.356,718.104 818.107,718.019 820.846,711.462 810.545,714.056 813.229,706.465 
	817.355,705.701 818.82,699.459 817.008,694.908 820.947,688.251 817.229,684.262 817.251,683.352 813.074,678.311 820.959,678.487 
	823.325,671.804 818.018,668.07 812.825,665.558 806.746,660.252 819.029,661.156 821.52,655.94 828.553,648.7 816.047,646.934 
	814.675,640.599 803.183,637.146 817.377,636.395 815.306,626.616 817.92,625.582 814.154,625.717 814.431,617.733 805.598,614.034 
	817.768,613.677 820.119,608.322 827.156,602.48 820.127,596.637 813.852,595.204 814.529,590.919 819.431,592.23 823.09,588.183 
	817.268,579.363 822.932,570.722 813.039,572.907 814.122,567.81 812.696,562.388 814.469,556.453 814.707,556.252 817.701,552.843 
	810.674,552.163 811.341,544.702 816.354,542.937 821.547,540.424 825.341,533.153 819.68,527.758 812.402,527.325 809.046,521.596 
	813.763,517.235 816.958,512.725 820.468,510.039 814.837,509.489 816.848,499.771 814.123,498.482 810.096,490.46 821.847,494.504 
	814.668,486.926 819.89,481.328 809.83,483.681 815.578,475.373 818.838,476.093 817.005,466.553 815.787,463.817 820.27,457.839 
	819.431,450.971 811.108,452.267 818.645,452.79 822.285,448.725 816.734,440.709 820.542,434.457 815.172,432.119 813.287,429.156 
	816.301,427.338 813.24,416.571 817.141,417.601 814.324,417.565 812.605,411.577 807.053,406.052 813.518,401.445 820.863,401.085 
	818.223,394.493 816.32,392.462 814.077,386.998 804.981,382.945 812.11,376.93 817.01,374.123 824.827,371.388 821.015,364.658 
	811.777,366.188 810.64,359.831 810.027,351.737 819.58,353.583 816.691,348.273 815.238,347.326 813.083,341.773 812.426,336.721 
	812.408,331.009 819.646,330.541 828.88,325.174 816.95,322.505 817.652,314.096 816.426,313.609 819.106,314.598 820.795,308.58 
	819.833,302.057 814.785,301.561 816.557,292.081 806.737,290.507 812.962,285.345 815.372,280.048 825.359,278.953 
	822.513,270.724 818.201,267.328 815.075,267.392 813.99,263.264 821.189,262.756 816.508,255.836 819.964,250.163 810.307,252.114 
	810.572,244.286 810.162,236.327 820.01,238.468 823.133,232.733 814.809,232.209 817.086,222.226 813.834,221.175 817.967,221.023 
	814.13,209.479 829.096,209.629 822.498,201.413 811.028,205.174 810.217,198.068 811.674,191.621 820.469,192.708 828.676,186.52 
	818.315,182.485 809.105,183.988 812.273,174.958 816.762,173.599 816.434,165.565 823.93,163.406 822.582,155.109 815.894,154.091 
	803.404,151.856 809.148,142.878 814.824,140.846 818.592,140.293 823.184,131.399 816.749,130.126 803.992,128.747 
	810.946,121.566 815.299,118.211 825.98,117.19 822.928,108.546 816.004,107.762 813.26,105.63 816.617,104.128 815.198,95.002 
	820.498,94.077 813.908,94.456 814.299,86.358 808.453,82.525 816.535,80.937 818.72,75.415 822.305,70.97 813.702,71.553 
	812.607,64.941 809.656,59.415 811.457,52.75 816.385,49.971 816.152,47.855 819.795,42.351 810.418,44.021 811.395,36.304 
	815.375,33.559 821.496,31.973 815.197,24.746 814.082,24.955 811.556,19.774 811.586,12.037 "/>
<g>
	<polyline class="st0" points="410.576,754.83 412.208,753.955 409.434,747.286 415.819,752.553 417.316,751.409 416.749,747.93 
		417.319,747.189 418.397,744.982 420.654,740.777 415.117,742.597 419.57,741.244 413.256,738.088 414.207,736.241 420.51,738.597 
		412.653,733.488 423.877,731.189 410.858,732.547 416.339,729.783 415.521,729.699 413.547,728.139 412.531,735.906 
		410.618,734.996 407.385,730.145 415.467,728.587 406.14,724.507 414.406,724.622 407.099,719.036 415.904,722.493 
		411.722,716.666 414.53,723.865 415.096,716.222 412.383,714.473 417.288,714.598 411.867,710.405 420.791,709.288 
		418.553,718.325 415.473,714.794 413.534,715.785 409.104,706.907 403.591,719.253 410.965,712.723 407.77,709.459 408.927,707.73 
		414.312,709.962 413.243,704.919 416.863,707.092 414.574,703.286 418.317,701.968 414.936,699.656 422.234,694.731 
		413.591,694.878 420.936,696.076 412.31,688.725 412.982,686.873 412.259,688.826 413.199,691.281 417.487,684.798 
		411.332,686.472 412.866,684.701 413.364,682.222 415.347,677.744 414.963,679.62 413.052,685.478 415.183,678.282 
		417.203,676.232 421.793,682.699 417.227,675.939 416.3,673.731 421.688,673.756 417.719,673.324 415.547,676.5 415.469,672.85 
		415.257,669.629 412.878,670.492 415.47,660.72 410.256,666.663 408.889,664.907 404.936,666.369 410.047,657.441 406.659,661.024 
		406.704,663.835 409.072,659.613 410.674,665.792 412.939,662.984 414.852,665 420.492,667.141 423.765,662.16 413.01,654.889 
		425.732,660.184 425.227,658.51 421.567,652.147 425.61,653.26 428.221,652.978 430.368,647.295 424.075,652.396 422.375,649.395 
		421.058,643.67 418.229,648.651 415.887,650.158 418.941,641.931 409.721,645.698 420.129,641.232 417.331,636.639 
		411.871,636.889 409.452,637.996 408.411,634.526 405.68,636.66 402.457,640.423 401.424,637.157 403.125,632.376 405.764,643.879 
		407.511,638.463 409.174,631.464 411.309,633.372 413.422,634.8 410.633,632.541 409.042,635.729 410.468,633.386 414.188,630.557 
		415.246,628.286 418.355,630.206 421.744,629.859 414.249,626.915 412.561,625.49 409.403,623.619 418.009,621.921 
		407.112,619.543 409.466,619.673 409.146,621.02 407.25,620.601 407.384,615.322 407.71,609.577 405.169,614.482 405.908,618.047 
		407.628,607.542 409.755,610.847 411.897,614.695 413.901,613.679 412.729,608.782 415.088,611.178 411.92,607.656 
		422.329,611.321 417.58,604.611 421.144,606.047 422.147,604.392 427.309,607.74 420.93,602.472 420.222,605.759 422.412,600.271 
		424.006,595.493 416.919,601.154 418.435,596.336 416.225,596.067 413.948,596.395 415.356,592.97 416.192,593.668 
		412.293,590.454 414.11,592.167 414.709,596.477 417.833,592.968 423.267,594.906 419.764,589.286 420.452,588.168 
		416.999,588.462 416.396,586.334 415.758,584.223 410.882,584.905 421.537,579.303 414.962,576.586 421.48,578.392 420.73,575.43 
		416.419,570.129 414.996,574.689 418.018,566.162 417.24,572.028 415.282,572.553 413.551,574.12 411.312,572.771 405.471,569.915 
		410.257,569.155 416.334,567.679 407.351,567.178 413.426,563.647 417.269,562.582 416.171,561.821 408.767,557.454 
		413.111,556.635 416.511,559.562 417.07,556.917 419.373,552.365 414.151,552.3 411.75,558.779 409.889,559.678 410.368,550.965 
		404.165,549.87 403.008,547.887 405.787,546.253 413.437,547.641 410.816,543.091 414.1,547.077 417.359,549.708 414.174,537.812 
		415.443,536.017 415.797,536.469 419.697,538.108 419.82,535.861 420.134,533.709 428.775,532.385 421.731,532.189 
		421.259,529.853 418.112,530.316 416.442,530.87 415.638,534.266 414.003,531.055 412.369,527.808 407.398,531.947 
		412.882,523.406 406.613,524.515 405.047,521.306 412.845,524.537 415.21,523.941 415.425,520.354 413.551,516.128 
		417.706,516.812 414.821,512.424 420.92,516.662 416.635,510.196 416.188,515.704 415.294,505.449 417.771,506.178 419.94,508.9 
		409.949,504.808 410.393,502.874 407.849,500.317 420.761,497.642 411.386,503.916 416.116,495.061 405.022,499.621 
		412.616,493.301 406.328,493.943 403.285,486.924 411.302,487.98 414.138,486.104 412.437,497.409 414.656,497.324 
		418.537,492.418 419.452,494.151 419.799,491.833 412.213,496.151 417.214,488.539 413.919,488.778 418.281,486.671 
		412.558,484.058 417.106,485.684 414.553,480.682 423.139,477.492 417.322,487.253 413.38,479.464 412.744,485.811 
		409.135,479.468 408.136,483.579 410.69,483.09 409.243,479.638 417.331,482.776 415.626,479.136 415.36,478.816 416.631,470.041 
		411.466,471.567 411.023,475.266 422.622,471.063 416.013,470.354 415.995,468.376 415.086,466.582 420.188,463.67 
		418.154,464.638 421.332,464.688 421.028,462.121 417.573,457.646 417.293,455.657 412.611,453.905 414.987,454.099 
		414.469,444.554 412.955,448.508 411.739,454.392 410.896,452.992 411.066,453.661 413.261,449.316 414.537,458.234 
		417.431,454.362 413.658,447.526 422.535,453.033 416.166,448.572 418.342,447.816 419.615,444.568 419.824,442.051 
		420.221,439.399 407.792,441.074 418.347,440.67 414.55,436.216 414.192,433.852 417.673,434.826 417.839,431.568 417.255,428.018 
		414.708,430.463 415.64,428.573 414.505,429.876 413.272,428.764 408.042,424.963 410.44,426.547 416.248,422.958 411.238,422.445 
		414.815,419.488 415.243,417.424 408.086,412.846 413.296,417.316 414.387,415.937 415.718,412.176 410.692,415.923 
		405.618,415.218 407.948,413.215 408.822,410.768 406.807,410.017 405.03,409.021 402.9,405.849 409.673,408.892 411.851,408.528 
		413.218,407.022 413.636,406.863 413.436,399.728 415.117,396.503 417.397,405.375 424.336,404.699 415.824,400.462 
		413.899,399.321 422.195,394.083 420.832,391.399 418.236,389.882 418.38,388.738 408.672,390.594 411.286,387.932 411.129,384.61 
		411.302,379.342 405.678,387.069 404.139,385.622 407.846,382.017 400.345,376.734 409.835,385.095 410.285,382.735 
		405.892,374.631 409.518,375.844 411.424,375.15 417.195,381.434 418.006,380.39 418.161,376.389 421.463,379.564 422.294,375.666 
		421.85,370.901 428.322,366.153 426.733,364.831 418.801,367.099 416.152,370.808 417.354,365.074 415.955,368.062 
		414.699,371.942 411.401,363.508 406.631,370.268 413.783,363.316 411.459,361.544 407.38,360.014 408.033,357.856 
		401.641,356.307 401.062,354.313 410.656,354.347 410.282,351.176 412.344,350.739 413.573,354.633 415.559,354.63 
		416.748,352.904 416.571,351.931 417.28,349.25 417.469,345.951 411.239,349.007 406.798,347.762 406.367,345.799 409.154,342.329 
		406.919,340.625 408.573,338.697 414.61,336.469 405.975,334.833 416.049,332.896 406.324,327.226 412.739,336.439 
		414.657,338.009 416.382,336.549 416.955,327.902 417.729,326.149 422.918,330.836 422.581,326.005 428.444,331.837 
		430.016,324.91 423.955,329.675 423.717,321.411 419.564,330.646 419.136,323.229 418.125,318.402 419.77,319.185 419.823,320.783 
		408.978,317.762 408.286,315.585 422.537,311.372 414.724,313.23 417.495,315.307 417.14,312.399 416.063,309.932 424.834,308.92 
		424.124,305.6 420.524,303.908 412.67,306.615 416.563,299.406 414.527,302.819 413.017,301.518 420.495,301.011 416.3,298.269 
		407.36,294.635 408.662,292.913 416.197,291.011 413.469,287.351 411.514,286.986 409.932,284.305 406.683,291.988 
		408.323,289.624 410.27,293.818 408.266,288.236 411.034,288.403 413.437,287.128 409.49,282.471 410.86,280.962 413.344,279.774 
		416.206,285.948 417.546,279.752 420.058,284.24 421.495,278.882 425.757,280.217 427.258,275.361 423.198,274.464 
		416.513,274.471 425.255,267.643 422.377,265.616 419.895,265.81 414.892,271.352 414.722,263.294 413.021,267.621 
		406.443,266.973 409.309,261.635 414.474,270.541 416.114,268.138 417.147,257.127 424.472,264.509 416.644,262.076 
		420.921,256.661 414.636,258.388 409.143,255.869 418.547,255.606 415.474,251.139 422.158,248.081 416.523,252.147 
		415.272,255.902 412.198,250.632 411.125,255.284 411.972,247.938 402.943,249.968 401.461,247.96 411.77,246.35 409.864,244.276 
		408.342,242.313 406.064,240.438 411.369,238.167 412.221,240.969 411.666,230.453 411.544,240.498 414.847,234.786 
		415.195,242.683 415.461,232.947 417.979,235.884 425.598,237.554 416.209,235.316 419.255,232.051 417.086,233.341 
		415.106,231.584 416.376,229.605 409.469,229.311 407.528,226.77 410.731,225.401 420.564,225.54 414.954,222.364 413.522,222.024 
		407.641,217.982 414.306,227.612 411.736,217.878 408.928,221.285 417.837,216.188 409.667,216.769 419.789,211.268 
		417.962,209.736 407.86,206.006 414.365,215.807 416.507,215.251 418.667,213.113 420.804,213.1 423.021,205.422 425.1,211.638 
		427.06,209.526 431.118,203.833 428.928,202.894 424.667,203.613 420.838,203.98 420.348,202.414 419.407,204.024 415.227,197.728 
		416.29,207.414 411.511,199.302 410.972,204.125 406.689,209.812 402.121,204.187 403.064,202.28 409.817,199.707 411.834,198.316 
		412.459,196.733 409.402,193.782 408.158,189.219 411.24,198.338 414.542,189.667 416.817,189.339 420.438,199.887 
		424.508,197.085 422.027,190.39 422.522,187.631 422.04,183.572 426.474,186.535 424.565,187.269 425.916,178.696 419.892,189.07 
		421.764,179.153 417.012,186.24 415.802,188.986 414.996,184.957 411.662,176.085 411.25,185.152 409.465,185.824 405.381,185.513 
		409.16,182.624 411.937,181.575 404.729,177.018 405.483,175.251 410.554,175.09 414.646,180.757 419.867,177.575 414.85,171.592 
		411.501,169.718 421.672,167.291 417.473,167.579 416.267,164.324 418.218,164.054 421.089,166.965 427.115,166.365 
		420.184,161.59 427.559,158.265 423.922,156.725 422.437,153.316 419.255,149.948 416.125,155.514 413.773,155.827 
		410.683,160.979 409.411,156.091 406.558,160.041 405.721,152.709 404.685,146.475 397.694,153.532 401.077,149.012 
		409.785,152.059 408.254,148.549 410.434,147.409 407.323,142.888 411.021,147.272 412.123,144.384 414.246,145.816 
		414.448,137.667 419.076,143.455 424.044,141.804 417.743,136.303 413.071,131.639 415.718,130.748 421.451,131.343 
		418.698,133.549 416.286,134.472 414.172,134.982 413.219,125.956 411.286,123.95 408.651,128.43 406.136,131.8 405.042,121.994 
		402.527,128.583 403.667,127.427 404.826,125.773 409.521,127.539 409.502,124.732 410.217,122.794 412.703,123.227 
		412.413,119.849 412.88,116.628 415.72,119.272 417.783,118.312 419.253,111.145 421.498,112.048 423.242,116.474 424.976,114.955 
		420.451,114.613 422.771,111.85 415.906,112.326 417.862,113.276 419.47,102.264 416.722,105.881 416.264,101.958 412.589,106.966 
		408.996,105.22 415.093,109.321 412.346,102.808 413.231,102.502 414.271,100.476 413.658,98.702 418.155,96.13 413.967,95.42 
		414.258,89.702 417.58,98.298 416.305,99.59 416.693,98.092 414.136,91.961 414.314,91.976 407.085,92.188 417.191,90.648 
		419.019,88.706 415.788,84.499 406.595,91.065 405.576,88.368 399.628,82.235 409.951,88.804 410.045,78.618 411.867,77.202 
		417.624,84.53 412.146,77.799 409.595,74.66 415.354,74.528 420.124,75.583 423.362,75.748 415.302,74.654 418.416,72.488 
		416.098,70.152 413.678,66.352 410.964,72.661 416.985,68.444 404.355,68.269 412.753,64.282 411.301,62.295 411.842,59.637 
		414.002,58.831 401.883,55.43 403.873,53.582 413.963,55.84 409.286,48.317 412.504,50.182 411.6,48.603 418.963,49.008 
		420.352,49.213 412.876,41.624 419.986,41.463 415.943,41.87 413.537,39.197 412.333,43.306 411.455,49.254 405.226,47.468 
		413.093,42.632 401.896,39.258 414.848,38.934 411.498,37.614 412.443,36.225 411.981,30.254 416.162,35.28 417.94,33.735 
		418.759,31.615 415.151,33.364 420.301,26.338 418.123,25.692 416.241,24.785 411.996,27.369 408.295,30.055 410.787,23.532 
		414.456,19.604 414.323,18.725 405.251,17.824 406.869,15.897 409.677,13.972 406.092,12.022 	"/>
</g>
<g>
	<polyline class="st0" points="933.531,757.82 935.576,757.488 934.958,753.653 936.96,753.127 933.576,746.218 937.759,748.318 
		946.111,747.79 937.789,745.978 932.648,747.493 939.707,739.573 940.593,741.251 931.189,735.931 932.749,734.563 
		936.442,734.867 934.413,733.701 932.63,734.423 944.789,728.954 939.719,726.337 935.538,723.284 934.152,727.425 932.77,731.631 
		930.544,727.695 924.76,732.344 930.319,727.5 924.064,723.992 926.4,721.381 936.809,724.851 933.994,720.825 930.152,712.635 
		935.118,719.842 934.613,714.45 940.097,717.411 935.183,713.435 935.795,711.763 937.308,714.377 938.445,715.206 
		937.209,718.994 932.621,709.462 931.29,712.887 933.898,709.48 928.078,711.463 931.937,710.692 927.719,707.062 930.025,704.01 
		935.069,711.115 936.561,706.074 937.417,703.794 937.623,701.646 930.86,700.111 932.18,699.008 932.602,694.846 938.785,694.401 
		935.82,690.4 933.981,687.062 943.06,687.978 938.675,686.812 932.157,690.397 940.35,681.938 929.893,686.633 933.788,682.435 
		938.436,675.747 925.903,676.197 933.892,678.242 935.931,675.217 937.914,674.791 937.692,675.151 943.052,677.761 
		946.761,677.196 944.517,674.518 943.045,671.452 944.323,664.988 939.148,668.584 940.283,662.322 933.793,670.005 
		931.479,670.371 930.453,667.389 928.428,666.215 933.338,657.519 926.747,662.001 927.315,661.016 927.571,661.281 929.236,666.6 
		932.008,656.915 933.415,665.747 935.285,668.346 940.398,665.737 932.772,656.587 933.267,654.688 941.005,656.389 
		937.759,650.598 939.361,649.347 946.4,653.368 942.777,647.029 942.848,650.453 946.045,643.256 943.481,646.365 940.351,653.482 
		939.328,645.673 937.29,645.03 931.373,650.656 931.264,645.511 928.247,643.952 930.372,643.376 933.515,633.683 930.549,636.609 
		928.383,636.881 926.285,636.908 924.498,635.894 928.982,638.197 923.709,630.551 926.381,642.696 927.774,630.61 
		930.105,636.224 931.914,631.959 934.131,635.365 941.877,640.83 939.492,633.661 930.253,633.574 941.08,629.238 938.427,627.757 
		935.189,627.379 939.333,627.522 934.846,624.609 933.151,625.574 927.042,623.513 940.179,621.973 933.603,619.744 
		939.123,614.109 931.093,617.994 927.626,621.327 929.517,611.853 924.158,619.68 925.615,614.407 926.635,619.671 
		928.627,618.389 930.643,617.9 932.599,615.421 934.432,608.598 934.03,609.731 930.98,609.075 943.919,612.628 938.96,608.319 
		938.517,604.921 943.89,608.536 947.4,609.9 940.906,599.211 945.191,602.479 945.072,600.741 946.005,596.766 943.563,596.843 
		940.629,597.509 938.604,597.421 936.024,599.918 933.317,602.128 933.382,594.746 935.359,593.429 934.526,592.25 
		933.568,596.736 937.68,587.916 939.166,595.014 944.822,595.697 938.26,587.312 944.238,588.225 942.093,585.549 935.317,587.494 
		941.626,580.797 939.301,579.795 940.803,579.317 942.24,580.91 934.658,573.477 941.793,575.682 935.132,568.841 935.701,574.672 
		940.246,573.174 937.337,569.396 935.916,572.35 934.199,573.98 933.137,571.298 938.139,572.463 933.45,569.688 925.874,568.039 
		932.551,565.989 932.893,563.967 937.216,562.559 937.042,561.877 931.672,558.119 930.687,555.454 932.542,555.332 
		934.779,554.31 938.2,552.618 934.277,558.037 932.738,555.596 931.703,547.953 928.862,552.679 935.482,550.821 935.414,548.937 
		926.335,546.24 935.219,548.463 930.484,540.221 935.727,549.768 932.441,536.356 940.114,548.683 940.602,545.274 
		943.666,543.732 945.347,540.703 936.46,533.753 941.172,533.896 942.197,533.443 942.164,532.449 941.997,529.79 938.6,530.518 
		939.331,525.973 936.312,534.358 935.305,520.602 932.786,532.202 927.092,533.387 935.917,522.029 934.969,520.019 
		920.785,520.643 931.07,521.882 926.875,514.188 930.049,514.951 938.455,519.121 932.439,512.6 931.538,508.497 940.711,515.501 
		932.313,510.591 937.975,504.372 936.068,504.488 938.89,505.872 932.136,507.145 929.052,504.481 936.64,504.025 936.533,501.974 
		931.473,501.336 937.47,492.492 933.873,497.674 929.878,497.525 927.759,496.08 929.872,492.506 934.004,494.052 930.766,491.513 
		933.495,489.944 932.449,499.349 938.179,489.062 937.302,497.984 934.418,490.563 942.703,489.727 935.99,493.218 
		937.993,488.443 938.449,485.13 939.507,486.646 935.82,486.467 933.635,481.812 938.713,483.928 937.718,482.096 937.304,484.266 
		934.522,481.44 932.445,481.626 932.021,488.901 930.465,482.378 931.727,483.337 930.393,479.963 931.07,477.975 934.303,477.75 
		936.807,480.452 936.028,475.847 942.127,479.725 935.029,474.626 934.277,472.797 940.208,469.68 929.995,469.659 
		941.297,464.694 927.468,463.989 934.598,461.463 936.176,460.311 938.702,459.867 932.54,456.374 933.243,456.234 
		937.538,453.386 942.714,445.655 936.66,454.251 933.314,446.449 932.661,455.95 925.189,450.14 931.948,450.756 933.315,458.32 
		935.752,450.516 935.671,448.18 938.417,451.182 934.702,445.409 943.938,448.824 934.643,450.849 936.969,446.871 
		935.457,445.546 942.312,438.424 928.294,441.085 937.965,440.024 935.415,436.328 936.809,435.031 943.679,432.929 
		937.128,434.765 936.579,431.128 933.077,433.256 934.651,429.635 930.128,428.683 937.062,433.919 933.661,426.789 
		939.979,424.027 928.727,425.287 927.867,423.596 926.492,422.048 926.447,420.118 932.86,417.44 935.217,412.612 937.384,420.126 
		932.728,418.304 935.984,414.6 935.816,412.485 937.613,408.002 929.984,410.282 927.119,410.386 930.805,403.9 923.269,405.82 
		925.044,401.441 929.611,404.434 928.385,399.286 929.902,394.614 933.984,397.04 935.942,399.454 937.692,397.559 
		944.921,404.635 937.817,399.936 937.562,398.126 933.466,397.852 941.577,391.354 936.738,391.38 937.604,389.336 
		932.801,389.178 936.577,383.437 931.976,384.238 930.922,381.722 930.254,378.329 928.238,377.948 917.473,384.199 
		930.017,387.389 930.393,384.948 927.267,378.351 931.065,379.955 933.283,380.254 934.532,379.388 932.219,371.563 
		935.322,372.942 939.191,377.394 939.386,371.681 940.74,369.279 950.008,374.083 939.13,371.746 947.85,364.583 946.024,363.393 
		941.309,361.721 937.768,363.467 935.43,360.789 934.045,363.887 932.935,368.663 930.671,366.129 925.648,364.893 
		936.714,360.727 931.114,359.622 924.088,358.208 925.947,356.033 927.327,353.891 924.588,347.198 931.962,345.997 
		933.512,348.211 934.621,352.729 936.248,354.577 943.435,356.995 943.694,348.426 935.389,350.649 935.784,348.053 
		931.723,349.158 938.545,343.468 927.597,345.586 928.369,342.717 927.383,340.654 926.82,339.015 931.481,336.708 
		936.901,334.802 932.735,332.91 934.297,333.717 932.646,324.53 934.674,327.772 936.737,331.556 938.475,330.486 937.397,324.411 
		941.286,326.86 940.965,322.054 948.406,330.601 944.434,325.469 945.758,324.657 943.633,324.831 942.928,318.653 
		938.819,327.683 936.525,328.593 935.665,322.599 940.487,320.782 931.811,317.942 936.654,316.228 936.586,314.06 
		935.511,312.917 939.152,318.432 942.254,313.643 938.485,310.421 940.479,308.628 944.117,305.701 939.766,304.12 943.24,298.158 
		936.963,302.257 935.235,302.526 930.517,303.572 930.999,299.109 931.972,297.333 927.957,294.619 941.048,295.102 
		933.852,293.208 934.156,287.3 931.838,289.208 928.845,295.323 926.397,298.009 930.538,289.227 926.853,288.879 928.352,287.52 
		929.171,285.336 931.945,285.451 926.94,281.001 931.861,281.108 936.561,283.35 935.711,275.243 938.445,281.756 940.904,285.763 
		942.743,284.067 941.229,277.268 943.976,276.731 947.432,273.235 945.467,271.609 944.294,268.749 940.156,269.298 
		934.584,273.414 934.505,274.255 935.444,265.418 930.547,270.89 927.393,266.903 929.738,261.494 934.976,268.032 
		936.354,261.928 938.497,266.639 946.981,265.136 934.922,263.7 932.871,262.566 931.916,260.687 934.269,255.843 934.783,252.898 
		935.322,250.633 943.54,247.719 936.985,251.07 934.784,250.122 933.35,252.968 931.762,255.07 924.896,257.193 925.701,250.039 
		928.911,248.19 923.749,246.055 933.395,244.25 927.325,242.401 927.031,240.422 935.086,238.011 933.602,241.808 929.98,241.333 
		932.798,237.85 933.963,241.979 936.975,237.622 941.79,244.435 938.135,235.599 935.777,231.835 945.762,230.811 940.264,226.809 
		938.239,225.811 935.49,236.272 930.561,234.579 927.377,228.679 940.539,229.582 929.854,225.045 940.48,225.366 929.575,225.171 
		935.11,219.21 930.023,219.23 934.521,214.998 934.101,219.083 930.45,221.004 940.481,215.537 939.081,213.865 932.841,213.803 
		932.988,211.615 934.3,210.515 935.177,202.705 937.224,211.592 939.387,209.056 941.465,215.016 943.68,207.427 945.777,211.884 
		945.265,208.269 951.589,204 940.938,209.855 946.233,202.901 940.206,205.034 942.501,197.748 939.382,201.875 936.939,200.879 
		936.015,204.503 931.473,197.113 930.641,201.042 931.683,201.828 923.882,204.065 922.363,202.438 923.586,200.496 
		935.512,198.532 929.654,195.945 930.486,193.874 930.468,191.547 931.95,198.082 934.44,195.989 936.326,198.814 940.445,197.211 
		940.422,190.766 942.067,189.542 941.039,184.763 943.424,184.507 954.337,186.237 946.94,182.915 943.173,187.486 
		941.705,186.161 941.082,182.652 937.725,186.159 937.743,176.927 935.049,181.117 934.427,188.869 930.929,179.018 
		930.486,187.92 927.004,184.752 930.168,182.739 932.315,181.469 934.681,180.27 923.768,174.41 933.03,177.169 932.599,171.755 
		932.357,170.982 934.428,171.637 937.743,169.492 940.68,167.358 937.039,166.799 938.212,168.722 939.891,167.501 
		941.065,164.527 936.875,159.928 938.828,161.92 944.975,158.794 940.019,157.469 943.129,153.304 939.722,151.353 936.22,159.364 
		934.779,153.855 932.997,151.847 931.688,147.163 928.276,154.23 925.37,158.468 923.76,155.443 921.515,152.175 921.974,149.151 
		922.658,147.064 923.731,145.221 930.969,147.316 931.697,147.426 931.716,147.316 933.719,146.945 933.271,139.266 
		934.861,135.851 939.924,143.685 944.061,141.461 936.834,135.483 936.54,133.079 946.034,135.723 946.765,128.774 940.771,126.51 
		938.715,125.63 934.889,134.741 933.329,131.226 931.533,127.949 929.933,122.865 926.803,131.929 924.747,131.006 
		927.215,126.803 919.52,122.752 929.894,130.023 930.197,127.534 925.106,119.815 928.907,120.581 930.647,119.678 937.18,125.149 
		936.525,124.663 936.576,121.118 939.101,124.983 940.911,121.389 942.569,116.157 950.485,121.668 950.332,113.304 
		942.16,114.249 936.532,114.293 942.279,110.315 940.177,110.884 938.741,114.699 937.43,105.634 933.066,112.706 936.106,103.312 
		934.383,106.015 933.197,103.567 934.916,103.832 928.383,103.361 927.677,101.605 938.159,98.108 933.394,96.976 932.593,93.996 
		936.123,96.49 937.824,95.808 938.869,95.187 937.163,94.445 934.856,92.671 935.095,91.862 930.113,92.301 926.64,90.106 
		927.046,88.096 931.253,87.417 928.924,88.55 928.01,85.691 931.32,82.691 928.428,77.603 932.391,87.097 932.262,75.751 
		938.888,85.25 942.848,81.767 942.327,79.43 935.165,74.025 935.771,71.525 942.151,74.223 939.908,71.855 938.564,64.668 
		936.651,68.287 935.044,76.463 934.412,69.271 925.305,70.492 931.986,67.118 935.875,63.468 935.513,60.409 933.497,59.116 
		922.019,60.029 921.975,55.271 936.701,56.864 929.977,52.518 932.309,52.472 933.232,50.269 933.031,48.951 940.708,49.272 
		940.833,49.081 939.283,45.416 932.22,45.168 936.328,40.226 935.089,44.099 933.007,43.274 929.86,36.484 931.139,42.096 
		922.793,41.243 923.992,39.437 931.803,38.463 933.944,38.81 934.799,38.654 937.174,39.817 935.963,31.887 939.187,35.921 
		945.895,34.175 939.383,30.268 939.555,27.58 938.766,25.725 933.283,27.955 933.091,26.572 932.722,25.22 937.62,20.532 
		931.372,21.439 935.158,18.691 930.118,17.841 932.981,15.918 935.124,13.99 931.59,12.042 	"/>
</g>
</svg>
