<?xml version="1.0" encoding="utf-8"?>
<!-- Generator: Adobe Illustrator 15.0.0, SVG Export Plug-In . SVG Version: 6.00 Build 0)  -->
<!DOCTYPE svg PUBLIC "-//W3C//DTD SVG 1.1//EN" "http://www.w3.org/Graphics/SVG/1.1/DTD/svg11.dtd">
<svg version="1.1" id="Layer_1" xmlns="http://www.w3.org/2000/svg" xmlns:xlink="http://www.w3.org/1999/xlink" x="0px" y="0px"
	 width="1024px" height="768px" viewBox="0 0 1024 768" style="enable-background:new 0 0 1024 768;" xml:space="preserve">
<style type="text/css">
<![CDATA[
	.st0{fill:none;stroke:#FF5F9F;stroke-miterlimit:10;}
]]>
</style>
<polyline class="st0" points="231.168,754.153 235.538,750.828 239.7,747.284 234.939,741.126 239.978,734.713 238.334,728.649 
	229.346,729.576 230.611,722.793 233.63,718.104 237.38,718.019 240.12,711.462 229.819,714.056 232.501,706.465 236.629,705.701 
	238.094,699.459 236.281,694.908 240.221,688.251 236.503,684.262 236.524,683.352 232.348,678.311 240.232,678.487 
	242.599,671.804 237.292,668.07 232.099,665.558 226.02,660.252 238.303,661.156 240.793,655.94 247.826,648.7 235.32,646.934 
	233.948,640.599 222.456,637.146 236.65,636.395 234.579,626.616 237.193,625.582 233.427,625.717 233.704,617.733 224.871,614.034 
	237.041,613.677 239.393,608.322 246.43,602.48 239.4,596.637 233.125,595.204 233.803,590.919 238.704,592.23 242.363,588.183 
	236.541,579.363 242.206,570.722 232.312,572.907 233.396,567.81 231.97,562.388 233.742,556.453 233.981,556.252 236.974,552.843 
	229.948,552.163 230.614,544.702 235.627,542.937 240.82,540.424 244.614,533.153 238.953,527.758 231.676,527.325 228.319,521.596 
	233.036,517.235 236.231,512.725 239.741,510.039 234.11,509.489 236.121,499.771 233.396,498.482 229.369,490.46 241.12,494.504 
	233.942,486.926 239.163,481.328 229.104,483.681 234.852,475.373 238.111,476.093 236.278,466.553 235.06,463.817 239.543,457.839 
	238.704,450.971 230.382,452.267 237.917,452.79 241.559,448.725 236.008,440.709 239.815,434.457 234.446,432.119 232.56,429.156 
	235.574,427.338 232.514,416.571 236.414,417.601 233.598,417.565 231.879,411.577 226.327,406.052 232.791,401.445 
	240.136,401.085 237.496,394.493 235.593,392.462 233.351,386.998 224.255,382.945 231.384,376.93 236.284,374.123 244.101,371.388 
	240.288,364.658 231.051,366.188 229.913,359.831 229.301,351.737 238.853,353.583 235.965,348.273 234.511,347.326 
	232.356,341.773 231.7,336.721 231.682,331.009 238.92,330.541 248.153,325.174 236.224,322.505 236.926,314.096 235.7,313.609 
	238.38,314.598 240.068,308.58 239.106,302.057 234.058,301.561 235.831,292.081 226.011,290.507 232.235,285.345 234.646,280.048 
	244.633,278.953 241.786,270.724 237.475,267.328 234.349,267.392 233.264,263.264 240.463,262.756 235.781,255.836 
	239.237,250.163 229.58,252.114 229.846,244.286 229.436,236.327 239.283,238.468 242.407,232.733 234.083,232.209 236.359,222.226 
	233.107,221.175 237.24,221.023 233.403,209.479 248.37,209.629 241.771,201.413 230.302,205.174 229.49,198.068 230.947,191.621 
	239.742,192.708 247.949,186.52 237.589,182.485 228.378,183.988 231.546,174.958 236.035,173.599 235.708,165.565 243.203,163.406 
	241.855,155.109 235.167,154.091 222.678,151.856 228.422,142.878 234.097,140.846 237.865,140.293 242.457,131.399 
	236.022,130.126 223.265,128.747 230.22,121.566 234.572,118.211 245.254,117.19 242.201,108.546 235.278,107.762 232.534,105.63 
	235.891,104.128 234.472,95.002 239.771,94.077 233.182,94.456 233.572,86.358 227.727,82.525 235.808,80.937 237.993,75.415 
	241.578,70.97 232.976,71.553 231.881,64.941 228.93,59.415 230.73,52.75 235.658,49.971 235.425,47.855 239.069,42.351 
	229.692,44.021 230.667,36.304 234.648,33.559 240.77,31.973 234.47,24.746 233.356,24.955 230.829,19.774 230.86,12.037 "/>
<polyline class="st0" points="751.848,754.153 756.217,750.828 760.38,747.284 755.619,741.126 760.658,734.713 759.014,728.649 
	750.025,729.576 751.291,722.793 754.31,718.104 758.061,718.019 760.799,711.462 750.498,714.056 753.182,706.465 757.309,705.701 
	758.773,699.459 756.961,694.908 760.9,688.251 757.183,684.262 757.204,683.352 753.027,678.311 760.912,678.487 763.278,671.804 
	757.971,668.07 752.778,665.558 746.699,660.252 758.982,661.156 761.473,655.94 768.506,648.7 756,646.934 754.628,640.599 
	743.136,637.146 757.33,636.395 755.259,626.616 757.873,625.582 754.107,625.717 754.384,617.733 745.551,614.034 757.721,613.677 
	760.072,608.322 767.109,602.48 760.08,596.637 753.805,595.204 754.482,590.919 759.384,592.23 763.043,588.183 757.221,579.363 
	762.885,570.722 752.992,572.907 754.075,567.81 752.649,562.388 754.422,556.453 754.66,556.252 757.654,552.843 750.627,552.163 
	751.294,544.702 756.307,542.937 761.5,540.424 765.294,533.153 759.633,527.758 752.355,527.325 748.999,521.596 753.716,517.235 
	756.911,512.725 760.421,510.039 754.79,509.489 756.801,499.771 754.076,498.482 750.049,490.46 761.8,494.504 754.621,486.926 
	759.843,481.328 749.783,483.681 755.531,475.373 758.791,476.093 756.958,466.553 755.74,463.817 760.223,457.839 759.384,450.971 
	751.062,452.267 758.598,452.79 762.238,448.725 756.688,440.709 760.495,434.457 755.125,432.119 753.24,429.156 756.254,427.338 
	753.193,416.571 757.094,417.601 754.277,417.565 752.559,411.577 747.006,406.052 753.471,401.445 760.816,401.085 
	758.176,394.493 756.273,392.462 754.03,386.998 744.935,382.945 752.063,376.93 756.963,374.123 764.78,371.388 760.968,364.658 
	751.73,366.188 750.593,359.831 749.98,351.737 759.533,353.583 756.645,348.273 755.191,347.326 753.036,341.773 752.379,336.721 
	752.361,331.009 759.6,330.541 768.833,325.174 756.903,322.505 757.605,314.096 756.379,313.609 759.06,314.598 760.748,308.58 
	759.786,302.057 754.738,301.561 756.51,292.081 746.69,290.507 752.915,285.345 755.325,280.048 765.312,278.953 762.466,270.724 
	758.154,267.328 755.028,267.392 753.943,263.264 761.143,262.756 756.461,255.836 759.917,250.163 750.26,252.114 750.525,244.286 
	750.115,236.327 759.963,238.468 763.086,232.733 754.762,232.209 757.039,222.226 753.787,221.175 757.92,221.023 754.083,209.479 
	769.049,209.629 762.451,201.413 750.981,205.174 750.17,198.068 751.627,191.621 760.422,192.708 768.629,186.52 758.269,182.485 
	749.059,183.988 752.227,174.958 756.715,173.599 756.387,165.565 763.883,163.406 762.535,155.109 755.847,154.091 
	743.357,151.856 749.102,142.878 754.777,140.846 758.545,140.293 763.137,131.399 756.702,130.126 743.945,128.747 
	750.899,121.566 755.252,118.211 765.934,117.19 762.881,108.546 755.957,107.762 753.213,105.63 756.57,104.128 755.151,95.002 
	760.451,94.077 753.861,94.456 754.252,86.358 748.406,82.525 756.488,80.937 758.673,75.415 762.258,70.97 753.655,71.553 
	752.561,64.941 749.609,59.415 751.41,52.75 756.338,49.971 756.105,47.855 759.748,42.351 750.371,44.021 751.348,36.304 
	755.328,33.559 761.449,31.973 755.15,24.746 754.035,24.955 751.509,19.774 751.539,12.037 "/>
<g>
	<polyline class="st0" points="350.529,754.83 352.161,753.955 349.387,747.286 355.772,752.553 357.27,751.409 356.702,747.93 
		357.272,747.189 358.35,744.982 360.607,740.777 355.07,742.597 359.523,741.244 353.209,738.088 354.16,736.241 360.463,738.597 
		352.606,733.488 363.83,731.189 350.812,732.547 356.292,729.783 355.474,729.699 353.5,728.139 352.484,735.906 350.571,734.996 
		347.338,730.145 355.42,728.587 346.093,724.507 354.359,724.622 347.052,719.036 355.857,722.493 351.675,716.666 
		354.483,723.865 355.049,716.222 352.336,714.473 357.241,714.598 351.82,710.405 360.744,709.288 358.506,718.325 
		355.426,714.794 353.487,715.785 349.058,706.907 343.544,719.253 350.918,712.723 347.723,709.459 348.88,707.73 354.265,709.962 
		353.196,704.919 356.816,707.092 354.527,703.286 358.271,701.968 354.889,699.656 362.188,694.731 353.544,694.878 
		360.889,696.076 352.263,688.725 352.935,686.873 352.212,688.826 353.152,691.281 357.44,684.798 351.285,686.472 
		352.819,684.701 353.317,682.222 355.3,677.744 354.916,679.62 353.005,685.478 355.136,678.282 357.156,676.232 361.747,682.699 
		357.18,675.939 356.253,673.731 361.641,673.756 357.672,673.324 355.5,676.5 355.422,672.85 355.21,669.629 352.832,670.492 
		355.423,660.72 350.209,666.663 348.842,664.907 344.889,666.369 350,657.441 346.612,661.024 346.657,663.835 349.025,659.613 
		350.627,665.792 352.892,662.984 354.805,665 360.445,667.141 363.718,662.16 352.963,654.889 365.686,660.184 365.18,658.51 
		361.521,652.147 365.563,653.26 368.174,652.978 370.321,647.295 364.028,652.396 362.328,649.395 361.011,643.67 358.182,648.651 
		355.84,650.158 358.894,641.931 349.674,645.698 360.082,641.232 357.284,636.639 351.824,636.889 349.405,637.996 
		348.364,634.526 345.633,636.66 342.41,640.423 341.377,637.157 343.078,632.376 345.717,643.879 347.464,638.463 349.127,631.464 
		351.262,633.372 353.375,634.8 350.586,632.541 348.996,635.729 350.421,633.386 354.141,630.557 355.199,628.286 358.308,630.206 
		361.697,629.859 354.202,626.915 352.514,625.49 349.356,623.619 357.962,621.921 347.065,619.543 349.419,619.673 349.099,621.02 
		347.204,620.601 347.337,615.322 347.664,609.577 345.123,614.482 345.861,618.047 347.581,607.542 349.708,610.847 
		351.851,614.695 353.854,613.679 352.682,608.782 355.042,611.178 351.874,607.656 362.282,611.321 357.533,604.611 
		361.097,606.047 362.1,604.392 367.262,607.74 360.883,602.472 360.175,605.759 362.365,600.271 363.959,595.493 356.872,601.154 
		358.388,596.336 356.178,596.067 353.901,596.395 355.31,592.97 356.146,593.668 352.246,590.454 354.063,592.167 354.662,596.477 
		357.786,592.968 363.22,594.906 359.717,589.286 360.405,588.168 356.952,588.462 356.35,586.334 355.711,584.223 350.835,584.905 
		361.49,579.303 354.916,576.586 361.433,578.392 360.683,575.43 356.372,570.129 354.949,574.689 357.971,566.162 357.193,572.028 
		355.235,572.553 353.504,574.12 351.265,572.771 345.424,569.915 350.21,569.155 356.288,567.679 347.304,567.178 353.379,563.647 
		357.222,562.582 356.125,561.821 348.72,557.454 353.064,556.635 356.464,559.562 357.023,556.917 359.326,552.365 354.104,552.3 
		351.704,558.779 349.842,559.678 350.321,550.965 344.118,549.87 342.961,547.887 345.74,546.253 353.39,547.641 350.77,543.091 
		354.053,547.077 357.312,549.708 354.127,537.812 355.396,536.017 355.75,536.469 359.65,538.108 359.773,535.861 360.087,533.709 
		368.728,532.385 361.685,532.189 361.212,529.853 358.065,530.316 356.395,530.87 355.591,534.266 353.956,531.055 
		352.322,527.808 347.351,531.947 352.835,523.406 346.566,524.515 345,521.306 352.798,524.537 355.164,523.941 355.378,520.354 
		353.504,516.128 357.659,516.812 354.774,512.424 360.873,516.662 356.588,510.196 356.142,515.704 355.248,505.449 
		357.724,506.178 359.894,508.9 349.902,504.808 350.346,502.874 347.802,500.317 360.714,497.642 351.339,503.916 356.069,495.061 
		344.975,499.621 352.569,493.301 346.281,493.943 343.238,486.924 351.255,487.98 354.091,486.104 352.39,497.409 354.609,497.324 
		358.49,492.418 359.405,494.151 359.752,491.833 352.166,496.151 357.167,488.539 353.873,488.778 358.234,486.671 
		352.511,484.058 357.06,485.684 354.506,480.682 363.092,477.492 357.275,487.253 353.333,479.464 352.697,485.811 
		349.088,479.468 348.089,483.579 350.644,483.09 349.196,479.638 357.284,482.776 355.579,479.136 355.313,478.816 
		356.584,470.041 351.419,471.567 350.977,475.266 362.575,471.063 355.966,470.354 355.948,468.376 355.039,466.582 
		360.141,463.67 358.107,464.638 361.285,464.688 360.981,462.121 357.526,457.646 357.246,455.657 352.564,453.905 354.94,454.099 
		354.422,444.554 352.908,448.508 351.692,454.392 350.85,452.992 351.019,453.661 353.214,449.316 354.49,458.234 357.384,454.362 
		353.611,447.526 362.488,453.033 356.119,448.572 358.295,447.816 359.568,444.568 359.777,442.051 360.174,439.399 
		347.745,441.074 358.3,440.67 354.503,436.216 354.146,433.852 357.626,434.826 357.792,431.568 357.208,428.018 354.662,430.463 
		355.593,428.573 354.458,429.876 353.225,428.764 347.996,424.963 350.393,426.547 356.201,422.958 351.191,422.445 
		354.769,419.488 355.196,417.424 348.04,412.846 353.25,417.316 354.34,415.937 355.671,412.176 350.646,415.923 345.571,415.218 
		347.901,413.215 348.775,410.768 346.76,410.017 344.983,409.021 342.854,405.849 349.626,408.892 351.804,408.528 
		353.171,407.022 353.589,406.863 353.389,399.728 355.07,396.503 357.35,405.375 364.289,404.699 355.777,400.462 353.852,399.321 
		362.148,394.083 360.785,391.399 358.189,389.882 358.333,388.738 348.625,390.594 351.239,387.932 351.083,384.61 
		351.255,379.342 345.631,387.069 344.092,385.622 347.799,382.017 340.298,376.734 349.789,385.095 350.238,382.735 
		345.845,374.631 349.471,375.844 351.377,375.15 357.148,381.434 357.959,380.39 358.114,376.389 361.417,379.564 362.248,375.666 
		361.803,370.901 368.275,366.153 366.687,364.831 358.754,367.099 356.105,370.808 357.307,365.074 355.908,368.062 
		354.652,371.942 351.354,363.508 346.584,370.268 353.736,363.316 351.413,361.544 347.333,360.014 347.986,357.856 
		341.594,356.307 341.015,354.313 350.609,354.347 350.235,351.176 352.297,350.739 353.526,354.633 355.512,354.63 
		356.701,352.904 356.524,351.931 357.233,349.25 357.422,345.951 351.192,349.007 346.751,347.762 346.32,345.799 349.107,342.329 
		346.872,340.625 348.526,338.697 354.563,336.469 345.928,334.833 356.002,332.896 346.277,327.226 352.692,336.439 
		354.61,338.009 356.335,336.549 356.908,327.902 357.682,326.149 362.871,330.836 362.534,326.005 368.397,331.837 369.969,324.91 
		363.908,329.675 363.67,321.411 359.517,330.646 359.089,323.229 358.079,318.402 359.723,319.185 359.776,320.783 
		348.931,317.762 348.239,315.585 362.49,311.372 354.677,313.23 357.448,315.307 357.093,312.399 356.017,309.932 364.787,308.92 
		364.077,305.6 360.478,303.908 352.624,306.615 356.516,299.406 354.48,302.819 352.97,301.518 360.448,301.011 356.253,298.269 
		347.313,294.635 348.615,292.913 356.15,291.011 353.422,287.351 351.467,286.986 349.885,284.305 346.636,291.988 
		348.276,289.624 350.223,293.818 348.219,288.236 350.987,288.403 353.39,287.128 349.443,282.471 350.813,280.962 
		353.297,279.774 356.159,285.948 357.499,279.752 360.011,284.24 361.448,278.882 365.71,280.217 367.211,275.361 363.151,274.464 
		356.466,274.471 365.208,267.643 362.331,265.616 359.848,265.81 354.845,271.352 354.675,263.294 352.974,267.621 
		346.396,266.973 349.262,261.635 354.427,270.541 356.067,268.138 357.101,257.127 364.425,264.509 356.597,262.076 
		360.874,256.661 354.589,258.388 349.096,255.869 358.5,255.606 355.427,251.139 362.111,248.081 356.476,252.147 355.225,255.902 
		352.151,250.632 351.079,255.284 351.925,247.938 342.896,249.968 341.414,247.96 351.723,246.35 349.817,244.276 348.295,242.313 
		346.018,240.438 351.322,238.167 352.174,240.969 351.619,230.453 351.498,240.498 354.8,234.786 355.148,242.683 355.415,232.947 
		357.933,235.884 365.551,237.554 356.162,235.316 359.208,232.051 357.04,233.341 355.059,231.584 356.33,229.605 349.422,229.311 
		347.481,226.77 350.685,225.401 360.518,225.54 354.907,222.364 353.475,222.024 347.594,217.982 354.259,227.612 351.689,217.878 
		348.881,221.285 357.79,216.188 349.62,216.769 359.742,211.268 357.915,209.736 347.813,206.006 354.318,215.807 356.46,215.251 
		358.62,213.113 360.757,213.1 362.974,205.422 365.053,211.638 367.013,209.526 371.071,203.833 368.881,202.894 364.62,203.613 
		360.791,203.98 360.301,202.414 359.36,204.024 355.18,197.728 356.243,207.414 351.464,199.302 350.925,204.125 346.642,209.812 
		342.074,204.187 343.018,202.28 349.771,199.707 351.787,198.316 352.413,196.733 349.355,193.782 348.111,189.219 
		351.193,198.338 354.496,189.667 356.771,189.339 360.392,199.887 364.461,197.085 361.98,190.39 362.475,187.631 361.993,183.572 
		366.427,186.535 364.518,187.269 365.869,178.696 359.845,189.07 361.717,179.153 356.965,186.24 355.755,188.986 354.949,184.957 
		351.615,176.085 351.203,185.152 349.418,185.824 345.334,185.513 349.113,182.624 351.89,181.575 344.683,177.018 
		345.437,175.251 350.507,175.09 354.599,180.757 359.82,177.575 354.803,171.592 351.454,169.718 361.625,167.291 357.426,167.579 
		356.22,164.324 358.171,164.054 361.042,166.965 367.068,166.365 360.137,161.59 367.512,158.265 363.875,156.725 362.39,153.316 
		359.208,149.948 356.079,155.514 353.727,155.827 350.636,160.979 349.364,156.091 346.511,160.041 345.674,152.709 
		344.638,146.475 337.647,153.532 341.03,149.012 349.738,152.059 348.207,148.549 350.387,147.409 347.276,142.888 
		350.975,147.272 352.076,144.384 354.199,145.816 354.401,137.667 359.029,143.455 363.997,141.804 357.696,136.303 
		353.024,131.639 355.671,130.748 361.404,131.343 358.651,133.549 356.239,134.472 354.125,134.982 353.172,125.956 
		351.239,123.95 348.604,128.43 346.089,131.8 344.996,121.994 342.48,128.583 343.62,127.427 344.779,125.773 349.474,127.539 
		349.456,124.732 350.17,122.794 352.656,123.227 352.366,119.849 352.833,116.628 355.673,119.272 357.736,118.312 
		359.206,111.145 361.451,112.048 363.195,116.474 364.929,114.955 360.404,114.613 362.724,111.85 355.859,112.326 
		357.815,113.276 359.423,102.264 356.675,105.881 356.217,101.958 352.542,106.966 348.949,105.22 355.046,109.321 
		352.299,102.808 353.184,102.502 354.224,100.476 353.611,98.702 358.108,96.13 353.92,95.42 354.211,89.702 357.533,98.298 
		356.258,99.59 356.646,98.092 354.089,91.961 354.267,91.976 347.038,92.188 357.145,90.648 358.972,88.706 355.741,84.499 
		346.548,91.065 345.529,88.368 339.581,82.235 349.904,88.804 349.999,78.618 351.82,77.202 357.577,84.53 352.099,77.799 
		349.548,74.66 355.307,74.528 360.077,75.583 363.315,75.748 355.255,74.654 358.369,72.488 356.051,70.152 353.631,66.352 
		350.917,72.661 356.938,68.444 344.309,68.269 352.706,64.282 351.254,62.295 351.795,59.637 353.956,58.831 341.836,55.43 
		343.826,53.582 353.916,55.84 349.239,48.317 352.458,50.182 351.553,48.603 358.916,49.008 360.305,49.213 352.829,41.624 
		359.939,41.463 355.896,41.87 353.49,39.197 352.287,43.306 351.408,49.254 345.179,47.468 353.046,42.632 341.849,39.258 
		354.801,38.934 351.451,37.614 352.396,36.225 351.935,30.254 356.115,35.28 357.894,33.735 358.712,31.615 355.104,33.364 
		360.254,26.338 358.076,25.692 356.194,24.785 351.949,27.369 348.248,30.055 350.74,23.532 354.409,19.604 354.276,18.725 
		345.205,17.824 346.822,15.897 349.63,13.972 346.045,12.022 	"/>
</g>
<g>
	<polyline class="st0" points="873.484,757.82 875.529,757.488 874.911,753.653 876.913,753.127 873.529,746.218 877.712,748.318 
		886.064,747.79 877.742,745.978 872.602,747.493 879.66,739.573 880.546,741.251 871.143,735.931 872.702,734.563 876.396,734.867 
		874.366,733.701 872.583,734.423 884.742,728.954 879.672,726.337 875.491,723.284 874.105,727.425 872.723,731.631 
		870.497,727.695 864.713,732.344 870.272,727.5 864.018,723.992 866.354,721.381 876.762,724.851 873.947,720.825 870.105,712.635 
		875.071,719.842 874.566,714.45 880.05,717.411 875.136,713.435 875.748,711.763 877.261,714.377 878.398,715.206 877.162,718.994 
		872.574,709.462 871.243,712.887 873.852,709.48 868.031,711.463 871.89,710.692 867.672,707.062 869.979,704.01 875.022,711.115 
		876.514,706.074 877.37,703.794 877.576,701.646 870.813,700.111 872.133,699.008 872.555,694.846 878.738,694.401 875.773,690.4 
		873.935,687.062 883.013,687.978 878.628,686.812 872.11,690.397 880.303,681.938 869.846,686.633 873.741,682.435 
		878.389,675.747 865.856,676.197 873.845,678.242 875.884,675.217 877.867,674.791 877.646,675.151 883.005,677.761 
		886.714,677.196 884.47,674.518 882.998,671.452 884.276,664.988 879.102,668.584 880.236,662.322 873.746,670.005 
		871.433,670.371 870.406,667.389 868.381,666.215 873.291,657.519 866.7,662.001 867.269,661.016 867.524,661.281 869.189,666.6 
		871.961,656.915 873.368,665.747 875.238,668.346 880.352,665.737 872.726,656.587 873.22,654.688 880.958,656.389 
		877.712,650.598 879.314,649.347 886.354,653.368 882.73,647.029 882.801,650.453 885.998,643.256 883.435,646.365 
		880.304,653.482 879.281,645.673 877.243,645.03 871.326,650.656 871.217,645.511 868.2,643.952 870.325,643.376 873.468,633.683 
		870.502,636.609 868.336,636.881 866.238,636.908 864.451,635.894 868.936,638.197 863.662,630.551 866.334,642.696 
		867.728,630.61 870.059,636.224 871.867,631.959 874.084,635.365 881.83,640.83 879.445,633.661 870.206,633.574 881.033,629.238 
		878.38,627.757 875.143,627.379 879.286,627.522 874.799,624.609 873.104,625.574 866.995,623.513 880.132,621.973 
		873.556,619.744 879.076,614.109 871.046,617.994 867.579,621.327 869.47,611.853 864.111,619.68 865.568,614.407 866.588,619.671 
		868.58,618.389 870.596,617.9 872.552,615.421 874.385,608.598 873.983,609.731 870.934,609.075 883.872,612.628 878.913,608.319 
		878.47,604.921 883.843,608.536 887.354,609.9 880.859,599.211 885.145,602.479 885.025,600.741 885.958,596.766 883.517,596.843 
		880.582,597.509 878.557,597.421 875.978,599.918 873.271,602.128 873.335,594.746 875.312,593.429 874.479,592.25 
		873.521,596.736 877.633,587.916 879.119,595.014 884.775,595.697 878.213,587.312 884.191,588.225 882.046,585.549 
		875.271,587.494 881.579,580.797 879.254,579.795 880.756,579.317 882.193,580.91 874.611,573.477 881.746,575.682 
		875.085,568.841 875.654,574.672 880.199,573.174 877.29,569.396 875.869,572.35 874.152,573.98 873.09,571.298 878.092,572.463 
		873.403,569.688 865.827,568.039 872.504,565.989 872.846,563.967 877.169,562.559 876.995,561.877 871.625,558.119 
		870.64,555.454 872.495,555.332 874.732,554.31 878.153,552.618 874.23,558.037 872.691,555.596 871.656,547.953 868.815,552.679 
		875.436,550.821 875.367,548.937 866.288,546.24 875.172,548.463 870.438,540.221 875.68,549.768 872.395,536.356 880.067,548.683 
		880.555,545.274 883.619,543.732 885.3,540.703 876.413,533.753 881.125,533.896 882.15,533.443 882.117,532.449 881.95,529.79 
		878.553,530.518 879.284,525.973 876.266,534.358 875.258,520.602 872.739,532.202 867.045,533.387 875.87,522.029 
		874.922,520.019 860.738,520.643 871.023,521.882 866.828,514.188 870.002,514.951 878.408,519.121 872.393,512.6 871.491,508.497 
		880.664,515.501 872.267,510.591 877.928,504.372 876.021,504.488 878.843,505.872 872.089,507.145 869.005,504.481 
		876.593,504.025 876.486,501.974 871.426,501.336 877.423,492.492 873.826,497.674 869.831,497.525 867.712,496.08 
		869.825,492.506 873.957,494.052 870.719,491.513 873.448,489.944 872.402,499.349 878.132,489.062 877.255,497.984 
		874.371,490.563 882.656,489.727 875.943,493.218 877.946,488.443 878.402,485.13 879.46,486.646 875.773,486.467 873.588,481.812 
		878.666,483.928 877.671,482.096 877.257,484.266 874.476,481.44 872.398,481.626 871.975,488.901 870.418,482.378 871.68,483.337 
		870.346,479.963 871.023,477.975 874.256,477.75 876.76,480.452 875.981,475.847 882.08,479.725 874.982,474.626 874.23,472.797 
		880.161,469.68 869.948,469.659 881.25,464.694 867.421,463.989 874.551,461.463 876.129,460.311 878.655,459.867 872.493,456.374 
		873.196,456.234 877.491,453.386 882.667,445.655 876.613,454.251 873.268,446.449 872.614,455.95 865.143,450.14 871.901,450.756 
		873.269,458.32 875.705,450.516 875.624,448.18 878.37,451.182 874.655,445.409 883.891,448.824 874.596,450.849 876.922,446.871 
		875.41,445.546 882.266,438.424 868.247,441.085 877.918,440.024 875.368,436.328 876.762,435.031 883.632,432.929 
		877.081,434.765 876.532,431.128 873.03,433.256 874.604,429.635 870.081,428.683 877.016,433.919 873.614,426.789 
		879.932,424.027 868.68,425.287 867.82,423.596 866.445,422.048 866.4,420.118 872.813,417.44 875.17,412.612 877.337,420.126 
		872.681,418.304 875.938,414.6 875.77,412.485 877.566,408.002 869.938,410.282 867.072,410.386 870.758,403.9 863.222,405.82 
		864.997,401.441 869.564,404.434 868.338,399.286 869.855,394.614 873.938,397.04 875.896,399.454 877.646,397.559 
		884.874,404.635 877.771,399.936 877.515,398.126 873.419,397.852 881.53,391.354 876.691,391.38 877.557,389.336 872.754,389.178 
		876.53,383.437 871.929,384.238 870.875,381.722 870.207,378.329 868.191,377.948 857.426,384.199 869.97,387.389 870.346,384.948 
		867.22,378.351 871.019,379.955 873.236,380.254 874.485,379.388 872.172,371.563 875.275,372.942 879.145,377.394 
		879.339,371.681 880.693,369.279 889.961,374.083 879.083,371.746 887.803,364.583 885.978,363.393 881.262,361.721 
		877.721,363.467 875.383,360.789 873.998,363.887 872.888,368.663 870.624,366.129 865.602,364.893 876.667,360.727 
		871.067,359.622 864.041,358.208 865.9,356.033 867.28,353.891 864.541,347.198 871.915,345.997 873.465,348.211 874.574,352.729 
		876.201,354.577 883.388,356.995 883.647,348.426 875.342,350.649 875.737,348.053 871.676,349.158 878.498,343.468 
		867.55,345.586 868.322,342.717 867.336,340.654 866.773,339.015 871.435,336.708 876.854,334.802 872.688,332.91 874.25,333.717 
		872.6,324.53 874.627,327.772 876.69,331.556 878.428,330.486 877.351,324.411 881.239,326.86 880.918,322.054 888.359,330.601 
		884.387,325.469 885.711,324.657 883.586,324.831 882.881,318.653 878.772,327.683 876.479,328.593 875.618,322.599 
		880.44,320.782 871.764,317.942 876.607,316.228 876.539,314.06 875.464,312.917 879.105,318.432 882.207,313.643 878.438,310.421 
		880.433,308.628 884.07,305.701 879.719,304.12 883.193,298.158 876.916,302.257 875.188,302.526 870.47,303.572 870.952,299.109 
		871.925,297.333 867.91,294.619 881.001,295.102 873.805,293.208 874.109,287.3 871.791,289.208 868.798,295.323 866.351,298.009 
		870.491,289.227 866.806,288.879 868.305,287.52 869.124,285.336 871.898,285.451 866.894,281.001 871.814,281.108 876.514,283.35 
		875.664,275.243 878.398,281.756 880.857,285.763 882.696,284.067 881.182,277.268 883.929,276.731 887.385,273.235 
		885.42,271.609 884.247,268.749 880.109,269.298 874.537,273.414 874.458,274.255 875.397,265.418 870.5,270.89 867.346,266.903 
		869.691,261.494 874.929,268.032 876.308,261.928 878.45,266.639 886.935,265.136 874.875,263.7 872.824,262.566 871.869,260.687 
		874.222,255.843 874.736,252.898 875.275,250.633 883.493,247.719 876.938,251.07 874.737,250.122 873.303,252.968 871.715,255.07 
		864.85,257.193 865.654,250.039 868.864,248.19 863.702,246.055 873.348,244.25 867.278,242.401 866.984,240.422 875.039,238.011 
		873.555,241.808 869.934,241.333 872.751,237.85 873.916,241.979 876.928,237.622 881.743,244.435 878.088,235.599 875.73,231.835 
		885.715,230.811 880.217,226.809 878.192,225.811 875.443,236.272 870.514,234.579 867.33,228.679 880.492,229.582 
		869.808,225.045 880.434,225.366 869.528,225.171 875.063,219.21 869.977,219.23 874.475,214.998 874.054,219.083 870.403,221.004 
		880.435,215.537 879.034,213.865 872.794,213.803 872.941,211.615 874.253,210.515 875.13,202.705 877.177,211.592 879.34,209.056 
		881.418,215.016 883.633,207.427 885.73,211.884 885.218,208.269 891.542,204 880.892,209.855 886.187,202.901 880.159,205.034 
		882.454,197.748 879.335,201.875 876.893,200.879 875.968,204.503 871.426,197.113 870.594,201.042 871.636,201.828 
		863.835,204.065 862.316,202.438 863.539,200.496 875.465,198.532 869.607,195.945 870.439,193.874 870.421,191.547 
		871.903,198.082 874.394,195.989 876.279,198.814 880.398,197.211 880.375,190.766 882.021,189.542 880.992,184.763 
		883.377,184.507 894.29,186.237 886.894,182.915 883.126,187.486 881.658,186.161 881.035,182.652 877.678,186.159 
		877.696,176.927 875.002,181.117 874.38,188.869 870.882,179.018 870.439,187.92 866.957,184.752 870.121,182.739 872.269,181.469 
		874.634,180.27 863.721,174.41 872.983,177.169 872.552,171.755 872.311,170.982 874.381,171.637 877.696,169.492 880.633,167.358 
		876.992,166.799 878.165,168.722 879.844,167.501 881.019,164.527 876.828,159.928 878.781,161.92 884.928,158.794 
		879.972,157.469 883.082,153.304 879.675,151.353 876.173,159.364 874.732,153.855 872.95,151.847 871.641,147.163 868.229,154.23 
		865.323,158.468 863.713,155.443 861.468,152.175 861.927,149.151 862.611,147.064 863.685,145.221 870.922,147.316 
		871.65,147.426 871.669,147.316 873.672,146.945 873.224,139.266 874.814,135.851 879.877,143.685 884.014,141.461 
		876.787,135.483 876.493,133.079 885.987,135.723 886.718,128.774 880.724,126.51 878.668,125.63 874.842,134.741 873.282,131.226 
		871.486,127.949 869.886,122.865 866.756,131.929 864.7,131.006 867.168,126.803 859.473,122.752 869.847,130.023 870.15,127.534 
		865.06,119.815 868.86,120.581 870.601,119.678 877.133,125.149 876.479,124.663 876.529,121.118 879.054,124.983 880.864,121.389 
		882.522,116.157 890.438,121.668 890.285,113.304 882.113,114.249 876.485,114.293 882.232,110.315 880.13,110.884 
		878.694,114.699 877.383,105.634 873.02,112.706 876.06,103.312 874.336,106.015 873.15,103.567 874.869,103.832 868.336,103.361 
		867.63,101.605 878.112,98.108 873.347,96.976 872.546,93.996 876.076,96.49 877.777,95.808 878.822,95.187 877.116,94.445 
		874.81,92.671 875.048,91.862 870.066,92.301 866.593,90.106 866.999,88.096 871.206,87.417 868.877,88.55 867.963,85.691 
		871.273,82.691 868.381,77.603 872.344,87.097 872.215,75.751 878.841,85.25 882.801,81.767 882.28,79.43 875.118,74.025 
		875.725,71.525 882.104,74.223 879.861,71.855 878.518,64.668 876.604,68.287 874.997,76.463 874.365,69.271 865.258,70.492 
		871.939,67.118 875.828,63.468 875.466,60.409 873.45,59.116 861.972,60.029 861.928,55.271 876.654,56.864 869.93,52.518 
		872.262,52.472 873.186,50.269 872.984,48.951 880.661,49.272 880.786,49.081 879.236,45.416 872.173,45.168 876.281,40.226 
		875.042,44.099 872.96,43.274 869.813,36.484 871.092,42.096 862.746,41.243 863.945,39.437 871.756,38.463 873.897,38.81 
		874.752,38.654 877.127,39.817 875.916,31.887 879.14,35.921 885.848,34.175 879.336,30.268 879.508,27.58 878.719,25.725 
		873.236,27.955 873.044,26.572 872.675,25.22 877.573,20.532 871.325,21.439 875.111,18.691 870.071,17.841 872.935,15.918 
		875.077,13.99 871.543,12.042 	"/>
</g>
</svg>
