<?xml version="1.0" encoding="utf-8"?>
<!-- Generator: Adobe Illustrator 15.0.0, SVG Export Plug-In . SVG Version: 6.00 Build 0)  -->
<!DOCTYPE svg PUBLIC "-//W3C//DTD SVG 1.1//EN" "http://www.w3.org/Graphics/SVG/1.1/DTD/svg11.dtd">
<svg version="1.1" id="Layer_1" xmlns="http://www.w3.org/2000/svg" xmlns:xlink="http://www.w3.org/1999/xlink" x="0px" y="0px"
	 width="1024px" height="768px" viewBox="0 0 1024 768" style="enable-background:new 0 0 1024 768;" xml:space="preserve">
<style type="text/css">
<![CDATA[
	.st0{fill:none;stroke:#FF5F9F;stroke-miterlimit:10;}
]]>
</style>
<polyline class="st0" points="221.161,754.153 225.53,750.828 229.692,747.284 224.932,741.126 229.97,734.713 228.327,728.649 
	219.338,729.576 220.604,722.793 223.622,718.104 227.373,718.019 230.112,711.462 219.811,714.056 222.494,706.465 
	226.622,705.701 228.086,699.459 226.273,694.908 230.213,688.251 226.495,684.262 226.517,683.352 222.34,678.311 230.225,678.487 
	232.591,671.804 227.284,668.07 222.091,665.558 216.012,660.252 228.295,661.156 230.786,655.94 237.818,648.7 225.312,646.934 
	223.94,640.599 212.448,637.146 226.643,636.395 224.571,626.616 227.186,625.582 223.419,625.717 223.696,617.733 214.863,614.034 
	227.033,613.677 229.385,608.322 236.422,602.48 229.392,596.637 223.117,595.204 223.795,590.919 228.696,592.23 232.355,588.183 
	226.533,579.363 232.198,570.722 222.305,572.907 223.388,567.81 221.962,562.388 223.734,556.453 223.973,556.252 226.966,552.843 
	219.94,552.163 220.606,544.702 225.62,542.937 230.812,540.424 234.606,533.153 228.945,527.758 221.668,527.325 218.312,521.596 
	223.028,517.235 226.224,512.725 229.733,510.039 224.103,509.489 226.113,499.771 223.388,498.482 219.361,490.46 231.112,494.504 
	223.934,486.926 229.155,481.328 219.096,483.681 224.844,475.373 228.103,476.093 226.271,466.553 225.052,463.817 
	229.535,457.839 228.696,450.971 220.374,452.267 227.91,452.79 231.551,448.725 226,440.709 229.808,434.457 224.438,432.119 
	222.552,429.156 225.566,427.338 222.506,416.571 226.406,417.601 223.59,417.565 221.871,411.577 216.319,406.052 222.783,401.445 
	230.128,401.085 227.488,394.493 225.585,392.462 223.343,386.998 214.247,382.945 221.376,376.93 226.276,374.123 234.093,371.388 
	230.28,364.658 221.043,366.188 219.905,359.831 219.293,351.737 228.845,353.583 225.957,348.273 224.503,347.326 222.349,341.773 
	221.692,336.721 221.674,331.009 228.913,330.541 238.146,325.174 226.216,322.505 226.918,314.096 225.692,313.609 
	228.372,314.598 230.06,308.58 229.099,302.057 224.05,301.561 225.823,292.081 216.003,290.507 222.228,285.345 224.638,280.048 
	234.625,278.953 231.778,270.724 227.467,267.328 224.341,267.392 223.256,263.264 230.455,262.756 225.773,255.836 
	229.229,250.163 219.572,252.114 219.838,244.286 219.428,236.327 229.275,238.468 232.399,232.733 224.075,232.209 
	226.352,222.226 223.1,221.175 227.232,221.023 223.396,209.479 238.362,209.629 231.763,201.413 220.294,205.174 219.482,198.068 
	220.939,191.621 229.734,192.708 237.941,186.52 227.581,182.485 218.371,183.988 221.539,174.958 226.027,173.599 225.7,165.565 
	233.195,163.406 231.847,155.109 225.159,154.091 212.67,151.856 218.415,142.878 224.089,140.846 227.857,140.293 232.449,131.399 
	226.015,130.126 213.257,128.747 220.212,121.566 224.564,118.211 235.246,117.19 232.193,108.546 225.27,107.762 222.526,105.63 
	225.883,104.128 224.464,95.002 229.763,94.077 223.174,94.456 223.564,86.358 217.719,82.525 225.8,80.937 227.985,75.415 
	231.57,70.97 222.968,71.553 221.873,64.941 218.922,59.415 220.723,52.75 225.65,49.971 225.417,47.855 229.061,42.351 
	219.684,44.021 220.66,36.304 224.64,33.559 230.762,31.973 224.462,24.746 223.348,24.955 220.821,19.774 220.852,12.037 "/>
<polyline class="st0" points="741.84,754.153 746.209,750.828 750.372,747.284 745.611,741.126 750.65,734.713 749.006,728.649 
	740.018,729.576 741.283,722.793 744.302,718.104 748.053,718.019 750.791,711.462 740.49,714.056 743.174,706.465 747.301,705.701 
	748.766,699.459 746.953,694.908 750.893,688.251 747.175,684.262 747.196,683.352 743.02,678.311 750.904,678.487 753.271,671.804 
	747.963,668.07 742.771,665.558 736.691,660.252 748.975,661.156 751.465,655.94 758.498,648.7 745.992,646.934 744.62,640.599 
	733.128,637.146 747.322,636.395 745.251,626.616 747.865,625.582 744.1,625.717 744.376,617.733 735.543,614.034 747.713,613.677 
	750.064,608.322 757.102,602.48 750.072,596.637 743.797,595.204 744.475,590.919 749.376,592.23 753.035,588.183 747.213,579.363 
	752.877,570.722 742.984,572.907 744.067,567.81 742.642,562.388 744.414,556.453 744.652,556.252 747.646,552.843 740.619,552.163 
	741.286,544.702 746.299,542.937 751.492,540.424 755.286,533.153 749.625,527.758 742.348,527.325 738.991,521.596 
	743.708,517.235 746.903,512.725 750.413,510.039 744.782,509.489 746.793,499.771 744.068,498.482 740.041,490.46 751.792,494.504 
	744.613,486.926 749.835,481.328 739.775,483.681 745.523,475.373 748.783,476.093 746.95,466.553 745.732,463.817 750.215,457.839 
	749.376,450.971 741.054,452.267 748.59,452.79 752.23,448.725 746.68,440.709 750.487,434.457 745.117,432.119 743.232,429.156 
	746.246,427.338 743.186,416.571 747.086,417.601 744.27,417.565 742.551,411.577 736.998,406.052 743.463,401.445 750.809,401.085 
	748.168,394.493 746.266,392.462 744.022,386.998 734.927,382.945 742.056,376.93 746.955,374.123 754.772,371.388 750.96,364.658 
	741.723,366.188 740.585,359.831 739.973,351.737 749.525,353.583 746.637,348.273 745.184,347.326 743.028,341.773 
	742.371,336.721 742.354,331.009 749.592,330.541 758.825,325.174 746.896,322.505 747.598,314.096 746.371,313.609 
	749.052,314.598 750.74,308.58 749.778,302.057 744.73,301.561 746.502,292.081 736.683,290.507 742.907,285.345 745.317,280.048 
	755.305,278.953 752.458,270.724 748.146,267.328 745.021,267.392 743.936,263.264 751.135,262.756 746.453,255.836 
	749.909,250.163 740.252,252.114 740.518,244.286 740.107,236.327 749.955,238.468 753.078,232.733 744.754,232.209 
	747.031,222.226 743.779,221.175 747.912,221.023 744.075,209.479 759.041,209.629 752.443,201.413 740.974,205.174 
	740.162,198.068 741.619,191.621 750.414,192.708 758.621,186.52 748.261,182.485 739.051,183.988 742.219,174.958 746.707,173.599 
	746.379,165.565 753.875,163.406 752.527,155.109 745.839,154.091 733.35,151.856 739.094,142.878 744.77,140.846 748.537,140.293 
	753.129,131.399 746.694,130.126 733.938,128.747 740.892,121.566 745.244,118.211 755.926,117.19 752.873,108.546 745.949,107.762 
	743.205,105.63 746.562,104.128 745.144,95.002 750.443,94.077 743.854,94.456 744.244,86.358 738.398,82.525 746.48,80.937 
	748.665,75.415 752.25,70.97 743.647,71.553 742.553,64.941 739.602,59.415 741.402,52.75 746.33,49.971 746.098,47.855 
	749.74,42.351 740.363,44.021 741.34,36.304 745.32,33.559 751.441,31.973 745.143,24.746 744.027,24.955 741.501,19.774 
	741.531,12.037 "/>
<g>
	<polyline class="st0" points="340.521,754.83 342.153,753.955 339.379,747.286 345.764,752.553 347.262,751.409 346.694,747.93 
		347.265,747.189 348.342,744.982 350.599,740.777 345.062,742.597 349.516,741.244 343.202,738.088 344.152,736.241 
		350.455,738.597 342.599,733.488 353.822,731.189 340.804,732.547 346.285,729.783 345.466,729.699 343.493,728.139 
		342.477,735.906 340.563,734.996 337.33,730.145 345.412,728.587 336.085,724.507 344.351,724.622 337.044,719.036 345.85,722.493 
		341.667,716.666 344.475,723.865 345.041,716.222 342.329,714.473 347.233,714.598 341.812,710.405 350.736,709.288 
		348.499,718.325 345.418,714.794 343.479,715.785 339.05,706.907 333.537,719.253 340.911,712.723 337.715,709.459 338.872,707.73 
		344.257,709.962 343.188,704.919 346.808,707.092 344.519,703.286 348.263,701.968 344.881,699.656 352.18,694.731 
		343.536,694.878 350.881,696.076 342.255,688.725 342.927,686.873 342.204,688.826 343.144,691.281 347.433,684.798 
		341.277,686.472 342.812,684.701 343.31,682.222 345.292,677.744 344.908,679.62 342.997,685.478 345.128,678.282 347.148,676.232 
		351.739,682.699 347.172,675.939 346.246,673.731 351.633,673.756 347.664,673.324 345.492,676.5 345.414,672.85 345.202,669.629 
		342.824,670.492 345.415,660.72 340.201,666.663 338.834,664.907 334.881,666.369 339.993,657.441 336.604,661.024 
		336.649,663.835 339.018,659.613 340.619,665.792 342.884,662.984 344.797,665 350.437,667.141 353.71,662.16 342.955,654.889 
		355.678,660.184 355.172,658.51 351.513,652.147 355.555,653.26 358.166,652.978 360.313,647.295 354.021,652.396 352.32,649.395 
		351.003,643.67 348.174,648.651 345.832,650.158 348.886,641.931 339.666,645.698 350.074,641.232 347.276,636.639 
		341.816,636.889 339.397,637.996 338.356,634.526 335.625,636.66 332.402,640.423 331.369,637.157 333.07,632.376 335.709,643.879 
		337.457,638.463 339.119,631.464 341.254,633.372 343.367,634.8 340.579,632.541 338.988,635.729 340.414,633.386 344.133,630.557 
		345.191,628.286 348.3,630.206 351.689,629.859 344.194,626.915 342.506,625.49 339.348,623.619 347.954,621.921 337.057,619.543 
		339.411,619.673 339.091,621.02 337.196,620.601 337.329,615.322 337.656,609.577 335.115,614.482 335.854,618.047 
		337.573,607.542 339.7,610.847 341.843,614.695 343.846,613.679 342.674,608.782 345.034,611.178 341.866,607.656 352.274,611.321 
		347.525,604.611 351.089,606.047 352.092,604.392 357.254,607.74 350.875,602.472 350.167,605.759 352.357,600.271 
		353.951,595.493 346.864,601.154 348.38,596.336 346.17,596.067 343.893,596.395 345.302,592.97 346.138,593.668 342.238,590.454 
		344.056,592.167 344.654,596.477 347.778,592.968 353.212,594.906 349.709,589.286 350.397,588.168 346.944,588.462 
		346.342,586.334 345.703,584.223 340.827,584.905 351.482,579.303 344.908,576.586 351.425,578.392 350.675,575.43 
		346.364,570.129 344.941,574.689 347.963,566.162 347.186,572.028 345.227,572.553 343.497,574.12 341.257,572.771 
		335.417,569.915 340.202,569.155 346.28,567.679 337.296,567.178 343.371,563.647 347.214,562.582 346.117,561.821 
		338.712,557.454 343.057,556.635 346.456,559.562 347.016,556.917 349.318,552.365 344.097,552.3 341.696,558.779 339.834,559.678 
		340.313,550.965 334.11,549.87 332.954,547.887 335.732,546.253 343.382,547.641 340.762,543.091 344.045,547.077 347.305,549.708 
		344.12,537.812 345.389,536.017 345.743,536.469 349.643,538.108 349.765,535.861 350.079,533.709 358.72,532.385 351.677,532.189 
		351.204,529.853 348.058,530.316 346.387,530.87 345.583,534.266 343.948,531.055 342.314,527.808 337.343,531.947 
		342.828,523.406 336.558,524.515 334.993,521.306 342.791,524.537 345.156,523.941 345.37,520.354 343.496,516.128 
		347.651,516.812 344.766,512.424 350.865,516.662 346.581,510.196 346.134,515.704 345.24,505.449 347.716,506.178 349.886,508.9 
		339.894,504.808 340.338,502.874 337.794,500.317 350.706,497.642 341.331,503.916 346.061,495.061 334.967,499.621 
		342.561,493.301 336.273,493.943 333.23,486.924 341.248,487.98 344.083,486.104 342.382,497.409 344.602,497.324 348.482,492.418 
		349.397,494.151 349.744,491.833 342.158,496.151 347.159,488.539 343.865,488.778 348.226,486.671 342.503,484.058 
		347.052,485.684 344.499,480.682 353.084,477.492 347.267,487.253 343.325,479.464 342.689,485.811 339.081,479.468 
		338.081,483.579 340.636,483.09 339.188,479.638 347.276,482.776 345.571,479.136 345.306,478.816 346.577,470.041 
		341.411,471.567 340.969,475.266 352.567,471.063 345.958,470.354 345.94,468.376 345.031,466.582 350.133,463.67 348.1,464.638 
		351.277,464.688 350.973,462.121 347.519,457.646 347.238,455.657 342.556,453.905 344.933,454.099 344.414,444.554 342.9,448.508 
		341.684,454.392 340.842,452.992 341.011,453.661 343.206,449.316 344.482,458.234 347.376,454.362 343.603,447.526 
		352.48,453.033 346.111,448.572 348.287,447.816 349.561,444.568 349.77,442.051 350.167,439.399 337.737,441.074 348.292,440.67 
		344.496,436.216 344.138,433.852 347.619,434.826 347.785,431.568 347.2,428.018 344.654,430.463 345.585,428.573 344.451,429.876 
		343.217,428.764 337.988,424.963 340.385,426.547 346.193,422.958 341.184,422.445 344.761,419.488 345.188,417.424 
		338.032,412.846 343.242,417.316 344.332,415.937 345.664,412.176 340.638,415.923 335.563,415.218 337.894,413.215 
		338.768,410.768 336.752,410.017 334.976,409.021 332.846,405.849 339.619,408.892 341.796,408.528 343.164,407.022 
		343.582,406.863 343.381,399.728 345.062,396.503 347.342,405.375 354.281,404.699 345.77,400.462 343.844,399.321 352.14,394.083 
		350.777,391.399 348.182,389.882 348.325,388.738 338.618,390.594 341.231,387.932 341.075,384.61 341.248,379.342 
		335.623,387.069 334.084,385.622 337.792,382.017 330.291,376.734 339.781,385.095 340.23,382.735 335.837,374.631 
		339.463,375.844 341.369,375.15 347.14,381.434 347.952,380.39 348.106,376.389 351.409,379.564 352.24,375.666 351.795,370.901 
		358.267,366.153 356.679,364.831 348.746,367.099 346.097,370.808 347.299,365.074 345.9,368.062 344.645,371.942 341.347,363.508 
		336.577,370.268 343.729,363.316 341.405,361.544 337.326,360.014 337.978,357.856 331.586,356.307 331.007,354.313 
		340.602,354.347 340.228,351.176 342.289,350.739 343.518,354.633 345.504,354.63 346.693,352.904 346.517,351.931 347.226,349.25 
		347.414,345.951 341.185,349.007 336.743,347.762 336.312,345.799 339.1,342.329 336.864,340.625 338.518,338.697 344.555,336.469 
		335.92,334.833 345.994,332.896 336.27,327.226 342.684,336.439 344.603,338.009 346.328,336.549 346.9,327.902 347.674,326.149 
		352.863,330.836 352.526,326.005 358.389,331.837 359.961,324.91 353.9,329.675 353.663,321.411 349.509,330.646 349.082,323.229 
		348.071,318.402 349.715,319.185 349.769,320.783 338.923,317.762 338.231,315.585 352.482,311.372 344.669,313.23 347.44,315.307 
		347.085,312.399 346.009,309.932 354.779,308.92 354.069,305.6 350.47,303.908 342.616,306.615 346.508,299.406 344.473,302.819 
		342.962,301.518 350.44,301.011 346.246,298.269 337.306,294.635 338.607,292.913 346.142,291.011 343.414,287.351 
		341.459,286.986 339.877,284.305 336.628,291.988 338.269,289.624 340.215,293.818 338.211,288.236 340.979,288.403 
		343.382,287.128 339.436,282.471 340.806,280.962 343.29,279.774 346.151,285.948 347.491,279.752 350.003,284.24 351.44,278.882 
		355.702,280.217 357.203,275.361 353.144,274.464 346.458,274.471 355.2,267.643 352.323,265.616 349.84,265.81 344.837,271.352 
		344.667,263.294 342.966,267.621 336.388,266.973 339.254,261.635 344.419,270.541 346.059,268.138 347.093,257.127 
		354.417,264.509 346.589,262.076 350.866,256.661 344.581,258.388 339.088,255.869 348.492,255.606 345.419,251.139 
		352.104,248.081 346.468,252.147 345.217,255.902 342.144,250.632 341.071,255.284 341.917,247.938 332.888,249.968 
		331.406,247.96 341.715,246.35 339.809,244.276 338.287,242.313 336.01,240.438 341.314,238.167 342.167,240.969 341.611,230.453 
		341.49,240.498 344.792,234.786 345.14,242.683 345.407,232.947 347.925,235.884 355.543,237.554 346.154,235.316 349.201,232.051 
		347.032,233.341 345.051,231.584 346.322,229.605 339.414,229.311 337.474,226.77 340.677,225.401 350.51,225.54 344.899,222.364 
		343.467,222.024 337.586,217.982 344.251,227.612 341.682,217.878 338.873,221.285 347.782,216.188 339.612,216.769 
		349.734,211.268 347.907,209.736 337.806,206.006 344.311,215.807 346.452,215.251 348.612,213.113 350.75,213.1 352.966,205.422 
		355.045,211.638 357.005,209.526 361.063,203.833 358.873,202.894 354.612,203.613 350.783,203.98 350.293,202.414 
		349.353,204.024 345.172,197.728 346.235,207.414 341.457,199.302 340.917,204.125 336.634,209.812 332.066,204.187 333.01,202.28 
		339.763,199.707 341.779,198.316 342.405,196.733 339.347,193.782 338.103,189.219 341.185,198.338 344.488,189.667 
		346.763,189.339 350.384,199.887 354.454,197.085 351.973,190.39 352.467,187.631 351.985,183.572 356.419,186.535 354.51,187.269 
		355.861,178.696 349.837,189.07 351.709,179.153 346.958,186.24 345.747,188.986 344.941,184.957 341.607,176.085 341.195,185.152 
		339.411,185.824 335.326,185.513 339.105,182.624 341.882,181.575 334.675,177.018 335.429,175.251 340.499,175.09 
		344.591,180.757 349.812,177.575 344.795,171.592 341.446,169.718 351.618,167.291 347.418,167.579 346.212,164.324 
		348.163,164.054 351.034,166.965 357.061,166.365 350.129,161.59 357.504,158.265 353.867,156.725 352.382,153.316 
		349.201,149.948 346.071,155.514 343.719,155.827 340.628,160.979 339.356,156.091 336.503,160.041 335.666,152.709 
		334.63,146.475 327.64,153.532 331.022,149.012 339.73,152.059 338.199,148.549 340.379,147.409 337.269,142.888 340.967,147.272 
		342.068,144.384 344.191,145.816 344.394,137.667 349.021,143.455 353.989,141.804 347.688,136.303 343.017,131.639 
		345.664,130.748 351.396,131.343 348.644,133.549 346.231,134.472 344.117,134.982 343.165,125.956 341.231,123.95 338.597,128.43 
		336.081,131.8 334.988,121.994 332.472,128.583 333.612,127.427 334.771,125.773 339.466,127.539 339.448,124.732 340.162,122.794 
		342.648,123.227 342.358,119.849 342.826,116.628 345.666,119.272 347.729,118.312 349.198,111.145 351.443,112.048 
		353.187,116.474 354.921,114.955 350.396,114.613 352.716,111.85 345.852,112.326 347.808,113.276 349.416,102.264 
		346.667,105.881 346.209,101.958 342.534,106.966 338.941,105.22 345.038,109.321 342.292,102.808 343.176,102.502 
		344.216,100.476 343.603,98.702 348.101,96.13 343.913,95.42 344.203,89.702 347.525,98.298 346.25,99.59 346.639,98.092 
		344.082,91.961 344.259,91.976 337.03,92.188 347.137,90.648 348.964,88.706 345.733,84.499 336.54,91.065 335.521,88.368 
		329.573,82.235 339.896,88.804 339.991,78.618 341.812,77.202 347.569,84.53 342.091,77.799 339.541,74.66 345.299,74.528 
		350.069,75.583 353.307,75.748 345.248,74.654 348.361,72.488 346.043,70.152 343.624,66.352 340.909,72.661 346.931,68.444 
		334.301,68.269 342.698,64.282 341.246,62.295 341.788,59.637 343.948,58.831 331.828,55.43 333.818,53.582 343.908,55.84 
		339.231,48.317 342.45,50.182 341.545,48.603 348.908,49.008 350.297,49.213 342.821,41.624 349.931,41.463 345.889,41.87 
		343.482,39.197 342.279,43.306 341.4,49.254 335.171,47.468 343.039,42.632 331.841,39.258 344.793,38.934 341.443,37.614 
		342.388,36.225 341.927,30.254 346.107,35.28 347.886,33.735 348.704,31.615 345.096,33.364 350.247,26.338 348.068,25.692 
		346.187,24.785 341.941,27.369 338.24,30.055 340.732,23.532 344.401,19.604 344.269,18.725 335.197,17.824 336.814,15.897 
		339.623,13.972 336.038,12.022 	"/>
</g>
<g>
	<polyline class="st0" points="863.477,757.82 865.521,757.488 864.903,753.653 866.905,753.127 863.521,746.218 867.704,748.318 
		876.057,747.79 867.734,745.978 862.594,747.493 869.652,739.573 870.538,741.251 861.135,735.931 862.694,734.563 
		866.388,734.867 864.358,733.701 862.575,734.423 874.734,728.954 869.664,726.337 865.483,723.284 864.098,727.425 
		862.715,731.631 860.489,727.695 854.705,732.344 860.265,727.5 854.01,723.992 856.346,721.381 866.754,724.851 863.939,720.825 
		860.098,712.635 865.063,719.842 864.559,714.45 870.042,717.411 865.128,713.435 865.74,711.763 867.253,714.377 868.391,715.206 
		867.154,718.994 862.566,709.462 861.235,712.887 863.844,709.48 858.023,711.463 861.882,710.692 857.664,707.062 859.971,704.01 
		865.015,711.115 866.506,706.074 867.362,703.794 867.568,701.646 860.806,700.111 862.125,699.008 862.547,694.846 
		868.73,694.401 865.766,690.4 863.927,687.062 873.005,687.978 868.62,686.812 862.103,690.397 870.295,681.938 859.838,686.633 
		863.733,682.435 868.381,675.747 855.849,676.197 863.837,678.242 865.876,675.217 867.859,674.791 867.638,675.151 
		872.997,677.761 876.706,677.196 874.462,674.518 872.99,671.452 874.269,664.988 869.094,668.584 870.229,662.322 
		863.738,670.005 861.425,670.371 860.398,667.389 858.373,666.215 863.283,657.519 856.692,662.001 857.261,661.016 
		857.517,661.281 859.182,666.6 861.953,656.915 863.36,665.747 865.23,668.346 870.344,665.737 862.718,656.587 863.212,654.688 
		870.95,656.389 867.704,650.598 869.307,649.347 876.346,653.368 872.723,647.029 872.793,650.453 875.99,643.256 873.427,646.365 
		870.296,653.482 869.273,645.673 867.235,645.03 861.318,650.656 861.209,645.511 858.192,643.952 860.317,643.376 863.46,633.683 
		860.494,636.609 858.328,636.881 856.23,636.908 854.443,635.894 858.928,638.197 853.654,630.551 856.326,642.696 857.72,630.61 
		860.051,636.224 861.859,631.959 864.076,635.365 871.822,640.83 869.438,633.661 860.198,633.574 871.025,629.238 
		868.372,627.757 865.135,627.379 869.278,627.522 864.791,624.609 863.097,625.574 856.987,623.513 870.124,621.973 
		863.548,619.744 869.068,614.109 861.038,617.994 857.571,621.327 859.462,611.853 854.104,619.68 855.561,614.407 856.58,619.671 
		858.572,618.389 860.588,617.9 862.544,615.421 864.377,608.598 863.976,609.731 860.926,609.075 873.864,612.628 868.905,608.319 
		868.462,604.921 873.835,608.536 877.346,609.9 870.852,599.211 875.137,602.479 875.018,600.741 875.95,596.766 873.509,596.843 
		870.574,597.509 868.549,597.421 865.97,599.918 863.263,602.128 863.327,594.746 865.305,593.429 864.472,592.25 863.514,596.736 
		867.625,587.916 869.111,595.014 874.768,595.697 868.205,587.312 874.184,588.225 872.038,585.549 865.263,587.494 
		871.571,580.797 869.246,579.795 870.748,579.317 872.186,580.91 864.604,573.477 871.738,575.682 865.077,568.841 
		865.646,574.672 870.191,573.174 867.282,569.396 865.861,572.35 864.145,573.98 863.082,571.298 868.084,572.463 863.396,569.688 
		855.819,568.039 862.496,565.989 862.838,563.967 867.161,562.559 866.987,561.877 861.617,558.119 860.632,555.454 
		862.487,555.332 864.725,554.31 868.146,552.618 864.223,558.037 862.684,555.596 861.648,547.953 858.808,552.679 
		865.428,550.821 865.359,548.937 856.28,546.24 865.164,548.463 860.43,540.221 865.672,549.768 862.387,536.356 870.06,548.683 
		870.547,545.274 873.611,543.732 875.292,540.703 866.405,533.753 871.117,533.896 872.143,533.443 872.109,532.449 
		871.942,529.79 868.545,530.518 869.276,525.973 866.258,534.358 865.25,520.602 862.731,532.202 857.037,533.387 865.862,522.029 
		864.914,520.019 850.73,520.643 861.016,521.882 856.82,514.188 859.994,514.951 868.4,519.121 862.385,512.6 861.483,508.497 
		870.656,515.501 862.259,510.591 867.92,504.372 866.014,504.488 868.835,505.872 862.081,507.145 858.997,504.481 
		866.585,504.025 866.479,501.974 861.418,501.336 867.415,492.492 863.818,497.674 859.823,497.525 857.704,496.08 
		859.817,492.506 863.949,494.052 860.711,491.513 863.44,489.944 862.395,499.349 868.124,489.062 867.247,497.984 
		864.363,490.563 872.648,489.727 865.936,493.218 867.938,488.443 868.395,485.13 869.452,486.646 865.766,486.467 863.58,481.812 
		868.658,483.928 867.663,482.096 867.249,484.266 864.468,481.44 862.391,481.626 861.967,488.901 860.41,482.378 861.672,483.337 
		860.338,479.963 861.016,477.975 864.248,477.75 866.752,480.452 865.974,475.847 872.072,479.725 864.975,474.626 
		864.223,472.797 870.153,469.68 859.94,469.659 871.242,464.694 857.413,463.989 864.543,461.463 866.121,460.311 868.647,459.867 
		862.485,456.374 863.188,456.234 867.483,453.386 872.659,445.655 866.605,454.251 863.26,446.449 862.606,455.95 855.135,450.14 
		861.894,450.756 863.261,458.32 865.697,450.516 865.616,448.18 868.362,451.182 864.647,445.409 873.883,448.824 864.588,450.849 
		866.914,446.871 865.402,445.546 872.258,438.424 858.239,441.085 867.91,440.024 865.36,436.328 866.754,435.031 873.624,432.929 
		867.073,434.765 866.524,431.128 863.022,433.256 864.597,429.635 860.073,428.683 867.008,433.919 863.606,426.789 
		869.924,424.027 858.672,425.287 857.812,423.596 856.438,422.048 856.393,420.118 862.806,417.44 865.162,412.612 
		867.329,420.126 862.673,418.304 865.93,414.6 865.762,412.485 867.559,408.002 859.93,410.282 857.064,410.386 860.75,403.9 
		853.214,405.82 854.989,401.441 859.557,404.434 858.33,399.286 859.848,394.614 863.93,397.04 865.888,399.454 867.638,397.559 
		874.866,404.635 867.763,399.936 867.507,398.126 863.411,397.852 871.522,391.354 866.684,391.38 867.549,389.336 
		862.746,389.178 866.522,383.437 861.921,384.238 860.867,381.722 860.199,378.329 858.184,377.948 847.418,384.199 
		859.962,387.389 860.338,384.948 857.212,378.351 861.011,379.955 863.229,380.254 864.478,379.388 862.164,371.563 
		865.268,372.942 869.137,377.394 869.331,371.681 870.686,369.279 879.953,374.083 869.075,371.746 877.795,364.583 
		875.97,363.393 871.254,361.721 867.713,363.467 865.375,360.789 863.99,363.887 862.88,368.663 860.616,366.129 855.594,364.893 
		866.659,360.727 861.06,359.622 854.033,358.208 855.893,356.033 857.272,353.891 854.533,347.198 861.907,345.997 
		863.457,348.211 864.566,352.729 866.193,354.577 873.38,356.995 873.64,348.426 865.334,350.649 865.729,348.053 861.668,349.158 
		868.49,343.468 857.542,345.586 858.314,342.717 857.328,340.654 856.766,339.015 861.427,336.708 866.847,334.802 862.681,332.91 
		864.242,333.717 862.592,324.53 864.619,327.772 866.683,331.556 868.42,330.486 867.343,324.411 871.231,326.86 870.91,322.054 
		878.352,330.601 874.379,325.469 875.703,324.657 873.578,324.831 872.873,318.653 868.765,327.683 866.471,328.593 
		865.61,322.599 870.433,320.782 861.756,317.942 866.6,316.228 866.531,314.06 865.456,312.917 869.098,318.432 872.199,313.643 
		868.431,310.421 870.425,308.628 874.062,305.701 869.711,304.12 873.186,298.158 866.908,302.257 865.181,302.526 
		860.462,303.572 860.944,299.109 861.917,297.333 857.902,294.619 870.993,295.102 863.797,293.208 864.102,287.3 861.783,289.208 
		858.79,295.323 856.343,298.009 860.483,289.227 856.798,288.879 858.297,287.52 859.116,285.336 861.891,285.451 856.886,281.001 
		861.807,281.108 866.506,283.35 865.656,275.243 868.391,281.756 870.85,285.763 872.688,284.067 871.174,277.268 873.921,276.731 
		877.377,273.235 875.412,271.609 874.239,268.749 870.102,269.298 864.529,273.414 864.45,274.255 865.39,265.418 860.492,270.89 
		857.338,266.903 859.684,261.494 864.921,268.032 866.3,261.928 868.442,266.639 876.927,265.136 864.867,263.7 862.816,262.566 
		861.861,260.687 864.214,255.843 864.729,252.898 865.268,250.633 873.485,247.719 866.931,251.07 864.729,250.122 
		863.295,252.968 861.707,255.07 854.842,257.193 855.646,250.039 858.856,248.19 853.694,246.055 863.34,244.25 857.271,242.401 
		856.977,240.422 865.031,238.011 863.547,241.808 859.926,241.333 862.743,237.85 863.908,241.979 866.92,237.622 871.735,244.435 
		868.08,235.599 865.723,231.835 875.707,230.811 870.209,226.809 868.185,225.811 865.436,236.272 860.506,234.579 
		857.322,228.679 870.484,229.582 859.8,225.045 870.426,225.366 859.521,225.171 865.056,219.21 859.969,219.23 864.467,214.998 
		864.046,219.083 860.396,221.004 870.427,215.537 869.026,213.865 862.786,213.803 862.934,211.615 864.245,210.515 
		865.122,202.705 867.169,211.592 869.332,209.056 871.41,215.016 873.625,207.427 875.723,211.884 875.21,208.269 881.534,204 
		870.884,209.855 876.179,202.901 870.151,205.034 872.446,197.748 869.327,201.875 866.885,200.879 865.96,204.503 
		861.418,197.113 860.586,201.042 861.628,201.828 853.827,204.065 852.309,202.438 853.531,200.496 865.457,198.532 859.6,195.945 
		860.432,193.874 860.413,191.547 861.896,198.082 864.386,195.989 866.271,198.814 870.391,197.211 870.367,190.766 
		872.013,189.542 870.984,184.763 873.369,184.507 884.282,186.237 876.886,182.915 873.118,187.486 871.65,186.161 
		871.027,182.652 867.67,186.159 867.688,176.927 864.994,181.117 864.372,188.869 860.874,179.018 860.432,187.92 856.949,184.752 
		860.113,182.739 862.261,181.469 864.626,180.27 853.713,174.41 862.976,177.169 862.544,171.755 862.303,170.982 864.373,171.637 
		867.688,169.492 870.625,167.358 866.984,166.799 868.157,168.722 869.836,167.501 871.011,164.527 866.82,159.928 868.773,161.92 
		874.92,158.794 869.964,157.469 873.074,153.304 869.667,151.353 866.165,159.364 864.725,153.855 862.942,151.847 
		861.633,147.163 858.222,154.23 855.315,158.468 853.705,155.443 851.46,152.175 851.919,149.151 852.604,147.064 853.677,145.221 
		860.914,147.316 861.643,147.426 861.661,147.316 863.664,146.945 863.216,139.266 864.807,135.851 869.869,143.685 
		874.006,141.461 866.779,135.483 866.485,133.079 875.979,135.723 876.71,128.774 870.716,126.51 868.66,125.63 864.834,134.741 
		863.274,131.226 861.479,127.949 859.878,122.865 856.748,131.929 854.692,131.006 857.16,126.803 849.465,122.752 
		859.839,130.023 860.143,127.534 855.052,119.815 858.853,120.581 860.593,119.678 867.125,125.149 866.471,124.663 
		866.521,121.118 869.046,124.983 870.856,121.389 872.515,116.157 880.431,121.668 880.277,113.304 872.105,114.249 
		866.478,114.293 872.225,110.315 870.122,110.884 868.687,114.699 867.375,105.634 863.012,112.706 866.052,103.312 
		864.328,106.015 863.143,103.567 864.861,103.832 858.328,103.361 857.622,101.605 868.104,98.108 863.339,96.976 862.538,93.996 
		866.068,96.49 867.77,95.808 868.814,95.187 867.108,94.445 864.802,92.671 865.04,91.862 860.059,92.301 856.585,90.106 
		856.991,88.096 861.198,87.417 858.869,88.55 857.955,85.691 861.266,82.691 858.373,77.603 862.336,87.097 862.207,75.751 
		868.833,85.25 872.793,81.767 872.272,79.43 865.11,74.025 865.717,71.525 872.097,74.223 869.854,71.855 868.51,64.668 
		866.597,68.287 864.989,76.463 864.357,69.271 855.25,70.492 861.932,67.118 865.82,63.468 865.458,60.409 863.442,59.116 
		851.964,60.029 851.92,55.271 866.646,56.864 859.922,52.518 862.254,52.472 863.178,50.269 862.977,48.951 870.653,49.272 
		870.778,49.081 869.229,45.416 862.165,45.168 866.273,40.226 865.034,44.099 862.952,43.274 859.806,36.484 861.084,42.096 
		852.738,41.243 853.938,39.437 861.748,38.463 863.89,38.81 864.744,38.654 867.119,39.817 865.908,31.887 869.132,35.921 
		875.84,34.175 869.328,30.268 869.5,27.58 868.711,25.725 863.229,27.955 863.036,26.572 862.667,25.22 867.565,20.532 
		861.317,21.439 865.104,18.691 860.063,17.841 862.927,15.918 865.069,13.99 861.535,12.042 	"/>
</g>
</svg>
