<?xml version="1.0" encoding="utf-8"?>
<!-- Generator: Adobe Illustrator 15.0.0, SVG Export Plug-In . SVG Version: 6.00 Build 0)  -->
<!DOCTYPE svg PUBLIC "-//W3C//DTD SVG 1.1//EN" "http://www.w3.org/Graphics/SVG/1.1/DTD/svg11.dtd">
<svg version="1.1" id="Layer_1" xmlns="http://www.w3.org/2000/svg" xmlns:xlink="http://www.w3.org/1999/xlink" x="0px" y="0px"
	 width="1024px" height="768px" viewBox="0 0 1024 768" style="enable-background:new 0 0 1024 768;" xml:space="preserve">
<style type="text/css">
<![CDATA[
	.st0{fill:none;stroke:#FF5F9F;stroke-miterlimit:10;}
]]>
</style>
<polyline class="st0" points="201.145,754.153 205.514,750.828 209.677,747.284 204.916,741.126 209.955,734.713 208.311,728.649 
	199.323,729.576 200.588,722.793 203.606,718.104 207.357,718.019 210.096,711.462 199.795,714.056 202.478,706.465 
	206.606,705.701 208.07,699.459 206.257,694.908 210.197,688.251 206.479,684.262 206.501,683.352 202.325,678.311 210.209,678.487 
	212.575,671.804 207.268,668.07 202.075,665.558 195.997,660.252 208.279,661.156 210.77,655.94 217.803,648.7 205.297,646.934 
	203.925,640.599 192.433,637.146 206.627,636.395 204.556,626.616 207.17,625.582 203.404,625.717 203.681,617.733 194.847,614.034 
	207.017,613.677 209.37,608.322 216.406,602.48 209.376,596.637 203.102,595.204 203.779,590.919 208.681,592.23 212.34,588.183 
	206.518,579.363 212.182,570.722 202.289,572.907 203.372,567.81 201.946,562.388 203.719,556.453 203.958,556.252 206.951,552.843 
	199.924,552.163 200.591,544.702 205.604,542.937 210.796,540.424 214.591,533.153 208.929,527.758 201.653,527.325 
	198.296,521.596 203.013,517.235 206.208,512.725 209.718,510.039 204.087,509.489 206.098,499.771 203.373,498.482 199.346,490.46 
	211.097,494.504 203.918,486.926 209.14,481.328 199.08,483.681 204.829,475.373 208.087,476.093 206.255,466.553 205.037,463.817 
	209.52,457.839 208.681,450.971 200.358,452.267 207.894,452.79 211.536,448.725 205.984,440.709 209.792,434.457 204.422,432.119 
	202.537,429.156 205.55,427.338 202.491,416.571 206.391,417.601 203.574,417.565 201.855,411.577 196.303,406.052 202.768,401.445 
	210.113,401.085 207.472,394.493 205.57,392.462 203.327,386.998 194.231,382.945 201.36,376.93 206.26,374.123 214.077,371.388 
	210.265,364.658 201.027,366.188 199.89,359.831 199.277,351.737 208.83,353.583 205.941,348.273 204.488,347.326 202.333,341.773 
	201.676,336.721 201.658,331.009 208.897,330.541 218.13,325.174 206.2,322.505 206.902,314.096 205.676,313.609 208.356,314.598 
	210.044,308.58 209.083,302.057 204.035,301.561 205.807,292.081 195.987,290.507 202.212,285.345 204.622,280.048 214.61,278.953 
	211.763,270.724 207.452,267.328 204.325,267.392 203.24,263.264 210.439,262.756 205.757,255.836 209.214,250.163 199.556,252.114 
	199.823,244.286 199.412,236.327 209.26,238.468 212.383,232.733 204.059,232.209 206.336,222.226 203.084,221.175 207.217,221.023 
	203.38,209.479 218.346,209.629 211.748,201.413 200.278,205.174 199.467,198.068 200.924,191.621 209.718,192.708 217.925,186.52 
	207.565,182.485 198.355,183.988 201.523,174.958 206.011,173.599 205.684,165.565 213.179,163.406 211.832,155.109 
	205.144,154.091 192.654,151.856 198.399,142.878 204.074,140.846 207.842,140.293 212.434,131.399 205.999,130.126 
	193.242,128.747 200.196,121.566 204.548,118.211 215.23,117.19 212.177,108.546 205.254,107.762 202.51,105.63 205.867,104.128 
	204.448,95.002 209.748,94.077 203.158,94.456 203.549,86.358 197.704,82.525 205.785,80.937 207.97,75.415 211.554,70.97 
	202.952,71.553 201.857,64.941 198.907,59.415 200.707,52.75 205.635,49.971 205.402,47.855 209.045,42.351 199.668,44.021 
	200.644,36.304 204.625,33.559 210.746,31.973 204.447,24.746 203.333,24.955 200.806,19.774 200.836,12.037 "/>
<polyline class="st0" points="721.824,754.153 726.193,750.828 730.356,747.284 725.596,741.126 730.635,734.713 728.99,728.649 
	720.002,729.576 721.268,722.793 724.286,718.104 728.037,718.019 730.775,711.462 720.475,714.056 723.158,706.465 
	727.285,705.701 728.75,699.459 726.938,694.908 730.877,688.251 727.159,684.262 727.181,683.352 723.004,678.311 730.889,678.487 
	733.255,671.804 727.947,668.07 722.755,665.558 716.676,660.252 728.959,661.156 731.449,655.94 738.482,648.7 725.977,646.934 
	724.604,640.599 713.112,637.146 727.307,636.395 725.235,626.616 727.85,625.582 724.084,625.717 724.36,617.733 715.527,614.034 
	727.697,613.677 730.049,608.322 737.086,602.48 730.057,596.637 723.781,595.204 724.459,590.919 729.36,592.23 733.02,588.183 
	727.197,579.363 732.861,570.722 722.969,572.907 724.052,567.81 722.626,562.388 724.398,556.453 724.637,556.252 727.631,552.843 
	720.604,552.163 721.271,544.702 726.283,542.937 731.477,540.424 735.271,533.153 729.609,527.758 722.332,527.325 
	718.976,521.596 723.692,517.235 726.888,512.725 730.397,510.039 724.767,509.489 726.777,499.771 724.053,498.482 720.025,490.46 
	731.776,494.504 724.598,486.926 729.819,481.328 719.76,483.681 725.508,475.373 728.768,476.093 726.935,466.553 725.717,463.817 
	730.199,457.839 729.36,450.971 721.038,452.267 728.574,452.79 732.215,448.725 726.664,440.709 730.472,434.457 725.102,432.119 
	723.217,429.156 726.23,427.338 723.17,416.571 727.07,417.601 724.254,417.565 722.535,411.577 716.982,406.052 723.447,401.445 
	730.793,401.085 728.152,394.493 726.25,392.462 724.007,386.998 714.911,382.945 722.04,376.93 726.939,374.123 734.757,371.388 
	730.944,364.658 721.707,366.188 720.569,359.831 719.957,351.737 729.51,353.583 726.621,348.273 725.168,347.326 723.013,341.773 
	722.355,336.721 722.338,331.009 729.576,330.541 738.81,325.174 726.88,322.505 727.582,314.096 726.355,313.609 729.036,314.598 
	730.725,308.58 729.763,302.057 724.715,301.561 726.486,292.081 716.667,290.507 722.892,285.345 725.302,280.048 735.289,278.953 
	732.442,270.724 728.131,267.328 725.005,267.392 723.92,263.264 731.119,262.756 726.438,255.836 729.894,250.163 720.236,252.114 
	720.502,244.286 720.092,236.327 729.939,238.468 733.062,232.733 724.738,232.209 727.016,222.226 723.764,221.175 
	727.896,221.023 724.06,209.479 739.025,209.629 732.428,201.413 720.958,205.174 720.146,198.068 721.604,191.621 730.398,192.708 
	738.605,186.52 728.245,182.485 719.035,183.988 722.203,174.958 726.691,173.599 726.363,165.565 733.859,163.406 732.512,155.109 
	725.823,154.091 713.334,151.856 719.078,142.878 724.754,140.846 728.521,140.293 733.113,131.399 726.679,130.126 
	713.922,128.747 720.876,121.566 725.229,118.211 735.91,117.19 732.857,108.546 725.934,107.762 723.189,105.63 726.547,104.128 
	725.128,95.002 730.428,94.077 723.838,94.456 724.229,86.358 718.383,82.525 726.465,80.937 728.649,75.415 732.234,70.97 
	723.632,71.553 722.537,64.941 719.586,59.415 721.387,52.75 726.314,49.971 726.082,47.855 729.725,42.351 720.348,44.021 
	721.324,36.304 725.305,33.559 731.426,31.973 725.127,24.746 724.012,24.955 721.485,19.774 721.516,12.037 "/>
<g>
	<polyline class="st0" points="320.506,754.83 322.138,753.955 319.364,747.286 325.749,752.553 327.246,751.409 326.678,747.93 
		327.249,747.189 328.327,744.982 330.583,740.777 325.047,742.597 329.5,741.244 323.186,738.088 324.136,736.241 330.439,738.597 
		322.583,733.488 333.807,731.189 320.788,732.547 326.269,729.783 325.451,729.699 323.477,728.139 322.461,735.906 
		320.547,734.996 317.314,730.145 325.396,728.587 316.07,724.507 324.335,724.622 317.028,719.036 325.834,722.493 
		321.651,716.666 324.459,723.865 325.025,716.222 322.313,714.473 327.218,714.598 321.797,710.405 330.721,709.288 
		328.483,718.325 325.403,714.794 323.463,715.785 319.034,706.907 313.521,719.253 320.895,712.723 317.7,709.459 318.856,707.73 
		324.242,709.962 323.173,704.919 326.792,707.092 324.503,703.286 328.247,701.968 324.866,699.656 332.164,694.731 
		323.521,694.878 330.865,696.076 322.24,688.725 322.912,686.873 322.188,688.826 323.128,691.281 327.417,684.798 
		321.261,686.472 322.796,684.701 323.294,682.222 325.277,677.744 324.893,679.62 322.981,685.478 325.112,678.282 
		327.132,676.232 331.723,682.699 327.156,675.939 326.23,673.731 331.618,673.756 327.648,673.324 325.477,676.5 325.398,672.85 
		325.187,669.629 322.808,670.492 325.399,660.72 320.186,666.663 318.818,664.907 314.866,666.369 319.977,657.441 
		316.588,661.024 316.634,663.835 319.002,659.613 320.604,665.792 322.869,662.984 324.782,665 330.421,667.141 333.694,662.16 
		322.939,654.889 335.662,660.184 335.156,658.51 331.497,652.147 335.54,653.26 338.15,652.978 340.298,647.295 334.005,652.396 
		332.304,649.395 330.987,643.67 328.159,648.651 325.816,650.158 328.871,641.931 319.65,645.698 330.059,641.232 327.26,636.639 
		321.801,636.889 319.381,637.996 318.34,634.526 315.609,636.66 312.386,640.423 311.354,637.157 313.055,632.376 315.693,643.879 
		317.441,638.463 319.104,631.464 321.239,633.372 323.352,634.8 320.563,632.541 318.972,635.729 320.398,633.386 324.118,630.557 
		325.175,628.286 328.285,630.206 331.674,629.859 324.178,626.915 322.491,625.49 319.333,623.619 327.938,621.921 
		317.042,619.543 319.396,619.673 319.076,621.02 317.18,620.601 317.313,615.322 317.64,609.577 315.099,614.482 315.838,618.047 
		317.558,607.542 319.685,610.847 321.827,614.695 323.831,613.679 322.659,608.782 325.018,611.178 321.85,607.656 
		332.258,611.321 327.51,604.611 331.073,606.047 332.077,604.392 337.238,607.74 330.859,602.472 330.151,605.759 332.342,600.271 
		333.936,595.493 326.849,601.154 328.364,596.336 326.154,596.067 323.877,596.395 325.286,592.97 326.122,593.668 
		322.223,590.454 324.04,592.167 324.639,596.477 327.762,592.968 333.196,594.906 329.693,589.286 330.382,588.168 
		326.929,588.462 326.326,586.334 325.688,584.223 320.812,584.905 331.467,579.303 324.892,576.586 331.41,578.392 330.66,575.43 
		326.349,570.129 324.926,574.689 327.947,566.162 327.17,572.028 325.211,572.553 323.481,574.12 321.242,572.771 315.401,569.915 
		320.187,569.155 326.264,567.679 317.281,567.178 323.355,563.647 327.199,562.582 326.101,561.821 318.696,557.454 
		323.041,556.635 326.44,559.562 327,556.917 329.302,552.365 324.081,552.3 321.68,558.779 319.818,559.678 320.298,550.965 
		314.095,549.87 312.938,547.887 315.716,546.253 323.366,547.641 320.746,543.091 324.029,547.077 327.289,549.708 
		324.104,537.812 325.373,536.017 325.727,536.469 329.627,538.108 329.75,535.861 330.063,533.709 338.705,532.385 
		331.661,532.189 331.188,529.853 328.042,530.316 326.372,530.87 325.568,534.266 323.933,531.055 322.298,527.808 
		317.328,531.947 322.812,523.406 316.542,524.515 314.977,521.306 322.775,524.537 325.14,523.941 325.354,520.354 323.48,516.128 
		327.636,516.812 324.75,512.424 330.85,516.662 326.565,510.196 326.118,515.704 325.224,505.449 327.701,506.178 329.87,508.9 
		319.878,504.808 320.323,502.874 317.778,500.317 330.69,497.642 321.315,503.916 326.045,495.061 314.952,499.621 
		322.545,493.301 316.257,493.943 313.215,486.924 321.232,487.98 324.067,486.104 322.366,497.409 324.586,497.324 
		328.467,492.418 329.381,494.151 329.729,491.833 322.143,496.151 327.144,488.539 323.849,488.778 328.21,486.671 
		322.487,484.058 327.036,485.684 324.483,480.682 333.069,477.492 327.251,487.253 323.31,479.464 322.673,485.811 
		319.065,479.468 318.065,483.579 320.62,483.09 319.172,479.638 327.261,482.776 325.556,479.136 325.29,478.816 326.561,470.041 
		321.396,471.567 320.953,475.266 332.551,471.063 325.943,470.354 325.924,468.376 325.016,466.582 330.117,463.67 
		328.084,464.638 331.262,464.688 330.958,462.121 327.503,457.646 327.223,455.657 322.541,453.905 324.917,454.099 
		324.398,444.554 322.885,448.508 321.668,454.392 320.826,452.992 320.996,453.661 323.19,449.316 324.467,458.234 
		327.361,454.362 323.587,447.526 332.464,453.033 326.096,448.572 328.271,447.816 329.545,444.568 329.754,442.051 
		330.151,439.399 317.722,441.074 328.276,440.67 324.48,436.216 324.122,433.852 327.603,434.826 327.769,431.568 327.185,428.018 
		324.638,430.463 325.569,428.573 324.435,429.876 323.202,428.764 317.972,424.963 320.37,426.547 326.177,422.958 
		321.168,422.445 324.745,419.488 325.172,417.424 318.016,412.846 323.226,417.316 324.316,415.937 325.648,412.176 
		320.622,415.923 315.548,415.218 317.878,413.215 318.752,410.768 316.737,410.017 314.96,409.021 312.83,405.849 319.603,408.892 
		321.78,408.528 323.148,407.022 323.566,406.863 323.366,399.728 325.047,396.503 327.327,405.375 334.266,404.699 
		325.754,400.462 323.829,399.321 332.125,394.083 330.762,391.399 328.166,389.882 328.31,388.738 318.602,390.594 
		321.216,387.932 321.059,384.61 321.232,379.342 315.607,387.069 314.069,385.622 317.776,382.017 310.275,376.734 
		319.765,385.095 320.215,382.735 315.822,374.631 319.447,375.844 321.354,375.15 327.125,381.434 327.936,380.39 328.09,376.389 
		331.393,379.564 332.224,375.666 331.779,370.901 338.251,366.153 336.663,364.831 328.73,367.099 326.082,370.808 
		327.283,365.074 325.885,368.062 324.629,371.942 321.331,363.508 316.561,370.268 323.713,363.316 321.389,361.544 
		317.31,360.014 317.962,357.856 311.571,356.307 310.992,354.313 320.586,354.347 320.212,351.176 322.273,350.739 
		323.502,354.633 325.488,354.63 326.678,352.904 326.501,351.931 327.21,349.25 327.398,345.951 321.169,349.007 316.728,347.762 
		316.297,345.799 319.084,342.329 316.849,340.625 318.502,338.697 324.54,336.469 315.904,334.833 325.979,332.896 
		316.254,327.226 322.668,336.439 324.587,338.009 326.312,336.549 326.885,327.902 327.659,326.149 332.848,330.836 
		332.51,326.005 338.374,331.837 339.945,324.91 333.885,329.675 333.647,321.411 329.494,330.646 329.066,323.229 328.055,318.402 
		329.7,319.185 329.753,320.783 318.907,317.762 318.216,315.585 332.467,311.372 324.653,313.23 327.425,315.307 327.07,312.399 
		325.993,309.932 334.764,308.92 334.053,305.6 330.454,303.908 322.6,306.615 326.493,299.406 324.457,302.819 322.946,301.518 
		330.425,301.011 326.23,298.269 317.29,294.635 318.591,292.913 326.126,291.011 323.398,287.351 321.444,286.986 319.861,284.305 
		316.613,291.988 318.253,289.624 320.199,293.818 318.195,288.236 320.964,288.403 323.366,287.128 319.42,282.471 320.79,280.962 
		323.274,279.774 326.135,285.948 327.476,279.752 329.988,284.24 331.424,278.882 335.687,280.217 337.188,275.361 
		333.128,274.464 326.442,274.471 335.185,267.643 332.307,265.616 329.824,265.81 324.822,271.352 324.651,263.294 322.95,267.621 
		316.373,266.973 319.239,261.635 324.404,270.541 326.043,268.138 327.077,257.127 334.402,264.509 326.573,262.076 
		330.851,256.661 324.565,258.388 319.072,255.869 328.477,255.606 325.403,251.139 332.088,248.081 326.453,252.147 
		325.202,255.902 322.128,250.632 321.055,255.284 321.901,247.938 312.873,249.968 311.391,247.96 321.699,246.35 319.793,244.276 
		318.271,242.313 315.994,240.438 321.298,238.167 322.151,240.969 321.596,230.453 321.474,240.498 324.776,234.786 
		325.125,242.683 325.391,232.947 327.909,235.884 335.527,237.554 326.139,235.316 329.185,232.051 327.016,233.341 
		325.036,231.584 326.306,229.605 319.398,229.311 317.458,226.77 320.661,225.401 330.494,225.54 324.884,222.364 323.452,222.024 
		317.57,217.982 324.236,227.612 321.666,217.878 318.857,221.285 327.767,216.188 319.597,216.769 329.718,211.268 
		327.892,209.736 317.79,206.006 324.295,215.807 326.437,215.251 328.596,213.113 330.734,213.1 332.95,205.422 335.03,211.638 
		336.99,209.526 341.047,203.833 338.857,202.894 334.597,203.613 330.768,203.98 330.278,202.414 329.337,204.024 325.156,197.728 
		326.219,207.414 321.441,199.302 320.902,204.125 316.619,209.812 312.051,204.187 312.994,202.28 319.747,199.707 
		321.764,198.316 322.389,196.733 319.332,193.782 318.087,189.219 321.169,198.338 324.472,189.667 326.747,189.339 
		330.368,199.887 334.438,197.085 331.957,190.39 332.452,187.631 331.97,183.572 336.404,186.535 334.495,187.269 335.845,178.696 
		329.821,189.07 331.694,179.153 326.942,186.24 325.731,188.986 324.925,184.957 321.592,176.085 321.18,185.152 319.395,185.824 
		315.311,185.513 319.089,182.624 321.867,181.575 314.659,177.018 315.413,175.251 320.483,175.09 324.576,180.757 
		329.797,177.575 324.779,171.592 321.431,169.718 331.602,167.291 327.402,167.579 326.197,164.324 328.147,164.054 
		331.019,166.965 337.045,166.365 330.113,161.59 337.489,158.265 333.852,156.725 332.367,153.316 329.185,149.948 
		326.055,155.514 323.703,155.827 320.612,160.979 319.34,156.091 316.488,160.041 315.65,152.709 314.615,146.475 307.624,153.532 
		311.007,149.012 319.715,152.059 318.184,148.549 320.364,147.409 317.253,142.888 320.951,147.272 322.052,144.384 
		324.176,145.816 324.378,137.667 329.005,143.455 333.974,141.804 327.673,136.303 323.001,131.639 325.648,130.748 
		331.381,131.343 328.628,133.549 326.215,134.472 324.102,134.982 323.149,125.956 321.216,123.95 318.581,128.43 316.065,131.8 
		314.972,121.994 312.457,128.583 313.596,127.427 314.756,125.773 319.451,127.539 319.432,124.732 320.146,122.794 
		322.633,123.227 322.342,119.849 322.81,116.628 325.65,119.272 327.713,118.312 329.183,111.145 331.427,112.048 333.171,116.474 
		334.905,114.955 330.381,114.613 332.7,111.85 325.836,112.326 327.792,113.276 329.4,102.264 326.652,105.881 326.194,101.958 
		322.519,106.966 318.926,105.22 325.022,109.321 322.276,102.808 323.161,102.502 324.2,100.476 323.587,98.702 328.085,96.13 
		323.897,95.42 324.188,89.702 327.509,98.298 326.235,99.59 326.623,98.092 324.066,91.961 324.244,91.976 317.015,92.188 
		327.121,90.648 328.948,88.706 325.717,84.499 316.524,91.065 315.505,88.368 309.558,82.235 319.88,88.804 319.975,78.618 
		321.797,77.202 327.553,84.53 322.075,77.799 319.525,74.66 325.283,74.528 330.053,75.583 333.292,75.748 325.232,74.654 
		328.345,72.488 326.028,70.152 323.608,66.352 320.894,72.661 326.915,68.444 314.285,68.269 322.683,64.282 321.23,62.295 
		321.772,59.637 323.932,58.831 311.812,55.43 313.802,53.582 323.893,55.84 319.215,48.317 322.434,50.182 321.53,48.603 
		328.893,49.008 330.281,49.213 322.806,41.624 329.916,41.463 325.873,41.87 323.466,39.197 322.263,43.306 321.384,49.254 
		315.155,47.468 323.023,42.632 311.825,39.258 324.777,38.934 321.427,37.614 322.373,36.225 321.911,30.254 326.092,35.28 
		327.87,33.735 328.688,31.615 325.081,33.364 330.231,26.338 328.053,25.692 326.171,24.785 321.925,27.369 318.225,30.055 
		320.716,23.532 324.386,19.604 324.253,18.725 315.181,17.824 316.799,15.897 319.607,13.972 316.022,12.022 	"/>
</g>
<g>
	<polyline class="st0" points="843.461,757.82 845.506,757.488 844.888,753.653 846.89,753.127 843.506,746.218 847.688,748.318 
		856.041,747.79 847.719,745.978 842.578,747.493 849.637,739.573 850.522,741.251 841.119,735.931 842.679,734.563 
		846.372,734.867 844.343,733.701 842.56,734.423 854.719,728.954 849.648,726.337 845.468,723.284 844.082,727.425 
		842.699,731.631 840.474,727.695 834.689,732.344 840.249,727.5 833.994,723.992 836.33,721.381 846.738,724.851 843.924,720.825 
		840.082,712.635 845.048,719.842 844.543,714.45 850.026,717.411 845.112,713.435 845.725,711.763 847.237,714.377 
		848.375,715.206 847.139,718.994 842.551,709.462 841.22,712.887 843.828,709.48 838.008,711.463 841.866,710.692 837.648,707.062 
		839.955,704.01 844.999,711.115 846.49,706.074 847.347,703.794 847.553,701.646 840.79,700.111 842.109,699.008 842.531,694.846 
		848.715,694.401 845.75,690.4 843.911,687.062 852.989,687.978 848.604,686.812 842.087,690.397 850.279,681.938 839.822,686.633 
		843.718,682.435 848.365,675.747 835.833,676.197 843.821,678.242 845.86,675.217 847.844,674.791 847.622,675.151 
		852.981,677.761 856.69,677.196 854.446,674.518 852.975,671.452 854.253,664.988 849.078,668.584 850.213,662.322 
		843.723,670.005 841.409,670.371 840.383,667.389 838.357,666.215 843.268,657.519 836.677,662.001 837.245,661.016 
		837.501,661.281 839.166,666.6 841.938,656.915 843.345,665.747 845.215,668.346 850.328,665.737 842.702,656.587 843.196,654.688 
		850.935,656.389 847.688,650.598 849.291,649.347 856.33,653.368 852.707,647.029 852.777,650.453 855.975,643.256 
		853.411,646.365 850.28,653.482 849.258,645.673 847.22,645.03 841.303,650.656 841.193,645.511 838.177,643.952 840.302,643.376 
		843.444,633.683 840.479,636.609 838.312,636.881 836.215,636.908 834.428,635.894 838.912,638.197 833.639,630.551 
		836.311,642.696 837.704,630.61 840.035,636.224 841.844,631.959 844.061,635.365 851.807,640.83 849.422,633.661 840.183,633.574 
		851.01,629.238 848.356,627.757 845.119,627.379 849.263,627.522 844.775,624.609 843.081,625.574 836.972,623.513 
		850.108,621.973 843.532,619.744 849.053,614.109 841.022,617.994 837.556,621.327 839.446,611.853 834.088,619.68 
		835.545,614.407 836.564,619.671 838.557,618.389 840.572,617.9 842.528,615.421 844.361,608.598 843.96,609.731 840.91,609.075 
		853.849,612.628 848.89,608.319 848.446,604.921 853.819,608.536 857.33,609.9 850.836,599.211 855.121,602.479 855.002,600.741 
		855.935,596.766 853.493,596.843 850.559,597.509 848.533,597.421 845.954,599.918 843.247,602.128 843.312,594.746 
		845.289,593.429 844.456,592.25 843.498,596.736 847.609,587.916 849.096,595.014 854.752,595.697 848.189,587.312 
		854.168,588.225 852.022,585.549 845.247,587.494 851.556,580.797 849.23,579.795 850.732,579.317 852.17,580.91 844.588,573.477 
		851.723,575.682 845.062,568.841 845.631,574.672 850.176,573.174 847.267,569.396 845.846,572.35 844.129,573.98 843.066,571.298 
		848.068,572.463 843.38,569.688 835.804,568.039 842.48,565.989 842.822,563.967 847.146,562.559 846.972,561.877 841.602,558.119 
		840.616,555.454 842.472,555.332 844.709,554.31 848.13,552.618 844.207,558.037 842.668,555.596 841.633,547.953 838.792,552.679 
		845.412,550.821 845.344,548.937 836.265,546.24 845.148,548.463 840.414,540.221 845.656,549.768 842.371,536.356 
		850.044,548.683 850.531,545.274 853.596,543.732 855.276,540.703 846.39,533.753 851.102,533.896 852.127,533.443 
		852.094,532.449 851.927,529.79 848.529,530.518 849.261,525.973 846.242,534.358 845.234,520.602 842.716,532.202 
		837.021,533.387 845.847,522.029 844.898,520.019 830.715,520.643 841,521.882 836.805,514.188 839.979,514.951 848.385,519.121 
		842.369,512.6 841.468,508.497 850.641,515.501 842.243,510.591 847.904,504.372 845.998,504.488 848.819,505.872 842.065,507.145 
		838.981,504.481 846.569,504.025 846.463,501.974 841.402,501.336 847.399,492.492 843.803,497.674 839.808,497.525 
		837.688,496.08 839.802,492.506 843.934,494.052 840.695,491.513 843.425,489.944 842.379,499.349 848.108,489.062 
		847.231,497.984 844.348,490.563 852.633,489.727 845.92,493.218 847.923,488.443 848.379,485.13 849.437,486.646 845.75,486.467 
		843.564,481.812 848.643,483.928 847.647,482.096 847.233,484.266 844.452,481.44 842.375,481.626 841.951,488.901 
		840.395,482.378 841.656,483.337 840.322,479.963 841,477.975 844.232,477.75 846.736,480.452 845.958,475.847 852.057,479.725 
		844.959,474.626 844.207,472.797 850.138,469.68 839.925,469.659 851.227,464.694 837.397,463.989 844.527,461.463 
		846.105,460.311 848.632,459.867 842.47,456.374 843.173,456.234 847.468,453.386 852.644,445.655 846.59,454.251 843.244,446.449 
		842.591,455.95 835.119,450.14 841.878,450.756 843.245,458.32 845.682,450.516 845.601,448.18 848.347,451.182 844.632,445.409 
		853.867,448.824 844.572,450.849 846.898,446.871 845.387,445.546 852.242,438.424 838.224,441.085 847.895,440.024 
		845.345,436.328 846.738,435.031 853.608,432.929 847.058,434.765 846.509,431.128 843.007,433.256 844.581,429.635 
		840.058,428.683 846.992,433.919 843.591,426.789 849.908,424.027 838.656,425.287 837.797,423.596 836.422,422.048 
		836.377,420.118 842.79,417.44 845.146,412.612 847.313,420.126 842.657,418.304 845.914,414.6 845.746,412.485 847.543,408.002 
		839.914,410.282 837.049,410.386 840.734,403.9 833.198,405.82 834.974,401.441 839.541,404.434 838.314,399.286 839.832,394.614 
		843.914,397.04 845.872,399.454 847.622,397.559 854.851,404.635 847.747,399.936 847.491,398.126 843.396,397.852 
		851.507,391.354 846.668,391.38 847.533,389.336 842.73,389.178 846.507,383.437 841.905,384.238 840.852,381.722 840.184,378.329 
		838.168,377.948 827.402,384.199 839.946,387.389 840.322,384.948 837.196,378.351 840.995,379.955 843.213,380.254 
		844.462,379.388 842.148,371.563 845.252,372.942 849.121,377.394 849.315,371.681 850.67,369.279 859.938,374.083 849.06,371.746 
		857.779,364.583 855.954,363.393 851.238,361.721 847.697,363.467 845.359,360.789 843.975,363.887 842.864,368.663 
		840.601,366.129 835.578,364.893 846.644,360.727 841.044,359.622 834.018,358.208 835.877,356.033 837.257,353.891 
		834.518,347.198 841.892,345.997 843.441,348.211 844.551,352.729 846.178,354.577 853.364,356.995 853.624,348.426 
		845.318,350.649 845.714,348.053 841.652,349.158 848.475,343.468 837.526,345.586 838.299,342.717 837.312,340.654 
		836.75,339.015 841.411,336.708 846.831,334.802 842.665,332.91 844.227,333.717 842.576,324.53 844.604,327.772 846.667,331.556 
		848.404,330.486 847.327,324.411 851.216,326.86 850.895,322.054 858.336,330.601 854.363,325.469 855.688,324.657 
		853.562,324.831 852.857,318.653 848.749,327.683 846.455,328.593 845.595,322.599 850.417,320.782 841.74,317.942 
		846.584,316.228 846.516,314.06 845.44,312.917 849.082,318.432 852.184,313.643 848.415,310.421 850.409,308.628 854.047,305.701 
		849.695,304.12 853.17,298.158 846.893,302.257 845.165,302.526 840.446,303.572 840.929,299.109 841.901,297.333 837.887,294.619 
		850.978,295.102 843.781,293.208 844.086,287.3 841.768,289.208 838.774,295.323 836.327,298.009 840.468,289.227 836.782,288.879 
		838.281,287.52 839.101,285.336 841.875,285.451 836.87,281.001 841.791,281.108 846.49,283.35 845.641,275.243 848.375,281.756 
		850.834,285.763 852.673,284.067 851.158,277.268 853.905,276.731 857.361,273.235 855.396,271.609 854.224,268.749 
		850.086,269.298 844.514,273.414 844.435,274.255 845.374,265.418 840.477,270.89 837.322,266.903 839.668,261.494 
		844.905,268.032 846.284,261.928 848.427,266.639 856.911,265.136 844.852,263.7 842.801,262.566 841.846,260.687 844.198,255.843 
		844.713,252.898 845.252,250.633 853.47,247.719 846.915,251.07 844.714,250.122 843.279,252.968 841.691,255.07 834.826,257.193 
		835.631,250.039 838.841,248.19 833.679,246.055 843.324,244.25 837.255,242.401 836.961,240.422 845.016,238.011 843.531,241.808 
		839.91,241.333 842.728,237.85 843.893,241.979 846.904,237.622 851.72,244.435 848.064,235.599 845.707,231.835 855.691,230.811 
		850.193,226.809 848.169,225.811 845.42,236.272 840.49,234.579 837.307,228.679 850.469,229.582 839.784,225.045 850.41,225.366 
		839.505,225.171 845.04,219.21 839.953,219.23 844.451,214.998 844.03,219.083 840.38,221.004 850.411,215.537 849.011,213.865 
		842.771,213.803 842.918,211.615 844.229,210.515 845.106,202.705 847.153,211.592 849.316,209.056 851.395,215.016 
		853.609,207.427 855.707,211.884 855.194,208.269 861.519,204 850.868,209.855 856.163,202.901 850.136,205.034 852.431,197.748 
		849.312,201.875 846.869,200.879 845.944,204.503 841.402,197.113 840.57,201.042 841.612,201.828 833.812,204.065 
		832.293,202.438 833.516,200.496 845.441,198.532 839.584,195.945 840.416,193.874 840.397,191.547 841.88,198.082 844.37,195.989 
		846.256,198.814 850.375,197.211 850.352,190.766 851.997,189.542 850.969,184.763 853.354,184.507 864.267,186.237 
		856.87,182.915 853.103,187.486 851.635,186.161 851.012,182.652 847.654,186.159 847.673,176.927 844.979,181.117 
		844.356,188.869 840.858,179.018 840.416,187.92 836.934,184.752 840.098,182.739 842.245,181.469 844.61,180.27 833.697,174.41 
		842.96,177.169 842.528,171.755 842.287,170.982 844.357,171.637 847.673,169.492 850.609,167.358 846.969,166.799 
		848.142,168.722 849.82,167.501 850.995,164.527 846.805,159.928 848.758,161.92 854.904,158.794 849.948,157.469 853.059,153.304 
		849.651,151.353 846.149,159.364 844.709,153.855 842.927,151.847 841.617,147.163 838.206,154.23 835.3,158.468 833.689,155.443 
		831.444,152.175 831.903,149.151 832.588,147.064 833.661,145.221 840.898,147.316 841.627,147.426 841.646,147.316 
		843.648,146.945 843.2,139.266 844.791,135.851 849.854,143.685 853.99,141.461 846.764,135.483 846.47,133.079 855.964,135.723 
		856.694,128.774 850.7,126.51 848.645,125.63 844.818,134.741 843.259,131.226 841.463,127.949 839.862,122.865 836.732,131.929 
		834.677,131.006 837.145,126.803 829.449,122.752 839.823,130.023 840.127,127.534 835.036,119.815 838.837,120.581 
		840.577,119.678 847.109,125.149 846.455,124.663 846.506,121.118 849.03,124.983 850.841,121.389 852.499,116.157 
		860.415,121.668 860.262,113.304 852.09,114.249 846.462,114.293 852.209,110.315 850.106,110.884 848.671,114.699 
		847.359,105.634 842.996,112.706 846.036,103.312 844.312,106.015 843.127,103.567 844.846,103.832 838.312,103.361 
		837.606,101.605 848.089,98.108 843.323,96.976 842.522,93.996 846.053,96.49 847.754,95.808 848.799,95.187 847.093,94.445 
		844.786,92.671 845.024,91.862 840.043,92.301 836.569,90.106 836.976,88.096 841.183,87.417 838.854,88.55 837.939,85.691 
		841.25,82.691 838.357,77.603 842.32,87.097 842.191,75.751 848.817,85.25 852.777,81.767 852.257,79.43 845.095,74.025 
		845.701,71.525 852.081,74.223 849.838,71.855 848.494,64.668 846.581,68.287 844.974,76.463 844.342,69.271 835.234,70.492 
		841.916,67.118 845.805,63.468 845.442,60.409 843.427,59.116 831.948,60.029 831.904,55.271 846.631,56.864 839.906,52.518 
		842.238,52.472 843.162,50.269 842.961,48.951 850.638,49.272 850.763,49.081 849.213,45.416 842.149,45.168 846.258,40.226 
		845.019,44.099 842.937,43.274 839.79,36.484 841.068,42.096 832.723,41.243 833.922,39.437 841.732,38.463 843.874,38.81 
		844.729,38.654 847.104,39.817 845.893,31.887 849.116,35.921 855.824,34.175 849.312,30.268 849.484,27.58 848.695,25.725 
		843.213,27.955 843.021,26.572 842.651,25.22 847.55,20.532 841.302,21.439 845.088,18.691 840.048,17.841 842.911,15.918 
		845.054,13.99 841.52,12.042 	"/>
</g>
</svg>
