<?xml version="1.0" encoding="utf-8"?>
<!-- Generator: Adobe Illustrator 21.0.0, SVG Export Plug-In . SVG Version: 6.00 Build 0)  -->
<svg version="1.1" id="svgs" xmlns="http://www.w3.org/2000/svg" xmlns:xlink="http://www.w3.org/1999/xlink" x="0px" y="0px"
	 viewBox="0 0 2328 768.5" style="enable-background:new 0 0 2328 768.5;" xml:space="preserve">
<style type="text/css">
	.st0{fill:#FFFFFF;stroke:#231F20;stroke-miterlimit:10;}
	.st1{fill:#FFFFFF;}
	.st2{fill:#FFB81A;}
	.st3{fill:none;}
	.st4{fill:none;stroke:#FFB81A;stroke-width:2.9184;stroke-miterlimit:10;}
	.st5{fill:#F9773E;}
	.st6{fill:#71A8A8;}
	.st7{fill:#53848C;}
	.st8{fill:none;stroke:#FFFFFF;stroke-width:6;stroke-miterlimit:10;}
	.st9{fill:#345D6E;}
	.st10{fill:none;stroke:#FFFFFF;stroke-width:1.4167;stroke-miterlimit:10;}
	.st11{fill:none;stroke:#FFFFFF;stroke-width:1.4167;stroke-miterlimit:1;}
	.st12{fill:none;stroke:#FFFFFF;stroke-width:1.4167;stroke-linecap:round;stroke-miterlimit:10;}
	.st13{fill:none;stroke:#6B989F;stroke-width:2;stroke-miterlimit:10;}
	.st14{opacity:0.5;fill:#6B989F;enable-background:new    ;}
	.st15{fill:#335E6E;}
	.st16{fill:#6B989F;}
	.st17{fill:none;stroke:#FFB81A;stroke-width:2;stroke-linecap:round;stroke-miterlimit:10;}
	.st18{fill:#FF7931;}
	.st19{fill:none;stroke:#FFB81A;stroke-width:3;stroke-linecap:round;stroke-linejoin:round;stroke-miterlimit:10;}
	.st20{fill:none;stroke:#E03F07;stroke-width:3;stroke-miterlimit:10;}
	.st21{fill:none;stroke:#FFB81A;stroke-width:4;stroke-miterlimit:10;}
	.st22{fill:none;stroke:#335E6E;stroke-miterlimit:10;}
	.st23{fill:none;stroke:#6B989F;stroke-miterlimit:10;}
	.st24{fill:none;stroke:#6B989F;stroke-width:0.7797;stroke-miterlimit:10;}
	.st25{fill:#262626;}
	.st26{fill:none;stroke:#FFB81A;stroke-width:2.4838;stroke-miterlimit:10;}
	.st27{fill:none;stroke:#F9773E;stroke-miterlimit:10;}
</style>
<symbol  id="New_Symbol" viewBox="-10.3 -10.3 20.6 20.6">
	<polygon class="st0" points="9.8,-9.8 -9.8,-9.8 -9.8,9.8 9.8,9.8 	"/>
</symbol>
<g id="first">
	
		<use xlink:href="#New_Symbol"  width="20.6" height="20.6" x="-10.3" y="-10.3" transform="matrix(0.7046 0 0 -0.7046 19.7051 317.3584)" style="overflow:visible;"/>
</g>
<g id="ep5-badge">
	<path id="_x3E_white_1_" class="st1" d="M228.3,310.2h-16.8v6.9h0.1v6.5l7.9,2.2l0.5-1.9l-6.5-1.8v-5.3h9v0.3
		c-0.1,0.5-0.3,1-0.6,1.4c-0.3,0.4-0.8,0.5-1.5,0.5h-2.6h-0.6v2h0.6h2.6h3.8v3.8h2v-3.8h2L228.3,310.2L228.3,310.2z M218.9,312.2
		v2.5h-1.7v-2.5H218.9z M213.5,314.8v-2.5h1.7v2.5H213.5z M220.9,314.8v-2.5h1.7v2.5H220.9z M226.3,318.9h-1.7v-1.7
		c0.1-0.8,0.1-1.4,0.1-1.6l-0.1-0.9h0v-2.5h1.7V318.9z"/>
	<g id="_x3E_yellow_3_">
		<g>
			<path class="st2" d="M219.9,304.1l12,6.3v13.7l-12,6.3l-12-6.3v-13.7L219.9,304.1 M219.9,301.8l-14.2,7.4v16.4l14.2,7.4l14.2-7.4
				v-16.4L219.9,301.8L219.9,301.8z"/>
		</g>
	</g>
</g>
<g id="ep4-badge">
	<g id="_x3E_white_4_">
		<rect x="186" y="323.2" class="st1" width="8.2" height="2.1"/>
		<rect x="168.1" y="323.2" class="st1" width="7.4" height="2.1"/>
	</g>
	<g id="_x3E_yellow_4_">
		<path id="XMLID_403_" class="st2" d="M180.8,304.1l12,6.3v13.8l-12,6.3l-12-6.3v-13.8L180.8,304.1 M180.8,301.8l-14.2,7.4v16.3
			l14.2,7.4l14.2-7.4v-16.3L180.8,301.8L180.8,301.8z"/>
		<path class="st2" d="M180.8,312.3c-1.6,0-2.8-1.3-2.8-2.8c0-1.6,1.3-2.8,2.8-2.8c1.6,0,2.8,1.3,2.8,2.8
			C183.6,311,182.3,312.3,180.8,312.3z M180.8,308.4c-0.6,0-1,0.5-1,1c0,0.6,0.5,1,1,1s1-0.5,1-1
			C181.8,308.9,181.4,308.4,180.8,308.4z"/>
		<path class="st2" d="M185.4,321.2l1.6-0.7l-2.9-6.3l0.2-1.1h-7.4l0.2,1.1l-2.9,6.3l1.6,0.7l1.9-4.1l0.6,2.5l-0.7,7.1v0.7h1.8
			l0-0.6l0.6-6.3h1l0.6,6.3v0.7h1.8l0-0.8l-0.6-7l0.6-2.5L185.4,321.2z M180.2,318.7l-0.8-3.8h2.9l-0.8,3.8H180.2z"/>
	</g>
</g>
<g id="ep3-badge">
	<polygon id="_x3E_white_2_" class="st1" points="137.8,305.9 127.4,311.4 128.3,313.1 137.8,308.2 145.5,312.3 136.4,317 
		137.3,318.8 146.5,314 146.5,315.8 146.5,316.4 136.4,321.7 137.3,323.5 146.5,318.7 146.5,319.6 146.5,321 136.4,326.3 
		137.3,328.1 146.5,323.3 146.5,327.4 148.5,327.4 148.5,322.3 148.5,319.6 148.5,317.7 148.5,315.8 148.5,311.5 	"/>
	<g id="_x3E_yellow_2_">
		<g id="XMLID_68_">
			<path class="st2" d="M145.5,316c-0.1,0.4-0.4,0.7-0.8,0.7c-0.4,0-0.6-0.3-0.5-0.7c0.1-0.4,0.4-0.7,0.8-0.7S145.5,315.6,145.5,316
				z"/>
		</g>
		<g id="XMLID_67_">
			<path class="st2" d="M145.5,320.6c-0.1,0.4-0.4,0.7-0.8,0.7c-0.4,0-0.6-0.3-0.5-0.7c0.1-0.4,0.4-0.7,0.8-0.7
				S145.5,320.2,145.5,320.6z"/>
		</g>
		<g id="XMLID_66_">
			<path class="st2" d="M145.5,325.4c-0.1,0.4-0.4,0.7-0.8,0.7c-0.4,0-0.6-0.3-0.5-0.7c0.1-0.4,0.4-0.7,0.8-0.7
				S145.5,324.9,145.5,325.4z"/>
		</g>
		<path class="st2" d="M152,309.1l-14.2-7.4l-14.2,7.4v16.4l14.2,7.4l0,0l0.1,0v-0.1l14.1-7.3L152,309.1L152,309.1z M135.7,329.3
			l-9.9-5.2v-11.5l9.9,5.2V329.3z M149.8,324.1l-11.9,6.2v-13.8l-11.9-6.2l11.8-6.2l12,6.3V324.1z"/>
	</g>
</g>
<g id="ep2-badge">
	<g id="_x3E_white">
		<polygon class="st1" points="94.7,317.6 95.8,315.9 89.5,312.2 94.5,309.6 93.6,307.9 86.6,311.5 86.6,319.6 88.6,319.6 88.6,314 
					"/>
		<polygon class="st1" points="97.8,325.8 97.8,318.9 95.8,318.9 95.8,325.8 90.6,323.2 89.7,324.9 96.8,328.6 103.7,324.9 
			102.8,323.2 		"/>
		<polygon class="st1" points="99.7,307.9 98.8,309.6 103.8,312.3 97.6,315.9 98.7,317.6 104.8,314 104.8,319.6 106.8,319.6 
			106.8,311.5 		"/>
	</g>
	<g id="_x3E_yellow_1_">
		<g>
			<path class="st2" d="M96.8,304.1l12,6.3v13.7l-12,6.3l-12-6.3v-13.7L96.8,304.1 M96.8,301.8l-14.2,7.4v16.4l14.2,7.4l14.2-7.4
				v-16.4L96.8,301.8L96.8,301.8z"/>
		</g>
	</g>
</g>
<g id="ep1-badge">
	<g id="_x3E_white_3_">
		<polygon class="st1" points="49.3,312.6 47.9,314.1 50.1,316.2 43,316.2 43,318.2 50.2,318.2 47.8,320.7 49.3,322 54,317.2 		"/>
		<polygon class="st1" points="60.4,311 58.9,309.5 56.7,311.8 56.7,303.9 54.7,303.9 54.7,311.8 52.4,309.5 50.9,311 55.7,315.7 		
			"/>
		<polygon class="st1" points="51,323.6 52.4,325.1 54.7,322.8 54.7,330.8 56.7,330.8 56.7,322.8 59,325.1 60.4,323.6 55.7,319.1 		
			"/>
		<polygon class="st1" points="69.2,316.2 61.2,316.2 63.4,314.1 62.1,312.6 57.2,317.2 62,322.1 63.5,320.6 61.1,318.2 69.2,318.2 
					"/>
	</g>
	<g id="_x3E_yellow">
		<g>
			<path class="st2" d="M55.7,304.1l12,6.3v13.7l-12,6.3l-12-6.3v-13.7L55.7,304.1 M55.7,301.8l-14.2,7.4v16.4l14.2,7.4l14.2-7.4
				v-16.4L55.7,301.8L55.7,301.8z"/>
		</g>
	</g>
</g>
<g id="rank-badge-master-cadet">
	<polygon class="st1" points="447.9,298.5 448.7,300.2 450.4,300.5 449.2,301.8 449.5,303.5 447.9,302.8 446.4,303.5 446.7,301.8 
		445.5,300.5 447.2,300.2 	"/>
	<polygon class="st1" points="423.9,298.5 424.6,300.2 426.3,300.5 425.1,301.8 425.4,303.5 423.9,302.8 422.4,303.5 422.7,301.8 
		421.4,300.5 423.2,300.2 	"/>
	<polygon class="st2" points="432.9,327.9 430.6,326.6 430.4,326.8 430.4,326.5 425.3,323.9 425.3,311.5 433.5,307.2 434,304.6 
		423.2,310.2 423.2,325.1 432.4,329.9 	"/>
	<rect x="421.4" y="298.5" class="st3" width="29" height="39.1"/>
	<polygon class="st2" points="437.9,304.6 438.3,307.2 446.5,311.5 446.5,323.9 439.5,327.5 438.7,330.4 448.6,325.1 448.6,310.2 	
		"/>
	<g>
		<polygon class="st1" points="436.6,327.9 433.8,329.9 435.9,320.5 432.4,323.4 434.5,310.6 438,310.6 436.6,316.2 439.4,314.1 
			437,324.1 439.6,322.1 435.1,337.6 		"/>
		<rect x="430.9" y="309.9" class="st1" width="9.9" height="1.4"/>
		<polygon class="st1" points="435.9,301.4 434.5,309.9 437.3,309.9 		"/>
		<g id="XMLID_45_">
			<g id="XMLID_157_">
				<g id="XMLID_185_">
					<g id="XMLID_229_">
						<polygon class="st1" points="435.9,300 434.5,300.9 434.5,302.8 435.9,303.5 437.3,302.8 437.3,300.9 						"/>
					</g>
				</g>
			</g>
		</g>
	</g>
</g>
<g id="rank-badge-cyber-cadet">
	<polygon class="st2" points="402,305.6 402.3,307.9 409,307.9 409,323.5 402.3,328.1 402,331 411.1,324.6 411.1,305.6 	"/>
	<polygon class="st2" points="397.3,328.2 390.7,323.9 390.7,307.9 397.3,307.9 397.7,305.6 388.5,305.6 388.6,324.9 397.7,331 	"/>
	<line class="st4" x1="389.2" y1="314.2" x2="394.5" y2="314.2"/>
	<line class="st4" x1="389.2" y1="320.4" x2="395.7" y2="320.4"/>
	<line class="st4" x1="405.1" y1="314.2" x2="410.4" y2="314.2"/>
	<line class="st4" x1="403.9" y1="320.4" x2="410.4" y2="320.4"/>
	<g>
		<g>
			<g>
				<rect x="385.3" y="298.5" class="st3" width="29" height="39.1"/>
				<polygon class="st1" points="399.8,310.6 397,313.4 399.8,337.5 402.6,313.4 				"/>
			</g>
		</g>
		<rect x="394.8" y="309.9" class="st1" width="9.9" height="1.4"/>
		<polygon class="st1" points="399.8,301.4 398.4,309.9 401.2,309.9 		"/>
		<g id="XMLID_166_">
			<g id="XMLID_168_">
				<g id="XMLID_169_">
					<g id="XMLID_170_">
						<polygon class="st1" points="399.8,300 398.4,300.9 398.4,302.8 399.8,303.5 401.2,302.8 401.2,300.9 						"/>
					</g>
				</g>
			</g>
		</g>
	</g>
	<polygon class="st1" points="411.8,298.5 412.6,300.2 414.3,300.5 413.1,301.8 413.4,303.5 411.8,302.8 410.3,303.5 410.6,301.8 
		409.3,300.5 411.1,300.2 	"/>
	<polygon class="st1" points="387.8,298.5 388.5,300.2 390.2,300.5 389,301.8 389.3,303.5 387.8,302.8 386.3,303.5 386.6,301.8 
		385.3,300.5 387,300.2 	"/>
</g>
<g id="rank-badge-technical-cadet">
	<rect x="349.2" y="298.5" class="st3" width="29" height="39.1"/>
	<g>
		<path class="st2" d="M372.9,307.9v15.7l-9.2,6.4l-9.1-6.2l-0.1-16h18.4 M375,305.6h-22.6l0.1,19.3l11.3,7.6l11.3-7.9v-19
			L375,305.6L375,305.6z"/>
	</g>
	<line class="st4" x1="353" y1="314.2" x2="374.4" y2="314.2"/>
	<polygon class="st1" points="375.7,298.5 376.5,300.2 378.2,300.5 377,301.8 377.3,303.5 375.7,302.8 374.2,303.5 374.5,301.8 
		373.2,300.5 375,300.2 	"/>
	<polygon class="st1" points="351.6,298.5 352.4,300.2 354.1,300.5 352.9,301.8 353.2,303.5 351.6,302.8 350.2,303.5 350.4,301.8 
		349.2,300.5 350.9,300.2 	"/>
	<line class="st4" x1="353" y1="320.4" x2="374.4" y2="320.4"/>
</g>
<g id="rank-badge-cadet-first-class">
	<rect x="313.1" y="298.5" class="st3" width="29" height="39.1"/>
	<g>
		<path class="st2" d="M336.8,307.9v15.7l-9.2,6.4l-9.1-6.2l-0.1-16h18.4 M338.9,305.6h-22.6l0.1,19.3l11.3,7.6l11.3-7.9v-19
			L338.9,305.6L338.9,305.6z"/>
	</g>
	<line class="st4" x1="316.9" y1="315.5" x2="338.3" y2="315.5"/>
	<polygon class="st1" points="339.6,298.5 340.4,300.2 342.1,300.5 340.9,301.8 341.2,303.5 339.6,302.8 338.1,303.5 338.4,301.8 
		337.1,300.5 338.9,300.2 	"/>
	<polygon class="st1" points="315.5,298.5 316.3,300.2 318,300.5 316.8,301.8 317.1,303.5 315.5,302.8 314.1,303.5 314.3,301.8 
		313.1,300.5 314.8,300.2 	"/>
</g>
<g id="rank-badge-cadet">
	<rect x="278.7" y="298.5" class="st3" width="29" height="39.1"/>
	<g>
		<path class="st2" d="M302.4,307.9v15.7l-9.2,6.4l-9.1-6.2l-0.1-16L302.4,307.9 M304.6,305.6h-22.7l0.1,19.3l11.3,7.6l11.3-7.9
			L304.6,305.6L304.6,305.6z"/>
	</g>
	<line class="st4" x1="282.6" y1="315.5" x2="304" y2="315.5"/>
</g>
<g id="rank-badge-recruit">
	<g>
		<path class="st2" d="M268.5,307.9v15.7l-9.2,6.4l-9.1-6.2l-0.1-16h18.4 M270.6,305.6h-22.7l0.1,19.3l11.3,7.6l11.3-7.9
			L270.6,305.6L270.6,305.6z"/>
	</g>
	<rect x="244.7" y="298.5" class="st3" width="29" height="39.1"/>
</g>
<g id="list-progress-base">
	<g id="hex-outer_1_">
		<g id="XMLID_1080_">
			<path class="st5" d="M168.4,343.1l11.3,5.9v12.9l-11.3,5.9l-11.3-5.9V349L168.4,343.1 M168.4,339.9l-14.2,7.4v16.4l14.2,7.4
				l14.2-7.4v-16.4L168.4,339.9L168.4,339.9z"/>
		</g>
	</g>
	<g id="hex-inner_1_">
		<g id="XMLID_2384_">
			<polygon class="st2" points="168.4,365.9 159.3,360.9 159.3,350 168.4,345.1 177.4,350 177.4,360.9 			"/>
		</g>
	</g>
</g>
<g id="list-progress-complete">
	<g id="hex-inner">
		<g>
			<polygon class="st6" points="139.1,349.8 143,352.1 138.5,352.1 137.8,352.1 144.5,357.9 144.5,350 135.4,345.1 133.4,346.1 			
				"/>
		</g>
		<g>
			<polygon class="st6" points="132.8,359.4 129.2,357 133.4,357 135.1,356.9 126.4,350.2 126.4,360.9 135.4,365.9 139.5,363.6 			
				"/>
		</g>
	</g>
	<g id="hex-outer">
		<polygon class="st7" points="141.3,364.8 135.4,367.9 124.1,361.9 124.1,349 127.7,347.1 125.7,345 121.3,347.4 121.3,363.6 
			135.4,371 144.1,366.5 		"/>
		<polygon class="st7" points="135.4,339.9 128.8,343.4 131.7,345.1 135.4,343.1 146.8,349 146.8,361.9 145,362.9 147.2,364.9 
			149.6,363.6 149.6,347.4 		"/>
	</g>
	<g id="lightning_1_">
		<g id="lightning">
			<polygon class="st2" points="125,342.4 138.5,350.9 134.4,350.9 145.6,360.4 140.7,360.4 147.8,367.4 133.5,358.2 138.9,358.2 
				126.9,349 131.3,348.9 			"/>
		</g>
	</g>
</g>
<g id="ctanlee">
	<circle class="st1" cx="59.6" cy="391.9" r="6.4"/>
	<path class="st8" d="M64.1,408.3c7.2-2,12.5-8.5,12.5-16.4"/>
	<path class="st8" d="M42.6,391.9c0,7.8,5.3,14.4,12.5,16.4"/>
	<path class="st8" d="M71.4,379.7c-3.1-2.9-7.2-4.8-11.8-4.8c-4.7,0-8.9,1.9-12,4.9"/>
</g>
<g id="action-btn-fist">
	<polygon class="st1" points="408.8,433.5 377.1,416.9 377.1,380.4 408.8,363.9 440.5,380.4 440.5,416.9 	"/>
	<polygon class="st5" points="408.8,431.1 379.3,415.6 379.3,381.6 408.8,366.2 438.3,381.6 438.3,415.6 	"/>
	<path class="st9" d="M415.4,359.4c0,0,7.4,2,10.1,3.4c-3.4,6.5-11.5,2.4-11.5,2.4s-2.3,2.8-3,3.6c11.1,5.2,26.2,0.7,26.2,0.7
		l-0.9,5.9l-5.6,13.5l-9.7,5l-17.7,35.3l-20.7-10.8l25.8-32.4l-2.7-19.1L415.4,359.4z"/>
	<path class="st10" d="M415.4,359.4c0,0,7.4,2,10.1,3.4c-3.4,6.5-11.5,2.4-11.5,2.4s-2.3,2.8-3,3.6c11.1,5.2,26.2,0.7,26.2,0.7
		l-0.9,5.9l-5.6,13.5l-9.7,5l-17.7,35.3l-20.7-10.8l25.8-32.4l-2.7-19.1L415.4,359.4z"/>
	<path class="st9" d="M421.1,352.1L419,351c-1.8-0.9-3.9-0.2-4.8,1.5l-7,13.4l8.5,4.4l7-13.4C423.6,355.1,422.9,353,421.1,352.1"/>
	<path class="st10" d="M421.1,352.1L419,351c-1.8-0.9-3.9-0.2-4.8,1.5l-7,13.4l8.5,4.4l7-13.4C423.6,355.1,422.9,353,421.1,352.1z"
		/>
	<path class="st9" d="M427.6,353.5l2.6,1.7c1.3,0.8,1.7,2.5,0.8,3.8l-7.3,11.2c-3-0.9-4.4-2.1-6.3-4.3l6.3-11.4
		C424.6,353.2,426.3,352.8,427.6,353.5"/>
	<path class="st10" d="M427.6,353.5l2.6,1.7c1.3,0.8,1.7,2.5,0.8,3.8l-7.3,11.2c-3-0.9-4.4-2.1-6.3-4.3l6.3-11.4
		C424.6,353.2,426.3,352.8,427.6,353.5z"/>
	<path class="st9" d="M435.6,361.6l-1.9-1.3c-1.3-0.9-3-0.5-3.8,0.7l-6.1,9.2c1.3,2,3.1,3.6,6,4l6.4-8.9
		C437.1,364.1,436.8,362.4,435.6,361.6"/>
	<path class="st10" d="M435.6,361.6l-1.9-1.3c-1.3-0.9-3-0.5-3.8,0.7l-6.1,9.2c1.3,2,3.1,3.6,6,4l6.4-8.9
		C437.1,364.1,436.8,362.4,435.6,361.6z"/>
	<path class="st9" d="M440.2,370.9l-5.3,6.9c-2.3-0.7-3.9-1.9-5.1-3.4l5.3-7.3c0.9-1.3,2.8-1.5,4-0.5l0.7,0.6
		C440.9,368,441.1,369.6,440.2,370.9"/>
	<path class="st10" d="M440.2,370.9l-5.3,6.9c-2.3-0.7-3.9-1.9-5.1-3.4l5.3-7.3c0.9-1.3,2.8-1.5,4-0.5l0.7,0.6
		C440.9,368,441.1,369.6,440.2,370.9z"/>
	<path class="st9" d="M431.1,380.8c0.9-0.6,3.8-3,3.8-3c-2.1-0.4-3.8-1.6-5.1-3.4l-2.8,2.7c-1.1,1-0.9,2.7,0.3,3.5l0.6,0.4
		C428.9,381.5,430.3,381.4,431.1,380.8"/>
	<path class="st11" d="M431.1,380.8c0.9-0.6,3.8-3,3.8-3c-2.1-0.4-3.8-1.6-5.1-3.4l-2.8,2.7c-1.1,1-0.9,2.7,0.3,3.5l0.6,0.4
		C428.9,381.5,430.3,381.4,431.1,380.8z"/>
	<path class="st9" d="M423.3,377.6l-1.2-0.9c-0.8-0.6-1-1.7-0.5-2.6l2.2-3.9c1.4,2.5,3.4,3.8,6,4l-3.4,3.2
		C425.6,378.4,424.3,378.4,423.3,377.6"/>
	<path class="st11" d="M423.3,377.6l-1.2-0.9c-0.8-0.6-1-1.7-0.5-2.6l2.2-3.9c1.4,2.5,3.4,3.8,6,4l-3.4,3.2
		C425.6,378.4,424.3,378.4,423.3,377.6z"/>
	<path class="st9" d="M414.7,371.4l6,4.3l3.1-5.5c-3-0.7-4.5-1.8-6.3-4.3L414.7,371.4z"/>
	<path class="st10" d="M414.7,371.4l6,4.3l3.1-5.5c-3-0.7-4.5-1.8-6.3-4.3L414.7,371.4z"/>
	<path class="st9" d="M383.1,418.1l20.9-33.4l-2.2-19l10.8-10.2c0,0,10.1,5.3,12.8,6.7c-3.4,6.5-10.1,2.3-10.1,2.3s-1.3,2.9-1.9,3.7
		c9,4.7,10.8,9,3.5,16.4"/>
	<path class="st12" d="M383.1,418.1l20.9-33.4l-2.2-19l10.8-10.2c0,0,10.1,5.3,12.8,6.7c-3.4,6.5-10.1,2.3-10.1,2.3
		s-1.3,2.9-1.9,3.7c9,4.7,10.8,9,3.5,16.4"/>
	<path class="st1" d="M399.1,420.4c0.9-8.3,2.8-16.5,5.6-24.6c0.2,1.8,0.4,3.6,0.7,5.3c1.9-5.8,4.4-11.4,7.3-16.9
		c-0.3,2.1-0.4,4.1-0.6,6.1c2.3-3.5,4.7-6.8,7.4-10c1.3-1.6,1.7-1.2,0.6,0.5c-3.8,6.1-6.9,12.5-9.3,19c-0.1-1.8-0.2-3.6-0.2-5.4
		c-2.2,5.2-4,10.5-5.3,15.9c-0.4-1.9-0.8-3.8-1.2-5.8C402,409.6,400.3,414.9,399.1,420.4"/>
</g>
<g id="btn-lightning">
	<path class="st2" d="M666.5,117.5c10.9-4.4,22.3-7.7,34.2-9.6c-2.1,1.4-4.2,2.9-6.2,4.4c8.4-1.5,17.1-2.2,25.8-2.2
		c-2.7,1.1-5.4,2.2-8,3.4c8.7,0.7,17.3,2.1,25.7,4.3c-13-1.5-25.9-1.4-38.4,0.4c2.1-1.3,4.3-2.6,6.5-3.9c-7.9,0.8-15.7,2.1-23.3,4.1
		c2-1.8,4.2-3.6,6.4-5.3C681.6,114,674,115.5,666.5,117.5"/>
</g>
<g id="quiz-header">
	<line class="st13" x1="78.1" y1="208.8" x2="314.6" y2="208.8"/>
	<line class="st13" x1="394.6" y1="208.8" x2="631.2" y2="208.8"/>
	<polygon class="st14" points="368.5,227 356.6,233.1 334.1,221.5 334.1,196.1 341.4,192.3 337.8,188.5 329.1,193 329.1,224.5 
		356.6,238.8 373.3,230.1 	"/>
	<polygon class="st14" points="356.6,178.8 343.9,185.4 348.9,188.4 356.6,184.4 379.1,196.1 379.1,221.5 375.5,223.3 379.3,227 
		384.1,224.5 384.1,193 	"/>
	<polygon class="st5" points="336.6,183.8 362.5,199.8 354.5,199.8 376.1,218.2 366.7,218.3 380.4,231.6 352.9,214.1 363.3,213.9 
		340.3,196.2 348.5,196 	"/>
</g>
<g id="quiz-answer-bg">
	<polygon id="_x3E_bg" class="st15" points="48.3,713 48.3,434.7 146.8,410.4 244.8,434.7 245.3,713 146.8,737.3 	"/>
	<path id="_x3E_outline" class="st16" d="M146.8,411.9l96.6,24l0.4,275.9l-97,24l-97-24V435.9L146.8,411.9 M146.8,408.9l-100,24.7
		v280.6l100,24.7l100-24.7l-0.4-280.6L146.8,408.9L146.8,408.9z"/>
	<path id="_x3E_lightning_1_" class="st16" d="M110.9,689.9c10.8-4.4,22.3-7.7,34.2-9.6c-2.1,1.4-4.2,2.9-6.2,4.4
		c8.4-1.4,17.1-2.2,25.8-2.2c-2.7,1.1-5.4,2.2-8,3.4c8.7,0.7,17.3,2.1,25.7,4.3c-13-1.5-25.9-1.4-38.4,0.4c2.1-1.3,4.3-2.6,6.5-3.9
		c-7.9,0.8-15.7,2.1-23.3,4.1c2.1-1.8,4.2-3.6,6.4-5.3C126.1,686.4,118.4,687.9,110.9,689.9z"/>
	<path id="_x3E_lightning" class="st16" d="M110.9,458.9c10.8-4.4,22.3-7.7,34.2-9.6c-2.1,1.4-4.2,2.9-6.2,4.4
		c8.4-1.5,17.1-2.2,25.8-2.2c-2.7,1.1-5.4,2.2-8,3.4c8.7,0.7,17.3,2.1,25.7,4.3c-13-1.5-25.9-1.4-38.4,0.4c2.1-1.3,4.3-2.6,6.5-3.9
		c-7.9,0.8-15.7,2.1-23.3,4.1c2.1-1.8,4.2-3.6,6.4-5.3C126.1,455.4,118.4,456.9,110.9,458.9z"/>
	<line id="_x3E_line" class="st17" x1="75.3" y1="500.4" x2="218.3" y2="500.4"/>
	<line id="_x3E_line_1_" class="st17" x1="75.3" y1="637.3" x2="218.3" y2="637.3"/>
</g>
<g id="next-question">
	<polygon class="st18" points="446.1,514 301.1,514 301.1,476.6 446.1,476.6 453.1,496.1 	"/>
</g>
<g id="btn-got-it">
	<path class="st5" d="M454.8,111.9c10.9-4.5,22.5-7.8,34.5-9.7c-2.1,1.4-4.2,2.9-6.2,4.5c8.5-1.5,17.2-2.3,26-2.3
		c-2.8,1.1-5.4,2.3-8.1,3.5c8.7,0.7,17.4,2.2,26,4.4c-13.1-1.6-26.1-1.4-38.7,0.4c2.1-1.4,4.4-2.7,6.6-3.9c-8,0.8-15.9,2.2-23.5,4.2
		c2.1-1.8,4.2-3.7,6.4-5.4C470,108.4,462.3,109.9,454.8,111.9z"/>
	<path class="st2" d="M477.5,84.6c-0.3,2.9-0.6,4-1.3,5.2c-1,1.6-2.3,2.4-3.8,2.4c-2.4,0-3.9-2-3.9-5.2c0-2.1,0.5-4.3,1.4-5.8
		c1-1.8,2.5-2.8,4.3-2.8c1.9,0,3.2,1.1,3.5,3.2l-2.7,1c0-0.7-0.1-0.9-0.2-1.2c-0.1-0.4-0.5-0.7-1-0.7c-0.6,0-1.2,0.4-1.6,1.3
		c-0.6,1.3-1,3.2-1,5.1c0,1.8,0.5,2.7,1.5,2.7c1,0,1.6-0.9,1.9-2.9H473l0.3-2.4L477.5,84.6L477.5,84.6z"/>
	<path class="st2" d="M480.4,88.5c0-1.2,0.3-2.5,0.8-3.5c0.7-1.3,1.8-2,3.1-2c1.8,0,2.8,1.2,2.8,3.4c0,3.6-1.6,5.9-4,5.9
		C481.4,92.2,480.4,90.9,480.4,88.5z M484.7,86.5c0-0.9-0.2-1.4-0.6-1.4c-0.7,0-1.2,1.6-1.2,3.4c0,0.9,0.2,1.4,0.6,1.4
		C484.2,90,484.7,88.4,484.7,86.5z"/>
	<path class="st2" d="M491,85.1h-0.8l0.3-2.1h0.9l0.3-2.5h2.5l-0.3,2.5h1l-0.2,2.1h-1l-0.9,6.9h-2.5L491,85.1z"/>
	<path class="st2" d="M503.3,83.1h2.5l-1.1,8.9h-2.5L503.3,83.1z M503.3,80.6c0-1,0.8-1.8,1.8-1.8c0.8,0,1.4,0.6,1.4,1.4
		c0,1-0.8,1.8-1.8,1.8C503.9,82,503.3,81.4,503.3,80.6z"/>
	<path class="st2" d="M509.3,85.1h-0.9l0.3-2.1h0.8l0.3-2.5h2.5l-0.3,2.5h1l-0.2,2.1h-1l-0.9,6.9h-2.5L509.3,85.1z"/>
	<path class="st2" d="M517.2,88.9c0.8,0,1.5,0.6,1.5,1.5c0,1-0.9,1.9-1.9,1.9c-0.8,0-1.5-0.6-1.5-1.5
		C515.3,89.8,516.2,88.9,517.2,88.9z M517.2,78.7h2.6l-1.1,9.3H516L517.2,78.7z"/>
</g>
<g id="btn-continue">
	<path class="st1" d="M142.7,618.2l47.4,10.1v22.4l-47.4,9.3l-46.6-9.3v-23.2L142.7,618.2 M142.7,615.1l-49.6,9.9v28.1l49.6,9.9
		l50.4-9.9v-27.3L142.7,615.1L142.7,615.1z"/>
	<path class="st1" d="M112,638.3c-1.1,0.4-1.5,0.5-2.2,0.5c-1.4,0-2.8-0.6-3.7-1.6c-0.8-0.9-1.2-2-1.2-3.2c0-2.8,2.2-4.9,4.9-4.9
		c0.7,0,1.3,0.1,2.2,0.5v2.9c-0.6-0.7-1.3-1-2.1-1c-1.5,0-2.5,1.1-2.5,2.6c0,0.8,0.3,1.4,0.8,1.9c0.5,0.4,1.1,0.6,1.7,0.6
		c0.8,0,1.5-0.3,2.1-1L112,638.3L112,638.3z"/>
	<path class="st1" d="M116,630c0.9-0.7,2.1-1.2,3.4-1.2c1.6,0,2.8,0.5,3.8,1.6c0.9,0.9,1.3,2.1,1.3,3.4c0,1.5-0.6,2.9-1.8,3.8
		c-0.9,0.8-2.1,1.2-3.5,1.2c-2.9,0-5.1-2.2-5.1-5.1C114.2,632.4,114.9,631,116,630z M119.4,636.5c1.5,0,2.6-1.2,2.6-2.6
		c0-1.4-1.2-2.6-2.6-2.6c-1.4,0-2.6,1.2-2.6,2.6C116.8,635.3,117.9,636.5,119.4,636.5z"/>
	<path class="st1" d="M127.2,629.1h2.4l4.5,5.7v-5.7h2.4v9.4h-2.4l-4.5-5.7v5.7h-2.4V629.1z"/>
	<path class="st1" d="M140.5,631.2h-2v-2.1h6.4v2.1h-2v7.3h-2.4L140.5,631.2L140.5,631.2z"/>
	<path class="st1" d="M147.1,629.1h2.4v9.4h-2.4V629.1z"/>
	<path class="st1" d="M152.6,629.1h2.4l4.5,5.7v-5.7h2.4v9.4h-2.4l-4.5-5.7v5.7h-2.4V629.1z"/>
	<path class="st1" d="M173,634.5c0,1.4-0.2,2.1-0.9,2.9c-0.8,0.9-1.9,1.3-3.2,1.3c-1.4,0-2.7-0.5-3.3-1.4c-0.5-0.7-0.7-1.4-0.7-2.8
		v-5.4h2.4v5.1c0,1.1,0,1.3,0.3,1.7c0.3,0.4,0.8,0.7,1.4,0.7c0.6,0,1.2-0.3,1.4-0.8c0.2-0.4,0.3-0.6,0.3-1.6v-5.1h2.4V634.5
		L173,634.5z"/>
	<path class="st1" d="M175.9,629.1h5.3v2.1h-2.9v1.6h2.7v2.1h-2.7v1.6h2.9v2.1h-5.3V629.1z"/>
	<path class="st1" d="M112.9,650.7c9.1-3.7,18.8-6.4,28.8-8c-1.8,1.2-3.5,2.4-5.2,3.7c7.1-1.2,14.3-1.9,21.7-1.9
		c-2.3,0.9-4.5,1.9-6.7,2.9c7.3,0.6,14.5,1.8,21.6,3.6c-10.9-1.3-21.8-1.1-32.2,0.3c1.8-1.1,3.6-2.2,5.5-3.2
		c-6.7,0.6-13.2,1.8-19.6,3.4c1.7-1.5,3.5-3,5.4-4.5C125.7,647.8,119.2,649,112.9,650.7z"/>
</g>
<g id="perfect-answer">
	<g id="XMLID_2433_">
		<polygon class="st15" points="588.1,117 573.4,109.4 573.4,92.5 588.1,84.9 602.8,92.5 602.8,109.4 		"/>
	</g>
	<polygon class="st1" points="588.1,88.7 591.1,96.7 599.1,97.1 592.9,102.6 594.9,110.7 588.1,106.3 581.3,110.7 583.3,102.6 
		577.1,97.1 585.1,96.7 	"/>
</g>
<g id="quiz-btn">
	<g id="_x3E_bg_1_">
		<polygon class="st15" points="809,122.8 868,134.8 928,122.8 928,89.8 868,76.8 809,88.8 		"/>
	</g>
	<path class="st2" d="M832.5,119.6c10.9-4.4,22.3-7.7,34.2-9.6c-2.1,1.4-4.2,2.9-6.2,4.4c8.4-1.5,17.1-2.2,25.8-2.2
		c-2.7,1.1-5.4,2.2-8,3.4c8.7,0.7,17.3,2.1,25.7,4.3c-13-1.5-25.9-1.4-38.4,0.4c2.1-1.3,4.3-2.6,6.5-3.9c-7.9,0.8-15.7,2.1-23.3,4.1
		c2.1-1.8,4.2-3.6,6.4-5.3C847.7,116.1,840,117.5,832.5,119.6z"/>
</g>
<g id="btn-generic">
	<path class="st2" d="M293,109.4l59,12l60-12v-34l-60-13l0,0l-59,12V109.4z M296,76.9l56-11.4l57,12.4V107l-57,11.4L296,107V76.9z"
		/>
	<path class="st2" d="M321.5,109c9.4-3.8,19.3-6.6,29.5-8.3c-1.8,1.2-3.6,2.5-5.3,3.8c7.3-1.3,14.7-1.9,22.3-1.9
		c-2.4,0.9-4.6,1.9-6.9,2.9c7.5,0.6,14.9,1.9,22.2,3.7c-11.2-1.3-22.3-1.2-33.1,0.3c1.8-1.2,3.7-2.3,5.6-3.3
		c-6.8,0.7-13.6,1.8-20.1,3.5c1.8-1.6,3.6-3.1,5.5-4.6C334.6,106,328,107.3,321.5,109z"/>
</g>
<g id="speaker">
	<path class="st19" d="M211.1,114.8c10.2-2.7,17.7-12,17.7-22.9s-7.5-20.1-17.7-22.9"/>
	<path class="st19" d="M219,123.5c14.2-4.4,24.4-16.9,24.4-31.6S233.2,64.7,219,60.3"/>
	<path class="st19" d="M206.6,104.1c5.1-2.2,8.7-6.8,8.7-12.2c0-5.4-3.5-10-8.7-12.2"/>
	<polygon class="st2" points="191.3,101 191.3,82.9 198.9,78.1 198.9,105.8 	"/>
	<rect x="182.5" y="82.9" class="st2" width="11.3" height="18.1"/>
</g>
<g id="no-phone">
	<path class="st2" d="M102.1,127.7H65.7v-64h36.4V127.7z M102.3,60.7H65.5c-1.5,0-2.8,1.3-2.8,2.8v64.4c0,1.5,1.3,2.8,2.8,2.8h36.8
		c1.6,0,2.8-1.3,2.8-2.8V63.5C105.1,61.9,103.8,60.7,102.3,60.7"/>
	<path class="st2" d="M95.3,113.7H72.5V70.1h22.9L95.3,113.7L95.3,113.7z M97,67.1H70.8c-0.7,0-1.4,0.6-1.4,1.4v46.9
		c0,0.7,0.6,1.4,1.4,1.4H97c0.7,0,1.4-0.6,1.4-1.4V68.5C98.3,67.7,97.7,67.1,97,67.1"/>
	<circle class="st20" cx="83.9" cy="95.7" r="49.5"/>
	<line class="st20" x1="117.9" y1="61.7" x2="49.9" y2="129.7"/>
	<line class="st19" x1="78.9" y1="121.9" x2="88.9" y2="121.9"/>
</g>
<g id="duty">
	<path class="st16" d="M495.2,349.4l16,8.4V376l-16,8.4l-16-8.4v-18.2L495.2,349.4 M495.2,344.9l-20,10.5v23.1l20,10.5l20-10.5
		v-23.1L495.2,344.9L495.2,344.9z"/>
</g>
<g id="duty-active">
	<path class="st5" d="M495.2,294.4l16,8.4V321l-16,8.4l-16-8.4v-18.2L495.2,294.4 M495.2,289.9l-20,10.5v23.1l20,10.5l20-10.5v-23.1
		L495.2,289.9L495.2,289.9z"/>
	<polygon class="st2" points="495.2,326.4 482.4,319.5 482.4,304.3 495.2,297.4 507.9,304.3 507.9,319.5 	"/>
</g>
<g id="duty-complete">
	<polygon class="st6" points="500.4,248.9 505.8,252.2 499.4,252.2 498.6,252.2 507.9,260.2 507.9,249.3 495.2,242.4 492.4,243.9 	
		"/>
	<polygon class="st6" points="491.5,262.3 486.4,259.1 492.4,259 494.8,258.9 482.4,249.5 482.4,264.5 495.2,271.4 500.9,268.3 	"/>
	<polygon class="st7" points="503.8,270.3 495.2,274.8 478.8,266.2 478.8,247.6 484.1,244.8 481.5,242.1 475.2,245.4 475.2,268.5 
		495.2,278.9 507.3,272.6 	"/>
	<polygon class="st7" points="495.2,234.9 485.9,239.8 489.5,242 495.2,239.1 511.5,247.6 511.5,266.2 508.9,267.6 511.6,270.3 
		515.2,268.5 515.2,245.4 	"/>
	<polygon class="st2" points="480.6,238.6 499.4,250.3 493.7,250.3 509.3,263.8 502.5,263.9 512.5,273.7 492.5,260.8 500,260.7 
		483.3,247.7 489.3,247.5 	"/>
</g>
<g id="btn-acknowledge">
	<polygon id="_x3E_bg_2_" class="st16" points="726.4,223.8 726.4,187.7 816.1,174.3 907.4,188.8 907.4,223.8 816.1,237.2 	"/>
	<path id="_x3E_outline_1_" class="st15" d="M816.1,175.8l89.8,14.3v32.4l-89.8,13.2l-88.2-13.2V189L816.1,175.8 M816.1,172.8
		l-91.2,13.7v38.7l91.2,13.7l92.8-13.7v-37.6L816.1,172.8L816.1,172.8z"/>
	<path id="_x3E_lightning_2_" class="st2" d="M781.1,219.5c10.9-4.4,22.3-7.7,34.2-9.6c-2.1,1.4-4.2,2.9-6.2,4.4
		c8.4-1.5,17.1-2.2,25.8-2.2c-2.7,1.1-5.4,2.2-8,3.4c8.7,0.7,17.3,2.1,25.7,4.3c-13-1.5-25.9-1.4-38.4,0.4c2.1-1.3,4.3-2.6,6.5-3.9
		c-7.9,0.8-15.7,2.1-23.3,4.1c2.1-1.8,4.2-3.6,6.4-5.3C796.2,216.1,788.6,217.5,781.1,219.5z"/>
</g>
<g id="chapter-bracket">
	<polyline class="st21" points="630,403.7 653,403.7 653,302.8 630,302.8 	"/>
</g>
<g id="tesselation">
	<rect x="1134.7" y="2.9" class="st3" width="1024" height="768"/>
	<path class="st22" d="M1288.9,147c-23,13.4-45.7,28.4-68.1,45.8c-22.4-34.3-44.6-72.9-66.3-117C1198,104.8,1242.9,128.2,1288.9,147
		z"/>
	<path class="st22" d="M1134.7,62.3c6.6,4.7,13.1,9.2,19.7,13.6c-6.6,4.6-13.2,9.4-19.7,14.6"/>
	<path class="st22" d="M1134.7,247.8c6.5,2,13.1,3.9,19.7,5.8c-6.6,7.1-13.2,14.5-19.7,22.3"/>
	<path class="st22" d="M1154.4,431.3c-6.6,9.6-13.2,19.6-19.7,30.1"/>
	<path class="st22" d="M1134.7,618.7c6.5-3.3,13.1-6.6,19.7-9.7c-6.6,12.1-13.2,24.7-19.7,37.8"/>
	<path class="st22" d="M1429.5,190.7c-23.8,13.4-47.5,27.4-70.9,42.7c-23.4-25.6-46.7-54.1-69.7-86.3
		C1334.9,165.9,1381.9,180.1,1429.5,190.7z"/>
	<path class="st22" d="M1573.9,211.2c-24.2,15-48.4,29.7-72.5,44.7c-24.1-19.9-48-41.4-71.9-65.3
		C1477.2,201.2,1525.4,207.9,1573.9,211.2z"/>
	<path class="st22" d="M1719.5,211.2c-24.2,18.4-48.5,35.5-72.8,52c-24.3-16.5-48.6-33.6-72.8-52
		C1622.4,214.6,1671,214.6,1719.5,211.2z"/>
	<path class="st22" d="M1863.8,190.7c-23.8,23.9-47.8,45.4-71.9,65.3c-24.1-15-48.3-29.7-72.5-44.7
		C1768,207.9,1816.2,201.2,1863.8,190.7z"/>
	<path class="st22" d="M2004.5,147c-23,32.3-46.2,60.7-69.7,86.3c-23.4-15.3-47.1-29.3-70.9-42.7
		C1911.5,180.1,1958.5,165.9,2004.5,147z"/>
	<path class="st22" d="M2139,75.9c-21.8,44.1-43.9,82.7-66.3,117c-22.4-17.4-45.2-32.4-68.2-45.8
		C2050.4,128.2,2095.4,104.8,2139,75.9z"/>
	<path class="st22" d="M2158.7,90.4c-6.5-5.1-13.1-10-19.7-14.6c6.6-4.4,13.2-8.9,19.7-13.6"/>
	<path class="st22" d="M1134.7,155c28.1,14.3,56.9,26.8,86.1,37.8c-22.4,17.4-44.6,37.3-66.3,60.7c-6.6-10.9-13.2-22.2-19.7-34"/>
	<path class="st22" d="M1358.6,233.4c-23.5,15.3-46.7,31.9-69.7,50.7c-23-26.9-45.7-56.9-68.2-91.2
		C1265.6,209.7,1311.7,223,1358.6,233.4z"/>
	<path class="st22" d="M1501.4,256c-24.1,15-48,30.4-71.9,46.8c-23.8-20.9-47.5-43.8-70.9-69.4
		C1405.5,243.7,1453.2,251.1,1501.4,256z"/>
	<path class="st22" d="M1646.7,263.2c-24.3,16.5-48.6,32.4-72.8,48.4c-24.2-17.4-48.4-35.7-72.5-55.6
		C1549.5,260.8,1598.1,263.2,1646.7,263.2z"/>
	<path class="st22" d="M1792,256c-24.1,19.9-48.3,38.2-72.5,55.6c-24.2-16-48.5-31.9-72.8-48.4C1695.3,263.2,1743.8,260.8,1792,256z
		"/>
	<path class="st22" d="M1934.8,233.4c-23.5,25.6-47.1,48.5-70.9,69.4c-23.8-16.4-47.8-31.8-71.9-46.8
		C1840.1,251.1,1887.9,243.7,1934.8,233.4z"/>
	<path class="st22" d="M2072.6,192.8c-22.4,34.3-45.2,64.4-68.2,91.2c-23-18.8-46.2-35.4-69.7-50.7
		C1981.7,223,2027.7,209.7,2072.6,192.8z"/>
	<path class="st22" d="M2158.7,219.6c-6.5,11.8-13.1,23.1-19.7,34c-21.8-23.4-43.9-43.3-66.3-60.7c29.2-11,58-23.5,86.1-37.8"/>
	<path class="st22" d="M1288.9,284.1c-23,18.8-45.7,39.8-68.1,64c-22.4-27.6-44.6-58.7-66.3-94.5C1198,266,1242.9,276,1288.9,284.1z
		"/>
	<path class="st22" d="M1429.5,302.8c-23.8,16.4-47.5,34-70.9,53.4c-23.4-21.5-46.7-45.2-69.7-72.1
		C1334.9,292.1,1381.9,298.3,1429.5,302.8z"/>
	<path class="st22" d="M1573.9,311.6c-24.2,16-48.4,32.1-72.5,49.1c-24.1-17.9-48-37-71.9-57.9
		C1477.2,307.3,1525.4,310.1,1573.9,311.6z"/>
	<path class="st22" d="M1719.5,311.6c-24.2,17.4-48.5,34-72.8,50.5c-24.3-16.5-48.6-33.1-72.8-50.5
		C1622.4,313,1671,313,1719.5,311.6z"/>
	<path class="st22" d="M1863.8,302.8c-23.8,20.9-47.8,40-71.9,57.9c-24.1-17-48.3-33.1-72.5-49.1
		C1768,310.1,1816.2,307.3,1863.8,302.8z"/>
	<path class="st22" d="M2004.5,284.1c-23,26.9-46.2,50.6-69.7,72.1c-23.4-19.4-47.1-36.9-70.9-53.4
		C1911.5,298.3,1958.5,292.1,2004.5,284.1z"/>
	<path class="st22" d="M2139,253.6c-21.8,35.8-43.9,66.9-66.3,94.5c-22.4-24.2-45.2-45.2-68.2-64C2050.4,276,2095.4,266,2139,253.6z
		"/>
	<path class="st22" d="M2158.7,275.9c-6.5-7.8-13.1-15.2-19.7-22.3c6.6-1.9,13.2-3.8,19.7-5.8"/>
	<path class="st22" d="M1134.7,340.5c28.1,2.9,56.8,5.4,86.1,7.6c-22.4,24.2-44.6,51.5-66.4,83.2c-6.6-8.4-13.2-17.1-19.7-26.2"/>
	<path class="st22" d="M1358.6,356.1c-23.5,19.4-46.7,40.8-69.7,65c-23-21.5-45.7-45.5-68.2-73.1
		C1265.6,351.4,1311.7,354.1,1358.6,356.1z"/>
	<path class="st22" d="M1501.4,360.7c-24.1,17-48,34.8-71.9,54.2c-23.8-17.9-47.5-37.2-70.9-58.7
		C1405.5,358.2,1453.2,359.7,1501.4,360.7z"/>
	<path class="st22" d="M1646.7,362.1c-24.3,16.5-48.6,32.8-72.8,49.8c-24.2-16.5-48.4-33.3-72.5-51.3
		C1549.5,361.6,1598.1,362.1,1646.7,362.1z"/>
	<path class="st22" d="M1792,360.7c-24.1,17.9-48.3,34.8-72.5,51.3c-24.2-17-48.5-33.3-72.8-49.8
		C1695.3,362.1,1743.8,361.6,1792,360.7z"/>
	<path class="st22" d="M1934.8,356.1c-23.5,21.5-47.1,40.8-70.9,58.7c-23.8-19.4-47.8-37.2-71.9-54.2
		C1840.1,359.7,1887.9,358.2,1934.8,356.1z"/>
	<path class="st22" d="M2072.6,348c-22.4,27.6-45.2,51.6-68.2,73.1c-23-24.2-46.2-45.5-69.7-65
		C1981.7,354.1,2027.7,351.4,2072.6,348z"/>
	<path class="st22" d="M2158.7,405.1c-6.5,9.1-13.1,17.9-19.7,26.2c-21.8-31.7-43.9-59.1-66.3-83.2c29.2-2.2,58-4.7,86.1-7.6"/>
	<path class="st22" d="M1288.9,421.1c-23,24.2-45.7,51.2-68.1,82.1c-22.4-20.8-44.6-44.4-66.3-72
		C1198,427.1,1242.9,423.8,1288.9,421.1z"/>
	<path class="st22" d="M1429.5,414.9c-23.8,19.4-47.5,40.5-70.9,64.1c-23.4-17.4-46.7-36.3-69.7-57.8
		C1334.9,418.4,1381.9,416.4,1429.5,414.9z"/>
	<path class="st22" d="M1573.9,411.9c-24.2,17-48.4,34.5-72.5,53.4c-24.1-16-48-32.6-71.9-50.5
		C1477.2,413.4,1525.4,412.4,1573.9,411.9z"/>
	<path class="st22" d="M1719.5,411.9c-24.2,16.5-48.5,32.6-72.8,49.1c-24.3-16.5-48.6-32.6-72.8-49.1
		C1622.4,411.4,1671,411.4,1719.5,411.9z"/>
	<path class="st22" d="M1863.8,414.9c-23.8,17.9-47.8,34.5-71.9,50.5c-24.1-18.9-48.3-36.5-72.5-53.4
		C1768,412.4,1816.2,413.4,1863.8,414.9z"/>
	<path class="st22" d="M2004.5,421.1c-23,21.5-46.2,40.5-69.7,57.8c-23.4-23.6-47.1-44.6-70.9-64.1
		C1911.5,416.4,1958.5,418.4,2004.5,421.1z"/>
	<path class="st22" d="M2139,431.3c-21.8,27.5-43.9,51.2-66.3,72c-22.4-30.9-45.2-58-68.2-82.1
		C2050.4,423.8,2095.4,427.1,2139,431.3z"/>
	<path class="st22" d="M2158.7,461.4c-6.5-10.5-13.1-20.5-19.7-30.1c6.6,0.6,13.2,1.3,19.7,1.9"/>
	<path class="st22" d="M1134.7,526c28.1-8.6,56.8-16.1,86.1-22.7c-22.4,30.9-44.6,65.8-66.3,105.7c-6.6-5.9-13.2-12-19.7-18.5"/>
	<path class="st22" d="M1358.6,478.9c-23.5,23.6-46.7,49.6-69.7,79.2c-23-16.1-45.7-34.1-68.2-54.9
		C1265.6,493.1,1311.7,485.1,1358.6,478.9z"/>
	<path class="st22" d="M1501.4,465.4c-24.1,18.9-48,39.2-71.9,61.6c-23.8-14.9-47.5-30.7-70.9-48
		C1405.5,472.7,1453.2,468.3,1501.4,465.4z"/>
	<path class="st22" d="M1646.7,461c-24.3,16.5-48.6,33.3-72.8,51.2c-24.2-15.5-48.4-30.9-72.5-46.9
		C1549.5,462.4,1598.1,461,1646.7,461z"/>
	<path class="st22" d="M1792,465.4c-24.1,16-48.3,31.4-72.5,46.9c-24.2-17.9-48.5-34.8-72.8-51.2
		C1695.3,461,1743.8,462.4,1792,465.4z"/>
	<path class="st22" d="M1934.8,478.9c-23.5,17.4-47.1,33.1-70.9,48c-23.8-22.4-47.8-42.7-71.9-61.6
		C1840.1,468.3,1887.9,472.7,1934.8,478.9z"/>
	<path class="st22" d="M2072.6,503.3c-22.4,20.8-45.2,38.8-68.2,54.9c-23-29.6-46.2-55.6-69.7-79.2
		C1981.7,485.1,2027.7,493.1,2072.6,503.3z"/>
	<path class="st22" d="M2158.7,590.5c-6.5,6.5-13.1,12.6-19.7,18.5c-21.8-40-43.9-74.8-66.3-105.7c29.2,6.6,58,14.1,86.1,22.7"/>
	<path class="st22" d="M1288.9,558.1c-23,29.6-45.7,62.6-68.1,100.3c-22.4-14-44.6-30.2-66.3-49.5
		C1198,588.3,1242.9,571.6,1288.9,558.1z"/>
	<path class="st22" d="M1134.7,711.3c76.6-54.5,157.9-90.7,241.6-114.8c100.1-28.5,203.7-39.6,306.9-36.1
		c103.1,3.8,205.8,22,304,59.5c59,22.6,116.5,52.2,171.5,91.3"/>
	<path class="st22" d="M1429.5,527c-23.8,22.4-47.5,47-70.9,74.8c-23.4-13.2-46.7-27.5-69.7-43.6
		C1334.9,544.7,1381.9,534.5,1429.5,527z"/>
	<path class="st22" d="M1573.9,512.3c-24.2,17.9-48.4,36.9-72.5,57.8c-24.1-14-48-28.1-71.9-43.1
		C1477.2,519.5,1525.4,514.7,1573.9,512.3z"/>
	<path class="st22" d="M1719.5,512.3c-24.2,15.5-48.5,31.2-72.8,47.7c-24.3-16.5-48.6-32.1-72.8-47.7
		C1622.4,509.9,1671,509.9,1719.5,512.3z"/>
	<path class="st22" d="M1863.8,527c-23.8,14.9-47.8,29-71.9,43.1c-24.1-20.9-48.3-39.9-72.5-57.8
		C1768,514.7,1816.2,519.5,1863.8,527z"/>
	<path class="st22" d="M2004.5,558.1c-23,16.1-46.2,30.4-69.7,43.6c-23.4-27.7-47.1-52.3-70.9-74.8
		C1911.5,534.5,1958.5,544.7,2004.5,558.1z"/>
	<path class="st22" d="M2139,609c-21.8,19.3-43.9,35.4-66.3,49.5c-22.4-37.7-45.2-70.8-68.2-100.3
		C2050.4,571.6,2095.4,588.3,2139,609z"/>
	<path class="st22" d="M2158.7,646.8c-6.6-13.1-13.1-25.7-19.7-37.8c6.6,3.1,13.2,6.4,19.7,9.7"/>
</g>
<g id="lightning-fist">
	<line class="st23" x1="1609.4" y1="686.8" x2="1374.1" y2="686.8"/>
	<line class="st24" x1="1609.4" y1="710.2" x2="1485.1" y2="710.2"/>
	<line class="st23" x1="1705.1" y1="686.8" x2="1940.4" y2="686.8"/>
	<line class="st24" x1="1705.1" y1="710.2" x2="1829.4" y2="710.2"/>
	<polygon class="st2" points="1691.2,671.2 1693.4,670.3 1683.3,665.1 1682.4,666.6 	"/>
	<polygon class="st2" points="1696.7,691.4 1698.5,691.6 1698.5,681.1 1696.7,682 	"/>
	<polygon class="st2" points="1698.5,703.8 1696.7,703.8 1696.7,713.8 1698.5,715.2 	"/>
	<polygon class="st2" points="1671.3,660.8 1672.4,659.4 1663.7,654.8 1663.6,656.8 	"/>
	<polygon class="st2" points="1617.7,703.4 1615.9,703.2 1615.9,714.3 1617.7,713.3 	"/>
	<polygon class="st2" points="1624,670.8 1632.4,666.4 1631.7,664.8 1622.2,669.7 	"/>
	<polygon class="st2" points="1643.4,660.7 1651.4,656.5 1651.7,654.3 1642.5,659.1 	"/>
	<polygon class="st2" points="1615.9,679.8 1615.9,691 1617.7,691.1 1617.7,681.1 	"/>
	<path class="st1" d="M1652.8,660l6.1-4.3l-2,16.1l2.2,0.2c0.8,0.1,1.6,0.4,2.2,0.8l0.6-24.8l-4.6,3.8l1.8-26.3l-4.6,3.8l1.6-24.6
		l-6.1,32.8l5.8-4.9L1652.8,660z"/>
	<path class="st1" d="M1679.6,662.1l-10.4,13.9c1.1,0.2,2,0.8,2.7,1.6c0.4,0.5,0.6,1,0.8,1.6l13.5-22.1l-5.8,1l14.7-21.9l-5.9,1
		l13.7-20.5l-21.7,25.4l7.5-1.3l-16.5,22.1L1679.6,662.1z"/>
	<path class="st1" d="M1687.5,674.8l6.8,3.1l-13.8,5.9c0,0.2,0,0.5-0.1,0.7l-0.8,4.7l22.9-12.5l-5.6-2.1l23.7-11.6l-5.6-2.1
		l22.1-10.9l-31.4,11.1l7.1,2.6L1687.5,674.8z"/>
	<path class="st1" d="M1623.8,641.9l10.9,25.4l3.1-6.8l5.7,13.3c0.1,0,0.2,0,0.4,0h3c0.6,0,1.1,0.1,1.7,0.3l-11.9-21.8l-2.1,5.6
		l-11.6-23.7l-2.1,5.6l-10.9-22.1l11.1,31.4L1623.8,641.9z"/>
	<polygon class="st1" points="1717.3,690.4 1722.1,696.2 1694.7,692.9 1699,699.1 1679.1,696.6 1679.6,701.5 1706.7,702.2 
		1702.9,697.6 1729.2,699.4 1725.4,694.9 1750.1,696.5 	"/>
	<polygon class="st1" points="1601.8,673.5 1600.5,666 1622.6,682.6 1621.9,675.1 1637.3,686.7 1638.4,683.5 1638.4,681.7 
		1616.9,668.6 1617.9,674.4 1596,659.7 1597,665.6 1576.4,651.8 	"/>
	<polygon class="st1" points="1713.6,722.2 1714.9,729.7 1692.8,713.1 1693.5,720.6 1680.3,710.7 1677.7,714.4 1698.5,727.1 
		1697.6,721.3 1719.5,736 1718.5,730.1 1739,743.9 	"/>
	<polygon class="st1" points="1619.4,717.7 1637.8,709.9 1635,705.9 1611.2,718.9 1616.8,720.9 1593.1,732.5 1598.7,734.6 
		1576.5,745.5 1608,734.4 1600.8,731.8 1626.2,720.9 	"/>
	<polygon class="st1" points="1592.4,698.6 1619.8,701.9 1615.5,695.8 1633.4,697.9 1635,693.3 1607.9,692.6 1611.6,697.2 
		1585.3,695.4 1589.1,700 1564.5,698.4 1597.3,704.5 	"/>
	<path class="st2" d="M1689.2,723.6l-16.3,8.5l-0.1-9.3l8.2-11.7l-1.6-17.4l1.6-9.1c0.4-2.3-1.1-4.6-3.4-5.1l-1.2-0.3
		c-1.1-0.3-2.3-0.1-3.3,0.5c-0.1-0.8-0.4-1.6-0.9-2.3c-0.7-1-1.8-1.6-3-1.7l-2.9-0.4c-1-0.1-2.1,0.1-2.9,0.7c0-1-0.4-2-1-2.8
		c-0.8-0.9-1.9-1.5-3.1-1.6l-4.1-0.4c-1.2-0.1-2.4,0.3-3.3,1.1c-0.7,0.7-1.2,1.6-1.4,2.5c-1-0.9-2.3-1.5-3.7-1.5h-3.1
		c-3.1,0-5.6,2.5-5.6,5.6v4.4l-6.4,18.5l14.1,20.7l-1.9,10.7l-19.1-10l-2.1,0.9l34.4,18l33.8-17.7L1689.2,723.6z M1672.9,683.2
		c0.1-0.7,0.5-1.4,1.1-1.8c0.6-0.4,1.3-0.6,2.1-0.4l1.2,0.3c1.4,0.3,2.2,1.6,2,3l-1.8,10.5c-2.1,0.3-4.1,0.1-6.1-0.6L1672.9,683.2z
		 M1676.7,696.9c-0.6,1.4-1.4,3.4-1.8,4.1c-0.4,0.9-1.5,1.7-2.7,1.6l-0.9-0.1c-0.6-0.1-1.2-0.4-1.5-0.9c-0.3-0.5-0.4-1.2-0.2-1.7
		l1.3-3.8C1672.9,696.9,1674.8,697.1,1676.7,696.9z M1663.3,679.6c0.1-0.7,0.4-1.3,1-1.8c0.6-0.4,1.3-0.6,2-0.6l2.9,0.4
		c0.7,0.1,1.3,0.4,1.7,1c0.4,0.6,0.6,1.3,0.5,2l-1.9,13.5c-2.6,0.8-5,0.5-7.6-0.8L1663.3,679.6z M1661.8,695.4
		c2.3,1.1,4.7,1.4,7,0.9l-1,3c0,0,0,0,0,0l-0.3,1c-0.4,1-1.4,1.7-2.5,1.5l-1.9-0.3c-0.8-0.1-1.4-0.9-1.4-1.7L1661.8,695.4z
		 M1652.3,675.7c0-0.7,0.3-1.4,0.9-1.9c0.5-0.5,1.2-0.7,1.9-0.7l4.1,0.4c0.7,0.1,1.3,0.4,1.8,0.9c0.5,0.5,0.7,1.2,0.6,1.9l-1.6,16.6
		c-2.7,0.5-4.6,0.2-6.9-0.6c1-0.4,2-1,2.9-1.8c1.8-1.7,2.7-4,2.7-7v-0.9h-6.4v-3.6c0-0.4-0.1-0.8-0.1-1.2L1652.3,675.7z M1660,700.8
		c-1.8-1.7-4.3-3-8-3.6l-0.1-3.1l0-0.1c1.9,0.7,3.7,1.1,5.6,1.1c0.8,0,1.6-0.1,2.4-0.2l-0.1,4.8C1659.9,700,1659.9,700.4,1660,700.8
		z M1640,679.1c0-2.1,1.7-3.7,3.7-3.7h3.1c1.7,0,3.2,1.2,3.6,2.8l-0.1,4.6H1640V679.1z M1645.7,734.3l2.1-12l-14-20.5l5.9-17.2h17.2
		c-0.2,2-0.9,3.5-2.1,4.7c-2.7,2.5-7.1,2.2-7.1,2.2l-1.1-0.1l0.1,1.1c0.1,1.5,0.2,4.3,0,5.1l-0.3,1.1h1.2c11.6,0,14.2,5.5,14.6,13.7
		c0,0.5,0.4,0.9,0.9,0.9c0,0,0,0,0,0c0.5,0,0.9-0.4,0.9-1c-0.1-3.4-0.6-6.8-2.4-9.5c0.4,0.2,0.7,0.4,1.2,0.4l1.9,0.3
		c0.2,0,0.5,0.1,0.7,0.1c1.1,0,2-0.4,2.8-1.1c0,0,0,0.1,0.1,0.1c0.6,1,1.7,1.6,2.9,1.8l0.9,0.1c0.1,0,0.3,0,0.4,0
		c1.9,0,3.5-1.3,4.1-2.7c0.3-0.7,1-2.2,1.6-3.6l1.1,12.4l-8.1,11.7l0.1,10.8l-7.1,3.7v-8.2c0-0.5-0.4-0.9-0.9-0.9
		c-0.5,0-0.9,0.4-0.9,0.9v9.2l-5,2.6L1645.7,734.3z M1648.6,693.4c0.5,0,1.1-0.1,1.8-0.2l0,3.8c-0.6,0-1.1-0.1-1.7-0.1
		C1648.7,695.8,1648.6,694.3,1648.6,693.4z"/>
</g>
<g id="chapter-progress-chapter">
	<path id="_x3E_teal_4_" class="st16" d="M219.8,357.4l5,2.7v5.8l-5,2.7l-5-2.7v-5.8L219.8,357.4 M219.8,354l-8,4.3v9.4l8,4.3l8-4.3
		v-9.4L219.8,354L219.8,354z"/>
</g>
<g id="chapter-progress-slide">
	<rect x="232.3" y="358.5" class="st16" width="9" height="9"/>
</g>
<g id="chapter-progress-quiz">
	<polygon id="_x3E_teal_2_" class="st16" points="276.3,372.1 270.4,375.2 259.1,369.3 259.1,356.6 262.8,354.7 260.9,352.9 
		256.6,355.1 256.6,370.8 270.4,378 278.7,373.6 	"/>
	<polygon id="_x3E_teal_1_" class="st16" points="270.4,348 264,351.3 266.5,352.8 270.4,350.8 281.6,356.6 281.6,369.3 
		279.8,370.3 281.7,372.1 284.1,370.8 284.1,355.1 	"/>
	<g>
		<polygon class="st5" points="260.4,350.5 273.3,358.5 269.3,358.5 280.1,367.7 275.4,367.8 282.3,374.4 268.5,365.7 273.7,365.6 
			262.2,356.7 266.3,356.6 		"/>
	</g>
</g>
<g id="chapter-progress-duties">
	<circle id="_x3E_teal" class="st16" cx="248.8" cy="363" r="4.5"/>
</g>
<g id="closed-caption-btn">
	<path class="st25" d="M971.3,67.4c1.7,0,3.1,1.4,3.1,3.1v7.9c0,1.7-1.4,3.1-3.1,3.1h-13.1c-1.7,0-3.1-1.4-3.1-3.1v-7.9
		c0-1.7,1.4-3.1,3.1-3.1H971.3 M971.3,64.4h-13.1c-3.4,0-6.1,2.7-6.1,6.1v7.9c0,3.4,2.7,6.1,6.1,6.1h13.1c3.4,0,6.1-2.7,6.1-6.1
		v-7.9C977.4,67.2,974.7,64.4,971.3,64.4L971.3,64.4z"/>
	<path class="st25" d="M963.3,78.3c-0.6,0.2-0.9,0.3-1.4,0.3c-1.1,0-2-0.5-2.7-1.3c-0.6-0.8-0.9-1.8-0.9-3.1c0-1.5,0.4-2.5,1.1-3.4
		c0.7-0.8,1.6-1.1,2.7-1.1c0.5,0,0.7,0.1,1.2,0.2v2.5c-0.4-0.4-0.7-0.5-1.1-0.5c-0.9,0-1.5,0.9-1.5,2.3c0,1.4,0.5,2.2,1.5,2.2
		c0.4,0,0.8-0.1,1.2-0.6L963.3,78.3z"/>
	<path class="st25" d="M970.3,78.3c-0.6,0.2-0.9,0.3-1.4,0.3c-1.1,0-2-0.5-2.7-1.3c-0.6-0.8-0.9-1.8-0.9-3.1c0-1.5,0.4-2.5,1.1-3.4
		c0.7-0.8,1.6-1.1,2.7-1.1c0.5,0,0.7,0.1,1.2,0.2v2.5c-0.4-0.4-0.7-0.5-1.1-0.5c-0.9,0-1.5,0.9-1.5,2.3c0,1.4,0.5,2.2,1.5,2.2
		c0.4,0,0.8-0.1,1.2-0.6L970.3,78.3z"/>
</g>
<g id="playhead">
	<path class="st2" d="M304.6,354.9l-8,4.3v9.4l8,4.3l8-4.3v-9.4L304.6,354.9L304.6,354.9z"/>
	<polygon class="st16" points="299.6,366.8 299.6,360.9 304.6,358.3 309.5,360.9 309.5,366.8 304.6,369.4 	"/>
</g>
<g id="pause-btn">
	<g>
		<path class="st16" d="M334.3,351.8l11,5.6v12.1l-11,5.6l-11-5.6v-12.1L334.3,351.8 M334.3,348.4l-14,7.1v15.7l14,7.1l14-7.1v-15.7
			L334.3,348.4L334.3,348.4z"/>
	</g>
	<g id="_x3E_pause">
		<g>
			<rect x="329.8" y="357.4" class="st2" width="3" height="12"/>
		</g>
		<g>
			<rect x="335.8" y="357.4" class="st2" width="3" height="12"/>
		</g>
	</g>
	<g id="_x3E_play">
		<polygon class="st2" points="330.9,369.4 330.9,357.2 339.2,363.3 		"/>
	</g>
	<g id="_x3E_replay">
		<path class="st26" d="M334.1,357.5c3.2,0,5.8,2.6,5.8,5.8s-2.6,5.8-5.8,5.8c-3.2,0-5.8-2.6-5.8-5.8"/>
		<polygon class="st2" points="335.6,361.3 330.8,357.4 335.6,354.2 		"/>
	</g>
</g>
<g id="finished-exploring">
	<rect x="687.4" y="287" class="st27" width="276.1" height="20.9"/>
	<path class="st1" d="M696.4,292.8h1.8l-1.1,9.3h-1.8L696.4,292.8z"/>
	<path class="st1" d="M701.6,292.2h1.8l-2.3,3.8H700L701.6,292.2z"/>
	<path class="st1" d="M704.9,295.9h1.7l-0.1,1c0.5-0.8,1-1.1,1.7-1.1c0.6,0,0.9,0.4,1,1.1c0.4-0.7,1-1.1,1.6-1.1c0.6,0,1,0.4,1,1.2
		c0,0.1,0,0.5-0.1,0.7l-0.6,4.5h-1.7l0.4-3.5c0-0.3,0.1-0.5,0.1-0.7c0-0.3-0.1-0.4-0.3-0.4c-0.2,0-0.3,0.1-0.4,0.3
		c-0.1,0.1-0.1,0.2-0.2,0.8l-0.4,3.5h-1.7l0.4-3.7c0-0.2,0-0.4,0-0.5c0-0.3-0.1-0.4-0.3-0.4c-0.2,0-0.4,0.1-0.5,0.4
		c0,0.1-0.1,0.3-0.1,0.6l-0.5,3.7h-1.7L704.9,295.9z"/>
	<path class="st1" d="M718,292.8h3.7l-0.2,1.7h-1.8l-0.3,2h1.7l-0.2,1.8h-1.7l-0.5,3.9h-1.8L718,292.8z"/>
	<path class="st1" d="M723.2,295.9h1.7l-0.8,6.3h-1.7L723.2,295.9z M723.3,294.2c0-0.7,0.6-1.2,1.2-1.2c0.5,0,1,0.4,1,1
		c0,0.7-0.6,1.3-1.2,1.3C723.7,295.2,723.3,294.7,723.3,294.2z"/>
	<path class="st1" d="M727,295.9h1.7l-0.1,1c0.5-0.8,1-1.1,1.6-1.1c0.6,0,1,0.4,1,1.2c0,0.2,0,0.5-0.1,1l-0.5,4.2h-1.7l0.4-3.6
		c0-0.3,0.1-0.5,0.1-0.6c0-0.3-0.1-0.4-0.3-0.4c-0.2,0-0.3,0.1-0.4,0.3c-0.1,0.1-0.1,0.2-0.1,0.7l-0.4,3.6h-1.7L727,295.9z"/>
	<path class="st1" d="M733.5,295.9h1.7l-0.8,6.3h-1.7L733.5,295.9z M733.5,294.2c0-0.7,0.6-1.2,1.2-1.2c0.5,0,1,0.4,1,1
		c0,0.7-0.6,1.3-1.2,1.3C733.9,295.2,733.5,294.7,733.5,294.2z"/>
	<path class="st1" d="M737.2,300.3c0.3,0.3,0.5,0.4,0.8,0.4c0.3,0,0.6-0.3,0.6-0.6c0-0.2-0.1-0.3-0.5-0.5c-1-0.5-1.2-0.9-1.2-1.7
		c0-1.2,1-2.1,2.3-2.1c0.6,0,1.1,0.2,1.6,0.5l-0.9,1.3c-0.3-0.3-0.5-0.4-0.8-0.4c-0.3,0-0.5,0.2-0.5,0.5c0,0.2,0.1,0.3,0.6,0.6
		c0.8,0.4,1.1,0.9,1.1,1.5c0,1.4-1,2.5-2.3,2.5c-0.6,0-1.2-0.2-1.8-0.7L737.2,300.3z"/>
	<path class="st1" d="M743.1,292.2h1.7l-0.6,4.7c0.5-0.8,1-1.1,1.6-1.1c0.6,0,1,0.4,1,1.2c0,0.2,0,0.5-0.1,1l-0.5,4.2h-1.7l0.4-3.6
		c0-0.3,0.1-0.5,0.1-0.6c0-0.3-0.1-0.4-0.3-0.4c-0.2,0-0.3,0.1-0.4,0.3c-0.1,0.1-0.1,0.2-0.1,0.7l-0.4,3.6h-1.7L743.1,292.2z"/>
	<path class="st1" d="M752.6,300.2c-0.2,0.6-0.3,0.8-0.5,1.1c-0.4,0.6-1,1-1.8,1c-1.2,0-2-0.9-2-2.4c0-2.4,1.2-4.1,2.8-4.1
		c1.1,0,1.8,0.8,1.8,2.2c0,0.5,0,0.9-0.2,1.5H750c0,0.3,0,0.5,0,0.7c0,0.6,0.2,0.8,0.5,0.8c0.3,0,0.5-0.2,0.6-0.8L752.6,300.2
		L752.6,300.2z M751.4,298.4c0-0.2,0-0.3,0-0.5c0-0.5-0.2-0.8-0.5-0.8c-0.4,0-0.7,0.5-0.8,1.3L751.4,298.4L751.4,298.4z"/>
	<path class="st1" d="M757.1,301.5c-0.4,0.6-0.8,0.8-1.2,0.8c-0.9,0-1.3-0.8-1.3-2.3c0-1.1,0.3-2.4,0.7-3.1c0.4-0.7,0.9-1.1,1.5-1.1
		c0.5,0,0.8,0.3,1,0.9l0.5-4.5h1.7l-1.2,10H757L757.1,301.5z M757.5,298.3c0-0.6-0.1-1-0.4-1c-0.5,0-0.9,1.1-0.9,2.4
		c0,0.6,0.2,1,0.4,1C757.2,300.7,757.5,299.6,757.5,298.3z"/>
	<path class="st1" d="M765.7,292.8h1.8l-1.1,9.3h-1.8L765.7,292.8z"/>
	<path class="st1" d="M769.4,295.9h1.7l-0.1,1c0.5-0.8,1-1.1,1.6-1.1c0.6,0,1,0.4,1,1.2c0,0.2,0,0.5-0.1,1l-0.5,4.2h-1.7l0.4-3.6
		c0-0.3,0.1-0.5,0.1-0.6c0-0.3-0.1-0.4-0.3-0.4c-0.2,0-0.4,0.1-0.4,0.3c-0.1,0.1-0.1,0.2-0.1,0.7l-0.4,3.6h-1.7L769.4,295.9z"/>
	<path class="st1" d="M775.7,300.3c0.3,0.3,0.5,0.4,0.8,0.4c0.3,0,0.6-0.3,0.6-0.6c0-0.2-0.1-0.3-0.5-0.5c-1-0.5-1.2-0.9-1.2-1.7
		c0-1.2,1-2.1,2.3-2.1c0.6,0,1.1,0.2,1.6,0.5l-0.9,1.3c-0.3-0.3-0.5-0.4-0.8-0.4c-0.3,0-0.5,0.2-0.5,0.5c0,0.2,0.1,0.3,0.6,0.6
		c0.8,0.4,1.1,0.9,1.1,1.5c0,1.4-1,2.5-2.3,2.5c-0.6,0-1.2-0.2-1.8-0.7L775.7,300.3z"/>
	<path class="st1" d="M781.7,305.3H780l1.1-9.3h1.7l-0.1,0.8c0.4-0.6,0.8-0.9,1.3-0.9c0.9,0,1.3,0.8,1.3,2.2c0,2.4-0.9,4.3-2.1,4.3
		c-0.5,0-0.8-0.3-1-0.8L781.7,305.3z M783.6,298.3c0-0.6-0.2-1-0.4-1c-0.4,0-0.8,1.1-0.8,2.4c0,0.6,0.1,1,0.4,1
		C783.2,300.7,783.6,299.6,783.6,298.3z"/>
	<path class="st1" d="M791.2,300.2c-0.2,0.6-0.3,0.8-0.5,1.1c-0.4,0.6-1,1-1.8,1c-1.2,0-2-0.9-2-2.4c0-2.4,1.2-4.1,2.8-4.1
		c1.1,0,1.8,0.8,1.8,2.2c0,0.5,0,0.9-0.2,1.5h-2.7c0,0.3,0,0.5,0,0.7c0,0.6,0.2,0.8,0.5,0.8c0.3,0,0.5-0.2,0.6-0.8L791.2,300.2
		L791.2,300.2z M790,298.4c0-0.2,0-0.3,0-0.5c0-0.5-0.2-0.8-0.5-0.8c-0.4,0-0.7,0.5-0.8,1.3L790,298.4L790,298.4z"/>
	<path class="st1" d="M796,302.1c-0.4,0.2-0.7,0.2-1,0.2c-1.2,0-1.9-1-1.9-2.5c0-1,0.3-2,0.7-2.7c0.5-0.9,1.2-1.3,2.1-1.3
		c0.3,0,0.5,0,0.9,0.2l-0.2,1.5c-0.2-0.2-0.3-0.2-0.5-0.2c-0.7,0-1.2,0.9-1.2,2.1c0,0.8,0.3,1.2,0.8,1.2c0.2,0,0.3,0,0.5-0.2
		L796,302.1z"/>
	<path class="st1" d="M798.7,297.4h-0.6l0.2-1.4h0.6l0.2-1.7h1.7l-0.2,1.7h0.7l-0.2,1.4h-0.7l-0.6,4.8h-1.7L798.7,297.4z"/>
	<path class="st1" d="M802.8,295.9h1.7l-0.8,6.3h-1.7L802.8,295.9z M802.9,294.2c0-0.7,0.6-1.2,1.2-1.2c0.5,0,1,0.4,1,1
		c0,0.7-0.6,1.3-1.2,1.3C803.3,295.2,802.9,294.7,802.9,294.2z"/>
	<path class="st1" d="M806.7,295.9h1.7l-0.1,1c0.5-0.8,1-1.1,1.6-1.1c0.6,0,1,0.4,1,1.2c0,0.2,0,0.5-0.1,1l-0.5,4.2h-1.7l0.4-3.6
		c0-0.3,0.1-0.5,0.1-0.6c0-0.3-0.1-0.4-0.3-0.4c-0.2,0-0.3,0.1-0.4,0.3c-0.1,0.1-0.1,0.2-0.1,0.7l-0.4,3.6h-1.7L806.7,295.9z"/>
	<path class="st1" d="M813.6,303v0.2c0,0.5,0.2,0.7,0.5,0.7c0.5,0,0.7-0.4,0.9-1.5l0.1-1c-0.5,0.7-0.8,0.9-1.3,0.9
		c-0.9,0-1.4-0.9-1.4-2.3c0-1,0.3-2.3,0.7-3.1c0.4-0.7,0.9-1.1,1.4-1.1c0.5,0,0.8,0.3,1.1,0.9l0.1-0.8h1.7l-0.8,6.8
		c-0.1,0.9-0.2,1.2-0.6,1.7c-0.5,0.6-1.2,0.9-2.1,0.9c-1.2,0-1.9-0.7-1.9-1.9c0-0.1,0-0.2,0-0.4L813.6,303L813.6,303z M815.5,298.3
		c0-0.7-0.1-1-0.4-1c-0.5,0-0.9,1.1-0.9,2.4c0,0.6,0.2,1,0.4,1C815.1,300.7,815.5,299.6,815.5,298.3z"/>
	<path class="st1" d="M825.1,301.5c-0.4,0.6-0.8,0.8-1.2,0.8c-0.9,0-1.3-0.8-1.3-2.3c0-1.1,0.3-2.4,0.7-3.1c0.4-0.7,0.9-1.1,1.5-1.1
		c0.5,0,0.8,0.3,1,0.9l0.1-0.8h1.7l-0.8,6.3H825L825.1,301.5z M825.6,298.3c0-0.6-0.1-1-0.4-1c-0.5,0-0.9,1.1-0.9,2.4
		c0,0.6,0.2,1,0.4,1C825.2,300.7,825.6,299.6,825.6,298.3z"/>
	<path class="st1" d="M829.6,295.9h1.7l-0.1,1c0.5-0.8,1-1.1,1.6-1.1c0.6,0,1,0.4,1,1.2c0,0.2,0,0.5-0.1,1l-0.5,4.2h-1.7l0.4-3.6
		c0-0.3,0.1-0.5,0.1-0.6c0-0.3-0.1-0.4-0.3-0.4c-0.2,0-0.3,0.1-0.4,0.3c-0.1,0.1-0.1,0.2-0.1,0.7l-0.4,3.6h-1.7L829.6,295.9z"/>
	<path class="st1" d="M838,301.5c-0.4,0.6-0.8,0.8-1.2,0.8c-0.9,0-1.3-0.8-1.3-2.3c0-1.1,0.3-2.4,0.7-3.1c0.4-0.7,0.9-1.1,1.5-1.1
		c0.5,0,0.8,0.3,1,0.9l0.5-4.5h1.7l-1.2,10H838L838,301.5z M838.5,298.3c0-0.6-0.1-1-0.4-1c-0.5,0-0.9,1.1-0.9,2.4
		c0,0.6,0.2,1,0.4,1C838.1,300.7,838.5,299.6,838.5,298.3z"/>
	<path class="st1" d="M846.7,292.8h2c0.9,0,1.5,0.1,1.9,0.4c0.5,0.4,0.8,1.1,0.8,1.9c0,1.2-0.5,2.1-1.6,2.8l1.1,4.3h-1.9l-1.1-4.3
		l-0.5,4.3h-1.8L846.7,292.8z M848.3,296.9c0.8,0,1.4-0.6,1.4-1.6c0-0.5-0.1-0.8-0.4-0.9c-0.2-0.1-0.3-0.1-0.9-0.1l-0.3,2.5
		C848.1,296.8,848.2,296.9,848.3,296.9z"/>
	<path class="st1" d="M857,300.2c-0.2,0.6-0.3,0.8-0.5,1.1c-0.4,0.6-1,1-1.8,1c-1.2,0-2-0.9-2-2.4c0-2.4,1.2-4.1,2.8-4.1
		c1.1,0,1.8,0.8,1.8,2.2c0,0.5,0,0.9-0.2,1.5h-2.7c0,0.3,0,0.5,0,0.7c0,0.6,0.2,0.8,0.5,0.8c0.4,0,0.5-0.2,0.6-0.8L857,300.2
		L857,300.2z M855.8,298.4c0-0.2,0-0.3,0-0.5c0-0.5-0.2-0.8-0.5-0.8c-0.4,0-0.7,0.5-0.8,1.3L855.8,298.4L855.8,298.4z"/>
	<path class="st1" d="M861.5,301.5c-0.4,0.6-0.8,0.8-1.2,0.8c-0.9,0-1.3-0.8-1.3-2.3c0-1.1,0.3-2.4,0.7-3.1c0.4-0.7,0.9-1.1,1.5-1.1
		c0.5,0,0.8,0.3,1,0.9l0.1-0.8h1.7l-0.8,6.3h-1.7L861.5,301.5z M862,298.3c0-0.6-0.1-1-0.4-1c-0.5,0-0.9,1.1-0.9,2.4
		c0,0.6,0.2,1,0.4,1C861.6,300.7,862,299.6,862,298.3z"/>
	<path class="st1" d="M868,301.5c-0.4,0.6-0.8,0.8-1.2,0.8c-0.9,0-1.3-0.8-1.3-2.3c0-1.1,0.3-2.4,0.7-3.1c0.4-0.7,0.9-1.1,1.5-1.1
		c0.5,0,0.8,0.3,1,0.9l0.5-4.5h1.7l-1.2,10h-1.7L868,301.5z M868.4,298.3c0-0.6-0.1-1-0.4-1c-0.5,0-0.9,1.1-0.9,2.4
		c0,0.6,0.2,1,0.4,1C868,300.7,868.4,299.6,868.4,298.3z"/>
	<path class="st1" d="M871.9,295.9h1.7l0.3,2.3c0.1,0.7,0.1,1.1,0.1,1.3l1.2-3.6h1.7l-3.8,9.3h-1.7l1.4-3.2L871.9,295.9z"/>
	<path class="st1" d="M882.1,297.4h-0.6l0.2-1.4h0.6l0.2-1.7h1.7l-0.2,1.7h0.7l-0.2,1.4h-0.7l-0.6,4.8h-1.7L882.1,297.4z"/>
	<path class="st1" d="M885.6,299.7c0-0.8,0.2-1.8,0.6-2.5c0.5-0.9,1.3-1.4,2.2-1.4c1.3,0,2,0.9,2,2.4c0,2.5-1.1,4.1-2.8,4.1
		C886.3,302.3,885.6,301.4,885.6,299.7z M888.6,298.3c0-0.6-0.1-1-0.4-1c-0.5,0-0.9,1.1-0.9,2.4c0,0.6,0.2,1,0.4,1
		C888.3,300.7,888.6,299.6,888.6,298.3z"/>
	<path class="st1" d="M897.2,292.8h2.4l0.2,5.5l1.4-5.5h2.5l-0.2,9.3h-1.9l0.4-6.7c-0.2,0.8-0.3,1.3-0.5,2.2l-1.4,4.6h-1.4l-0.3-4.2
		c0-0.3-0.1-1.3-0.1-1.6c0-0.3,0-0.3,0-0.9l-1.1,6.7h-2L897.2,292.8z"/>
	<path class="st1" d="M905.6,299.7c0-0.8,0.2-1.8,0.6-2.5c0.5-0.9,1.3-1.4,2.2-1.4c1.3,0,2,0.9,2,2.4c0,2.5-1.1,4.1-2.8,4.1
		C906.3,302.3,905.6,301.4,905.6,299.7z M908.6,298.3c0-0.6-0.1-1-0.4-1c-0.5,0-0.9,1.1-0.9,2.4c0,0.6,0.2,1,0.4,1
		C908.2,300.7,908.6,299.6,908.6,298.3z"/>
	<path class="st1" d="M911.9,295.9h1.7l0.3,2.8c0,0.2,0,0.4,0.1,0.8c0.1-0.3,0.1-0.4,0.2-0.6l0.1-0.2l1-2.8h1.8l-2.5,6.3h-1.6
		L911.9,295.9z"/>
	<path class="st1" d="M922,300.2c-0.2,0.6-0.3,0.8-0.5,1.1c-0.4,0.6-1,1-1.8,1c-1.2,0-2-0.9-2-2.4c0-2.4,1.2-4.1,2.8-4.1
		c1.1,0,1.8,0.8,1.8,2.2c0,0.5,0,0.9-0.2,1.5h-2.7c0,0.3,0,0.5,0,0.7c0,0.6,0.2,0.8,0.5,0.8c0.3,0,0.5-0.2,0.6-0.8L922,300.2
		L922,300.2z M920.8,298.4c0-0.2,0-0.3,0-0.5c0-0.5-0.2-0.8-0.5-0.8c-0.4,0-0.7,0.5-0.8,1.3L920.8,298.4L920.8,298.4z"/>
	<path class="st1" d="M927.8,298.8c0-1.6,0.4-3.2,0.9-4.2c0.7-1.2,1.8-1.9,3-1.9c0.9,0,1.8,0.5,2.2,1.3c0.4,0.6,0.5,1.2,0.5,2.2
		c0,1.6-0.4,3.2-0.9,4.2c-0.7,1.2-1.8,1.9-3,1.9c-0.9,0-1.8-0.5-2.2-1.3C927.9,300.4,927.8,299.7,927.8,298.8z M931.8,299.6
		c0.4-0.8,0.6-2.2,0.6-3.5c0-1.1-0.4-1.8-1-1.8c-0.4,0-0.8,0.4-1.1,0.9c-0.4,0.8-0.6,2.2-0.6,3.5c0,1.1,0.4,1.8,1,1.8
		C931.1,300.5,931.6,300.2,931.8,299.6z"/>
	<path class="st1" d="M936.6,295.9h1.7l-0.1,1c0.5-0.8,1-1.1,1.6-1.1c0.6,0,1,0.4,1,1.2c0,0.2,0,0.5-0.1,1l-0.5,4.2h-1.7l0.4-3.6
		c0-0.3,0.1-0.5,0.1-0.6c0-0.3-0.1-0.4-0.3-0.4c-0.2,0-0.4,0.1-0.4,0.3c-0.1,0.1-0.1,0.2-0.1,0.7l-0.4,3.6h-1.7L936.6,295.9z"/>
	<polygon class="st5" points="948.3,302.9 948.3,291.7 955.3,297.3 	"/>
</g>
<g id="closed-caption-big">
	<path class="st2" d="M541.4,470.6c1.7,0,3.1,1.4,3.1,3.1V514c0,1.7-1.4,3.1-3.1,3.1h-54.1c-1.7,0-3.1-1.4-3.1-3.1v-40.4
		c0-1.7,1.4-3.1,3.1-3.1H541.4 M541.4,467.6h-54.1c-3.4,0-6.1,2.7-6.1,6.1V514c0,3.4,2.7,6.1,6.1,6.1h54.1c3.4,0,6.1-2.7,6.1-6.1
		v-40.4C547.5,470.3,544.8,467.6,541.4,467.6"/>
	<path class="st2" d="M510.6,504c-1.5,0.6-2.4,0.8-3.7,0.8c-2.8,0-5.3-1.2-7-3.4c-1.6-2.1-2.4-4.8-2.4-8.3c0-3.8,1-6.7,3-8.9
		c1.8-2,4.3-3,7.1-3c1.2,0,1.9,0.1,3,0.5v6.5c-1-1-1.7-1.4-2.8-1.4c-2.5,0-4,2.3-4,6.1c0,3.7,1.4,5.9,3.9,5.9c1.2,0,2-0.4,3.2-1.5
		L510.6,504z"/>
	<path class="st2" d="M529,504c-1.5,0.6-2.4,0.8-3.7,0.8c-2.8,0-5.3-1.2-7-3.4c-1.6-2.1-2.4-4.8-2.4-8.3c0-3.8,1-6.7,3-8.9
		c1.8-2,4.3-3,7.1-3c1.2,0,1.9,0.1,3,0.5v6.5c-1-1-1.7-1.4-2.8-1.4c-2.5,0-4,2.3-4,6.1c0,3.7,1.4,5.9,3.9,5.9c1.2,0,2-0.4,3.2-1.5
		L529,504z"/>
</g>
</svg>
