<?xml version="1.0" encoding="utf-8"?>
<!-- Generator: Adobe Illustrator 15.0.0, SVG Export Plug-In . SVG Version: 6.00 Build 0)  -->
<!DOCTYPE svg PUBLIC "-//W3C//DTD SVG 1.1//EN" "http://www.w3.org/Graphics/SVG/1.1/DTD/svg11.dtd">
<svg version="1.1" id="Layer_1" xmlns="http://www.w3.org/2000/svg" xmlns:xlink="http://www.w3.org/1999/xlink" x="0px" y="0px"
	 width="983.062px" height="768.5px" viewBox="0 0 983.062 768.5" style="enable-background:new 0 0 983.062 768.5;"
	 xml:space="preserve">
<style type="text/css">
<![CDATA[
	.st0{clip-path:url(#SVGID_6_);fill:none;stroke:#F9773E;stroke-miterlimit:10;}
	.st1{fill:none;stroke:#FFB81A;stroke-width:3;stroke-linecap:round;stroke-linejoin:round;stroke-miterlimit:10;}
	.st2{fill:none;stroke:#E03F07;stroke-width:3;stroke-miterlimit:10;}
	.st3{clip-path:url(#SVGID_16_);fill:none;stroke:#F9773E;stroke-miterlimit:10;}
	.st4{fill:none;stroke:#6B989F;stroke-width:2;stroke-miterlimit:10;}
	.st5{fill:#53848C;}
	.st6{fill:none;stroke:#FFFFFF;stroke-width:6;stroke-miterlimit:10;}
	.st7{fill:none;stroke:#F9773E;stroke-miterlimit:10;}
	.st8{fill:none;stroke:#FFFFFF;stroke-width:3;stroke-linecap:square;stroke-miterlimit:10;}
	.st9{clip-path:url(#SVGID_14_);fill:none;stroke:#F9773E;stroke-miterlimit:10;}
	.st10{fill:#F9773E;}
	.st11{opacity:0.5;fill:#6B989F;enable-background:new    ;}
	.st12{fill:#FF7931;}
	.st13{fill:#FFB81A;}
	.st14{fill:#FFFFFF;}
	.st15{clip-path:url(#SVGID_12_);fill:none;stroke:#F9773E;stroke-miterlimit:10;}
	.st16{fill:none;}
	.st17{clip-path:url(#SVGID_2_);fill:#F9773E;}
	.st18{fill:none;stroke:#335E6E;stroke-width:2;stroke-miterlimit:10;}
	.st19{fill:#335E6E;}
	.st20{fill:#345D6E;}
	.st21{fill:none;stroke:#FFB81A;stroke-width:2;stroke-linecap:round;stroke-miterlimit:10;}
	.st22{fill:#6B989F;}
	.st23{fill:none;stroke:#FFFFFF;stroke-width:1.4167;stroke-miterlimit:10;}
	.st24{clip-path:url(#SVGID_4_);fill:none;stroke:#F9773E;stroke-width:2;stroke-miterlimit:10;}
	.st25{fill:none;stroke:#F9773E;stroke-width:2;stroke-miterlimit:10;}
	.st26{clip-path:url(#SVGID_10_);fill:none;stroke:#F9773E;stroke-miterlimit:10;}
	.st27{fill:none;stroke:#FFB81A;stroke-width:2.9184;stroke-miterlimit:10;}
	.st28{clip-path:url(#SVGID_8_);fill:none;stroke:#F9773E;stroke-miterlimit:10;}
	.st29{fill:#71A8A8;}
	.st30{fill:#FFFFFF;stroke:#231F20;stroke-miterlimit:10;}
	.st31{fill:none;stroke:#FFFFFF;stroke-width:3;stroke-miterlimit:10;}
	.st32{clip-path:url(#SVGID_20_);fill:none;stroke:#F9773E;stroke-miterlimit:10;}
	.st33{clip-path:url(#SVGID_18_);fill:none;stroke:#F9773E;stroke-miterlimit:10;}
	.st34{fill:none;stroke:#FFFFFF;stroke-width:1.4167;stroke-linecap:round;stroke-miterlimit:10;}
	.st35{fill:none;stroke:#FFFFFF;stroke-width:1.4167;stroke-miterlimit:1;}
]]>
</style>
<symbol  id="New_Symbol" viewBox="-10.3 -10.3 20.6 20.6">
	<polygon class="st30" points="9.8,-9.8 -9.8,-9.8 -9.8,9.8 9.8,9.8 	"/>
</symbol>
<g id="first">
	
		<use xlink:href="#New_Symbol"  width="20.6" height="20.6" x="-10.3" y="-10.3" transform="matrix(0.7046 0 0 -0.7046 60.7051 317.3584)" style="overflow:visible;"/>
</g>
<g id="ep4-badge">
	<g id="_x3E_white_3_">
		<path id="XMLID_93_" class="st31" d="M217.254,319.949h3.2c3.5,0,3.2-4.196,3.2-4.196h-11.101v7.1l7.2,2"/>
		<polyline id="XMLID_92_" class="st31" points="217.854,319.949 227.254,319.949 227.254,311.25 212.455,311.25 212.455,317.15 		
			"/>
		<line id="XMLID_91_" class="st31" x1="223.554" y1="319.949" x2="223.554" y2="311.25"/>
		<line id="XMLID_90_" class="st31" x1="225.254" y1="324.75" x2="225.254" y2="320.15"/>
		<line id="XMLID_89_" class="st31" x1="219.854" y1="315.35" x2="219.854" y2="311.25"/>
		<line id="XMLID_88_" class="st31" x1="216.155" y1="315.35" x2="216.155" y2="311.25"/>
	</g>
	<g id="XMLID_94_">
		<path class="st13" d="M219.854,304.15l12,6.299v13.701l-12,6.299l-12-6.299v-13.701L219.854,304.15 M219.854,301.75l-14.199,7.399
			v16.399l14.199,7.396l14.2-7.396V309.15L219.854,301.75L219.854,301.75z"/>
	</g>
</g>
<g id="ep3-badge">
	<g id="_x3E_white_2_">
		<polyline id="XMLID_74_" class="st8" points="169.054,312.15 178.754,307.05 188.455,312.15 188.455,317.05 178.754,322.15 		"/>
		<polyline id="XMLID_73_" class="st8" points="188.455,316.75 188.455,321.65 178.754,326.75 		"/>
		<line id="XMLID_72_" class="st31" x1="188.455" y1="322.05" x2="188.455" y2="326.449"/>
		<line id="XMLID_71_" class="st8" x1="187.955" y1="312.65" x2="178.754" y2="317.449"/>
	</g>
	<g>
		<g id="XMLID_69_">
			<g>
				<path class="st13" d="M166.754,312.65l9.9,5.198v11.5l-9.9-5.198V312.65 M164.654,309.15v16.398l14.2,7.396l0,0V316.55
					L164.654,309.15L164.654,309.15L164.654,309.15z"/>
			</g>
		</g>
		<path id="XMLID_68_" class="st13" d="M186.455,316.05c-0.1,0.396-0.4,0.7-0.8,0.7c-0.4,0-0.6-0.304-0.5-0.7
			c0.1-0.398,0.4-0.7,0.8-0.7S186.455,315.65,186.455,316.05z"/>
		<path id="XMLID_67_" class="st13" d="M186.455,320.65c-0.1,0.398-0.4,0.698-0.8,0.698c-0.4,0-0.6-0.3-0.5-0.698
			c0.1-0.397,0.4-0.701,0.8-0.701S186.455,320.25,186.455,320.65z"/>
		<path id="XMLID_66_" class="st13" d="M186.455,325.35c-0.1,0.4-0.4,0.7-0.8,0.7c-0.4,0-0.6-0.3-0.5-0.7
			c0.1-0.399,0.4-0.698,0.8-0.698S186.455,324.949,186.455,325.35z"/>
		<g id="XMLID_59_">
			<path class="st13" d="M178.754,304.15l12,6.299v13.701l-12,6.299l-12-6.299v-13.701L178.754,304.15 M178.754,301.75l-14.2,7.397
				v16.399l14.2,7.396l14.2-7.396v-16.397L178.754,301.75L178.754,301.75z"/>
		</g>
	</g>
</g>
<g id="ep2-badge">
	<g id="_x3E_white_1_">
		<line id="XMLID_333_" class="st31" x1="146.154" y1="312.65" x2="139.154" y2="316.75"/>
		<line id="XMLID_332_" class="st31" x1="137.754" y1="326.949" x2="137.754" y2="318.85"/>
		<line id="XMLID_330_" class="st31" x1="136.254" y1="316.75" x2="129.254" y2="312.65"/>
		<polyline id="XMLID_329_" class="st31" points="144.254,324.05 137.754,327.449 131.154,324.05 		"/>
		<polyline id="XMLID_328_" class="st31" points="140.254,308.75 146.754,312.15 146.754,319.65 		"/>
		<polyline id="XMLID_327_" class="st31" points="128.554,319.65 128.554,312.15 135.054,308.75 		"/>
	</g>
	<g id="XMLID_335_">
		<path class="st13" d="M137.754,304.15l12,6.299v13.701l-12,6.299l-12-6.299v-13.701L137.754,304.15 M137.754,301.75l-14.2,7.397
			v16.399l14.2,7.396l14.2-7.396v-16.397L137.754,301.75L137.754,301.75z"/>
	</g>
</g>
<g id="ep1-badge">
	<g id="_x3E_white">
		<polyline id="XMLID_108_" class="st31" points="89.554,313.35 93.554,317.25 89.554,321.35 		"/>
		<polyline id="XMLID_107_" class="st31" points="103.754,321.35 99.654,317.25 103.754,313.35 		"/>
		<polyline id="XMLID_105_" class="st31" points="100.654,310.25 96.654,314.25 92.654,310.25 		"/>
		<polyline id="XMLID_104_" class="st31" points="92.654,324.35 96.654,320.449 100.654,324.35 		"/>
		<line id="XMLID_102_" class="st31" x1="96.654" y1="313.05" x2="96.654" y2="303.85"/>
		<line id="XMLID_101_" class="st31" x1="96.654" y1="330.75" x2="96.654" y2="321.55"/>
		<line id="XMLID_100_" class="st31" x1="100.855" y1="317.25" x2="110.154" y2="317.25"/>
		<line id="XMLID_98_" class="st31" x1="83.955" y1="317.25" x2="93.154" y2="317.25"/>
	</g>
	<g id="XMLID_60_">
		<path class="st13" d="M96.654,304.15l12,6.299v13.701l-12,6.299l-12-6.299v-13.701L96.654,304.15 M96.654,301.75l-14.2,7.397
			v16.399l14.2,7.396l14.2-7.396v-16.397L96.654,301.75L96.654,301.75z"/>
	</g>
</g>
<g id="rank-badge-cyber-cadet">
	<polygon class="st14" points="411.754,298.55 412.554,300.25 414.254,300.55 413.054,301.75 413.354,303.55 411.754,302.75 
		410.254,303.55 410.554,301.75 409.354,300.55 411.054,300.25 	"/>
	<polygon class="st14" points="387.754,298.55 388.455,300.25 390.155,300.55 388.955,301.75 389.254,303.55 387.754,302.75 
		386.254,303.55 386.554,301.75 385.254,300.55 387.054,300.25 	"/>
	<polygon class="st13" points="396.754,327.85 394.455,326.65 394.254,326.75 394.254,326.55 389.155,323.85 389.155,311.55 
		397.354,307.25 397.854,304.65 387.054,310.25 387.054,325.15 396.254,329.949 	"/>
	<polygon class="st13" points="401.754,304.65 402.155,307.25 410.354,311.55 410.354,323.85 403.354,327.55 402.554,330.449 
		412.455,325.15 412.455,310.25 	"/>
	<g>
		<polygon class="st14" points="400.455,327.85 397.655,329.85 399.754,320.55 396.254,323.35 398.354,310.65 401.854,310.65 
			400.455,316.25 403.254,314.15 400.854,324.15 403.455,322.15 398.955,337.65 		"/>
		<rect x="394.754" y="309.949" class="st14" width="9.897" height="1.399"/>
		<polygon class="st14" points="399.754,301.449 398.354,309.949 401.155,309.949 		"/>
		<g id="XMLID_45_">
			<g id="XMLID_157_">
				<g id="XMLID_185_">
					<g id="XMLID_229_">
						<polygon class="st14" points="399.754,300.05 398.354,300.85 398.354,302.75 399.754,303.55 401.155,302.75 401.155,300.85 
													"/>
					</g>
				</g>
			</g>
		</g>
	</g>
</g>
<g id="rank-badge-technical-cadet">
	<polygon class="st13" points="365.854,305.65 366.155,307.85 372.854,307.85 372.854,323.55 366.155,328.15 365.854,331.05 
		374.955,324.65 374.955,305.65 	"/>
	<polygon class="st13" points="361.155,328.25 354.554,323.85 354.554,307.85 361.155,307.85 361.554,305.65 352.354,305.65 
		352.455,324.949 361.554,331.05 	"/>
	<g>
		<g>
			<g>
				<polygon class="st14" points="363.655,310.65 360.854,313.449 363.655,337.55 366.455,313.449 				"/>
			</g>
		</g>
		<rect x="358.655" y="309.949" class="st14" width="9.899" height="1.399"/>
		<polygon class="st14" points="363.655,301.449 362.254,309.949 365.054,309.949 		"/>
		<g id="XMLID_166_">
			<g id="XMLID_168_">
				<g id="XMLID_169_">
					<g id="XMLID_170_">
						<polygon class="st14" points="363.655,300.05 362.254,300.85 362.254,302.75 363.655,303.55 365.054,302.75 365.054,300.85 
													"/>
					</g>
				</g>
			</g>
		</g>
	</g>
	<polygon class="st14" points="375.655,298.55 376.455,300.25 378.155,300.55 376.955,301.75 377.254,303.55 375.655,302.75 
		374.155,303.55 374.455,301.75 373.155,300.55 374.955,300.25 	"/>
	<polygon class="st14" points="351.655,298.55 352.354,300.25 354.054,300.55 352.854,301.75 353.155,303.55 351.655,302.75 
		350.155,303.55 350.455,301.75 349.155,300.55 350.854,300.25 	"/>
</g>
<g id="rank-badge-cadet-first-class">
	<g>
		<path class="st13" d="M336.754,307.85v15.7l-9.2,6.396l-9.1-6.196l-0.101-16h18.4 M338.854,305.65h-22.6l0.1,19.299l11.301,7.601
			l11.3-7.898v-19L338.854,305.65L338.854,305.65z"/>
	</g>
	<line class="st27" x1="316.854" y1="315.55" x2="338.254" y2="315.55"/>
	<polygon class="st14" points="339.554,298.55 340.354,300.25 342.054,300.55 340.854,301.75 341.155,303.55 339.554,302.75 
		338.054,303.55 338.354,301.75 337.054,300.55 338.854,300.25 	"/>
	<polygon class="st14" points="315.455,298.55 316.254,300.25 317.955,300.55 316.754,301.75 317.054,303.55 315.455,302.75 
		314.054,303.55 314.254,301.75 313.054,300.55 314.754,300.25 	"/>
</g>
<g id="rank-badge-cadet">
	<g>
		<path class="st13" d="M302.354,307.85v15.7l-9.199,6.399l-9.101-6.196l-0.1-16h18.399 M304.554,305.65h-22.7l0.101,19.299
			l11.3,7.604l11.3-7.898L304.554,305.65L304.554,305.65z"/>
	</g>
	<line class="st27" x1="282.554" y1="315.55" x2="303.955" y2="315.55"/>
</g>
<g id="rank-badge-recruit">
	<g>
		<path class="st13" d="M268.455,307.85v15.7l-9.2,6.396l-9.1-6.196l-0.101-16h18.4 M270.554,305.65h-22.7l0.101,19.299l11.3,7.604
			l11.3-7.898L270.554,305.65L270.554,305.65z"/>
	</g>
</g>
<g id="chapter-progress-chapter">
	<g id="XMLID_150_">
		<path class="st22" d="M58.955,351.949l3.5,1.899v4.101l-3.5,1.899l-3.5-1.899v-4.101L58.955,351.949 M58.955,349.55l-5.7,3v6.7
			l5.7,3l5.7-3v-6.7L58.955,349.55L58.955,349.55z"/>
	</g>
</g>
<g id="chapter-progress-slide">
	<rect x="68.154" y="352.65" class="st22" width="6.4" height="6.398"/>
</g>
<g id="chapter-progress-test">
	<polygon class="st11" points="101.855,362.35 97.754,364.55 89.754,360.449 89.754,351.449 92.355,350.05 90.955,348.75 
		87.955,350.35 87.955,361.449 97.754,366.449 103.554,363.449 	"/>
	<polygon class="st11" points="97.754,345.25 93.154,347.55 94.955,348.75 97.754,347.35 105.654,351.449 105.654,360.449 
		104.355,361.05 105.754,362.35 107.455,361.449 107.455,350.35 	"/>
	<g>
		<polygon class="st10" points="90.654,347.05 99.754,352.75 96.955,352.65 104.554,359.25 101.254,359.25 106.154,364.05 
			96.355,357.75 100.054,357.75 91.955,351.449 94.855,351.35 		"/>
	</g>
</g>
<g id="chapter-progress-duties">
	<circle class="st22" cx="81.254" cy="355.85" r="3.2"/>
</g>
<g id="list-progress-base">
	<g id="hex-outer_1_">
		<g id="XMLID_1080_">
			<path class="st10" d="M168.355,343.15l11.3,5.898v12.899l-11.3,5.899l-11.3-5.899V349.05L168.355,343.15 M168.355,339.949
				l-14.2,7.399v16.4l14.2,7.399l14.2-7.397V347.35L168.355,339.949L168.355,339.949z"/>
		</g>
	</g>
	<g id="hex-inner_1_">
		<g id="XMLID_2384_">
			<polygon class="st13" points="168.355,365.85 159.254,360.949 159.254,350.05 168.355,345.15 177.355,350.05 177.355,360.85 			
				"/>
		</g>
	</g>
</g>
<g id="list-progress-complete">
	<g id="hex-inner">
		<g>
			<polygon class="st29" points="139.054,349.75 142.955,352.15 138.455,352.15 137.754,352.15 144.455,357.85 144.455,350.05 
				135.355,345.15 133.355,346.15 			"/>
		</g>
		<g>
			<polygon class="st29" points="132.754,359.449 129.154,357.05 133.355,357.05 135.054,356.949 126.355,350.25 126.355,360.949 
				135.355,365.85 139.455,363.65 			"/>
		</g>
	</g>
	<g id="hex-outer">
		<polygon class="st5" points="141.254,364.75 135.355,367.949 124.054,361.949 124.054,349.05 127.654,347.15 125.654,345.05 
			121.254,347.35 121.254,363.65 135.355,371.05 144.054,366.55 		"/>
		<polygon class="st5" points="135.355,339.949 128.754,343.35 131.654,345.15 135.355,343.15 146.754,349.05 146.754,361.949 
			144.955,362.85 147.154,364.949 149.554,363.65 149.554,347.35 		"/>
	</g>
	<g id="lightning_1_">
		<g id="lightning">
			<polygon class="st13" points="124.955,342.449 138.455,350.85 134.355,350.85 145.554,360.449 140.654,360.449 147.754,367.449 
				133.455,358.25 138.855,358.25 126.855,349.05 131.254,348.85 			"/>
		</g>
	</g>
</g>
<g id="ctanlee">
	<circle class="st14" cx="231.254" cy="372.549" r="6.399"/>
	<path class="st6" d="M235.754,388.949c7.2-2,12.5-8.5,12.5-16.396"/>
	<path class="st6" d="M214.254,372.55c0,7.8,5.3,14.396,12.5,16.396"/>
	<path class="st6" d="M243.054,360.35c-3.1-2.899-7.2-4.8-11.8-4.8c-4.7,0-8.9,1.896-12,4.896"/>
</g>
<g id="action-btn-fist">
	<polygon class="st14" points="408.754,433.55 377.054,416.949 377.054,380.449 408.754,363.85 440.455,380.449 440.455,416.949 	
		"/>
	<polygon class="st10" points="408.754,431.15 379.254,415.65 379.254,381.65 408.754,366.25 438.254,381.65 438.254,415.65 	"/>
	<path class="st20" d="M415.354,359.35c0,0,7.4,2,10.102,3.4c-3.397,6.5-11.5,2.397-11.5,2.397s-2.3,2.799-3,3.603
		c11.103,5.196,26.2,0.696,26.2,0.696l-0.897,5.899l-5.603,13.5l-9.7,5l-17.699,35.304l-20.701-10.801l25.8-32.399l-2.699-19.101
		L415.354,359.35z"/>
	<path class="st23" d="M415.354,359.35c0,0,7.4,2,10.102,3.4c-3.397,6.5-11.5,2.397-11.5,2.397s-2.3,2.799-3,3.603
		c11.103,5.196,26.2,0.696,26.2,0.696l-0.897,5.899l-5.603,13.5l-9.7,5l-17.699,35.304l-20.701-10.801l25.8-32.399l-2.699-19.101
		L415.354,359.35z"/>
	<path class="st20" d="M421.054,352.15l-2.103-1.102c-1.8-0.898-3.897-0.2-4.8,1.5l-7,13.396l8.5,4.399l7-13.399
		C423.554,355.15,422.854,353.05,421.054,352.15"/>
	<path class="st23" d="M421.054,352.15l-2.103-1.102c-1.8-0.898-3.897-0.2-4.8,1.5l-7,13.396l8.5,4.399l7-13.399
		C423.554,355.15,422.854,353.05,421.054,352.15z"/>
	<path class="st20" d="M427.554,353.55l2.602,1.7c1.3,0.8,1.698,2.5,0.8,3.8l-7.3,11.2c-3-0.9-4.397-2.103-6.302-4.304l6.302-11.396
		C424.554,353.25,426.254,352.75,427.554,353.55"/>
	<path class="st23" d="M427.554,353.55l2.602,1.7c1.3,0.8,1.698,2.5,0.8,3.8l-7.3,11.2c-3-0.9-4.397-2.103-6.302-4.304l6.302-11.396
		C424.554,353.25,426.254,352.75,427.554,353.55z"/>
	<path class="st20" d="M435.554,361.65l-1.898-1.302c-1.302-0.899-3-0.5-3.802,0.7l-6.1,9.2c1.3,2,3.1,3.6,6,4l6.397-8.9
		C437.054,364.15,436.754,362.449,435.554,361.65"/>
	<path class="st23" d="M435.554,361.65l-1.898-1.302c-1.302-0.899-3-0.5-3.802,0.7l-6.1,9.2c1.3,2,3.1,3.6,6,4l6.397-8.9
		C437.054,364.15,436.754,362.449,435.554,361.65z"/>
	<path class="st20" d="M440.155,370.85l-5.302,6.9c-2.3-0.7-3.898-1.9-5.1-3.4l5.3-7.3c0.897-1.3,2.8-1.5,4-0.5l0.7,0.602
		C440.854,368.05,441.055,369.65,440.155,370.85"/>
	<path class="st23" d="M440.155,370.85l-5.302,6.9c-2.3-0.7-3.898-1.9-5.1-3.4l5.3-7.3c0.897-1.3,2.8-1.5,4-0.5l0.7,0.602
		C440.854,368.05,441.055,369.65,440.155,370.85z"/>
	<path class="st20" d="M431.054,380.75c0.897-0.603,3.8-3,3.8-3c-2.1-0.4-3.8-1.603-5.1-3.4l-2.803,2.7
		c-1.102,1-0.897,2.7,0.303,3.5l0.6,0.396C428.854,381.55,430.254,381.35,431.054,380.75"/>
	<path class="st35" d="M431.054,380.75c0.897-0.603,3.8-3,3.8-3c-2.1-0.4-3.8-1.603-5.1-3.4l-2.803,2.7
		c-1.102,1-0.897,2.7,0.303,3.5l0.6,0.396C428.854,381.55,430.254,381.35,431.054,380.75z"/>
	<path class="st20" d="M423.254,377.65l-1.2-0.897c-0.8-0.603-1-1.7-0.5-2.603l2.2-3.897c1.397,2.5,3.397,3.8,6,4l-3.4,3.196
		C425.554,378.35,424.254,378.35,423.254,377.65"/>
	<path class="st35" d="M423.254,377.65l-1.2-0.897c-0.8-0.603-1-1.7-0.5-2.603l2.2-3.897c1.397,2.5,3.397,3.8,6,4l-3.4,3.196
		C425.554,378.35,424.254,378.35,423.254,377.65z"/>
	<path class="st20" d="M414.655,371.449l6,4.304l3.103-5.5c-3-0.7-4.5-1.804-6.303-4.304L414.655,371.449z"/>
	<path class="st23" d="M414.655,371.449l6,4.304l3.103-5.5c-3-0.7-4.5-1.804-6.303-4.304L414.655,371.449z"/>
	<path class="st20" d="M383.054,418.15l20.897-33.397l-2.197-19l10.8-10.2c0,0,10.102,5.3,12.8,6.7
		c-3.398,6.5-10.101,2.3-10.101,2.3s-1.302,2.896-1.899,3.7c9,4.696,10.802,9,3.5,16.397"/>
	<path class="st34" d="M383.054,418.15l20.897-33.397l-2.197-19l10.8-10.2c0,0,10.102,5.3,12.8,6.7
		c-3.398,6.5-10.101,2.3-10.101,2.3s-1.302,2.896-1.899,3.7c9,4.696,10.802,9,3.5,16.397"/>
	<path class="st14" d="M399.054,420.35c0.897-8.3,2.8-16.5,5.602-24.6c0.198,1.8,0.398,3.6,0.698,5.3
		c1.9-5.8,4.4-11.398,7.302-16.898c-0.302,2.103-0.397,4.103-0.602,6.103c2.3-3.5,4.7-6.804,7.397-10c1.303-1.603,1.7-1.2,0.603,0.5
		c-3.8,6.1-6.898,12.5-9.3,19c-0.103-1.804-0.2-3.603-0.2-5.4c-2.2,5.2-4,10.5-5.3,15.9c-0.4-1.9-0.803-3.804-1.2-5.804
		C401.955,409.65,400.254,414.949,399.054,420.35"/>
</g>
<g id="mini-generation">
	<rect x="293.554" y="592.549" class="st16" width="179" height="132.801"/>
	<rect x="331.155" y="641.649" class="st22" width="87.701" height="11.5"/>
	<path class="st10" d="M417.455,651.549h-84.7v-8.398h84.7V651.549L417.455,651.549z M420.455,640.149h-3h-84.7h-3v3v8.5v3h3h84.7h3
		v-3v-8.5V640.149L420.455,640.149z"/>
	<rect x="325.554" y="648.35" class="st22" width="99" height="66.5"/>
	<path class="st10" d="M423.054,713.35h-96v-63.5h96V713.35z M426.054,646.85h-3h-96h-3v3v63.5v3h3h96h3v-3v-63.5V646.85z"/>
	<polygon class="st10" points="316.655,716.35 338.455,716.35 336.054,594.449 318.955,594.449 	"/>
	<rect x="333.655" y="644.149" class="st22" width="82.701" height="6.5"/>
	<path class="st19" d="M415.455,649.549h-80.7v-4.398h80.7V649.549L415.455,649.549z M417.455,643.149h-84.7v8.5h84.7V643.149
		L417.455,643.149z"/>
	<rect x="328.054" y="650.85" class="st22" width="94" height="61.5"/>
	<path class="st19" d="M421.054,711.35h-92v-59.5h92V711.35z M423.054,649.85h-96v63.5h96V649.85z"/>
	<rect x="418.155" y="652.649" class="st14" width="7.103" height="1.396"/>
	<rect x="418.155" y="652.649" class="st19" width="7.103" height="1.396"/>
	<rect x="414.155" y="682.649" class="st14" width="7.103" height="1.3"/>
	<rect x="414.155" y="682.649" class="st18" width="7.103" height="1.3"/>
	<path class="st14" d="M325.655,653.35h5.7H325.655z"/>
	<rect x="324.955" y="652.649" class="st19" width="7.1" height="1.396"/>
	<rect x="328.955" y="682.649" class="st14" width="7.1" height="1.3"/>
	<rect x="328.955" y="682.649" class="st18" width="7.1" height="1.3"/>
	<rect x="327.155" y="651.35" class="st14" width="95.803" height="1.196"/>
	<rect x="325.655" y="649.85" class="st19" width="98.803" height="4.196"/>
	<rect x="372.855" y="659.75" class="st13" width="5.5" height="10.5"/>
	<path class="st19" d="M377.455,669.25h-3.5v-8.5h3.5V669.25z M379.455,658.75h-2h-3.5h-2v2v8.5v2h2h3.5h2v-2v-8.5V658.75z"/>
	<rect x="353.955" y="659.75" class="st13" width="5.5" height="10.5"/>
	<path class="st19" d="M358.554,669.25h-3.5v-8.5h3.5V669.25z M360.554,658.75h-2h-3.5h-2v2v8.5v2h2h3.5h2v-2v-8.5V658.75z"/>
	<rect x="363.455" y="659.75" class="st13" width="5.5" height="10.5"/>
	<path class="st19" d="M367.955,669.25h-3.5v-8.5h3.5V669.25z M369.955,658.75h-2h-3.5h-2v2v8.5v2h2h3.5h2v-2v-8.5V658.75z"/>
	<rect x="401.254" y="659.75" class="st13" width="5.5" height="10.5"/>
	<path class="st19" d="M405.754,669.25h-3.5v-8.5h3.5V669.25z M407.754,658.75h-2h-3.5h-2v2v8.5v2h2h3.5h2v-2v-8.5V658.75z"/>
	<rect x="410.655" y="659.75" class="st13" width="5.5" height="10.5"/>
	<path class="st19" d="M415.155,669.25h-3.5v-8.5h3.5V669.25z M417.155,658.75h-2h-3.5h-2v2v8.5v2h2h3.5h2v-2v-8.5V658.75z"/>
	<rect x="382.355" y="659.75" class="st13" width="5.5" height="10.5"/>
	<path class="st19" d="M386.855,669.25h-3.5v-8.5h3.5V669.25z M388.855,658.75h-2h-3.5h-2v2v8.5v2h2h3.5h2v-2v-8.5V658.75z"/>
	<rect x="391.754" y="659.75" class="st13" width="5.5" height="10.5"/>
	<path class="st19" d="M396.355,669.25h-3.5v-8.5h3.5V669.25z M398.355,658.75h-2h-3.5h-2v2v8.5v2h2h3.5h2v-2v-8.5V658.75z"/>
	<rect x="335.155" y="659.75" class="st13" width="5.5" height="10.5"/>
	<path class="st19" d="M339.655,669.25h-3.5v-8.5h3.5V669.25z M341.655,658.75h-2h-3.5h-2v2v8.5v2h2h3.5h2v-2v-8.5V658.75z"/>
	<rect x="344.554" y="659.75" class="st13" width="5.5" height="10.5"/>
	<path class="st19" d="M349.054,669.25h-3.5v-8.5h3.5V669.25z M351.054,658.75h-2h-3.5h-2v2v8.5v2h2h3.5h2v-2v-8.5V658.75z"/>
	<rect x="401.254" y="696.449" class="st13" width="5.5" height="10.5"/>
	<path class="st19" d="M405.754,705.949h-3.5v-8.5h3.5V705.949z M407.754,695.449h-2h-3.5h-2v2v8.5v2h2h3.5h2v-2v-8.5V695.449z"/>
	<rect x="410.655" y="696.449" class="st13" width="5.5" height="10.5"/>
	<path class="st19" d="M415.155,705.949h-3.5v-8.5h3.5V705.949z M417.155,695.449h-2h-3.5h-2v2v8.5v2h2h3.5h2v-2v-8.5V695.449z"/>
	<rect x="335.155" y="696.449" class="st13" width="5.5" height="10.5"/>
	<path class="st19" d="M339.655,705.949h-3.5v-8.5h3.5V705.949z M341.655,695.449h-2h-3.5h-2v2v8.5v2h2h3.5h2v-2v-8.5V695.449z"/>
	<rect x="344.554" y="696.449" class="st13" width="5.5" height="10.5"/>
	<path class="st19" d="M349.054,705.949h-3.5v-8.5h3.5V705.949z M351.054,695.449h-2h-3.5h-2v2v8.5v2h2h3.5h2v-2v-8.5V695.449z"/>
	<rect x="315.155" y="599.649" class="st10" width="24.7" height="4"/>
	<path class="st10" d="M338.855,602.549h-22.601v-1.898h22.601V602.549z M340.955,598.549h-2.103h-22.601h-2.103v2.102v1.896v2.104
		h2.103h22.604h2.103v-2.102v-1.898L340.955,598.549L340.955,598.549z"/>
	<g>
		<g>
			<g>
				<g>
					<g>
						<g>
							<defs>
								<path id="SVGID_1_" d="M428.155,685.75v19.104h15.101c0.101-2.2,1.896-3.9,4.101-3.9c2.198,0,4,1.7,4.104,3.9h14.799V685.75
									H428.155z"/>
							</defs>
							<clipPath id="SVGID_2_">
								<use xlink:href="#SVGID_1_"  style="overflow:visible;"/>
							</clipPath>
							<path class="st17" d="M464.355,713.35h-34.201v-25.601h34.201V713.35z M466.355,685.75h-38.201v29.604h38.201V685.75z"/>
						</g>
					</g>
				</g>
			</g>
		</g>
		<g>
			<g>
				<g>
					<g>
						<g>
							<defs>
								<path id="SVGID_3_" d="M428.155,685.75v19.104h15.101c0.101-2.2,1.896-3.9,4.101-3.9c2.198,0,4,1.7,4.104,3.9h14.799V685.75
									H428.155z"/>
							</defs>
							<clipPath id="SVGID_4_">
								<use xlink:href="#SVGID_3_"  style="overflow:visible;"/>
							</clipPath>
							<circle class="st24" cx="447.355" cy="705.049" r="17.6"/>
						</g>
					</g>
				</g>
			</g>
		</g>
		<g>
			<g>
				<g>
					<g>
						<g>
							<defs>
								<path id="SVGID_5_" d="M428.155,685.75v19.104h15.101c0.101-2.2,1.896-3.9,4.101-3.9c2.198,0,4,1.7,4.104,3.9h14.799V685.75
									H428.155z"/>
							</defs>
							<clipPath id="SVGID_6_">
								<use xlink:href="#SVGID_5_"  style="overflow:visible;"/>
							</clipPath>
							<polyline class="st0" points="447.355,705.049 436.754,700.649 438.254,695.949 447.355,705.049 							"/>
						</g>
					</g>
				</g>
			</g>
		</g>
		<g>
			<g>
				<g>
					<g>
						<g>
							<defs>
								<path id="SVGID_7_" d="M428.155,685.75v19.104h15.101c0.101-2.2,1.896-3.9,4.101-3.9c2.198,0,4,1.7,4.104,3.9h14.799V685.75
									H428.155z"/>
							</defs>
							<clipPath id="SVGID_8_">
								<use xlink:href="#SVGID_7_"  style="overflow:visible;"/>
							</clipPath>
							<polyline class="st28" points="447.355,705.049 435.855,705.049 435.455,700.149 447.355,705.049 							"/>
						</g>
					</g>
				</g>
			</g>
		</g>
		<g>
			<g>
				<g>
					<g>
						<g>
							<defs>
								<path id="SVGID_9_" d="M428.155,685.75v19.104h15.101c0.101-2.2,1.896-3.9,4.101-3.9c2.198,0,4,1.7,4.104,3.9h14.799V685.75
									H428.155z"/>
							</defs>
							<clipPath id="SVGID_10_">
								<use xlink:href="#SVGID_9_"  style="overflow:visible;"/>
							</clipPath>
							<polyline class="st26" points="447.355,705.049 458.055,700.649 460.254,705.049 447.355,705.049 							"/>
						</g>
					</g>
				</g>
			</g>
		</g>
		<g>
			<g>
				<g>
					<g>
						<g>
							<defs>
								<path id="SVGID_11_" d="M428.155,685.75v19.104h15.101c0.101-2.2,1.896-3.9,4.101-3.9c2.198,0,4,1.7,4.104,3.9h14.799
									V685.75H428.155z"/>
							</defs>
							<clipPath id="SVGID_12_">
								<use xlink:href="#SVGID_11_"  style="overflow:visible;"/>
							</clipPath>
							<polyline class="st15" points="447.355,705.049 455.555,696.949 459.254,700.149 447.355,705.049 							"/>
						</g>
					</g>
				</g>
			</g>
		</g>
		<g>
			<g>
				<g>
					<g>
						<g>
							<defs>
								<path id="SVGID_13_" d="M428.155,685.75v19.104h15.101c0.101-2.2,1.896-3.9,4.101-3.9c2.198,0,4,1.7,4.104,3.9h14.799
									V685.75H428.155z"/>
							</defs>
							<clipPath id="SVGID_14_">
								<use xlink:href="#SVGID_13_"  style="overflow:visible;"/>
							</clipPath>
							<polyline class="st9" points="447.355,705.049 451.855,694.449 456.555,695.949 447.355,705.049 							"/>
						</g>
					</g>
				</g>
			</g>
		</g>
		<g>
			<g>
				<g>
					<g>
						<g>
							<defs>
								<path id="SVGID_15_" d="M428.155,685.75v19.104h15.101c0.101-2.2,1.896-3.9,4.101-3.9c2.198,0,4,1.7,4.104,3.9h14.799
									V685.75H428.155z"/>
							</defs>
							<clipPath id="SVGID_16_">
								<use xlink:href="#SVGID_15_"  style="overflow:visible;"/>
							</clipPath>
							<polyline class="st3" points="447.355,705.049 447.355,693.549 452.355,693.25 447.355,705.049 							"/>
						</g>
					</g>
				</g>
			</g>
		</g>
		<g>
			<g>
				<g>
					<g>
						<g>
							<defs>
								<path id="SVGID_17_" d="M428.155,685.75v19.104h15.101c0.101-2.2,1.896-3.9,4.101-3.9c2.198,0,4,1.7,4.104,3.9h14.799
									V685.75H428.155z"/>
							</defs>
							<clipPath id="SVGID_18_">
								<use xlink:href="#SVGID_17_"  style="overflow:visible;"/>
							</clipPath>
							<polyline class="st33" points="447.355,705.049 442.955,694.449 447.355,692.25 447.355,705.049 							"/>
						</g>
					</g>
				</g>
			</g>
		</g>
		<g>
			<g>
				<g>
					<g>
						<g>
							<defs>
								<path id="SVGID_19_" d="M428.155,685.75v19.104h15.101c0.101-2.2,1.896-3.9,4.101-3.9c2.198,0,4,1.7,4.104,3.9h14.799
									V685.75H428.155z"/>
							</defs>
							<clipPath id="SVGID_20_">
								<use xlink:href="#SVGID_19_"  style="overflow:visible;"/>
							</clipPath>
							<polyline class="st32" points="447.355,705.049 439.254,696.949 442.455,693.25 447.355,705.049 							"/>
						</g>
					</g>
				</g>
			</g>
		</g>
	</g>
	<path class="st10" d="M466.754,714.35h-38.898v-7.801h38.898V714.35z M468.754,704.549h-42.898v11.801h42.898V704.549z"/>
	<path class="st25" d="M443.254,712.25h8.301v-7.201c0-2.299-1.899-4.1-4.199-4.1c-2.301,0-4.102,1.899-4.102,4.1V712.25z"/>
	<path class="st10" d="M451.555,713.949h-8.699v-1.3h8.699V713.949L451.555,713.949z M453.555,710.649h-12.699v5.3h12.699V710.649
		L453.555,710.649z"/>
	<line class="st25" x1="451.455" y1="708.649" x2="443.055" y2="708.649"/>
</g>
<g id="mini-substation">
	<rect x="673.846" y="592.549" class="st16" width="179" height="132.8"/>
	<rect x="713.746" y="642.948" class="st22" width="102.6" height="71.899"/>
	<path class="st10" d="M814.846,713.349h-99.6v-68.899h99.6V713.349z M817.846,641.448h-3h-99.6h-3v3v68.899v3h3h99.6h3v-3v-68.899
		V641.448z"/>
	<rect x="709.945" y="641.948" class="st22" width="110.201" height="8.604"/>
	<path class="st10" d="M818.646,649.049H711.445v-5.601h107.201V649.049z M821.646,640.448h-3H711.445h-3v3v5.604v3h3h107.201h3v-3
		v-5.604V640.448z"/>
	<polyline class="st7" points="696.746,673.149 725.547,715.649 727.445,715.649 720.346,673.149 696.746,673.149 689.646,715.649 
		691.646,715.649 720.346,673.149 	"/>
	<polygon class="st7" points="696.746,673.149 720.346,673.149 718.047,657.849 699.047,657.849 	"/>
	<line class="st7" x1="696.746" y1="673.149" x2="718.047" y2="657.849"/>
	<line class="st7" x1="699.047" y1="657.849" x2="720.346" y2="673.149"/>
	<polygon class="st7" points="700.547,644.049 716.547,644.049 718.047,657.849 699.047,657.849 	"/>
	<line class="st7" x1="718.047" y1="657.849" x2="700.547" y2="644.049"/>
	<line class="st7" x1="716.547" y1="644.049" x2="699.047" y2="657.849"/>
	<polygon class="st7" points="700.547,644.049 716.547,644.049 715.547,631.349 701.547,631.349 	"/>
	<line class="st7" x1="700.547" y1="644.049" x2="715.547" y2="631.349"/>
	<line class="st7" x1="701.547" y1="631.349" x2="716.547" y2="644.049"/>
	<polygon class="st7" points="677.346,631.349 739.746,631.349 715.547,619.049 702.047,619.049 	"/>
	<polygon class="st7" points="702.047,619.049 715.547,619.049 715.547,631.349 701.547,631.349 	"/>
	<polyline class="st7" points="715.547,619.049 701.547,631.349 715.547,631.349 702.047,619.049 	"/>
	<polyline class="st7" points="720.846,621.649 715.547,631.349 701.547,631.349 696.746,621.649 	"/>
	<line class="st7" x1="696.746" y1="631.149" x2="689.146" y2="625.549"/>
	<line class="st7" x1="720.846" y1="631.149" x2="727.945" y2="625.549"/>
	<line class="st7" x1="727.945" y1="625.549" x2="727.945" y2="631.349"/>
	<line class="st7" x1="696.746" y1="621.649" x2="696.746" y2="631.149"/>
	<line class="st7" x1="720.846" y1="631.149" x2="720.846" y2="621.649"/>
	<polygon class="st7" points="702.047,619.049 715.547,619.049 714.047,610.948 703.047,610.948 	"/>
	<polyline class="st7" points="703.047,610.948 715.547,619.049 702.047,619.049 714.047,610.948 	"/>
	<polygon class="st7" points="704.547,601.049 712.547,601.049 714.047,610.948 703.047,610.948 	"/>
	<polygon class="st7" points="704.547,601.149 712.547,601.149 728.547,610.948 688.646,610.948 	"/>
	<polyline class="st7" points="712.547,601.149 703.047,610.948 714.047,610.948 704.547,601.149 	"/>
	<polyline class="st7" points="718.346,605.349 714.047,610.948 703.047,610.948 698.746,605.349 	"/>
	<line class="st7" x1="698.746" y1="605.349" x2="698.746" y2="610.749"/>
	<line class="st7" x1="718.346" y1="610.749" x2="718.346" y2="605.349"/>
	<line class="st7" x1="729.646" y1="614.948" x2="729.646" y2="611.448"/>
	<line class="st7" x1="741.246" y1="635.249" x2="741.246" y2="631.749"/>
	<line class="st7" x1="687.445" y1="614.948" x2="687.445" y2="611.448"/>
	<rect x="716.246" y="645.448" class="st22" width="97.6" height="66.899"/>
	<path class="st19" d="M812.846,711.349h-95.6v-64.899h95.6V711.349z M814.846,644.448h-99.6v68.899h99.6V644.448z"/>
	<rect x="712.445" y="644.448" class="st22" width="105.201" height="3.604"/>
	<path class="st19" d="M816.646,647.049H713.445v-1.601h103.201V647.049z M818.646,643.448H711.445v5.604h107.201V643.448z"/>
	<rect x="710.646" y="647.549" class="st19" width="108.799" height="1.5"/>
	<line class="st18" x1="813.146" y1="705.349" x2="716.945" y2="705.349"/>
	<rect x="745.047" y="655.249" class="st13" width="5.799" height="11.196"/>
	<path class="st19" d="M749.846,665.448h-3.799v-9.199h3.799V665.448z M751.846,654.249h-2h-3.799h-2v2v9.196v2h2h3.799h2v-2v-9.196
		V654.249z"/>
	<rect x="755.146" y="655.249" class="st13" width="5.799" height="11.196"/>
	<path class="st19" d="M759.945,665.448h-3.799v-9.199h3.799V665.448z M761.945,654.249h-2h-3.799h-2v2v9.196v2h2h3.799h2v-2v-9.196
		V654.249z"/>
	<rect x="724.846" y="655.249" class="st13" width="5.804" height="11.196"/>
	<path class="st19" d="M729.646,665.448h-3.804v-9.199h3.804V665.448z M731.646,654.249h-2h-3.804h-2v2v9.196v2h2h3.804h2v-2v-9.196
		V654.249z"/>
	<rect x="734.945" y="655.249" class="st13" width="5.801" height="11.196"/>
	<path class="st19" d="M739.746,665.448h-3.801v-9.199h3.801V665.448z M741.746,654.249h-2h-3.801h-2v2v9.196v2h2h3.801h2v-2v-9.196
		V654.249z"/>
	<rect x="745.047" y="669.849" class="st13" width="5.799" height="11.2"/>
	<path class="st19" d="M749.846,680.049h-3.799v-9.2h3.799V680.049z M751.846,668.849h-2h-3.799h-2v2v9.2v2h2h3.799h2v-2v-9.2
		V668.849z"/>
	<rect x="724.846" y="669.849" class="st13" width="5.804" height="11.2"/>
	<path class="st19" d="M729.646,680.049h-3.804v-9.2h3.804V680.049z M731.646,668.849h-2h-3.804h-2v2v9.2v2h2h3.804h2v-2v-9.2
		V668.849z"/>
	<rect x="734.945" y="669.849" class="st13" width="5.801" height="11.2"/>
	<path class="st19" d="M739.746,680.049h-3.801v-9.2h3.801V680.049z M741.746,668.849h-2h-3.801h-2v2v9.2v2h2h3.801h2v-2v-9.2
		V668.849z"/>
	<rect x="831.246" y="695.649" class="st10" width="7" height="8.198"/>
	<rect x="827.746" y="704.249" class="st10" width="14.801" height="1.6"/>
	<path class="st10" d="M841.547,706.749v8.6l0,0l-10.897-8.6H841.547z M842.547,705.749h-14.801l13.5,10.6h1.4v-10.6H842.547z"/>
	<path class="st10" d="M839.646,706.749l-10.9,8.6l0,0v-8.6H839.646z M842.547,705.749h-14.801v10.6h1.4L842.547,705.749z"/>
	<path class="st10" d="M844.547,699.749c0,1.397-1.301,2.5-2,2.5c-0.701,0-1.201-1.103-1.201-2.5c0-1.4,0.5-2.5,1.201-2.5
		C843.246,697.249,844.547,698.349,844.547,699.749"/>
	<path class="st10" d="M825.945,699.749c0,1.397,1.301,2.5,2,2.5c0.701,0,1.201-1.103,1.201-2.5c0-1.4-0.5-2.5-1.201-2.5
		C827.246,697.249,825.945,698.349,825.945,699.749"/>
	<rect x="827.746" y="695.049" class="st10" width="5.1" height="9.396"/>
	
		<rect x="827.757" y="688.761" transform="matrix(-0.9848 0.1739 -0.1739 -0.9848 1765.8719 1224.2068)" class="st10" width="3.1" height="1.4"/>
	<polygon class="st10" points="825.445,663.149 823.846,663.448 827.047,689.149 831.246,688.349 	"/>
	
		<rect x="828.293" y="694.117" transform="matrix(-0.9849 0.1732 -0.1732 -0.9849 1768.3304 1235.5946)" class="st10" width="3.901" height="1.702"/>
	<path class="st10" d="M831.346,694.049l-2.5,0.396c-1.196,0.201-2.396-0.601-2.6-1.799v-0.2c-0.199-1.197,0.6-2.397,1.801-2.599
		l2.5-0.399c1.199-0.196,2.398,0.604,2.603,1.804v0.196C833.445,692.749,832.646,693.849,831.346,694.049"/>
	
		<rect x="823.237" y="662.712" transform="matrix(-0.985 0.1727 -0.1727 -0.985 1751.3123 1173.8391)" class="st10" width="2.703" height="0.798"/>
	
		<rect x="822.484" y="662.657" transform="matrix(0.9848 -0.1735 0.1735 0.9848 -102.6331 152.8386)" class="st10" width="0.799" height="1.599"/>
	
		<rect x="839.587" y="688.747" transform="matrix(-0.9848 -0.1736 0.1736 -0.9848 1549.8251 1514.4377)" class="st10" width="3.1" height="1.4"/>
	<polygon class="st10" points="846.547,663.448 845.047,663.149 839.146,688.349 843.445,689.149 	"/>
	
		<rect x="838.189" y="694.221" transform="matrix(-0.9848 -0.1738 0.1738 -0.9848 1546.6764 1525.5884)" class="st10" width="3.899" height="1.7"/>
	<path class="st10" d="M841.646,694.549l-2.5-0.398c-1.201-0.201-2-1.397-1.804-2.602v-0.2c0.199-1.198,1.398-2,2.603-1.8l2.5,0.396
		c1.201,0.201,2,1.399,1.801,2.604v0.2C843.945,693.948,842.846,694.749,841.646,694.549"/>
	
		<rect x="844.542" y="662.742" transform="matrix(0.9847 0.1741 -0.1741 0.9847 128.3504 -137.1234)" class="st10" width="2.698" height="0.798"/>
	
		<rect x="847.115" y="662.621" transform="matrix(-0.9849 -0.1731 0.1731 -0.9849 1567.4075 1463.5236)" class="st10" width="0.801" height="1.599"/>
	<rect x="837.547" y="695.049" class="st10" width="5.103" height="9.396"/>
	<path class="st7" d="M822.646,662.649c0.5-3.102-1.5-4.102-6.201-3.102"/>
	<path class="st7" d="M847.646,662.649c-0.104-10.802-23-5.897-31.604-3.701"/>
</g>
<g id="mini-control-center">
	<rect x="480.254" y="592.549" class="st16" width="179" height="132.8"/>
	<rect x="507.154" y="644.748" class="st22" width="100" height="70.201"/>
	<path class="st10" d="M605.654,713.349h-97v-67.199h97V713.349z M608.654,643.248h-3h-97h-3v3v67.201v3h3h97h3v-3v-67.201V643.248z
		"/>
	<rect x="503.354" y="643.748" class="st22" width="107.5" height="8.5"/>
	<path class="st10" d="M609.354,650.648h-104.5v-5.5h104.5V650.648z M612.354,642.248h-3h-104.5h-3v3v5.5v3h3h104.5h3v-3v-5.5
		V642.248z"/>
	
		<rect x="593.717" y="634.6" transform="matrix(-0.6031 -0.7976 0.7976 -0.6031 448.98 1493.9965)" class="st10" width="4.9" height="1.401"/>
	
		<rect x="593.717" y="634.6" transform="matrix(-0.6031 -0.7976 0.7976 -0.6031 448.98 1493.9965)" class="st7" width="4.9" height="1.401"/>
	
		<rect x="589.872" y="639.459" transform="matrix(0.9541 -0.2993 0.2993 0.9541 -164.5046 207.0021)" class="st10" width="7.099" height="2"/>
	
		<rect x="589.872" y="639.459" transform="matrix(0.9541 -0.2993 0.2993 0.9541 -164.5046 207.0021)" class="st7" width="7.099" height="2"/>
	<path class="st10" d="M596.555,633.148c-0.397,1.301-1.801,2.1-3.102,1.699c-1.299-0.399-2.103-1.8-1.699-3.104
		c0.4-1.299,1.801-2.1,3.1-1.696C596.254,630.449,596.953,631.849,596.555,633.148"/>
	<circle class="st7" cx="594.154" cy="632.449" r="2.5"/>
	<path class="st10" d="M599.654,637.148c1,1,1,2.6,0,3.6s-2.604,1-3.604,0s-1-2.6,0-3.6
		C597.154,636.148,598.754,636.148,599.654,637.148"/>
	<circle class="st7" cx="597.953" cy="638.849" r="2.5"/>
	<path class="st10" d="M591.354,641.949c0,1.898-1.6,3.5-3.5,3.5c-1.896,0-3.5-1.602-3.5-3.5c0-1.897,1.604-3.5,3.5-3.5
		C589.754,638.449,591.354,640.049,591.354,641.949"/>
	<circle class="st7" cx="587.854" cy="641.949" r="3.5"/>
	<rect x="509.654" y="647.248" class="st22" width="95" height="65.201"/>
	<path class="st19" d="M603.654,711.349h-93v-63.199h93V711.349z M605.654,646.248h-97v67.201h97V646.248z"/>
	<rect x="505.854" y="646.248" class="st22" width="102.5" height="3.5"/>
	<path class="st19" d="M607.354,648.648h-100.5v-1.5h100.5V648.648z M609.354,645.248h-104.5v5.5h104.5V645.248z"/>
	<line class="st16" x1="604.453" y1="706.248" x2="509.754" y2="706.248"/>
	<line class="st18" x1="604.453" y1="706.248" x2="509.754" y2="706.248"/>
	<path class="st10" d="M585.055,609.349c-2.5,2.5,1.299,13.2,10.299,22.102c8.9,8.898,19.701,12.699,22.103,10.299"/>
	<path class="st7" d="M585.055,609.349c-2.5,2.5,1.299,13.2,10.299,22.102c8.9,8.898,19.701,12.699,22.103,10.299"/>
	
		<ellipse transform="matrix(0.7071 -0.7071 0.7071 0.7071 -266.2314 608.366)" class="st7" cx="601.247" cy="625.553" rx="1.8" ry="22.899"/>
	<polyline class="st7" points="594.654,621.549 610.154,616.648 605.154,632.049 	"/>
	<polyline class="st7" points="585.055,609.349 610.154,616.648 617.453,641.748 	"/>
	
		<rect x="608.912" y="615.481" transform="matrix(-0.7071 -0.7071 0.7071 -0.7071 605.951 1483.9541)" class="st10" width="2.801" height="2"/>
	
		<rect x="608.912" y="615.481" transform="matrix(-0.7071 -0.7071 0.7071 -0.7071 605.951 1483.9541)" class="st7" width="2.801" height="2"/>
	<rect x="556.354" y="656.748" class="st13" width="5.701" height="11"/>
	<path class="st19" d="M561.154,666.748h-3.701v-9h3.701V666.748z M563.154,655.748h-2h-3.701h-2v2v9v2h2h3.701h2v-2v-9V655.748z"/>
	<rect x="536.654" y="656.748" class="st13" width="5.696" height="11"/>
	<path class="st19" d="M541.453,666.748h-3.699v-9h3.699V666.748z M543.453,655.748h-2h-3.699h-2v2v9v2h2h3.699h2v-2v-9V655.748z"/>
	<rect x="546.555" y="656.748" class="st13" width="5.699" height="11"/>
	<path class="st19" d="M551.254,666.748h-3.699v-9h3.699V666.748L551.254,666.748z M553.254,655.748h-2h-3.699h-2v2v9v2h2h3.699h2
		v-2v-9V655.748L553.254,655.748z"/>
	<rect x="517.055" y="656.748" class="st13" width="5.699" height="11"/>
	<path class="st19" d="M521.754,666.748h-3.699v-9h3.699V666.748L521.754,666.748z M523.754,655.748h-2h-3.699h-2v2v9v2h2h3.699h2
		v-2v-9V655.748L523.754,655.748z"/>
	<rect x="526.854" y="656.748" class="st13" width="5.701" height="11"/>
	<path class="st19" d="M531.555,666.748h-3.701v-9h3.701V666.748z M533.555,655.748h-2h-3.701h-2v2v9v2h2h3.701h2v-2v-9V655.748z"/>
	<rect x="556.354" y="670.949" class="st13" width="5.701" height="11"/>
	<path class="st19" d="M561.154,680.849h-3.701v-9h3.701V680.849z M563.154,669.949h-2h-3.701h-2v2v9v2h2h3.701h2v-2v-9V669.949z"/>
	<rect x="536.654" y="670.949" class="st13" width="5.696" height="11"/>
	<path class="st19" d="M541.453,680.849h-3.699v-9h3.699V680.849z M543.453,669.949h-2h-3.699h-2v2v9v2h2h3.699h2v-2v-9V669.949z"/>
	<rect x="546.555" y="670.949" class="st13" width="5.699" height="11"/>
	<path class="st19" d="M551.254,680.849h-3.699v-9h3.699V680.849L551.254,680.849z M553.254,669.949h-2h-3.699h-2v2v9v2h2h3.699h2
		v-2v-9V669.949L553.254,669.949z"/>
	<rect x="517.055" y="670.949" class="st13" width="5.699" height="11"/>
	<path class="st19" d="M521.754,680.849h-3.699v-9h3.699V680.849L521.754,680.849z M523.754,669.949h-2h-3.699h-2v2v9v2h2h3.699h2
		v-2v-9V669.949L523.754,669.949z"/>
	<rect x="526.854" y="670.949" class="st13" width="5.701" height="11"/>
	<path class="st19" d="M531.555,680.849h-3.701v-9h3.701V680.849z M533.555,669.949h-2h-3.701h-2v2v9v2h2h3.701h2v-2v-9V669.949z"/>
	<path class="st10" d="M620.254,702.849l-0.699,0.301c-2.5,1.199-5.602,0.1-6.801-2.5c-1.199-2.5-0.1-5.601,2.5-6.801l0.699-0.3
		L620.254,702.849z"/>
	
		<rect x="618.493" y="693.504" transform="matrix(-0.9074 0.4203 -0.4203 -0.9074 1478.4395 1067.6321)" class="st10" width="6.199" height="6.401"/>
	<polygon class="st10" points="625.453,699.349 646.154,694.049 639.654,680.049 622.254,692.449 	"/>
	
		<rect x="652.791" y="678.15" transform="matrix(-0.9072 0.4207 -0.4207 -0.9072 1537.0269 1022.5884)" class="st10" width="5.899" height="5.302"/>
	<polygon class="st10" points="659.453,682.049 660.854,680.849 659.055,676.949 657.254,677.148 	"/>
	
		<rect x="642.593" y="676.072" transform="matrix(-0.9074 0.4203 -0.4203 -0.9074 1518.5732 1037.3021)" class="st10" width="4.8" height="19.801"/>
	
		<rect x="652.138" y="678.892" transform="matrix(-0.9073 0.4205 -0.4205 -0.9073 1532.4324 1026.3662)" class="st10" width="1.898" height="6.402"/>
	<polygon class="st10" points="651.555,691.949 653.354,686.748 649.654,678.849 644.555,676.849 	"/>
	
		<rect x="633.163" y="700.173" transform="matrix(-0.5463 -0.8376 0.8376 -0.5463 396.4834 1616.8234)" class="st10" width="6" height="1.7"/>
	
		<rect x="628.481" y="705.672" transform="matrix(0.9541 -0.2994 0.2994 0.9541 -182.6011 221.8797)" class="st10" width="8.798" height="2.498"/>
	<path class="st10" d="M637.055,698.248c-0.602,1.604-2.397,2.4-4,1.804c-1.602-0.603-2.397-2.399-1.801-4
		c0.6-1.603,2.4-2.399,4-1.804C636.854,694.849,637.654,696.648,637.055,698.248"/>
	<path class="st10" d="M640.854,702.849c1.201,1.2,1.201,3.2,0,4.396c-1.196,1.201-3.196,1.201-4.396,0
		c-1.201-1.196-1.201-3.196,0-4.396C637.654,701.549,639.654,701.549,640.854,702.849"/>
	<path class="st10" d="M630.555,708.748c0,2.4-1.897,4.304-4.301,4.304c-2.4,0-4.301-1.899-4.301-4.304
		c0-2.396,1.897-4.299,4.301-4.299S630.555,706.449,630.555,708.748"/>
	<rect x="607.854" y="710.349" class="st10" width="39" height="6"/>
</g>
<g id="btn-lightning">
	<path class="st13" d="M642.699,117.232l59,12l60-12l-3-2.459l-56.995,11.398l-56.005-11.391L642.699,117.232z M645.699,84.682
		l55.979-11.386l57.021,12.354l3-2.42l-60-13l0,0l-59,12L645.699,84.682z"/>
	<path class="st13" d="M671.194,116.834c9.364-3.825,19.271-6.614,29.528-8.252c-1.823,1.227-3.6,2.491-5.326,3.787
		c7.283-1.253,14.734-1.91,22.277-1.934c-2.351,0.923-4.647,1.907-6.893,2.948c7.482,0.609,14.921,1.855,22.223,3.731
		c-11.213-1.329-22.346-1.171-33.122,0.346c1.834-1.153,3.716-2.266,5.646-3.336c-6.845,0.652-13.564,1.838-20.106,3.528
		c1.77-1.565,3.602-3.093,5.498-4.582C684.263,113.825,677.669,115.083,671.194,116.834z"/>
</g>
<g id="quiz-header">
	<line class="st4" x1="37.633" y1="208.768" x2="314.633" y2="208.768"/>
	<line class="st4" x1="394.634" y1="208.768" x2="671.634" y2="208.768"/>
	<polygon class="st11" points="368.471,226.989 356.633,233.134 334.133,221.454 334.133,196.081 341.444,192.286 337.797,188.545 
		329.133,193.043 329.133,224.492 356.633,238.768 373.347,230.093 	"/>
	<polygon class="st11" points="356.633,178.768 343.937,185.359 348.877,188.428 356.633,184.401 379.133,196.081 379.133,221.454 
		375.489,223.346 379.269,227.018 384.133,224.492 384.133,193.043 	"/>
	<polygon class="st10" points="336.633,183.768 362.461,199.805 354.545,199.801 376.063,218.19 366.733,218.324 380.444,231.646 
		352.906,214.122 363.255,213.934 340.256,196.229 348.526,195.972 	"/>
</g>
<g id="quiz-answer-bg">
	<polygon id="_x3E_bg" class="st19" points="48.254,712.961 48.254,434.738 146.753,410.395 244.848,434.737 245.252,712.962 
		146.754,737.305 	"/>
	<path id="_x3E_outline" class="st22" d="M146.753,411.94l96.597,23.97l0.401,275.881l-96.997,23.972l-97-23.975V435.912
		L146.753,411.94 M146.754,408.85l-100,24.715v280.571l100,24.714l100-24.714l-0.408-280.571L146.754,408.85L146.754,408.85z"/>
	<path id="_x3E_lightning_1_" class="st22" d="M110.948,689.901c10.85-4.433,22.324-7.663,34.212-9.562
		c-2.113,1.421-4.171,2.885-6.169,4.389c8.438-1.453,17.07-2.215,25.812-2.241c-2.725,1.068-5.387,2.21-7.985,3.417
		c8.673,0.705,17.286,2.147,25.747,4.321c-12.992-1.538-25.893-1.354-38.377,0.4c2.126-1.335,4.306-2.624,6.541-3.864
		c-7.928,0.755-15.719,2.129-23.3,4.087c2.05-1.812,4.175-3.584,6.371-5.308C126.088,686.416,118.45,687.871,110.948,689.901z"/>
	<path id="_x3E_lightning" class="st22" d="M110.948,458.91c10.85-4.432,22.324-7.659,34.212-9.562
		c-2.113,1.423-4.171,2.886-6.169,4.389c8.438-1.452,17.07-2.214,25.812-2.238c-2.725,1.067-5.387,2.211-7.985,3.417
		c8.673,0.703,17.286,2.146,25.747,4.319c-12.992-1.538-25.893-1.354-38.377,0.399c2.126-1.335,4.306-2.624,6.541-3.864
		c-7.928,0.757-15.719,2.131-23.3,4.088c2.05-1.812,4.175-3.584,6.371-5.309C126.088,455.426,118.45,456.881,110.948,458.91z"/>
	<line id="_x3E_line" class="st21" x1="75.254" y1="500.35" x2="218.254" y2="500.35"/>
	<line id="_x3E_line_1_" class="st21" x1="75.254" y1="637.35" x2="218.254" y2="637.35"/>
</g>
<g id="next-question">
	<polygon class="st12" points="446.119,514.05 301.12,514.05 301.12,476.604 446.119,476.604 453.127,496.076 	"/>
</g>
<g id="btn-got-it">
	<path class="st10" d="M454.775,111.937c10.945-4.513,22.522-7.805,34.517-9.737c-2.134,1.447-4.207,2.938-6.226,4.469
		c8.514-1.479,17.224-2.255,26.039-2.282c-2.75,1.089-5.436,2.251-8.057,3.479c8.749,0.719,17.438,2.188,25.975,4.402
		c-13.105-1.566-26.119-1.381-38.716,0.408c2.146-1.36,4.344-2.673,6.6-3.937c-7.997,0.77-15.856,2.169-23.506,4.163
		c2.067-1.847,4.211-3.65,6.429-5.406C470.05,108.388,462.344,109.871,454.775,111.937z"/>
	<path class="st13" d="M477.539,84.594c-0.32,2.88-0.62,4.041-1.32,5.201c-0.96,1.621-2.26,2.441-3.841,2.441
		c-2.42,0-3.94-2.021-3.94-5.221c0-2.081,0.521-4.321,1.341-5.781c1.021-1.82,2.521-2.781,4.28-2.781c1.9,0,3.16,1.14,3.501,3.181
		l-2.66,1c-0.021-0.68-0.061-0.86-0.16-1.161c-0.141-0.44-0.5-0.68-0.979-0.68c-0.641,0-1.16,0.44-1.581,1.32
		c-0.6,1.28-0.979,3.241-0.979,5.062c0,1.78,0.521,2.68,1.54,2.68c1.021,0,1.643-0.92,1.922-2.9h-1.643l0.28-2.36L477.539,84.594
		L477.539,84.594z"/>
	<path class="st13" d="M480.417,88.475c0-1.201,0.318-2.541,0.84-3.541c0.681-1.32,1.801-2.041,3.143-2.041
		c1.802,0,2.819,1.22,2.819,3.421c0,3.581-1.561,5.881-3.961,5.881C481.396,92.195,480.417,90.895,480.417,88.475z M484.698,86.514
		c0-0.92-0.198-1.38-0.578-1.38c-0.66,0-1.224,1.58-1.224,3.4c0,0.9,0.224,1.42,0.62,1.42
		C484.178,89.955,484.698,88.394,484.698,86.514z"/>
	<path class="st13" d="M491.017,85.134h-0.84l0.261-2.061h0.841l0.302-2.46h2.461l-0.303,2.46h1.001l-0.238,2.061h-1l-0.86,6.881
		h-2.461L491.017,85.134z"/>
	<path class="st13" d="M503.276,83.073h2.461l-1.102,8.942h-2.461L503.276,83.073z M503.316,80.613c0-0.96,0.84-1.78,1.779-1.78
		c0.761,0,1.36,0.6,1.36,1.38c0,0.96-0.82,1.801-1.78,1.801C503.896,82.013,503.316,81.413,503.316,80.613z"/>
	<path class="st13" d="M509.316,85.134h-0.841l0.261-2.061h0.843l0.3-2.46h2.461l-0.301,2.46h1.001l-0.24,2.061h-1l-0.859,6.881
		h-2.462L509.316,85.134z"/>
	<path class="st13" d="M517.217,88.874c0.82,0,1.46,0.64,1.46,1.46c0,1.02-0.88,1.9-1.899,1.9c-0.841,0-1.46-0.64-1.46-1.48
		C515.316,89.755,516.196,88.874,517.217,88.874z M517.177,78.672h2.562l-1.142,9.342h-2.58L517.177,78.672z"/>
</g>
<g id="btn-continue">
	<path class="st14" d="M142.72,618.209l47.439,10.121v22.418l-47.415,9.339l-46.585-9.331v-23.221L142.72,618.209 M142.738,615.145
		l-49.578,9.933v28.139l49.578,9.931l50.422-9.931v-27.311L142.738,615.145L142.738,615.145z"/>
	<path class="st14" d="M112.042,638.271c-1.135,0.379-1.513,0.463-2.171,0.463c-1.373,0-2.787-0.615-3.74-1.625
		c-0.799-0.854-1.232-1.976-1.232-3.223c0-2.759,2.188-4.943,4.944-4.943c0.729,0,1.317,0.127,2.199,0.478v2.899
		c-0.574-0.688-1.261-1.022-2.103-1.022c-1.457,0-2.508,1.077-2.508,2.577c0,0.798,0.268,1.429,0.826,1.891
		c0.477,0.394,1.062,0.616,1.682,0.616c0.798,0,1.473-0.308,2.103-0.979V638.271L112.042,638.271z"/>
	<path class="st14" d="M116,630.037c0.883-0.744,2.115-1.178,3.418-1.178c1.556,0,2.83,0.521,3.824,1.567
		c0.867,0.911,1.346,2.115,1.346,3.418c0,1.472-0.646,2.857-1.752,3.796c-0.938,0.785-2.087,1.178-3.459,1.178
		c-2.941,0-5.127-2.156-5.127-5.07C114.25,632.361,114.895,630.975,116,630.037z M119.418,636.466c1.457,0,2.634-1.177,2.634-2.634
		c0-1.442-1.177-2.618-2.634-2.618c-1.442,0-2.633,1.176-2.633,2.591C116.785,635.289,117.947,636.466,119.418,636.466z"/>
	<path class="st14" d="M127.2,629.14h2.423l4.469,5.716v-5.716h2.424v9.344h-2.424l-4.469-5.716v5.716H127.2V629.14z"/>
	<path class="st14" d="M140.543,631.199h-1.977v-2.061h6.415v2.061h-2.017v7.283h-2.424L140.543,631.199L140.543,631.199z"/>
	<path class="st14" d="M147.052,629.14h2.424v9.344h-2.424V629.14z"/>
	<path class="st14" d="M152.61,629.14h2.426l4.468,5.716v-5.716h2.424v9.344h-2.424l-4.468-5.716v5.716h-2.426V629.14z"/>
	<path class="st14" d="M172.998,634.533c0,1.373-0.238,2.114-0.911,2.871c-0.771,0.867-1.862,1.315-3.222,1.315
		c-1.431,0-2.689-0.532-3.333-1.399c-0.49-0.658-0.675-1.414-0.675-2.787v-5.395h2.426v5.059c0,1.062,0.025,1.272,0.266,1.666
		c0.267,0.447,0.771,0.715,1.357,0.715c0.616,0,1.163-0.295,1.415-0.756c0.21-0.365,0.253-0.646,0.253-1.625v-5.059h2.424V634.533
		L172.998,634.533z"/>
	<path class="st14" d="M175.934,629.14h5.311v2.061h-2.887v1.555h2.731v2.061h-2.731v1.609h2.887v2.061h-5.311V629.14z"/>
	<path class="st14" d="M112.945,650.736c9.118-3.726,18.764-6.439,28.75-8.035c-1.774,1.193-3.505,2.426-5.185,3.688
		c7.09-1.222,14.346-1.859,21.689-1.883c-2.289,0.897-4.526,1.856-6.71,2.87c7.286,0.594,14.524,1.807,21.636,3.633
		c-10.918-1.293-21.757-1.141-32.248,0.337c1.785-1.122,3.617-2.205,5.496-3.248c-6.662,0.636-13.21,1.79-19.58,3.436
		c1.723-1.522,3.508-3.012,5.354-4.459C125.669,647.808,119.249,649.031,112.945,650.736z"/>
</g>
<g id="perfect-answer">
	<g id="XMLID_2433_">
		<polygon class="st19" points="588.093,117.029 573.368,109.385 573.368,92.544 588.093,84.9 602.819,92.544 602.819,109.385 		"/>
	</g>
	<polygon class="st14" points="588.093,88.743 591.065,96.664 599.083,97.139 592.901,102.607 594.884,110.721 588.093,106.281 
		581.302,110.721 583.284,102.607 577.104,97.139 585.122,96.664 	"/>
</g>
<g id="quiz-btn">
	<g id="_x3E_bg_1_">
		<polygon class="st19" points="808.999,122.756 867.999,134.756 927.999,122.756 927.999,89.756 867.999,76.756 808.999,88.756 		
			"/>
	</g>
	<path class="st13" d="M832.544,119.551c10.853-4.434,22.326-7.664,34.213-9.562c-2.112,1.422-4.17,2.885-6.169,4.387
		c8.438-1.451,17.07-2.213,25.811-2.238c-2.724,1.068-5.388,2.209-7.983,3.416c8.672,0.705,17.284,2.148,25.746,4.322
		c-12.992-1.539-25.893-1.355-38.375,0.4c2.125-1.336,4.305-2.625,6.541-3.865c-7.931,0.756-15.721,2.129-23.302,4.088
		c2.052-1.812,4.174-3.584,6.371-5.309C847.685,116.065,840.046,117.522,832.544,119.551z"/>
</g>
<g id="btn-generic">
	<path class="st13" d="M292.999,109.429l59,12l60-12V75.427l-60-13l0,0l-59,12V109.429z M295.999,76.878l55.979-11.386
		l57.021,12.354v29.123l-56.995,11.398l-56.005-11.391V76.878z"/>
	<path class="st13" d="M321.494,109.031c9.365-3.825,19.271-6.614,29.529-8.252c-1.824,1.227-3.6,2.491-5.326,3.787
		c7.283-1.253,14.734-1.91,22.277-1.934c-2.351,0.923-4.648,1.907-6.893,2.948c7.483,0.609,14.921,1.855,22.223,3.731
		c-11.213-1.329-22.346-1.171-33.122,0.346c1.834-1.153,3.716-2.266,5.646-3.336c-6.844,0.652-13.564,1.838-20.106,3.528
		c1.769-1.565,3.602-3.093,5.498-4.582C334.562,106.021,327.969,107.279,321.494,109.031z"/>
</g>
<g id="speaker">
	<path class="st1" d="M211.121,114.819c10.218-2.746,17.732-11.951,17.732-22.892c0-10.941-7.515-20.146-17.732-22.891"/>
	<path class="st1" d="M219.049,123.528c14.2-4.416,24.44-16.891,24.44-31.601c0-14.71-10.24-27.185-24.44-31.601"/>
	<path class="st1" d="M206.621,104.147c5.122-2.226,8.655-6.85,8.655-12.219c0-5.371-3.533-9.996-8.655-12.221"/>
	<polygon class="st13" points="191.285,100.965 191.285,82.889 198.912,78.098 198.912,105.756 	"/>
	<rect x="182.511" y="82.889" class="st13" width="11.273" height="18.075"/>
</g>
<g id="no-phone">
	<path class="st13" d="M102.09,127.677H65.708V63.678h36.382V127.677z M102.285,60.678H65.514c-1.55,0-2.807,1.256-2.807,2.806
		v64.388c0,1.549,1.257,2.806,2.807,2.806h36.771c1.55,0,2.806-1.257,2.806-2.806V63.484
		C105.09,61.934,103.834,60.678,102.285,60.678"/>
	<path class="st13" d="M95.339,113.743H72.458V70.112H95.34L95.339,113.743L95.339,113.743z M96.986,67.112H70.813
		c-0.748,0-1.354,0.605-1.354,1.354v46.922c0,0.748,0.606,1.355,1.354,1.355h26.173c0.748,0,1.354-0.607,1.354-1.355V68.465
		C98.339,67.717,97.734,67.112,96.986,67.112"/>
	<circle class="st2" cx="83.899" cy="95.677" r="49.5"/>
	<line class="st2" x1="117.899" y1="61.677" x2="49.899" y2="129.677"/>
	<line class="st1" x1="78.899" y1="121.896" x2="88.899" y2="121.896"/>
</g>
<g id="duty">
	<path class="st22" d="M495.169,349.435l16,8.375v18.221l-16,8.375l-16-8.375V357.81L495.169,349.435 M495.169,344.92l-20,10.469
		v23.062l20,10.469l20-10.469v-23.062L495.169,344.92L495.169,344.92z"/>
</g>
<g id="duty-active">
	<path class="st10" d="M495.169,294.435l16,8.375v18.221l-16,8.375l-16-8.375V302.81L495.169,294.435 M495.169,289.92l-20,10.469
		v23.062l20,10.469l20-10.469v-23.062L495.169,289.92L495.169,289.92z"/>
	<polygon class="st13" points="495.169,326.42 482.444,319.521 482.444,304.319 495.169,297.42 507.894,304.319 507.894,319.521 	
		"/>
</g>
<g id="duty-complete">
	<polygon class="st29" points="500.366,248.883 505.788,252.238 499.406,252.234 498.58,252.234 507.896,260.172 507.896,249.319 
		495.169,242.42 492.374,243.936 	"/>
	<polygon class="st29" points="491.482,262.331 486.388,259.1 492.425,258.99 494.765,258.947 482.441,249.49 482.441,264.521 
		495.169,271.42 500.906,268.31 	"/>
	<polygon class="st5" points="503.777,270.283 495.169,274.789 478.806,266.224 478.806,247.616 484.122,244.834 481.471,242.09 
		475.169,245.389 475.169,268.451 495.169,278.92 507.323,272.559 	"/>
	<polygon class="st5" points="495.169,234.92 485.935,239.754 489.528,242.004 495.169,239.051 511.532,247.616 511.532,266.224 
		508.882,267.611 511.63,270.304 515.169,268.451 515.169,245.389 	"/>
	<polygon class="st13" points="480.623,238.587 499.407,250.348 493.651,250.344 509.3,263.83 502.514,263.928 512.485,273.697 
		492.458,260.847 499.985,260.709 483.259,247.726 489.271,247.536 	"/>
</g>
<g id="btn-acknowledge">
	<g>
		<polygon class="st22" points="726.386,223.808 726.386,187.703 816.105,174.273 907.386,188.828 907.386,223.805 816.114,237.239 
					"/>
		<path class="st19" d="M816.098,175.791l89.788,14.317v32.401l-89.77,13.213l-88.23-13.207v-33.521L816.098,175.791
			 M816.112,172.755l-91.227,13.655V225.1l91.227,13.655l92.773-13.655v-37.552L816.112,172.755L816.112,172.755z"/>
	</g>
	<path class="st13" d="M781.078,219.549c10.851-4.432,22.326-7.663,34.213-9.562c-2.113,1.422-4.17,2.886-6.169,4.388
		c8.437-1.452,17.07-2.213,25.811-2.24c-2.725,1.069-5.388,2.21-7.985,3.416c8.673,0.706,17.286,2.149,25.746,4.323
		c-12.991-1.539-25.891-1.356-38.375,0.4c2.125-1.336,4.305-2.625,6.54-3.865c-7.928,0.756-15.719,2.13-23.3,4.088
		c2.05-1.813,4.175-3.584,6.371-5.309C796.22,216.064,788.581,217.52,781.078,219.549z"/>
</g>
</svg>
