<?xml version="1.0" encoding="utf-8"?>
<!-- Generator: Adobe Illustrator 15.0.0, SVG Export Plug-In . SVG Version: 6.00 Build 0)  -->
<!DOCTYPE svg PUBLIC "-//W3C//DTD SVG 1.1//EN" "http://www.w3.org/Graphics/SVG/1.1/DTD/svg11.dtd">
<svg version="1.1" id="Layer_1" xmlns="http://www.w3.org/2000/svg" xmlns:xlink="http://www.w3.org/1999/xlink" x="0px" y="0px"
	 width="2328.031px" height="768.5px" viewBox="0 0 2328.031 768.5" style="enable-background:new 0 0 2328.031 768.5;"
	 xml:space="preserve">
<style type="text/css">
<![CDATA[
	.st0{clip-path:url(#SVGID_6_);fill:none;stroke:#F9773E;stroke-miterlimit:10;}
	.st1{fill:none;stroke:#FFB81A;stroke-width:3;stroke-linecap:round;stroke-linejoin:round;stroke-miterlimit:10;}
	.st2{fill:none;stroke:#E03F07;stroke-width:3;stroke-miterlimit:10;}
	.st3{clip-path:url(#SVGID_16_);fill:none;stroke:#F9773E;stroke-miterlimit:10;}
	.st4{fill:none;stroke:#6B989F;stroke-width:2;stroke-miterlimit:10;}
	.st5{fill:none;stroke:#6B989F;stroke-width:0.7797;stroke-miterlimit:10;}
	.st6{fill:#53848C;}
	.st7{fill:none;stroke:#FFFFFF;stroke-width:6;stroke-miterlimit:10;}
	.st8{fill:none;stroke:#F9773E;stroke-miterlimit:10;}
	.st9{fill:none;stroke:#FFB81A;stroke-width:4;stroke-miterlimit:10;}
	.st10{clip-path:url(#SVGID_14_);fill:none;stroke:#F9773E;stroke-miterlimit:10;}
	.st11{fill:#F9773E;}
	.st12{opacity:0.5;fill:#6B989F;enable-background:new    ;}
	.st13{fill:none;stroke:#6B989F;stroke-miterlimit:10;}
	.st14{fill:#FF7931;}
	.st15{fill:#FFB81A;}
	.st16{fill:#FFFFFF;}
	.st17{clip-path:url(#SVGID_12_);fill:none;stroke:#F9773E;stroke-miterlimit:10;}
	.st18{fill:none;}
	.st19{clip-path:url(#SVGID_2_);fill:#F9773E;}
	.st20{fill:none;stroke:#335E6E;stroke-miterlimit:10;}
	.st21{fill:none;stroke:#335E6E;stroke-width:2;stroke-miterlimit:10;}
	.st22{fill:#335E6E;}
	.st23{fill:#345D6E;}
	.st24{fill:none;stroke:#FFB81A;stroke-width:2;stroke-linecap:round;stroke-miterlimit:10;}
	.st25{fill:#6B989F;}
	.st26{fill:none;stroke:#FFFFFF;stroke-width:1.4167;stroke-miterlimit:10;}
	.st27{clip-path:url(#SVGID_4_);fill:none;stroke:#F9773E;stroke-width:2;stroke-miterlimit:10;}
	.st28{fill:none;stroke:#F9773E;stroke-width:2;stroke-miterlimit:10;}
	.st29{clip-path:url(#SVGID_10_);fill:none;stroke:#F9773E;stroke-miterlimit:10;}
	.st30{fill:none;stroke:#FFB81A;stroke-width:2.9184;stroke-miterlimit:10;}
	.st31{clip-path:url(#SVGID_8_);fill:none;stroke:#F9773E;stroke-miterlimit:10;}
	.st32{fill:#71A8A8;}
	.st33{fill:#FFFFFF;stroke:#231F20;stroke-miterlimit:10;}
	.st34{clip-path:url(#SVGID_20_);fill:none;stroke:#F9773E;stroke-miterlimit:10;}
	.st35{clip-path:url(#SVGID_18_);fill:none;stroke:#F9773E;stroke-miterlimit:10;}
	.st36{fill:none;stroke:#FFFFFF;stroke-width:1.4167;stroke-linecap:round;stroke-miterlimit:10;}
	.st37{fill:none;stroke:#FFFFFF;stroke-width:1.4167;stroke-miterlimit:1;}
]]>
</style>
<symbol  id="New_Symbol" viewBox="-10.3 -10.3 20.6 20.6">
	<polygon class="st33" points="9.8,-9.8 -9.8,-9.8 -9.8,9.8 9.8,9.8 	"/>
</symbol>
<g id="first">
	
		<use xlink:href="#New_Symbol"  width="20.6" height="20.6" x="-10.3" y="-10.3" transform="matrix(0.7046 0 0 -0.7046 19.7051 317.3584)" style="overflow:visible;"/>
</g>
<g id="ep5-badge">
	<path id="_x3E_white_1_" class="st16" d="M228.254,310.25h-16.799v6.9h0.098v6.462l7.933,2.203l0.535-1.928l-6.468-1.797v-5.339
		h9.001v0.257c-0.101,0.495-0.286,1.021-0.632,1.39c-0.347,0.369-0.828,0.55-1.468,0.55h-2.6h-0.6v2h0.6h2.6h3.8v3.801h2v-3.801h2
		V310.25L228.254,310.25z M218.854,312.25v2.503h-1.699v-2.503H218.854z M213.455,314.753v-2.503h1.7v2.503H213.455z
		 M220.854,314.753v-2.503h1.7v2.503H220.854z M226.254,318.949h-1.7v-1.704c0.141-0.795,0.106-1.436,0.097-1.563l-0.066-0.929
		h-0.031v-2.503h1.7V318.949z"/>
	<g id="_x3E_yellow_3_">
		<g>
			<path class="st15" d="M219.854,304.15l12,6.299v13.701l-12,6.299l-12-6.299v-13.701L219.854,304.15 M219.854,301.75
				l-14.199,7.399v16.397l14.199,7.396l14.2-7.396V309.15L219.854,301.75L219.854,301.75z"/>
		</g>
	</g>
</g>
<g id="ep4-badge">
	<g id="_x3E_white_4_">
		<rect x="186.019" y="323.155" class="st16" width="8.213" height="2.123"/>
		<rect x="168.051" y="323.155" class="st16" width="7.354" height="2.123"/>
	</g>
	<g id="_x3E_yellow_4_">
		<path id="XMLID_403_" class="st15" d="M180.788,304.146l12.029,6.296v13.75l-12.029,6.297l-12.029-6.297v-13.75L180.788,304.146
			 M180.788,301.75l-14.152,7.408v16.32l14.152,7.408l14.152-7.408v-16.32L180.788,301.75L180.788,301.75z"/>
		<path class="st15" d="M180.78,312.31c-1.564,0-2.836-1.272-2.836-2.836c0-1.563,1.272-2.835,2.836-2.835
			c1.563,0,2.835,1.272,2.835,2.835C183.616,311.038,182.344,312.31,180.78,312.31z M180.78,308.438
			c-0.571,0-1.036,0.465-1.036,1.036c0,0.571,0.465,1.036,1.036,1.036c0.571,0,1.036-0.465,1.036-1.036
			C181.816,308.903,181.351,308.438,180.78,308.438z"/>
		<path class="st15" d="M185.448,321.225l1.638-0.746l-2.858-6.271l0.25-1.139h-7.395l0.248,1.128l-2.863,6.282l1.638,0.746
			l1.869-4.101l0.56,2.548l-0.651,7.102v0.688h1.8l-0.004-0.605l0.584-6.343h1.033l0.58,6.26v0.688h1.8l-0.004-0.771l-0.646-7.021
			l0.558-2.536L185.448,321.225z M180.167,318.714l-0.846-3.846h2.918l-0.845,3.846H180.167z"/>
	</g>
</g>
<g id="ep3-badge">
	<polygon id="_x3E_white_2_" class="st16" points="137.754,305.92 127.379,311.376 128.31,313.146 137.754,308.18 145.528,312.267 
		136.405,317.025 137.33,318.798 146.455,314.039 146.455,315.75 146.455,316.446 136.403,321.73 137.334,323.501 146.455,318.706 
		146.455,319.648 146.455,321.046 136.403,326.33 137.334,328.101 146.455,323.306 146.455,327.449 148.455,327.449 
		148.455,322.254 148.455,319.648 148.455,317.654 148.455,315.75 148.455,311.546 	"/>
	<g id="_x3E_yellow_2_">
		<g id="XMLID_68_">
			<path class="st15" d="M145.455,316.05c-0.1,0.396-0.4,0.7-0.8,0.7c-0.4,0-0.6-0.304-0.5-0.7c0.1-0.396,0.4-0.7,0.8-0.7
				S145.455,315.65,145.455,316.05z"/>
		</g>
		<g id="XMLID_67_">
			<path class="st15" d="M145.455,320.65c-0.1,0.396-0.4,0.696-0.8,0.696c-0.4,0-0.6-0.3-0.5-0.696c0.1-0.397,0.4-0.701,0.8-0.701
				S145.455,320.25,145.455,320.65z"/>
		</g>
		<g id="XMLID_66_">
			<path class="st15" d="M145.455,325.35c-0.1,0.4-0.4,0.7-0.8,0.7c-0.4,0-0.6-0.3-0.5-0.7c0.1-0.397,0.4-0.696,0.8-0.696
				S145.455,324.949,145.455,325.35z"/>
		</g>
		<path class="st15" d="M151.954,309.149l-14.2-7.399l-14.2,7.397v16.397l14.2,7.396l0.048-0.025l0.052,0.027v-0.055l14.1-7.344
			V309.149L151.954,309.149z M135.654,329.347l-9.9-5.195v-11.5l9.9,5.196V329.347z M149.754,324.15l-11.9,6.246V316.55
			l-11.905-6.203l11.805-6.197l12,6.299V324.15z"/>
	</g>
</g>
<g id="ep2-badge">
	<g id="_x3E_white">
		<polygon class="st16" points="94.749,317.613 95.759,315.887 89.536,312.242 94.518,309.636 93.591,307.864 86.554,311.545 
			86.554,319.65 88.554,319.65 88.554,313.985 		"/>
		<polygon class="st16" points="97.754,325.798 97.754,318.85 95.754,318.85 95.754,325.81 90.612,323.161 89.696,324.939 
			96.757,328.576 103.717,324.936 102.791,323.164 		"/>
		<polygon class="st16" points="99.717,307.864 98.791,309.636 103.825,312.27 97.648,315.887 98.659,317.613 104.754,314.043 
			104.754,319.65 106.754,319.65 106.754,311.545 		"/>
	</g>
	<g id="_x3E_yellow_1_">
		<g>
			<path class="st15" d="M96.754,304.15l12,6.299v13.701l-12,6.299l-12-6.299v-13.701L96.754,304.15 M96.754,301.75l-14.2,7.397
				v16.397l14.2,7.396l14.2-7.396v-16.396L96.754,301.75L96.754,301.75z"/>
		</g>
	</g>
</g>
<g id="ep1-badge">
	<g id="_x3E_white_3_">
		<polygon class="st16" points="49.252,312.634 47.856,314.065 50.096,316.25 42.955,316.25 42.955,318.25 50.181,318.25 
			47.838,320.651 49.27,322.048 53.969,317.232 		"/>
		<polygon class="st16" points="60.361,310.957 58.947,309.543 56.654,311.836 56.654,303.85 54.654,303.85 54.654,311.836 
			52.361,309.543 50.947,310.957 55.654,315.664 		"/>
		<polygon class="st16" points="50.956,323.634 52.352,325.065 54.654,322.821 54.654,330.75 56.654,330.75 56.654,322.821 
			58.956,325.065 60.352,323.634 55.654,319.053 		"/>
		<polygon class="st16" points="69.154,316.25 61.156,316.25 63.443,314.074 62.064,312.625 57.222,317.232 62.047,322.057 
			63.461,320.643 61.068,318.25 69.154,318.25 		"/>
	</g>
	<g id="_x3E_yellow">
		<g>
			<path class="st15" d="M55.654,304.15l12,6.299v13.701l-12,6.299l-12-6.299v-13.701L55.654,304.15 M55.654,301.75l-14.2,7.397
				v16.397l14.2,7.396l14.2-7.396v-16.396L55.654,301.75L55.654,301.75z"/>
		</g>
	</g>
</g>
<g id="rank-badge-cyber-cadet">
	<polygon class="st16" points="411.754,298.55 412.554,300.25 414.254,300.55 413.054,301.75 413.354,303.55 411.754,302.75 
		410.254,303.55 410.554,301.75 409.354,300.55 411.054,300.25 	"/>
	<polygon class="st16" points="387.754,298.55 388.455,300.25 390.155,300.55 388.955,301.75 389.254,303.55 387.754,302.75 
		386.254,303.55 386.554,301.75 385.254,300.55 387.054,300.25 	"/>
	<polygon class="st15" points="396.754,327.85 394.455,326.65 394.254,326.75 394.254,326.55 389.155,323.85 389.155,311.55 
		397.354,307.25 397.854,304.65 387.054,310.25 387.054,325.15 396.254,329.949 	"/>
	<rect x="385.254" y="298.55" class="st18" width="29" height="39.102"/>
	<polygon class="st15" points="401.754,304.65 402.155,307.25 410.354,311.55 410.354,323.85 403.354,327.55 402.554,330.449 
		412.455,325.15 412.455,310.25 	"/>
	<g>
		<polygon class="st16" points="400.455,327.85 397.655,329.85 399.754,320.55 396.254,323.35 398.354,310.65 401.854,310.65 
			400.455,316.25 403.254,314.15 400.854,324.15 403.455,322.15 398.955,337.65 		"/>
		<rect x="394.754" y="309.949" class="st16" width="9.897" height="1.397"/>
		<polygon class="st16" points="399.754,301.449 398.354,309.949 401.155,309.949 		"/>
		<g id="XMLID_45_">
			<g id="XMLID_157_">
				<g id="XMLID_185_">
					<g id="XMLID_229_">
						<polygon class="st16" points="399.754,300.05 398.354,300.85 398.354,302.75 399.754,303.55 401.155,302.75 401.155,300.85 
													"/>
					</g>
				</g>
			</g>
		</g>
	</g>
</g>
<g id="rank-badge-technical-cadet">
	<polygon class="st15" points="365.854,305.65 366.155,307.85 372.854,307.85 372.854,323.55 366.155,328.15 365.854,331.05 
		374.955,324.65 374.955,305.65 	"/>
	<polygon class="st15" points="361.155,328.25 354.554,323.85 354.554,307.85 361.155,307.85 361.554,305.65 352.354,305.65 
		352.455,324.949 361.554,331.05 	"/>
	<g>
		<g>
			<g>
				<rect x="349.104" y="298.55" class="st18" width="29" height="39.102"/>
				<polygon class="st16" points="363.655,310.65 360.854,313.449 363.655,337.55 366.455,313.449 				"/>
			</g>
		</g>
		<rect x="358.655" y="309.949" class="st16" width="9.899" height="1.397"/>
		<polygon class="st16" points="363.655,301.449 362.254,309.949 365.054,309.949 		"/>
		<g id="XMLID_166_">
			<g id="XMLID_168_">
				<g id="XMLID_169_">
					<g id="XMLID_170_">
						<polygon class="st16" points="363.655,300.05 362.254,300.85 362.254,302.75 363.655,303.55 365.054,302.75 365.054,300.85 
													"/>
					</g>
				</g>
			</g>
		</g>
	</g>
	<polygon class="st16" points="375.655,298.55 376.455,300.25 378.155,300.55 376.955,301.75 377.254,303.55 375.655,302.75 
		374.155,303.55 374.455,301.75 373.155,300.55 374.955,300.25 	"/>
	<polygon class="st16" points="351.655,298.55 352.354,300.25 354.054,300.55 352.854,301.75 353.155,303.55 351.655,302.75 
		350.155,303.55 350.455,301.75 349.155,300.55 350.854,300.25 	"/>
</g>
<g id="rank-badge-cadet-first-class">
	<rect x="313.054" y="298.55" class="st18" width="29" height="39.102"/>
	<g>
		<path class="st15" d="M336.754,307.85v15.7l-9.2,6.396l-9.1-6.196l-0.101-16h18.4 M338.854,305.65h-22.6l0.1,19.299l11.301,7.601
			l11.3-7.896v-19L338.854,305.65L338.854,305.65z"/>
	</g>
	<line class="st30" x1="316.854" y1="315.55" x2="338.254" y2="315.55"/>
	<polygon class="st16" points="339.554,298.55 340.354,300.25 342.054,300.55 340.854,301.75 341.155,303.55 339.554,302.75 
		338.054,303.55 338.354,301.75 337.054,300.55 338.854,300.25 	"/>
	<polygon class="st16" points="315.455,298.55 316.254,300.25 317.955,300.55 316.754,301.75 317.054,303.55 315.455,302.75 
		314.054,303.55 314.254,301.75 313.054,300.55 314.754,300.25 	"/>
</g>
<g id="rank-badge-cadet">
	<rect x="278.705" y="298.55" class="st18" width="29" height="39.102"/>
	<g>
		<path class="st15" d="M302.354,307.85v15.7l-9.199,6.399l-9.101-6.196l-0.1-16h18.399 M304.554,305.65h-22.7l0.101,19.299
			l11.3,7.604l11.3-7.896L304.554,305.65L304.554,305.65z"/>
	</g>
	<line class="st30" x1="282.554" y1="315.55" x2="303.955" y2="315.55"/>
</g>
<g id="rank-badge-recruit">
	<g>
		<path class="st15" d="M268.455,307.85v15.7l-9.2,6.396l-9.1-6.196l-0.101-16h18.4 M270.554,305.65h-22.7l0.101,19.299l11.3,7.604
			l11.3-7.896L270.554,305.65L270.554,305.65z"/>
	</g>
	<rect x="244.705" y="298.55" class="st18" width="29" height="39.102"/>
</g>
<g id="chapter-progress-chapter">
	<g id="XMLID_150_">
		<path class="st25" d="M58.955,351.949l3.5,1.897v4.103l-3.5,1.897l-3.5-1.897v-4.103L58.955,351.949 M58.955,349.55l-5.7,3v6.7
			l5.7,3l5.7-3v-6.7L58.955,349.55L58.955,349.55z"/>
	</g>
</g>
<g id="chapter-progress-slide">
	<rect x="68.154" y="352.65" class="st25" width="6.4" height="6.396"/>
</g>
<g id="chapter-progress-test">
	<polygon class="st12" points="101.855,362.35 97.754,364.55 89.754,360.449 89.754,351.449 92.355,350.05 90.955,348.75 
		87.955,350.35 87.955,361.449 97.754,366.449 103.554,363.449 	"/>
	<polygon class="st12" points="97.754,345.25 93.154,347.55 94.955,348.75 97.754,347.35 105.654,351.449 105.654,360.449 
		104.355,361.05 105.754,362.35 107.455,361.449 107.455,350.35 	"/>
	<g>
		<polygon class="st11" points="90.654,347.05 99.754,352.75 96.955,352.65 104.554,359.25 101.254,359.25 106.154,364.05 
			96.355,357.75 100.054,357.75 91.955,351.449 94.855,351.35 		"/>
	</g>
</g>
<g id="chapter-progress-duties">
	<circle class="st25" cx="81.254" cy="355.85" r="3.2"/>
</g>
<g id="list-progress-base">
	<g id="hex-outer_1_">
		<g id="XMLID_1080_">
			<path class="st11" d="M168.355,343.15l11.3,5.896v12.899l-11.3,5.897l-11.3-5.897V349.05L168.355,343.15 M168.355,339.949
				l-14.2,7.397v16.4l14.2,7.397l14.2-7.396v-16.4L168.355,339.949L168.355,339.949z"/>
		</g>
	</g>
	<g id="hex-inner_1_">
		<g id="XMLID_2384_">
			<polygon class="st15" points="168.355,365.85 159.254,360.949 159.254,350.05 168.355,345.15 177.355,350.05 177.355,360.85 			
				"/>
		</g>
	</g>
</g>
<g id="list-progress-complete">
	<g id="hex-inner">
		<g>
			<polygon class="st32" points="139.054,349.75 142.955,352.15 138.455,352.15 137.754,352.15 144.455,357.85 144.455,350.05 
				135.355,345.15 133.355,346.15 			"/>
		</g>
		<g>
			<polygon class="st32" points="132.754,359.449 129.154,357.05 133.355,357.05 135.054,356.949 126.355,350.25 126.355,360.949 
				135.355,365.85 139.455,363.65 			"/>
		</g>
	</g>
	<g id="hex-outer">
		<polygon class="st6" points="141.254,364.75 135.355,367.949 124.054,361.949 124.054,349.05 127.654,347.15 125.654,345.05 
			121.254,347.35 121.254,363.65 135.355,371.05 144.054,366.55 		"/>
		<polygon class="st6" points="135.355,339.949 128.754,343.35 131.654,345.15 135.355,343.15 146.754,349.05 146.754,361.949 
			144.955,362.85 147.154,364.949 149.554,363.65 149.554,347.35 		"/>
	</g>
	<g id="lightning_1_">
		<g id="lightning">
			<polygon class="st15" points="124.955,342.449 138.455,350.85 134.355,350.85 145.554,360.449 140.654,360.449 147.754,367.449 
				133.455,358.25 138.855,358.25 126.855,349.05 131.254,348.85 			"/>
		</g>
	</g>
</g>
<g id="ctanlee">
	<circle class="st16" cx="231.254" cy="372.549" r="6.399"/>
	<path class="st7" d="M235.754,388.949c7.2-2,12.5-8.5,12.5-16.396"/>
	<path class="st7" d="M214.254,372.55c0,7.8,5.3,14.396,12.5,16.396"/>
	<path class="st7" d="M243.054,360.35c-3.1-2.897-7.2-4.8-11.8-4.8c-4.7,0-8.9,1.896-12,4.896"/>
</g>
<g id="action-btn-fist">
	<polygon class="st16" points="408.754,433.55 377.054,416.949 377.054,380.449 408.754,363.85 440.455,380.449 440.455,416.949 	
		"/>
	<polygon class="st11" points="408.754,431.15 379.254,415.65 379.254,381.65 408.754,366.25 438.254,381.65 438.254,415.65 	"/>
	<path class="st23" d="M415.354,359.35c0,0,7.4,2,10.104,3.4c-3.397,6.5-11.5,2.397-11.5,2.397s-2.3,2.799-3,3.603
		c11.103,5.196,26.2,0.696,26.2,0.696l-0.897,5.897l-5.603,13.5l-9.7,5l-17.699,35.306l-20.701-10.803l25.799-32.397l-2.698-19.103
		L415.354,359.35z"/>
	<path class="st26" d="M415.354,359.35c0,0,7.4,2,10.104,3.4c-3.397,6.5-11.5,2.397-11.5,2.397s-2.3,2.799-3,3.603
		c11.103,5.196,26.2,0.696,26.2,0.696l-0.897,5.897l-5.603,13.5l-9.7,5l-17.699,35.306l-20.701-10.803l25.799-32.397l-2.698-19.103
		L415.354,359.35z"/>
	<path class="st23" d="M421.054,352.15l-2.103-1.104c-1.8-0.896-3.897-0.2-4.8,1.5l-7,13.396l8.5,4.397l7-13.397
		C423.554,355.15,422.854,353.05,421.054,352.15"/>
	<path class="st26" d="M421.054,352.15l-2.103-1.104c-1.8-0.896-3.897-0.2-4.8,1.5l-7,13.396l8.5,4.397l7-13.397
		C423.554,355.15,422.854,353.05,421.054,352.15z"/>
	<path class="st23" d="M427.554,353.55l2.604,1.7c1.3,0.8,1.696,2.5,0.8,3.8l-7.3,11.2c-3-0.9-4.397-2.103-6.304-4.304l6.304-11.396
		C424.554,353.25,426.254,352.75,427.554,353.55"/>
	<path class="st26" d="M427.554,353.55l2.604,1.7c1.3,0.8,1.696,2.5,0.8,3.8l-7.3,11.2c-3-0.9-4.397-2.103-6.304-4.304l6.304-11.396
		C424.554,353.25,426.254,352.75,427.554,353.55z"/>
	<path class="st23" d="M435.554,361.65l-1.896-1.304c-1.304-0.897-3-0.5-3.804,0.7l-6.1,9.2c1.3,2,3.1,3.6,6,4l6.397-8.9
		C437.054,364.15,436.754,362.449,435.554,361.65"/>
	<path class="st26" d="M435.554,361.65l-1.896-1.304c-1.304-0.897-3-0.5-3.804,0.7l-6.1,9.2c1.3,2,3.1,3.6,6,4l6.397-8.9
		C437.054,364.15,436.754,362.449,435.554,361.65z"/>
	<path class="st23" d="M440.155,370.85l-5.302,6.9c-2.302-0.7-3.898-1.9-5.102-3.4l5.3-7.3c0.897-1.3,2.8-1.5,4-0.5l0.7,0.604
		C440.854,368.05,441.055,369.65,440.155,370.85"/>
	<path class="st26" d="M440.155,370.85l-5.302,6.9c-2.302-0.7-3.898-1.9-5.102-3.4l5.3-7.3c0.897-1.3,2.8-1.5,4-0.5l0.7,0.604
		C440.854,368.05,441.055,369.65,440.155,370.85z"/>
	<path class="st23" d="M431.054,380.75c0.897-0.603,3.8-3,3.8-3c-2.1-0.4-3.8-1.603-5.1-3.4l-2.803,2.7
		c-1.104,1-0.897,2.7,0.303,3.5l0.6,0.396C428.854,381.55,430.254,381.35,431.054,380.75"/>
	<path class="st37" d="M431.054,380.75c0.897-0.603,3.8-3,3.8-3c-2.1-0.4-3.8-1.603-5.1-3.4l-2.803,2.7
		c-1.104,1-0.897,2.7,0.303,3.5l0.6,0.396C428.854,381.55,430.254,381.35,431.054,380.75z"/>
	<path class="st23" d="M423.254,377.65l-1.2-0.897c-0.8-0.603-1-1.7-0.5-2.603l2.2-3.897c1.397,2.5,3.397,3.8,6,4l-3.4,3.196
		C425.554,378.35,424.254,378.35,423.254,377.65"/>
	<path class="st37" d="M423.254,377.65l-1.2-0.897c-0.8-0.603-1-1.7-0.5-2.603l2.2-3.897c1.397,2.5,3.397,3.8,6,4l-3.4,3.196
		C425.554,378.35,424.254,378.35,423.254,377.65z"/>
	<path class="st23" d="M414.655,371.449l6,4.304l3.103-5.5c-3-0.7-4.5-1.804-6.303-4.304L414.655,371.449z"/>
	<path class="st26" d="M414.655,371.449l6,4.304l3.103-5.5c-3-0.7-4.5-1.804-6.303-4.304L414.655,371.449z"/>
	<path class="st23" d="M383.054,418.15l20.897-33.397l-2.197-19l10.8-10.2c0,0,10.104,5.3,12.8,6.7
		c-3.396,6.5-10.101,2.3-10.101,2.3s-1.302,2.896-1.899,3.7c9,4.696,10.804,9,3.5,16.397"/>
	<path class="st36" d="M383.054,418.15l20.897-33.397l-2.197-19l10.8-10.2c0,0,10.104,5.3,12.8,6.7
		c-3.396,6.5-10.101,2.3-10.101,2.3s-1.302,2.896-1.899,3.7c9,4.696,10.804,9,3.5,16.397"/>
	<path class="st16" d="M399.054,420.35c0.897-8.3,2.8-16.5,5.604-24.6c0.196,1.8,0.396,3.6,0.696,5.3
		c1.9-5.8,4.4-11.396,7.304-16.896c-0.304,2.103-0.397,4.103-0.604,6.103c2.3-3.5,4.7-6.804,7.397-10c1.303-1.603,1.7-1.2,0.603,0.5
		c-3.8,6.102-6.896,12.5-9.3,19c-0.103-1.804-0.2-3.603-0.2-5.398c-2.2,5.198-4,10.5-5.3,15.898c-0.4-1.898-0.803-3.804-1.2-5.804
		C401.955,409.65,400.254,414.949,399.054,420.35"/>
</g>
<g id="mini-generation">
	<rect x="293.554" y="592.549" class="st18" width="179" height="132.801"/>
	<rect x="331.155" y="641.649" class="st25" width="87.701" height="11.5"/>
	<path class="st11" d="M417.455,651.549h-84.7v-8.396h84.7V651.549L417.455,651.549z M420.455,640.149h-3h-84.7h-3v3v8.5v3h3h84.7h3
		v-3v-8.5V640.149L420.455,640.149z"/>
	<rect x="325.554" y="648.35" class="st25" width="99" height="66.5"/>
	<path class="st11" d="M423.054,713.35h-96v-63.5h96V713.35z M426.054,646.85h-3h-96h-3v3v63.5v3h3h96h3v-3v-63.5V646.85z"/>
	<polygon class="st11" points="316.655,716.35 338.455,716.35 336.054,594.449 318.955,594.449 	"/>
	<rect x="333.655" y="644.149" class="st25" width="82.701" height="6.5"/>
	<path class="st22" d="M415.455,649.549h-80.7v-4.396h80.7V649.549L415.455,649.549z M417.455,643.149h-84.7v8.5h84.7V643.149
		L417.455,643.149z"/>
	<rect x="328.054" y="650.85" class="st25" width="94" height="61.5"/>
	<path class="st22" d="M421.054,711.35h-92v-59.5h92V711.35z M423.054,649.85h-96v63.5h96V649.85z"/>
	<rect x="418.155" y="652.649" class="st16" width="7.103" height="1.396"/>
	<rect x="418.155" y="652.649" class="st22" width="7.103" height="1.396"/>
	<rect x="414.155" y="682.649" class="st16" width="7.103" height="1.3"/>
	<rect x="414.155" y="682.649" class="st21" width="7.103" height="1.3"/>
	<path class="st16" d="M325.655,653.35h5.7H325.655z"/>
	<rect x="324.955" y="652.649" class="st22" width="7.1" height="1.396"/>
	<rect x="328.955" y="682.649" class="st16" width="7.1" height="1.3"/>
	<rect x="328.955" y="682.649" class="st21" width="7.1" height="1.3"/>
	<rect x="327.155" y="651.35" class="st16" width="95.803" height="1.196"/>
	<rect x="325.655" y="649.85" class="st22" width="98.803" height="4.196"/>
	<rect x="372.855" y="659.75" class="st15" width="5.5" height="10.5"/>
	<path class="st22" d="M377.455,669.25h-3.5v-8.5h3.5V669.25z M379.455,658.75h-2h-3.5h-2v2v8.5v2h2h3.5h2v-2v-8.5V658.75z"/>
	<rect x="353.955" y="659.75" class="st15" width="5.5" height="10.5"/>
	<path class="st22" d="M358.554,669.25h-3.5v-8.5h3.5V669.25z M360.554,658.75h-2h-3.5h-2v2v8.5v2h2h3.5h2v-2v-8.5V658.75z"/>
	<rect x="363.455" y="659.75" class="st15" width="5.5" height="10.5"/>
	<path class="st22" d="M367.955,669.25h-3.5v-8.5h3.5V669.25z M369.955,658.75h-2h-3.5h-2v2v8.5v2h2h3.5h2v-2v-8.5V658.75z"/>
	<rect x="401.254" y="659.75" class="st15" width="5.5" height="10.5"/>
	<path class="st22" d="M405.754,669.25h-3.5v-8.5h3.5V669.25z M407.754,658.75h-2h-3.5h-2v2v8.5v2h2h3.5h2v-2v-8.5V658.75z"/>
	<rect x="410.655" y="659.75" class="st15" width="5.5" height="10.5"/>
	<path class="st22" d="M415.155,669.25h-3.5v-8.5h3.5V669.25z M417.155,658.75h-2h-3.5h-2v2v8.5v2h2h3.5h2v-2v-8.5V658.75z"/>
	<rect x="382.355" y="659.75" class="st15" width="5.5" height="10.5"/>
	<path class="st22" d="M386.855,669.25h-3.5v-8.5h3.5V669.25z M388.855,658.75h-2h-3.5h-2v2v8.5v2h2h3.5h2v-2v-8.5V658.75z"/>
	<rect x="391.754" y="659.75" class="st15" width="5.5" height="10.5"/>
	<path class="st22" d="M396.355,669.25h-3.5v-8.5h3.5V669.25z M398.355,658.75h-2h-3.5h-2v2v8.5v2h2h3.5h2v-2v-8.5V658.75z"/>
	<rect x="335.155" y="659.75" class="st15" width="5.5" height="10.5"/>
	<path class="st22" d="M339.655,669.25h-3.5v-8.5h3.5V669.25z M341.655,658.75h-2h-3.5h-2v2v8.5v2h2h3.5h2v-2v-8.5V658.75z"/>
	<rect x="344.554" y="659.75" class="st15" width="5.5" height="10.5"/>
	<path class="st22" d="M349.054,669.25h-3.5v-8.5h3.5V669.25z M351.054,658.75h-2h-3.5h-2v2v8.5v2h2h3.5h2v-2v-8.5V658.75z"/>
	<rect x="401.254" y="696.449" class="st15" width="5.5" height="10.5"/>
	<path class="st22" d="M405.754,705.949h-3.5v-8.5h3.5V705.949z M407.754,695.449h-2h-3.5h-2v2v8.5v2h2h3.5h2v-2v-8.5V695.449z"/>
	<rect x="410.655" y="696.449" class="st15" width="5.5" height="10.5"/>
	<path class="st22" d="M415.155,705.949h-3.5v-8.5h3.5V705.949z M417.155,695.449h-2h-3.5h-2v2v8.5v2h2h3.5h2v-2v-8.5V695.449z"/>
	<rect x="335.155" y="696.449" class="st15" width="5.5" height="10.5"/>
	<path class="st22" d="M339.655,705.949h-3.5v-8.5h3.5V705.949z M341.655,695.449h-2h-3.5h-2v2v8.5v2h2h3.5h2v-2v-8.5V695.449z"/>
	<rect x="344.554" y="696.449" class="st15" width="5.5" height="10.5"/>
	<path class="st22" d="M349.054,705.949h-3.5v-8.5h3.5V705.949z M351.054,695.449h-2h-3.5h-2v2v8.5v2h2h3.5h2v-2v-8.5V695.449z"/>
	<rect x="315.155" y="599.649" class="st11" width="24.7" height="4"/>
	<path class="st11" d="M338.855,602.549h-22.601v-1.896h22.601V602.549z M340.955,598.549h-2.103h-22.601h-2.103v2.104v1.896v2.104
		h2.103h22.604h2.103v-2.104v-1.896L340.955,598.549L340.955,598.549z"/>
	<g>
		<g>
			<g>
				<g>
					<g>
						<g>
							<g>
								<g>
									<defs>
										<path id="SVGID_1_" d="M428.155,685.75v19.104h15.101c0.103-2.198,1.896-3.898,4.103-3.898c2.196,0,4,1.7,4.104,3.898
											h14.799V685.75H428.155z"/>
									</defs>
									<clipPath id="SVGID_2_">
										<use xlink:href="#SVGID_1_"  style="overflow:visible;"/>
									</clipPath>
									<path class="st19" d="M464.355,713.35h-34.201v-25.601h34.201V713.35z M466.355,685.75h-38.201v29.604h38.201V685.75z"/>
								</g>
							</g>
						</g>
					</g>
				</g>
			</g>
		</g>
		<g>
			<g>
				<g>
					<g>
						<g>
							<g>
								<g>
									<defs>
										<path id="SVGID_3_" d="M428.155,685.75v19.104h15.101c0.103-2.198,1.896-3.898,4.103-3.898c2.196,0,4,1.7,4.104,3.898
											h14.799V685.75H428.155z"/>
									</defs>
									<clipPath id="SVGID_4_">
										<use xlink:href="#SVGID_3_"  style="overflow:visible;"/>
									</clipPath>
									<circle class="st27" cx="447.355" cy="705.049" r="17.6"/>
								</g>
							</g>
						</g>
					</g>
				</g>
			</g>
		</g>
		<g>
			<g>
				<g>
					<g>
						<g>
							<g>
								<g>
									<defs>
										<path id="SVGID_5_" d="M428.155,685.75v19.104h15.101c0.103-2.198,1.896-3.898,4.103-3.898c2.196,0,4,1.7,4.104,3.898
											h14.799V685.75H428.155z"/>
									</defs>
									<clipPath id="SVGID_6_">
										<use xlink:href="#SVGID_5_"  style="overflow:visible;"/>
									</clipPath>
									<polyline class="st0" points="447.355,705.049 436.754,700.649 438.254,695.949 447.355,705.049 									"/>
								</g>
							</g>
						</g>
					</g>
				</g>
			</g>
		</g>
		<g>
			<g>
				<g>
					<g>
						<g>
							<g>
								<g>
									<defs>
										<path id="SVGID_7_" d="M428.155,685.75v19.104h15.101c0.103-2.198,1.896-3.898,4.103-3.898c2.196,0,4,1.7,4.104,3.898
											h14.799V685.75H428.155z"/>
									</defs>
									<clipPath id="SVGID_8_">
										<use xlink:href="#SVGID_7_"  style="overflow:visible;"/>
									</clipPath>
									<polyline class="st31" points="447.355,705.049 435.855,705.049 435.455,700.149 447.355,705.049 									"/>
								</g>
							</g>
						</g>
					</g>
				</g>
			</g>
		</g>
		<g>
			<g>
				<g>
					<g>
						<g>
							<g>
								<g>
									<defs>
										<path id="SVGID_9_" d="M428.155,685.75v19.104h15.101c0.103-2.198,1.896-3.898,4.103-3.898c2.196,0,4,1.7,4.104,3.898
											h14.799V685.75H428.155z"/>
									</defs>
									<clipPath id="SVGID_10_">
										<use xlink:href="#SVGID_9_"  style="overflow:visible;"/>
									</clipPath>
									<polyline class="st29" points="447.355,705.049 458.055,700.649 460.254,705.049 447.355,705.049 									"/>
								</g>
							</g>
						</g>
					</g>
				</g>
			</g>
		</g>
		<g>
			<g>
				<g>
					<g>
						<g>
							<g>
								<g>
									<defs>
										<path id="SVGID_11_" d="M428.155,685.75v19.104h15.101c0.103-2.198,1.896-3.898,4.103-3.898c2.196,0,4,1.7,4.104,3.898
											h14.799V685.75H428.155z"/>
									</defs>
									<clipPath id="SVGID_12_">
										<use xlink:href="#SVGID_11_"  style="overflow:visible;"/>
									</clipPath>
									<polyline class="st17" points="447.355,705.049 455.555,696.949 459.254,700.149 447.355,705.049 									"/>
								</g>
							</g>
						</g>
					</g>
				</g>
			</g>
		</g>
		<g>
			<g>
				<g>
					<g>
						<g>
							<g>
								<g>
									<defs>
										<path id="SVGID_13_" d="M428.155,685.75v19.104h15.101c0.103-2.198,1.896-3.898,4.103-3.898c2.196,0,4,1.7,4.104,3.898
											h14.799V685.75H428.155z"/>
									</defs>
									<clipPath id="SVGID_14_">
										<use xlink:href="#SVGID_13_"  style="overflow:visible;"/>
									</clipPath>
									<polyline class="st10" points="447.355,705.049 451.855,694.449 456.555,695.949 447.355,705.049 									"/>
								</g>
							</g>
						</g>
					</g>
				</g>
			</g>
		</g>
		<g>
			<g>
				<g>
					<g>
						<g>
							<g>
								<g>
									<defs>
										<path id="SVGID_15_" d="M428.155,685.75v19.104h15.101c0.103-2.198,1.896-3.898,4.103-3.898c2.196,0,4,1.7,4.104,3.898
											h14.799V685.75H428.155z"/>
									</defs>
									<clipPath id="SVGID_16_">
										<use xlink:href="#SVGID_15_"  style="overflow:visible;"/>
									</clipPath>
									<polyline class="st3" points="447.355,705.049 447.355,693.549 452.355,693.25 447.355,705.049 									"/>
								</g>
							</g>
						</g>
					</g>
				</g>
			</g>
		</g>
		<g>
			<g>
				<g>
					<g>
						<g>
							<g>
								<g>
									<defs>
										<path id="SVGID_17_" d="M428.155,685.75v19.104h15.101c0.103-2.198,1.896-3.898,4.103-3.898c2.196,0,4,1.7,4.104,3.898
											h14.799V685.75H428.155z"/>
									</defs>
									<clipPath id="SVGID_18_">
										<use xlink:href="#SVGID_17_"  style="overflow:visible;"/>
									</clipPath>
									<polyline class="st35" points="447.355,705.049 442.955,694.449 447.355,692.25 447.355,705.049 									"/>
								</g>
							</g>
						</g>
					</g>
				</g>
			</g>
		</g>
		<g>
			<g>
				<g>
					<g>
						<g>
							<g>
								<g>
									<defs>
										<path id="SVGID_19_" d="M428.155,685.75v19.104h15.101c0.103-2.198,1.896-3.898,4.103-3.898c2.196,0,4,1.7,4.104,3.898
											h14.799V685.75H428.155z"/>
									</defs>
									<clipPath id="SVGID_20_">
										<use xlink:href="#SVGID_19_"  style="overflow:visible;"/>
									</clipPath>
									<polyline class="st34" points="447.355,705.049 439.254,696.949 442.455,693.25 447.355,705.049 									"/>
								</g>
							</g>
						</g>
					</g>
				</g>
			</g>
		</g>
	</g>
	<path class="st11" d="M466.754,714.35h-38.898v-7.801h38.898V714.35z M468.754,704.549h-42.898v11.801h42.898V704.549z"/>
	<path class="st28" d="M443.254,712.25h8.301v-7.201c0-2.299-1.897-4.1-4.199-4.1c-2.301,0-4.102,1.897-4.102,4.1V712.25z"/>
	<path class="st11" d="M451.555,713.949h-8.699v-1.3h8.699V713.949L451.555,713.949z M453.555,710.649h-12.699v5.3h12.699V710.649
		L453.555,710.649z"/>
	<line class="st28" x1="451.455" y1="708.649" x2="443.055" y2="708.649"/>
</g>
<g id="mini-substation">
	<rect x="673.846" y="592.549" class="st18" width="179" height="132.8"/>
	<rect x="713.746" y="642.948" class="st25" width="102.6" height="71.897"/>
	<path class="st11" d="M814.846,713.349h-99.6V644.45h99.6V713.349z M817.846,641.448h-3h-99.6h-3v3v68.897v3h3h99.6h3v-3v-68.897
		V641.448z"/>
	<rect x="709.945" y="641.948" class="st25" width="110.201" height="8.604"/>
	<path class="st11" d="M818.646,649.049H711.445v-5.601h107.201V649.049z M821.646,640.448h-3H711.445h-3v3v5.604v3h3h107.201h3v-3
		v-5.604V640.448z"/>
	<polyline class="st8" points="696.746,673.149 725.547,715.649 727.445,715.649 720.346,673.149 696.746,673.149 689.646,715.649 
		691.646,715.649 720.346,673.149 	"/>
	<polygon class="st8" points="696.746,673.149 720.346,673.149 718.047,657.849 699.047,657.849 	"/>
	<line class="st8" x1="696.746" y1="673.149" x2="718.047" y2="657.849"/>
	<line class="st8" x1="699.047" y1="657.849" x2="720.346" y2="673.149"/>
	<polygon class="st8" points="700.547,644.049 716.547,644.049 718.047,657.849 699.047,657.849 	"/>
	<line class="st8" x1="718.047" y1="657.849" x2="700.547" y2="644.049"/>
	<line class="st8" x1="716.547" y1="644.049" x2="699.047" y2="657.849"/>
	<polygon class="st8" points="700.547,644.049 716.547,644.049 715.547,631.349 701.547,631.349 	"/>
	<line class="st8" x1="700.547" y1="644.049" x2="715.547" y2="631.349"/>
	<line class="st8" x1="701.547" y1="631.349" x2="716.547" y2="644.049"/>
	<polygon class="st8" points="677.346,631.349 739.746,631.349 715.547,619.049 702.047,619.049 	"/>
	<polygon class="st8" points="702.047,619.049 715.547,619.049 715.547,631.349 701.547,631.349 	"/>
	<polyline class="st8" points="715.547,619.049 701.547,631.349 715.547,631.349 702.047,619.049 	"/>
	<polyline class="st8" points="720.846,621.649 715.547,631.349 701.547,631.349 696.746,621.649 	"/>
	<line class="st8" x1="696.746" y1="631.149" x2="689.146" y2="625.549"/>
	<line class="st8" x1="720.846" y1="631.149" x2="727.945" y2="625.549"/>
	<line class="st8" x1="727.945" y1="625.549" x2="727.945" y2="631.349"/>
	<line class="st8" x1="696.746" y1="621.649" x2="696.746" y2="631.149"/>
	<line class="st8" x1="720.846" y1="631.149" x2="720.846" y2="621.649"/>
	<polygon class="st8" points="702.047,619.049 715.547,619.049 714.047,610.948 703.047,610.948 	"/>
	<polyline class="st8" points="703.047,610.948 715.547,619.049 702.047,619.049 714.047,610.948 	"/>
	<polygon class="st8" points="704.547,601.049 712.547,601.049 714.047,610.948 703.047,610.948 	"/>
	<polygon class="st8" points="704.547,601.149 712.547,601.149 728.547,610.948 688.646,610.948 	"/>
	<polyline class="st8" points="712.547,601.149 703.047,610.948 714.047,610.948 704.547,601.149 	"/>
	<polyline class="st8" points="718.346,605.349 714.047,610.948 703.047,610.948 698.746,605.349 	"/>
	<line class="st8" x1="698.746" y1="605.349" x2="698.746" y2="610.749"/>
	<line class="st8" x1="718.346" y1="610.749" x2="718.346" y2="605.349"/>
	<line class="st8" x1="729.646" y1="614.948" x2="729.646" y2="611.448"/>
	<line class="st8" x1="741.246" y1="635.249" x2="741.246" y2="631.749"/>
	<line class="st8" x1="687.445" y1="614.948" x2="687.445" y2="611.448"/>
	<rect x="716.246" y="645.448" class="st25" width="97.6" height="66.897"/>
	<path class="st22" d="M812.846,711.349h-95.6V646.45h95.6V711.349z M814.846,644.448h-99.6v68.897h99.6V644.448z"/>
	<rect x="712.445" y="644.448" class="st25" width="105.201" height="3.604"/>
	<path class="st22" d="M816.646,647.049H713.445v-1.601h103.201V647.049z M818.646,643.448H711.445v5.604h107.201V643.448z"/>
	<rect x="710.646" y="647.549" class="st22" width="108.799" height="1.5"/>
	<line class="st21" x1="813.146" y1="705.349" x2="716.945" y2="705.349"/>
	<rect x="745.047" y="655.249" class="st15" width="5.799" height="11.196"/>
	<path class="st22" d="M749.846,665.448h-3.799v-9.199h3.799V665.448z M751.846,654.249h-2h-3.799h-2v2v9.196v2h2h3.799h2v-2v-9.196
		V654.249z"/>
	<rect x="755.146" y="655.249" class="st15" width="5.799" height="11.196"/>
	<path class="st22" d="M759.945,665.448h-3.799v-9.199h3.799V665.448z M761.945,654.249h-2h-3.799h-2v2v9.196v2h2h3.799h2v-2v-9.196
		V654.249z"/>
	<rect x="724.846" y="655.249" class="st15" width="5.806" height="11.196"/>
	<path class="st22" d="M729.646,665.448h-3.806v-9.199h3.806V665.448z M731.646,654.249h-2h-3.806h-2v2v9.196v2h2h3.806h2v-2v-9.196
		V654.249z"/>
	<rect x="734.945" y="655.249" class="st15" width="5.801" height="11.196"/>
	<path class="st22" d="M739.746,665.448h-3.801v-9.199h3.801V665.448z M741.746,654.249h-2h-3.801h-2v2v9.196v2h2h3.801h2v-2v-9.196
		V654.249z"/>
	<rect x="745.047" y="669.849" class="st15" width="5.799" height="11.2"/>
	<path class="st22" d="M749.846,680.049h-3.799v-9.2h3.799V680.049z M751.846,668.849h-2h-3.799h-2v2v9.2v2h2h3.799h2v-2v-9.2
		V668.849z"/>
	<rect x="724.846" y="669.849" class="st15" width="5.806" height="11.2"/>
	<path class="st22" d="M729.646,680.049h-3.806v-9.2h3.806V680.049z M731.646,668.849h-2h-3.806h-2v2v9.2v2h2h3.806h2v-2v-9.2
		V668.849z"/>
	<rect x="734.945" y="669.849" class="st15" width="5.801" height="11.2"/>
	<path class="st22" d="M739.746,680.049h-3.801v-9.2h3.801V680.049z M741.746,668.849h-2h-3.801h-2v2v9.2v2h2h3.801h2v-2v-9.2
		V668.849z"/>
	<rect x="831.246" y="695.649" class="st11" width="7" height="8.196"/>
	<rect x="827.746" y="704.249" class="st11" width="14.801" height="1.6"/>
	<path class="st11" d="M841.547,706.749v8.6l0,0l-10.896-8.6H841.547z M842.547,705.749h-14.801l13.5,10.6h1.4v-10.6H842.547z"/>
	<path class="st11" d="M839.646,706.749l-10.9,8.6l0,0v-8.6H839.646z M842.547,705.749h-14.801v10.6h1.4L842.547,705.749z"/>
	<path class="st11" d="M844.547,699.749c0,1.397-1.301,2.5-2,2.5c-0.701,0-1.201-1.103-1.201-2.5c0-1.4,0.5-2.5,1.201-2.5
		C843.246,697.249,844.547,698.349,844.547,699.749"/>
	<path class="st11" d="M825.945,699.749c0,1.397,1.301,2.5,2,2.5c0.701,0,1.201-1.103,1.201-2.5c0-1.4-0.5-2.5-1.201-2.5
		C827.246,697.249,825.945,698.349,825.945,699.749"/>
	<rect x="827.746" y="695.049" class="st11" width="5.1" height="9.396"/>
	
		<rect x="827.757" y="688.761" transform="matrix(-0.9848 0.1739 -0.1739 -0.9848 1765.8719 1224.2068)" class="st11" width="3.1" height="1.4"/>
	<polygon class="st11" points="825.445,663.149 823.846,663.448 827.047,689.149 831.246,688.349 	"/>
	
		<rect x="828.293" y="694.117" transform="matrix(-0.9849 0.1732 -0.1732 -0.9849 1768.3303 1235.5936)" class="st11" width="3.901" height="1.702"/>
	<path class="st11" d="M831.346,694.049l-2.5,0.396c-1.194,0.201-2.396-0.603-2.6-1.799v-0.2c-0.199-1.197,0.6-2.397,1.801-2.601
		l2.5-0.397c1.199-0.196,2.398,0.604,2.604,1.804v0.196C833.445,692.749,832.646,693.849,831.346,694.049"/>
	
		<rect x="823.267" y="662.654" transform="matrix(-0.9849 0.173 -0.173 -0.9849 1751.5139 1173.4465)" class="st11" width="2.704" height="0.798"/>
	
		<rect x="822.484" y="662.658" transform="matrix(0.9848 -0.1735 0.1735 0.9848 -102.6332 152.8386)" class="st11" width="0.799" height="1.598"/>
	
		<rect x="839.588" y="688.747" transform="matrix(-0.9848 -0.1736 0.1736 -0.9848 1549.827 1514.4379)" class="st11" width="3.1" height="1.4"/>
	<polygon class="st11" points="846.547,663.448 845.047,663.149 839.146,688.349 843.445,689.149 	"/>
	
		<rect x="838.19" y="694.22" transform="matrix(-0.9848 -0.1738 0.1738 -0.9848 1546.6774 1525.5884)" class="st11" width="3.899" height="1.7"/>
	<path class="st11" d="M841.646,694.549l-2.5-0.396c-1.201-0.201-2-1.397-1.806-2.604v-0.2c0.199-1.196,1.398-2,2.604-1.8l2.5,0.396
		c1.201,0.201,2,1.397,1.801,2.604v0.2C843.945,693.948,842.846,694.749,841.646,694.549"/>
	
		<rect x="844.492" y="662.788" transform="matrix(0.9847 0.1741 -0.1741 0.9847 128.4082 -137.1592)" class="st11" width="2.697" height="0.797"/>
	
		<rect x="847.151" y="662.638" transform="matrix(-0.9849 -0.1733 0.1733 -0.9849 1567.3063 1463.7157)" class="st11" width="0.8" height="1.598"/>
	<rect x="837.547" y="695.049" class="st11" width="5.104" height="9.396"/>
	<path class="st8" d="M822.646,662.649c0.5-3.104-1.5-4.104-6.201-3.104"/>
	<path class="st8" d="M847.646,662.649c-0.104-10.804-23-5.897-31.604-3.701"/>
</g>
<g id="mini-control-center">
	<rect x="480.254" y="592.549" class="st18" width="179" height="132.8"/>
	<rect x="507.154" y="644.748" class="st25" width="100" height="70.201"/>
	<path class="st11" d="M605.654,713.349h-97V646.15h97V713.349z M608.654,643.248h-3h-97h-3v3v67.201v3h3h97h3v-3v-67.201V643.248z"
		/>
	<rect x="503.354" y="643.748" class="st25" width="107.5" height="8.5"/>
	<path class="st11" d="M609.354,650.648h-104.5v-5.5h104.5V650.648z M612.354,642.248h-3h-104.5h-3v3v5.5v3h3h104.5h3v-3v-5.5
		V642.248z"/>
	
		<rect x="593.717" y="634.602" transform="matrix(-0.6031 -0.7976 0.7976 -0.6031 448.9788 1493.9988)" class="st11" width="4.9" height="1.401"/>
	
		<rect x="593.717" y="634.602" transform="matrix(-0.6031 -0.7976 0.7976 -0.6031 448.9788 1493.9988)" class="st8" width="4.9" height="1.401"/>
	
		<rect x="589.826" y="639.487" transform="matrix(0.9541 -0.2994 0.2994 0.9541 -164.5509 207.0519)" class="st11" width="7.097" height="2"/>
	
		<rect x="589.826" y="639.487" transform="matrix(0.9541 -0.2994 0.2994 0.9541 -164.5509 207.0519)" class="st8" width="7.097" height="2"/>
	<path class="st11" d="M596.555,633.148c-0.396,1.301-1.801,2.1-3.102,1.697c-1.299-0.397-2.104-1.8-1.699-3.104
		c0.4-1.299,1.801-2.102,3.1-1.696C596.254,630.449,596.953,631.849,596.555,633.148"/>
	<circle class="st8" cx="594.154" cy="632.449" r="2.5"/>
	<path class="st11" d="M599.654,637.148c1,1,1,2.6,0,3.6s-2.604,1-3.604,0s-1-2.6,0-3.6
		C597.154,636.148,598.754,636.148,599.654,637.148"/>
	<circle class="st8" cx="597.953" cy="638.849" r="2.5"/>
	<path class="st11" d="M591.354,641.949c0,1.896-1.6,3.5-3.5,3.5c-1.896,0-3.5-1.604-3.5-3.5c0-1.897,1.604-3.5,3.5-3.5
		C589.754,638.449,591.354,640.049,591.354,641.949"/>
	<circle class="st8" cx="587.854" cy="641.949" r="3.5"/>
	<rect x="509.654" y="647.248" class="st25" width="95" height="65.201"/>
	<path class="st22" d="M603.654,711.349h-93V648.15h93V711.349z M605.654,646.248h-97v67.201h97V646.248z"/>
	<rect x="505.854" y="646.248" class="st25" width="102.5" height="3.5"/>
	<path class="st22" d="M607.354,648.648h-100.5v-1.5h100.5V648.648z M609.354,645.248h-104.5v5.5h104.5V645.248z"/>
	<line class="st18" x1="604.453" y1="706.248" x2="509.754" y2="706.248"/>
	<line class="st21" x1="604.453" y1="706.248" x2="509.754" y2="706.248"/>
	<path class="st11" d="M585.055,609.349c-2.5,2.5,1.299,13.2,10.299,22.104c8.9,8.896,19.701,12.699,22.104,10.299"/>
	<path class="st8" d="M585.055,609.349c-2.5,2.5,1.299,13.2,10.299,22.104c8.9,8.896,19.701,12.699,22.104,10.299"/>
	
		<ellipse transform="matrix(-0.7071 0.7071 -0.7071 -0.7071 1468.7389 642.7505)" class="st8" cx="601.251" cy="625.561" rx="1.8" ry="22.897"/>
	<polyline class="st8" points="594.654,621.549 610.154,616.648 605.154,632.049 	"/>
	<polyline class="st8" points="585.055,609.349 610.154,616.648 617.453,641.748 	"/>
	
		<rect x="608.912" y="615.48" transform="matrix(-0.7071 -0.7071 0.7071 -0.7071 605.9518 1483.9524)" class="st11" width="2.801" height="2"/>
	
		<rect x="608.912" y="615.48" transform="matrix(-0.7071 -0.7071 0.7071 -0.7071 605.9518 1483.9524)" class="st8" width="2.801" height="2"/>
	<rect x="556.354" y="656.748" class="st15" width="5.701" height="11"/>
	<path class="st22" d="M561.154,666.748h-3.701v-9h3.701V666.748z M563.154,655.748h-2h-3.701h-2v2v9v2h2h3.701h2v-2v-9V655.748z"/>
	<rect x="536.654" y="656.748" class="st15" width="5.694" height="11"/>
	<path class="st22" d="M541.453,666.748h-3.699v-9h3.699V666.748z M543.453,655.748h-2h-3.699h-2v2v9v2h2h3.699h2v-2v-9V655.748z"/>
	<rect x="546.555" y="656.748" class="st15" width="5.699" height="11"/>
	<path class="st22" d="M551.254,666.748h-3.699v-9h3.699V666.748L551.254,666.748z M553.254,655.748h-2h-3.699h-2v2v9v2h2h3.699h2
		v-2v-9V655.748L553.254,655.748z"/>
	<rect x="517.055" y="656.748" class="st15" width="5.699" height="11"/>
	<path class="st22" d="M521.754,666.748h-3.699v-9h3.699V666.748L521.754,666.748z M523.754,655.748h-2h-3.699h-2v2v9v2h2h3.699h2
		v-2v-9V655.748L523.754,655.748z"/>
	<rect x="526.854" y="656.748" class="st15" width="5.701" height="11"/>
	<path class="st22" d="M531.555,666.748h-3.701v-9h3.701V666.748z M533.555,655.748h-2h-3.701h-2v2v9v2h2h3.701h2v-2v-9V655.748z"/>
	<rect x="556.354" y="670.949" class="st15" width="5.701" height="11"/>
	<path class="st22" d="M561.154,680.849h-3.701v-9h3.701V680.849z M563.154,669.949h-2h-3.701h-2v2v9v2h2h3.701h2v-2v-9V669.949z"/>
	<rect x="536.654" y="670.949" class="st15" width="5.694" height="11"/>
	<path class="st22" d="M541.453,680.849h-3.699v-9h3.699V680.849z M543.453,669.949h-2h-3.699h-2v2v9v2h2h3.699h2v-2v-9V669.949z"/>
	<rect x="546.555" y="670.949" class="st15" width="5.699" height="11"/>
	<path class="st22" d="M551.254,680.849h-3.699v-9h3.699V680.849L551.254,680.849z M553.254,669.949h-2h-3.699h-2v2v9v2h2h3.699h2
		v-2v-9V669.949L553.254,669.949z"/>
	<rect x="517.055" y="670.949" class="st15" width="5.699" height="11"/>
	<path class="st22" d="M521.754,680.849h-3.699v-9h3.699V680.849L521.754,680.849z M523.754,669.949h-2h-3.699h-2v2v9v2h2h3.699h2
		v-2v-9V669.949L523.754,669.949z"/>
	<rect x="526.854" y="670.949" class="st15" width="5.701" height="11"/>
	<path class="st22" d="M531.555,680.849h-3.701v-9h3.701V680.849z M533.555,669.949h-2h-3.701h-2v2v9v2h2h3.701h2v-2v-9V669.949z"/>
	<path class="st11" d="M620.254,702.849l-0.699,0.303c-2.5,1.197-5.602,0.1-6.801-2.5c-1.199-2.5-0.1-5.603,2.5-6.803l0.699-0.3
		L620.254,702.849z"/>
	
		<rect x="618.493" y="693.504" transform="matrix(-0.9074 0.4203 -0.4203 -0.9074 1478.4395 1067.6321)" class="st11" width="6.199" height="6.401"/>
	<polygon class="st11" points="625.453,699.349 646.154,694.049 639.654,680.049 622.254,692.449 	"/>
	
		<rect x="652.791" y="678.15" transform="matrix(-0.9072 0.4207 -0.4207 -0.9072 1537.0269 1022.5884)" class="st11" width="5.899" height="5.302"/>
	<polygon class="st11" points="659.453,682.049 660.854,680.849 659.055,676.949 657.254,677.148 	"/>
	
		<rect x="642.593" y="676.071" transform="matrix(-0.9074 0.4203 -0.4203 -0.9074 1518.5732 1037.3021)" class="st11" width="4.8" height="19.802"/>
	
		<rect x="652.137" y="678.892" transform="matrix(-0.9074 0.4203 -0.4203 -0.9074 1532.3569 1026.5566)" class="st11" width="1.898" height="6.402"/>
	<polygon class="st11" points="651.555,691.949 653.354,686.748 649.654,678.849 644.555,676.849 	"/>
	
		<rect x="633.173" y="700.146" transform="matrix(-0.5464 -0.8375 0.8375 -0.5464 396.7262 1616.8442)" class="st11" width="5.999" height="1.7"/>
	
		<rect x="628.481" y="705.673" transform="matrix(0.9541 -0.2994 0.2994 0.9541 -182.6011 221.8797)" class="st11" width="8.798" height="2.497"/>
	<path class="st11" d="M637.055,698.248c-0.602,1.604-2.396,2.4-4,1.804c-1.602-0.603-2.396-2.397-1.801-4
		c0.6-1.603,2.4-2.397,4-1.804C636.854,694.849,637.654,696.648,637.055,698.248"/>
	<path class="st11" d="M640.854,702.849c1.201,1.2,1.201,3.2,0,4.396c-1.194,1.201-3.194,1.201-4.396,0
		c-1.201-1.196-1.201-3.196,0-4.396C637.654,701.549,639.654,701.549,640.854,702.849"/>
	<path class="st11" d="M630.555,708.748c0,2.4-1.896,4.304-4.301,4.304c-2.4,0-4.301-1.897-4.301-4.304
		c0-2.396,1.896-4.299,4.301-4.299S630.555,706.449,630.555,708.748"/>
	<rect x="607.854" y="710.349" class="st11" width="39" height="6"/>
</g>
<g id="btn-lightning">
	<path class="st15" d="M642.699,117.232l59,12l60-12l-3-2.459l-56.995,11.398l-56.005-11.391L642.699,117.232z M645.699,84.682
		l55.979-11.386l57.021,12.354l3-2.42l-60-13l0,0l-59,12L645.699,84.682z"/>
	<path class="st15" d="M671.194,116.834c9.362-3.825,19.271-6.614,29.526-8.252c-1.822,1.227-3.6,2.491-5.325,3.787
		c7.282-1.253,14.733-1.91,22.276-1.934c-2.351,0.923-4.646,1.907-6.893,2.948c7.48,0.609,14.921,1.855,22.223,3.731
		c-11.213-1.329-22.346-1.171-33.122,0.346c1.834-1.153,3.716-2.266,5.646-3.336c-6.847,0.652-13.564,1.838-20.106,3.528
		c1.771-1.565,3.604-3.093,5.498-4.582C684.263,113.825,677.669,115.083,671.194,116.834z"/>
</g>
<g id="quiz-header">
	<line class="st4" x1="37.633" y1="208.768" x2="314.633" y2="208.768"/>
	<line class="st4" x1="394.634" y1="208.768" x2="671.634" y2="208.768"/>
	<polygon class="st12" points="368.471,226.989 356.633,233.134 334.133,221.454 334.133,196.081 341.444,192.286 337.797,188.545 
		329.133,193.043 329.133,224.492 356.633,238.768 373.347,230.093 	"/>
	<polygon class="st12" points="356.633,178.768 343.937,185.359 348.877,188.428 356.633,184.401 379.133,196.081 379.133,221.454 
		375.489,223.346 379.269,227.018 384.133,224.492 384.133,193.043 	"/>
	<polygon class="st11" points="336.633,183.768 362.461,199.805 354.545,199.801 376.063,218.19 366.733,218.324 380.444,231.646 
		352.906,214.122 363.255,213.934 340.256,196.229 348.526,195.972 	"/>
</g>
<g id="quiz-answer-bg">
	<polygon id="_x3E_bg" class="st22" points="48.254,712.961 48.254,434.738 146.753,410.395 244.848,434.737 245.252,712.962 
		146.754,737.305 	"/>
	<path id="_x3E_outline" class="st25" d="M146.753,411.94l96.597,23.97l0.401,275.881l-96.997,23.972l-97-23.975V435.912
		L146.753,411.94 M146.754,408.85l-100,24.717v280.569l100,24.714l100-24.714l-0.408-280.569L146.754,408.85L146.754,408.85z"/>
	<path id="_x3E_lightning_1_" class="st25" d="M110.948,689.901c10.85-4.435,22.324-7.663,34.212-9.562
		c-2.113,1.421-4.171,2.885-6.169,4.389c8.438-1.451,17.07-2.215,25.812-2.239c-2.725,1.066-5.387,2.21-7.985,3.417
		c8.673,0.705,17.286,2.146,25.747,4.319c-12.992-1.538-25.893-1.354-38.377,0.4c2.126-1.335,4.306-2.624,6.541-3.864
		c-7.928,0.755-15.719,2.129-23.3,4.087c2.05-1.812,4.175-3.584,6.371-5.308C126.088,686.416,118.45,687.871,110.948,689.901z"/>
	<path id="_x3E_lightning" class="st25" d="M110.948,458.91c10.85-4.434,22.324-7.659,34.212-9.562
		c-2.113,1.425-4.171,2.888-6.169,4.391c8.438-1.452,17.07-2.214,25.812-2.238c-2.725,1.067-5.387,2.211-7.985,3.417
		c8.673,0.703,17.286,2.146,25.747,4.319c-12.992-1.538-25.893-1.354-38.377,0.397c2.126-1.335,4.306-2.624,6.541-3.864
		c-7.928,0.759-15.719,2.133-23.3,4.09c2.05-1.812,4.175-3.584,6.371-5.311C126.088,455.426,118.45,456.881,110.948,458.91z"/>
	<line id="_x3E_line" class="st24" x1="75.254" y1="500.35" x2="218.254" y2="500.35"/>
	<line id="_x3E_line_1_" class="st24" x1="75.254" y1="637.35" x2="218.254" y2="637.35"/>
</g>
<g id="next-question">
	<polygon class="st14" points="446.119,514.05 301.12,514.05 301.12,476.604 446.119,476.604 453.127,496.076 	"/>
</g>
<g id="btn-got-it">
	<path class="st11" d="M454.775,111.937c10.943-4.513,22.521-7.805,34.517-9.737c-2.134,1.447-4.207,2.938-6.226,4.469
		c8.514-1.479,17.224-2.255,26.039-2.282c-2.75,1.089-5.438,2.251-8.059,3.479c8.749,0.719,17.438,2.188,25.977,4.402
		c-13.105-1.566-26.119-1.381-38.718,0.408c2.146-1.36,4.346-2.673,6.602-3.937c-7.997,0.77-15.856,2.169-23.506,4.163
		c2.065-1.847,4.211-3.65,6.429-5.406C470.05,108.388,462.344,109.871,454.775,111.937z"/>
	<path class="st15" d="M477.539,84.594c-0.32,2.88-0.62,4.041-1.32,5.201c-0.96,1.621-2.26,2.441-3.841,2.441
		c-2.42,0-3.94-2.021-3.94-5.221c0-2.081,0.521-4.321,1.343-5.781c1.021-1.82,2.521-2.781,4.278-2.781c1.9,0,3.16,1.14,3.501,3.181
		l-2.658,1c-0.021-0.68-0.062-0.86-0.16-1.161c-0.143-0.44-0.5-0.68-0.979-0.68c-0.641,0-1.16,0.44-1.581,1.32
		c-0.6,1.28-0.979,3.241-0.979,5.062c0,1.78,0.521,2.68,1.54,2.68c1.021,0,1.643-0.92,1.922-2.9h-1.645l0.28-2.36L477.539,84.594
		L477.539,84.594z"/>
	<path class="st15" d="M480.417,88.475c0-1.201,0.318-2.541,0.84-3.541c0.681-1.32,1.801-2.041,3.145-2.041
		c1.802,0,2.817,1.22,2.817,3.421c0,3.581-1.561,5.881-3.961,5.881C481.396,92.195,480.417,90.895,480.417,88.475z M484.698,86.514
		c0-0.92-0.198-1.38-0.578-1.38c-0.66,0-1.224,1.58-1.224,3.4c0,0.9,0.224,1.42,0.618,1.42
		C484.178,89.955,484.698,88.394,484.698,86.514z"/>
	<path class="st15" d="M491.017,85.134h-0.84l0.261-2.061h0.843l0.302-2.46h2.461l-0.303,2.46h1.001l-0.238,2.061h-1l-0.86,6.881
		h-2.461L491.017,85.134z"/>
	<path class="st15" d="M503.276,83.073h2.461l-1.104,8.942h-2.461L503.276,83.073z M503.316,80.613c0-0.96,0.84-1.78,1.777-1.78
		c0.762,0,1.36,0.6,1.36,1.38c0,0.96-0.82,1.801-1.78,1.801C503.896,82.013,503.316,81.413,503.316,80.613z"/>
	<path class="st15" d="M509.316,85.134h-0.843l0.263-2.061h0.843l0.3-2.46h2.461l-0.301,2.46h1.001l-0.24,2.061h-1l-0.858,6.881
		h-2.463L509.316,85.134z"/>
	<path class="st15" d="M517.217,88.874c0.82,0,1.46,0.64,1.46,1.46c0,1.02-0.88,1.9-1.897,1.9c-0.842,0-1.46-0.64-1.46-1.48
		C515.316,89.755,516.196,88.874,517.217,88.874z M517.177,78.672h2.562l-1.144,9.342h-2.58L517.177,78.672z"/>
</g>
<g id="btn-continue">
	<path class="st16" d="M142.72,618.209l47.439,10.121v22.418l-47.415,9.339l-46.585-9.331v-23.221L142.72,618.209 M142.738,615.145
		l-49.578,9.935v28.139l49.578,9.933l50.422-9.933v-27.311L142.738,615.145L142.738,615.145z"/>
	<path class="st16" d="M112.042,638.271c-1.135,0.379-1.513,0.463-2.171,0.463c-1.373,0-2.787-0.615-3.74-1.625
		c-0.799-0.854-1.232-1.978-1.232-3.225c0-2.759,2.188-4.941,4.944-4.941c0.729,0,1.317,0.127,2.199,0.478v2.899
		c-0.574-0.688-1.261-1.022-2.103-1.022c-1.457,0-2.508,1.077-2.508,2.577c0,0.798,0.268,1.429,0.826,1.891
		c0.477,0.396,1.062,0.616,1.682,0.616c0.798,0,1.473-0.308,2.103-0.979V638.271L112.042,638.271z"/>
	<path class="st16" d="M116,630.037c0.883-0.744,2.115-1.178,3.418-1.178c1.556,0,2.83,0.521,3.824,1.565
		c0.867,0.911,1.346,2.115,1.346,3.418c0,1.474-0.646,2.857-1.752,3.796c-0.938,0.785-2.087,1.18-3.459,1.18
		c-2.941,0-5.127-2.156-5.127-5.07C114.25,632.361,114.895,630.975,116,630.037z M119.418,636.466c1.457,0,2.634-1.177,2.634-2.634
		c0-1.442-1.177-2.618-2.634-2.618c-1.442,0-2.633,1.176-2.633,2.591C116.785,635.289,117.947,636.466,119.418,636.466z"/>
	<path class="st16" d="M127.2,629.14h2.423l4.469,5.718v-5.718h2.424v9.346h-2.424l-4.469-5.718v5.718H127.2V629.14z"/>
	<path class="st16" d="M140.543,631.199h-1.977v-2.062h6.415v2.062h-2.017v7.283h-2.424L140.543,631.199L140.543,631.199z"/>
	<path class="st16" d="M147.052,629.14h2.424v9.346h-2.424V629.14z"/>
	<path class="st16" d="M152.61,629.14h2.426l4.468,5.718v-5.718h2.424v9.346h-2.424l-4.468-5.718v5.718h-2.426V629.14z"/>
	<path class="st16" d="M172.998,634.533c0,1.373-0.238,2.114-0.911,2.871c-0.771,0.867-1.862,1.313-3.222,1.313
		c-1.431,0-2.689-0.53-3.333-1.397c-0.49-0.658-0.675-1.414-0.675-2.787v-5.396h2.426v5.061c0,1.062,0.025,1.271,0.266,1.666
		c0.267,0.447,0.771,0.715,1.357,0.715c0.616,0,1.163-0.295,1.415-0.756c0.21-0.365,0.253-0.646,0.253-1.625v-5.061h2.424V634.533
		L172.998,634.533z"/>
	<path class="st16" d="M175.934,629.14h5.311v2.062h-2.887v1.555h2.731v2.062h-2.731v1.607h2.887v2.062h-5.311V629.14z"/>
	<path class="st16" d="M112.945,650.736c9.118-3.728,18.764-6.439,28.75-8.035c-1.774,1.193-3.505,2.426-5.185,3.688
		c7.09-1.222,14.346-1.857,21.689-1.883c-2.289,0.897-4.526,1.856-6.71,2.87c7.286,0.594,14.524,1.807,21.636,3.633
		c-10.918-1.293-21.757-1.141-32.248,0.337c1.785-1.122,3.617-2.205,5.496-3.248c-6.662,0.638-13.21,1.79-19.58,3.438
		c1.723-1.522,3.508-3.013,5.354-4.459C125.669,647.808,119.249,649.031,112.945,650.736z"/>
</g>
<g id="perfect-answer">
	<g id="XMLID_2433_">
		<polygon class="st22" points="588.093,117.029 573.368,109.385 573.368,92.544 588.093,84.9 602.819,92.544 602.819,109.385 		"/>
	</g>
	<polygon class="st16" points="588.093,88.743 591.065,96.664 599.083,97.139 592.901,102.607 594.884,110.721 588.093,106.281 
		581.302,110.721 583.284,102.607 577.104,97.139 585.122,96.664 	"/>
</g>
<g id="quiz-btn">
	<g id="_x3E_bg_1_">
		<polygon class="st22" points="808.999,122.756 867.999,134.756 927.999,122.756 927.999,89.756 867.999,76.756 808.999,88.756 		
			"/>
	</g>
	<path class="st15" d="M832.544,119.551c10.854-4.434,22.326-7.664,34.213-9.562c-2.112,1.422-4.17,2.885-6.169,4.387
		c8.438-1.451,17.07-2.213,25.812-2.238c-2.726,1.068-5.39,2.209-7.983,3.416c8.672,0.705,17.284,2.148,25.746,4.322
		c-12.992-1.539-25.894-1.355-38.375,0.4c2.125-1.336,4.305-2.625,6.541-3.865c-7.932,0.756-15.721,2.129-23.302,4.088
		c2.052-1.812,4.174-3.584,6.37-5.309C847.685,116.065,840.046,117.522,832.544,119.551z"/>
</g>
<g id="btn-generic">
	<path class="st15" d="M292.999,109.429l59,12l60-12V75.427l-60-13l0,0l-59,12V109.429z M295.999,76.878l55.979-11.386
		l57.021,12.354v29.123l-56.995,11.398l-56.005-11.391V76.878z"/>
	<path class="st15" d="M321.494,109.031c9.365-3.825,19.271-6.614,29.529-8.252c-1.824,1.227-3.6,2.491-5.326,3.787
		c7.283-1.253,14.734-1.91,22.277-1.934c-2.351,0.923-4.648,1.907-6.893,2.948c7.483,0.609,14.921,1.855,22.223,3.731
		c-11.213-1.329-22.346-1.171-33.122,0.346c1.834-1.153,3.716-2.266,5.646-3.336c-6.844,0.652-13.564,1.838-20.106,3.528
		c1.769-1.565,3.602-3.093,5.498-4.582C334.562,106.021,327.969,107.279,321.494,109.031z"/>
</g>
<g id="speaker">
	<path class="st1" d="M211.121,114.819c10.218-2.746,17.732-11.951,17.732-22.892c0-10.941-7.515-20.146-17.732-22.891"/>
	<path class="st1" d="M219.049,123.528c14.2-4.416,24.44-16.891,24.44-31.601c0-14.71-10.24-27.185-24.44-31.601"/>
	<path class="st1" d="M206.621,104.147c5.122-2.226,8.655-6.85,8.655-12.219c0-5.371-3.533-9.996-8.655-12.221"/>
	<polygon class="st15" points="191.285,100.965 191.285,82.889 198.912,78.098 198.912,105.756 	"/>
	<rect x="182.511" y="82.889" class="st15" width="11.273" height="18.075"/>
</g>
<g id="no-phone">
	<path class="st15" d="M102.09,127.677H65.708V63.678h36.382V127.677z M102.285,60.678H65.514c-1.55,0-2.807,1.256-2.807,2.806
		v64.388c0,1.549,1.257,2.806,2.807,2.806h36.771c1.55,0,2.806-1.257,2.806-2.806V63.484
		C105.09,61.934,103.834,60.678,102.285,60.678"/>
	<path class="st15" d="M95.339,113.743H72.458V70.112H95.34L95.339,113.743L95.339,113.743z M96.986,67.112H70.813
		c-0.748,0-1.354,0.605-1.354,1.354v46.922c0,0.748,0.606,1.355,1.354,1.355h26.173c0.748,0,1.354-0.607,1.354-1.355V68.465
		C98.339,67.717,97.734,67.112,96.986,67.112"/>
	<circle class="st2" cx="83.899" cy="95.677" r="49.5"/>
	<line class="st2" x1="117.899" y1="61.677" x2="49.899" y2="129.677"/>
	<line class="st1" x1="78.899" y1="121.896" x2="88.899" y2="121.896"/>
</g>
<g id="duty">
	<path class="st25" d="M495.169,349.435l16,8.375v18.223l-16,8.375l-16-8.375V357.81L495.169,349.435 M495.169,344.92l-20,10.469
		v23.062l20,10.469l20-10.469v-23.062L495.169,344.92L495.169,344.92z"/>
</g>
<g id="duty-active">
	<path class="st11" d="M495.169,294.435l16,8.375v18.221l-16,8.375l-16-8.375V302.81L495.169,294.435 M495.169,289.92l-20,10.469
		v23.062l20,10.469l20-10.469v-23.062L495.169,289.92L495.169,289.92z"/>
	<polygon class="st15" points="495.169,326.42 482.444,319.521 482.444,304.319 495.169,297.42 507.895,304.319 507.895,319.521 	
		"/>
</g>
<g id="duty-complete">
	<polygon class="st32" points="500.366,248.883 505.788,252.238 499.406,252.234 498.58,252.234 507.896,260.172 507.896,249.319 
		495.169,242.42 492.374,243.936 	"/>
	<polygon class="st32" points="491.482,262.331 486.388,259.1 492.425,258.99 494.765,258.947 482.441,249.49 482.441,264.521 
		495.169,271.42 500.906,268.31 	"/>
	<polygon class="st6" points="503.777,270.283 495.169,274.789 478.806,266.224 478.806,247.616 484.122,244.834 481.471,242.09 
		475.169,245.389 475.169,268.451 495.169,278.92 507.323,272.559 	"/>
	<polygon class="st6" points="495.169,234.92 485.935,239.754 489.528,242.004 495.169,239.051 511.532,247.616 511.532,266.224 
		508.882,267.611 511.63,270.304 515.169,268.451 515.169,245.389 	"/>
	<polygon class="st15" points="480.623,238.587 499.407,250.348 493.651,250.344 509.3,263.83 502.514,263.928 512.485,273.697 
		492.458,260.847 499.985,260.709 483.259,247.726 489.271,247.536 	"/>
</g>
<g id="btn-acknowledge">
	<polygon id="_x3E_bg_2_" class="st25" points="726.386,223.808 726.386,187.703 816.105,174.273 907.386,188.828 907.386,223.805 
		816.114,237.239 	"/>
	<path id="_x3E_outline_1_" class="st22" d="M816.098,175.791l89.788,14.317v32.401l-89.77,13.213l-88.23-13.207v-33.521
		L816.098,175.791 M816.112,172.755l-91.229,13.655v38.69l91.229,13.655l92.771-13.655v-37.552L816.112,172.755L816.112,172.755z"/>
	<path id="_x3E_lightning_2_" class="st15" d="M781.078,219.549c10.851-4.432,22.326-7.663,34.213-9.562
		c-2.113,1.422-4.17,2.886-6.169,4.388c8.437-1.452,17.07-2.213,25.811-2.24c-2.725,1.069-5.388,2.21-7.983,3.416
		c8.673,0.706,17.286,2.149,25.746,4.323c-12.991-1.539-25.893-1.356-38.375,0.4c2.125-1.336,4.305-2.625,6.54-3.865
		c-7.93,0.756-15.721,2.13-23.302,4.088c2.052-1.813,4.177-3.584,6.371-5.309C796.22,216.064,788.581,217.52,781.078,219.549z"/>
</g>
<g id="chapter-bracket">
	<polyline class="st9" points="630.031,403.742 653.031,403.742 653.031,302.75 630.031,302.75 	"/>
</g>
<g id="tesselation">
	<rect x="1134.689" y="2.852" class="st18" width="1024" height="768"/>
	<path class="st20" d="M1288.925,147.035c-22.989,13.425-45.722,28.383-68.153,45.806c-22.435-34.314-44.561-72.895-66.343-116.986
		C1197.991,104.806,1242.95,128.195,1288.925,147.035z"/>
	<path class="st20" d="M1134.688,62.282c6.548,4.655,13.129,9.178,19.741,13.573c-6.612,4.599-13.191,9.448-19.739,14.581"/>
	<path class="st20" d="M1134.691,247.752c6.546,1.995,13.126,3.933,19.736,5.816c-6.611,7.11-13.192,14.545-19.74,22.339"/>
	<path class="st20" d="M1154.429,431.282c-6.612,9.62-13.191,19.639-19.739,30.092"/>
	<path class="st20" d="M1134.684,618.693c6.549-3.326,13.131-6.559,19.745-9.698c-6.61,12.132-13.191,24.735-19.739,37.849"/>
	<path class="st20" d="M1429.532,190.658c-23.813,13.436-47.472,27.41-70.924,42.702c-23.449-25.637-46.692-54.072-69.685-86.325
		C1334.899,165.865,1381.905,180.149,1429.532,190.658z"/>
	<path class="st20" d="M1573.886,211.249c-24.231,15.043-48.416,29.713-72.491,44.723c-24.072-19.889-48.046-41.379-71.861-65.313
		C1477.161,201.153,1525.417,207.88,1573.886,211.249z"/>
	<path class="st20" d="M1719.495,211.249c-24.232,18.401-48.517,35.48-72.806,51.963c-24.286-16.484-48.573-33.561-72.806-51.963
		C1622.354,214.603,1671.028,214.603,1719.495,211.249z"/>
	<path class="st20" d="M1863.847,190.658c-23.815,23.934-47.786,45.423-71.861,65.313c-24.077-15.01-48.255-29.682-72.489-44.723
		C1767.966,207.88,1816.219,201.154,1863.847,190.658z"/>
	<path class="st20" d="M2004.456,147.035c-22.988,32.255-46.24,60.689-69.687,86.325c-23.45-15.293-47.107-29.267-70.924-42.701
		C1911.477,180.149,1958.479,165.864,2004.456,147.035z"/>
	<path class="st20" d="M2138.952,75.854c-21.777,44.094-43.914,82.672-66.343,116.986c-22.434-17.423-45.166-32.379-68.153-45.806
		C2050.438,128.196,2095.391,104.807,2138.952,75.854z"/>
	<path class="st20" d="M2158.686,90.43c-6.545-5.131-13.123-9.979-19.732-14.575c6.612-4.395,13.191-8.917,19.739-13.572"/>
	<path class="st20" d="M1134.684,155.015c28.115,14.279,56.844,26.818,86.088,37.826c-22.434,17.427-44.562,37.314-66.345,60.728
		c-6.612-10.876-13.191-22.187-19.739-33.969"/>
	<path class="st20" d="M1358.608,233.36c-23.451,15.295-46.695,31.907-69.687,50.71c-22.986-26.876-45.721-56.921-68.152-91.229
		C1265.634,209.726,1311.707,223.016,1358.608,233.36z"/>
	<path class="st20" d="M1501.395,255.972c-24.078,15.011-48.046,30.357-71.861,46.791c-23.813-20.936-47.475-43.771-70.924-69.402
		C1405.511,243.696,1453.245,251.091,1501.395,255.972z"/>
	<path class="st20" d="M1646.689,263.212c-24.286,16.484-48.573,32.371-72.808,48.372c-24.233-17.444-48.417-35.726-72.489-55.612
		C1549.547,260.842,1598.12,263.208,1646.689,263.212z"/>
	<path class="st20" d="M1791.984,255.972c-24.076,19.886-48.259,38.169-72.491,55.612c-24.23-16.002-48.521-31.888-72.803-48.372
		C1695.263,263.208,1743.835,260.845,1791.984,255.972z"/>
	<path class="st20" d="M1934.771,233.36c-23.451,25.634-47.109,48.468-70.927,69.402c-23.813-16.434-47.785-31.779-71.859-46.791
		C1840.138,251.091,1887.87,243.697,1934.771,233.36z"/>
	<path class="st20" d="M2072.61,192.842c-22.431,34.306-45.168,64.354-68.156,91.229c-22.988-18.801-46.233-35.415-69.685-50.711
		C1981.675,223.017,2027.746,209.727,2072.61,192.842z"/>
	<path class="st20" d="M2158.693,219.597c-6.549,11.784-13.13,23.095-19.743,33.972c-21.783-23.413-43.908-43.303-66.34-60.728
		c29.241-11.008,57.97-23.546,86.085-37.825"/>
	<path class="st20" d="M1288.925,284.071c-22.989,18.803-45.722,39.801-68.153,63.978c-22.435-27.561-44.561-58.66-66.343-94.48
		C1197.991,265.976,1242.95,275.998,1288.925,284.071z"/>
	<path class="st20" d="M1429.532,302.762c-23.813,16.435-47.472,33.956-70.924,53.385c-23.449-21.499-46.692-45.204-69.685-72.075
		C1334.899,292.139,1381.905,298.26,1429.532,302.762z"/>
	<path class="st20" d="M1573.886,311.583c-24.231,16.004-48.416,32.12-72.491,49.08c-24.072-17.938-48.046-36.97-71.861-57.901
		C1477.161,307.26,1525.417,310.14,1573.886,311.583z"/>
	<path class="st20" d="M1719.495,311.583c-24.232,17.441-48.517,34.045-72.806,50.526c-24.286-16.483-48.573-33.085-72.806-50.526
		C1622.354,313.02,1671.028,313.02,1719.495,311.583z"/>
	<path class="st20" d="M1863.847,302.762c-23.815,20.931-47.786,39.965-71.861,57.901c-24.077-16.962-48.255-33.078-72.489-49.08
		C1767.966,310.14,1816.219,307.258,1863.847,302.762z"/>
	<path class="st20" d="M2004.456,284.071c-22.988,26.874-46.24,50.578-69.687,72.076c-23.45-19.432-47.107-36.949-70.924-53.384
		C1911.477,298.261,1958.479,292.137,2004.456,284.071z"/>
	<path class="st20" d="M2138.952,253.568c-21.777,35.819-43.914,66.92-66.343,94.48c-22.434-24.177-45.166-45.171-68.153-63.978
		C2050.438,275.998,2095.391,265.973,2138.952,253.568z"/>
	<path class="st20" d="M2158.693,275.905c-6.547-7.793-13.128-15.227-19.741-22.336c6.613-1.883,13.194-3.821,19.741-5.816"/>
	<path class="st20" d="M1134.691,340.487c28.112,2.854,56.838,5.361,86.078,7.562c-22.433,24.183-44.562,51.55-66.344,83.233
		c-6.61-8.364-13.189-17.089-19.736-26.211"/>
	<path class="st20" d="M1358.608,356.146c-23.451,19.435-46.695,40.774-69.687,64.96c-22.986-21.493-45.721-45.505-68.152-73.059
		C1265.634,351.426,1311.707,354.079,1358.608,356.146z"/>
	<path class="st20" d="M1501.395,360.663c-24.078,16.964-48.046,34.77-71.861,54.203c-23.813-17.935-47.475-37.226-70.924-58.72
		C1405.511,358.214,1453.245,359.69,1501.395,360.663z"/>
	<path class="st20" d="M1646.689,362.109c-24.286,16.482-48.573,32.847-72.808,49.809c-24.233-16.48-48.417-33.321-72.489-51.255
		C1549.547,361.637,1598.12,362.109,1646.689,362.109z"/>
	<path class="st20" d="M1791.984,360.663c-24.076,17.935-48.259,34.773-72.491,51.255c-24.23-16.962-48.521-33.325-72.803-49.809
		C1695.263,362.109,1743.835,361.637,1791.984,360.663z"/>
	<path class="st20" d="M1934.771,356.147c-23.451,21.493-47.109,40.784-70.927,58.719c-23.813-19.437-47.785-37.238-71.859-54.203
		C1840.138,359.688,1887.87,358.212,1934.771,356.147z"/>
	<path class="st20" d="M2072.61,348.05c-22.431,27.552-45.168,51.562-68.156,73.058c-22.988-24.185-46.233-45.525-69.685-64.959
		C1981.675,354.079,2027.746,351.425,2072.61,348.05z"/>
	<path class="st20" d="M2158.693,405.066c-6.549,9.124-13.13,17.851-19.743,26.216c-21.783-31.684-43.908-59.051-66.34-83.232
		c29.239-2.2,57.967-4.707,86.081-7.562"/>
	<path class="st20" d="M1288.925,421.106c-22.989,24.188-45.722,51.217-68.153,82.149c-22.435-20.804-44.561-44.426-66.343-71.975
		C1197.991,427.147,1242.95,423.799,1288.925,421.106z"/>
	<path class="st20" d="M1429.532,414.865c-23.813,19.438-47.472,40.501-70.924,64.067c-23.449-17.361-46.692-36.337-69.685-57.826
		C1334.899,418.413,1381.905,416.369,1429.532,414.865z"/>
	<path class="st20" d="M1573.886,411.918c-24.231,16.963-48.416,34.526-72.491,53.438c-24.072-15.984-48.046-32.56-71.861-50.489
		C1477.161,413.366,1525.417,412.399,1573.886,411.918z"/>
	<path class="st20" d="M1719.495,411.918c-24.232,16.48-48.517,32.607-72.806,49.089c-24.286-16.481-48.573-32.608-72.806-49.089
		C1622.354,411.438,1671.028,411.438,1719.495,411.918z"/>
	<path class="st20" d="M1863.847,414.865c-23.815,17.931-47.786,34.504-71.861,50.488c-24.077-18.911-48.255-36.473-72.489-53.437
		C1767.966,412.399,1816.219,413.362,1863.847,414.865z"/>
	<path class="st20" d="M2004.456,421.106c-22.988,21.49-46.24,40.465-69.687,57.826c-23.45-23.566-47.107-44.634-70.924-64.067
		C1911.477,416.369,1958.479,418.413,2004.456,421.106z"/>
	<path class="st20" d="M2138.952,431.282c-21.777,27.547-43.914,51.172-66.343,71.975c-22.434-30.934-45.166-57.961-68.153-82.149
		C2050.438,423.803,2095.391,427.146,2138.952,431.282z"/>
	<path class="st20" d="M2158.693,461.375c-6.547-10.453-13.128-20.472-19.741-30.093c6.61,0.628,13.188,1.273,19.733,1.938"/>
	<path class="st20" d="M1134.688,525.958c28.115-8.567,56.842-16.092,86.084-22.7c-22.434,30.938-44.562,65.784-66.345,105.738
		c-6.612-5.854-13.191-11.995-19.739-18.457"/>
	<path class="st20" d="M1358.608,478.934c-23.451,23.57-46.695,49.646-69.687,79.209c-22.986-16.111-45.721-34.087-68.152-54.885
		C1265.634,493.124,1311.707,485.144,1358.608,478.934z"/>
	<path class="st20" d="M1501.395,465.355c-24.078,18.914-48.046,39.178-71.861,61.613c-23.813-14.935-47.475-30.678-70.924-48.036
		C1405.511,472.726,1453.245,468.288,1501.395,465.355z"/>
	<path class="st20" d="M1646.689,461.007c-24.286,16.484-48.573,33.323-72.808,51.246c-24.233-15.521-48.417-30.913-72.489-46.896
		C1549.547,462.432,1598.12,461.01,1646.689,461.007z"/>
	<path class="st20" d="M1791.984,465.355c-24.076,15.982-48.259,31.378-72.491,46.896c-24.23-17.925-48.521-34.764-72.803-51.246
		C1695.263,461.012,1743.835,462.431,1791.984,465.355z"/>
	<path class="st20" d="M1934.771,478.934c-23.451,17.358-47.109,33.104-70.927,48.035c-23.813-22.436-47.785-42.7-71.859-61.612
		C1840.138,468.287,1887.87,472.728,1934.771,478.934z"/>
	<path class="st20" d="M2072.61,503.258c-22.431,20.798-45.168,38.772-68.156,54.884c-22.988-29.562-46.233-55.638-69.685-79.208
		C1981.675,485.14,2027.746,493.125,2072.61,503.258z"/>
	<path class="st20" d="M2158.693,590.539c-6.549,6.462-13.13,12.604-19.743,18.456c-21.783-39.958-43.908-74.799-66.34-105.737
		c29.241,6.606,57.97,14.132,86.086,22.7"/>
	<path class="st20" d="M1288.925,558.142c-22.989,29.57-45.722,62.636-68.153,100.324c-22.435-14.046-44.561-30.192-66.343-49.471
		C1197.991,588.315,1242.95,571.604,1288.925,558.142z"/>
	<path class="st20" d="M1134.688,711.342c76.551-54.496,157.848-90.741,241.558-114.814
		c100.146-28.488,203.746-39.558,306.866-36.105c103.121,3.764,205.761,22.049,304.046,59.453
		c59.024,22.649,116.478,52.194,171.532,91.257"/>
	<path class="st20" d="M1429.532,526.969c-23.813,22.439-47.472,47.047-70.924,74.751c-23.449-13.227-46.692-27.469-69.685-43.578
		C1334.899,544.69,1381.905,534.479,1429.532,526.969z"/>
	<path class="st20" d="M1573.886,512.253c-24.231,17.925-48.416,36.932-72.491,57.794c-24.072-14.034-48.046-28.146-71.861-43.078
		C1477.161,519.469,1525.417,514.661,1573.886,512.253z"/>
	<path class="st20" d="M1719.495,512.253c-24.232,15.521-48.517,31.169-72.806,47.65c-24.286-16.48-48.573-32.129-72.806-47.65
		C1622.354,509.854,1671.028,509.854,1719.495,512.253z"/>
	<path class="st20" d="M1863.847,526.969c-23.815,14.932-47.786,29.045-71.861,43.078c-24.077-20.862-48.255-39.869-72.489-57.794
		C1767.966,514.66,1816.219,519.469,1863.847,526.969z"/>
	<path class="st20" d="M2004.456,558.142c-22.988,16.107-46.24,30.354-69.687,43.578c-23.45-27.705-47.107-52.312-70.924-74.751
		C1911.477,534.479,1958.479,544.688,2004.456,558.142z"/>
	<path class="st20" d="M2138.952,608.995c-21.777,19.272-43.914,35.423-66.343,49.471c-22.434-37.688-45.166-70.752-68.153-100.324
		C2050.438,571.604,2095.391,588.315,2138.952,608.995z"/>
	<path class="st20" d="M2158.689,646.836c-6.547-13.11-13.125-25.711-19.737-37.841c6.612,3.14,13.194,6.371,19.741,9.696"/>
</g>
<g id="lightning-fist">
	<line class="st13" x1="1609.413" y1="686.827" x2="1374.132" y2="686.827"/>
	<line class="st5" x1="1609.413" y1="710.16" x2="1485.132" y2="710.16"/>
	<line class="st13" x1="1705.132" y1="686.827" x2="1940.413" y2="686.827"/>
	<line class="st5" x1="1705.132" y1="710.16" x2="1829.413" y2="710.16"/>
	<polygon class="st15" points="1691.222,671.25 1693.361,670.333 1683.316,665.074 1682.373,666.618 	"/>
	<polygon class="st15" points="1696.707,691.367 1698.513,691.583 1698.513,681.06 1696.707,682.042 	"/>
	<polygon class="st15" points="1698.513,703.805 1696.707,703.761 1696.707,713.803 1698.513,715.151 	"/>
	<polygon class="st15" points="1671.312,660.828 1672.406,659.364 1663.694,654.804 1663.646,656.814 	"/>
	<polygon class="st15" points="1617.666,703.449 1615.859,703.235 1615.859,714.267 1617.666,713.284 	"/>
	<polygon class="st15" points="1623.998,670.808 1632.372,666.424 1631.658,664.761 1622.201,669.71 	"/>
	<polygon class="st15" points="1643.361,660.671 1651.404,656.461 1651.662,654.288 1642.498,659.085 	"/>
	<polygon class="st15" points="1615.859,679.775 1615.859,691.027 1617.666,691.072 1617.666,681.125 	"/>
	<path class="st16" d="M1652.803,659.984l6.115-4.309l-1.952,16.061l2.232,0.22c0.818,0.06,1.592,0.361,2.245,0.847l0.613-24.8
		l-4.562,3.783l1.777-26.329l-4.563,3.791l1.598-24.645l-6.077,32.8l5.834-4.847L1652.803,659.984z"/>
	<path class="st16" d="M1679.569,662.09l-10.419,13.86c1.076,0.19,2.031,0.754,2.701,1.627c0.362,0.476,0.609,1.011,0.752,1.573
		l13.521-22.136l-5.845,0.995l14.705-21.913l-5.848,1.002l13.705-20.545l-21.664,25.364l7.477-1.277l-16.536,22.122L1679.569,662.09
		z"/>
	<path class="st16" d="M1687.457,674.83l6.789,3.141l-13.776,5.868c0,0.247-0.013,0.493-0.057,0.744l-0.826,4.731l22.873-12.461
		l-5.558-2.062l23.69-11.625l-5.565-2.056l22.143-10.938l-31.444,11.133l7.113,2.634L1687.457,674.83z"/>
	<path class="st16" d="M1623.794,641.854l10.891,25.384l3.143-6.791l5.677,13.328c0.123-0.01,0.241-0.038,0.366-0.038h3.044
		c0.588,0,1.142,0.114,1.67,0.289l-11.874-21.793l-2.062,5.559l-11.625-23.69l-2.056,5.564l-10.938-22.142l11.134,31.443
		L1623.794,641.854z"/>
	<polygon class="st16" points="1717.289,690.371 1722.135,696.206 1694.707,692.946 1699.017,699.062 1679.148,696.646 
		1679.592,701.532 1706.689,702.202 1702.904,697.639 1729.233,699.416 1725.444,694.854 1750.089,696.452 	"/>
	<polygon class="st16" points="1601.775,673.514 1600.497,666.037 1622.619,682.574 1621.943,675.123 1637.309,686.671 
		1638.401,683.496 1638.401,681.72 1616.869,668.567 1617.865,674.413 1595.952,659.707 1596.955,665.555 1576.41,651.849 	"/>
	<polygon class="st16" points="1713.64,722.189 1714.918,729.666 1692.795,713.131 1693.47,720.582 1680.27,710.66 
		1677.666,714.384 1698.544,727.137 1697.55,721.292 1719.462,735.997 1718.461,730.149 1739.005,743.855 	"/>
	<polygon class="st16" points="1619.434,717.734 1637.798,709.911 1635.043,705.872 1611.219,718.851 1616.778,720.913 
		1593.088,732.535 1598.651,734.593 1576.51,745.531 1607.955,734.396 1600.841,731.766 1626.224,720.876 	"/>
	<polygon class="st16" points="1592.413,698.631 1619.84,701.891 1615.53,695.773 1633.429,697.949 1635.025,693.308 
		1607.858,692.635 1611.642,697.199 1585.312,695.421 1589.104,699.983 1564.46,698.386 1597.258,704.467 	"/>
	<path class="st15" d="M1689.226,723.56l-16.286,8.525l-0.062-9.26l8.196-11.725l-1.575-17.368l1.588-9.091
		c0.405-2.331-1.08-4.574-3.387-5.106l-1.196-0.279c-1.115-0.261-2.293-0.054-3.278,0.531c-0.073-0.83-0.37-1.627-0.891-2.307
		c-0.729-0.954-1.789-1.562-2.982-1.713l-2.927-0.366c-1.04-0.137-2.062,0.12-2.938,0.68c-0.021-1.018-0.362-1.991-1.03-2.779
		c-0.779-0.924-1.872-1.479-3.056-1.565l-4.116-0.403c-1.226-0.089-2.409,0.315-3.321,1.146c-0.748,0.68-1.213,1.566-1.382,2.54
		c-0.992-0.898-2.294-1.463-3.736-1.463h-3.11c-3.082,0-5.589,2.508-5.589,5.59v4.388l-6.382,18.546l14.094,20.671l-1.852,10.683
		l-19.13-10.013l-2.139,0.917l34.45,18.032l33.836-17.71L1689.226,723.56z M1672.911,683.229c0.104-0.733,0.499-1.366,1.108-1.785
		c0.612-0.418,1.342-0.56,2.065-0.392l1.195,0.28c1.354,0.312,2.225,1.628,1.985,2.994l-1.831,10.486
		c-2.135,0.35-4.141,0.147-6.102-0.612L1672.911,683.229z M1676.681,696.892c-0.61,1.43-1.45,3.375-1.803,4.122
		c-0.416,0.888-1.549,1.748-2.723,1.605l-0.874-0.093c-0.619-0.065-1.167-0.403-1.501-0.931c-0.336-0.521-0.411-1.16-0.212-1.749
		l1.299-3.816C1672.877,696.854,1674.804,697.142,1676.681,696.892z M1663.268,679.569c0.069-0.707,0.412-1.342,0.97-1.785
		c0.555-0.444,1.254-0.646,1.959-0.556l2.925,0.37c0.698,0.086,1.321,0.444,1.748,1.003c0.43,0.561,0.612,1.254,0.515,1.952
		l-1.894,13.518c-2.563,0.751-4.996,0.494-7.561-0.802L1663.268,679.569z M1661.836,695.361c2.309,1.146,4.659,1.438,7.012,0.872
		l-1.024,3.018c-0.002,0.003-0.001,0.006-0.005,0.011l-0.327,0.965c-0.353,1.037-1.384,1.664-2.478,1.481l-1.894-0.313
		c-0.817-0.136-1.417-0.86-1.396-1.688L1661.836,695.361z M1652.345,675.718c0.018-0.724,0.32-1.389,0.856-1.874
		c0.534-0.482,1.224-0.716,1.938-0.674l4.103,0.402c0.707,0.053,1.348,0.379,1.807,0.92c0.455,0.539,0.671,1.226,0.604,1.93
		l-1.555,16.6c-2.698,0.479-4.6,0.23-6.938-0.578c1.008-0.399,2.016-0.972,2.9-1.79c1.808-1.677,2.725-4.021,2.725-6.97v-0.923
		h-6.354v-3.616c0-0.416-0.054-0.818-0.14-1.208L1652.345,675.718z M1660.047,700.789c-1.77-1.735-4.336-3.008-7.995-3.572
		l-0.071-3.133l-0.029-0.128c1.944,0.719,3.674,1.146,5.618,1.146c0.758,0,1.575-0.089,2.434-0.22l-0.122,4.773
		C1659.87,700.05,1659.934,700.429,1660.047,700.789z M1639.989,679.145c0-2.064,1.678-3.744,3.743-3.744h3.11
		c1.724,0,3.165,1.179,3.598,2.767l-0.108,4.595h-10.343V679.145z M1645.722,734.329l2.079-12.003l-13.993-20.523l5.915-17.195
		h17.181c-0.162,1.973-0.864,3.546-2.089,4.687c-2.688,2.501-7.09,2.216-7.136,2.209l-1.067-0.078l0.079,1.067
		c0.116,1.541,0.226,4.288,0.025,5.09l-0.288,1.146h1.182c11.648,0,14.247,5.47,14.562,13.68c0.021,0.496,0.428,0.888,0.92,0.888
		c0.014,0,0.023,0,0.037-0.002c0.507-0.02,0.904-0.448,0.885-0.958c-0.129-3.38-0.641-6.785-2.361-9.54
		c0.353,0.203,0.746,0.349,1.166,0.418l1.896,0.314c0.227,0.037,0.452,0.056,0.673,0.056c1.053,0,2.04-0.409,2.782-1.106
		c0.021,0.038,0.032,0.077,0.056,0.114c0.639,1.001,1.682,1.645,2.861,1.771l0.875,0.093c0.147,0.016,0.293,0.023,0.438,0.023
		c1.899,0,3.501-1.3,4.15-2.681c0.314-0.675,0.995-2.242,1.574-3.586l1.053,12.385l-8.146,11.652l0.071,10.798l-7.087,3.709v-8.248
		c0-0.511-0.411-0.924-0.923-0.924c-0.51,0-0.921,0.413-0.921,0.924v9.213l-4.983,2.609L1645.722,734.329z M1648.594,693.355
		c0.479-0.017,1.094-0.066,1.778-0.171l-0.031,3.826c-0.552-0.047-1.101-0.096-1.696-0.112
		C1648.705,695.783,1648.646,694.324,1648.594,693.355z"/>
</g>
</svg>
