<?xml version="1.0" encoding="utf-8"?>
<!-- Generator: Adobe Illustrator 15.0.0, SVG Export Plug-In . SVG Version: 6.00 Build 0)  -->
<!DOCTYPE svg PUBLIC "-//W3C//DTD SVG 1.1//EN" "http://www.w3.org/Graphics/SVG/1.1/DTD/svg11.dtd">
<svg version="1.1" id="Layer_1" xmlns="http://www.w3.org/2000/svg" xmlns:xlink="http://www.w3.org/1999/xlink" x="0px" y="0px"
	 width="881px" height="768.5px" viewBox="0 0 881 768.5" style="enable-background:new 0 0 881 768.5;" xml:space="preserve">
<style type="text/css">
<![CDATA[
	.st0{fill:#E03F07;}
	.st1{clip-path:url(#SVGID_6_);fill:none;stroke:#F9773E;stroke-miterlimit:10;}
	.st2{clip-path:url(#SVGID_16_);fill:none;stroke:#F9773E;stroke-miterlimit:10;}
	.st3{fill:none;stroke:#6B989F;stroke-width:2;stroke-miterlimit:10;}
	.st4{fill:#53848C;}
	.st5{fill:none;stroke:#FFFFFF;stroke-width:6;stroke-miterlimit:10;}
	.st6{fill:none;stroke:#F9773E;stroke-miterlimit:10;}
	.st7{fill:none;stroke:#FFFFFF;stroke-width:3;stroke-linecap:square;stroke-miterlimit:10;}
	.st8{clip-path:url(#SVGID_14_);fill:none;stroke:#F9773E;stroke-miterlimit:10;}
	.st9{fill:#F9773E;}
	.st10{opacity:0.5;fill:#6B989F;enable-background:new    ;}
	.st11{opacity:0.75;fill:#FFB81A;enable-background:new    ;}
	.st12{opacity:0.5;fill:#6B989F;}
	.st13{fill:#FF7931;}
	.st14{fill:#FFB81A;}
	.st15{fill:#FFFFFF;}
	.st16{clip-path:url(#SVGID_12_);fill:none;stroke:#F9773E;stroke-miterlimit:10;}
	.st17{fill:none;}
	.st18{clip-path:url(#SVGID_2_);fill:#F9773E;}
	.st19{fill:none;stroke:#335E6E;stroke-width:2;stroke-miterlimit:10;}
	.st20{fill:#335E6E;}
	.st21{fill:#345D6E;}
	.st22{fill:none;stroke:#FFB81A;stroke-width:2;stroke-linecap:round;stroke-miterlimit:10;}
	.st23{fill:#6B989F;}
	.st24{fill:none;stroke:#FFFFFF;stroke-width:1.4167;stroke-miterlimit:10;}
	.st25{clip-path:url(#SVGID_4_);fill:none;stroke:#F9773E;stroke-width:2;stroke-miterlimit:10;}
	.st26{fill:none;stroke:#F9773E;stroke-width:2;stroke-miterlimit:10;}
	.st27{clip-path:url(#SVGID_10_);fill:none;stroke:#F9773E;stroke-miterlimit:10;}
	.st28{fill:none;stroke:#FFB81A;stroke-width:2.9184;stroke-miterlimit:10;}
	.st29{clip-path:url(#SVGID_8_);fill:none;stroke:#F9773E;stroke-miterlimit:10;}
	.st30{fill:#71A8A8;}
	.st31{fill:#FFFFFF;stroke:#231F20;stroke-miterlimit:10;}
	.st32{fill:none;stroke:#FFFFFF;stroke-width:3;stroke-miterlimit:10;}
	.st33{clip-path:url(#SVGID_20_);fill:none;stroke:#F9773E;stroke-miterlimit:10;}
	.st34{clip-path:url(#SVGID_18_);fill:none;stroke:#F9773E;stroke-miterlimit:10;}
	.st35{fill:none;stroke:#FFFFFF;stroke-width:1.4167;stroke-linecap:round;stroke-miterlimit:10;}
	.st36{fill:none;stroke:#FFFFFF;stroke-width:1.4167;stroke-miterlimit:1;}
]]>
</style>
<symbol  id="New_Symbol" viewBox="-10.3 -10.3 20.6 20.6">
	<polygon class="st31" points="9.8,-9.8 -9.8,-9.8 -9.8,9.8 9.8,9.8 	"/>
</symbol>
<g id="first">
	
		<use xlink:href="#New_Symbol"  width="20.6" height="20.6" x="-10.3" y="-10.3" transform="matrix(0.7046 0 0 -0.7046 96.3501 322.0088)" style="overflow:visible;"/>
</g>
<g id="ep4-badge">
	<g id="_x3E_white_3_">
		<path id="XMLID_93_" class="st32" d="M252.899,324.6h3.2c3.5,0,3.2-4.199,3.2-4.199h-11.101v7.1l7.2,2"/>
		<polyline id="XMLID_92_" class="st32" points="253.499,324.6 262.899,324.6 262.899,315.9 248.1,315.9 248.1,321.801 		"/>
		<line id="XMLID_91_" class="st32" x1="259.199" y1="324.6" x2="259.199" y2="315.9"/>
		<line id="XMLID_90_" class="st32" x1="260.899" y1="329.4" x2="260.899" y2="324.801"/>
		<line id="XMLID_89_" class="st32" x1="255.499" y1="320" x2="255.499" y2="315.9"/>
		<line id="XMLID_88_" class="st32" x1="251.8" y1="320" x2="251.8" y2="315.9"/>
	</g>
	<g id="XMLID_94_">
		<path class="st14" d="M255.499,308.801l12,6.299v13.701l-12,6.299l-12-6.299V315.1L255.499,308.801 M255.499,306.4l-14.199,7.4
			V330.2l14.199,7.399l14.2-7.399v-16.399L255.499,306.4L255.499,306.4z"/>
	</g>
</g>
<g id="ep3-badge">
	<g id="_x3E_white_2_">
		<polyline id="XMLID_74_" class="st7" points="204.699,316.801 214.399,311.7 224.1,316.801 224.1,321.7 214.399,326.801 		"/>
		<polyline id="XMLID_73_" class="st7" points="224.1,321.4 224.1,326.301 214.399,331.4 		"/>
		<line id="XMLID_72_" class="st32" x1="224.1" y1="326.7" x2="224.1" y2="331.1"/>
		<line id="XMLID_71_" class="st7" x1="223.6" y1="317.301" x2="214.399" y2="322.1"/>
	</g>
	<g>
		<g id="XMLID_69_">
			<g>
				<path class="st14" d="M202.399,317.301l9.9,5.199V334l-9.9-5.199V317.301 M200.299,313.801V330.2l14.2,7.399l0,0V321.2
					L200.299,313.801L200.299,313.801L200.299,313.801z"/>
			</g>
		</g>
		<path id="XMLID_68_" class="st14" d="M222.1,320.7c-0.1,0.399-0.4,0.7-0.8,0.7s-0.6-0.301-0.5-0.7s0.4-0.7,0.8-0.7
			C222,320,222.1,320.301,222.1,320.7z"/>
		<path id="XMLID_67_" class="st14" d="M222.1,325.301c-0.1,0.399-0.4,0.699-0.8,0.699s-0.6-0.3-0.5-0.699
			c0.1-0.4,0.4-0.701,0.8-0.701C222,324.6,222.1,324.9,222.1,325.301z"/>
		<path id="XMLID_66_" class="st14" d="M222.1,330c-0.1,0.4-0.4,0.7-0.8,0.7s-0.6-0.3-0.5-0.7s0.4-0.699,0.8-0.699
			C222,329.301,222.1,329.6,222.1,330z"/>
		<g id="XMLID_59_">
			<path class="st14" d="M214.399,308.801l12,6.299v13.701l-12,6.299l-12-6.299V315.1L214.399,308.801 M214.399,306.4l-14.2,7.4
				V330.2l14.2,7.399l14.2-7.399v-16.399L214.399,306.4L214.399,306.4z"/>
		</g>
	</g>
</g>
<g id="ep2-badge">
	<g id="_x3E_white_1_">
		<line id="XMLID_333_" class="st32" x1="181.799" y1="317.301" x2="174.799" y2="321.4"/>
		<line id="XMLID_332_" class="st32" x1="173.399" y1="331.6" x2="173.399" y2="323.5"/>
		<line id="XMLID_330_" class="st32" x1="171.899" y1="321.4" x2="164.899" y2="317.301"/>
		<polyline id="XMLID_329_" class="st32" points="179.899,328.7 173.399,332.1 166.799,328.7 		"/>
		<polyline id="XMLID_328_" class="st32" points="175.899,313.4 182.399,316.801 182.399,324.301 		"/>
		<polyline id="XMLID_327_" class="st32" points="164.199,324.301 164.199,316.801 170.699,313.4 		"/>
	</g>
	<g id="XMLID_335_">
		<path class="st14" d="M173.399,308.801l12,6.299v13.701l-12,6.299l-12-6.299V315.1L173.399,308.801 M173.399,306.4l-14.2,7.4
			V330.2l14.2,7.399l14.2-7.399v-16.399L173.399,306.4L173.399,306.4z"/>
	</g>
</g>
<g id="ep1-badge">
	<g id="_x3E_white">
		<polyline id="XMLID_108_" class="st32" points="125.199,318 129.199,321.9 125.199,326 		"/>
		<polyline id="XMLID_107_" class="st32" points="139.399,326 135.299,321.9 139.399,318 		"/>
		<polyline id="XMLID_105_" class="st32" points="136.299,314.9 132.299,318.9 128.299,314.9 		"/>
		<polyline id="XMLID_104_" class="st32" points="128.299,329 132.299,325.1 136.299,329 		"/>
		<line id="XMLID_102_" class="st32" x1="132.299" y1="317.7" x2="132.299" y2="308.5"/>
		<line id="XMLID_101_" class="st32" x1="132.299" y1="335.4" x2="132.299" y2="326.2"/>
		<line id="XMLID_100_" class="st32" x1="136.5" y1="321.9" x2="145.799" y2="321.9"/>
		<line id="XMLID_98_" class="st32" x1="119.6" y1="321.9" x2="128.799" y2="321.9"/>
	</g>
	<g id="XMLID_60_">
		<path class="st14" d="M132.299,308.801l12,6.299v13.701l-12,6.299l-12-6.299V315.1L132.299,308.801 M132.299,306.4l-14.2,7.4
			V330.2l14.2,7.399l14.2-7.399v-16.399L132.299,306.4L132.299,306.4z"/>
	</g>
</g>
<g id="rank-badge-cyber-cadet">
	<polygon class="st15" points="447.399,303.2 448.199,304.9 449.899,305.2 448.699,306.4 448.999,308.2 447.399,307.4 
		445.899,308.2 446.199,306.4 444.999,305.2 446.699,304.9 	"/>
	<polygon class="st15" points="423.399,303.2 424.1,304.9 425.8,305.2 424.6,306.4 424.899,308.2 423.399,307.4 421.899,308.2 
		422.199,306.4 420.899,305.2 422.699,304.9 	"/>
	<polygon class="st14" points="432.399,332.5 430.1,331.301 429.899,331.4 429.899,331.2 424.8,328.5 424.8,316.2 432.999,311.9 
		433.499,309.301 422.699,314.9 422.699,329.801 431.899,334.6 	"/>
	<polygon class="st14" points="437.399,309.301 437.8,311.9 445.999,316.2 445.999,328.5 438.999,332.2 438.199,335.1 
		448.1,329.801 448.1,314.9 	"/>
	<g>
		<polygon class="st15" points="436.1,332.5 433.3,334.5 435.399,325.2 431.899,328 433.999,315.301 437.499,315.301 436.1,320.9 
			438.899,318.801 436.499,328.801 439.1,326.801 434.6,342.301 		"/>
		<rect x="430.399" y="314.6" class="st15" width="9.9" height="1.4"/>
		<polygon class="st15" points="435.399,306.1 433.999,314.6 436.8,314.6 		"/>
		<g id="XMLID_45_">
			<g id="XMLID_157_">
				<g id="XMLID_185_">
					<g id="XMLID_229_">
						<polygon class="st15" points="435.399,304.7 433.999,305.5 433.999,307.4 435.399,308.2 436.8,307.4 436.8,305.5 						"/>
					</g>
				</g>
			</g>
		</g>
	</g>
</g>
<g id="rank-badge-technical-cadet">
	<polygon class="st14" points="401.499,310.301 401.8,312.5 408.499,312.5 408.499,328.2 401.8,332.801 401.499,335.7 
		410.6,329.301 410.6,310.301 	"/>
	<polygon class="st14" points="396.8,332.9 390.199,328.5 390.199,312.5 396.8,312.5 397.199,310.301 387.999,310.301 388.1,329.6 
		397.199,335.7 	"/>
	<g>
		<g>
			<g>
				<polygon class="st15" points="399.3,315.301 396.499,318.1 399.3,342.2 402.1,318.1 				"/>
			</g>
		</g>
		<rect x="394.3" y="314.6" class="st15" width="9.899" height="1.4"/>
		<polygon class="st15" points="399.3,306.1 397.899,314.6 400.699,314.6 		"/>
		<g id="XMLID_166_">
			<g id="XMLID_168_">
				<g id="XMLID_169_">
					<g id="XMLID_170_">
						<polygon class="st15" points="399.3,304.7 397.899,305.5 397.899,307.4 399.3,308.2 400.699,307.4 400.699,305.5 						"/>
					</g>
				</g>
			</g>
		</g>
	</g>
	<polygon class="st15" points="411.3,303.2 412.1,304.9 413.8,305.2 412.6,306.4 412.899,308.2 411.3,307.4 409.8,308.2 
		410.1,306.4 408.8,305.2 410.6,304.9 	"/>
	<polygon class="st15" points="387.3,303.2 387.999,304.9 389.699,305.2 388.499,306.4 388.8,308.2 387.3,307.4 385.8,308.2 
		386.1,306.4 384.8,305.2 386.499,304.9 	"/>
</g>
<g id="rank-badge-cadet-first-class">
	<g>
		<path class="st14" d="M372.399,312.5v15.7l-9.2,6.399l-9.1-6.199l-0.101-16h18.4 M374.499,310.301h-22.6l0.1,19.299L363.3,337.2
			l11.3-7.899v-19H374.499z"/>
	</g>
	<line class="st28" x1="352.499" y1="320.2" x2="373.899" y2="320.2"/>
	<polygon class="st15" points="375.199,303.2 375.999,304.9 377.699,305.2 376.499,306.4 376.8,308.2 375.199,307.4 373.699,308.2 
		373.999,306.4 372.699,305.2 374.499,304.9 	"/>
	<polygon class="st15" points="351.1,303.2 351.899,304.9 353.6,305.2 352.399,306.4 352.699,308.2 351.1,307.4 349.699,308.2 
		349.899,306.4 348.699,305.2 350.399,304.9 	"/>
</g>
<g id="rank-badge-cadet">
	<g>
		<path class="st14" d="M337.999,312.5v15.7L328.8,334.6l-9.101-6.199l-0.1-16h18.399 M340.199,310.301h-22.7L317.6,329.6
			l11.3,7.601l11.3-7.899V310.301L340.199,310.301z"/>
	</g>
	<line class="st28" x1="318.199" y1="320.2" x2="339.6" y2="320.2"/>
</g>
<g id="rank-badge-recruit">
	<g>
		<path class="st14" d="M304.1,312.5v15.7l-9.2,6.399l-9.1-6.199l-0.101-16h18.4 M306.199,310.301h-22.7L283.6,329.6l11.3,7.601
			l11.3-7.899V310.301L306.199,310.301z"/>
	</g>
</g>
<g id="chapter-progress-chapter">
	<g id="XMLID_150_">
		<path class="st23" d="M94.6,356.6l3.5,1.9v4.1l-3.5,1.9l-3.5-1.9v-4.1L94.6,356.6 M94.6,354.2l-5.7,3v6.7l5.7,3l5.7-3v-6.7
			L94.6,354.2L94.6,354.2z"/>
	</g>
</g>
<g id="chapter-progress-slide">
	<rect x="103.799" y="357.301" class="st23" width="6.4" height="6.399"/>
</g>
<g id="chapter-progress-test">
	<polygon class="st10" points="137.5,367 133.399,369.2 125.399,365.1 125.399,356.1 128,354.7 126.6,353.4 123.6,355 123.6,366.1 
		133.399,371.1 139.199,368.1 	"/>
	<polygon class="st10" points="133.399,349.9 128.799,352.2 130.6,353.4 133.399,352 141.299,356.1 141.299,365.1 140,365.7 
		141.399,367 143.1,366.1 143.1,355 	"/>
	<g>
		<polygon class="st9" points="126.299,351.7 135.399,357.4 132.6,357.301 140.199,363.9 136.899,363.9 141.799,368.7 132,362.4 
			135.699,362.4 127.6,356.1 130.5,356 		"/>
	</g>
</g>
<g id="chapter-progress-duties">
	<circle class="st23" cx="116.899" cy="360.5" r="3.2"/>
</g>
<g id="list-progress-base">
	<g id="hex-outer_1_">
		<g id="XMLID_1080_">
			<path class="st9" d="M204,347.801l11.3,5.899V366.6l-11.3,5.9l-11.3-5.9V353.7L204,347.801 M204,344.6l-14.2,7.4v16.4l14.2,7.4
				l14.2-7.4V352L204,344.6L204,344.6z"/>
		</g>
	</g>
	<g id="hex-inner_1_">
		<g id="XMLID_2384_">
			<polygon class="st14" points="204,370.5 194.899,365.6 194.899,354.7 204,349.801 213,354.7 213,365.5 			"/>
		</g>
	</g>
</g>
<g id="list-progress-complete">
	<g id="hex-inner">
		<g>
			<polygon class="st30" points="174.699,354.4 178.6,356.801 174.1,356.801 173.399,356.801 180.1,362.5 180.1,354.7 171,349.801 
				169,350.801 			"/>
		</g>
		<g>
			<polygon class="st30" points="168.399,364.1 164.799,361.7 169,361.7 170.699,361.6 162,354.9 162,365.6 171,370.5 
				175.1,368.301 			"/>
		</g>
	</g>
	<g id="hex-outer">
		<polygon class="st4" points="176.899,369.4 171,372.6 159.699,366.6 159.699,353.7 163.299,351.801 161.299,349.7 156.899,352 
			156.899,368.301 171,375.7 179.699,371.2 		"/>
		<polygon class="st4" points="171,344.6 164.399,348 167.299,349.801 171,347.801 182.399,353.7 182.399,366.6 180.6,367.5 
			182.799,369.6 185.199,368.301 185.199,352 		"/>
	</g>
	<g id="lightning_1_">
		<g id="lightning">
			<polygon class="st14" points="160.6,347.1 174.1,355.5 170,355.5 181.199,365.1 176.299,365.1 183.399,372.1 169.1,362.9 
				174.5,362.9 162.5,353.7 166.899,353.5 			"/>
		</g>
	</g>
</g>
<g id="ctanlee">
	<circle class="st15" cx="266.899" cy="377.2" r="6.399"/>
	<path class="st5" d="M271.399,393.6c7.2-2,12.5-8.5,12.5-16.399"/>
	<path class="st5" d="M249.899,377.2c0,7.8,5.3,14.399,12.5,16.399"/>
	<path class="st5" d="M278.699,365c-3.1-2.9-7.2-4.8-11.8-4.8c-4.7,0-8.9,1.899-12,4.899"/>
</g>
<g id="action-btn-fist">
	<polygon class="st15" points="444.399,438.2 412.699,421.6 412.699,385.1 444.399,368.5 476.1,385.1 476.1,421.6 	"/>
	<polygon class="st9" points="444.399,435.801 414.899,420.301 414.899,386.301 444.399,370.9 473.899,386.301 473.899,420.301 	"/>
	<path class="st21" d="M450.999,364c0,0,7.4,2,10.101,3.4c-3.4,6.5-11.5,2.4-11.5,2.4s-2.3,2.799-3,3.6
		c11.1,5.199,26.2,0.699,26.2,0.699l-0.9,5.9l-5.6,13.5l-9.7,5l-17.7,35.301L418.199,423l25.8-32.4l-2.699-19.1L450.999,364z"/>
	<path class="st24" d="M450.999,364c0,0,7.4,2,10.101,3.4c-3.4,6.5-11.5,2.4-11.5,2.4s-2.3,2.799-3,3.6
		c11.1,5.199,26.2,0.699,26.2,0.699l-0.9,5.9l-5.6,13.5l-9.7,5l-17.7,35.301L418.199,423l25.8-32.4l-2.699-19.1L450.999,364z"/>
	<path class="st21" d="M456.699,356.801l-2.1-1.101c-1.8-0.899-3.9-0.2-4.8,1.5l-7,13.399l8.5,4.4l7-13.4
		C459.199,359.801,458.499,357.7,456.699,356.801"/>
	<path class="st24" d="M456.699,356.801l-2.1-1.101c-1.8-0.899-3.9-0.2-4.8,1.5l-7,13.399l8.5,4.4l7-13.4
		C459.199,359.801,458.499,357.7,456.699,356.801z"/>
	<path class="st21" d="M463.199,358.2l2.601,1.7c1.3,0.8,1.699,2.5,0.8,3.8l-7.3,11.2c-3-0.9-4.4-2.1-6.301-4.301L459.3,359.2
		C460.199,357.9,461.899,357.4,463.199,358.2"/>
	<path class="st24" d="M463.199,358.2l2.601,1.7c1.3,0.8,1.699,2.5,0.8,3.8l-7.3,11.2c-3-0.9-4.4-2.1-6.301-4.301L459.3,359.2
		C460.199,357.9,461.899,357.4,463.199,358.2z"/>
	<path class="st21" d="M471.199,366.301L469.3,365c-1.301-0.9-3-0.5-3.801,0.7l-6.1,9.2c1.3,2,3.1,3.6,6,4l6.4-8.9
		C472.699,368.801,472.399,367.1,471.199,366.301"/>
	<path class="st24" d="M471.199,366.301L469.3,365c-1.301-0.9-3-0.5-3.801,0.7l-6.1,9.2c1.3,2,3.1,3.6,6,4l6.4-8.9
		C472.699,368.801,472.399,367.1,471.199,366.301z"/>
	<path class="st21" d="M475.8,375.5l-5.301,6.9c-2.3-0.7-3.899-1.9-5.1-3.4l5.3-7.3c0.9-1.3,2.8-1.5,4-0.5l0.7,0.601
		C476.499,372.7,476.699,374.301,475.8,375.5"/>
	<path class="st24" d="M475.8,375.5l-5.301,6.9c-2.3-0.7-3.899-1.9-5.1-3.4l5.3-7.3c0.9-1.3,2.8-1.5,4-0.5l0.7,0.601
		C476.499,372.7,476.699,374.301,475.8,375.5z"/>
	<path class="st21" d="M466.699,385.4c0.9-0.6,3.8-3,3.8-3c-2.1-0.4-3.8-1.6-5.1-3.4l-2.8,2.7c-1.101,1-0.9,2.7,0.3,3.5l0.6,0.399
		C464.499,386.2,465.899,386,466.699,385.4"/>
	<path class="st36" d="M466.699,385.4c0.9-0.6,3.8-3,3.8-3c-2.1-0.4-3.8-1.6-5.1-3.4l-2.8,2.7c-1.101,1-0.9,2.7,0.3,3.5l0.6,0.399
		C464.499,386.2,465.899,386,466.699,385.4z"/>
	<path class="st21" d="M458.899,382.301l-1.2-0.9c-0.8-0.6-1-1.7-0.5-2.6l2.2-3.9c1.4,2.5,3.4,3.8,6,4l-3.4,3.199
		C461.199,383,459.899,383,458.899,382.301"/>
	<path class="st36" d="M458.899,382.301l-1.2-0.9c-0.8-0.6-1-1.7-0.5-2.6l2.2-3.9c1.4,2.5,3.4,3.8,6,4l-3.4,3.199
		C461.199,383,459.899,383,458.899,382.301z"/>
	<path class="st21" d="M450.3,376.1l6,4.301l3.1-5.5c-3-0.7-4.5-1.801-6.3-4.301L450.3,376.1z"/>
	<path class="st24" d="M450.3,376.1l6,4.301l3.1-5.5c-3-0.7-4.5-1.801-6.3-4.301L450.3,376.1z"/>
	<path class="st21" d="M418.699,422.801l20.9-33.4l-2.2-19l10.8-10.2c0,0,10.101,5.3,12.8,6.7c-3.399,6.5-10.1,2.3-10.1,2.3
		s-1.3,2.899-1.9,3.7c9,4.699,10.801,9,3.5,16.4"/>
	<path class="st35" d="M418.699,422.801l20.9-33.4l-2.2-19l10.8-10.2c0,0,10.101,5.3,12.8,6.7c-3.399,6.5-10.1,2.3-10.1,2.3
		s-1.3,2.899-1.9,3.7c9,4.699,10.801,9,3.5,16.4"/>
	<path class="st15" d="M434.699,425c0.9-8.3,2.8-16.5,5.601-24.6c0.199,1.8,0.399,3.6,0.699,5.3c1.9-5.8,4.4-11.399,7.301-16.899
		c-0.301,2.1-0.4,4.1-0.601,6.1c2.3-3.5,4.7-6.801,7.4-10c1.3-1.6,1.7-1.2,0.6,0.5c-3.8,6.1-6.899,12.5-9.3,19
		c-0.1-1.801-0.2-3.6-0.2-5.4c-2.2,5.2-4,10.5-5.3,15.9c-0.4-1.9-0.8-3.801-1.2-5.801C437.6,414.301,435.899,419.6,434.699,425"/>
</g>
<g id="mini-preview-test">
	<rect x="526.399" y="325.6" class="st15" width="47.1" height="99.601"/>
	<path class="st20" d="M567.199,331.9V419h-34.6v-87.1H567.199 M573.399,325.6h-47.1V425.2h47.1V325.6L573.399,325.6z"/>
	<rect x="530.8" y="400.9" class="st23" width="38.199" height="17.5"/>
	<path class="st20" d="M567.199,403.5v12.4h-34.5v-12.4H567.199 M570.3,400.4h-40.801V419.1H570.3V400.4L570.3,400.4z"/>
	<ellipse class="st0" cx="549.899" cy="383.2" rx="7.8" ry="7.8"/>
	<path class="st20" d="M549.899,375.5c4.3,0,7.8,3.5,7.8,7.801c0,4.299-3.5,7.799-7.8,7.799s-7.8-3.5-7.8-7.799
		C542.1,378.9,545.6,375.5,549.899,375.5 M549.899,369.2c-7.8,0-14.1,6.3-14.1,14s6.3,14,14.1,14s14.1-6.3,14.1-14
		S557.699,369.2,549.899,369.2L549.899,369.2z"/>
	<path class="st11" d="M545.3,384.801c-0.9,0-1.601-0.701-1.601-1.601c0-3.399,2.8-6.101,6.2-6.101c0.9,0,1.6,0.701,1.6,1.601
		s-0.699,1.601-1.6,1.601c-1.7,0-3.1,1.399-3.1,3C546.8,384.1,546.1,384.801,545.3,384.801z"/>
	<g>
		<path class="st9" d="M573.399,325.6V425.2h-47.1V325.6H573.399 M576.399,322.6h-3h-47.1h-3v3V425.2v3h3h47.1h3v-3V325.6V322.6
			L576.399,322.6z"/>
	</g>
</g>
<g id="mini-generation">
	<rect x="655.999" y="299.1" class="st17" width="179" height="132.8"/>
	<rect x="693.6" y="348.2" class="st23" width="87.7" height="11.5"/>
	<path class="st9" d="M779.899,358.1h-84.7V349.7h84.7V358.1z M782.899,346.7h-3h-84.7h-3v3v8.5v3h3h84.7h3v-3v-8.5V346.7z"/>
	<rect x="687.999" y="354.9" class="st23" width="99" height="66.5"/>
	<path class="st9" d="M785.499,419.9h-96v-63.5h96V419.9z M788.499,353.4h-3h-96h-3v3v63.5v3h3h96h3v-3v-63.5V353.4z"/>
	<polygon class="st9" points="679.1,422.9 700.899,422.9 698.499,301 681.399,301 	"/>
	<rect x="696.1" y="350.7" class="st23" width="82.7" height="6.5"/>
	<path class="st20" d="M777.899,356.1h-80.7V351.7h80.7V356.1z M779.899,349.7h-84.7v8.5h84.7V349.7z"/>
	<rect x="690.499" y="357.4" class="st23" width="94" height="61.5"/>
	<path class="st20" d="M783.499,417.9h-92v-59.5h92V417.9z M785.499,356.4h-96v63.5h96V356.4z"/>
	<rect x="780.6" y="359.2" class="st15" width="7.1" height="1.399"/>
	<rect x="780.6" y="359.2" class="st20" width="7.1" height="1.399"/>
	<rect x="776.6" y="389.2" class="st15" width="7.1" height="1.3"/>
	<rect x="776.6" y="389.2" class="st19" width="7.1" height="1.3"/>
	<path class="st15" d="M688.1,359.9h5.7H688.1z"/>
	<rect x="687.399" y="359.2" class="st20" width="7.1" height="1.399"/>
	<rect x="691.399" y="389.2" class="st15" width="7.1" height="1.3"/>
	<rect x="691.399" y="389.2" class="st19" width="7.1" height="1.3"/>
	<rect x="689.6" y="357.9" class="st15" width="95.8" height="1.199"/>
	<rect x="688.1" y="356.4" class="st20" width="98.8" height="4.199"/>
	<rect x="735.3" y="366.301" class="st14" width="5.5" height="10.5"/>
	<path class="st20" d="M739.899,375.801h-3.5v-8.5h3.5V375.801z M741.899,365.301h-2h-3.5h-2v2v8.5v2h2h3.5h2v-2v-8.5V365.301z"/>
	<rect x="716.399" y="366.301" class="st14" width="5.5" height="10.5"/>
	<path class="st20" d="M720.999,375.801h-3.5v-8.5h3.5V375.801z M722.999,365.301h-2h-3.5h-2v2v8.5v2h2h3.5h2v-2v-8.5V365.301z"/>
	<rect x="725.899" y="366.301" class="st14" width="5.5" height="10.5"/>
	<path class="st20" d="M730.399,375.801h-3.5v-8.5h3.5V375.801z M732.399,365.301h-2h-3.5h-2v2v8.5v2h2h3.5h2v-2v-8.5V365.301z"/>
	<rect x="763.699" y="366.301" class="st14" width="5.5" height="10.5"/>
	<path class="st20" d="M768.199,375.801h-3.5v-8.5h3.5V375.801z M770.199,365.301h-2h-3.5h-2v2v8.5v2h2h3.5h2v-2v-8.5V365.301z"/>
	<rect x="773.1" y="366.301" class="st14" width="5.5" height="10.5"/>
	<path class="st20" d="M777.6,375.801h-3.5v-8.5h3.5V375.801z M779.6,365.301h-2h-3.5h-2v2v8.5v2h2h3.5h2v-2v-8.5V365.301z"/>
	<rect x="744.8" y="366.301" class="st14" width="5.5" height="10.5"/>
	<path class="st20" d="M749.3,375.801h-3.5v-8.5h3.5V375.801z M751.3,365.301h-2h-3.5h-2v2v8.5v2h2h3.5h2v-2v-8.5V365.301z"/>
	<rect x="754.199" y="366.301" class="st14" width="5.5" height="10.5"/>
	<path class="st20" d="M758.8,375.801h-3.5v-8.5h3.5V375.801z M760.8,365.301h-2h-3.5h-2v2v8.5v2h2h3.5h2v-2v-8.5V365.301z"/>
	<rect x="697.6" y="366.301" class="st14" width="5.5" height="10.5"/>
	<path class="st20" d="M702.1,375.801h-3.5v-8.5h3.5V375.801z M704.1,365.301h-2h-3.5h-2v2v8.5v2h2h3.5h2v-2v-8.5V365.301z"/>
	<rect x="706.999" y="366.301" class="st14" width="5.5" height="10.5"/>
	<path class="st20" d="M711.499,375.801h-3.5v-8.5h3.5V375.801z M713.499,365.301h-2h-3.5h-2v2v8.5v2h2h3.5h2v-2v-8.5V365.301z"/>
	<rect x="763.699" y="403" class="st14" width="5.5" height="10.5"/>
	<path class="st20" d="M768.199,412.5h-3.5V404h3.5V412.5z M770.199,402h-2h-3.5h-2v2v8.5v2h2h3.5h2v-2V404V402z"/>
	<rect x="773.1" y="403" class="st14" width="5.5" height="10.5"/>
	<path class="st20" d="M777.6,412.5h-3.5V404h3.5V412.5z M779.6,402h-2h-3.5h-2v2v8.5v2h2h3.5h2v-2V404V402z"/>
	<rect x="697.6" y="403" class="st14" width="5.5" height="10.5"/>
	<path class="st20" d="M702.1,412.5h-3.5V404h3.5V412.5z M704.1,402h-2h-3.5h-2v2v8.5v2h2h3.5h2v-2V404V402z"/>
	<rect x="706.999" y="403" class="st14" width="5.5" height="10.5"/>
	<path class="st20" d="M711.499,412.5h-3.5V404h3.5V412.5z M713.499,402h-2h-3.5h-2v2v8.5v2h2h3.5h2v-2V404V402z"/>
	<rect x="677.6" y="306.2" class="st9" width="24.7" height="4"/>
	<path class="st9" d="M701.3,309.1h-22.601V307.2H701.3V309.1z M703.399,305.1h-2.1h-22.601h-2.1v2.1v1.899v2.101h2.1H701.3h2.1
		V309.1V307.2V305.1z"/>
	<g>
		<g>
			<defs>
				<path id="SVGID_1_" d="M790.6,392.301v19.1h15.1c0.101-2.2,1.9-3.9,4.101-3.9c2.199,0,4,1.7,4.1,3.9h14.8v-19.1H790.6z"/>
			</defs>
			<clipPath id="SVGID_2_">
				<use xlink:href="#SVGID_1_"  style="overflow:visible;"/>
			</clipPath>
			<path class="st18" d="M826.8,419.9h-34.2v-25.6h34.2V419.9z M828.8,392.301h-38.2v29.6h38.2V392.301z"/>
		</g>
		<g>
			<defs>
				<path id="SVGID_3_" d="M790.6,392.301v19.1h15.1c0.101-2.2,1.9-3.9,4.101-3.9c2.199,0,4,1.7,4.1,3.9h14.8v-19.1H790.6z"/>
			</defs>
			<clipPath id="SVGID_4_">
				<use xlink:href="#SVGID_3_"  style="overflow:visible;"/>
			</clipPath>
			<circle class="st25" cx="809.8" cy="411.6" r="17.6"/>
		</g>
		<g>
			<defs>
				<path id="SVGID_5_" d="M790.6,392.301v19.1h15.1c0.101-2.2,1.9-3.9,4.101-3.9c2.199,0,4,1.7,4.1,3.9h14.8v-19.1H790.6z"/>
			</defs>
			<clipPath id="SVGID_6_">
				<use xlink:href="#SVGID_5_"  style="overflow:visible;"/>
			</clipPath>
			<polyline class="st1" points="809.8,411.6 799.199,407.2 800.699,402.5 809.8,411.6 			"/>
		</g>
		<g>
			<defs>
				<path id="SVGID_7_" d="M790.6,392.301v19.1h15.1c0.101-2.2,1.9-3.9,4.101-3.9c2.199,0,4,1.7,4.1,3.9h14.8v-19.1H790.6z"/>
			</defs>
			<clipPath id="SVGID_8_">
				<use xlink:href="#SVGID_7_"  style="overflow:visible;"/>
			</clipPath>
			<polyline class="st29" points="809.8,411.6 798.3,411.6 797.899,406.7 809.8,411.6 			"/>
		</g>
		<g>
			<defs>
				<path id="SVGID_9_" d="M790.6,392.301v19.1h15.1c0.101-2.2,1.9-3.9,4.101-3.9c2.199,0,4,1.7,4.1,3.9h14.8v-19.1H790.6z"/>
			</defs>
			<clipPath id="SVGID_10_">
				<use xlink:href="#SVGID_9_"  style="overflow:visible;"/>
			</clipPath>
			<polyline class="st27" points="809.8,411.6 820.499,407.2 822.699,411.6 809.8,411.6 			"/>
		</g>
		<g>
			<defs>
				<path id="SVGID_11_" d="M790.6,392.301v19.1h15.1c0.101-2.2,1.9-3.9,4.101-3.9c2.199,0,4,1.7,4.1,3.9h14.8v-19.1H790.6z"/>
			</defs>
			<clipPath id="SVGID_12_">
				<use xlink:href="#SVGID_11_"  style="overflow:visible;"/>
			</clipPath>
			<polyline class="st16" points="809.8,411.6 817.999,403.5 821.699,406.7 809.8,411.6 			"/>
		</g>
		<g>
			<defs>
				<path id="SVGID_13_" d="M790.6,392.301v19.1h15.1c0.101-2.2,1.9-3.9,4.101-3.9c2.199,0,4,1.7,4.1,3.9h14.8v-19.1H790.6z"/>
			</defs>
			<clipPath id="SVGID_14_">
				<use xlink:href="#SVGID_13_"  style="overflow:visible;"/>
			</clipPath>
			<polyline class="st8" points="809.8,411.6 814.3,401 818.999,402.5 809.8,411.6 			"/>
		</g>
		<g>
			<defs>
				<path id="SVGID_15_" d="M790.6,392.301v19.1h15.1c0.101-2.2,1.9-3.9,4.101-3.9c2.199,0,4,1.7,4.1,3.9h14.8v-19.1H790.6z"/>
			</defs>
			<clipPath id="SVGID_16_">
				<use xlink:href="#SVGID_15_"  style="overflow:visible;"/>
			</clipPath>
			<polyline class="st2" points="809.8,411.6 809.8,400.1 814.8,399.801 809.8,411.6 			"/>
		</g>
		<g>
			<defs>
				<path id="SVGID_17_" d="M790.6,392.301v19.1h15.1c0.101-2.2,1.9-3.9,4.101-3.9c2.199,0,4,1.7,4.1,3.9h14.8v-19.1H790.6z"/>
			</defs>
			<clipPath id="SVGID_18_">
				<use xlink:href="#SVGID_17_"  style="overflow:visible;"/>
			</clipPath>
			<polyline class="st34" points="809.8,411.6 805.399,401 809.8,398.801 809.8,411.6 			"/>
		</g>
		<g>
			<defs>
				<path id="SVGID_19_" d="M790.6,392.301v19.1h15.1c0.101-2.2,1.9-3.9,4.101-3.9c2.199,0,4,1.7,4.1,3.9h14.8v-19.1H790.6z"/>
			</defs>
			<clipPath id="SVGID_20_">
				<use xlink:href="#SVGID_19_"  style="overflow:visible;"/>
			</clipPath>
			<polyline class="st33" points="809.8,411.6 801.699,403.5 804.899,399.801 809.8,411.6 			"/>
		</g>
	</g>
	<path class="st9" d="M829.199,420.9H790.3V413.1h38.899V420.9z M831.199,411.1H788.3V422.9h42.899V411.1z"/>
	<path class="st26" d="M805.699,418.801h8.3V411.6c0-2.299-1.899-4.1-4.199-4.1c-2.301,0-4.101,1.9-4.101,4.1V418.801z"/>
	<path class="st9" d="M813.999,420.5H805.3v-1.3h8.699V420.5z M815.999,417.2H803.3v5.3h12.699V417.2z"/>
	<line class="st26" x1="813.899" y1="415.2" x2="805.499" y2="415.2"/>
</g>
<g id="mini-substation">
	<rect x="648.6" y="445.7" class="st17" width="179" height="132.8"/>
	<rect x="688.499" y="496.1" class="st23" width="102.601" height="71.9"/>
	<path class="st9" d="M789.6,566.5h-99.601v-68.9H789.6V566.5z M792.6,494.6h-3h-99.601h-3v3v68.9v3h3H789.6h3v-3v-68.9V494.6z"/>
	<rect x="684.699" y="495.1" class="st23" width="110.2" height="8.601"/>
	<path class="st9" d="M793.399,502.2h-107.2V496.6h107.2V502.2z M796.399,493.6h-3h-107.2h-3v3v5.601v3h3h107.2h3v-3V496.6V493.6z"
		/>
	<polyline class="st6" points="671.499,526.301 700.3,568.801 702.199,568.801 695.1,526.301 671.499,526.301 664.399,568.801 
		666.399,568.801 695.1,526.301 	"/>
	<polygon class="st6" points="671.499,526.301 695.1,526.301 692.8,511 673.8,511 	"/>
	<line class="st6" x1="671.499" y1="526.301" x2="692.8" y2="511"/>
	<line class="st6" x1="673.8" y1="511" x2="695.1" y2="526.301"/>
	<polygon class="st6" points="675.3,497.2 691.3,497.2 692.8,511 673.8,511 	"/>
	<line class="st6" x1="692.8" y1="511" x2="675.3" y2="497.2"/>
	<line class="st6" x1="691.3" y1="497.2" x2="673.8" y2="511"/>
	<polygon class="st6" points="675.3,497.2 691.3,497.2 690.3,484.5 676.3,484.5 	"/>
	<line class="st6" x1="675.3" y1="497.2" x2="690.3" y2="484.5"/>
	<line class="st6" x1="676.3" y1="484.5" x2="691.3" y2="497.2"/>
	<polygon class="st6" points="652.1,484.5 714.499,484.5 690.3,472.2 676.8,472.2 	"/>
	<polygon class="st6" points="676.8,472.2 690.3,472.2 690.3,484.5 676.3,484.5 	"/>
	<polyline class="st6" points="690.3,472.2 676.3,484.5 690.3,484.5 676.8,472.2 	"/>
	<polyline class="st6" points="695.6,474.801 690.3,484.5 676.3,484.5 671.499,474.801 	"/>
	<line class="st6" x1="671.499" y1="484.301" x2="663.899" y2="478.7"/>
	<line class="st6" x1="695.6" y1="484.301" x2="702.699" y2="478.7"/>
	<line class="st6" x1="702.699" y1="478.7" x2="702.699" y2="484.5"/>
	<line class="st6" x1="671.499" y1="474.801" x2="671.499" y2="484.301"/>
	<line class="st6" x1="695.6" y1="484.301" x2="695.6" y2="474.801"/>
	<polygon class="st6" points="676.8,472.2 690.3,472.2 688.8,464.1 677.8,464.1 	"/>
	<polyline class="st6" points="677.8,464.1 690.3,472.2 676.8,472.2 688.8,464.1 	"/>
	<polygon class="st6" points="679.3,454.2 687.3,454.2 688.8,464.1 677.8,464.1 	"/>
	<polygon class="st6" points="679.3,454.301 687.3,454.301 703.3,464.1 663.399,464.1 	"/>
	<polyline class="st6" points="687.3,454.301 677.8,464.1 688.8,464.1 679.3,454.301 	"/>
	<polyline class="st6" points="693.1,458.5 688.8,464.1 677.8,464.1 673.499,458.5 	"/>
	<line class="st6" x1="673.499" y1="458.5" x2="673.499" y2="463.9"/>
	<line class="st6" x1="693.1" y1="463.9" x2="693.1" y2="458.5"/>
	<line class="st6" x1="704.399" y1="468.1" x2="704.399" y2="464.6"/>
	<line class="st6" x1="715.999" y1="488.4" x2="715.999" y2="484.9"/>
	<line class="st6" x1="662.199" y1="468.1" x2="662.199" y2="464.6"/>
	<rect x="690.999" y="498.6" class="st23" width="97.601" height="66.9"/>
	<path class="st20" d="M787.6,564.5h-95.601v-64.9H787.6V564.5z M789.6,497.6h-99.601v68.9H789.6V497.6z"/>
	<rect x="687.199" y="497.6" class="st23" width="105.2" height="3.601"/>
	<path class="st20" d="M791.399,500.2h-103.2V498.6h103.2V500.2z M793.399,496.6h-107.2v5.601h107.2V496.6z"/>
	<rect x="685.399" y="500.7" class="st20" width="108.8" height="1.5"/>
	<line class="st19" x1="787.899" y1="558.5" x2="691.699" y2="558.5"/>
	<rect x="719.8" y="508.4" class="st14" width="5.8" height="11.199"/>
	<path class="st20" d="M724.6,518.6h-3.8V509.4h3.8V518.6z M726.6,507.4h-2h-3.8h-2v2v9.199v2h2h3.8h2v-2V509.4V507.4z"/>
	<rect x="729.899" y="508.4" class="st14" width="5.8" height="11.199"/>
	<path class="st20" d="M734.699,518.6h-3.8V509.4h3.8V518.6z M736.699,507.4h-2h-3.8h-2v2v9.199v2h2h3.8h2v-2V509.4V507.4z"/>
	<rect x="699.6" y="508.4" class="st14" width="5.8" height="11.199"/>
	<path class="st20" d="M704.399,518.6h-3.8V509.4h3.8V518.6z M706.399,507.4h-2h-3.8h-2v2v9.199v2h2h3.8h2v-2V509.4V507.4z"/>
	<rect x="709.699" y="508.4" class="st14" width="5.8" height="11.199"/>
	<path class="st20" d="M714.499,518.6h-3.8V509.4h3.8V518.6z M716.499,507.4h-2h-3.8h-2v2v9.199v2h2h3.8h2v-2V509.4V507.4z"/>
	<rect x="719.8" y="523" class="st14" width="5.8" height="11.2"/>
	<path class="st20" d="M724.6,533.2h-3.8V524h3.8V533.2z M726.6,522h-2h-3.8h-2v2v9.2v2h2h3.8h2v-2V524V522z"/>
	<rect x="699.6" y="523" class="st14" width="5.8" height="11.2"/>
	<path class="st20" d="M704.399,533.2h-3.8V524h3.8V533.2z M706.399,522h-2h-3.8h-2v2v9.2v2h2h3.8h2v-2V524V522z"/>
	<rect x="709.699" y="523" class="st14" width="5.8" height="11.2"/>
	<path class="st20" d="M714.499,533.2h-3.8V524h3.8V533.2z M716.499,522h-2h-3.8h-2v2v9.2v2h2h3.8h2v-2V524V522z"/>
	<rect x="805.999" y="548.801" class="st9" width="7" height="8.199"/>
	<rect x="802.499" y="557.4" class="st9" width="14.801" height="1.6"/>
	<path class="st9" d="M816.3,559.9v8.6l0,0l-10.9-8.6H816.3z M817.3,558.9h-14.801l13.5,10.6h1.4v-10.6H817.3z"/>
	<path class="st9" d="M814.399,559.9l-10.9,8.6l0,0v-8.6H814.399z M817.3,558.9h-14.801v10.6h1.4L817.3,558.9z"/>
	<path class="st9" d="M819.3,552.9c0,1.4-1.301,2.5-2,2.5c-0.7,0-1.2-1.1-1.2-2.5s0.5-2.5,1.2-2.5
		C817.999,550.4,819.3,551.5,819.3,552.9"/>
	<path class="st9" d="M800.699,552.9c0,1.4,1.3,2.5,2,2.5s1.2-1.1,1.2-2.5s-0.5-2.5-1.2-2.5S800.699,551.5,800.699,552.9"/>
	<rect x="802.499" y="548.2" class="st9" width="5.101" height="9.399"/>
	
		<rect x="802.509" y="541.907" transform="matrix(-0.9848 0.1739 -0.1739 -0.9848 1690.2236 937.1276)" class="st9" width="3.1" height="1.4"/>
	<polygon class="st9" points="800.199,516.301 798.6,516.6 801.8,542.301 805.999,541.5 	"/>
	
		<rect x="803.053" y="547.264" transform="matrix(-0.9849 0.1733 -0.1733 -0.9849 1692.8076 948.4413)" class="st9" width="3.9" height="1.7"/>
	<path class="st9" d="M806.1,547.2l-2.5,0.399c-1.2,0.201-2.4-0.6-2.601-1.799V545.6C800.8,544.4,801.6,543.2,802.8,543l2.5-0.4
		c1.199-0.199,2.399,0.601,2.6,1.801v0.199C808.199,545.9,807.399,547,806.1,547.2"/>
	
		<rect x="797.974" y="515.943" transform="matrix(-0.9849 0.1732 -0.1732 -0.9849 1676.0159 886.3945)" class="st9" width="2.7" height="0.799"/>
	
		<rect x="797.237" y="515.803" transform="matrix(0.9849 -0.1733 0.1733 0.9849 -77.4576 146.0454)" class="st9" width="0.8" height="1.6"/>
	
		<rect x="814.396" y="541.887" transform="matrix(-0.9849 -0.1733 0.1733 -0.9849 1525.5276 1218.3545)" class="st9" width="3.1" height="1.4"/>
	<polygon class="st9" points="821.3,516.6 819.8,516.301 813.899,541.5 818.199,542.301 	"/>
	
		<rect x="812.971" y="547.325" transform="matrix(-0.9848 -0.1735 0.1735 -0.9848 1522.3557 1229.4441)" class="st9" width="3.9" height="1.7"/>
	<path class="st9" d="M816.399,547.7l-2.5-0.399c-1.2-0.201-2-1.4-1.8-2.601v-0.2c0.2-1.199,1.399-2,2.6-1.8l2.5,0.399
		c1.2,0.201,2,1.4,1.8,2.601v0.2C818.699,547.1,817.6,547.9,816.399,547.7"/>
	
		<rect x="819.279" y="515.93" transform="matrix(0.9848 0.1736 -0.1736 0.9848 102.0947 -134.6212)" class="st9" width="2.7" height="0.799"/>
	
		<rect x="821.904" y="515.786" transform="matrix(-0.9849 -0.1733 0.1733 -0.9849 1542.6423 1167.8583)" class="st9" width="0.8" height="1.6"/>
	<rect x="812.3" y="548.2" class="st9" width="5.1" height="9.399"/>
	<path class="st6" d="M797.399,515.801c0.5-3.101-1.5-4.101-6.2-3.101"/>
	<path class="st6" d="M822.399,515.801c-0.1-10.801-23-5.9-31.6-3.701"/>
</g>
<g id="mini-control-center">
	<rect x="662.999" y="606.4" class="st17" width="179" height="132.8"/>
	<rect x="689.899" y="658.6" class="st23" width="100" height="70.201"/>
	<path class="st9" d="M788.399,727.2h-97V660h97V727.2z M791.399,657.1h-3h-97h-3v3v67.201v3h3h97h3v-3V660.1V657.1z"/>
	<rect x="686.1" y="657.6" class="st23" width="107.5" height="8.5"/>
	<path class="st9" d="M792.1,664.5H687.6V659h104.5V664.5z M795.1,656.1h-3H687.6h-3v3v5.5v3h3h104.5h3v-3v-5.5V656.1z"/>
	
		<rect x="776.293" y="648.557" transform="matrix(-0.6032 -0.7976 0.7976 -0.6032 730.6995 1662.0095)" class="st9" width="4.9" height="1.401"/>
	
		<rect x="776.293" y="648.557" transform="matrix(-0.6032 -0.7976 0.7976 -0.6032 730.6995 1662.0095)" class="st6" width="4.9" height="1.401"/>
	
		<rect x="772.532" y="653.278" transform="matrix(0.9542 -0.2993 0.2993 0.9542 -160.2495 262.2748)" class="st9" width="7.1" height="2"/>
	
		<rect x="772.532" y="653.278" transform="matrix(0.9542 -0.2993 0.2993 0.9542 -160.2495 262.2748)" class="st6" width="7.1" height="2"/>
	<path class="st9" d="M779.3,647c-0.4,1.301-1.801,2.1-3.101,1.7s-2.1-1.8-1.7-3.101c0.4-1.299,1.801-2.1,3.101-1.699
		C778.999,644.301,779.699,645.7,779.3,647"/>
	<circle class="st6" cx="776.899" cy="646.301" r="2.5"/>
	<path class="st9" d="M782.399,651c1,1,1,2.6,0,3.6s-2.6,1-3.6,0s-1-2.6,0-3.6C779.899,650,781.499,650,782.399,651"/>
	<circle class="st6" cx="780.699" cy="652.7" r="2.5"/>
	<path class="st9" d="M774.1,655.801c0,1.899-1.601,3.5-3.5,3.5c-1.9,0-3.5-1.601-3.5-3.5c0-1.9,1.6-3.5,3.5-3.5
		C772.499,652.301,774.1,653.9,774.1,655.801"/>
	<circle class="st6" cx="770.6" cy="655.801" r="3.5"/>
	<rect x="692.399" y="661.1" class="st23" width="95" height="65.201"/>
	<path class="st20" d="M786.399,725.2h-93V662h93V725.2z M788.399,660.1h-97v67.201h97V660.1z"/>
	<rect x="688.6" y="660.1" class="st23" width="102.5" height="3.5"/>
	<path class="st20" d="M790.1,662.5H689.6V661h100.5V662.5z M792.1,659.1H687.6v5.5h104.5V659.1z"/>
	<line class="st17" x1="787.199" y1="720.1" x2="692.499" y2="720.1"/>
	<line class="st19" x1="787.199" y1="720.1" x2="692.499" y2="720.1"/>
	<path class="st9" d="M767.8,623.2c-2.5,2.5,1.3,13.2,10.3,22.101c8.899,8.899,19.7,12.699,22.1,10.299"/>
	<path class="st6" d="M767.8,623.2c-2.5,2.5,1.3,13.2,10.3,22.101c8.899,8.899,19.7,12.699,22.1,10.299"/>
	
		<ellipse transform="matrix(0.7072 -0.707 0.707 0.7072 -222.5239 741.4407)" class="st6" cx="783.979" cy="639.403" rx="1.8" ry="22.9"/>
	<polyline class="st6" points="777.399,635.4 792.899,630.5 787.899,645.9 	"/>
	<polyline class="st6" points="767.8,623.2 792.899,630.5 800.199,655.6 	"/>
	
		<rect x="791.657" y="629.331" transform="matrix(-0.7071 -0.7071 0.7071 -0.7071 908.1218 1636.8185)" class="st9" width="2.801" height="2"/>
	
		<rect x="791.657" y="629.331" transform="matrix(-0.7071 -0.7071 0.7071 -0.7071 908.1218 1636.8185)" class="st6" width="2.801" height="2"/>
	<rect x="739.1" y="670.6" class="st14" width="5.7" height="11"/>
	<path class="st20" d="M743.899,680.6h-3.7v-9h3.7V680.6z M745.899,669.6h-2h-3.7h-2v2v9v2h2h3.7h2v-2v-9V669.6z"/>
	<rect x="719.399" y="670.6" class="st14" width="5.7" height="11"/>
	<path class="st20" d="M724.199,680.6h-3.7v-9h3.7V680.6z M726.199,669.6h-2h-3.7h-2v2v9v2h2h3.7h2v-2v-9V669.6z"/>
	<rect x="729.3" y="670.6" class="st14" width="5.699" height="11"/>
	<path class="st20" d="M733.999,680.6H730.3v-9h3.699V680.6z M735.999,669.6h-2H730.3h-2v2v9v2h2h3.699h2v-2v-9V669.6z"/>
	<rect x="699.8" y="670.6" class="st14" width="5.699" height="11"/>
	<path class="st20" d="M704.499,680.6H700.8v-9h3.699V680.6z M706.499,669.6h-2H700.8h-2v2v9v2h2h3.699h2v-2v-9V669.6z"/>
	<rect x="709.6" y="670.6" class="st14" width="5.7" height="11"/>
	<path class="st20" d="M714.3,680.6h-3.7v-9h3.7V680.6z M716.3,669.6h-2h-3.7h-2v2v9v2h2h3.7h2v-2v-9V669.6z"/>
	<rect x="739.1" y="684.801" class="st14" width="5.7" height="11"/>
	<path class="st20" d="M743.899,694.7h-3.7v-9h3.7V694.7z M745.899,683.801h-2h-3.7h-2v2v9v2h2h3.7h2v-2v-9V683.801z"/>
	<rect x="719.399" y="684.801" class="st14" width="5.7" height="11"/>
	<path class="st20" d="M724.199,694.7h-3.7v-9h3.7V694.7z M726.199,683.801h-2h-3.7h-2v2v9v2h2h3.7h2v-2v-9V683.801z"/>
	<rect x="729.3" y="684.801" class="st14" width="5.699" height="11"/>
	<path class="st20" d="M733.999,694.7H730.3v-9h3.699V694.7z M735.999,683.801h-2H730.3h-2v2v9v2h2h3.699h2v-2v-9V683.801z"/>
	<rect x="699.8" y="684.801" class="st14" width="5.699" height="11"/>
	<path class="st20" d="M704.499,694.7H700.8v-9h3.699V694.7z M706.499,683.801h-2H700.8h-2v2v9v2h2h3.699h2v-2v-9V683.801z"/>
	<rect x="709.6" y="684.801" class="st14" width="5.7" height="11"/>
	<path class="st20" d="M714.3,694.7h-3.7v-9h3.7V694.7z M716.3,683.801h-2h-3.7h-2v2v9v2h2h3.7h2v-2v-9V683.801z"/>
	<path class="st9" d="M802.999,716.7L802.3,717c-2.5,1.2-5.601,0.1-6.801-2.5c-1.199-2.5-0.1-5.6,2.5-6.8l0.7-0.3L802.999,716.7z"/>
	
		<rect x="801.19" y="707.368" transform="matrix(-0.9074 0.4202 -0.4202 -0.9074 1832.72 1017.3547)" class="st9" width="6.2" height="6.399"/>
	<polygon class="st9" points="808.199,713.2 828.899,707.9 822.399,693.9 804.999,706.301 	"/>
	
		<rect x="835.485" y="692.006" transform="matrix(-0.9072 0.4206 -0.4206 -0.9072 1891.2738 972.2343)" class="st9" width="5.9" height="5.301"/>
	<polygon class="st9" points="842.199,695.9 843.6,694.7 841.8,690.801 839.999,691 	"/>
	
		<rect x="825.347" y="689.886" transform="matrix(-0.9073 0.4205 -0.4205 -0.9073 1873.0125 986.6403)" class="st9" width="4.8" height="19.8"/>
	
		<rect x="834.887" y="692.747" transform="matrix(-0.9075 0.4201 -0.4201 -0.9075 1886.6984 976.4061)" class="st9" width="1.899" height="6.401"/>
	<polygon class="st9" points="834.3,705.801 836.1,700.6 832.399,692.7 827.3,690.7 	"/>
	
		<rect x="815.916" y="714.022" transform="matrix(-0.5463 -0.8376 0.8376 -0.5463 667.4662 1791.3146)" class="st9" width="6" height="1.7"/>
	
		<rect x="811.249" y="719.492" transform="matrix(0.9541 -0.2994 0.2994 0.9541 -178.3741 277.267)" class="st9" width="8.8" height="2.5"/>
	<path class="st9" d="M819.8,712.1c-0.601,1.601-2.4,2.4-4,1.801c-1.601-0.6-2.4-2.4-1.801-4c0.601-1.6,2.4-2.4,4-1.801
		C819.6,708.7,820.399,710.5,819.8,712.1"/>
	<path class="st9" d="M823.6,716.7c1.2,1.2,1.2,3.2,0,4.399c-1.2,1.201-3.2,1.201-4.4,0c-1.2-1.199-1.2-3.199,0-4.399
		C820.399,715.4,822.399,715.4,823.6,716.7"/>
	<path class="st9" d="M813.3,722.6c0,2.4-1.9,4.301-4.301,4.301c-2.399,0-4.3-1.9-4.3-4.301c0-2.399,1.9-4.299,4.3-4.299
		C811.399,718.301,813.3,720.301,813.3,722.6"/>
	<rect x="790.6" y="724.2" class="st9" width="39" height="6"/>
</g>
<g id="btn-lightning">
	<path class="st14" d="M490.899,293.1l59,12l60-12l-3-2.459l-56.995,11.398l-56.005-11.391L490.899,293.1z M493.899,260.55
		l55.98-11.386l57.02,12.354l3-2.42l-60-13l0,0l-59,12L493.899,260.55z"/>
	<path class="st14" d="M519.395,292.702c9.365-3.825,19.27-6.614,29.529-8.252c-1.824,1.227-3.6,2.491-5.326,3.787
		c7.283-1.253,14.734-1.91,22.277-1.934c-2.351,0.923-4.648,1.907-6.893,2.948c7.486,0.609,14.921,1.855,22.223,3.731
		c-11.213-1.329-22.346-1.171-33.122,0.346c1.834-1.153,3.716-2.266,5.646-3.336c-6.844,0.652-13.567,1.838-20.109,3.528
		c1.769-1.565,3.602-3.093,5.498-4.582C532.463,289.693,525.869,290.95,519.395,292.702z"/>
</g>
<g id="quiz-header">
	<line class="st3" x1="41.027" y1="178.768" x2="318.027" y2="178.768"/>
	<line class="st3" x1="398.027" y1="178.768" x2="675.027" y2="178.768"/>
	<polygon class="st12" points="371.864,196.989 360.027,203.134 337.527,191.454 337.527,166.081 344.838,162.286 341.191,158.545 
		332.527,163.043 332.527,194.492 360.027,208.768 376.74,200.093 	"/>
	<polygon class="st12" points="360.027,148.768 347.33,155.359 352.271,158.428 360.027,154.401 382.527,166.081 382.527,191.454 
		378.883,193.346 382.662,197.018 387.527,194.492 387.527,163.043 	"/>
	<polygon class="st9" points="340.027,153.768 365.855,169.805 357.939,169.801 379.457,188.19 370.127,188.324 383.838,201.646 
		356.3,184.122 366.649,183.934 343.65,166.229 351.92,165.972 	"/>
</g>
<g id="quiz-answer-bg">
	<polygon id="_x3E_bg" class="st20" points="83.899,717.611 83.899,439.389 182.398,415.045 280.493,439.388 280.897,717.612 
		182.399,741.955 	"/>
	<path id="_x3E_outline" class="st23" d="M182.398,416.591l96.597,23.97l0.401,275.878l-96.997,23.972l-97-23.973V440.562
		L182.398,416.591 M182.399,413.5l-100,24.714v280.572l100,24.714l100-24.714l-0.408-280.572L182.399,413.5L182.399,413.5z"/>
	<path id="_x3E_lightning_1_" class="st23" d="M146.593,694.552c10.85-4.432,22.324-7.663,34.212-9.561
		c-2.113,1.421-4.171,2.885-6.169,4.388c8.437-1.453,17.07-2.214,25.811-2.241c-2.725,1.069-5.387,2.21-7.985,3.417
		c8.673,0.705,17.286,2.148,25.747,4.322c-12.992-1.538-25.893-1.355-38.377,0.4c2.126-1.335,4.306-2.624,6.541-3.864
		c-7.928,0.755-15.719,2.129-23.3,4.087c2.05-1.813,4.175-3.584,6.371-5.308C161.733,691.066,154.095,692.522,146.593,694.552z"/>
	<path id="_x3E_lightning" class="st23" d="M146.593,463.561c10.85-4.431,22.324-7.662,34.212-9.561
		c-2.113,1.422-4.171,2.885-6.169,4.388c8.437-1.452,17.07-2.214,25.811-2.241c-2.725,1.07-5.387,2.211-7.985,3.417
		c8.673,0.706,17.286,2.149,25.747,4.322c-12.992-1.538-25.893-1.355-38.377,0.4c2.126-1.335,4.306-2.624,6.541-3.864
		c-7.928,0.756-15.719,2.13-23.3,4.087c2.05-1.812,4.175-3.584,6.371-5.308C161.733,460.076,154.095,461.531,146.593,463.561z"/>
	<line id="_x3E_line" class="st22" x1="110.899" y1="505" x2="253.899" y2="505"/>
	<line id="_x3E_line_1_" class="st22" x1="110.899" y1="642" x2="253.899" y2="642"/>
</g>
<g id="next-question">
	<polygon class="st13" points="481.765,518.7 336.765,518.7 336.765,481.255 481.765,481.255 488.771,500.727 	"/>
</g>
</svg>
