<?xml version="1.0" encoding="utf-8"?>
<!-- Generator: Adobe Illustrator 15.0.0, SVG Export Plug-In . SVG Version: 6.00 Build 0)  -->
<!DOCTYPE svg PUBLIC "-//W3C//DTD SVG 1.0//EN" "http://www.w3.org/TR/2001/REC-SVG-20010904/DTD/svg10.dtd">
<svg version="1.0" id="Layer_1" xmlns="http://www.w3.org/2000/svg" xmlns:xlink="http://www.w3.org/1999/xlink" x="0px" y="0px"
	 width="725px" height="612px" viewBox="0 0 725 612" style="enable-background:new 0 0 725 612;" xml:space="preserve">
<style type="text/css">
<![CDATA[
	.st0{fill:#E03F07;}
	.st1{fill:#53848C;}
	.st2{fill:none;stroke:#FFFFFF;stroke-width:6;stroke-miterlimit:10;}
	.st3{fill:none;stroke:#F9773E;stroke-miterlimit:10;}
	.st4{fill:none;stroke:#FFFFFF;stroke-width:3;stroke-linecap:square;stroke-miterlimit:10;}
	.st5{fill:#F9773E;}
	.st6{opacity:0.5;fill:#6B989F;enable-background:new    ;}
	.st7{clip-path:url(#SVGID_2_);fill:none;stroke:#F9773E;stroke-miterlimit:10;}
	.st8{opacity:0.75;fill:#FFB81A;enable-background:new    ;}
	.st9{fill:#FFB81A;}
	.st10{fill:#FFFFFF;}
	.st11{fill:none;}
	.st12{clip-path:url(#SVGID_2_);fill:#F9773E;}
	.st13{fill:none;stroke:#335E6E;stroke-width:2;stroke-miterlimit:10;}
	.st14{fill:#335E6E;}
	.st15{fill:#345D6E;}
	.st16{fill:#6B989F;}
	.st17{fill:none;stroke:#FFFFFF;stroke-width:1.4167;stroke-miterlimit:10;}
	.st18{fill:none;stroke:#F9773E;stroke-width:2;stroke-miterlimit:10;}
	.st19{fill:none;stroke:#FFB81A;stroke-width:2.9184;stroke-miterlimit:10;}
	.st20{fill:#71A8A8;}
	.st21{clip-path:url(#SVGID_2_);fill:none;stroke:#F9773E;stroke-width:2;stroke-miterlimit:10;}
	.st22{fill:#FFFFFF;stroke:#231F20;stroke-miterlimit:10;}
	.st23{fill:none;stroke:#FFFFFF;stroke-width:3;stroke-miterlimit:10;}
	.st24{fill:none;stroke:#FFFFFF;stroke-width:1.4167;stroke-linecap:round;stroke-miterlimit:10;}
	.st25{fill:none;stroke:#FFFFFF;stroke-width:1.4167;stroke-miterlimit:1;}
]]>
</style>
<symbol  id="New_Symbol" viewBox="-10.3 -10.3 20.6 20.6">
	<polygon class="st22" points="9.8,-9.8 -9.8,-9.8 -9.8,9.8 9.8,9.8 	"/>
</symbol>
<g id="first">
	
		<use xlink:href="#New_Symbol"  width="20.6" height="20.6" x="-10.3" y="-10.3" transform="matrix(0.7046 0 0 -0.7046 235.4507 -122.6914)" style="overflow:visible;"/>
</g>
<g id="ep4-badge">
	<g id="_x3E_white_3_">
		<path id="XMLID_93_" class="st23" d="M392-120.1h3.2c3.5,0,3.2-4.2,3.2-4.2h-11.1v7.1l7.2,2"/>
		<polyline id="XMLID_92_" class="st23" points="392.6,-120.1 402,-120.1 402,-128.8 387.2,-128.8 387.2,-122.9 		"/>
		<line id="XMLID_91_" class="st23" x1="398.3" y1="-120.1" x2="398.3" y2="-128.8"/>
		<line id="XMLID_90_" class="st23" x1="400" y1="-115.3" x2="400" y2="-119.9"/>
		<line id="XMLID_89_" class="st23" x1="394.6" y1="-124.7" x2="394.6" y2="-128.8"/>
		<line id="XMLID_88_" class="st23" x1="390.9" y1="-124.7" x2="390.9" y2="-128.8"/>
	</g>
	<g id="XMLID_94_">
		<path class="st9" d="M394.6-135.9l12,6.3v13.7l-12,6.3l-12-6.3v-13.7L394.6-135.9 M394.6-138.3l-14.2,7.4v16.4l14.2,7.4l14.2-7.4
			v-16.4L394.6-138.3L394.6-138.3z"/>
	</g>
</g>
<g id="ep3-badge">
	<g id="_x3E_white_2_">
		<polyline id="XMLID_74_" class="st4" points="343.8,-127.9 353.5,-133 363.2,-127.9 363.2,-123 353.5,-117.9 		"/>
		<polyline id="XMLID_73_" class="st4" points="363.2,-123.3 363.2,-118.4 353.5,-113.3 		"/>
		<line id="XMLID_72_" class="st23" x1="363.2" y1="-118" x2="363.2" y2="-113.6"/>
		<line id="XMLID_71_" class="st4" x1="362.7" y1="-127.4" x2="353.5" y2="-122.6"/>
	</g>
	<g>
		<g id="XMLID_69_">
			<g>
				<path class="st9" d="M341.5-127.4l9.9,5.2v11.5l-9.9-5.2V-127.4 M339.4-130.9v16.4l14.2,7.4l0,0v-16.4L339.4-130.9L339.4-130.9
					L339.4-130.9z"/>
			</g>
		</g>
		<path id="XMLID_68_" class="st9" d="M361.2-124c-0.1,0.4-0.4,0.7-0.8,0.7s-0.6-0.3-0.5-0.7c0.1-0.4,0.4-0.7,0.8-0.7
			C361.1-124.7,361.2-124.4,361.2-124z"/>
		<path id="XMLID_67_" class="st9" d="M361.2-119.4c-0.1,0.4-0.4,0.7-0.8,0.7s-0.6-0.3-0.5-0.7c0.1-0.4,0.4-0.7,0.8-0.7
			S361.2-119.8,361.2-119.4z"/>
		<path id="XMLID_66_" class="st9" d="M361.2-114.7c-0.1,0.4-0.4,0.7-0.8,0.7s-0.6-0.3-0.5-0.7c0.1-0.4,0.4-0.7,0.8-0.7
			C361.1-115.4,361.2-115.1,361.2-114.7z"/>
		<g id="XMLID_59_">
			<path class="st9" d="M353.5-135.9l12,6.3v13.7l-12,6.3l-12-6.3v-13.7L353.5-135.9 M353.5-138.3l-14.2,7.4v16.4l14.2,7.4l14.2-7.4
				v-16.4L353.5-138.3L353.5-138.3z"/>
		</g>
	</g>
</g>
<g id="ep2-badge">
	<g id="_x3E_white_1_">
		<line id="XMLID_333_" class="st23" x1="320.9" y1="-127.4" x2="313.9" y2="-123.3"/>
		<line id="XMLID_332_" class="st23" x1="312.5" y1="-113.1" x2="312.5" y2="-121.2"/>
		<line id="XMLID_330_" class="st23" x1="311" y1="-123.3" x2="304" y2="-127.4"/>
		<polyline id="XMLID_329_" class="st23" points="319,-116 312.5,-112.6 305.9,-116 		"/>
		<polyline id="XMLID_328_" class="st23" points="315,-131.3 321.5,-127.9 321.5,-120.4 		"/>
		<polyline id="XMLID_327_" class="st23" points="303.3,-120.4 303.3,-127.9 309.8,-131.3 		"/>
	</g>
	<g id="XMLID_335_">
		<path class="st9" d="M312.5-135.9l12,6.3v13.7l-12,6.3l-12-6.3v-13.7L312.5-135.9 M312.5-138.3l-14.2,7.4v16.4l14.2,7.4l14.2-7.4
			v-16.4L312.5-138.3L312.5-138.3z"/>
	</g>
</g>
<g id="ep1-badge">
	<g id="_x3E_white">
		<polyline id="XMLID_108_" class="st23" points="264.3,-126.7 268.3,-122.8 264.3,-118.7 		"/>
		<polyline id="XMLID_107_" class="st23" points="278.5,-118.7 274.4,-122.8 278.5,-126.7 		"/>
		<polyline id="XMLID_105_" class="st23" points="275.4,-129.8 271.4,-125.8 267.4,-129.8 		"/>
		<polyline id="XMLID_104_" class="st23" points="267.4,-115.7 271.4,-119.6 275.4,-115.7 		"/>
		<line id="XMLID_102_" class="st23" x1="271.4" y1="-127" x2="271.4" y2="-136.2"/>
		<line id="XMLID_101_" class="st23" x1="271.4" y1="-109.3" x2="271.4" y2="-118.5"/>
		<line id="XMLID_100_" class="st23" x1="275.6" y1="-122.8" x2="284.9" y2="-122.8"/>
		<line id="XMLID_98_" class="st23" x1="258.7" y1="-122.8" x2="267.9" y2="-122.8"/>
	</g>
	<g id="XMLID_60_">
		<path class="st9" d="M271.4-135.9l12,6.3v13.7l-12,6.3l-12-6.3v-13.7L271.4-135.9 M271.4-138.3l-14.2,7.4v16.4l14.2,7.4l14.2-7.4
			v-16.4L271.4-138.3L271.4-138.3z"/>
	</g>
</g>
<g id="rank-badge-cyber-cadet">
	<polygon class="st10" points="586.5,-141.5 587.3,-139.8 589,-139.5 587.8,-138.3 588.1,-136.5 586.5,-137.3 585,-136.5 
		585.3,-138.3 584.1,-139.5 585.8,-139.8 	"/>
	<polygon class="st10" points="562.5,-141.5 563.2,-139.8 564.9,-139.5 563.7,-138.3 564,-136.5 562.5,-137.3 561,-136.5 
		561.3,-138.3 560,-139.5 561.8,-139.8 	"/>
	<polygon class="st9" points="571.5,-112.2 569.2,-113.4 569,-113.3 569,-113.5 563.9,-116.2 563.9,-128.5 572.1,-132.8 
		572.6,-135.4 561.8,-129.8 561.8,-114.9 571,-110.1 	"/>
	<polygon class="st9" points="576.5,-135.4 576.9,-132.8 585.1,-128.5 585.1,-116.2 578.1,-112.5 577.3,-109.6 587.2,-114.9 
		587.2,-129.8 	"/>
	<g>
		<polygon class="st10" points="575.2,-112.2 572.4,-110.2 574.5,-119.5 571,-116.7 573.1,-129.4 576.6,-129.4 575.2,-123.8 
			578,-125.9 575.6,-115.9 578.2,-117.9 573.7,-102.4 		"/>
		<rect x="569.5" y="-130.1" class="st10" width="9.9" height="1.4"/>
		<polygon class="st10" points="574.5,-138.6 573.1,-130.1 575.9,-130.1 		"/>
		<g id="XMLID_45_">
			<g id="XMLID_157_">
				<g id="XMLID_185_">
					<g id="XMLID_229_">
						<polygon class="st10" points="574.5,-140 573.1,-139.2 573.1,-137.3 574.5,-136.5 575.9,-137.3 575.9,-139.2 						"/>
					</g>
				</g>
			</g>
		</g>
	</g>
</g>
<g id="rank-badge-technical-cadet">
	<polygon class="st9" points="540.6,-134.4 540.9,-132.2 547.6,-132.2 547.6,-116.5 540.9,-111.9 540.6,-109 549.7,-115.4 
		549.7,-134.4 	"/>
	<polygon class="st9" points="535.9,-111.8 529.3,-116.2 529.3,-132.2 535.9,-132.2 536.3,-134.4 527.1,-134.4 527.2,-115.1 
		536.3,-109 	"/>
	<g>
		<g>
			<g>
				<polygon class="st10" points="538.4,-129.4 535.6,-126.6 538.4,-102.5 541.2,-126.6 				"/>
			</g>
		</g>
		<rect x="533.4" y="-130.1" class="st10" width="9.9" height="1.4"/>
		<polygon class="st10" points="538.4,-138.6 537,-130.1 539.8,-130.1 		"/>
		<g id="XMLID_166_">
			<g id="XMLID_168_">
				<g id="XMLID_169_">
					<g id="XMLID_170_">
						<polygon class="st10" points="538.4,-140 537,-139.2 537,-137.3 538.4,-136.5 539.8,-137.3 539.8,-139.2 						"/>
					</g>
				</g>
			</g>
		</g>
	</g>
	<polygon class="st10" points="550.4,-141.5 551.2,-139.8 552.9,-139.5 551.7,-138.3 552,-136.5 550.4,-137.3 548.9,-136.5 
		549.2,-138.3 547.9,-139.5 549.7,-139.8 	"/>
	<polygon class="st10" points="526.4,-141.5 527.1,-139.8 528.8,-139.5 527.6,-138.3 527.9,-136.5 526.4,-137.3 524.9,-136.5 
		525.2,-138.3 523.9,-139.5 525.6,-139.8 	"/>
</g>
<g id="rank-badge-cadet-first-class">
	<g>
		<path class="st9" d="M511.5-132.2v15.7l-9.2,6.4l-9.1-6.2l-0.1-16H511.5 M513.6-134.4H491l0.1,19.3l11.3,7.6l11.3-7.9V-134.4
			L513.6-134.4z"/>
	</g>
	<line class="st19" x1="491.6" y1="-124.5" x2="513" y2="-124.5"/>
	<polygon class="st10" points="514.3,-141.5 515.1,-139.8 516.8,-139.5 515.6,-138.3 515.9,-136.5 514.3,-137.3 512.8,-136.5 
		513.1,-138.3 511.8,-139.5 513.6,-139.8 	"/>
	<polygon class="st10" points="490.2,-141.5 491,-139.8 492.7,-139.5 491.5,-138.3 491.8,-136.5 490.2,-137.3 488.8,-136.5 
		489,-138.3 487.8,-139.5 489.5,-139.8 	"/>
</g>
<g id="rank-badge-cadet">
	<g>
		<path class="st9" d="M477.1-132.2v15.7l-9.2,6.4l-9.1-6.2l-0.1-16H477.1 M479.3-134.4h-22.7l0.1,19.3l11.3,7.6l11.3-7.9V-134.4
			L479.3-134.4z"/>
	</g>
	<line class="st19" x1="457.3" y1="-124.5" x2="478.7" y2="-124.5"/>
</g>
<g id="rank-badge-recruit">
	<g>
		<path class="st9" d="M443.2-132.2v15.7l-9.2,6.4l-9.1-6.2l-0.1-16H443.2 M445.3-134.4h-22.7l0.1,19.3l11.3,7.6l11.3-7.9V-134.4
			L445.3-134.4z"/>
	</g>
</g>
<g id="chapter-progress-chapter">
	<g id="XMLID_150_">
		<path class="st16" d="M233.7-88.1l3.5,1.9v4.1l-3.5,1.9l-3.5-1.9v-4.1L233.7-88.1 M233.7-90.5l-5.7,3v6.7l5.7,3l5.7-3v-6.7
			L233.7-90.5L233.7-90.5z"/>
	</g>
</g>
<g id="chapter-progress-slide">
	<rect x="242.9" y="-87.4" class="st16" width="6.4" height="6.4"/>
</g>
<g id="chapter-progress-test">
	<polygon class="st6" points="276.6,-77.7 272.5,-75.5 264.5,-79.6 264.5,-88.6 267.1,-90 265.7,-91.3 262.7,-89.7 262.7,-78.6 
		272.5,-73.6 278.3,-76.6 	"/>
	<polygon class="st6" points="272.5,-94.8 267.9,-92.5 269.7,-91.3 272.5,-92.7 280.4,-88.6 280.4,-79.6 279.1,-79 280.5,-77.7 
		282.2,-78.6 282.2,-89.7 	"/>
	<g>
		<polygon class="st5" points="265.4,-93 274.5,-87.3 271.7,-87.4 279.3,-80.8 276,-80.8 280.9,-76 271.1,-82.3 274.8,-82.3 
			266.7,-88.6 269.6,-88.7 		"/>
	</g>
</g>
<g id="chapter-progress-duties">
	<circle class="st16" cx="256" cy="-84.2" r="3.2"/>
</g>
<g id="list-progress-base">
	<g id="hex-outer_1_">
		<g id="XMLID_1080_">
			<path class="st5" d="M343.1-96.9l11.3,5.9v12.9l-11.3,5.9l-11.3-5.9V-91L343.1-96.9 M343.1-100.1l-14.2,7.4v16.4l14.2,7.4
				l14.2-7.4v-16.4L343.1-100.1L343.1-100.1z"/>
		</g>
	</g>
	<g id="hex-inner_1_">
		<g id="XMLID_2384_">
			<polygon class="st9" points="343.1,-74.2 334,-79.1 334,-90 343.1,-94.9 352.1,-90 352.1,-79.2 			"/>
		</g>
	</g>
</g>
<g id="list-progress-complete">
	<g id="hex-inner">
		<g>
			<polygon class="st20" points="313.8,-90.3 317.7,-87.9 313.2,-87.9 312.5,-87.9 319.2,-82.2 319.2,-90 310.1,-94.9 308.1,-93.9 
							"/>
		</g>
		<g>
			<polygon class="st20" points="307.5,-80.6 303.9,-83 308.1,-83 309.8,-83.1 301.1,-89.8 301.1,-79.1 310.1,-74.2 314.2,-76.4 			
				"/>
		</g>
	</g>
	<g id="hex-outer">
		<polygon class="st1" points="316,-75.3 310.1,-72.1 298.8,-78.1 298.8,-91 302.4,-92.9 300.4,-95 296,-92.7 296,-76.4 310.1,-69 
			318.8,-73.5 		"/>
		<polygon class="st1" points="310.1,-100.1 303.5,-96.7 306.4,-94.9 310.1,-96.9 321.5,-91 321.5,-78.1 319.7,-77.2 321.9,-75.1 
			324.3,-76.4 324.3,-92.7 		"/>
	</g>
	<g id="lightning_1_">
		<g id="lightning">
			<polygon class="st9" points="299.7,-97.6 313.2,-89.2 309.1,-89.2 320.3,-79.6 315.4,-79.6 322.5,-72.6 308.2,-81.8 313.6,-81.8 
				301.6,-91 306,-91.2 			"/>
		</g>
	</g>
</g>
<g id="ctanlee">
	<circle class="st10" cx="406" cy="-67.5" r="6.4"/>
	<path class="st2" d="M410.5-51.1c7.2-2,12.5-8.5,12.5-16.4"/>
	<path class="st2" d="M389-67.5c0,7.8,5.3,14.4,12.5,16.4"/>
	<path class="st2" d="M417.8-79.7c-3.1-2.9-7.2-4.8-11.8-4.8c-4.7,0-8.9,1.9-12,4.9"/>
</g>
<g id="action-btn-fist">
	<polygon class="st10" points="583.5,-6.5 551.8,-23.1 551.8,-59.6 583.5,-76.2 615.2,-59.6 615.2,-23.1 	"/>
	<polygon class="st5" points="583.5,-8.9 554,-24.4 554,-58.4 583.5,-73.8 613,-58.4 613,-24.4 	"/>
	<path class="st15" d="M590.1-80.7c0,0,7.4,2,10.1,3.4c-3.4,6.5-11.5,2.4-11.5,2.4s-2.3,2.8-3,3.6c11.1,5.2,26.2,0.7,26.2,0.7
		l-0.9,5.9l-5.6,13.5l-9.7,5L578-10.9l-20.7-10.8l25.8-32.4l-2.7-19.1L590.1-80.7z"/>
	<path class="st17" d="M590.1-80.7c0,0,7.4,2,10.1,3.4c-3.4,6.5-11.5,2.4-11.5,2.4s-2.3,2.8-3,3.6c11.1,5.2,26.2,0.7,26.2,0.7
		l-0.9,5.9l-5.6,13.5l-9.7,5L578-10.9l-20.7-10.8l25.8-32.4l-2.7-19.1L590.1-80.7z"/>
	<path class="st15" d="M595.8-87.9l-2.1-1.1c-1.8-0.9-3.9-0.2-4.8,1.5l-7,13.4l8.5,4.4l7-13.4C598.3-84.9,597.6-87,595.8-87.9"/>
	<path class="st17" d="M595.8-87.9l-2.1-1.1c-1.8-0.9-3.9-0.2-4.8,1.5l-7,13.4l8.5,4.4l7-13.4C598.3-84.9,597.6-87,595.8-87.9z"/>
	<path class="st15" d="M602.3-86.5l2.6,1.7c1.3,0.8,1.7,2.5,0.8,3.8l-7.3,11.2c-3-0.9-4.4-2.1-6.3-4.3l6.3-11.4
		C599.3-86.8,601-87.3,602.3-86.5"/>
	<path class="st17" d="M602.3-86.5l2.6,1.7c1.3,0.8,1.7,2.5,0.8,3.8l-7.3,11.2c-3-0.9-4.4-2.1-6.3-4.3l6.3-11.4
		C599.3-86.8,601-87.3,602.3-86.5z"/>
	<path class="st15" d="M610.3-78.4l-1.9-1.3c-1.3-0.9-3-0.5-3.8,0.7l-6.1,9.2c1.3,2,3.1,3.6,6,4l6.4-8.9
		C611.8-75.9,611.5-77.6,610.3-78.4"/>
	<path class="st17" d="M610.3-78.4l-1.9-1.3c-1.3-0.9-3-0.5-3.8,0.7l-6.1,9.2c1.3,2,3.1,3.6,6,4l6.4-8.9
		C611.8-75.9,611.5-77.6,610.3-78.4z"/>
	<path class="st15" d="M614.9-69.2l-5.3,6.9c-2.3-0.7-3.9-1.9-5.1-3.4l5.3-7.3c0.9-1.3,2.8-1.5,4-0.5l0.7,0.6
		C615.6-72,615.8-70.4,614.9-69.2"/>
	<path class="st17" d="M614.9-69.2l-5.3,6.9c-2.3-0.7-3.9-1.9-5.1-3.4l5.3-7.3c0.9-1.3,2.8-1.5,4-0.5l0.7,0.6
		C615.6-72,615.8-70.4,614.9-69.2z"/>
	<path class="st15" d="M605.8-59.3c0.9-0.6,3.8-3,3.8-3c-2.1-0.4-3.8-1.6-5.1-3.4l-2.8,2.7c-1.1,1-0.9,2.7,0.3,3.5l0.6,0.4
		C603.6-58.5,605-58.7,605.8-59.3"/>
	<path class="st25" d="M605.8-59.3c0.9-0.6,3.8-3,3.8-3c-2.1-0.4-3.8-1.6-5.1-3.4l-2.8,2.7c-1.1,1-0.9,2.7,0.3,3.5l0.6,0.4
		C603.6-58.5,605-58.7,605.8-59.3z"/>
	<path class="st15" d="M598-62.4l-1.2-0.9c-0.8-0.6-1-1.7-0.5-2.6l2.2-3.9c1.4,2.5,3.4,3.8,6,4l-3.4,3.2
		C600.3-61.7,599-61.7,598-62.4"/>
	<path class="st25" d="M598-62.4l-1.2-0.9c-0.8-0.6-1-1.7-0.5-2.6l2.2-3.9c1.4,2.5,3.4,3.8,6,4l-3.4,3.2
		C600.3-61.7,599-61.7,598-62.4z"/>
	<path class="st15" d="M589.4-68.6l6,4.3l3.1-5.5c-3-0.7-4.5-1.8-6.3-4.3L589.4-68.6z"/>
	<path class="st17" d="M589.4-68.6l6,4.3l3.1-5.5c-3-0.7-4.5-1.8-6.3-4.3L589.4-68.6z"/>
	<path class="st15" d="M557.8-21.9l20.9-33.4l-2.2-19l10.8-10.2c0,0,10.1,5.3,12.8,6.7c-3.4,6.5-10.1,2.3-10.1,2.3s-1.3,2.9-1.9,3.7
		c9,4.7,10.8,9,3.5,16.4"/>
	<path class="st24" d="M557.8-21.9l20.9-33.4l-2.2-19l10.8-10.2c0,0,10.1,5.3,12.8,6.7c-3.4,6.5-10.1,2.3-10.1,2.3s-1.3,2.9-1.9,3.7
		c9,4.7,10.8,9,3.5,16.4"/>
	<path class="st10" d="M573.8-19.7c0.9-8.3,2.8-16.5,5.6-24.6c0.2,1.8,0.4,3.6,0.7,5.3c1.9-5.8,4.4-11.4,7.3-16.9
		c-0.3,2.1-0.4,4.1-0.6,6.1c2.3-3.5,4.7-6.8,7.4-10c1.3-1.6,1.7-1.2,0.6,0.5c-3.8,6.1-6.9,12.5-9.3,19c-0.1-1.8-0.2-3.6-0.2-5.4
		c-2.2,5.2-4,10.5-5.3,15.9c-0.4-1.9-0.8-3.8-1.2-5.8C576.7-30.4,575-25.1,573.8-19.7"/>
</g>
<g id="mini-preview-test">
	<rect x="665.5" y="-119.1" class="st10" width="47.1" height="99.6"/>
	<path class="st14" d="M706.3-112.8v87.1h-34.6v-87.1H706.3 M712.5-119.1h-47.1v99.6h47.1V-119.1L712.5-119.1z"/>
	<rect x="669.9" y="-43.8" class="st16" width="38.2" height="17.5"/>
	<path class="st14" d="M706.3-41.2v12.4h-34.5v-12.4H706.3 M709.4-44.3h-40.8v18.7h40.8V-44.3L709.4-44.3z"/>
	<ellipse class="st0" cx="689" cy="-61.5" rx="7.8" ry="7.8"/>
	<path class="st14" d="M689-69.2c4.3,0,7.8,3.5,7.8,7.8c0,4.3-3.5,7.8-7.8,7.8s-7.8-3.5-7.8-7.8C681.2-65.8,684.7-69.2,689-69.2
		 M689-75.5c-7.8,0-14.1,6.3-14.1,14c0,7.7,6.3,14,14.1,14s14.1-6.3,14.1-14C703.1-69.2,696.8-75.5,689-75.5L689-75.5z"/>
	<path class="st8" d="M684.4-59.9c-0.9,0-1.6-0.7-1.6-1.6c0-3.4,2.8-6.1,6.2-6.1c0.9,0,1.6,0.7,1.6,1.6c0,0.9-0.7,1.6-1.6,1.6
		c-1.7,0-3.1,1.4-3.1,3C685.9-60.6,685.2-59.9,684.4-59.9z"/>
	<g>
		<path class="st5" d="M712.5-119.1v99.6h-47.1v-99.6H712.5 M715.5-122.1h-3h-47.1h-3v3v99.6v3h3h47.1h3v-3v-99.6V-122.1
			L715.5-122.1z"/>
	</g>
</g>
<g id="mini-generation">
	<rect x="795.1" y="-145.6" class="st11" width="179" height="132.8"/>
	<rect x="832.7" y="-96.5" class="st16" width="87.7" height="11.5"/>
	<path class="st5" d="M919-86.6h-84.7V-95H919V-86.6z M922-98h-3h-84.7h-3v3v8.5v3h3H919h3v-3V-95V-98z"/>
	<rect x="827.1" y="-89.8" class="st16" width="99" height="66.5"/>
	<path class="st5" d="M924.6-24.8h-96v-63.5h96V-24.8z M927.6-91.3h-3h-96h-3v3v63.5v3h3h96h3v-3v-63.5V-91.3z"/>
	<polygon class="st5" points="818.2,-21.8 840,-21.8 837.6,-143.7 820.5,-143.7 	"/>
	<rect x="835.2" y="-94" class="st16" width="82.7" height="6.5"/>
	<path class="st14" d="M917-88.6h-80.7V-93H917V-88.6z M919-95h-84.7v8.5H919V-95z"/>
	<rect x="829.6" y="-87.3" class="st16" width="94" height="61.5"/>
	<path class="st14" d="M922.6-26.8h-92v-59.5h92V-26.8z M924.6-88.3h-96v63.5h96V-88.3z"/>
	<rect x="919.7" y="-85.5" class="st10" width="7.1" height="1.4"/>
	<rect x="919.7" y="-85.5" class="st14" width="7.1" height="1.4"/>
	<rect x="915.7" y="-55.5" class="st10" width="7.1" height="1.3"/>
	<rect x="915.7" y="-55.5" class="st13" width="7.1" height="1.3"/>
	<path class="st10" d="M827.2-84.8h5.7H827.2z"/>
	<rect x="826.5" y="-85.5" class="st14" width="7.1" height="1.4"/>
	<rect x="830.5" y="-55.5" class="st10" width="7.1" height="1.3"/>
	<rect x="830.5" y="-55.5" class="st13" width="7.1" height="1.3"/>
	<rect x="828.7" y="-86.8" class="st10" width="95.8" height="1.2"/>
	<rect x="827.2" y="-88.3" class="st14" width="98.8" height="4.2"/>
	<rect x="874.4" y="-78.4" class="st9" width="5.5" height="10.5"/>
	<path class="st14" d="M879-68.9h-3.5v-8.5h3.5V-68.9z M881-79.4h-2h-3.5h-2v2v8.5v2h2h3.5h2v-2v-8.5V-79.4z"/>
	<rect x="855.5" y="-78.4" class="st9" width="5.5" height="10.5"/>
	<path class="st14" d="M860.1-68.9h-3.5v-8.5h3.5V-68.9z M862.1-79.4h-2h-3.5h-2v2v8.5v2h2h3.5h2v-2v-8.5V-79.4z"/>
	<rect x="865" y="-78.4" class="st9" width="5.5" height="10.5"/>
	<path class="st14" d="M869.5-68.9H866v-8.5h3.5V-68.9z M871.5-79.4h-2H866h-2v2v8.5v2h2h3.5h2v-2v-8.5V-79.4z"/>
	<rect x="902.8" y="-78.4" class="st9" width="5.5" height="10.5"/>
	<path class="st14" d="M907.3-68.9h-3.5v-8.5h3.5V-68.9z M909.3-79.4h-2h-3.5h-2v2v8.5v2h2h3.5h2v-2v-8.5V-79.4z"/>
	<rect x="912.2" y="-78.4" class="st9" width="5.5" height="10.5"/>
	<path class="st14" d="M916.7-68.9h-3.5v-8.5h3.5V-68.9z M918.7-79.4h-2h-3.5h-2v2v8.5v2h2h3.5h2v-2v-8.5V-79.4z"/>
	<rect x="883.9" y="-78.4" class="st9" width="5.5" height="10.5"/>
	<path class="st14" d="M888.4-68.9h-3.5v-8.5h3.5V-68.9z M890.4-79.4h-2h-3.5h-2v2v8.5v2h2h3.5h2v-2v-8.5V-79.4z"/>
	<rect x="893.3" y="-78.4" class="st9" width="5.5" height="10.5"/>
	<path class="st14" d="M897.9-68.9h-3.5v-8.5h3.5V-68.9z M899.9-79.4h-2h-3.5h-2v2v8.5v2h2h3.5h2v-2v-8.5V-79.4z"/>
	<rect x="836.7" y="-78.4" class="st9" width="5.5" height="10.5"/>
	<path class="st14" d="M841.2-68.9h-3.5v-8.5h3.5V-68.9z M843.2-79.4h-2h-3.5h-2v2v8.5v2h2h3.5h2v-2v-8.5V-79.4z"/>
	<rect x="846.1" y="-78.4" class="st9" width="5.5" height="10.5"/>
	<path class="st14" d="M850.6-68.9h-3.5v-8.5h3.5V-68.9z M852.6-79.4h-2h-3.5h-2v2v8.5v2h2h3.5h2v-2v-8.5V-79.4z"/>
	<rect x="902.8" y="-41.7" class="st9" width="5.5" height="10.5"/>
	<path class="st14" d="M907.3-32.2h-3.5v-8.5h3.5V-32.2z M909.3-42.7h-2h-3.5h-2v2v8.5v2h2h3.5h2v-2v-8.5V-42.7z"/>
	<rect x="912.2" y="-41.7" class="st9" width="5.5" height="10.5"/>
	<path class="st14" d="M916.7-32.2h-3.5v-8.5h3.5V-32.2z M918.7-42.7h-2h-3.5h-2v2v8.5v2h2h3.5h2v-2v-8.5V-42.7z"/>
	<rect x="836.7" y="-41.7" class="st9" width="5.5" height="10.5"/>
	<path class="st14" d="M841.2-32.2h-3.5v-8.5h3.5V-32.2z M843.2-42.7h-2h-3.5h-2v2v8.5v2h2h3.5h2v-2v-8.5V-42.7z"/>
	<rect x="846.1" y="-41.7" class="st9" width="5.5" height="10.5"/>
	<path class="st14" d="M850.6-32.2h-3.5v-8.5h3.5V-32.2z M852.6-42.7h-2h-3.5h-2v2v8.5v2h2h3.5h2v-2v-8.5V-42.7z"/>
	<rect x="816.7" y="-138.5" class="st5" width="24.7" height="4"/>
	<path class="st5" d="M840.4-135.6h-22.6v-1.9h22.6V-135.6z M842.5-139.6h-2.1h-22.6h-2.1v2.1v1.9v2.1h2.1h22.6h2.1v-2.1v-1.9
		V-139.6z"/>
	<g>
		<defs>
			<path id="SVGID_1_" d="M929.7-52.4v19.1h15.1c0.1-2.2,1.9-3.9,4.1-3.9c2.2,0,4,1.7,4.1,3.9h14.8v-19.1H929.7z"/>
		</defs>
		<clipPath id="SVGID_2_">
			<use xlink:href="#SVGID_1_"  style="overflow:visible;"/>
		</clipPath>
		<path class="st12" d="M965.9-24.8h-34.2v-25.6h34.2V-24.8z M967.9-52.4h-38.2v29.6h38.2V-52.4z"/>
		<circle class="st21" cx="948.9" cy="-33.1" r="17.6"/>
		<polyline class="st7" points="948.9,-33.1 938.3,-37.5 939.8,-42.2 948.9,-33.1 		"/>
		<polyline class="st7" points="948.9,-33.1 937.4,-33.1 937,-38 948.9,-33.1 		"/>
		<polyline class="st7" points="948.9,-33.1 959.6,-37.5 961.8,-33.1 948.9,-33.1 		"/>
		<polyline class="st7" points="948.9,-33.1 957.1,-41.2 960.8,-38 948.9,-33.1 		"/>
		<polyline class="st7" points="948.9,-33.1 953.4,-43.7 958.1,-42.2 948.9,-33.1 		"/>
		<polyline class="st7" points="948.9,-33.1 948.9,-44.6 953.9,-44.9 948.9,-33.1 		"/>
		<polyline class="st7" points="948.9,-33.1 944.5,-43.7 948.9,-45.9 948.9,-33.1 		"/>
		<polyline class="st7" points="948.9,-33.1 940.8,-41.2 944,-44.9 948.9,-33.1 		"/>
	</g>
	<path class="st5" d="M968.3-23.8h-38.9v-7.8h38.9V-23.8z M970.3-33.6h-42.9v11.8h42.9V-33.6z"/>
	<path class="st18" d="M944.8-25.9h8.3v-7.2c0-2.3-1.9-4.1-4.2-4.1c-2.3,0-4.1,1.9-4.1,4.1V-25.9z"/>
	<path class="st5" d="M953.1-24.2h-8.7v-1.3h8.7V-24.2z M955.1-27.5h-12.7v5.3h12.7V-27.5z"/>
	<line class="st18" x1="953" y1="-29.5" x2="944.6" y2="-29.5"/>
</g>
<g id="mini-substation">
	<rect x="787.7" y="1" class="st11" width="179" height="132.8"/>
	<rect x="827.6" y="51.4" class="st16" width="102.6" height="71.9"/>
	<path class="st5" d="M928.7,121.8h-99.6V52.9h99.6V121.8z M931.7,49.9h-3h-99.6h-3v3v68.9v3h3h99.6h3v-3V52.9V49.9z"/>
	<rect x="823.8" y="50.4" class="st16" width="110.2" height="8.6"/>
	<path class="st5" d="M932.5,57.5H825.3v-5.6h107.2V57.5z M935.5,48.9h-3H825.3h-3v3v5.6v3h3h107.2h3v-3v-5.6V48.9z"/>
	<polyline class="st3" points="810.6,81.6 839.4,124.1 841.3,124.1 834.2,81.6 810.6,81.6 803.5,124.1 805.5,124.1 834.2,81.6 	"/>
	<polygon class="st3" points="810.6,81.6 834.2,81.6 831.9,66.3 812.9,66.3 	"/>
	<line class="st3" x1="810.6" y1="81.6" x2="831.9" y2="66.3"/>
	<line class="st3" x1="812.9" y1="66.3" x2="834.2" y2="81.6"/>
	<polygon class="st3" points="814.4,52.5 830.4,52.5 831.9,66.3 812.9,66.3 	"/>
	<line class="st3" x1="831.9" y1="66.3" x2="814.4" y2="52.5"/>
	<line class="st3" x1="830.4" y1="52.5" x2="812.9" y2="66.3"/>
	<polygon class="st3" points="814.4,52.5 830.4,52.5 829.4,39.8 815.4,39.8 	"/>
	<line class="st3" x1="814.4" y1="52.5" x2="829.4" y2="39.8"/>
	<line class="st3" x1="815.4" y1="39.8" x2="830.4" y2="52.5"/>
	<polygon class="st3" points="791.2,39.8 853.6,39.8 829.4,27.5 815.9,27.5 	"/>
	<polygon class="st3" points="815.9,27.5 829.4,27.5 829.4,39.8 815.4,39.8 	"/>
	<polyline class="st3" points="829.4,27.5 815.4,39.8 829.4,39.8 815.9,27.5 	"/>
	<polyline class="st3" points="834.7,30.1 829.4,39.8 815.4,39.8 810.6,30.1 	"/>
	<line class="st3" x1="810.6" y1="39.6" x2="803" y2="34"/>
	<line class="st3" x1="834.7" y1="39.6" x2="841.8" y2="34"/>
	<line class="st3" x1="841.8" y1="34" x2="841.8" y2="39.8"/>
	<line class="st3" x1="810.6" y1="30.1" x2="810.6" y2="39.6"/>
	<line class="st3" x1="834.7" y1="39.6" x2="834.7" y2="30.1"/>
	<polygon class="st3" points="815.9,27.5 829.4,27.5 827.9,19.4 816.9,19.4 	"/>
	<polyline class="st3" points="816.9,19.4 829.4,27.5 815.9,27.5 827.9,19.4 	"/>
	<polygon class="st3" points="818.4,9.5 826.4,9.5 827.9,19.4 816.9,19.4 	"/>
	<polygon class="st3" points="818.4,9.6 826.4,9.6 842.4,19.4 802.5,19.4 	"/>
	<polyline class="st3" points="826.4,9.6 816.9,19.4 827.9,19.4 818.4,9.6 	"/>
	<polyline class="st3" points="832.2,13.8 827.9,19.4 816.9,19.4 812.6,13.8 	"/>
	<line class="st3" x1="812.6" y1="13.8" x2="812.6" y2="19.2"/>
	<line class="st3" x1="832.2" y1="19.2" x2="832.2" y2="13.8"/>
	<line class="st3" x1="843.5" y1="23.4" x2="843.5" y2="19.9"/>
	<line class="st3" x1="855.1" y1="43.7" x2="855.1" y2="40.2"/>
	<line class="st3" x1="801.3" y1="23.4" x2="801.3" y2="19.9"/>
	<line class="st3" x1="789.7" y1="43.7" x2="789.7" y2="40.2"/>
	<rect x="830.1" y="53.9" class="st16" width="97.6" height="66.9"/>
	<path class="st14" d="M926.7,119.8h-95.6V54.9h95.6V119.8z M928.7,52.9h-99.6v68.9h99.6V52.9z"/>
	<rect x="826.3" y="52.9" class="st16" width="105.2" height="3.6"/>
	<path class="st14" d="M930.5,55.5H827.3v-1.6h103.2V55.5z M932.5,51.9H825.3v5.6h107.2V51.9z"/>
	<rect x="824.5" y="56" class="st14" width="108.8" height="1.5"/>
	<line class="st13" x1="927" y1="113.8" x2="830.8" y2="113.8"/>
	<rect x="858.9" y="63.7" class="st9" width="5.8" height="11.2"/>
	<path class="st14" d="M863.7,73.9h-3.8v-9.2h3.8V73.9z M865.7,62.7h-2h-3.8h-2v2v9.2v2h2h3.8h2v-2v-9.2V62.7z"/>
	<rect x="869" y="63.7" class="st9" width="5.8" height="11.2"/>
	<path class="st14" d="M873.8,73.9H870v-9.2h3.8V73.9z M875.8,62.7h-2H870h-2v2v9.2v2h2h3.8h2v-2v-9.2V62.7z"/>
	<rect x="838.7" y="63.7" class="st9" width="5.8" height="11.2"/>
	<path class="st14" d="M843.5,73.9h-3.8v-9.2h3.8V73.9z M845.5,62.7h-2h-3.8h-2v2v9.2v2h2h3.8h2v-2v-9.2V62.7z"/>
	<rect x="848.8" y="63.7" class="st9" width="5.8" height="11.2"/>
	<path class="st14" d="M853.6,73.9h-3.8v-9.2h3.8V73.9z M855.6,62.7h-2h-3.8h-2v2v9.2v2h2h3.8h2v-2v-9.2V62.7z"/>
	<rect x="858.9" y="78.3" class="st9" width="5.8" height="11.2"/>
	<path class="st14" d="M863.7,88.5h-3.8v-9.2h3.8V88.5z M865.7,77.3h-2h-3.8h-2v2v9.2v2h2h3.8h2v-2v-9.2V77.3z"/>
	<rect x="838.7" y="78.3" class="st9" width="5.8" height="11.2"/>
	<path class="st14" d="M843.5,88.5h-3.8v-9.2h3.8V88.5z M845.5,77.3h-2h-3.8h-2v2v9.2v2h2h3.8h2v-2v-9.2V77.3z"/>
	<rect x="848.8" y="78.3" class="st9" width="5.8" height="11.2"/>
	<path class="st14" d="M853.6,88.5h-3.8v-9.2h3.8V88.5z M855.6,77.3h-2h-3.8h-2v2v9.2v2h2h3.8h2v-2v-9.2V77.3z"/>
	<rect x="945.1" y="104.1" class="st5" width="7" height="8.2"/>
	<rect x="941.6" y="112.7" class="st5" width="14.8" height="1.6"/>
	<path class="st5" d="M955.4,115.2v8.6h0l-10.9-8.6H955.4z M956.4,114.2h-14.8l13.5,10.6h1.4V114.2z"/>
	<path class="st5" d="M953.5,115.2l-10.9,8.6h0v-8.6H953.5z M956.4,114.2h-14.8v10.6h1.4L956.4,114.2z"/>
	<path class="st5" d="M958.4,108.2c0,1.4-1.3,2.5-2,2.5s-1.2-1.1-1.2-2.5c0-1.4,0.5-2.5,1.2-2.5S958.4,106.8,958.4,108.2"/>
	<path class="st5" d="M939.8,108.2c0,1.4,1.3,2.5,2,2.5s1.2-1.1,1.2-2.5c0-1.4-0.5-2.5-1.2-2.5S939.8,106.8,939.8,108.2"/>
	<rect x="941.6" y="103.5" class="st5" width="5.1" height="9.4"/>
	
		<rect x="941.6" y="97.2" transform="matrix(0.9848 -0.1737 0.1737 0.9848 -2.6594 165.3201)" class="st5" width="3.1" height="1.4"/>
	<polygon class="st5" points="939.3,71.6 937.7,71.9 940.9,97.6 945.1,96.8 	"/>
	
		<rect x="942.2" y="102.6" transform="matrix(0.9848 -0.1735 0.1735 0.9848 -3.644 165.3466)" class="st5" width="3.9" height="1.7"/>
	<path class="st5" d="M945.2,102.5l-2.5,0.4c-1.2,0.2-2.4-0.6-2.6-1.8l0-0.2c-0.2-1.2,0.6-2.4,1.8-2.6l2.5-0.4
		c1.2-0.2,2.4,0.6,2.6,1.8l0,0.2C947.3,101.2,946.5,102.3,945.2,102.5"/>
	
		<rect x="937.1" y="71.2" transform="matrix(0.9848 -0.1735 0.1735 0.9848 1.8159 163.9518)" class="st5" width="2.7" height="0.8"/>
	
		<rect x="936.4" y="71.1" transform="matrix(-0.9848 0.1735 -0.1735 -0.9848 1871.7729 -19.8246)" class="st5" width="0.8" height="1.6"/>
	
		<rect x="953.5" y="97.2" transform="matrix(0.9848 0.1737 -0.1737 0.9848 31.5187 -164.4175)" class="st5" width="3.1" height="1.4"/>
	<polygon class="st5" points="960.4,71.9 958.9,71.6 953,96.8 957.3,97.6 	"/>
	
		<rect x="952.1" y="102.6" transform="matrix(0.9848 0.1735 -0.1735 0.9848 32.4224 -163.9309)" class="st5" width="3.9" height="1.7"/>
	<path class="st5" d="M955.5,103l-2.5-0.4c-1.2-0.2-2-1.4-1.8-2.6l0-0.2c0.2-1.2,1.4-2,2.6-1.8l2.5,0.4c1.2,0.2,2,1.4,1.8,2.6l0,0.2
		C957.8,102.4,956.7,103.2,955.5,103"/>
	
		<rect x="958.3" y="71.2" transform="matrix(-0.9848 -0.1735 0.1735 -0.9848 1892.3708 308.6399)" class="st5" width="2.7" height="0.8"/>
	
		<rect x="961" y="71.1" transform="matrix(0.9848 0.1737 -0.1737 0.9848 27.1066 -165.9173)" class="st5" width="0.8" height="1.6"/>
	<rect x="951.4" y="103.5" class="st5" width="5.1" height="9.4"/>
	<path class="st3" d="M936.5,71.1C937,68,935,67,930.3,68"/>
	<path class="st3" d="M961.5,71.1c-0.1-10.8-23-5.9-31.6-3.7"/>
</g>
<g id="mini-control-center">
	<rect x="802.1" y="161.7" class="st11" width="179" height="132.8"/>
	<rect x="829" y="213.9" class="st16" width="100" height="70.2"/>
	<path class="st5" d="M927.5,282.5h-97v-67.2h97V282.5z M930.5,212.4h-3h-97h-3v3v67.2v3h3h97h3v-3v-67.2V212.4z"/>
	<rect x="825.2" y="212.9" class="st16" width="107.5" height="8.5"/>
	<path class="st5" d="M931.2,219.8H826.7v-5.5h104.5V219.8z M934.2,211.4h-3H826.7h-3v3v5.5v3h3h104.5h3v-3v-5.5V211.4z"/>
	
		<rect x="915.4" y="203.9" transform="matrix(0.6033 0.7975 -0.7975 0.6033 527.2729 -650.8633)" class="st5" width="4.9" height="1.4"/>
	
		<rect x="915.4" y="203.9" transform="matrix(0.6033 0.7975 -0.7975 0.6033 527.2729 -650.8633)" class="st3" width="4.9" height="1.4"/>
	
		<rect x="911.5" y="208.6" transform="matrix(-0.9541 0.2994 -0.2994 -0.9541 1850.9858 135.5914)" class="st5" width="7.1" height="2"/>
	
		<rect x="911.5" y="208.6" transform="matrix(-0.9541 0.2994 -0.2994 -0.9541 1850.9858 135.5914)" class="st3" width="7.1" height="2"/>
	<path class="st5" d="M918.4,202.3c-0.4,1.3-1.8,2.1-3.1,1.7c-1.3-0.4-2.1-1.8-1.7-3.1c0.4-1.3,1.8-2.1,3.1-1.7
		C918.1,199.6,918.8,201,918.4,202.3"/>
	<circle class="st3" cx="916" cy="201.6" r="2.5"/>
	<path class="st5" d="M921.5,206.3c1,1,1,2.6,0,3.6c-1,1-2.6,1-3.6,0c-1-1-1-2.6,0-3.6C919,205.3,920.6,205.3,921.5,206.3"/>
	<circle class="st3" cx="919.8" cy="208" r="2.5"/>
	<path class="st5" d="M913.2,211.1c0,1.9-1.6,3.5-3.5,3.5c-1.9,0-3.5-1.6-3.5-3.5s1.6-3.5,3.5-3.5
		C911.6,207.6,913.2,209.2,913.2,211.1"/>
	<circle class="st3" cx="909.7" cy="211.1" r="3.5"/>
	<rect x="831.5" y="216.4" class="st16" width="95" height="65.2"/>
	<path class="st14" d="M925.5,280.5h-93v-63.2h93V280.5z M927.5,215.4h-97v67.2h97V215.4z"/>
	<rect x="827.7" y="215.4" class="st16" width="102.5" height="3.5"/>
	<path class="st14" d="M929.2,217.8H828.7v-1.5h100.5V217.8z M931.2,214.4H826.7v5.5h104.5V214.4z"/>
	<line class="st16" x1="926.3" y1="275.4" x2="831.6" y2="275.4"/>
	<line class="st13" x1="926.3" y1="275.4" x2="831.6" y2="275.4"/>
	<path class="st5" d="M906.9,178.5c-2.5,2.5,1.3,13.2,10.3,22.1c8.9,8.9,19.7,12.7,22.1,10.3"/>
	<path class="st3" d="M906.9,178.5c-2.5,2.5,1.3,13.2,10.3,22.1c8.9,8.9,19.7,12.7,22.1,10.3"/>
	
		<ellipse transform="matrix(0.7071 0.7071 -0.7071 0.7071 408.0283 -595.693)" class="st3" cx="923.1" cy="194.7" rx="22.9" ry="1.8"/>
	<polyline class="st3" points="916.5,190.7 932,185.8 927,201.2 	"/>
	<polyline class="st3" points="906.9,178.5 932,185.8 939.3,210.9 	"/>
	<rect x="930.8" y="184.6" transform="matrix(0.707 0.7072 -0.7072 0.707 404.349 -604.84)" class="st5" width="2.8" height="2"/>
	<rect x="930.8" y="184.6" transform="matrix(0.707 0.7072 -0.7072 0.707 404.349 -604.84)" class="st3" width="2.8" height="2"/>
	<rect x="878.2" y="225.9" class="st9" width="5.7" height="11"/>
	<path class="st14" d="M883,235.9h-3.7v-9h3.7V235.9z M885,224.9h-2h-3.7h-2v2v9v2h2h3.7h2v-2v-9V224.9z"/>
	<rect x="858.5" y="225.9" class="st9" width="5.7" height="11"/>
	<path class="st14" d="M863.3,235.9h-3.7v-9h3.7V235.9z M865.3,224.9h-2h-3.7h-2v2v9v2h2h3.7h2v-2v-9V224.9z"/>
	<rect x="868.4" y="225.9" class="st9" width="5.7" height="11"/>
	<path class="st14" d="M873.1,235.9h-3.7v-9h3.7V235.9z M875.1,224.9h-2h-3.7h-2v2v9v2h2h3.7h2v-2v-9V224.9z"/>
	<rect x="838.9" y="225.9" class="st9" width="5.7" height="11"/>
	<path class="st14" d="M843.6,235.9h-3.7v-9h3.7V235.9z M845.6,224.9h-2h-3.7h-2v2v9v2h2h3.7h2v-2v-9V224.9z"/>
	<rect x="848.7" y="225.9" class="st9" width="5.7" height="11"/>
	<path class="st14" d="M853.4,235.9h-3.7v-9h3.7V235.9z M855.4,224.9h-2h-3.7h-2v2v9v2h2h3.7h2v-2v-9V224.9z"/>
	<rect x="878.2" y="240.1" class="st9" width="5.7" height="11"/>
	<path class="st14" d="M883,250h-3.7v-9h3.7V250z M885,239.1h-2h-3.7h-2v2v9v2h2h3.7h2v-2v-9V239.1z"/>
	<rect x="858.5" y="240.1" class="st9" width="5.7" height="11"/>
	<path class="st14" d="M863.3,250h-3.7v-9h3.7V250z M865.3,239.1h-2h-3.7h-2v2v9v2h2h3.7h2v-2v-9V239.1z"/>
	<rect x="868.4" y="240.1" class="st9" width="5.7" height="11"/>
	<path class="st14" d="M873.1,250h-3.7v-9h3.7V250z M875.1,239.1h-2h-3.7h-2v2v9v2h2h3.7h2v-2v-9V239.1z"/>
	<rect x="838.9" y="240.1" class="st9" width="5.7" height="11"/>
	<path class="st14" d="M843.6,250h-3.7v-9h3.7V250z M845.6,239.1h-2h-3.7h-2v2v9v2h2h3.7h2v-2v-9V239.1z"/>
	<rect x="848.7" y="240.1" class="st9" width="5.7" height="11"/>
	<path class="st14" d="M853.4,250h-3.7v-9h3.7V250z M855.4,239.1h-2h-3.7h-2v2v9v2h2h3.7h2v-2v-9V239.1z"/>
	<path class="st5" d="M942.1,272l-0.7,0.3c-2.5,1.2-5.6,0.1-6.8-2.5c-1.2-2.5-0.1-5.6,2.5-6.8l0.7-0.3L942.1,272z"/>
	
		<rect x="940.3" y="262.7" transform="matrix(0.9074 -0.4202 0.4202 0.9074 -24.3824 421.0063)" class="st5" width="6.2" height="6.4"/>
	<polygon class="st5" points="947.3,268.5 968,263.2 961.5,249.2 944.1,261.6 	"/>
	
		<rect x="974.6" y="247.3" transform="matrix(0.9073 -0.4205 0.4205 0.9073 -14.5003 434.2357)" class="st5" width="5.9" height="5.3"/>
	<polygon class="st5" points="981.3,251.2 982.7,250 980.9,246.1 979.1,246.3 	"/>
	
		<rect x="964.5" y="245.2" transform="matrix(0.9073 -0.4204 0.4204 0.9073 -17.6646 430.1176)" class="st5" width="4.8" height="19.8"/>
	<rect x="974" y="248" transform="matrix(0.9075 -0.42 0.42 0.9075 -15.334 432.7623)" class="st5" width="1.9" height="6.4"/>
	<polygon class="st5" points="973.4,261.1 975.2,255.9 971.5,248 966.4,246 	"/>
	<rect x="955" y="269.3" transform="matrix(0.5462 0.8377 -0.8377 0.5462 661.0615 -679.901)" class="st5" width="6" height="1.7"/>
	
		<rect x="950.4" y="274.8" transform="matrix(-0.9541 0.2994 -0.2994 -0.9541 1948.3739 253.5537)" class="st5" width="8.8" height="2.5"/>
	<path class="st5" d="M958.9,267.4c-0.6,1.6-2.4,2.4-4,1.8c-1.6-0.6-2.4-2.4-1.8-4c0.6-1.6,2.4-2.4,4-1.8
		C958.7,264,959.5,265.8,958.9,267.4"/>
	<path class="st5" d="M962.7,272c1.2,1.2,1.2,3.2,0,4.4c-1.2,1.2-3.2,1.2-4.4,0c-1.2-1.2-1.2-3.2,0-4.4
		C959.5,270.7,961.5,270.7,962.7,272"/>
	<path class="st5" d="M952.4,277.9c0,2.4-1.9,4.3-4.3,4.3s-4.3-1.9-4.3-4.3s1.9-4.3,4.3-4.3S952.4,275.6,952.4,277.9"/>
	<rect x="929.7" y="279.5" class="st5" width="39" height="6"/>
</g>
</svg>
