<?xml version="1.0" encoding="utf-8"?>
<!-- Generator: Adobe Illustrator 15.0.0, SVG Export Plug-In . SVG Version: 6.00 Build 0)  -->
<!DOCTYPE svg PUBLIC "-//W3C//DTD SVG 1.1//EN" "http://www.w3.org/Graphics/SVG/1.1/DTD/svg11.dtd">
<svg version="1.1" id="Layer_1" xmlns="http://www.w3.org/2000/svg" xmlns:xlink="http://www.w3.org/1999/xlink" x="0px" y="0px"
	 width="725px" height="612px" viewBox="0 0 725 612" style="enable-background:new 0 0 725 612;" xml:space="preserve">
<style type="text/css">
<![CDATA[
	.st0{fill:#E03F07;}
	.st1{fill:#53848C;}
	.st2{fill:none;stroke:#FFFFFF;stroke-width:6;stroke-miterlimit:10;}
	.st3{fill:none;stroke:#FFFFFF;stroke-width:3;stroke-linecap:square;stroke-miterlimit:10;}
	.st4{fill:#F9773E;}
	.st5{opacity:0.5;fill:#6B989F;enable-background:new    ;}
	.st6{opacity:0.75;fill:#FFB81A;}
	.st7{fill:#FFB81A;}
	.st8{fill:#FFFFFF;}
	.st9{fill:#335E6E;}
	.st10{fill:#345D6E;}
	.st11{fill:#6B989F;}
	.st12{fill:none;stroke:#FFFFFF;stroke-width:1.4167;stroke-miterlimit:10;}
	.st13{fill:none;stroke:#FFB81A;stroke-width:2.9184;stroke-miterlimit:10;}
	.st14{fill:#71A8A8;}
	.st15{fill:#FFFFFF;stroke:#231F20;stroke-miterlimit:10;}
	.st16{fill:none;stroke:#FFFFFF;stroke-width:3;stroke-miterlimit:10;}
	.st17{fill:none;stroke:#FFFFFF;stroke-width:1.4167;stroke-linecap:round;stroke-miterlimit:10;}
	.st18{fill:none;stroke:#FFFFFF;stroke-width:1.4167;stroke-miterlimit:1;}
]]>
</style>
<symbol  id="New_Symbol" viewBox="-10.3 -10.3 20.6 20.6">
	<polygon class="st15" points="9.8,-9.8 -9.8,-9.8 -9.8,9.8 9.8,9.8 	"/>
</symbol>
<g id="first">
	
		<use xlink:href="#New_Symbol"  width="20.6" height="20.6" x="-10.3" y="-10.3" transform="matrix(0.7046 0 0 -0.7046 235.4507 -122.6914)" style="overflow:visible;"/>
</g>
<g id="ep4-badge">
	<g id="_x3E_white_3_">
		<path id="XMLID_93_" class="st16" d="M391.977-120.068h3.187c3.539,0,3.186-4.248,3.186-4.248h-11.114v7.08l7.221,1.982"/>
		<polyline id="XMLID_92_" class="st16" points="392.613,-120.068 402.029,-120.068 402.029,-128.776 387.161,-128.776 
			387.161,-122.9 		"/>
		<line id="XMLID_91_" class="st16" x1="398.277" y1="-120.068" x2="398.277" y2="-128.776"/>
		<line id="XMLID_90_" class="st16" x1="400.047" y1="-115.324" x2="400.047" y2="-119.926"/>
		<line id="XMLID_89_" class="st16" x1="394.596" y1="-124.67" x2="394.596" y2="-128.776"/>
		<line id="XMLID_88_" class="st16" x1="390.914" y1="-124.67" x2="390.914" y2="-128.776"/>
	</g>
	<g id="XMLID_94_">
		<path class="st7" d="M394.596-135.927l12.035,6.301v13.735l-12.035,6.301l-12.037-6.301v-13.735L394.596-135.927 M394.596-138.334
			l-14.16,7.434v16.355l14.16,7.434l14.16-7.434V-130.9L394.596-138.334L394.596-138.334z"/>
	</g>
</g>
<g id="ep3-badge">
	<g id="_x3E_white_2_">
		<polyline id="XMLID_74_" class="st3" points="343.76,-127.856 353.531,-132.954 363.23,-127.856 363.23,-122.971 
			353.531,-117.873 		"/>
		<polyline id="XMLID_73_" class="st3" points="363.23,-123.254 363.23,-118.439 353.531,-113.342 		"/>
		<line id="XMLID_72_" class="st16" x1="363.23" y1="-118.015" x2="363.23" y2="-113.554"/>
		<line id="XMLID_71_" class="st3" x1="362.664" y1="-127.431" x2="353.531" y2="-122.617"/>
	</g>
	<g>
		<g id="XMLID_69_">
			<g>
				<path class="st7" d="M341.495-127.36l9.912,5.168v11.541l-9.912-5.168V-127.36 M339.371-130.9v16.355l14.16,7.434l0,0v-16.355
					L339.371-130.9L339.371-130.9L339.371-130.9z"/>
			</g>
		</g>
		<path id="XMLID_68_" class="st7" d="M361.177-123.962c-0.071,0.425-0.425,0.708-0.779,0.708s-0.566-0.283-0.496-0.708
			c0.07-0.425,0.425-0.708,0.779-0.708C361.106-124.67,361.248-124.387,361.177-123.962z"/>
		<path id="XMLID_67_" class="st7" d="M361.177-119.431c-0.071,0.425-0.425,0.708-0.779,0.708s-0.566-0.283-0.496-0.708
			c0.07-0.425,0.425-0.708,0.779-0.708S361.248-119.785,361.177-119.431z"/>
		<path id="XMLID_66_" class="st7" d="M361.177-114.687c-0.071,0.425-0.425,0.708-0.779,0.708s-0.566-0.283-0.496-0.708
			c0.07-0.425,0.425-0.708,0.779-0.708C361.106-115.395,361.248-115.112,361.177-114.687z"/>
		<g id="XMLID_59_">
			<path class="st7" d="M353.531-135.927l12.035,6.301v13.735l-12.035,6.301l-12.036-6.301v-13.735L353.531-135.927
				 M353.531-138.334l-14.16,7.434v16.355l14.16,7.434l14.16-7.434V-130.9L353.531-138.334L353.531-138.334z"/>
		</g>
	</g>
</g>
<g id="ep2-badge">
	<g id="_x3E_white_1_">
		<line id="XMLID_333_" class="st16" x1="320.892" y1="-127.431" x2="313.882" y2="-123.325"/>
		<line id="XMLID_332_" class="st16" x1="312.466" y1="-113.059" x2="312.466" y2="-121.201"/>
		<line id="XMLID_330_" class="st16" x1="311.05" y1="-123.325" x2="303.97" y2="-127.431"/>
		<polyline id="XMLID_329_" class="st16" points="318.98,-116.032 312.466,-112.634 305.882,-116.032 		"/>
		<polyline id="XMLID_328_" class="st16" points="315.015,-131.325 321.529,-127.927 321.529,-120.422 		"/>
		<polyline id="XMLID_327_" class="st16" points="303.333,-120.422 303.333,-127.927 309.847,-131.325 		"/>
	</g>
	<g id="XMLID_335_">
		<path class="st7" d="M312.466-135.927l12.036,6.301v13.735l-12.036,6.301l-12.036-6.301v-13.735L312.466-135.927 M312.466-138.334
			l-14.16,7.434v16.355l14.16,7.434l14.16-7.434V-130.9L312.466-138.334L312.466-138.334z"/>
	</g>
</g>
<g id="ep1-badge">
	<g id="_x3E_white">
		<polyline id="XMLID_108_" class="st16" points="264.322,-126.723 268.287,-122.758 264.322,-118.723 		"/>
		<polyline id="XMLID_107_" class="st16" points="278.482,-118.723 274.446,-122.758 278.482,-126.723 		"/>
		<polyline id="XMLID_105_" class="st16" points="275.367,-129.838 271.402,-125.803 267.366,-129.838 		"/>
		<polyline id="XMLID_104_" class="st16" points="267.366,-115.678 271.402,-119.643 275.367,-115.678 		"/>
		<line id="XMLID_102_" class="st16" x1="271.402" y1="-127.006" x2="271.402" y2="-136.21"/>
		<line id="XMLID_101_" class="st16" x1="271.402" y1="-109.306" x2="271.402" y2="-118.51"/>
		<line id="XMLID_100_" class="st16" x1="275.65" y1="-122.758" x2="284.854" y2="-122.758"/>
		<line id="XMLID_98_" class="st16" x1="258.658" y1="-122.758" x2="267.862" y2="-122.758"/>
	</g>
	<g id="XMLID_60_">
		<path class="st7" d="M271.402-135.927l12.036,6.301v13.735l-12.036,6.301l-12.036-6.301v-13.735L271.402-135.927 M271.402-138.334
			l-14.16,7.434v16.355l14.16,7.434l14.16-7.434V-130.9L271.402-138.334L271.402-138.334z"/>
	</g>
</g>
<g id="rank-badge-cyber-cadet">
	<polygon class="st8" points="586.536,-141.45 587.314,-139.821 589.014,-139.538 587.811,-138.264 588.094,-136.494 
		586.536,-137.343 585.049,-136.494 585.332,-138.264 584.059,-139.538 585.828,-139.821 	"/>
	<polygon class="st8" points="562.464,-141.45 563.242,-139.821 564.941,-139.538 563.738,-138.264 564.021,-136.494 
		562.464,-137.343 560.977,-136.494 561.26,-138.264 559.986,-139.538 561.756,-139.821 	"/>
	<polygon class="st7" points="571.455,-112.209 569.189,-113.413 568.979,-113.271 569.049,-113.483 563.88,-116.174 
		563.88,-128.493 572.093,-132.812 572.588,-135.432 561.756,-129.768 561.756,-114.899 570.96,-110.085 	"/>
	<polygon class="st7" points="576.482,-135.432 576.907,-132.812 585.12,-128.493 585.12,-116.174 578.111,-112.492 
		577.262,-109.589 587.244,-114.899 587.244,-129.768 	"/>
	<g>
		<polygon class="st8" points="575.208,-112.209 572.376,-110.156 574.5,-119.501 570.96,-116.669 573.084,-129.414 
			576.624,-129.414 575.208,-123.75 578.04,-125.874 575.562,-115.891 578.182,-117.873 573.65,-102.368 		"/>
		<rect x="569.544" y="-130.122" class="st8" width="9.912" height="1.416"/>
		<polygon class="st8" points="574.5,-138.618 573.084,-130.122 575.916,-130.122 		"/>
		<g id="XMLID_45_">
			<g id="XMLID_157_">
				<g id="XMLID_185_">
					<g id="XMLID_229_">
						<polygon class="st8" points="574.5,-140.034 573.084,-139.184 573.084,-137.343 574.5,-136.494 575.916,-137.343 
							575.916,-139.184 						"/>
					</g>
				</g>
			</g>
		</g>
	</g>
</g>
<g id="rank-badge-technical-cadet">
	<polygon class="st7" points="540.586,-134.37 540.94,-132.246 547.596,-132.246 547.596,-116.528 540.94,-111.855 
		540.586,-109.023 549.72,-115.395 549.72,-134.37 	"/>
	<polygon class="st7" points="535.914,-111.784 529.329,-116.245 529.258,-132.246 535.914,-132.246 536.268,-134.37 
		527.062,-134.37 527.205,-115.112 536.268,-108.952 	"/>
	<g>
		<g>
			<g>
				<polygon class="st8" points="538.392,-129.414 535.56,-126.582 538.392,-102.509 541.224,-126.582 				"/>
			</g>
		</g>
		<rect x="533.436" y="-130.122" class="st8" width="9.912" height="1.416"/>
		<polygon class="st8" points="538.392,-138.618 536.976,-130.122 539.808,-130.122 		"/>
		<g id="XMLID_166_">
			<g id="XMLID_168_">
				<g id="XMLID_169_">
					<g id="XMLID_170_">
						<polygon class="st8" points="538.392,-140.034 536.976,-139.184 536.976,-137.343 538.392,-136.494 539.808,-137.343 
							539.808,-139.184 						"/>
					</g>
				</g>
			</g>
		</g>
	</g>
	<polygon class="st8" points="550.428,-141.45 551.207,-139.821 552.906,-139.538 551.702,-138.264 551.985,-136.494 
		550.428,-137.343 548.941,-136.494 549.225,-138.264 547.949,-139.538 549.72,-139.821 	"/>
	<polygon class="st8" points="526.355,-141.45 527.134,-139.821 528.834,-139.538 527.63,-138.264 527.913,-136.494 
		526.355,-137.343 524.869,-136.494 525.152,-138.264 523.877,-139.538 525.646,-139.821 	"/>
</g>
<g id="rank-badge-cadet-first-class">
	<g>
		<path class="st7" d="M511.487-132.246v15.718l-9.204,6.443l-9.134-6.16l-0.07-16.001H511.487 M513.611-134.37h-22.656l0.07,19.258
			l11.258,7.646l11.328-7.93V-134.37L513.611-134.37z"/>
	</g>
	<line class="st13" x1="491.593" y1="-124.458" x2="513.045" y2="-124.458"/>
	<polygon class="st8" points="514.319,-141.45 515.098,-139.821 516.797,-139.538 515.594,-138.264 515.877,-136.494 
		514.319,-137.343 512.833,-136.494 513.115,-138.264 511.842,-139.538 513.611,-139.821 	"/>
	<polygon class="st8" points="490.247,-141.45 491.025,-139.821 492.725,-139.538 491.521,-138.264 491.805,-136.494 
		490.247,-137.343 488.761,-136.494 489.043,-138.264 487.77,-139.538 489.539,-139.821 	"/>
</g>
<g id="rank-badge-cadet">
	<g>
		<path class="st7" d="M477.148-132.246v15.718l-9.203,6.443l-9.135-6.16l-0.07-16.001H477.148 M479.273-134.37h-22.656l0.07,19.258
			l11.258,7.646l11.328-7.93V-134.37L479.273-134.37z"/>
	</g>
	<line class="st13" x1="457.254" y1="-124.458" x2="478.707" y2="-124.458"/>
</g>
<g id="rank-badge-recruit">
	<g>
		<path class="st7" d="M443.164-132.246v15.718l-9.203,6.443l-9.134-6.16l-0.071-16.001H443.164 M445.289-134.37h-22.656
			l0.07,19.258l11.258,7.646l11.328-7.93V-134.37L445.289-134.37z"/>
	</g>
</g>
<g id="chapter-progress-chapter">
	<g id="XMLID_150_">
		<path class="st11" d="M233.665-88.137l3.54,1.912v4.106l-3.54,1.912l-3.54-1.912v-4.106L233.665-88.137 M233.665-90.544
			l-5.664,3.044v6.655l5.664,3.044l5.664-3.044V-87.5L233.665-90.544L233.665-90.544z"/>
	</g>
</g>
<g id="chapter-progress-slide">
	<rect x="242.869" y="-87.358" class="st11" width="6.372" height="6.372"/>
</g>
<g id="chapter-progress-test">
	<polygon class="st5" points="276.641,-77.729 272.464,-75.534 264.463,-79.641 264.463,-88.632 267.083,-89.978 265.738,-91.323 
		262.693,-89.694 262.693,-78.579 272.464,-73.552 278.34,-76.596 	"/>
	<polygon class="st5" points="272.464,-94.792 267.933,-92.456 269.703,-91.323 272.464,-92.739 280.394,-88.632 280.394,-79.641 
		279.119,-79.003 280.464,-77.658 282.164,-78.579 282.164,-89.694 	"/>
	<g>
		<polygon class="st4" points="265.384,-93.022 274.517,-87.287 271.685,-87.358 279.332,-80.844 276.004,-80.773 280.889,-76.03 
			271.119,-82.26 274.8,-82.331 266.658,-88.562 269.561,-88.703 		"/>
	</g>
</g>
<g id="chapter-progress-duties">
	<circle class="st11" cx="255.967" cy="-84.172" r="3.186"/>
</g>
<g id="list-progress-base">
	<g id="hex-outer_1_">
		<g id="XMLID_1080_">
			<path class="st4" d="M343.052-96.916l11.328,5.947v12.886l-11.328,5.947l-11.328-5.947v-12.886L343.052-96.916 M343.052-100.102
				l-14.16,7.434v16.355l14.16,7.434l14.16-7.434v-16.355L343.052-100.102L343.052-100.102z"/>
		</g>
	</g>
	<g id="hex-inner_1_">
		<g id="XMLID_2384_">
			<polygon class="st7" points="343.052,-74.189 333.99,-79.074 333.99,-89.978 343.052,-94.934 352.115,-89.978 352.115,-79.216 
							"/>
		</g>
	</g>
</g>
<g id="list-progress-complete">
	<g id="hex-inner">
		<g>
			<polygon class="st14" points="313.812,-90.332 317.706,-87.924 313.174,-87.924 312.537,-87.924 319.192,-82.189 
				319.192,-89.978 310.13,-94.934 308.147,-93.872 			"/>
		</g>
		<g>
			<polygon class="st14" points="307.51,-80.632 303.899,-82.968 308.147,-83.039 309.847,-83.11 301.067,-89.836 301.067,-79.074 
				310.13,-74.189 314.166,-76.384 			"/>
		</g>
	</g>
	<g id="hex-outer">
		<polygon class="st1" points="316.006,-75.251 310.13,-72.136 298.802,-78.083 298.802,-90.969 302.413,-92.88 300.359,-95.004 
			295.97,-92.739 295.97,-76.384 310.13,-68.95 318.768,-73.481 		"/>
		<polygon class="st1" points="310.13,-100.102 303.545,-96.704 306.377,-94.934 310.13,-96.916 321.458,-90.969 321.458,-78.083 
			319.688,-77.163 321.883,-75.109 324.29,-76.384 324.29,-92.739 		"/>
	</g>
	<g id="lightning_1_">
		<g id="lightning">
			<polygon class="st7" points="299.722,-97.553 313.174,-89.199 309.068,-89.199 320.254,-79.641 315.369,-79.57 322.52,-72.631 
				308.218,-81.765 313.599,-81.835 301.634,-91.04 305.953,-91.181 			"/>
		</g>
	</g>
</g>
<g id="ctanlee">
	<circle class="st8" cx="406" cy="-67.5" r="6.371"/>
	<path class="st2" d="M410.451-51.109C417.678-53.068,423-59.654,423-67.5"/>
	<path class="st2" d="M389-67.5c0,7.846,5.322,14.432,12.549,16.391"/>
	<path class="st2" d="M417.785-79.735C414.729-82.68,410.58-84.5,406-84.5c-4.678,0-8.913,1.891-11.986,4.949"/>
</g>
<g id="action-btn-fist">
	<polygon class="st8" points="583.529,-6.5 551.829,-23.094 551.829,-59.648 583.529,-76.242 615.229,-59.648 615.229,-23.094 	"/>
	<polygon class="st4" points="583.529,-8.926 554.034,-24.365 554.034,-58.377 583.529,-73.816 613.023,-58.377 613.023,-24.365 	
		"/>
	<path class="st10" d="M590.111-80.667c0,0,7.4,1.994,10.053,3.388c-3.4,6.472-11.455,2.374-11.455,2.374s-2.311,2.849-2.968,3.586
		c11.129,5.194,26.245,0.659,26.245,0.659l-0.922,5.878l-5.588,13.459l-9.732,5.027L578.031-10.94l-20.748-10.795l25.778-32.377
		l-2.749-19.113L590.111-80.667z"/>
	<path class="st12" d="M590.111-80.667c0,0,7.4,1.994,10.053,3.388c-3.4,6.472-11.455,2.374-11.455,2.374s-2.311,2.849-2.968,3.586
		c11.129,5.194,26.245,0.659,26.245,0.659l-0.922,5.878l-5.588,13.459l-9.732,5.027L578.031-10.94l-20.748-10.795l25.778-32.377
		l-2.749-19.113L590.111-80.667z"/>
	<path class="st10" d="M595.845-87.944l-2.115-1.112c-1.753-0.92-3.92-0.246-4.841,1.506l-7.039,13.394l8.461,4.446l7.039-13.393
		C598.271-84.856,597.597-87.023,595.845-87.944"/>
	<path class="st12" d="M595.845-87.944l-2.115-1.112c-1.753-0.92-3.92-0.246-4.841,1.506l-7.039,13.394l8.461,4.446l7.039-13.393
		C598.271-84.856,597.597-87.023,595.845-87.944z"/>
	<path class="st10" d="M602.332-86.465l2.641,1.734c1.291,0.805,1.67,2.512,0.84,3.787l-7.277,11.175
		c-3.01-0.854-4.441-2.1-6.33-4.349l6.317-11.363C599.277-86.837,601.014-87.286,602.332-86.465"/>
	<path class="st12" d="M602.332-86.465l2.641,1.734c1.291,0.805,1.67,2.512,0.84,3.787l-7.277,11.175
		c-3.01-0.854-4.441-2.1-6.33-4.349l6.317-11.363C599.277-86.837,601.014-87.286,602.332-86.465z"/>
	<path class="st10" d="M610.281-78.443l-1.859-1.295c-1.254-0.875-2.982-0.542-3.822,0.736l-6.064,9.233
		c1.326,2.025,3.129,3.569,6.02,4.014l6.379-8.876C611.817-75.861,611.523-77.577,610.281-78.443"/>
	<path class="st12" d="M610.281-78.443l-1.859-1.295c-1.254-0.875-2.982-0.542-3.822,0.736l-6.064,9.233
		c1.326,2.025,3.129,3.569,6.02,4.014l6.379-8.876C611.817-75.861,611.523-77.577,610.281-78.443z"/>
	<path class="st10" d="M614.932-69.23l-5.291,6.866c-2.295-0.652-3.893-1.86-5.086-3.391l5.312-7.341
		c0.932-1.289,2.768-1.504,3.973-0.465l0.715,0.615C615.646-72.003,615.812-70.372,614.932-69.23"/>
	<path class="st12" d="M614.932-69.23l-5.291,6.866c-2.295-0.652-3.893-1.86-5.086-3.391l5.312-7.341
		c0.932-1.289,2.768-1.504,3.973-0.465l0.715,0.615C615.646-72.003,615.812-70.372,614.932-69.23z"/>
	<path class="st10" d="M605.85-59.319c0.854-0.646,3.791-3.045,3.791-3.045c-2.127-0.376-3.768-1.599-5.086-3.391l-2.812,2.664
		c-1.058,1.003-0.911,2.728,0.3,3.538l0.561,0.375C603.602-58.512,604.998-58.675,605.85-59.319"/>
	<path class="st18" d="M605.85-59.319c0.854-0.646,3.791-3.045,3.791-3.045c-2.127-0.376-3.768-1.599-5.086-3.391l-2.812,2.664
		c-1.058,1.003-0.911,2.728,0.3,3.538l0.561,0.375C603.602-58.512,604.998-58.675,605.85-59.319z"/>
	<path class="st10" d="M598.043-62.372l-1.178-0.891c-0.792-0.599-1.021-1.69-0.536-2.558l2.206-3.948
		c1.383,2.462,3.387,3.804,6.02,4.014l-3.385,3.209C600.311-61.731,598.987-61.658,598.043-62.372"/>
	<path class="st18" d="M598.043-62.372l-1.178-0.891c-0.792-0.599-1.021-1.69-0.536-2.558l2.206-3.948
		c1.383,2.462,3.387,3.804,6.02,4.014l-3.385,3.209C600.311-61.731,598.987-61.658,598.043-62.372z"/>
	<path class="st10" d="M589.449-68.565l6.035,4.258l3.051-5.461c-3.033-0.664-4.512-1.829-6.33-4.349L589.449-68.565z"/>
	<path class="st12" d="M589.449-68.565l6.035,4.258l3.051-5.461c-3.033-0.664-4.512-1.829-6.33-4.349L589.449-68.565z"/>
	<path class="st10" d="M557.79-21.903l20.872-33.37l-2.188-19.021l10.792-10.17c0,0,10.129,5.323,12.781,6.717
		c-3.402,6.472-10.094,2.278-10.094,2.278s-1.264,2.923-1.924,3.66c8.988,4.724,10.791,8.961,3.453,16.425"/>
	<path class="st17" d="M557.79-21.903l20.872-33.37l-2.188-19.021l10.792-10.17c0,0,10.129,5.323,12.781,6.717
		c-3.402,6.472-10.094,2.278-10.094,2.278s-1.264,2.923-1.924,3.66c8.988,4.724,10.791,8.961,3.453,16.425"/>
	<path class="st8" d="M573.761-19.724c0.897-8.276,2.755-16.539,5.586-24.609c0.175,1.803,0.394,3.582,0.657,5.338
		c1.943-5.763,4.385-11.414,7.322-16.885c-0.253,2.063-0.441,4.113-0.564,6.145c2.266-3.483,4.732-6.836,7.387-10.044
		c1.293-1.563,1.715-1.218,0.645,0.502c-3.794,6.097-6.912,12.479-9.348,19.029c-0.115-1.779-0.184-3.577-0.203-5.394
		c-2.208,5.21-3.982,10.542-5.32,15.94c-0.439-1.894-0.829-3.818-1.164-5.774C576.699-30.362,575.027-25.097,573.761-19.724"/>
</g>
<g id="mini-preview-test">
	<rect x="665.465" y="-119.063" class="st8" width="47.07" height="99.63"/>
	<path class="st9" d="M706.283-112.812v87.127h-34.566v-87.127H706.283 M712.535-119.063h-47.069v99.63h47.069V-119.063
		L712.535-119.063z"/>
	<rect x="669.877" y="-43.758" class="st11" width="38.246" height="17.515"/>
	<path class="st9" d="M706.271-41.216v12.43h-34.543v-12.43H706.271 M709.396-44.341h-40.793v18.681h40.793V-44.341L709.396-44.341z
		"/>
	<ellipse class="st0" cx="689" cy="-61.465" rx="7.845" ry="7.784"/>
	<path class="st9" d="M689-69.249c4.332,0,7.845,3.485,7.845,7.784s-3.513,7.784-7.845,7.784s-7.845-3.485-7.845-7.784
		S684.668-69.249,689-69.249 M689-75.5c-7.772,0-14.096,6.296-14.096,14.035S681.228-47.43,689-47.43s14.096-6.296,14.096-14.035
		S696.772-75.5,689-75.5L689-75.5z"/>
	<path class="st6" d="M684.383-59.902c-0.863,0-1.562-0.7-1.562-1.563c0-3.388,2.771-6.144,6.18-6.144
		c0.863,0,1.562,0.7,1.562,1.563s-0.699,1.562-1.562,1.562c-1.684,0-3.054,1.354-3.054,3.019
		C685.946-60.602,685.246-59.902,684.383-59.902z"/>
	<g>
		<path class="st4" d="M712.535-119.063v99.63h-47.07v-99.63H712.535 M715.535-122.063h-3h-47.07h-3v3v99.63v3h3h47.07h3v-3v-99.63
			V-122.063L715.535-122.063z"/>
	</g>
</g>
</svg>
