<?xml version="1.0" encoding="utf-8"?>
<!-- Generator: Adobe Illustrator 15.0.0, SVG Export Plug-In . SVG Version: 6.00 Build 0)  -->
<!DOCTYPE svg PUBLIC "-//W3C//DTD SVG 1.1//EN" "http://www.w3.org/Graphics/SVG/1.1/DTD/svg11.dtd">
<svg version="1.1" id="Layer_1" xmlns="http://www.w3.org/2000/svg" xmlns:xlink="http://www.w3.org/1999/xlink" x="0px" y="0px"
	 width="881px" height="768.5px" viewBox="0 0 881 768.5" style="enable-background:new 0 0 881 768.5;" xml:space="preserve">
<style type="text/css">
<![CDATA[
	.st0{fill:#E03F07;}
	.st1{clip-path:url(#SVGID_6_);fill:none;stroke:#F9773E;stroke-miterlimit:10;}
	.st2{clip-path:url(#SVGID_16_);fill:none;stroke:#F9773E;stroke-miterlimit:10;}
	.st3{fill:none;stroke:#6B989F;stroke-width:2;stroke-miterlimit:10;}
	.st4{fill:#53848C;}
	.st5{fill:none;stroke:#FFFFFF;stroke-width:6;stroke-miterlimit:10;}
	.st6{fill:none;stroke:#F9773E;stroke-miterlimit:10;}
	.st7{fill:none;stroke:#FFFFFF;stroke-width:3;stroke-linecap:square;stroke-miterlimit:10;}
	.st8{clip-path:url(#SVGID_14_);fill:none;stroke:#F9773E;stroke-miterlimit:10;}
	.st9{fill:#F9773E;}
	.st10{opacity:0.5;fill:#6B989F;enable-background:new    ;}
	.st11{opacity:0.75;fill:#FFB81A;enable-background:new    ;}
	.st12{fill:#FF7931;}
	.st13{fill:#FFB81A;}
	.st14{fill:#FFFFFF;}
	.st15{clip-path:url(#SVGID_12_);fill:none;stroke:#F9773E;stroke-miterlimit:10;}
	.st16{fill:none;}
	.st17{clip-path:url(#SVGID_2_);fill:#F9773E;}
	.st18{fill:none;stroke:#335E6E;stroke-width:2;stroke-miterlimit:10;}
	.st19{fill:#335E6E;}
	.st20{fill:#345D6E;}
	.st21{fill:none;stroke:#FFB81A;stroke-width:2;stroke-linecap:round;stroke-miterlimit:10;}
	.st22{fill:#6B989F;}
	.st23{fill:none;stroke:#FFFFFF;stroke-width:1.4167;stroke-miterlimit:10;}
	.st24{clip-path:url(#SVGID_4_);fill:none;stroke:#F9773E;stroke-width:2;stroke-miterlimit:10;}
	.st25{fill:none;stroke:#F9773E;stroke-width:2;stroke-miterlimit:10;}
	.st26{clip-path:url(#SVGID_10_);fill:none;stroke:#F9773E;stroke-miterlimit:10;}
	.st27{fill:none;stroke:#FFB81A;stroke-width:2.9184;stroke-miterlimit:10;}
	.st28{clip-path:url(#SVGID_8_);fill:none;stroke:#F9773E;stroke-miterlimit:10;}
	.st29{fill:#71A8A8;}
	.st30{fill:#FFFFFF;stroke:#231F20;stroke-miterlimit:10;}
	.st31{fill:none;stroke:#FFFFFF;stroke-width:3;stroke-miterlimit:10;}
	.st32{clip-path:url(#SVGID_20_);fill:none;stroke:#F9773E;stroke-miterlimit:10;}
	.st33{clip-path:url(#SVGID_18_);fill:none;stroke:#F9773E;stroke-miterlimit:10;}
	.st34{fill:none;stroke:#FFFFFF;stroke-width:1.4167;stroke-linecap:round;stroke-miterlimit:10;}
	.st35{fill:none;stroke:#FFFFFF;stroke-width:1.4167;stroke-miterlimit:1;}
]]>
</style>
<symbol  id="New_Symbol" viewBox="-10.3 -10.3 20.6 20.6">
	<polygon class="st30" points="9.8,-9.8 -9.8,-9.8 -9.8,9.8 9.8,9.8 	"/>
</symbol>
<g id="first">
	
		<use xlink:href="#New_Symbol"  width="20.6" height="20.6" x="-10.3" y="-10.3" transform="matrix(0.7046 0 0 -0.7046 96.3501 322.0088)" style="overflow:visible;"/>
</g>
<g id="ep4-badge">
	<g id="_x3E_white_3_">
		<path id="XMLID_93_" class="st31" d="M252.899,324.6h3.2c3.5,0,3.2-4.197,3.2-4.197h-11.101v7.1l7.2,2"/>
		<polyline id="XMLID_92_" class="st31" points="253.499,324.6 262.899,324.6 262.899,315.9 248.1,315.9 248.1,321.801 		"/>
		<line id="XMLID_91_" class="st31" x1="259.199" y1="324.6" x2="259.199" y2="315.9"/>
		<line id="XMLID_90_" class="st31" x1="260.899" y1="329.4" x2="260.899" y2="324.801"/>
		<line id="XMLID_89_" class="st31" x1="255.499" y1="320" x2="255.499" y2="315.9"/>
		<line id="XMLID_88_" class="st31" x1="251.8" y1="320" x2="251.8" y2="315.9"/>
	</g>
	<g id="XMLID_94_">
		<path class="st13" d="M255.499,308.801l12,6.299v13.701l-12,6.299l-12-6.299V315.1L255.499,308.801 M255.499,306.4L241.3,313.8
			v16.4l14.199,7.397l14.2-7.397v-16.399L255.499,306.4L255.499,306.4z"/>
	</g>
</g>
<g id="ep3-badge">
	<g id="_x3E_white_2_">
		<polyline id="XMLID_74_" class="st7" points="204.699,316.801 214.399,311.7 224.1,316.801 224.1,321.7 214.399,326.801 		"/>
		<polyline id="XMLID_73_" class="st7" points="224.1,321.4 224.1,326.301 214.399,331.4 		"/>
		<line id="XMLID_72_" class="st31" x1="224.1" y1="326.7" x2="224.1" y2="331.1"/>
		<line id="XMLID_71_" class="st7" x1="223.6" y1="317.301" x2="214.399" y2="322.1"/>
	</g>
	<g>
		<g id="XMLID_69_">
			<g>
				<path class="st13" d="M202.399,317.301l9.9,5.199V334l-9.9-5.199V317.301 M200.299,313.801V330.2l14.2,7.397l0,0V321.2
					L200.299,313.801L200.299,313.801L200.299,313.801z"/>
			</g>
		</g>
		<path id="XMLID_68_" class="st13" d="M222.1,320.7c-0.1,0.397-0.4,0.7-0.8,0.7c-0.4,0-0.6-0.303-0.5-0.7
			c0.1-0.399,0.4-0.7,0.8-0.7S222.1,320.301,222.1,320.7z"/>
		<path id="XMLID_67_" class="st13" d="M222.1,325.301C222,325.7,221.7,326,221.3,326c-0.4,0-0.6-0.3-0.5-0.699
			c0.1-0.398,0.4-0.701,0.8-0.701S222.1,324.9,222.1,325.301z"/>
		<path id="XMLID_66_" class="st13" d="M222.1,330c-0.1,0.4-0.4,0.7-0.8,0.7c-0.4,0-0.6-0.3-0.5-0.7c0.1-0.4,0.4-0.699,0.8-0.699
			S222.1,329.6,222.1,330z"/>
		<g id="XMLID_59_">
			<path class="st13" d="M214.399,308.801l12,6.299v13.701l-12,6.299l-12-6.299V315.1L214.399,308.801 M214.399,306.4l-14.2,7.398
				v16.4l14.2,7.397l14.2-7.397V313.8L214.399,306.4L214.399,306.4z"/>
		</g>
	</g>
</g>
<g id="ep2-badge">
	<g id="_x3E_white_1_">
		<line id="XMLID_333_" class="st31" x1="181.799" y1="317.301" x2="174.799" y2="321.4"/>
		<line id="XMLID_332_" class="st31" x1="173.399" y1="331.6" x2="173.399" y2="323.5"/>
		<line id="XMLID_330_" class="st31" x1="171.899" y1="321.4" x2="164.899" y2="317.301"/>
		<polyline id="XMLID_329_" class="st31" points="179.899,328.7 173.399,332.1 166.799,328.7 		"/>
		<polyline id="XMLID_328_" class="st31" points="175.899,313.4 182.399,316.801 182.399,324.301 		"/>
		<polyline id="XMLID_327_" class="st31" points="164.199,324.301 164.199,316.801 170.699,313.4 		"/>
	</g>
	<g id="XMLID_335_">
		<path class="st13" d="M173.399,308.801l12,6.299v13.701l-12,6.299l-12-6.299V315.1L173.399,308.801 M173.399,306.4l-14.2,7.398
			v16.4l14.2,7.397l14.2-7.397V313.8L173.399,306.4L173.399,306.4z"/>
	</g>
</g>
<g id="ep1-badge">
	<g id="_x3E_white">
		<polyline id="XMLID_108_" class="st31" points="125.199,318 129.199,321.9 125.199,326 		"/>
		<polyline id="XMLID_107_" class="st31" points="139.399,326 135.299,321.9 139.399,318 		"/>
		<polyline id="XMLID_105_" class="st31" points="136.299,314.9 132.299,318.9 128.299,314.9 		"/>
		<polyline id="XMLID_104_" class="st31" points="128.299,329 132.299,325.1 136.299,329 		"/>
		<line id="XMLID_102_" class="st31" x1="132.299" y1="317.7" x2="132.299" y2="308.5"/>
		<line id="XMLID_101_" class="st31" x1="132.299" y1="335.4" x2="132.299" y2="326.2"/>
		<line id="XMLID_100_" class="st31" x1="136.5" y1="321.9" x2="145.799" y2="321.9"/>
		<line id="XMLID_98_" class="st31" x1="119.6" y1="321.9" x2="128.799" y2="321.9"/>
	</g>
	<g id="XMLID_60_">
		<path class="st13" d="M132.299,308.801l12,6.299v13.701l-12,6.299l-12-6.299V315.1L132.299,308.801 M132.299,306.4l-14.2,7.398
			v16.4l14.2,7.397l14.2-7.397V313.8L132.299,306.4L132.299,306.4z"/>
	</g>
</g>
<g id="rank-badge-cyber-cadet">
	<polygon class="st14" points="447.399,303.2 448.199,304.9 449.899,305.2 448.699,306.4 448.999,308.2 447.399,307.4 
		445.899,308.2 446.199,306.4 444.999,305.2 446.699,304.9 	"/>
	<polygon class="st14" points="423.399,303.2 424.1,304.9 425.8,305.2 424.6,306.4 424.899,308.2 423.399,307.4 421.899,308.2 
		422.199,306.4 420.899,305.2 422.699,304.9 	"/>
	<polygon class="st13" points="432.399,332.5 430.1,331.301 429.899,331.4 429.899,331.2 424.8,328.5 424.8,316.2 432.999,311.9 
		433.499,309.301 422.699,314.9 422.699,329.801 431.899,334.6 	"/>
	<polygon class="st13" points="437.399,309.301 437.8,311.9 445.999,316.2 445.999,328.5 438.999,332.2 438.199,335.1 
		448.1,329.801 448.1,314.9 	"/>
	<g>
		<polygon class="st14" points="436.1,332.5 433.3,334.5 435.399,325.2 431.899,328 433.999,315.301 437.499,315.301 436.1,320.9 
			438.899,318.801 436.499,328.801 439.1,326.801 434.6,342.301 		"/>
		<rect x="430.399" y="314.6" class="st14" width="9.898" height="1.4"/>
		<polygon class="st14" points="435.399,306.1 433.999,314.6 436.8,314.6 		"/>
		<g id="XMLID_45_">
			<g id="XMLID_157_">
				<g id="XMLID_185_">
					<g id="XMLID_229_">
						<polygon class="st14" points="435.399,304.7 433.999,305.5 433.999,307.4 435.399,308.2 436.8,307.4 436.8,305.5 						"/>
					</g>
				</g>
			</g>
		</g>
	</g>
</g>
<g id="rank-badge-technical-cadet">
	<polygon class="st13" points="401.499,310.301 401.8,312.5 408.499,312.5 408.499,328.2 401.8,332.801 401.499,335.7 
		410.6,329.301 410.6,310.301 	"/>
	<polygon class="st13" points="396.8,332.9 390.199,328.5 390.199,312.5 396.8,312.5 397.199,310.301 387.999,310.301 388.1,329.6 
		397.199,335.7 	"/>
	<g>
		<g>
			<g>
				<polygon class="st14" points="399.3,315.301 396.499,318.1 399.3,342.2 402.1,318.1 				"/>
			</g>
		</g>
		<rect x="394.3" y="314.6" class="st14" width="9.899" height="1.4"/>
		<polygon class="st14" points="399.3,306.1 397.899,314.6 400.699,314.6 		"/>
		<g id="XMLID_166_">
			<g id="XMLID_168_">
				<g id="XMLID_169_">
					<g id="XMLID_170_">
						<polygon class="st14" points="399.3,304.7 397.899,305.5 397.899,307.4 399.3,308.2 400.699,307.4 400.699,305.5 						"/>
					</g>
				</g>
			</g>
		</g>
	</g>
	<polygon class="st14" points="411.3,303.2 412.1,304.9 413.8,305.2 412.6,306.4 412.899,308.2 411.3,307.4 409.8,308.2 
		410.1,306.4 408.8,305.2 410.6,304.9 	"/>
	<polygon class="st14" points="387.3,303.2 387.999,304.9 389.699,305.2 388.499,306.4 388.8,308.2 387.3,307.4 385.8,308.2 
		386.1,306.4 384.8,305.2 386.499,304.9 	"/>
</g>
<g id="rank-badge-cadet-first-class">
	<g>
		<path class="st13" d="M372.399,312.5v15.7l-9.2,6.397l-9.1-6.197l-0.101-16h18.4 M374.499,310.301h-22.6l0.1,19.299L363.3,337.2
			l11.3-7.899v-19H374.499L374.499,310.301z"/>
	</g>
	<line class="st27" x1="352.499" y1="320.2" x2="373.899" y2="320.2"/>
	<polygon class="st14" points="375.199,303.2 375.999,304.9 377.699,305.2 376.499,306.4 376.8,308.2 375.199,307.4 373.699,308.2 
		373.999,306.4 372.699,305.2 374.499,304.9 	"/>
	<polygon class="st14" points="351.1,303.2 351.899,304.9 353.6,305.2 352.399,306.4 352.699,308.2 351.1,307.4 349.699,308.2 
		349.899,306.4 348.699,305.2 350.399,304.9 	"/>
</g>
<g id="rank-badge-cadet">
	<g>
		<path class="st13" d="M337.999,312.5v15.7L328.8,334.6l-9.101-6.197l-0.1-16h18.399 M340.199,310.301h-22.7L317.6,329.6
			l11.3,7.603l11.3-7.899L340.199,310.301L340.199,310.301z"/>
	</g>
	<line class="st27" x1="318.199" y1="320.2" x2="339.6" y2="320.2"/>
</g>
<g id="rank-badge-recruit">
	<g>
		<path class="st13" d="M304.1,312.5v15.7l-9.2,6.397l-9.1-6.197l-0.101-16h18.4 M306.199,310.301h-22.7L283.6,329.6l11.3,7.603
			l11.3-7.899L306.199,310.301L306.199,310.301z"/>
	</g>
</g>
<g id="chapter-progress-chapter">
	<g id="XMLID_150_">
		<path class="st22" d="M94.6,356.6l3.5,1.9v4.1l-3.5,1.9l-3.5-1.9v-4.1L94.6,356.6 M94.6,354.2l-5.7,3v6.7l5.7,3l5.7-3v-6.7
			L94.6,354.2L94.6,354.2z"/>
	</g>
</g>
<g id="chapter-progress-slide">
	<rect x="103.799" y="357.301" class="st22" width="6.4" height="6.399"/>
</g>
<g id="chapter-progress-test">
	<polygon class="st10" points="137.5,367 133.399,369.2 125.399,365.1 125.399,356.1 128,354.7 126.6,353.4 123.6,355 123.6,366.1 
		133.399,371.1 139.199,368.1 	"/>
	<polygon class="st10" points="133.399,349.9 128.799,352.2 130.6,353.4 133.399,352 141.299,356.1 141.299,365.1 140,365.7 
		141.399,367 143.1,366.1 143.1,355 	"/>
	<g>
		<polygon class="st9" points="126.299,351.7 135.399,357.4 132.6,357.301 140.199,363.9 136.899,363.9 141.799,368.7 132,362.4 
			135.699,362.4 127.6,356.1 130.5,356 		"/>
	</g>
</g>
<g id="chapter-progress-duties">
	<circle class="st22" cx="116.899" cy="360.5" r="3.2"/>
</g>
<g id="list-progress-base">
	<g id="hex-outer_1_">
		<g id="XMLID_1080_">
			<path class="st9" d="M204,347.801l11.3,5.899V366.6l-11.3,5.9l-11.3-5.9V353.7L204,347.801 M204,344.6l-14.2,7.4v16.4L204,375.8
				l14.2-7.398V352L204,344.6L204,344.6z"/>
		</g>
	</g>
	<g id="hex-inner_1_">
		<g id="XMLID_2384_">
			<polygon class="st13" points="204,370.5 194.899,365.6 194.899,354.7 204,349.801 213,354.7 213,365.5 			"/>
		</g>
	</g>
</g>
<g id="list-progress-complete">
	<g id="hex-inner">
		<g>
			<polygon class="st29" points="174.699,354.4 178.6,356.801 174.1,356.801 173.399,356.801 180.1,362.5 180.1,354.7 171,349.801 
				169,350.801 			"/>
		</g>
		<g>
			<polygon class="st29" points="168.399,364.1 164.799,361.7 169,361.7 170.699,361.6 162,354.9 162,365.6 171,370.5 
				175.1,368.301 			"/>
		</g>
	</g>
	<g id="hex-outer">
		<polygon class="st4" points="176.899,369.4 171,372.6 159.699,366.6 159.699,353.7 163.299,351.801 161.299,349.7 156.899,352 
			156.899,368.301 171,375.7 179.699,371.2 		"/>
		<polygon class="st4" points="171,344.6 164.399,348 167.299,349.801 171,347.801 182.399,353.7 182.399,366.6 180.6,367.5 
			182.799,369.6 185.199,368.301 185.199,352 		"/>
	</g>
	<g id="lightning_1_">
		<g id="lightning">
			<polygon class="st13" points="160.6,347.1 174.1,355.5 170,355.5 181.199,365.1 176.299,365.1 183.399,372.1 169.1,362.9 
				174.5,362.9 162.5,353.7 166.899,353.5 			"/>
		</g>
	</g>
</g>
<g id="ctanlee">
	<circle class="st14" cx="266.899" cy="377.2" r="6.399"/>
	<path class="st5" d="M271.399,393.6c7.2-2,12.5-8.5,12.5-16.397"/>
	<path class="st5" d="M249.899,377.2c0,7.8,5.3,14.397,12.5,16.397"/>
	<path class="st5" d="M278.699,365c-3.1-2.9-7.2-4.8-11.8-4.8c-4.7,0-8.9,1.897-12,4.897"/>
</g>
<g id="action-btn-fist">
	<polygon class="st14" points="444.399,438.2 412.699,421.6 412.699,385.1 444.399,368.5 476.1,385.1 476.1,421.6 	"/>
	<polygon class="st9" points="444.399,435.801 414.899,420.301 414.899,386.301 444.399,370.9 473.899,386.301 473.899,420.301 	"/>
	<path class="st20" d="M450.999,364c0,0,7.4,2,10.101,3.4c-3.398,6.5-11.5,2.398-11.5,2.398s-2.3,2.799-3,3.602
		c11.102,5.197,26.2,0.697,26.2,0.697l-0.898,5.9l-5.602,13.5l-9.7,5L438.9,433.8L418.199,423l25.8-32.4l-2.699-19.1L450.999,364z"
		/>
	<path class="st23" d="M450.999,364c0,0,7.4,2,10.101,3.4c-3.398,6.5-11.5,2.398-11.5,2.398s-2.3,2.799-3,3.602
		c11.102,5.197,26.2,0.697,26.2,0.697l-0.898,5.9l-5.602,13.5l-9.7,5L438.9,433.8L418.199,423l25.8-32.4l-2.699-19.1L450.999,364z"
		/>
	<path class="st20" d="M456.699,356.801l-2.102-1.101c-1.8-0.899-3.898-0.2-4.8,1.5l-7,13.397l8.5,4.4l7-13.4
		C459.199,359.801,458.499,357.7,456.699,356.801"/>
	<path class="st23" d="M456.699,356.801l-2.102-1.101c-1.8-0.899-3.898-0.2-4.8,1.5l-7,13.397l8.5,4.4l7-13.4
		C459.199,359.801,458.499,357.7,456.699,356.801z"/>
	<path class="st20" d="M463.199,358.2l2.601,1.7c1.3,0.8,1.699,2.5,0.8,3.8l-7.3,11.2c-3-0.9-4.398-2.102-6.301-4.303L459.3,359.2
		C460.199,357.9,461.899,357.4,463.199,358.2"/>
	<path class="st23" d="M463.199,358.2l2.601,1.7c1.3,0.8,1.699,2.5,0.8,3.8l-7.3,11.2c-3-0.9-4.398-2.102-6.301-4.303L459.3,359.2
		C460.199,357.9,461.899,357.4,463.199,358.2z"/>
	<path class="st20" d="M471.199,366.301L469.3,365c-1.301-0.9-3-0.5-3.801,0.7l-6.1,9.2c1.3,2,3.1,3.6,6,4l6.398-8.9
		C472.699,368.801,472.399,367.1,471.199,366.301"/>
	<path class="st23" d="M471.199,366.301L469.3,365c-1.301-0.9-3-0.5-3.801,0.7l-6.1,9.2c1.3,2,3.1,3.6,6,4l6.398-8.9
		C472.699,368.801,472.399,367.1,471.199,366.301z"/>
	<path class="st20" d="M475.8,375.5l-5.301,6.9c-2.3-0.7-3.899-1.9-5.1-3.4l5.3-7.3c0.898-1.3,2.8-1.5,4-0.5l0.7,0.601
		C476.499,372.7,476.699,374.301,475.8,375.5"/>
	<path class="st23" d="M475.8,375.5l-5.301,6.9c-2.3-0.7-3.899-1.9-5.1-3.4l5.3-7.3c0.898-1.3,2.8-1.5,4-0.5l0.7,0.601
		C476.499,372.7,476.699,374.301,475.8,375.5z"/>
	<path class="st20" d="M466.699,385.4c0.898-0.602,3.8-3,3.8-3c-2.1-0.4-3.8-1.602-5.1-3.4l-2.802,2.7c-1.101,1-0.898,2.7,0.302,3.5
		l0.6,0.397C464.499,386.2,465.899,386,466.699,385.4"/>
	<path class="st35" d="M466.699,385.4c0.898-0.602,3.8-3,3.8-3c-2.1-0.4-3.8-1.602-5.1-3.4l-2.802,2.7c-1.101,1-0.898,2.7,0.302,3.5
		l0.6,0.397C464.499,386.2,465.899,386,466.699,385.4z"/>
	<path class="st20" d="M458.899,382.301l-1.2-0.898c-0.8-0.602-1-1.7-0.5-2.602l2.2-3.898c1.398,2.5,3.398,3.8,6,4l-3.4,3.197
		C461.199,383,459.899,383,458.899,382.301"/>
	<path class="st35" d="M458.899,382.301l-1.2-0.898c-0.8-0.602-1-1.7-0.5-2.602l2.2-3.898c1.398,2.5,3.398,3.8,6,4l-3.4,3.197
		C461.199,383,459.899,383,458.899,382.301z"/>
	<path class="st20" d="M450.3,376.1l6,4.303l3.102-5.5c-3-0.7-4.5-1.803-6.302-4.303L450.3,376.1z"/>
	<path class="st23" d="M450.3,376.1l6,4.303l3.102-5.5c-3-0.7-4.5-1.803-6.302-4.303L450.3,376.1z"/>
	<path class="st20" d="M418.699,422.801l20.898-33.398l-2.198-19l10.8-10.2c0,0,10.101,5.3,12.8,6.7
		c-3.399,6.5-10.101,2.3-10.101,2.3s-1.301,2.897-1.899,3.7c9,4.697,10.801,9,3.5,16.398"/>
	<path class="st34" d="M418.699,422.801l20.898-33.398l-2.198-19l10.8-10.2c0,0,10.101,5.3,12.8,6.7
		c-3.399,6.5-10.101,2.3-10.101,2.3s-1.301,2.897-1.899,3.7c9,4.697,10.801,9,3.5,16.398"/>
	<path class="st14" d="M434.699,425c0.898-8.3,2.8-16.5,5.601-24.6c0.199,1.8,0.399,3.6,0.699,5.3c1.9-5.8,4.4-11.399,7.301-16.899
		c-0.301,2.102-0.398,4.102-0.601,6.102c2.3-3.5,4.7-6.803,7.398-10c1.302-1.602,1.7-1.2,0.602,0.5c-3.8,6.1-6.899,12.5-9.3,19
		c-0.102-1.803-0.2-3.602-0.2-5.4c-2.2,5.2-4,10.5-5.3,15.9c-0.4-1.9-0.802-3.803-1.2-5.803
		C437.6,414.301,435.899,419.6,434.699,425"/>
</g>
<g id="mini-preview-test">
	<rect x="526.399" y="325.6" class="st14" width="47.1" height="99.603"/>
	<path class="st19" d="M567.199,331.9V419h-34.602v-87.1H567.199 M573.399,325.6h-47.102V425.2h47.102V325.6L573.399,325.6z"/>
	<rect x="530.8" y="400.9" class="st22" width="38.199" height="17.5"/>
	<path class="st19" d="M567.199,403.5v12.4h-34.5v-12.4H567.199 M570.3,400.4h-40.801V419.1H570.3V400.4L570.3,400.4z"/>
	<ellipse class="st0" cx="549.899" cy="383.2" rx="7.8" ry="7.8"/>
	<path class="st19" d="M549.899,375.5c4.3,0,7.8,3.5,7.8,7.801c0,4.299-3.5,7.799-7.8,7.799c-4.302,0-7.802-3.5-7.802-7.799
		C542.1,378.9,545.6,375.5,549.899,375.5 M549.899,369.2c-7.802,0-14.102,6.3-14.102,14s6.3,14,14.102,14c7.8,0,14.1-6.3,14.1-14
		S557.699,369.2,549.899,369.2L549.899,369.2z"/>
	<path class="st11" d="M545.3,384.801c-0.898,0-1.601-0.701-1.601-1.601c0-3.399,2.8-6.103,6.2-6.103c0.898,0,1.6,0.701,1.6,1.603
		c0,0.898-0.699,1.601-1.6,1.601c-1.7,0-3.102,1.399-3.102,3C546.8,384.1,546.1,384.801,545.3,384.801z"/>
	<g>
		<path class="st9" d="M573.399,325.6V425.2h-47.102V325.6H573.399 M576.399,322.6h-3h-47.102h-3v3V425.2v3h3h47.102h3v-3V325.6
			V322.6L576.399,322.6z"/>
	</g>
</g>
<g id="mini-generation">
	<rect x="655.999" y="299.1" class="st16" width="179" height="132.8"/>
	<rect x="693.6" y="348.2" class="st22" width="87.7" height="11.5"/>
	<path class="st9" d="M779.899,358.1h-84.7V349.7h84.7V358.1z M782.899,346.7h-3h-84.7h-3v3v8.5v3h3h84.7h3v-3v-8.5V346.7z"/>
	<rect x="687.999" y="354.9" class="st22" width="99" height="66.5"/>
	<path class="st9" d="M785.499,419.9h-96v-63.5h96V419.9z M788.499,353.4h-3h-96h-3v3v63.5v3h3h96h3v-3v-63.5V353.4z"/>
	<polygon class="st9" points="679.1,422.9 700.899,422.9 698.499,301 681.399,301 	"/>
	<rect x="696.1" y="350.7" class="st22" width="82.7" height="6.5"/>
	<path class="st19" d="M777.899,356.1h-80.7V351.7h80.7V356.1z M779.899,349.7h-84.7v8.5h84.7V349.7z"/>
	<rect x="690.499" y="357.4" class="st22" width="94" height="61.5"/>
	<path class="st19" d="M783.499,417.9h-92v-59.5h92V417.9z M785.499,356.4h-96v63.5h96V356.4z"/>
	<rect x="780.6" y="359.2" class="st14" width="7.102" height="1.397"/>
	<rect x="780.6" y="359.2" class="st19" width="7.102" height="1.397"/>
	<rect x="776.6" y="389.2" class="st14" width="7.102" height="1.3"/>
	<rect x="776.6" y="389.2" class="st18" width="7.102" height="1.3"/>
	<path class="st14" d="M688.1,359.9h5.7H688.1z"/>
	<rect x="687.399" y="359.2" class="st19" width="7.1" height="1.397"/>
	<rect x="691.399" y="389.2" class="st14" width="7.1" height="1.3"/>
	<rect x="691.399" y="389.2" class="st18" width="7.1" height="1.3"/>
	<rect x="689.6" y="357.9" class="st14" width="95.802" height="1.197"/>
	<rect x="688.1" y="356.4" class="st19" width="98.802" height="4.197"/>
	<rect x="735.3" y="366.301" class="st13" width="5.5" height="10.5"/>
	<path class="st19" d="M739.899,375.801h-3.5v-8.5h3.5V375.801z M741.899,365.301h-2h-3.5h-2v2v8.5v2h2h3.5h2v-2v-8.5V365.301z"/>
	<rect x="716.399" y="366.301" class="st13" width="5.5" height="10.5"/>
	<path class="st19" d="M720.999,375.801h-3.5v-8.5h3.5V375.801z M722.999,365.301h-2h-3.5h-2v2v8.5v2h2h3.5h2v-2v-8.5V365.301z"/>
	<rect x="725.899" y="366.301" class="st13" width="5.5" height="10.5"/>
	<path class="st19" d="M730.399,375.801h-3.5v-8.5h3.5V375.801z M732.399,365.301h-2h-3.5h-2v2v8.5v2h2h3.5h2v-2v-8.5V365.301z"/>
	<rect x="763.699" y="366.301" class="st13" width="5.5" height="10.5"/>
	<path class="st19" d="M768.199,375.801h-3.5v-8.5h3.5V375.801z M770.199,365.301h-2h-3.5h-2v2v8.5v2h2h3.5h2v-2v-8.5V365.301z"/>
	<rect x="773.1" y="366.301" class="st13" width="5.5" height="10.5"/>
	<path class="st19" d="M777.6,375.801h-3.5v-8.5h3.5V375.801z M779.6,365.301h-2h-3.5h-2v2v8.5v2h2h3.5h2v-2v-8.5V365.301z"/>
	<rect x="744.8" y="366.301" class="st13" width="5.5" height="10.5"/>
	<path class="st19" d="M749.3,375.801h-3.5v-8.5h3.5V375.801z M751.3,365.301h-2h-3.5h-2v2v8.5v2h2h3.5h2v-2v-8.5V365.301z"/>
	<rect x="754.199" y="366.301" class="st13" width="5.5" height="10.5"/>
	<path class="st19" d="M758.8,375.801h-3.5v-8.5h3.5V375.801z M760.8,365.301h-2h-3.5h-2v2v8.5v2h2h3.5h2v-2v-8.5V365.301z"/>
	<rect x="697.6" y="366.301" class="st13" width="5.5" height="10.5"/>
	<path class="st19" d="M702.1,375.801h-3.5v-8.5h3.5V375.801z M704.1,365.301h-2h-3.5h-2v2v8.5v2h2h3.5h2v-2v-8.5V365.301z"/>
	<rect x="706.999" y="366.301" class="st13" width="5.5" height="10.5"/>
	<path class="st19" d="M711.499,375.801h-3.5v-8.5h3.5V375.801z M713.499,365.301h-2h-3.5h-2v2v8.5v2h2h3.5h2v-2v-8.5V365.301z"/>
	<rect x="763.699" y="403" class="st13" width="5.5" height="10.5"/>
	<path class="st19" d="M768.199,412.5h-3.5V404h3.5V412.5z M770.199,402h-2h-3.5h-2v2v8.5v2h2h3.5h2v-2V404V402z"/>
	<rect x="773.1" y="403" class="st13" width="5.5" height="10.5"/>
	<path class="st19" d="M777.6,412.5h-3.5V404h3.5V412.5z M779.6,402h-2h-3.5h-2v2v8.5v2h2h3.5h2v-2V404V402z"/>
	<rect x="697.6" y="403" class="st13" width="5.5" height="10.5"/>
	<path class="st19" d="M702.1,412.5h-3.5V404h3.5V412.5z M704.1,402h-2h-3.5h-2v2v8.5v2h2h3.5h2v-2V404V402z"/>
	<rect x="706.999" y="403" class="st13" width="5.5" height="10.5"/>
	<path class="st19" d="M711.499,412.5h-3.5V404h3.5V412.5z M713.499,402h-2h-3.5h-2v2v8.5v2h2h3.5h2v-2V404V402z"/>
	<rect x="677.6" y="306.2" class="st9" width="24.7" height="4"/>
	<path class="st9" d="M701.3,309.1h-22.601V307.2H701.3V309.1z M703.399,305.1h-2.102h-22.601h-2.102v2.1v1.897v2.103h2.102H701.3
		h2.102V309.1V307.2L703.399,305.1L703.399,305.1z"/>
	<g>
		<g>
			<g>
				<g>
					<defs>
						<path id="SVGID_1_" d="M790.6,392.301v19.102H805.7c0.101-2.2,1.898-3.9,4.101-3.9c2.199,0,4,1.7,4.102,3.9h14.8v-19.102
							H790.6z"/>
					</defs>
					<clipPath id="SVGID_2_">
						<use xlink:href="#SVGID_1_"  style="overflow:visible;"/>
					</clipPath>
					<path class="st17" d="M826.8,419.9h-34.2V394.3h34.2V419.9z M828.8,392.301h-38.2v29.602h38.2V392.301z"/>
				</g>
			</g>
		</g>
		<g>
			<g>
				<g>
					<defs>
						<path id="SVGID_3_" d="M790.6,392.301v19.102H805.7c0.101-2.2,1.898-3.9,4.101-3.9c2.199,0,4,1.7,4.102,3.9h14.8v-19.102
							H790.6z"/>
					</defs>
					<clipPath id="SVGID_4_">
						<use xlink:href="#SVGID_3_"  style="overflow:visible;"/>
					</clipPath>
					<circle class="st24" cx="809.8" cy="411.6" r="17.6"/>
				</g>
			</g>
		</g>
		<g>
			<g>
				<g>
					<defs>
						<path id="SVGID_5_" d="M790.6,392.301v19.102H805.7c0.101-2.2,1.898-3.9,4.101-3.9c2.199,0,4,1.7,4.102,3.9h14.8v-19.102
							H790.6z"/>
					</defs>
					<clipPath id="SVGID_6_">
						<use xlink:href="#SVGID_5_"  style="overflow:visible;"/>
					</clipPath>
					<polyline class="st1" points="809.8,411.6 799.199,407.2 800.699,402.5 809.8,411.6 					"/>
				</g>
			</g>
		</g>
		<g>
			<g>
				<g>
					<defs>
						<path id="SVGID_7_" d="M790.6,392.301v19.102H805.7c0.101-2.2,1.898-3.9,4.101-3.9c2.199,0,4,1.7,4.102,3.9h14.8v-19.102
							H790.6z"/>
					</defs>
					<clipPath id="SVGID_8_">
						<use xlink:href="#SVGID_7_"  style="overflow:visible;"/>
					</clipPath>
					<polyline class="st28" points="809.8,411.6 798.3,411.6 797.899,406.7 809.8,411.6 					"/>
				</g>
			</g>
		</g>
		<g>
			<g>
				<g>
					<defs>
						<path id="SVGID_9_" d="M790.6,392.301v19.102H805.7c0.101-2.2,1.898-3.9,4.101-3.9c2.199,0,4,1.7,4.102,3.9h14.8v-19.102
							H790.6z"/>
					</defs>
					<clipPath id="SVGID_10_">
						<use xlink:href="#SVGID_9_"  style="overflow:visible;"/>
					</clipPath>
					<polyline class="st26" points="809.8,411.6 820.499,407.2 822.699,411.6 809.8,411.6 					"/>
				</g>
			</g>
		</g>
		<g>
			<g>
				<g>
					<defs>
						<path id="SVGID_11_" d="M790.6,392.301v19.102H805.7c0.101-2.2,1.898-3.9,4.101-3.9c2.199,0,4,1.7,4.102,3.9h14.8v-19.102
							H790.6z"/>
					</defs>
					<clipPath id="SVGID_12_">
						<use xlink:href="#SVGID_11_"  style="overflow:visible;"/>
					</clipPath>
					<polyline class="st15" points="809.8,411.6 817.999,403.5 821.699,406.7 809.8,411.6 					"/>
				</g>
			</g>
		</g>
		<g>
			<g>
				<g>
					<defs>
						<path id="SVGID_13_" d="M790.6,392.301v19.102H805.7c0.101-2.2,1.898-3.9,4.101-3.9c2.199,0,4,1.7,4.102,3.9h14.8v-19.102
							H790.6z"/>
					</defs>
					<clipPath id="SVGID_14_">
						<use xlink:href="#SVGID_13_"  style="overflow:visible;"/>
					</clipPath>
					<polyline class="st8" points="809.8,411.6 814.3,401 818.999,402.5 809.8,411.6 					"/>
				</g>
			</g>
		</g>
		<g>
			<g>
				<g>
					<defs>
						<path id="SVGID_15_" d="M790.6,392.301v19.102H805.7c0.101-2.2,1.898-3.9,4.101-3.9c2.199,0,4,1.7,4.102,3.9h14.8v-19.102
							H790.6z"/>
					</defs>
					<clipPath id="SVGID_16_">
						<use xlink:href="#SVGID_15_"  style="overflow:visible;"/>
					</clipPath>
					<polyline class="st2" points="809.8,411.6 809.8,400.1 814.8,399.801 809.8,411.6 					"/>
				</g>
			</g>
		</g>
		<g>
			<g>
				<g>
					<defs>
						<path id="SVGID_17_" d="M790.6,392.301v19.102H805.7c0.101-2.2,1.898-3.9,4.101-3.9c2.199,0,4,1.7,4.102,3.9h14.8v-19.102
							H790.6z"/>
					</defs>
					<clipPath id="SVGID_18_">
						<use xlink:href="#SVGID_17_"  style="overflow:visible;"/>
					</clipPath>
					<polyline class="st33" points="809.8,411.6 805.399,401 809.8,398.801 809.8,411.6 					"/>
				</g>
			</g>
		</g>
		<g>
			<g>
				<g>
					<defs>
						<path id="SVGID_19_" d="M790.6,392.301v19.102H805.7c0.101-2.2,1.898-3.9,4.101-3.9c2.199,0,4,1.7,4.102,3.9h14.8v-19.102
							H790.6z"/>
					</defs>
					<clipPath id="SVGID_20_">
						<use xlink:href="#SVGID_19_"  style="overflow:visible;"/>
					</clipPath>
					<polyline class="st32" points="809.8,411.6 801.699,403.5 804.899,399.801 809.8,411.6 					"/>
				</g>
			</g>
		</g>
	</g>
	<path class="st9" d="M829.199,420.9H790.3V413.1h38.899V420.9z M831.199,411.1H788.3V422.9h42.899V411.1z"/>
	<path class="st25" d="M805.699,418.801h8.3V411.6c0-2.299-1.899-4.1-4.199-4.1c-2.301,0-4.101,1.9-4.101,4.1V418.801z"/>
	<path class="st9" d="M813.999,420.5H805.3v-1.3h8.699V420.5L813.999,420.5z M815.999,417.2H803.3v5.3h12.699V417.2L815.999,417.2z"
		/>
	<line class="st25" x1="813.899" y1="415.2" x2="805.499" y2="415.2"/>
</g>
<g id="mini-substation">
	<rect x="648.6" y="445.7" class="st16" width="179" height="132.8"/>
	<rect x="688.499" y="496.1" class="st22" width="102.601" height="71.9"/>
	<path class="st9" d="M789.6,566.5h-99.601v-68.9H789.6V566.5z M792.6,494.6h-3h-99.601h-3v3v68.9v3h3H789.6h3v-3v-68.9V494.6z"/>
	<rect x="684.699" y="495.1" class="st22" width="110.2" height="8.603"/>
	<path class="st9" d="M793.399,502.2h-107.2V496.6h107.2V502.2z M796.399,493.6h-3h-107.2h-3v3v5.603v3h3h107.2h3v-3V496.6V493.6z"
		/>
	<polyline class="st6" points="671.499,526.301 700.3,568.801 702.199,568.801 695.1,526.301 671.499,526.301 664.399,568.801 
		666.399,568.801 695.1,526.301 	"/>
	<polygon class="st6" points="671.499,526.301 695.1,526.301 692.8,511 673.8,511 	"/>
	<line class="st6" x1="671.499" y1="526.301" x2="692.8" y2="511"/>
	<line class="st6" x1="673.8" y1="511" x2="695.1" y2="526.301"/>
	<polygon class="st6" points="675.3,497.2 691.3,497.2 692.8,511 673.8,511 	"/>
	<line class="st6" x1="692.8" y1="511" x2="675.3" y2="497.2"/>
	<line class="st6" x1="691.3" y1="497.2" x2="673.8" y2="511"/>
	<polygon class="st6" points="675.3,497.2 691.3,497.2 690.3,484.5 676.3,484.5 	"/>
	<line class="st6" x1="675.3" y1="497.2" x2="690.3" y2="484.5"/>
	<line class="st6" x1="676.3" y1="484.5" x2="691.3" y2="497.2"/>
	<polygon class="st6" points="652.1,484.5 714.499,484.5 690.3,472.2 676.8,472.2 	"/>
	<polygon class="st6" points="676.8,472.2 690.3,472.2 690.3,484.5 676.3,484.5 	"/>
	<polyline class="st6" points="690.3,472.2 676.3,484.5 690.3,484.5 676.8,472.2 	"/>
	<polyline class="st6" points="695.6,474.801 690.3,484.5 676.3,484.5 671.499,474.801 	"/>
	<line class="st6" x1="671.499" y1="484.301" x2="663.899" y2="478.7"/>
	<line class="st6" x1="695.6" y1="484.301" x2="702.699" y2="478.7"/>
	<line class="st6" x1="702.699" y1="478.7" x2="702.699" y2="484.5"/>
	<line class="st6" x1="671.499" y1="474.801" x2="671.499" y2="484.301"/>
	<line class="st6" x1="695.6" y1="484.301" x2="695.6" y2="474.801"/>
	<polygon class="st6" points="676.8,472.2 690.3,472.2 688.8,464.1 677.8,464.1 	"/>
	<polyline class="st6" points="677.8,464.1 690.3,472.2 676.8,472.2 688.8,464.1 	"/>
	<polygon class="st6" points="679.3,454.2 687.3,454.2 688.8,464.1 677.8,464.1 	"/>
	<polygon class="st6" points="679.3,454.301 687.3,454.301 703.3,464.1 663.399,464.1 	"/>
	<polyline class="st6" points="687.3,454.301 677.8,464.1 688.8,464.1 679.3,454.301 	"/>
	<polyline class="st6" points="693.1,458.5 688.8,464.1 677.8,464.1 673.499,458.5 	"/>
	<line class="st6" x1="673.499" y1="458.5" x2="673.499" y2="463.9"/>
	<line class="st6" x1="693.1" y1="463.9" x2="693.1" y2="458.5"/>
	<line class="st6" x1="704.399" y1="468.1" x2="704.399" y2="464.6"/>
	<line class="st6" x1="715.999" y1="488.4" x2="715.999" y2="484.9"/>
	<line class="st6" x1="662.199" y1="468.1" x2="662.199" y2="464.6"/>
	<rect x="690.999" y="498.6" class="st22" width="97.601" height="66.9"/>
	<path class="st19" d="M787.6,564.5h-95.601v-64.9H787.6V564.5z M789.6,497.6h-99.601v68.9H789.6V497.6z"/>
	<rect x="687.199" y="497.6" class="st22" width="105.2" height="3.603"/>
	<path class="st19" d="M791.399,500.2h-103.2V498.6h103.2V500.2z M793.399,496.6h-107.2v5.603h107.2V496.6z"/>
	<rect x="685.399" y="500.7" class="st19" width="108.8" height="1.5"/>
	<line class="st18" x1="787.899" y1="558.5" x2="691.699" y2="558.5"/>
	<rect x="719.8" y="508.4" class="st13" width="5.8" height="11.197"/>
	<path class="st19" d="M724.6,518.6h-3.8V509.4h3.8V518.6z M726.6,507.4h-2h-3.8h-2v2v9.197v2h2h3.8h2v-2V509.4V507.4z"/>
	<rect x="729.899" y="508.4" class="st13" width="5.8" height="11.197"/>
	<path class="st19" d="M734.699,518.6h-3.8V509.4h3.8V518.6z M736.699,507.4h-2h-3.8h-2v2v9.197v2h2h3.8h2v-2V509.4V507.4z"/>
	<rect x="699.6" y="508.4" class="st13" width="5.802" height="11.197"/>
	<path class="st19" d="M704.399,518.6h-3.802V509.4h3.802V518.6z M706.399,507.4h-2h-3.802h-2v2v9.197v2h2h3.802h2v-2V509.4V507.4z"
		/>
	<rect x="709.699" y="508.4" class="st13" width="5.8" height="11.197"/>
	<path class="st19" d="M714.499,518.6h-3.8V509.4h3.8V518.6z M716.499,507.4h-2h-3.8h-2v2v9.197v2h2h3.8h2v-2V509.4V507.4z"/>
	<rect x="719.8" y="523" class="st13" width="5.8" height="11.2"/>
	<path class="st19" d="M724.6,533.2h-3.8V524h3.8V533.2z M726.6,522h-2h-3.8h-2v2v9.2v2h2h3.8h2v-2V524V522z"/>
	<rect x="699.6" y="523" class="st13" width="5.802" height="11.2"/>
	<path class="st19" d="M704.399,533.2h-3.802V524h3.802V533.2z M706.399,522h-2h-3.802h-2v2v9.2v2h2h3.802h2v-2V524V522z"/>
	<rect x="709.699" y="523" class="st13" width="5.8" height="11.2"/>
	<path class="st19" d="M714.499,533.2h-3.8V524h3.8V533.2z M716.499,522h-2h-3.8h-2v2v9.2v2h2h3.8h2v-2V524V522z"/>
	<rect x="805.999" y="548.801" class="st9" width="7" height="8.199"/>
	<rect x="802.499" y="557.4" class="st9" width="14.801" height="1.6"/>
	<path class="st9" d="M816.3,559.9v8.6l0,0l-10.898-8.6H816.3z M817.3,558.9h-14.801l13.5,10.6h1.4v-10.6H817.3z"/>
	<path class="st9" d="M814.399,559.9l-10.9,8.6l0,0v-8.6H814.399z M817.3,558.9h-14.801v10.6h1.4L817.3,558.9z"/>
	<path class="st9" d="M819.3,552.9c0,1.398-1.301,2.5-2,2.5c-0.7,0-1.2-1.102-1.2-2.5c0-1.4,0.5-2.5,1.2-2.5
		C817.999,550.4,819.3,551.5,819.3,552.9"/>
	<path class="st9" d="M800.699,552.9c0,1.398,1.3,2.5,2,2.5s1.2-1.102,1.2-2.5c0-1.4-0.5-2.5-1.2-2.5S800.699,551.5,800.699,552.9"
		/>
	<rect x="802.499" y="548.2" class="st9" width="5.101" height="9.397"/>
	
		<rect x="802.509" y="541.907" transform="matrix(-0.9848 0.1739 -0.1739 -0.9848 1690.2236 937.1276)" class="st9" width="3.1" height="1.4"/>
	<polygon class="st9" points="800.199,516.301 798.6,516.6 801.8,542.301 805.999,541.5 	"/>
	
		<rect x="803.053" y="547.264" transform="matrix(-0.9849 0.1732 -0.1732 -0.9849 1692.7905 948.4818)" class="st9" width="3.901" height="1.702"/>
	<path class="st9" d="M806.1,547.2l-2.5,0.397c-1.198,0.201-2.398-0.6-2.601-1.799v-0.2C800.8,544.4,801.6,543.2,802.8,543l2.5-0.4
		c1.199-0.197,2.399,0.603,2.602,1.803v0.197C808.199,545.9,807.399,547,806.1,547.2"/>
	
		<rect x="797.997" y="515.888" transform="matrix(-0.985 0.1728 -0.1728 -0.985 1675.8977 886.6472)" class="st9" width="2.701" height="0.798"/>
	
		<rect x="797.237" y="515.803" transform="matrix(0.9848 -0.1735 0.1735 0.9848 -77.5361 146.2307)" class="st9" width="0.799" height="1.6"/>
	
		<rect x="814.361" y="541.857" transform="matrix(-0.9848 -0.1735 0.1735 -0.9848 1525.2913 1218.4707)" class="st9" width="3.101" height="1.4"/>
	<polygon class="st9" points="821.3,516.6 819.8,516.301 813.899,541.5 818.199,542.301 	"/>
	
		<rect x="812.971" y="547.325" transform="matrix(-0.9848 -0.1735 0.1735 -0.9848 1522.3557 1229.4441)" class="st9" width="3.9" height="1.7"/>
	<path class="st9" d="M816.399,547.7l-2.5-0.399c-1.2-0.201-2-1.398-1.802-2.601v-0.2c0.2-1.199,1.399-2,2.602-1.8l2.5,0.397
		c1.2,0.201,2,1.4,1.8,2.603v0.2C818.699,547.1,817.6,547.9,816.399,547.7"/>
	
		<rect x="819.29" y="515.892" transform="matrix(0.9848 0.1737 -0.1737 0.9848 102.1293 -134.6687)" class="st9" width="2.699" height="0.799"/>
	
		<rect x="821.904" y="515.785" transform="matrix(-0.9849 -0.1733 0.1733 -0.9849 1542.6434 1167.8564)" class="st9" width="0.8" height="1.599"/>
	<rect x="812.3" y="548.2" class="st9" width="5.102" height="9.397"/>
	<path class="st6" d="M797.399,515.801c0.5-3.101-1.5-4.101-6.2-3.101"/>
	<path class="st6" d="M822.399,515.801c-0.102-10.801-23-5.898-31.602-3.701"/>
</g>
<g id="mini-control-center">
	<rect x="662.999" y="606.4" class="st16" width="179" height="132.8"/>
	<rect x="689.899" y="658.6" class="st22" width="100" height="70.201"/>
	<path class="st9" d="M788.399,727.2h-97V660h97V727.2z M791.399,657.1h-3h-97h-3v3v67.201v3h3h97h3v-3V660.1V657.1z"/>
	<rect x="686.1" y="657.6" class="st22" width="107.5" height="8.5"/>
	<path class="st9" d="M792.1,664.5H687.6V659h104.5V664.5z M795.1,656.1h-3H687.6h-3v3v5.5v3h3h104.5h3v-3v-5.5V656.1z"/>
	
		<rect x="776.376" y="648.499" transform="matrix(-0.6032 -0.7976 0.7976 -0.6032 730.8793 1661.9838)" class="st9" width="4.9" height="1.401"/>
	
		<rect x="776.376" y="648.499" transform="matrix(-0.6032 -0.7976 0.7976 -0.6032 730.8793 1661.9838)" class="st6" width="4.9" height="1.401"/>
	
		<rect x="772.532" y="653.277" transform="matrix(0.9542 -0.2993 0.2993 0.9542 -160.2493 262.2748)" class="st9" width="7.1" height="2"/>
	
		<rect x="772.532" y="653.277" transform="matrix(0.9542 -0.2993 0.2993 0.9542 -160.2493 262.2748)" class="st6" width="7.1" height="2"/>
	<path class="st9" d="M779.3,647c-0.398,1.301-1.801,2.1-3.101,1.7c-1.3-0.4-2.102-1.8-1.7-3.103c0.4-1.299,1.801-2.1,3.101-1.697
		C778.999,644.301,779.699,645.7,779.3,647"/>
	<circle class="st6" cx="776.899" cy="646.301" r="2.5"/>
	<path class="st9" d="M782.399,651c1,1,1,2.6,0,3.6s-2.602,1-3.602,0s-1-2.6,0-3.6C779.899,650,781.499,650,782.399,651"/>
	<circle class="st6" cx="780.699" cy="652.7" r="2.5"/>
	<path class="st9" d="M774.1,655.801c0,1.899-1.601,3.5-3.5,3.5c-1.898,0-3.5-1.601-3.5-3.5c0-1.898,1.602-3.5,3.5-3.5
		C772.499,652.301,774.1,653.9,774.1,655.801"/>
	<circle class="st6" cx="770.6" cy="655.801" r="3.5"/>
	<rect x="692.399" y="661.1" class="st22" width="95" height="65.201"/>
	<path class="st19" d="M786.399,725.2h-93V662h93V725.2z M788.399,660.1h-97v67.201h97V660.1z"/>
	<rect x="688.6" y="660.1" class="st22" width="102.5" height="3.5"/>
	<path class="st19" d="M790.1,662.5H689.6V661h100.5V662.5z M792.1,659.1H687.6v5.5h104.5V659.1z"/>
	<line class="st16" x1="787.199" y1="720.1" x2="692.499" y2="720.1"/>
	<line class="st18" x1="787.199" y1="720.1" x2="692.499" y2="720.1"/>
	<path class="st9" d="M767.8,623.2c-2.5,2.5,1.3,13.2,10.3,22.101C786.999,654.2,797.8,658,800.2,655.6"/>
	<path class="st6" d="M767.8,623.2c-2.5,2.5,1.3,13.2,10.3,22.101C786.999,654.2,797.8,658,800.2,655.6"/>
	
		<ellipse transform="matrix(-0.7072 0.707 -0.707 -0.7072 1790.4379 537.3022)" class="st6" cx="783.97" cy="639.362" rx="1.8" ry="22.9"/>
	<polyline class="st6" points="777.399,635.4 792.899,630.5 787.899,645.9 	"/>
	<polyline class="st6" points="767.8,623.2 792.899,630.5 800.199,655.6 	"/>
	
		<rect x="791.656" y="629.331" transform="matrix(-0.7071 -0.7071 0.7071 -0.7071 908.121 1636.8181)" class="st9" width="2.801" height="2"/>
	
		<rect x="791.656" y="629.331" transform="matrix(-0.7071 -0.7071 0.7071 -0.7071 908.121 1636.8181)" class="st6" width="2.801" height="2"/>
	<rect x="739.1" y="670.6" class="st13" width="5.7" height="11"/>
	<path class="st19" d="M743.899,680.6h-3.7v-9h3.7V680.6z M745.899,669.6h-2h-3.7h-2v2v9v2h2h3.7h2v-2v-9V669.6z"/>
	<rect x="719.399" y="670.6" class="st13" width="5.698" height="11"/>
	<path class="st19" d="M724.199,680.6h-3.7v-9h3.7V680.6z M726.199,669.6h-2h-3.7h-2v2v9v2h2h3.7h2v-2v-9V669.6z"/>
	<rect x="729.3" y="670.6" class="st13" width="5.699" height="11"/>
	<path class="st19" d="M733.999,680.6H730.3v-9h3.699V680.6L733.999,680.6z M735.999,669.6h-2H730.3h-2v2v9v2h2h3.699h2v-2v-9V669.6
		L735.999,669.6z"/>
	<rect x="699.8" y="670.6" class="st13" width="5.699" height="11"/>
	<path class="st19" d="M704.499,680.6H700.8v-9h3.699V680.6L704.499,680.6z M706.499,669.6h-2H700.8h-2v2v9v2h2h3.699h2v-2v-9V669.6
		L706.499,669.6z"/>
	<rect x="709.6" y="670.6" class="st13" width="5.7" height="11"/>
	<path class="st19" d="M714.3,680.6h-3.7v-9h3.7V680.6z M716.3,669.6h-2h-3.7h-2v2v9v2h2h3.7h2v-2v-9V669.6z"/>
	<rect x="739.1" y="684.801" class="st13" width="5.7" height="11"/>
	<path class="st19" d="M743.899,694.7h-3.7v-9h3.7V694.7z M745.899,683.801h-2h-3.7h-2v2v9v2h2h3.7h2v-2v-9V683.801z"/>
	<rect x="719.399" y="684.801" class="st13" width="5.698" height="11"/>
	<path class="st19" d="M724.199,694.7h-3.7v-9h3.7V694.7z M726.199,683.801h-2h-3.7h-2v2v9v2h2h3.7h2v-2v-9V683.801z"/>
	<rect x="729.3" y="684.801" class="st13" width="5.699" height="11"/>
	<path class="st19" d="M733.999,694.7H730.3v-9h3.699V694.7L733.999,694.7z M735.999,683.801h-2H730.3h-2v2v9v2h2h3.699h2v-2v-9
		V683.801L735.999,683.801z"/>
	<rect x="699.8" y="684.801" class="st13" width="5.699" height="11"/>
	<path class="st19" d="M704.499,694.7H700.8v-9h3.699V694.7L704.499,694.7z M706.499,683.801h-2H700.8h-2v2v9v2h2h3.699h2v-2v-9
		V683.801L706.499,683.801z"/>
	<rect x="709.6" y="684.801" class="st13" width="5.7" height="11"/>
	<path class="st19" d="M714.3,694.7h-3.7v-9h3.7V694.7z M716.3,683.801h-2h-3.7h-2v2v9v2h2h3.7h2v-2v-9V683.801z"/>
	<path class="st9" d="M802.999,716.7L802.3,717c-2.5,1.2-5.601,0.1-6.801-2.5c-1.199-2.5-0.1-5.6,2.5-6.8l0.7-0.3L802.999,716.7z"/>
	
		<rect x="801.243" y="707.373" transform="matrix(-0.9075 0.4201 -0.4201 -0.9075 1832.7799 1017.4897)" class="st9" width="6.2" height="6.399"/>
	<polygon class="st9" points="808.199,713.2 828.899,707.9 822.399,693.9 804.999,706.301 	"/>
	
		<rect x="835.535" y="691.995" transform="matrix(-0.9072 0.4207 -0.4207 -0.9072 1891.3837 972.1204)" class="st9" width="5.899" height="5.302"/>
	<polygon class="st9" points="842.199,695.9 843.6,694.7 841.8,690.801 839.999,691 	"/>
	
		<rect x="825.343" y="689.929" transform="matrix(-0.9074 0.4203 -0.4203 -0.9074 1872.97 986.9167)" class="st9" width="4.8" height="19.8"/>
	
		<rect x="834.888" y="692.747" transform="matrix(-0.9075 0.4201 -0.4201 -0.9075 1886.6992 976.4059)" class="st9" width="1.899" height="6.401"/>
	<polygon class="st9" points="834.3,705.801 836.1,700.6 832.399,692.7 827.3,690.7 	"/>
	
		<rect x="815.916" y="714.022" transform="matrix(-0.5463 -0.8376 0.8376 -0.5463 667.4662 1791.3146)" class="st9" width="6" height="1.7"/>
	
		<rect x="811.265" y="719.458" transform="matrix(0.9541 -0.2994 0.2994 0.9541 -178.3782 277.303)" class="st9" width="8.799" height="2.5"/>
	<path class="st9" d="M819.8,712.1c-0.601,1.603-2.398,2.4-4,1.803c-1.601-0.602-2.398-2.4-1.801-4c0.601-1.602,2.4-2.4,4-1.803
		C819.6,708.7,820.399,710.5,819.8,712.1"/>
	<path class="st9" d="M823.6,716.7c1.2,1.2,1.2,3.2,0,4.397c-1.198,1.201-3.198,1.201-4.398,0c-1.2-1.197-1.2-3.197,0-4.397
		C820.399,715.4,822.399,715.4,823.6,716.7"/>
	<path class="st9" d="M813.3,722.6c0,2.4-1.898,4.303-4.301,4.303c-2.399,0-4.3-1.9-4.3-4.303c0-2.397,1.898-4.299,4.3-4.299
		S813.3,720.301,813.3,722.6"/>
	<rect x="790.6" y="724.2" class="st9" width="39" height="6"/>
</g>
<g id="btn-lightning">
	<path class="st13" d="M490.899,293.1l59,12l60-12l-3-2.459l-56.995,11.398l-56.005-11.391L490.899,293.1z M493.899,260.55
		l55.979-11.386l57.021,12.354l3-2.42l-60-13l0,0l-59,12L493.899,260.55z"/>
	<path class="st13" d="M519.395,292.702c9.365-3.825,19.271-6.614,29.529-8.252c-1.824,1.227-3.6,2.491-5.326,3.787
		c7.283-1.253,14.734-1.91,22.277-1.934c-2.351,0.923-4.648,1.907-6.893,2.948c7.484,0.609,14.921,1.855,22.223,3.731
		c-11.213-1.329-22.346-1.171-33.122,0.346c1.834-1.153,3.716-2.266,5.646-3.336c-6.844,0.652-13.565,1.838-20.107,3.528
		c1.769-1.565,3.602-3.093,5.498-4.582C532.463,289.693,525.869,290.95,519.395,292.702z"/>
</g>
<g id="quiz-header">
	<line class="st3" x1="41.027" y1="178.768" x2="318.027" y2="178.768"/>
	<line class="st3" x1="398.027" y1="178.768" x2="675.027" y2="178.768"/>
	<polygon class="st10" points="371.864,196.989 360.027,203.134 337.527,191.454 337.527,166.081 344.838,162.286 341.191,158.545 
		332.527,163.043 332.527,194.492 360.027,208.768 376.74,200.093 	"/>
	<polygon class="st10" points="360.027,148.768 347.33,155.359 352.271,158.428 360.027,154.401 382.527,166.081 382.527,191.454 
		378.883,193.346 382.662,197.018 387.527,194.492 387.527,163.043 	"/>
	<polygon class="st9" points="340.027,153.768 365.855,169.805 357.939,169.801 379.457,188.19 370.127,188.324 383.838,201.646 
		356.3,184.122 366.649,183.934 343.65,166.229 351.92,165.972 	"/>
</g>
<g id="quiz-answer-bg">
	<polygon id="_x3E_bg" class="st19" points="83.899,717.611 83.899,439.389 182.398,415.045 280.493,439.388 280.897,717.612 
		182.399,741.955 	"/>
	<path id="_x3E_outline" class="st22" d="M182.398,416.591l96.597,23.97l0.401,275.88l-96.997,23.972l-97-23.975V440.562
		L182.398,416.591 M182.399,413.5l-100,24.714v280.572l100,24.714l100-24.714l-0.408-280.572L182.399,413.5L182.399,413.5z"/>
	<path id="_x3E_lightning_1_" class="st22" d="M146.593,694.552c10.85-4.432,22.324-7.663,34.212-9.561
		c-2.113,1.421-4.171,2.885-6.169,4.388c8.438-1.453,17.07-2.214,25.812-2.241c-2.725,1.069-5.387,2.21-7.985,3.417
		c8.673,0.705,17.286,2.148,25.747,4.322c-12.992-1.538-25.893-1.354-38.377,0.4c2.126-1.335,4.306-2.624,6.541-3.864
		c-7.928,0.755-15.719,2.129-23.3,4.087c2.05-1.812,4.175-3.584,6.371-5.308C161.733,691.066,154.095,692.521,146.593,694.552z"/>
	<path id="_x3E_lightning" class="st22" d="M146.593,463.561c10.85-4.431,22.324-7.66,34.212-9.561
		c-2.113,1.422-4.171,2.885-6.169,4.388c8.438-1.452,17.07-2.214,25.812-2.239c-2.725,1.068-5.387,2.211-7.985,3.417
		c8.673,0.704,17.286,2.147,25.747,4.32c-12.992-1.538-25.893-1.354-38.377,0.4c2.126-1.335,4.306-2.624,6.541-3.864
		c-7.928,0.756-15.719,2.13-23.3,4.087c2.05-1.812,4.175-3.584,6.371-5.308C161.733,460.076,154.095,461.531,146.593,463.561z"/>
	<line id="_x3E_line" class="st21" x1="110.899" y1="505" x2="253.899" y2="505"/>
	<line id="_x3E_line_1_" class="st21" x1="110.899" y1="642" x2="253.899" y2="642"/>
</g>
<g id="next-question">
	<polygon class="st12" points="481.765,518.7 336.765,518.7 336.765,481.255 481.765,481.255 488.771,500.727 	"/>
</g>
<g id="btn-got-it">
	<path class="st9" d="M768.721,198.69c10.946-4.513,22.523-7.805,34.516-9.737c-2.133,1.447-4.207,2.938-6.225,4.469
		c8.513-1.479,17.223-2.255,26.039-2.282c-2.749,1.089-5.435,2.251-8.056,3.479c8.749,0.719,17.438,2.188,25.974,4.402
		c-13.106-1.566-26.119-1.381-38.715,0.408c2.145-1.36,4.343-2.673,6.599-3.937c-7.997,0.77-15.857,2.169-23.506,4.163
		c2.068-1.847,4.211-3.65,6.428-5.406C783.995,195.141,776.289,196.624,768.721,198.69z"/>
	<path class="st13" d="M791.484,171.347c-0.32,2.88-0.62,4.041-1.32,5.201c-0.96,1.621-2.26,2.441-3.841,2.441
		c-2.42,0-3.94-2.021-3.94-5.221c0-2.081,0.521-4.321,1.34-5.781c1.021-1.82,2.521-2.781,4.281-2.781c1.9,0,3.16,1.14,3.501,3.181
		l-2.661,1c-0.02-0.68-0.06-0.86-0.16-1.161c-0.14-0.44-0.5-0.68-0.979-0.68c-0.641,0-1.16,0.44-1.581,1.32
		c-0.6,1.28-0.979,3.241-0.979,5.062c0,1.78,0.521,2.68,1.54,2.68c1.021,0,1.642-0.92,1.921-2.9h-1.641l0.28-2.36L791.484,171.347
		L791.484,171.347z"/>
	<path class="st13" d="M794.362,175.228c0-1.201,0.319-2.541,0.84-3.541c0.681-1.32,1.801-2.041,3.142-2.041
		c1.801,0,2.82,1.22,2.82,3.421c0,3.581-1.561,5.881-3.961,5.881C795.343,178.948,794.362,177.648,794.362,175.228z
		 M798.644,173.267c0-0.92-0.199-1.38-0.579-1.38c-0.66,0-1.222,1.58-1.222,3.4c0,0.9,0.222,1.42,0.62,1.42
		C798.123,176.708,798.644,175.147,798.644,173.267z"/>
	<path class="st13" d="M804.962,171.887h-0.84l0.26-2.061h0.841l0.301-2.46h2.461l-0.302,2.46h1.001l-0.239,2.061h-1l-0.86,6.881
		h-2.461L804.962,171.887z"/>
	<path class="st13" d="M817.222,169.826h2.461l-1.101,8.942h-2.461L817.222,169.826z M817.262,167.366c0-0.96,0.84-1.78,1.78-1.78
		c0.76,0,1.36,0.6,1.36,1.38c0,0.96-0.82,1.801-1.78,1.801C817.842,168.766,817.262,168.166,817.262,167.366z"/>
	<path class="st13" d="M823.262,171.887h-0.84l0.26-2.061h0.842l0.3-2.46h2.461l-0.301,2.46h1.001l-0.24,2.061h-1l-0.86,6.881
		h-2.461L823.262,171.887z"/>
	<path class="st13" d="M831.162,175.627c0.82,0,1.46,0.64,1.46,1.46c0,1.02-0.88,1.9-1.9,1.9c-0.84,0-1.46-0.64-1.46-1.48
		C829.262,176.508,830.142,175.627,831.162,175.627z M831.122,165.425h2.561l-1.141,9.342h-2.58L831.122,165.425z"/>
</g>
<g id="btn-continue">
	<path class="st14" d="M814.669,15.152l47.439,10.122v22.417l-47.415,9.339l-46.585-9.331V24.478L814.669,15.152 M814.688,12.088
		l-49.579,9.931v28.139l49.579,9.931l50.421-9.931V22.847L814.688,12.088L814.688,12.088z"/>
	<path class="st14" d="M783.991,35.216c-1.135,0.378-1.513,0.462-2.171,0.462c-1.373,0-2.787-0.616-3.74-1.625
		c-0.799-0.854-1.232-1.975-1.232-3.222c0-2.759,2.187-4.944,4.944-4.944c0.729,0,1.317,0.126,2.199,0.477v2.899
		c-0.574-0.687-1.261-1.022-2.102-1.022c-1.457,0-2.508,1.078-2.508,2.577c0,0.798,0.267,1.429,0.826,1.891
		c0.477,0.393,1.063,0.616,1.682,0.616c0.798,0,1.472-0.308,2.102-0.98V35.216L783.991,35.216z"/>
	<path class="st14" d="M787.949,26.98c0.883-0.743,2.115-1.177,3.418-1.177c1.556,0,2.83,0.52,3.824,1.568
		c0.868,0.911,1.346,2.115,1.346,3.418c0,1.471-0.646,2.857-1.752,3.796c-0.938,0.785-2.087,1.177-3.459,1.177
		c-2.941,0-5.127-2.157-5.127-5.07C786.199,29.305,786.844,27.918,787.949,26.98z M791.367,33.409c1.457,0,2.634-1.176,2.634-2.633
		c0-1.443-1.177-2.619-2.634-2.619c-1.442,0-2.633,1.176-2.633,2.591C788.734,32.233,789.896,33.409,791.367,33.409z"/>
	<path class="st14" d="M799.149,26.083h2.423l4.469,5.715v-5.715h2.424v9.343h-2.424l-4.469-5.715v5.715h-2.423V26.083z"/>
	<path class="st14" d="M812.492,28.142h-1.976v-2.059h6.415v2.059h-2.017v7.284h-2.424L812.492,28.142L812.492,28.142z"/>
	<path class="st14" d="M819.001,26.083h2.424v9.343h-2.424V26.083z"/>
	<path class="st14" d="M824.56,26.083h2.425l4.468,5.715v-5.715h2.424v9.343h-2.424l-4.468-5.715v5.715h-2.425V26.083z"/>
	<path class="st14" d="M844.947,31.476c0,1.373-0.238,2.115-0.911,2.872c-0.771,0.868-1.862,1.316-3.222,1.316
		c-1.43,0-2.689-0.532-3.333-1.401c-0.49-0.658-0.674-1.414-0.674-2.787v-5.393h2.425v5.057c0,1.064,0.026,1.274,0.266,1.667
		c0.267,0.448,0.771,0.714,1.358,0.714c0.616,0,1.163-0.294,1.415-0.756c0.21-0.364,0.252-0.645,0.252-1.625v-5.057h2.424V31.476z"
		/>
	<path class="st14" d="M847.883,26.083h5.31v2.059h-2.886v1.555h2.731v2.06h-2.731v1.61h2.886v2.06h-5.31V26.083z"/>
	<path class="st14" d="M784.895,47.68c9.118-3.725,18.763-6.44,28.75-8.035c-1.775,1.194-3.505,2.425-5.185,3.688
		c7.09-1.221,14.346-1.86,21.689-1.883c-2.289,0.898-4.526,1.856-6.71,2.871c7.287,0.593,14.525,1.806,21.636,3.632
		c-10.918-1.293-21.757-1.14-32.248,0.337c1.785-1.122,3.617-2.205,5.496-3.248c-6.662,0.635-13.21,1.79-19.58,3.435
		c1.723-1.523,3.508-3.012,5.354-4.46C797.618,44.751,791.198,45.974,784.895,47.68z"/>
</g>
<g id="perfect-answer">
	<g id="XMLID_2433_">
		<polygon class="st19" points="805.999,264.036 791.274,256.392 791.274,239.552 805.999,231.907 820.726,239.552 820.726,256.392 
					"/>
	</g>
	<polygon class="st14" points="805.999,235.75 808.972,243.671 816.989,244.146 810.808,249.614 812.79,257.728 805.999,253.288 
		799.208,257.728 801.19,249.614 795.011,244.146 803.028,243.671 	"/>
</g>
<g id="quiz-btn">
	<g>
		<polygon class="st19" points="914.367,323.52 973.367,335.52 1033.367,323.52 1033.367,290.52 973.367,277.52 914.367,289.52 		
			"/>
	</g>
	<path class="st13" d="M937.912,320.314c10.852-4.432,22.326-7.663,34.213-9.562c-2.113,1.422-4.17,2.886-6.169,4.388
		c8.437-1.452,17.07-2.213,25.81-2.24c-2.723,1.069-5.387,2.21-7.984,3.416c8.672,0.706,17.285,2.149,25.746,4.323
		c-12.992-1.539-25.891-1.356-38.375,0.4c2.125-1.336,4.305-2.625,6.541-3.865c-7.93,0.756-15.72,2.13-23.301,4.088
		c2.051-1.813,4.174-3.584,6.371-5.309C953.053,316.829,945.414,318.285,937.912,320.314z"/>
</g>
</svg>
