<?xml version="1.0" encoding="utf-8"?>
<!-- Generator: Adobe Illustrator 15.0.0, SVG Export Plug-In . SVG Version: 6.00 Build 0)  -->
<!DOCTYPE svg PUBLIC "-//W3C//DTD SVG 1.1//EN" "http://www.w3.org/Graphics/SVG/1.1/DTD/svg11.dtd">
<svg version="1.1" id="Layer_1" xmlns="http://www.w3.org/2000/svg" xmlns:xlink="http://www.w3.org/1999/xlink" x="0px" y="0px"
	 width="2328.031px" height="768.5px" viewBox="0 0 2328.031 768.5" enable-background="new 0 0 2328.031 768.5"
	 xml:space="preserve">
<symbol  id="New_Symbol" viewBox="-10.3 -10.3 20.6 20.6">
	<polygon fill="#FFFFFF" stroke="#231F20" stroke-miterlimit="10" points="9.8,-9.8 -9.8,-9.8 -9.8,9.8 9.8,9.8 	"/>
</symbol>
<g id="first">
	
		<use xlink:href="#New_Symbol"  width="20.6" height="20.6" x="-10.3" y="-10.3" transform="matrix(0.7046 0 0 -0.7046 19.7051 317.3584)" overflow="visible"/>
</g>
<g id="ep5-badge">
	<path id="_x3E_white_1_" fill="#FFFFFF" d="M228.254,310.25h-16.799v6.9h0.098v6.462l7.933,2.203l0.535-1.935l-6.468-1.797v-5.339
		h9.001v0.257c-0.101,0.495-0.286,1.021-0.632,1.396c-0.347,0.362-0.828,0.55-1.468,0.55h-2.6h-0.6v2h0.6h2.6h3.8v3.801h2v-3.801h2
		V310.25L228.254,310.25z M218.854,312.25v2.503h-1.699v-2.503H218.854z M213.455,314.753v-2.503h1.7v2.503H213.455z
		 M220.854,314.753v-2.503h1.7v2.503H220.854z M226.254,318.949h-1.7v-1.704c0.141-0.795,0.106-1.438,0.097-1.563l-0.066-0.929
		h-0.031v-2.503h1.7V318.949z"/>
	<g id="_x3E_yellow_3_">
		<g>
			<path fill="#FFB81A" d="M219.854,304.15l12,6.299v13.701l-12,6.299l-12-6.299v-13.701L219.854,304.15 M219.854,301.75
				l-14.199,7.399v16.396l14.199,7.396l14.2-7.396V309.15L219.854,301.75L219.854,301.75z"/>
		</g>
	</g>
</g>
<g id="ep4-badge">
	<g id="_x3E_white_4_">
		<rect x="186.019" y="323.155" fill="#FFFFFF" width="8.213" height="2.123"/>
		<rect x="168.051" y="323.155" fill="#FFFFFF" width="7.354" height="2.123"/>
	</g>
	<g id="_x3E_yellow_4_">
		<path id="XMLID_403_" fill="#FFB81A" d="M180.788,304.146l12.029,6.296v13.75l-12.029,6.297l-12.029-6.297v-13.75L180.788,304.146
			 M180.788,301.75l-14.152,7.408v16.313l14.152,7.408l14.152-7.408v-16.313L180.788,301.75L180.788,301.75z"/>
		<path fill="#FFB81A" d="M180.78,312.31c-1.564,0-2.836-1.271-2.836-2.836c0-1.562,1.272-2.835,2.836-2.835
			c1.563,0,2.835,1.272,2.835,2.835C183.616,311.038,182.344,312.31,180.78,312.31z M180.78,308.438
			c-0.571,0-1.036,0.472-1.036,1.036c0,0.571,0.465,1.036,1.036,1.036c0.571,0,1.036-0.465,1.036-1.036
			C181.816,308.903,181.351,308.438,180.78,308.438z"/>
		<path fill="#FFB81A" d="M185.448,321.225l1.638-0.746l-2.858-6.271l0.25-1.139h-7.395l0.248,1.128l-2.863,6.275l1.638,0.746
			l1.869-4.101l0.56,2.548l-0.651,7.104v0.688h1.8l-0.004-0.604l0.584-6.348h1.033l0.58,6.266v0.688h1.8l-0.004-0.771l-0.646-7.021
			l0.558-2.536L185.448,321.225z M180.167,318.714l-0.846-3.846h2.918l-0.845,3.846H180.167z"/>
	</g>
</g>
<g id="ep3-badge">
	<polygon id="_x3E_white_2_" fill="#FFFFFF" points="137.754,305.92 127.379,311.376 128.31,313.146 137.754,308.18 
		145.528,312.267 136.405,317.025 137.33,318.798 146.455,314.039 146.455,315.75 146.455,316.446 136.403,321.73 137.334,323.501 
		146.455,318.706 146.455,319.648 146.455,321.046 136.403,326.33 137.334,328.101 146.455,323.306 146.455,327.449 
		148.455,327.449 148.455,322.254 148.455,319.648 148.455,317.654 148.455,315.75 148.455,311.546 	"/>
	<g id="_x3E_yellow_2_">
		<g id="XMLID_68_">
			<path fill="#FFB81A" d="M145.455,316.05c-0.1,0.396-0.4,0.7-0.8,0.7c-0.4,0-0.6-0.304-0.5-0.7c0.1-0.396,0.4-0.7,0.8-0.7
				S145.455,315.65,145.455,316.05z"/>
		</g>
		<g id="XMLID_67_">
			<path fill="#FFB81A" d="M145.455,320.65c-0.1,0.396-0.4,0.689-0.8,0.689c-0.4,0-0.6-0.3-0.5-0.689c0.1-0.397,0.4-0.701,0.8-0.701
				S145.455,320.25,145.455,320.65z"/>
		</g>
		<g id="XMLID_66_">
			<path fill="#FFB81A" d="M145.455,325.35c-0.1,0.4-0.4,0.7-0.8,0.7c-0.4,0-0.6-0.3-0.5-0.7c0.1-0.396,0.4-0.689,0.8-0.689
				S145.455,324.949,145.455,325.35z"/>
		</g>
		<path fill="#FFB81A" d="M151.954,309.149l-14.2-7.399l-14.2,7.397v16.396l14.2,7.396l0.048-0.025l0.052,0.027v-0.062l14.1-7.344
			V309.149L151.954,309.149z M135.654,329.347l-9.9-5.188v-11.5l9.9,5.189V329.347z M149.754,324.15l-11.9,6.246V316.55
			l-11.905-6.203l11.805-6.197l12,6.299V324.15z"/>
	</g>
</g>
<g id="ep2-badge">
	<g id="_x3E_white">
		<polygon fill="#FFFFFF" points="94.749,317.613 95.759,315.887 89.536,312.242 94.518,309.636 93.591,307.864 86.554,311.545 
			86.554,319.65 88.554,319.65 88.554,313.985 		"/>
		<polygon fill="#FFFFFF" points="97.754,325.798 97.754,318.85 95.754,318.85 95.754,325.81 90.612,323.161 89.696,324.939 
			96.757,328.576 103.717,324.936 102.791,323.164 		"/>
		<polygon fill="#FFFFFF" points="99.717,307.864 98.791,309.636 103.825,312.27 97.648,315.887 98.659,317.613 104.754,314.043 
			104.754,319.65 106.754,319.65 106.754,311.545 		"/>
	</g>
	<g id="_x3E_yellow_1_">
		<g>
			<path fill="#FFB81A" d="M96.754,304.15l12,6.299v13.701l-12,6.299l-12-6.299v-13.701L96.754,304.15 M96.754,301.75l-14.2,7.397
				v16.396l14.2,7.396l14.2-7.396v-16.396L96.754,301.75L96.754,301.75z"/>
		</g>
	</g>
</g>
<g id="ep1-badge">
	<g id="_x3E_white_3_">
		<polygon fill="#FFFFFF" points="49.252,312.634 47.856,314.065 50.096,316.25 42.955,316.25 42.955,318.25 50.181,318.25 
			47.838,320.651 49.27,322.048 53.969,317.232 		"/>
		<polygon fill="#FFFFFF" points="60.361,310.957 58.947,309.543 56.654,311.836 56.654,303.85 54.654,303.85 54.654,311.836 
			52.361,309.543 50.947,310.957 55.654,315.664 		"/>
		<polygon fill="#FFFFFF" points="50.956,323.634 52.352,325.065 54.654,322.821 54.654,330.75 56.654,330.75 56.654,322.821 
			58.956,325.065 60.352,323.634 55.654,319.053 		"/>
		<polygon fill="#FFFFFF" points="69.154,316.25 61.156,316.25 63.443,314.074 62.064,312.625 57.222,317.232 62.047,322.057 
			63.461,320.643 61.068,318.25 69.154,318.25 		"/>
	</g>
	<g id="_x3E_yellow">
		<g>
			<path fill="#FFB81A" d="M55.654,304.15l12,6.299v13.701l-12,6.299l-12-6.299v-13.701L55.654,304.15 M55.654,301.75l-14.2,7.397
				v16.396l14.2,7.396l14.2-7.396v-16.396L55.654,301.75L55.654,301.75z"/>
		</g>
	</g>
</g>
<g id="rank-badge-master-cadet">
	<polygon fill="#FFFFFF" points="447.904,298.55 448.704,300.25 450.404,300.55 449.204,301.75 449.503,303.55 447.904,302.75 
		446.404,303.55 446.704,301.75 445.503,300.55 447.204,300.25 	"/>
	<polygon fill="#FFFFFF" points="423.904,298.55 424.605,300.25 426.305,300.55 425.105,301.75 425.404,303.55 423.904,302.75 
		422.404,303.55 422.704,301.75 421.404,300.55 423.204,300.25 	"/>
	<polygon fill="#FFB81A" points="432.904,327.85 430.605,326.65 430.404,326.75 430.404,326.55 425.305,323.85 425.305,311.55 
		433.503,307.25 434.003,304.65 423.204,310.25 423.204,325.15 432.404,329.949 	"/>
	<rect x="421.404" y="298.55" fill="none" width="29" height="39.104"/>
	<polygon fill="#FFB81A" points="437.904,304.65 438.305,307.25 446.503,311.55 446.503,323.85 439.503,327.55 438.704,330.449 
		448.605,325.15 448.605,310.25 	"/>
	<g>
		<polygon fill="#FFFFFF" points="436.605,327.85 433.805,329.85 435.904,320.55 432.404,323.35 434.503,310.65 438.003,310.65 
			436.605,316.25 439.404,314.15 437.003,324.15 439.605,322.15 435.105,337.65 		"/>
		<rect x="430.904" y="309.949" fill="#FFFFFF" width="9.896" height="1.396"/>
		<polygon fill="#FFFFFF" points="435.904,301.449 434.503,309.949 437.305,309.949 		"/>
		<g id="XMLID_45_">
			<g id="XMLID_157_">
				<g id="XMLID_185_">
					<g id="XMLID_229_">
						<polygon fill="#FFFFFF" points="435.904,300.05 434.503,300.85 434.503,302.75 435.904,303.55 437.305,302.75 437.305,300.85 
													"/>
					</g>
				</g>
			</g>
		</g>
	</g>
</g>
<g id="rank-badge-cyber-cadet">
	<polygon fill="#FFB81A" points="402.004,305.65 402.305,307.85 409.004,307.85 409.004,323.55 402.305,328.15 402.004,331.05 
		411.105,324.65 411.105,305.65 	"/>
	<polygon fill="#FFB81A" points="397.305,328.25 390.704,323.85 390.704,307.85 397.305,307.85 397.704,305.65 388.504,305.65 
		388.605,324.949 397.704,331.05 	"/>
	
		<line fill="none" stroke="#FFB81A" stroke-width="2.9184" stroke-miterlimit="10" x1="389.193" y1="314.222" x2="394.516" y2="314.222"/>
	
		<line fill="none" stroke="#FFB81A" stroke-width="2.9184" stroke-miterlimit="10" x1="389.193" y1="320.352" x2="395.703" y2="320.352"/>
	
		<line fill="none" stroke="#FFB81A" stroke-width="2.9184" stroke-miterlimit="10" x1="405.095" y1="314.222" x2="410.417" y2="314.222"/>
	
		<line fill="none" stroke="#FFB81A" stroke-width="2.9184" stroke-miterlimit="10" x1="403.907" y1="320.352" x2="410.417" y2="320.352"/>
	<g>
		<g>
			<g>
				<rect x="385.254" y="298.55" fill="none" width="29" height="39.104"/>
				<polygon fill="#FFFFFF" points="399.805,310.65 397.004,313.449 399.805,337.55 402.605,313.449 				"/>
			</g>
		</g>
		<rect x="394.805" y="309.949" fill="#FFFFFF" width="9.897" height="1.396"/>
		<polygon fill="#FFFFFF" points="399.805,301.449 398.404,309.949 401.204,309.949 		"/>
		<g id="XMLID_166_">
			<g id="XMLID_168_">
				<g id="XMLID_169_">
					<g id="XMLID_170_">
						<polygon fill="#FFFFFF" points="399.805,300.05 398.404,300.85 398.404,302.75 399.805,303.55 401.204,302.75 401.204,300.85 
													"/>
					</g>
				</g>
			</g>
		</g>
	</g>
	<polygon fill="#FFFFFF" points="411.805,298.55 412.605,300.25 414.305,300.55 413.105,301.75 413.404,303.55 411.805,302.75 
		410.305,303.55 410.605,301.75 409.305,300.55 411.105,300.25 	"/>
	<polygon fill="#FFFFFF" points="387.805,298.55 388.504,300.25 390.204,300.55 389.004,301.75 389.305,303.55 387.805,302.75 
		386.305,303.55 386.605,301.75 385.305,300.55 387.004,300.25 	"/>
</g>
<g id="rank-badge-technical-cadet">
	<rect x="349.204" y="298.55" fill="none" width="29" height="39.104"/>
	<g>
		<path fill="#FFB81A" d="M372.904,307.85v15.7l-9.2,6.396l-9.1-6.196l-0.101-16h18.4 M375.004,305.65h-22.6l0.1,19.299
			l11.301,7.601l11.3-7.896v-19L375.004,305.65L375.004,305.65z"/>
	</g>
	
		<line fill="none" stroke="#FFB81A" stroke-width="2.9184" stroke-miterlimit="10" x1="353.004" y1="314.222" x2="374.404" y2="314.222"/>
	<polygon fill="#FFFFFF" points="375.704,298.55 376.504,300.25 378.204,300.55 377.004,301.75 377.305,303.55 375.704,302.75 
		374.204,303.55 374.504,301.75 373.204,300.55 375.004,300.25 	"/>
	<polygon fill="#FFFFFF" points="351.605,298.55 352.404,300.25 354.105,300.55 352.904,301.75 353.204,303.55 351.605,302.75 
		350.204,303.55 350.404,301.75 349.204,300.55 350.904,300.25 	"/>
	
		<line fill="none" stroke="#FFB81A" stroke-width="2.9184" stroke-miterlimit="10" x1="353.004" y1="320.352" x2="374.404" y2="320.352"/>
</g>
<g id="rank-badge-cadet-first-class">
	<rect x="313.054" y="298.55" fill="none" width="29" height="39.104"/>
	<g>
		<path fill="#FFB81A" d="M336.754,307.85v15.7l-9.2,6.396l-9.1-6.196l-0.101-16h18.4 M338.854,305.65h-22.6l0.1,19.299
			l11.301,7.601l11.3-7.896v-19L338.854,305.65L338.854,305.65z"/>
	</g>
	
		<line fill="none" stroke="#FFB81A" stroke-width="2.9184" stroke-miterlimit="10" x1="316.854" y1="315.55" x2="338.254" y2="315.55"/>
	<polygon fill="#FFFFFF" points="339.554,298.55 340.354,300.25 342.054,300.55 340.854,301.75 341.155,303.55 339.554,302.75 
		338.054,303.55 338.354,301.75 337.054,300.55 338.854,300.25 	"/>
	<polygon fill="#FFFFFF" points="315.455,298.55 316.254,300.25 317.955,300.55 316.754,301.75 317.054,303.55 315.455,302.75 
		314.054,303.55 314.254,301.75 313.054,300.55 314.754,300.25 	"/>
</g>
<g id="rank-badge-cadet">
	<rect x="278.705" y="298.55" fill="none" width="29" height="39.104"/>
	<g>
		<path fill="#FFB81A" d="M302.354,307.85v15.7l-9.199,6.399l-9.101-6.196l-0.1-16h18.399 M304.554,305.65h-22.7l0.101,19.299
			l11.3,7.604l11.3-7.896L304.554,305.65L304.554,305.65z"/>
	</g>
	
		<line fill="none" stroke="#FFB81A" stroke-width="2.9184" stroke-miterlimit="10" x1="282.554" y1="315.55" x2="303.955" y2="315.55"/>
</g>
<g id="rank-badge-recruit">
	<g>
		<path fill="#FFB81A" d="M268.455,307.85v15.7l-9.2,6.396l-9.1-6.196l-0.101-16h18.4 M270.554,305.65h-22.7l0.101,19.299
			l11.3,7.604l11.3-7.896L270.554,305.65L270.554,305.65z"/>
	</g>
	<rect x="244.705" y="298.55" fill="none" width="29" height="39.104"/>
</g>
<g id="list-progress-base">
	<g id="hex-outer_1_">
		<g id="XMLID_1080_">
			<path fill="#F9773E" d="M168.355,343.15l11.3,5.896v12.899l-11.3,5.896l-11.3-5.896V349.05L168.355,343.15 M168.355,339.949
				l-14.2,7.396v16.4l14.2,7.396l14.2-7.396v-16.4L168.355,339.949L168.355,339.949z"/>
		</g>
	</g>
	<g id="hex-inner_1_">
		<g id="XMLID_2384_">
			<polygon fill="#FFB81A" points="168.355,365.85 159.254,360.949 159.254,350.05 168.355,345.15 177.355,350.05 177.355,360.85 
							"/>
		</g>
	</g>
</g>
<g id="list-progress-complete">
	<g id="hex-inner">
		<g>
			<polygon fill="#71A8A8" points="139.054,349.75 142.955,352.15 138.455,352.15 137.754,352.15 144.455,357.85 144.455,350.05 
				135.355,345.15 133.355,346.15 			"/>
		</g>
		<g>
			<polygon fill="#71A8A8" points="132.754,359.449 129.154,357.05 133.355,357.05 135.054,356.949 126.355,350.25 126.355,360.949 
				135.355,365.85 139.455,363.65 			"/>
		</g>
	</g>
	<g id="hex-outer">
		<polygon fill="#53848C" points="141.254,364.75 135.355,367.949 124.054,361.949 124.054,349.05 127.654,347.15 125.654,345.05 
			121.254,347.35 121.254,363.65 135.355,371.05 144.054,366.55 		"/>
		<polygon fill="#53848C" points="135.355,339.949 128.754,343.35 131.654,345.15 135.355,343.15 146.754,349.05 146.754,361.949 
			144.955,362.85 147.154,364.949 149.554,363.65 149.554,347.35 		"/>
	</g>
	<g id="lightning_1_">
		<g id="lightning">
			<polygon fill="#FFB81A" points="124.955,342.449 138.455,350.85 134.355,350.85 145.554,360.449 140.654,360.449 
				147.754,367.449 133.455,358.25 138.855,358.25 126.855,349.05 131.254,348.85 			"/>
		</g>
	</g>
</g>
<g id="ctanlee">
	<circle fill="#FFFFFF" cx="59.587" cy="391.883" r="6.398"/>
	<path fill="none" stroke="#FFFFFF" stroke-width="6" stroke-miterlimit="10" d="M64.087,408.283c7.2-2,12.5-8.5,12.5-16.396"/>
	<path fill="none" stroke="#FFFFFF" stroke-width="6" stroke-miterlimit="10" d="M42.587,391.883c0,7.801,5.3,14.396,12.5,16.396"/>
	<path fill="none" stroke="#FFFFFF" stroke-width="6" stroke-miterlimit="10" d="M71.388,379.683c-3.1-2.896-7.2-4.8-11.8-4.8
		c-4.7,0-8.9,1.896-12,4.896"/>
</g>
<g id="action-btn-fist">
	<polygon fill="#FFFFFF" points="408.754,433.55 377.054,416.949 377.054,380.449 408.754,363.85 440.455,380.449 440.455,416.949 	
		"/>
	<polygon fill="#F9773E" points="408.754,431.15 379.254,415.65 379.254,381.65 408.754,366.25 438.254,381.65 438.254,415.65 	"/>
	<path fill="#345D6E" d="M415.354,359.35c0,0,7.4,2,10.104,3.4c-3.397,6.5-11.5,2.397-11.5,2.397s-2.3,2.799-3,3.603
		c11.103,5.196,26.2,0.696,26.2,0.696l-0.897,5.896l-5.603,13.5l-9.7,5l-17.699,35.312l-20.701-10.81l25.799-32.396l-2.698-19.104
		L415.354,359.35z"/>
	<path fill="none" stroke="#FFFFFF" stroke-width="1.4167" stroke-miterlimit="10" d="M415.354,359.35c0,0,7.4,2,10.104,3.4
		c-3.397,6.5-11.5,2.397-11.5,2.397s-2.3,2.799-3,3.603c11.103,5.196,26.2,0.696,26.2,0.696l-0.897,5.896l-5.603,13.5l-9.7,5
		l-17.699,35.312l-20.701-10.81l25.799-32.396l-2.698-19.104L415.354,359.35z"/>
	<path fill="#345D6E" d="M421.054,352.15l-2.103-1.104c-1.8-0.896-3.897-0.2-4.8,1.5l-7,13.396l8.5,4.396l7-13.396
		C423.554,355.15,422.854,353.05,421.054,352.15"/>
	<path fill="none" stroke="#FFFFFF" stroke-width="1.4167" stroke-miterlimit="10" d="M421.054,352.15l-2.103-1.104
		c-1.8-0.896-3.897-0.2-4.8,1.5l-7,13.396l8.5,4.396l7-13.396C423.554,355.15,422.854,353.05,421.054,352.15z"/>
	<path fill="#345D6E" d="M427.554,353.55l2.604,1.7c1.3,0.8,1.695,2.5,0.8,3.8l-7.3,11.2c-3-0.9-4.397-2.103-6.305-4.304
		l6.305-11.396C424.554,353.25,426.254,352.75,427.554,353.55"/>
	<path fill="none" stroke="#FFFFFF" stroke-width="1.4167" stroke-miterlimit="10" d="M427.554,353.55l2.604,1.7
		c1.3,0.8,1.695,2.5,0.8,3.8l-7.3,11.2c-3-0.9-4.397-2.103-6.305-4.304l6.305-11.396C424.554,353.25,426.254,352.75,427.554,353.55z
		"/>
	<path fill="#345D6E" d="M435.554,361.65l-1.896-1.311c-1.305-0.896-3-0.5-3.805,0.7l-6.104,9.2c1.3,2,3.104,3.6,6,4l6.396-8.9
		C437.054,364.15,436.754,362.449,435.554,361.65"/>
	<path fill="none" stroke="#FFFFFF" stroke-width="1.4167" stroke-miterlimit="10" d="M435.554,361.65l-1.896-1.311
		c-1.305-0.896-3-0.5-3.805,0.7l-6.104,9.2c1.3,2,3.104,3.6,6,4l6.396-8.9C437.054,364.15,436.754,362.449,435.554,361.65z"/>
	<path fill="#345D6E" d="M440.155,370.85l-5.302,6.9c-2.309-0.7-3.898-1.9-5.104-3.4l5.3-7.3c0.897-1.3,2.8-1.5,4-0.5l0.7,0.604
		C440.854,368.05,441.055,369.65,440.155,370.85"/>
	<path fill="none" stroke="#FFFFFF" stroke-width="1.4167" stroke-miterlimit="10" d="M440.155,370.85l-5.302,6.9
		c-2.309-0.7-3.898-1.9-5.104-3.4l5.3-7.3c0.897-1.3,2.8-1.5,4-0.5l0.7,0.604C440.854,368.05,441.055,369.65,440.155,370.85z"/>
	<path fill="#345D6E" d="M431.054,380.75c0.897-0.603,3.8-3,3.8-3c-2.1-0.4-3.8-1.603-5.1-3.4l-2.803,2.7
		c-1.104,1-0.897,2.7,0.303,3.5l0.6,0.396C428.854,381.55,430.254,381.35,431.054,380.75"/>
	<path fill="none" stroke="#FFFFFF" stroke-width="1.4167" stroke-miterlimit="1" d="M431.054,380.75c0.897-0.603,3.8-3,3.8-3
		c-2.1-0.4-3.8-1.603-5.1-3.4l-2.803,2.7c-1.104,1-0.897,2.7,0.303,3.5l0.6,0.396C428.854,381.55,430.254,381.35,431.054,380.75z"/>
	<path fill="#345D6E" d="M423.254,377.65l-1.2-0.897c-0.8-0.603-1-1.7-0.5-2.603l2.2-3.897c1.397,2.5,3.397,3.8,6,4l-3.4,3.196
		C425.554,378.35,424.254,378.35,423.254,377.65"/>
	<path fill="none" stroke="#FFFFFF" stroke-width="1.4167" stroke-miterlimit="1" d="M423.254,377.65l-1.2-0.897
		c-0.8-0.603-1-1.7-0.5-2.603l2.2-3.897c1.397,2.5,3.397,3.8,6,4l-3.4,3.196C425.554,378.35,424.254,378.35,423.254,377.65z"/>
	<path fill="#345D6E" d="M414.655,371.449l6,4.304l3.103-5.5c-3-0.7-4.5-1.804-6.303-4.304L414.655,371.449z"/>
	<path fill="none" stroke="#FFFFFF" stroke-width="1.4167" stroke-miterlimit="10" d="M414.655,371.449l6,4.304l3.103-5.5
		c-3-0.7-4.5-1.804-6.303-4.304L414.655,371.449z"/>
	<path fill="#345D6E" d="M383.054,418.15l20.897-33.397l-2.197-19l10.8-10.2c0,0,10.104,5.3,12.8,6.7
		c-3.396,6.5-10.101,2.3-10.101,2.3s-1.302,2.896-1.899,3.7c9,4.696,10.811,9,3.5,16.397"/>
	<path fill="none" stroke="#FFFFFF" stroke-width="1.4167" stroke-linecap="round" stroke-miterlimit="10" d="M383.054,418.15
		l20.897-33.397l-2.197-19l10.8-10.2c0,0,10.104,5.3,12.8,6.7c-3.396,6.5-10.101,2.3-10.101,2.3s-1.302,2.896-1.899,3.7
		c9,4.696,10.811,9,3.5,16.397"/>
	<path fill="#FFFFFF" d="M399.054,420.35c0.897-8.3,2.8-16.5,5.604-24.6c0.195,1.8,0.396,3.6,0.695,5.3
		c1.896-5.8,4.396-11.396,7.305-16.896c-0.305,2.103-0.397,4.103-0.604,6.103c2.3-3.5,4.7-6.804,7.397-10
		c1.303-1.603,1.7-1.2,0.603,0.5c-3.8,6.104-6.896,12.5-9.3,19c-0.103-1.804-0.2-3.603-0.2-5.396c-2.2,5.191-4,10.5-5.3,15.896
		c-0.4-1.896-0.803-3.804-1.2-5.804C401.955,409.65,400.254,414.949,399.054,420.35"/>
</g>
<g id="btn-lightning">
	<path fill="#FFB81A" d="M666.485,117.52c10.851-4.431,22.325-7.663,34.213-9.561c-2.114,1.421-4.171,2.885-6.17,4.388
		c8.437-1.453,17.07-2.214,25.811-2.241c-2.724,1.07-5.387,2.21-7.985,3.417c8.674,0.706,17.286,2.148,25.746,4.322
		c-12.991-1.538-25.89-1.355-38.375,0.399c2.125-1.335,4.305-2.623,6.54-3.863c-7.928,0.756-15.719,2.13-23.3,4.087
		c2.05-1.812,4.174-3.584,6.371-5.309C681.626,114.034,673.987,115.49,666.485,117.52"/>
</g>
<g id="quiz-header">
	<line fill="none" stroke="#6B989F" stroke-width="2" stroke-miterlimit="10" x1="78.072" y1="208.768" x2="314.633" y2="208.768"/>
	
		<line fill="none" stroke="#6B989F" stroke-width="2" stroke-miterlimit="10" x1="394.634" y1="208.768" x2="631.195" y2="208.768"/>
	<polygon opacity="0.5" fill="#6B989F" enable-background="new    " points="368.471,226.989 356.633,233.134 334.133,221.454 
		334.133,196.081 341.444,192.286 337.797,188.545 329.133,193.043 329.133,224.492 356.633,238.768 373.347,230.093 	"/>
	<polygon opacity="0.5" fill="#6B989F" enable-background="new    " points="356.633,178.768 343.937,185.359 348.877,188.428 
		356.633,184.401 379.133,196.081 379.133,221.454 375.489,223.346 379.269,227.018 384.133,224.492 384.133,193.043 	"/>
	<polygon fill="#F9773E" points="336.633,183.768 362.461,199.805 354.545,199.801 376.063,218.19 366.733,218.324 380.444,231.646 
		352.906,214.122 363.255,213.934 340.256,196.229 348.526,195.972 	"/>
</g>
<g id="quiz-answer-bg">
	<polygon id="_x3E_bg" fill="#335E6E" points="48.254,712.961 48.254,434.738 146.753,410.395 244.848,434.737 245.252,712.962 
		146.754,737.305 	"/>
	<path id="_x3E_outline" fill="#6B989F" d="M146.753,411.94l96.597,23.97l0.401,275.881l-96.997,23.972l-97-23.975V435.912
		L146.753,411.94 M146.754,408.85l-100,24.724v280.562l100,24.714l100-24.714l-0.408-280.562L146.754,408.85L146.754,408.85z"/>
	<path id="_x3E_lightning_1_" fill="#6B989F" d="M110.948,689.901c10.85-4.438,22.324-7.663,34.212-9.562
		c-2.113,1.421-4.171,2.885-6.169,4.389c8.438-1.444,17.07-2.215,25.812-2.232c-2.725,1.062-5.387,2.21-7.985,3.417
		c8.673,0.705,17.286,2.146,25.747,4.312c-12.992-1.538-25.893-1.354-38.377,0.4c2.126-1.335,4.306-2.624,6.541-3.864
		c-7.928,0.755-15.719,2.129-23.3,4.087c2.05-1.812,4.175-3.584,6.371-5.308C126.088,686.416,118.45,687.871,110.948,689.901z"/>
	<path id="_x3E_lightning" fill="#6B989F" d="M110.948,458.91c10.85-4.438,22.324-7.659,34.212-9.562
		c-2.113,1.432-4.171,2.895-6.169,4.396c8.438-1.452,17.07-2.214,25.812-2.238c-2.725,1.067-5.387,2.211-7.985,3.417
		c8.673,0.703,17.286,2.146,25.747,4.319c-12.992-1.538-25.893-1.354-38.377,0.396c2.126-1.335,4.306-2.624,6.541-3.861
		c-7.928,0.763-15.719,2.137-23.3,4.094c2.05-1.812,4.175-3.584,6.371-5.312C126.088,455.426,118.45,456.881,110.948,458.91z"/>
	
		<line id="_x3E_line" fill="none" stroke="#FFB81A" stroke-width="2" stroke-linecap="round" stroke-miterlimit="10" x1="75.254" y1="500.35" x2="218.254" y2="500.35"/>
	
		<line id="_x3E_line_1_" fill="none" stroke="#FFB81A" stroke-width="2" stroke-linecap="round" stroke-miterlimit="10" x1="75.254" y1="637.35" x2="218.254" y2="637.35"/>
</g>
<g id="next-question">
	<polygon fill="#FF7931" points="446.119,514.05 301.12,514.05 301.12,476.604 446.119,476.604 453.127,496.076 	"/>
</g>
<g id="btn-got-it">
	<path fill="#F9773E" d="M454.775,111.937c10.938-4.513,22.521-7.805,34.517-9.737c-2.134,1.447-4.207,2.938-6.226,4.469
		c8.514-1.479,17.224-2.255,26.039-2.282c-2.75,1.089-5.438,2.251-8.062,3.479c8.749,0.719,17.438,2.188,25.979,4.402
		c-13.104-1.566-26.115-1.381-38.721,0.408c2.146-1.36,4.353-2.673,6.604-3.937c-7.997,0.77-15.856,2.169-23.507,4.163
		c2.062-1.847,4.212-3.65,6.43-5.406C470.05,108.388,462.344,109.871,454.775,111.937z"/>
	<path fill="#FFB81A" d="M477.539,84.594c-0.32,2.88-0.62,4.041-1.32,5.201c-0.96,1.621-2.26,2.441-3.841,2.441
		c-2.42,0-3.94-2.021-3.94-5.221c0-2.081,0.521-4.321,1.35-5.781c1.021-1.82,2.521-2.781,4.271-2.781c1.9,0,3.16,1.14,3.501,3.181
		l-2.651,1c-0.021-0.68-0.062-0.86-0.16-1.161c-0.146-0.44-0.5-0.68-0.979-0.68c-0.641,0-1.155,0.44-1.579,1.32
		c-0.602,1.28-0.979,3.241-0.979,5.062c0,1.78,0.521,2.68,1.54,2.68c1.021,0,1.643-0.92,1.922-2.9h-1.646l0.276-2.36L477.539,84.594
		L477.539,84.594z"/>
	<path fill="#FFB81A" d="M480.417,88.475c0-1.201,0.318-2.541,0.84-3.541c0.681-1.32,1.801-2.041,3.146-2.041
		c1.802,0,2.812,1.22,2.812,3.421c0,3.581-1.561,5.881-3.961,5.881C481.396,92.195,480.417,90.895,480.417,88.475z M484.698,86.514
		c0-0.92-0.198-1.38-0.578-1.38c-0.66,0-1.224,1.58-1.224,3.4c0,0.9,0.224,1.42,0.611,1.42
		C484.178,89.955,484.698,88.394,484.698,86.514z"/>
	<path fill="#FFB81A" d="M491.017,85.134h-0.84l0.261-2.061h0.85l0.302-2.46h2.461l-0.303,2.46h1.001l-0.238,2.061h-1l-0.855,6.881
		h-2.465L491.017,85.134z"/>
	<path fill="#FFB81A" d="M503.276,83.073h2.461l-1.104,8.942h-2.461L503.276,83.073z M503.316,80.613c0-0.96,0.84-1.78,1.771-1.78
		c0.769,0,1.36,0.6,1.36,1.38c0,0.96-0.82,1.801-1.78,1.801C503.896,82.013,503.316,81.413,503.316,80.613z"/>
	<path fill="#FFB81A" d="M509.316,85.134h-0.85l0.27-2.061h0.843l0.3-2.46h2.461l-0.301,2.46h1.001l-0.24,2.061h-1l-0.854,6.881
		h-2.468L509.316,85.134z"/>
	<path fill="#FFB81A" d="M517.217,88.874c0.82,0,1.46,0.64,1.46,1.46c0,1.02-0.88,1.9-1.896,1.9c-0.842,0-1.46-0.64-1.46-1.48
		C515.316,89.755,516.196,88.874,517.217,88.874z M517.177,78.672h2.562l-1.146,9.342h-2.58L517.177,78.672z"/>
</g>
<g id="btn-continue">
	<path fill="#FFFFFF" d="M142.72,618.209l47.439,10.121v22.418l-47.415,9.339l-46.585-9.331v-23.221L142.72,618.209
		 M142.738,615.145L93.16,625.08v28.139l49.578,9.938l50.422-9.938v-27.311L142.738,615.145L142.738,615.145z"/>
	<path fill="#FFFFFF" d="M112.042,638.271c-1.135,0.379-1.513,0.463-2.171,0.463c-1.373,0-2.787-0.615-3.74-1.625
		c-0.799-0.854-1.232-1.979-1.232-3.229c0-2.759,2.188-4.938,4.944-4.938c0.729,0,1.317,0.127,2.199,0.478v2.899
		c-0.574-0.688-1.261-1.022-2.103-1.022c-1.457,0-2.508,1.077-2.508,2.577c0,0.798,0.268,1.429,0.826,1.891
		c0.477,0.396,1.062,0.616,1.682,0.616c0.798,0,1.473-0.308,2.103-0.979V638.271L112.042,638.271z"/>
	<path fill="#FFFFFF" d="M116,630.037c0.883-0.744,2.115-1.178,3.418-1.178c1.556,0,2.83,0.521,3.824,1.562
		c0.867,0.911,1.346,2.115,1.346,3.418c0,1.479-0.646,2.857-1.752,3.796c-0.938,0.785-2.087,1.187-3.459,1.187
		c-2.941,0-5.127-2.156-5.127-5.07C114.25,632.361,114.895,630.975,116,630.037z M119.418,636.466c1.457,0,2.634-1.177,2.634-2.634
		c0-1.442-1.177-2.618-2.634-2.618c-1.442,0-2.633,1.176-2.633,2.591C116.785,635.289,117.947,636.466,119.418,636.466z"/>
	<path fill="#FFFFFF" d="M127.2,629.14h2.423l4.469,5.725v-5.725h2.424v9.353h-2.424l-4.469-5.725v5.725H127.2V629.14z"/>
	<path fill="#FFFFFF" d="M140.543,631.199h-1.977v-2.062h6.415v2.062h-2.017v7.283h-2.424L140.543,631.199L140.543,631.199z"/>
	<path fill="#FFFFFF" d="M147.052,629.14h2.424v9.353h-2.424V629.14z"/>
	<path fill="#FFFFFF" d="M152.61,629.14h2.426l4.468,5.725v-5.725h2.424v9.353h-2.424l-4.468-5.725v5.725h-2.426V629.14z"/>
	<path fill="#FFFFFF" d="M172.998,634.533c0,1.373-0.238,2.114-0.911,2.871c-0.771,0.867-1.862,1.312-3.222,1.312
		c-1.431,0-2.689-0.53-3.333-1.396c-0.49-0.658-0.675-1.414-0.675-2.787v-5.396h2.426v5.062c0,1.062,0.025,1.271,0.266,1.666
		c0.267,0.445,0.771,0.715,1.357,0.715c0.616,0,1.163-0.295,1.415-0.756c0.21-0.365,0.253-0.646,0.253-1.625v-5.062h2.424V634.533
		L172.998,634.533z"/>
	<path fill="#FFFFFF" d="M175.934,629.14h5.311v2.062h-2.887v1.555h2.731v2.062h-2.731v1.604h2.887v2.062h-5.311V629.14z"/>
	<path fill="#FFFFFF" d="M112.945,650.736c9.118-3.729,18.764-6.439,28.75-8.035c-1.774,1.193-3.505,2.426-5.185,3.688
		c7.09-1.222,14.346-1.854,21.689-1.883c-2.289,0.897-4.526,1.856-6.71,2.87c7.286,0.594,14.524,1.807,21.636,3.633
		c-10.918-1.293-21.757-1.141-32.248,0.337c1.785-1.122,3.617-2.205,5.496-3.248c-6.662,0.645-13.21,1.79-19.58,3.438
		c1.723-1.522,3.508-3.013,5.354-4.459C125.669,647.808,119.249,649.031,112.945,650.736z"/>
</g>
<g id="perfect-answer">
	<g id="XMLID_2433_">
		<polygon fill="#335E6E" points="588.093,117.029 573.368,109.385 573.368,92.544 588.093,84.9 602.819,92.544 602.819,109.385 		
			"/>
	</g>
	<polygon fill="#FFFFFF" points="588.093,88.743 591.065,96.664 599.083,97.139 592.901,102.607 594.884,110.721 588.093,106.281 
		581.302,110.721 583.284,102.607 577.104,97.139 585.122,96.664 	"/>
</g>
<g id="quiz-btn">
	<g id="_x3E_bg_1_">
		<polygon fill="#335E6E" points="808.999,122.756 867.999,134.756 927.999,122.756 927.999,89.756 867.999,76.756 808.999,88.756 
					"/>
	</g>
	<path fill="#FFB81A" d="M832.544,119.551c10.854-4.434,22.326-7.664,34.213-9.562c-2.112,1.422-4.17,2.885-6.169,4.387
		c8.438-1.451,17.07-2.213,25.812-2.238c-2.729,1.068-5.396,2.209-7.983,3.416c8.672,0.705,17.284,2.148,25.746,4.322
		c-12.992-1.539-25.894-1.355-38.375,0.4c2.125-1.336,4.305-2.625,6.541-3.865c-7.933,0.756-15.721,2.129-23.302,4.088
		c2.052-1.812,4.174-3.584,6.369-5.309C847.686,116.065,840.046,117.522,832.544,119.551z"/>
</g>
<g id="btn-generic">
	<path fill="#FFB81A" d="M292.999,109.429l59,12l60-12V75.427l-60-13l0,0l-59,12V109.429z M295.999,76.878l55.979-11.386
		l57.021,12.354v29.123l-56.995,11.398l-56.005-11.391V76.878z"/>
	<path fill="#FFB81A" d="M321.494,109.031c9.365-3.825,19.271-6.614,29.529-8.252c-1.824,1.227-3.6,2.491-5.326,3.787
		c7.283-1.253,14.734-1.91,22.277-1.934c-2.351,0.923-4.648,1.907-6.893,2.948c7.483,0.609,14.921,1.855,22.223,3.731
		c-11.213-1.329-22.346-1.171-33.122,0.346c1.834-1.153,3.716-2.266,5.646-3.336c-6.844,0.652-13.564,1.838-20.106,3.528
		c1.769-1.565,3.602-3.093,5.498-4.582C334.562,106.021,327.969,107.279,321.494,109.031z"/>
</g>
<g id="speaker">
	<path fill="none" stroke="#FFB81A" stroke-width="3" stroke-linecap="round" stroke-linejoin="round" stroke-miterlimit="10" d="
		M211.121,114.819c10.218-2.746,17.732-11.951,17.732-22.892c0-10.941-7.515-20.146-17.732-22.891"/>
	<path fill="none" stroke="#FFB81A" stroke-width="3" stroke-linecap="round" stroke-linejoin="round" stroke-miterlimit="10" d="
		M219.049,123.528c14.2-4.416,24.44-16.891,24.44-31.601c0-14.71-10.24-27.185-24.44-31.601"/>
	<path fill="none" stroke="#FFB81A" stroke-width="3" stroke-linecap="round" stroke-linejoin="round" stroke-miterlimit="10" d="
		M206.621,104.147c5.122-2.226,8.655-6.85,8.655-12.219c0-5.371-3.533-9.996-8.655-12.221"/>
	<polygon fill="#FFB81A" points="191.285,100.965 191.285,82.889 198.912,78.098 198.912,105.756 	"/>
	<rect x="182.511" y="82.889" fill="#FFB81A" width="11.273" height="18.075"/>
</g>
<g id="no-phone">
	<path fill="#FFB81A" d="M102.09,127.677H65.708V63.678h36.382V127.677z M102.285,60.678H65.514c-1.55,0-2.807,1.256-2.807,2.806
		v64.388c0,1.549,1.257,2.806,2.807,2.806h36.771c1.55,0,2.806-1.257,2.806-2.806V63.484
		C105.09,61.934,103.834,60.678,102.285,60.678"/>
	<path fill="#FFB81A" d="M95.339,113.743H72.458V70.112H95.34L95.339,113.743L95.339,113.743z M96.986,67.112H70.813
		c-0.748,0-1.354,0.605-1.354,1.354v46.922c0,0.748,0.606,1.355,1.354,1.355h26.173c0.748,0,1.354-0.607,1.354-1.355V68.465
		C98.339,67.717,97.734,67.112,96.986,67.112"/>
	<circle fill="none" stroke="#E03F07" stroke-width="3" stroke-miterlimit="10" cx="83.899" cy="95.677" r="49.5"/>
	<line fill="none" stroke="#E03F07" stroke-width="3" stroke-miterlimit="10" x1="117.899" y1="61.677" x2="49.899" y2="129.677"/>
	
		<line fill="none" stroke="#FFB81A" stroke-width="3" stroke-linecap="round" stroke-linejoin="round" stroke-miterlimit="10" x1="78.899" y1="121.896" x2="88.899" y2="121.896"/>
</g>
<g id="duty">
	<path fill="#6B989F" d="M495.169,349.435l16,8.375v18.229l-16,8.375l-16-8.375V357.81L495.169,349.435 M495.169,344.92l-20,10.469
		v23.062l20,10.469l20-10.469v-23.062L495.169,344.92L495.169,344.92z"/>
</g>
<g id="duty-active">
	<path fill="#F9773E" d="M495.169,294.435l16,8.375v18.221l-16,8.375l-16-8.375V302.81L495.169,294.435 M495.169,289.92l-20,10.469
		v23.062l20,10.469l20-10.469v-23.062L495.169,289.92L495.169,289.92z"/>
	<polygon fill="#FFB81A" points="495.169,326.42 482.444,319.521 482.444,304.319 495.169,297.42 507.895,304.319 507.895,319.521 	
		"/>
</g>
<g id="duty-complete">
	<polygon fill="#71A8A8" points="500.366,248.883 505.788,252.238 499.406,252.234 498.58,252.234 507.896,260.172 507.896,249.319 
		495.169,242.42 492.374,243.936 	"/>
	<polygon fill="#71A8A8" points="491.482,262.331 486.388,259.1 492.425,258.99 494.765,258.947 482.441,249.49 482.441,264.521 
		495.169,271.42 500.906,268.31 	"/>
	<polygon fill="#53848C" points="503.777,270.283 495.169,274.789 478.806,266.224 478.806,247.616 484.122,244.834 481.471,242.09 
		475.169,245.389 475.169,268.451 495.169,278.92 507.323,272.559 	"/>
	<polygon fill="#53848C" points="495.169,234.92 485.935,239.754 489.528,242.004 495.169,239.051 511.532,247.616 511.532,266.224 
		508.882,267.611 511.63,270.304 515.169,268.451 515.169,245.389 	"/>
	<polygon fill="#FFB81A" points="480.623,238.587 499.407,250.348 493.651,250.344 509.3,263.83 502.514,263.928 512.485,273.697 
		492.458,260.847 499.985,260.709 483.259,247.726 489.271,247.536 	"/>
</g>
<g id="btn-acknowledge">
	<polygon id="_x3E_bg_2_" fill="#6B989F" points="726.386,223.808 726.386,187.703 816.105,174.273 907.386,188.828 
		907.386,223.805 816.114,237.239 	"/>
	<path id="_x3E_outline_1_" fill="#335E6E" d="M816.098,175.791l89.788,14.317v32.401l-89.77,13.213l-88.23-13.207v-33.521
		L816.098,175.791 M816.112,172.755l-91.229,13.655v38.69l91.229,13.655l92.771-13.655v-37.552L816.112,172.755L816.112,172.755z"/>
	<path id="_x3E_lightning_2_" fill="#FFB81A" d="M781.078,219.549c10.851-4.432,22.326-7.663,34.213-9.562
		c-2.113,1.422-4.17,2.886-6.169,4.388c8.437-1.452,17.07-2.213,25.811-2.24c-2.725,1.069-5.388,2.21-7.979,3.416
		c8.673,0.706,17.286,2.149,25.746,4.323c-12.991-1.539-25.896-1.356-38.375,0.4c2.125-1.336,4.305-2.625,6.54-3.865
		c-7.937,0.756-15.728,2.13-23.309,4.088c2.059-1.813,4.184-3.584,6.371-5.309C796.22,216.064,788.581,217.52,781.078,219.549z"/>
</g>
<g id="chapter-bracket">
	<polyline fill="none" stroke="#FFB81A" stroke-width="4" stroke-miterlimit="10" points="630.031,403.742 653.031,403.742 
		653.031,302.75 630.031,302.75 	"/>
</g>
<g id="tesselation">
	<rect x="1134.689" y="2.852" fill="none" width="1024" height="768"/>
	<path fill="none" stroke="#335E6E" stroke-miterlimit="10" d="M1288.925,147.035c-22.989,13.425-45.722,28.383-68.146,45.806
		c-22.438-34.314-44.562-72.895-66.35-116.986C1197.991,104.806,1242.95,128.195,1288.925,147.035z"/>
	<path fill="none" stroke="#335E6E" stroke-miterlimit="10" d="M1134.688,62.282c6.555,4.655,13.136,9.178,19.741,13.573
		c-6.612,4.599-13.188,9.448-19.739,14.581"/>
	<path fill="none" stroke="#335E6E" stroke-miterlimit="10" d="M1134.691,247.752c6.546,1.995,13.126,3.933,19.729,5.816
		c-6.604,7.11-13.188,14.545-19.733,22.339"/>
	<path fill="none" stroke="#335E6E" stroke-miterlimit="10" d="M1154.429,431.282c-6.612,9.62-13.188,19.639-19.739,30.092"/>
	<path fill="none" stroke="#335E6E" stroke-miterlimit="10" d="M1134.684,618.693c6.549-3.326,13.131-6.562,19.745-9.698
		c-6.604,12.132-13.188,24.735-19.739,37.849"/>
	<path fill="none" stroke="#335E6E" stroke-miterlimit="10" d="M1429.532,190.658c-23.813,13.436-47.479,27.41-70.924,42.702
		c-23.449-25.637-46.692-54.072-69.688-86.325C1334.899,165.865,1381.905,180.149,1429.532,190.658z"/>
	<path fill="none" stroke="#335E6E" stroke-miterlimit="10" d="M1573.886,211.249c-24.229,15.043-48.416,29.713-72.491,44.723
		c-24.065-19.889-48.046-41.379-71.854-65.313C1477.161,201.153,1525.417,207.88,1573.886,211.249z"/>
	<path fill="none" stroke="#335E6E" stroke-miterlimit="10" d="M1719.495,211.249c-24.232,18.401-48.517,35.48-72.806,51.963
		c-24.286-16.484-48.573-33.561-72.812-51.963C1622.354,214.603,1671.028,214.603,1719.495,211.249z"/>
	<path fill="none" stroke="#335E6E" stroke-miterlimit="10" d="M1863.848,190.658c-23.812,23.934-47.787,45.423-71.855,65.313
		c-24.077-15.01-48.255-29.682-72.489-44.723C1767.966,207.88,1816.219,201.154,1863.848,190.658z"/>
	<path fill="none" stroke="#335E6E" stroke-miterlimit="10" d="M2004.456,147.035c-22.988,32.255-46.24,60.689-69.687,86.325
		c-23.45-15.293-47.107-29.267-70.931-42.701C1911.477,180.149,1958.479,165.864,2004.456,147.035z"/>
	<path fill="none" stroke="#335E6E" stroke-miterlimit="10" d="M2138.952,75.854c-21.777,44.094-43.914,82.672-66.343,116.986
		c-22.438-17.423-45.166-32.379-68.153-45.806C2050.438,128.196,2095.391,104.807,2138.952,75.854z"/>
	<path fill="none" stroke="#335E6E" stroke-miterlimit="10" d="M2158.686,90.43c-6.545-5.131-13.123-9.979-19.729-14.575
		c6.612-4.395,13.188-8.917,19.739-13.572"/>
	<path fill="none" stroke="#335E6E" stroke-miterlimit="10" d="M1134.684,155.015c28.115,14.279,56.851,26.818,86.088,37.826
		c-22.434,17.427-44.562,37.314-66.345,60.728c-6.612-10.876-13.188-22.187-19.739-33.969"/>
	<path fill="none" stroke="#335E6E" stroke-miterlimit="10" d="M1358.608,233.36c-23.451,15.295-46.695,31.907-69.688,50.71
		c-22.984-26.876-45.721-56.921-68.15-91.229C1265.634,209.726,1311.707,223.016,1358.608,233.36z"/>
	<path fill="none" stroke="#335E6E" stroke-miterlimit="10" d="M1501.395,255.972c-24.071,15.011-48.046,30.357-71.854,46.791
		c-23.812-20.936-47.479-43.771-70.924-69.402C1405.511,243.696,1453.245,251.091,1501.395,255.972z"/>
	<path fill="none" stroke="#335E6E" stroke-miterlimit="10" d="M1646.689,263.212c-24.286,16.484-48.573,32.371-72.812,48.372
		c-24.229-17.444-48.417-35.726-72.489-55.612C1549.547,260.842,1598.12,263.208,1646.689,263.212z"/>
	<path fill="none" stroke="#335E6E" stroke-miterlimit="10" d="M1791.984,255.972c-24.076,19.886-48.266,38.169-72.491,55.612
		c-24.23-16.002-48.521-31.888-72.803-48.372C1695.263,263.208,1743.835,260.845,1791.984,255.972z"/>
	<path fill="none" stroke="#335E6E" stroke-miterlimit="10" d="M1934.771,233.36c-23.451,25.634-47.109,48.468-70.934,69.402
		c-23.812-16.434-47.785-31.779-71.854-46.791C1840.138,251.091,1887.87,243.697,1934.771,233.36z"/>
	<path fill="none" stroke="#335E6E" stroke-miterlimit="10" d="M2072.61,192.842c-22.431,34.306-45.168,64.354-68.156,91.229
		c-22.988-18.801-46.233-35.415-69.685-50.711C1981.675,223.017,2027.746,209.727,2072.61,192.842z"/>
	<path fill="none" stroke="#335E6E" stroke-miterlimit="10" d="M2158.693,219.597c-6.549,11.784-13.13,23.095-19.743,33.972
		c-21.783-23.413-43.908-43.303-66.34-60.728c29.241-11.008,57.97-23.546,86.085-37.825"/>
	<path fill="none" stroke="#335E6E" stroke-miterlimit="10" d="M1288.925,284.071c-22.989,18.803-45.722,39.801-68.146,63.978
		c-22.438-27.561-44.562-58.66-66.35-94.48C1197.991,265.976,1242.95,275.998,1288.925,284.071z"/>
	<path fill="none" stroke="#335E6E" stroke-miterlimit="10" d="M1429.532,302.762c-23.813,16.435-47.479,33.956-70.924,53.385
		c-23.449-21.499-46.692-45.204-69.688-72.075C1334.899,292.139,1381.905,298.26,1429.532,302.762z"/>
	<path fill="none" stroke="#335E6E" stroke-miterlimit="10" d="M1573.886,311.583c-24.229,16.004-48.416,32.12-72.491,49.08
		c-24.065-17.938-48.046-36.97-71.854-57.901C1477.161,307.26,1525.417,310.14,1573.886,311.583z"/>
	<path fill="none" stroke="#335E6E" stroke-miterlimit="10" d="M1719.495,311.583c-24.232,17.441-48.517,34.045-72.806,50.526
		c-24.286-16.483-48.573-33.085-72.812-50.526C1622.354,313.02,1671.028,313.02,1719.495,311.583z"/>
	<path fill="none" stroke="#335E6E" stroke-miterlimit="10" d="M1863.848,302.762c-23.812,20.931-47.787,39.958-71.855,57.901
		c-24.077-16.962-48.255-33.078-72.489-49.08C1767.966,310.14,1816.219,307.258,1863.848,302.762z"/>
	<path fill="none" stroke="#335E6E" stroke-miterlimit="10" d="M2004.456,284.071c-22.988,26.875-46.24,50.583-69.687,72.083
		c-23.45-19.438-47.107-36.949-70.931-53.384C1911.477,298.261,1958.479,292.137,2004.456,284.071z"/>
	<path fill="none" stroke="#335E6E" stroke-miterlimit="10" d="M2138.952,253.568c-21.777,35.819-43.914,66.92-66.343,94.48
		c-22.438-24.177-45.166-45.171-68.153-63.978C2050.438,275.998,2095.391,265.973,2138.952,253.568z"/>
	<path fill="none" stroke="#335E6E" stroke-miterlimit="10" d="M2158.693,275.905c-6.547-7.793-13.128-15.227-19.741-22.336
		c6.613-1.883,13.194-3.821,19.741-5.816"/>
	<path fill="none" stroke="#335E6E" stroke-miterlimit="10" d="M1134.691,340.487c28.105,2.854,56.838,5.354,86.078,7.562
		c-22.438,24.188-44.562,51.55-66.351,83.233c-6.604-8.364-13.188-17.089-19.729-26.211"/>
	<path fill="none" stroke="#335E6E" stroke-miterlimit="10" d="M1358.608,356.146c-23.451,19.435-46.695,40.771-69.688,64.96
		c-22.984-21.493-45.721-45.512-68.15-73.062C1265.634,351.426,1311.707,354.079,1358.608,356.146z"/>
	<path fill="none" stroke="#335E6E" stroke-miterlimit="10" d="M1501.395,360.663c-24.071,16.964-48.046,34.77-71.854,54.203
		c-23.812-17.938-47.479-37.229-70.924-58.72C1405.511,358.214,1453.245,359.69,1501.395,360.663z"/>
	<path fill="none" stroke="#335E6E" stroke-miterlimit="10" d="M1646.689,362.109c-24.286,16.479-48.573,32.847-72.812,49.809
		c-24.229-16.48-48.417-33.321-72.489-51.255C1549.547,361.637,1598.12,362.109,1646.689,362.109z"/>
	<path fill="none" stroke="#335E6E" stroke-miterlimit="10" d="M1791.984,360.663c-24.076,17.935-48.266,34.771-72.491,51.255
		c-24.23-16.962-48.521-33.325-72.803-49.809C1695.263,362.109,1743.835,361.637,1791.984,360.663z"/>
	<path fill="none" stroke="#335E6E" stroke-miterlimit="10" d="M1934.771,356.147c-23.451,21.486-47.109,40.777-70.934,58.719
		c-23.812-19.438-47.785-37.238-71.854-54.203C1840.138,359.688,1887.87,358.212,1934.771,356.147z"/>
	<path fill="none" stroke="#335E6E" stroke-miterlimit="10" d="M2072.61,348.05c-22.431,27.552-45.168,51.562-68.156,73.062
		c-22.988-24.188-46.233-45.525-69.685-64.959C1981.675,354.079,2027.746,351.425,2072.61,348.05z"/>
	<path fill="none" stroke="#335E6E" stroke-miterlimit="10" d="M2158.693,405.066c-6.549,9.124-13.13,17.851-19.743,26.216
		c-21.783-31.688-43.908-59.051-66.34-83.232c29.239-2.2,57.967-4.707,86.081-7.562"/>
	<path fill="none" stroke="#335E6E" stroke-miterlimit="10" d="M1288.925,421.106c-22.989,24.188-45.722,51.217-68.146,82.146
		c-22.438-20.804-44.562-44.426-66.35-71.975C1197.991,427.147,1242.95,423.799,1288.925,421.106z"/>
	<path fill="none" stroke="#335E6E" stroke-miterlimit="10" d="M1429.532,414.865c-23.813,19.438-47.479,40.501-70.924,64.062
		c-23.449-17.354-46.692-36.337-69.688-57.819C1334.899,418.413,1381.905,416.369,1429.532,414.865z"/>
	<path fill="none" stroke="#335E6E" stroke-miterlimit="10" d="M1573.886,411.918c-24.229,16.963-48.416,34.526-72.491,53.438
		c-24.065-15.984-48.046-32.562-71.854-50.489C1477.161,413.366,1525.417,412.399,1573.886,411.918z"/>
	<path fill="none" stroke="#335E6E" stroke-miterlimit="10" d="M1719.495,411.918c-24.232,16.48-48.517,32.607-72.806,49.089
		c-24.286-16.479-48.573-32.604-72.812-49.089C1622.354,411.438,1671.028,411.438,1719.495,411.918z"/>
	<path fill="none" stroke="#335E6E" stroke-miterlimit="10" d="M1863.848,414.865c-23.812,17.931-47.787,34.504-71.855,50.481
		c-24.077-18.904-48.255-36.473-72.489-53.437C1767.966,412.399,1816.219,413.362,1863.848,414.865z"/>
	<path fill="none" stroke="#335E6E" stroke-miterlimit="10" d="M2004.456,421.106c-22.988,21.483-46.24,40.465-69.687,57.819
		c-23.45-23.562-47.107-44.634-70.931-64.062C1911.477,416.369,1958.479,418.413,2004.456,421.106z"/>
	<path fill="none" stroke="#335E6E" stroke-miterlimit="10" d="M2138.952,431.282c-21.777,27.547-43.914,51.172-66.343,71.975
		c-22.438-30.934-45.166-57.961-68.153-82.146C2050.438,423.803,2095.391,427.146,2138.952,431.282z"/>
	<path fill="none" stroke="#335E6E" stroke-miterlimit="10" d="M2158.693,461.375c-6.547-10.453-13.128-20.472-19.741-30.093
		c6.61,0.628,13.188,1.271,19.733,1.938"/>
	<path fill="none" stroke="#335E6E" stroke-miterlimit="10" d="M1134.688,525.958c28.115-8.567,56.849-16.092,86.084-22.7
		c-22.434,30.938-44.562,65.784-66.345,105.738c-6.612-5.854-13.188-11.995-19.739-18.457"/>
	<path fill="none" stroke="#335E6E" stroke-miterlimit="10" d="M1358.608,478.934c-23.451,23.57-46.695,49.646-69.688,79.209
		c-22.984-16.104-45.721-34.087-68.15-54.885C1265.634,493.124,1311.707,485.144,1358.608,478.934z"/>
	<path fill="none" stroke="#335E6E" stroke-miterlimit="10" d="M1501.395,465.355c-24.071,18.907-48.046,39.178-71.854,61.606
		c-23.812-14.935-47.479-30.678-70.924-48.036C1405.511,472.726,1453.245,468.288,1501.395,465.355z"/>
	<path fill="none" stroke="#335E6E" stroke-miterlimit="10" d="M1646.689,461.007c-24.286,16.484-48.573,33.323-72.812,51.246
		c-24.229-15.521-48.417-30.913-72.489-46.896C1549.547,462.432,1598.12,461.01,1646.689,461.007z"/>
	<path fill="none" stroke="#335E6E" stroke-miterlimit="10" d="M1791.984,465.355c-24.076,15.979-48.266,31.378-72.491,46.896
		c-24.23-17.925-48.521-34.764-72.803-51.246C1695.263,461.012,1743.835,462.431,1791.984,465.355z"/>
	<path fill="none" stroke="#335E6E" stroke-miterlimit="10" d="M1934.771,478.934c-23.451,17.358-47.109,33.104-70.934,48.035
		c-23.812-22.436-47.785-42.7-71.854-61.605C1840.138,468.287,1887.87,472.728,1934.771,478.934z"/>
	<path fill="none" stroke="#335E6E" stroke-miterlimit="10" d="M2072.61,503.258c-22.431,20.798-45.168,38.772-68.156,54.884
		c-22.988-29.562-46.233-55.638-69.685-79.208C1981.675,485.14,2027.746,493.125,2072.61,503.258z"/>
	<path fill="none" stroke="#335E6E" stroke-miterlimit="10" d="M2158.693,590.539c-6.549,6.462-13.13,12.604-19.743,18.456
		c-21.783-39.958-43.908-74.799-66.34-105.737c29.241,6.606,57.97,14.132,86.086,22.7"/>
	<path fill="none" stroke="#335E6E" stroke-miterlimit="10" d="M1288.925,558.142c-22.989,29.57-45.722,62.643-68.146,100.324
		c-22.438-14.046-44.562-30.188-66.35-49.471C1197.991,588.315,1242.95,571.604,1288.925,558.142z"/>
	<path fill="none" stroke="#335E6E" stroke-miterlimit="10" d="M1134.688,711.342c76.558-54.496,157.854-90.741,241.562-114.812
		c100.146-28.488,203.746-39.562,306.866-36.105c103.119,3.769,205.761,22.049,304.046,59.453
		c59.021,22.649,116.478,52.194,171.527,91.257"/>
	<path fill="none" stroke="#335E6E" stroke-miterlimit="10" d="M1429.532,526.969c-23.813,22.439-47.479,47.047-70.924,74.751
		c-23.449-13.227-46.692-27.469-69.688-43.578C1334.899,544.69,1381.905,534.479,1429.532,526.969z"/>
	<path fill="none" stroke="#335E6E" stroke-miterlimit="10" d="M1573.886,512.253c-24.229,17.925-48.416,36.932-72.491,57.794
		c-24.065-14.034-48.046-28.146-71.854-43.078C1477.161,519.469,1525.417,514.661,1573.886,512.253z"/>
	<path fill="none" stroke="#335E6E" stroke-miterlimit="10" d="M1719.495,512.253c-24.232,15.521-48.517,31.169-72.806,47.65
		c-24.286-16.48-48.573-32.129-72.812-47.65C1622.354,509.854,1671.028,509.854,1719.495,512.253z"/>
	<path fill="none" stroke="#335E6E" stroke-miterlimit="10" d="M1863.848,526.969c-23.812,14.938-47.787,29.045-71.855,43.078
		c-24.077-20.862-48.255-39.869-72.489-57.794C1767.966,514.66,1816.219,519.469,1863.848,526.969z"/>
	<path fill="none" stroke="#335E6E" stroke-miterlimit="10" d="M2004.456,558.142c-22.988,16.107-46.24,30.354-69.687,43.578
		c-23.45-27.705-47.107-52.312-70.931-74.751C1911.477,534.479,1958.479,544.688,2004.456,558.142z"/>
	<path fill="none" stroke="#335E6E" stroke-miterlimit="10" d="M2138.952,608.995c-21.777,19.271-43.914,35.423-66.343,49.471
		c-22.438-37.688-45.166-70.752-68.153-100.324C2050.438,571.604,2095.391,588.315,2138.952,608.995z"/>
	<path fill="none" stroke="#335E6E" stroke-miterlimit="10" d="M2158.689,646.836c-6.554-13.11-13.125-25.711-19.737-37.841
		c6.612,3.14,13.194,6.371,19.741,9.696"/>
</g>
<g id="lightning-fist">
	<line fill="none" stroke="#6B989F" stroke-miterlimit="10" x1="1609.413" y1="686.827" x2="1374.132" y2="686.827"/>
	
		<line fill="none" stroke="#6B989F" stroke-width="0.7797" stroke-miterlimit="10" x1="1609.413" y1="710.16" x2="1485.132" y2="710.16"/>
	<line fill="none" stroke="#6B989F" stroke-miterlimit="10" x1="1705.132" y1="686.827" x2="1940.413" y2="686.827"/>
	
		<line fill="none" stroke="#6B989F" stroke-width="0.7797" stroke-miterlimit="10" x1="1705.132" y1="710.16" x2="1829.413" y2="710.16"/>
	<polygon fill="#FFB81A" points="1691.222,671.25 1693.361,670.333 1683.316,665.074 1682.373,666.618 	"/>
	<polygon fill="#FFB81A" points="1696.707,691.367 1698.513,691.583 1698.513,681.06 1696.707,682.042 	"/>
	<polygon fill="#FFB81A" points="1698.513,703.805 1696.707,703.761 1696.707,713.803 1698.513,715.151 	"/>
	<polygon fill="#FFB81A" points="1671.312,660.828 1672.406,659.364 1663.694,654.804 1663.646,656.814 	"/>
	<polygon fill="#FFB81A" points="1617.666,703.449 1615.859,703.235 1615.859,714.267 1617.666,713.284 	"/>
	<polygon fill="#FFB81A" points="1623.998,670.808 1632.372,666.424 1631.658,664.761 1622.201,669.71 	"/>
	<polygon fill="#FFB81A" points="1643.361,660.671 1651.404,656.461 1651.662,654.288 1642.498,659.085 	"/>
	<polygon fill="#FFB81A" points="1615.859,679.775 1615.859,691.027 1617.666,691.072 1617.666,681.125 	"/>
	<path fill="#FFFFFF" d="M1652.803,659.984l6.115-4.312l-1.952,16.062l2.232,0.22c0.812,0.06,1.592,0.361,2.245,0.847l0.606-24.8
		l-4.562,3.783l1.771-26.329l-4.562,3.791l1.598-24.646l-6.076,32.806l5.834-4.854L1652.803,659.984z"/>
	<path fill="#FFFFFF" d="M1679.569,662.09l-10.419,13.86c1.076,0.188,2.024,0.754,2.701,1.627c0.355,0.476,0.604,1.011,0.752,1.573
		l13.521-22.143l-5.845,0.995l14.705-21.913l-5.854,1.002l13.705-20.545l-21.664,25.364l7.479-1.277l-16.536,22.122L1679.569,662.09
		z"/>
	<path fill="#FFFFFF" d="M1687.457,674.83l6.789,3.141l-13.776,5.868c0,0.247-0.013,0.493-0.057,0.744l-0.826,4.731l22.873-12.461
		l-5.558-2.062l23.688-11.625l-5.562-2.056l22.143-10.938l-31.444,11.133l7.113,2.641L1687.457,674.83z"/>
	<path fill="#FFFFFF" d="M1623.794,641.854l10.891,25.391l3.146-6.791l5.677,13.328c0.123-0.017,0.241-0.038,0.366-0.038h3.044
		c0.588,0,1.142,0.107,1.67,0.289l-11.874-21.794l-2.062,5.56l-11.625-23.688l-2.061,5.562l-10.938-22.143l11.135,31.438
		L1623.794,641.854z"/>
	<polygon fill="#FFFFFF" points="1717.289,690.371 1722.135,696.206 1694.707,692.946 1699.017,699.062 1679.148,696.646 
		1679.592,701.532 1706.689,702.202 1702.904,697.639 1729.233,699.416 1725.444,694.854 1750.089,696.452 	"/>
	<polygon fill="#FFFFFF" points="1601.775,673.514 1600.497,666.037 1622.619,682.574 1621.943,675.123 1637.309,686.671 
		1638.401,683.496 1638.401,681.72 1616.869,668.567 1617.865,674.413 1595.952,659.707 1596.955,665.555 1576.41,651.849 	"/>
	<polygon fill="#FFFFFF" points="1713.64,722.189 1714.918,729.666 1692.795,713.131 1693.47,720.582 1680.27,710.66 
		1677.666,714.384 1698.544,727.137 1697.55,721.292 1719.462,735.997 1718.461,730.149 1739.005,743.855 	"/>
	<polygon fill="#FFFFFF" points="1619.434,717.734 1637.798,709.911 1635.043,705.872 1611.219,718.851 1616.778,720.913 
		1593.088,732.535 1598.651,734.593 1576.51,745.531 1607.955,734.396 1600.841,731.766 1626.224,720.876 	"/>
	<polygon fill="#FFFFFF" points="1592.413,698.631 1619.84,701.891 1615.53,695.773 1633.429,697.949 1635.025,693.308 
		1607.858,692.635 1611.642,697.199 1585.312,695.421 1589.104,699.983 1564.46,698.386 1597.258,704.467 	"/>
	<path fill="#FFB81A" d="M1689.226,723.56l-16.286,8.525l-0.062-9.26l8.196-11.729l-1.575-17.361l1.588-9.098
		c0.405-2.33-1.08-4.567-3.387-5.104l-1.196-0.279c-1.115-0.261-2.293-0.054-3.277,0.531c-0.067-0.83-0.364-1.627-0.892-2.311
		c-0.729-0.95-1.789-1.562-2.979-1.716l-2.934-0.359c-1.04-0.144-2.062,0.116-2.938,0.68c-0.021-1.021-0.362-1.991-1.03-2.779
		c-0.779-0.924-1.872-1.479-3.056-1.562l-4.116-0.403c-1.229-0.089-2.409,0.315-3.321,1.146c-0.748,0.681-1.213,1.562-1.382,2.534
		c-0.992-0.896-2.294-1.463-3.735-1.463h-3.104c-3.082,0-5.589,2.513-5.589,5.594v4.391l-6.388,18.546l14.1,20.671l-1.854,10.684
		l-19.13-10.014l-2.139,0.917l34.449,18.032l33.836-17.71L1689.226,723.56z M1672.911,683.229c0.104-0.729,0.499-1.359,1.108-1.778
		c0.605-0.418,1.342-0.562,2.062-0.396l1.195,0.28c1.354,0.312,2.225,1.628,1.979,2.994l-1.831,10.486
		c-2.135,0.35-4.141,0.146-6.102-0.612L1672.911,683.229z M1676.681,696.892c-0.604,1.437-1.443,3.375-1.803,4.122
		c-0.416,0.895-1.549,1.748-2.723,1.605l-0.874-0.093c-0.619-0.065-1.167-0.403-1.501-0.938c-0.336-0.521-0.411-1.16-0.212-1.749
		l1.299-3.812C1672.877,696.854,1674.804,697.142,1676.681,696.892z M1663.268,679.569c0.069-0.707,0.412-1.349,0.977-1.785
		c0.555-0.444,1.254-0.646,1.959-0.562l2.925,0.37c0.698,0.086,1.321,0.444,1.748,1.003c0.43,0.562,0.612,1.261,0.515,1.952
		l-1.894,13.521c-2.563,0.751-4.996,0.494-7.562-0.809L1663.268,679.569z M1661.836,695.361c2.309,1.146,4.659,1.438,7.012,0.872
		l-1.021,3.018c-0.002,0.003-0.001,0.006-0.005,0.011l-0.327,0.965c-0.354,1.037-1.385,1.664-2.479,1.481l-1.894-0.312
		c-0.817-0.143-1.417-0.86-1.396-1.688L1661.836,695.361z M1652.345,675.718c0.021-0.724,0.32-1.389,0.856-1.874
		c0.534-0.479,1.224-0.716,1.938-0.674l4.104,0.402c0.707,0.053,1.348,0.379,1.807,0.92c0.455,0.539,0.671,1.226,0.604,1.93
		l-1.562,16.6c-2.692,0.479-4.6,0.23-6.938-0.571c1.008-0.399,2.016-0.979,2.896-1.79c1.812-1.684,2.729-4.021,2.729-6.977v-0.923
		h-6.354v-3.616c0-0.416-0.054-0.812-0.14-1.208L1652.345,675.718z M1660.047,700.789c-1.77-1.735-4.336-3.008-7.995-3.572
		l-0.071-3.133l-0.022-0.128c1.938,0.719,3.674,1.146,5.618,1.146c0.758,0,1.568-0.089,2.434-0.22l-0.122,4.773
		C1659.87,700.05,1659.934,700.429,1660.047,700.789z M1639.989,679.145c0-2.062,1.678-3.737,3.743-3.737h3.104
		c1.729,0,3.165,1.179,3.604,2.767l-0.108,4.596h-10.343V679.145z M1645.722,734.329l2.079-12.003l-13.993-20.523l5.915-17.188
		h17.188c-0.162,1.973-0.864,3.546-2.089,4.687c-2.688,2.501-7.097,2.216-7.143,2.209l-1.062-0.078l0.079,1.067
		c0.109,1.541,0.226,4.288,0.021,5.09l-0.288,1.146h1.188c11.646,0,14.247,5.471,14.562,13.681c0.021,0.496,0.434,0.888,0.921,0.888
		c0.02,0,0.022,0,0.036-0.002c0.51-0.02,0.904-0.446,0.891-0.958c-0.134-3.38-0.646-6.785-2.36-9.54
		c0.354,0.203,0.746,0.354,1.166,0.418l1.896,0.314c0.229,0.037,0.451,0.056,0.675,0.056c1.056,0,2.038-0.406,2.78-1.104
		c0.021,0.038,0.03,0.075,0.061,0.107c0.639,1.001,1.682,1.646,2.857,1.771l0.875,0.093c0.146,0.021,0.293,0.023,0.438,0.023
		c1.896,0,3.501-1.307,4.146-2.688c0.312-0.675,0.994-2.24,1.572-3.586l1.055,12.387l-8.146,11.65l0.069,10.798l-7.089,3.709v-8.248
		c0-0.511-0.409-0.924-0.924-0.924c-0.512,0-0.922,0.413-0.922,0.924v9.213l-4.979,2.609L1645.722,734.329z M1648.594,693.355
		c0.479-0.021,1.094-0.066,1.778-0.178l-0.031,3.826c-0.552-0.047-1.101-0.096-1.696-0.105
		C1648.705,695.783,1648.646,694.324,1648.594,693.355z"/>
</g>
<g id="chapter-progress-chapter">
	<path id="_x3E_teal_4_" fill="#6B989F" d="M219.827,357.388l5,2.683v5.842l-5,2.676l-5-2.676v-5.842L219.827,357.388
		 M219.827,353.985l-8,4.275v9.438l8,4.282l8-4.282v-9.438L219.827,353.985L219.827,353.985z"/>
</g>
<g id="chapter-progress-slide">
	<rect x="232.254" y="358.485" fill="#6B989F" width="9" height="9"/>
</g>
<g id="chapter-progress-quiz">
	<polygon id="_x3E_teal_2_" fill="#6B989F" points="276.282,372.097 270.364,375.169 259.114,369.329 259.114,356.642 
		262.769,354.745 260.946,352.874 256.614,355.123 256.614,370.848 270.364,377.985 278.72,373.647 	"/>
	<polygon id="_x3E_teal_1_" fill="#6B989F" points="270.364,347.985 264.015,351.281 266.486,352.815 270.364,350.802 
		281.614,356.642 281.614,369.329 279.792,370.274 281.681,372.11 284.114,370.848 284.114,355.123 	"/>
	<g>
		<polygon fill="#F9773E" points="260.364,350.485 273.278,358.504 269.32,358.502 280.079,367.696 275.414,367.764 
			282.269,374.425 268.5,365.663 273.675,365.568 262.175,356.717 266.309,356.588 		"/>
	</g>
</g>
<g id="chapter-progress-duties">
	<circle id="_x3E_teal" fill="#6B989F" cx="248.758" cy="362.985" r="4.5"/>
</g>
<g id="closed-caption-btn">
	<path fill="#262626" d="M971.302,67.434c1.692,0,3.068,1.376,3.068,3.068v7.863c0,1.692-1.376,3.068-3.068,3.068h-13.081
		c-1.688,0-3.062-1.376-3.062-3.068v-7.863c0-1.692,1.376-3.068,3.062-3.068H971.302 M971.302,64.434h-13.081
		c-3.352,0-6.062,2.717-6.062,6.068v7.863c0,3.352,2.716,6.068,6.062,6.068h13.081c3.354,0,6.068-2.717,6.068-6.068v-7.863
		C977.37,67.15,974.653,64.434,971.302,64.434L971.302,64.434z"/>
	<path fill="#262626" d="M963.304,78.277c-0.565,0.234-0.896,0.312-1.391,0.312c-1.053,0-2.002-0.469-2.652-1.313
		c-0.604-0.793-0.909-1.819-0.909-3.146c0-1.456,0.363-2.549,1.137-3.381c0.695-0.754,1.625-1.144,2.699-1.144
		c0.455,0,0.739,0.052,1.155,0.208v2.482c-0.39-0.39-0.663-0.52-1.079-0.52c-0.942,0-1.521,0.871-1.521,2.314
		c0,1.403,0.546,2.235,1.481,2.235c0.438,0,0.755-0.143,1.223-0.559L963.304,78.277z"/>
	<path fill="#262626" d="M970.337,78.277c-0.571,0.234-0.896,0.312-1.391,0.312c-1.059,0-2.002-0.469-2.652-1.313
		c-0.61-0.793-0.91-1.819-0.91-3.146c0-1.456,0.364-2.549,1.132-3.381c0.701-0.754,1.625-1.144,2.704-1.144
		c0.455,0,0.74,0.052,1.156,0.208v2.482c-0.39-0.39-0.663-0.52-1.079-0.52c-0.947,0-1.521,0.871-1.521,2.314
		c0,1.403,0.546,2.235,1.479,2.235c0.441,0,0.754-0.143,1.228-0.559L970.337,78.277z"/>
</g>
<g id="playhead">
	<path fill="#FFB81A" d="M304.555,354.85l-8,4.282v9.438l8,4.277l8-4.277v-9.438L304.555,354.85L304.555,354.85z"/>
	<polygon fill="#6B989F" points="299.594,366.764 299.594,360.935 304.555,358.279 309.516,360.935 309.516,366.764 304.555,369.42 
			"/>
</g>
<g id="pause-btn">
	<g>
		<path fill="#6B989F" d="M334.255,351.787l11,5.604v12.054l-11,5.604l-11-5.604v-12.054L334.255,351.787 M334.255,348.42l-14,7.138
			v15.729l14,7.138l14-7.138v-15.729L334.255,348.42L334.255,348.42z"/>
	</g>
	<g id="_x3E_pause">
		<g>
			<rect x="329.755" y="357.42" fill="#FFB81A" width="3" height="12"/>
		</g>
		<g>
			<rect x="335.755" y="357.42" fill="#FFB81A" width="3" height="12"/>
		</g>
	</g>
	<g id="_x3E_play">
		<polygon fill="#FFB81A" points="330.925,369.413 330.925,357.169 339.225,363.291 		"/>
	</g>
	<g id="_x3E_replay">
		<path fill="none" stroke="#FFB81A" stroke-width="2.4838" stroke-miterlimit="10" d="M334.074,357.53
			c3.182,0,5.761,2.58,5.761,5.761s-2.579,5.761-5.761,5.761c-3.182,0-5.761-2.58-5.761-5.761"/>
		<polygon fill="#FFB81A" points="335.561,361.265 330.805,357.352 335.561,354.224 		"/>
	</g>
</g>
<g id="finished-exploring">
	<rect x="687.364" y="286.992" fill="none" stroke="#F9773E" stroke-miterlimit="10" width="276.083" height="20.854"/>
	<path fill="#FFFFFF" d="M696.417,292.827h1.821l-1.149,9.343h-1.821L696.417,292.827z"/>
	<path fill="#FFFFFF" d="M701.64,292.183h1.835l-2.297,3.782h-1.219L701.64,292.183z"/>
	<path fill="#FFFFFF" d="M704.859,295.908h1.723l-0.112,1.009c0.52-0.784,1.037-1.135,1.653-1.135c0.574,0,0.882,0.351,0.952,1.079
		c0.448-0.687,1.021-1.079,1.597-1.079c0.603,0,0.952,0.421,0.952,1.163c0,0.14-0.028,0.476-0.056,0.742l-0.562,4.482h-1.723
		l0.434-3.544c0.028-0.267,0.057-0.532,0.057-0.658c0-0.267-0.126-0.435-0.336-0.435c-0.168,0-0.322,0.099-0.42,0.28
		c-0.07,0.126-0.099,0.238-0.169,0.812l-0.434,3.544h-1.723l0.447-3.656c0.028-0.21,0.042-0.42,0.042-0.504
		c0-0.294-0.111-0.448-0.321-0.448c-0.196,0-0.394,0.14-0.478,0.351c-0.042,0.084-0.069,0.321-0.111,0.602l-0.462,3.656h-1.724
		L704.859,295.908z"/>
	<path fill="#FFFFFF" d="M717.991,292.827h3.67l-0.21,1.723h-1.85l-0.252,1.989h1.667l-0.21,1.778h-1.667l-0.477,3.853h-1.821
		L717.991,292.827z"/>
	<path fill="#FFFFFF" d="M723.227,295.908h1.724l-0.771,6.262h-1.723L723.227,295.908z M723.255,294.186
		c0-0.672,0.588-1.247,1.247-1.247c0.532,0,0.953,0.421,0.953,0.967c0,0.673-0.574,1.261-1.247,1.261
		C723.661,295.166,723.255,294.746,723.255,294.186z"/>
	<path fill="#FFFFFF" d="M727.048,295.908h1.724l-0.112,0.98c0.477-0.77,0.967-1.106,1.61-1.106c0.631,0,0.952,0.393,0.952,1.163
		c0,0.154-0.027,0.476-0.098,1.036l-0.518,4.188h-1.724l0.436-3.572c0.027-0.28,0.056-0.518,0.056-0.644
		c0-0.267-0.126-0.406-0.336-0.406c-0.196,0-0.35,0.126-0.448,0.336c-0.07,0.14-0.07,0.196-0.14,0.714l-0.448,3.572h-1.723
		L727.048,295.908z"/>
	<path fill="#FFFFFF" d="M733.46,295.908h1.723l-0.771,6.262h-1.723L733.46,295.908z M733.488,294.186
		c0-0.672,0.588-1.247,1.247-1.247c0.531,0,0.952,0.421,0.952,0.967c0,0.673-0.573,1.261-1.246,1.261
		C733.895,295.166,733.488,294.746,733.488,294.186z"/>
	<path fill="#FFFFFF" d="M737.226,300.335c0.309,0.294,0.519,0.393,0.799,0.393c0.35,0,0.615-0.253,0.615-0.589
		c0-0.21-0.111-0.322-0.489-0.546c-0.953-0.547-1.22-0.925-1.22-1.695c0-1.219,0.968-2.115,2.298-2.115
		c0.63,0,1.063,0.154,1.582,0.547l-0.854,1.274c-0.308-0.336-0.477-0.435-0.756-0.435c-0.294,0-0.504,0.225-0.504,0.519
		c0,0.21,0.111,0.309,0.588,0.574c0.756,0.42,1.063,0.868,1.063,1.527c0,1.414-0.979,2.507-2.269,2.507
		c-0.645,0-1.205-0.224-1.765-0.714L737.226,300.335z"/>
	<path fill="#FFFFFF" d="M743.064,292.183h1.723l-0.575,4.706c0.478-0.77,0.967-1.106,1.611-1.106c0.63,0,0.952,0.393,0.952,1.163
		c0,0.154-0.028,0.476-0.099,1.036l-0.518,4.188h-1.724l0.436-3.572c0.028-0.28,0.056-0.518,0.056-0.644
		c0-0.267-0.126-0.406-0.336-0.406c-0.195,0-0.35,0.126-0.448,0.336c-0.069,0.14-0.069,0.196-0.14,0.714l-0.448,3.572h-1.723
		L743.064,292.183z"/>
	<path fill="#FFFFFF" d="M752.614,300.237c-0.183,0.574-0.28,0.798-0.462,1.106c-0.364,0.602-1.008,0.952-1.766,0.952
		c-1.232,0-2.003-0.91-2.003-2.367c0-2.367,1.177-4.146,2.761-4.146c1.12,0,1.793,0.841,1.793,2.241
		c0,0.477-0.042,0.854-0.168,1.485h-2.731c-0.028,0.322-0.042,0.49-0.042,0.658c0,0.561,0.168,0.826,0.533,0.826
		c0.35,0,0.546-0.238,0.616-0.756L752.614,300.237L752.614,300.237z M751.438,298.43c0.027-0.196,0.041-0.322,0.041-0.476
		c0-0.547-0.182-0.841-0.504-0.841c-0.42,0-0.714,0.504-0.784,1.316L751.438,298.43L751.438,298.43z"/>
	<path fill="#FFFFFF" d="M757.079,301.455c-0.378,0.575-0.771,0.841-1.233,0.841c-0.854,0-1.345-0.841-1.345-2.325
		c0-1.135,0.28-2.409,0.672-3.138c0.378-0.687,0.869-1.051,1.457-1.051c0.49,0,0.827,0.294,1.037,0.896l0.546-4.496h1.737
		l-1.233,9.987h-1.723L757.079,301.455z M757.541,298.317c0-0.644-0.14-0.952-0.42-0.966c-0.462-0.028-0.869,1.093-0.869,2.381
		c0,0.631,0.168,0.995,0.448,0.995C757.163,300.728,757.541,299.648,757.541,298.317z"/>
	<path fill="#FFFFFF" d="M765.688,292.827h1.821l-1.148,9.343h-1.821L765.688,292.827z"/>
	<path fill="#FFFFFF" d="M769.369,295.908h1.723l-0.111,0.98c0.477-0.77,0.967-1.106,1.61-1.106c0.63,0,0.953,0.393,0.953,1.163
		c0,0.154-0.028,0.476-0.098,1.036l-0.519,4.188h-1.723l0.435-3.572c0.028-0.28,0.057-0.518,0.057-0.644
		c0-0.267-0.126-0.406-0.336-0.406c-0.196,0-0.351,0.126-0.448,0.336c-0.07,0.14-0.07,0.196-0.14,0.714l-0.448,3.572h-1.724
		L769.369,295.908z"/>
	<path fill="#FFFFFF" d="M775.726,300.335c0.309,0.294,0.519,0.393,0.799,0.393c0.35,0,0.615-0.253,0.615-0.589
		c0-0.21-0.111-0.322-0.489-0.546c-0.953-0.547-1.22-0.925-1.22-1.695c0-1.219,0.968-2.115,2.298-2.115
		c0.63,0,1.063,0.154,1.582,0.547l-0.854,1.274c-0.308-0.336-0.477-0.435-0.756-0.435c-0.294,0-0.504,0.225-0.504,0.519
		c0,0.21,0.111,0.309,0.588,0.574c0.756,0.42,1.063,0.868,1.063,1.527c0,1.414-0.979,2.507-2.269,2.507
		c-0.645,0-1.205-0.224-1.765-0.714L775.726,300.335z"/>
	<path fill="#FFFFFF" d="M781.732,305.252h-1.724l1.148-9.344h1.723l-0.084,0.771c0.351-0.603,0.756-0.896,1.261-0.896
		c0.868,0,1.316,0.771,1.316,2.241c0,2.409-0.938,4.272-2.143,4.272c-0.477,0-0.784-0.252-1.022-0.841L781.732,305.252z
		 M783.609,298.346c0-0.63-0.168-0.994-0.448-0.994c-0.448,0-0.827,1.078-0.827,2.396c0,0.644,0.14,0.98,0.42,0.98
		C783.216,300.728,783.609,299.635,783.609,298.346z"/>
	<path fill="#FFFFFF" d="M791.197,300.237c-0.183,0.574-0.28,0.798-0.462,1.106c-0.364,0.602-1.009,0.952-1.766,0.952
		c-1.232,0-2.003-0.91-2.003-2.367c0-2.367,1.178-4.146,2.76-4.146c1.121,0,1.794,0.841,1.794,2.241
		c0,0.477-0.042,0.854-0.169,1.485h-2.73c-0.028,0.322-0.042,0.49-0.042,0.658c0,0.561,0.168,0.826,0.532,0.826
		c0.35,0,0.546-0.238,0.615-0.756L791.197,300.237L791.197,300.237z M790.021,298.43c0.027-0.196,0.041-0.322,0.041-0.476
		c0-0.547-0.182-0.841-0.504-0.841c-0.42,0-0.714,0.504-0.784,1.316L790.021,298.43L790.021,298.43z"/>
	<path fill="#FFFFFF" d="M796.012,302.072c-0.434,0.168-0.658,0.224-1.021,0.224c-1.177,0-1.892-0.952-1.892-2.535
		c0-0.967,0.267-1.976,0.715-2.703c0.546-0.883,1.19-1.275,2.101-1.275c0.336,0,0.504,0.042,0.854,0.183l-0.195,1.526
		c-0.154-0.154-0.252-0.196-0.462-0.196c-0.714,0-1.233,0.911-1.233,2.144c0,0.826,0.252,1.219,0.785,1.219
		c0.196,0,0.322-0.042,0.546-0.183L796.012,302.072z"/>
	<path fill="#FFFFFF" d="M798.671,297.352h-0.588l0.182-1.443h0.589l0.21-1.723h1.723l-0.21,1.723h0.701l-0.168,1.443h-0.7
		l-0.604,4.818h-1.723L798.671,297.352z"/>
	<path fill="#FFFFFF" d="M802.829,295.908h1.723l-0.771,6.262h-1.724L802.829,295.908z M802.857,294.186
		c0-0.672,0.588-1.247,1.246-1.247c0.532,0,0.953,0.421,0.953,0.967c0,0.673-0.574,1.261-1.247,1.261
		C803.263,295.166,802.857,294.746,802.857,294.186z"/>
	<path fill="#FFFFFF" d="M806.65,295.908h1.723l-0.112,0.98c0.478-0.77,0.968-1.106,1.611-1.106c0.63,0,0.953,0.393,0.953,1.163
		c0,0.154-0.028,0.476-0.099,1.036l-0.518,4.188h-1.723l0.435-3.572c0.028-0.28,0.056-0.518,0.056-0.644
		c0-0.267-0.125-0.406-0.336-0.406c-0.195,0-0.35,0.126-0.447,0.336c-0.07,0.14-0.07,0.196-0.141,0.714l-0.447,3.572h-1.724
		L806.65,295.908z"/>
	<path fill="#FFFFFF" d="M813.609,302.996v0.154c0,0.462,0.182,0.7,0.531,0.7c0.49,0,0.729-0.392,0.854-1.513l0.112-0.952
		c-0.519,0.729-0.784,0.91-1.262,0.91c-0.854,0-1.387-0.91-1.387-2.339c0-1.022,0.268-2.283,0.659-3.068
		c0.364-0.728,0.868-1.106,1.442-1.106c0.532,0,0.841,0.252,1.135,0.883l0.084-0.757h1.736l-0.841,6.808
		c-0.112,0.883-0.237,1.233-0.602,1.667c-0.49,0.589-1.22,0.896-2.073,0.896c-1.232,0-1.919-0.688-1.919-1.919
		c0-0.112,0-0.224,0.014-0.364H813.609L813.609,302.996z M815.514,298.346c0-0.672-0.126-0.98-0.42-0.994
		c-0.462-0.028-0.869,1.093-0.869,2.354c0,0.63,0.168,0.994,0.448,0.994C815.136,300.699,815.514,299.635,815.514,298.346z"/>
	<path fill="#FFFFFF" d="M825.131,301.455c-0.378,0.575-0.771,0.841-1.232,0.841c-0.854,0-1.346-0.841-1.346-2.325
		c0-1.135,0.28-2.409,0.672-3.138c0.379-0.687,0.869-1.051,1.457-1.051c0.49,0,0.827,0.294,1.037,0.896l0.099-0.771h1.724
		l-0.771,6.262h-1.723L825.131,301.455z M825.594,298.317c0-0.644-0.14-0.952-0.42-0.966c-0.462-0.028-0.869,1.093-0.869,2.381
		c0,0.631,0.168,0.995,0.448,0.995C825.215,300.728,825.594,299.648,825.594,298.317z"/>
	<path fill="#FFFFFF" d="M829.625,295.908h1.723l-0.111,0.98c0.477-0.77,0.967-1.106,1.61-1.106c0.63,0,0.952,0.393,0.952,1.163
		c0,0.154-0.027,0.476-0.098,1.036l-0.52,4.188h-1.723l0.434-3.572c0.028-0.28,0.058-0.518,0.058-0.644
		c0-0.267-0.126-0.406-0.337-0.406c-0.195,0-0.35,0.126-0.447,0.336c-0.07,0.14-0.07,0.196-0.141,0.714l-0.448,3.572h-1.724
		L829.625,295.908z"/>
	<path fill="#FFFFFF" d="M838.039,301.455c-0.378,0.575-0.77,0.841-1.232,0.841c-0.854,0-1.345-0.841-1.345-2.325
		c0-1.135,0.28-2.409,0.673-3.138c0.378-0.687,0.868-1.051,1.456-1.051c0.491,0,0.827,0.294,1.037,0.896l0.546-4.496h1.737
		l-1.232,9.987h-1.724L838.039,301.455z M838.502,298.317c0-0.644-0.141-0.952-0.42-0.966c-0.463-0.028-0.869,1.093-0.869,2.381
		c0,0.631,0.168,0.995,0.448,0.995C838.124,300.728,838.502,299.648,838.502,298.317z"/>
	<path fill="#FFFFFF" d="M846.662,292.827h1.976c0.938,0,1.526,0.126,1.946,0.434c0.52,0.393,0.827,1.079,0.827,1.892
		c0,1.204-0.547,2.143-1.625,2.76l1.078,4.258h-1.919l-1.078-4.314l-0.532,4.314h-1.821L846.662,292.827z M848.273,296.861
		c0.825,0,1.357-0.603,1.357-1.555c0-0.477-0.14-0.785-0.435-0.925c-0.153-0.084-0.252-0.099-0.896-0.099l-0.308,2.55
		C848.119,296.847,848.217,296.861,848.273,296.861z"/>
	<path fill="#FFFFFF" d="M857.023,300.237c-0.183,0.574-0.28,0.798-0.463,1.106c-0.363,0.602-1.009,0.952-1.766,0.952
		c-1.232,0-2.003-0.91-2.003-2.367c0-2.367,1.177-4.146,2.76-4.146c1.12,0,1.793,0.841,1.793,2.241c0,0.477-0.042,0.854-0.168,1.485
		h-2.73c-0.028,0.322-0.042,0.49-0.042,0.658c0,0.561,0.168,0.826,0.531,0.826c0.351,0,0.547-0.238,0.616-0.756L857.023,300.237
		L857.023,300.237z M855.847,298.43c0.028-0.196,0.042-0.322,0.042-0.476c0-0.547-0.182-0.841-0.504-0.841
		c-0.42,0-0.715,0.504-0.784,1.316L855.847,298.43L855.847,298.43z"/>
	<path fill="#FFFFFF" d="M861.488,301.455c-0.378,0.575-0.771,0.841-1.232,0.841c-0.854,0-1.345-0.841-1.345-2.325
		c0-1.135,0.28-2.409,0.673-3.138c0.378-0.687,0.868-1.051,1.456-1.051c0.491,0,0.827,0.294,1.037,0.896l0.098-0.771h1.724
		l-0.771,6.262h-1.724L861.488,301.455z M861.951,298.317c0-0.644-0.141-0.952-0.42-0.966c-0.463-0.028-0.869,1.093-0.869,2.381
		c0,0.631,0.168,0.995,0.448,0.995C861.573,300.728,861.951,299.648,861.951,298.317z"/>
	<path fill="#FFFFFF" d="M867.956,301.455c-0.378,0.575-0.771,0.841-1.232,0.841c-0.854,0-1.345-0.841-1.345-2.325
		c0-1.135,0.28-2.409,0.673-3.138c0.378-0.687,0.868-1.051,1.456-1.051c0.49,0,0.827,0.294,1.037,0.896l0.546-4.496h1.737
		l-1.232,9.987h-1.724L867.956,301.455z M868.419,298.317c0-0.644-0.141-0.952-0.421-0.966c-0.462-0.028-0.868,1.093-0.868,2.381
		c0,0.631,0.168,0.995,0.448,0.995C868.041,300.728,868.419,299.648,868.419,298.317z"/>
	<path fill="#FFFFFF" d="M871.903,295.908h1.724l0.321,2.283c0.099,0.715,0.112,1.149,0.112,1.289l1.246-3.572h1.736l-3.796,9.344
		h-1.681l1.387-3.208L871.903,295.908z"/>
	<path fill="#FFFFFF" d="M882.081,297.352h-0.588l0.182-1.443h0.589l0.21-1.723h1.724l-0.21,1.723h0.7l-0.168,1.443h-0.7
		l-0.604,4.818h-1.723L882.081,297.352z"/>
	<path fill="#FFFFFF" d="M885.637,299.69c0-0.84,0.225-1.778,0.588-2.479c0.478-0.924,1.262-1.429,2.199-1.429
		c1.262,0,1.977,0.854,1.977,2.396c0,2.508-1.094,4.118-2.773,4.118C886.323,302.296,885.637,301.386,885.637,299.69z
		 M888.634,298.317c0-0.644-0.14-0.966-0.405-0.966c-0.463,0-0.854,1.106-0.854,2.381c0,0.631,0.153,0.995,0.434,0.995
		C888.271,300.728,888.634,299.635,888.634,298.317z"/>
	<path fill="#FFFFFF" d="M897.215,292.827h2.382l0.238,5.519l1.4-5.519h2.45l-0.182,9.343h-1.863l0.364-6.724
		c-0.153,0.771-0.28,1.261-0.546,2.157l-1.359,4.566H898.7l-0.336-4.244c-0.028-0.322-0.07-1.345-0.07-1.583
		c0-0.252,0-0.309,0.028-0.896l-1.107,6.724h-1.961L897.215,292.827z"/>
	<path fill="#FFFFFF" d="M905.602,299.69c0-0.84,0.224-1.778,0.588-2.479c0.477-0.924,1.261-1.429,2.198-1.429
		c1.261,0,1.977,0.854,1.977,2.396c0,2.508-1.093,4.118-2.773,4.118C906.287,302.296,905.602,301.386,905.602,299.69z
		 M908.598,298.317c0-0.644-0.14-0.966-0.405-0.966c-0.462,0-0.854,1.106-0.854,2.381c0,0.631,0.153,0.995,0.434,0.995
		C908.234,300.728,908.598,299.635,908.598,298.317z"/>
	<path fill="#FFFFFF" d="M911.9,295.908h1.709l0.336,2.773c0.027,0.211,0.027,0.364,0.057,0.771c0.084-0.252,0.112-0.35,0.196-0.574
		l0.084-0.196l0.979-2.773h1.778l-2.549,6.262h-1.583L911.9,295.908z"/>
	<path fill="#FFFFFF" d="M921.996,300.237c-0.182,0.574-0.28,0.798-0.462,1.106c-0.364,0.602-1.009,0.952-1.767,0.952
		c-1.231,0-2.003-0.91-2.003-2.367c0-2.367,1.178-4.146,2.761-4.146c1.119,0,1.793,0.841,1.793,2.241
		c0,0.477-0.042,0.854-0.168,1.485h-2.731c-0.028,0.322-0.042,0.49-0.042,0.658c0,0.561,0.168,0.826,0.532,0.826
		c0.35,0,0.546-0.238,0.616-0.756L921.996,300.237L921.996,300.237z M920.819,298.43c0.027-0.196,0.042-0.322,0.042-0.476
		c0-0.547-0.183-0.841-0.504-0.841c-0.42,0-0.716,0.504-0.784,1.316L920.819,298.43L920.819,298.43z"/>
	<path fill="#FFFFFF" d="M927.776,298.794c0-1.555,0.363-3.222,0.924-4.202c0.687-1.177,1.835-1.919,2.998-1.919
		c0.896,0,1.778,0.519,2.213,1.316c0.351,0.616,0.49,1.233,0.49,2.186c0,1.61-0.351,3.235-0.925,4.23
		c-0.687,1.19-1.835,1.919-3.012,1.919c-0.883,0-1.779-0.532-2.199-1.317C927.916,300.377,927.776,299.747,927.776,298.794z
		 M931.824,299.648c0.393-0.784,0.645-2.186,0.645-3.487c0-1.093-0.393-1.793-0.994-1.793c-0.405,0-0.841,0.363-1.106,0.896
		c-0.393,0.784-0.645,2.171-0.645,3.459c0,1.121,0.393,1.821,0.994,1.821C931.124,300.545,931.559,300.181,931.824,299.648z"/>
	<path fill="#FFFFFF" d="M936.624,295.908h1.723l-0.111,0.98c0.477-0.77,0.967-1.106,1.61-1.106c0.631,0,0.952,0.393,0.952,1.163
		c0,0.154-0.028,0.476-0.098,1.036l-0.519,4.188h-1.724l0.435-3.572c0.027-0.28,0.057-0.518,0.057-0.644
		c0-0.267-0.126-0.406-0.336-0.406c-0.196,0-0.352,0.126-0.449,0.336c-0.068,0.14-0.068,0.196-0.14,0.714l-0.448,3.572h-1.723
		L936.624,295.908z"/>
	<polygon fill="#F9773E" points="948.314,302.875 948.314,291.677 955.314,297.275 	"/>
</g>
<g id="closed-caption-big">
	<path fill="#FFB81A" d="M541.447,470.602c1.692,0,3.068,1.376,3.068,3.067v40.381c0,1.692-1.376,3.068-3.068,3.068h-54.082
		c-1.69,0-3.067-1.376-3.067-3.068v-40.381c0-1.691,1.377-3.067,3.067-3.067H541.447 M541.447,467.602h-54.082
		c-3.351,0-6.067,2.717-6.067,6.067v40.381c0,3.353,2.717,6.068,6.067,6.068h54.082c3.352,0,6.068-2.716,6.068-6.068v-40.381
		C547.516,470.318,544.799,467.602,541.447,467.602"/>
	<path fill="#FFB81A" d="M510.579,503.955c-1.502,0.614-2.355,0.818-3.652,0.818c-2.765,0-5.257-1.229-6.964-3.447
		c-1.604-2.082-2.389-4.778-2.389-8.26c0-3.823,0.955-6.69,2.97-8.875c1.843-1.98,4.267-3.004,7.1-3.004
		c1.194,0,1.945,0.137,3.038,0.546v6.52c-1.024-1.023-1.741-1.365-2.834-1.365c-2.491,0-3.993,2.287-3.993,6.076
		c0,3.687,1.434,5.871,3.892,5.871c1.16,0,1.979-0.376,3.208-1.468L510.579,503.955z"/>
	<path fill="#FFB81A" d="M529.047,503.955c-1.502,0.614-2.355,0.818-3.652,0.818c-2.765,0-5.257-1.229-6.964-3.447
		c-1.604-2.082-2.389-4.778-2.389-8.26c0-3.823,0.955-6.69,2.97-8.875c1.843-1.98,4.267-3.004,7.1-3.004
		c1.194,0,1.945,0.137,3.038,0.546v6.52c-1.024-1.023-1.741-1.365-2.834-1.365c-2.491,0-3.993,2.287-3.993,6.076
		c0,3.687,1.434,5.871,3.892,5.871c1.16,0,1.979-0.376,3.208-1.468L529.047,503.955z"/>
</g>
</svg>
