<?xml version="1.0" standalone="no"?>
<!DOCTYPE svg PUBLIC "-//W3C//DTD SVG 1.1//EN" "http://www.w3.org/Graphics/SVG/1.1/DTD/svg11.dtd" >
<svg xmlns="http://www.w3.org/2000/svg">
<metadata></metadata>
<defs>
<font id="function_proLtCnOb" horiz-adv-x="360" >
<font-face units-per-em="1000" ascent="753" descent="-247" />
<missing-glyph horiz-adv-x="187" />
<glyph unicode="&#xfb01;" horiz-adv-x="344" d="M37 0l50 400h-51l7 53h50l21 168q14 115 98 115q27 0 48 -10l-8 -62q-23 19 -38 19q-19 0 -31 -15q-8 -10 -13 -47l-20 -168h76l-6 -53h-77l-49 -400h-57zM305 545q-16 0 -26.5 10.5t-10.5 26.5q0 20 14 34t34 14q16 0 26.5 -10.5t10.5 -26.5q0 -19 -14.5 -33.5 t-33.5 -14.5zM210 0l56 453h56l-55 -453h-57z" />
<glyph unicode="&#xfb02;" horiz-adv-x="344" d="M37 0l50 400h-51l7 53h50l21 168q14 115 98 115q27 0 48 -10l-8 -62q-23 19 -38 19q-19 0 -31 -15q-8 -12 -13 -47l-20 -168h76l-6 -53h-77l-49 -400h-57zM210 0l90 729h56l-89 -729h-57z" />
<glyph horiz-adv-x="0" />
<glyph horiz-adv-x="333" />
<glyph unicode=" "  horiz-adv-x="187" />
<glyph unicode="&#x09;" horiz-adv-x="187" />
<glyph unicode="&#xa0;" horiz-adv-x="187" />
<glyph unicode="!" horiz-adv-x="233" d="M80 167l61 500h59l-61 -500h-59zM49 33q0 19 15.5 34.5t34.5 15.5q17 0 28 -11.5t11 -27.5q0 -20 -15 -35.5t-35 -15.5q-17 0 -28 11.5t-11 28.5z" />
<glyph unicode="&#x22;" horiz-adv-x="309" d="M218 402l20 265h73l-46 -265h-47zM87 402l19 265h73l-45 -265h-47z" />
<glyph unicode="#" horiz-adv-x="361" d="M23 0l55 220h-75l7 56h83l32 128h-75l7 56h82l52 207h53l-52 -207h67l53 207h53l-52 -207h72l-7 -56h-80l-32 -128h74l-7 -56h-81l-56 -220h-53l56 220h-68l-56 -220h-52zM145 276h68l32 128h-68z" />
<glyph unicode="$" d="M18 49l41 43q48 -44 90 -44q47 0 81.5 38.5t34.5 91.5q0 40 -18.5 64.5t-72.5 59.5q-39 25 -56.5 40t-30.5 35q-26 40 -26 90q0 84 53 139q33 34 89 48l9 77h48l-9 -76q23 -1 51 -12t47 -27l-36 -47q-44 31 -83 31q-48 0 -79.5 -34t-31.5 -86q0 -41 20 -67.5t80 -64.5 q67 -42 85 -76q19 -35 19 -80q0 -73 -44 -130t-109 -68l-11 -85h-48l10 83q-37 7 -59 19t-44 38z" />
<glyph unicode="%" horiz-adv-x="495" d="M131 329q-63 0 -63 104q0 117 39 187q28 52 72 52q59 0 59 -92q0 -53 -10 -110t-26 -88q-26 -53 -71 -53zM60 0l367 667h35l-366 -667h-36zM137 363q26 0 42 55q23 77 23 164q0 56 -28 56q-23 0 -39 -38q-30 -70 -30 -164q0 -73 32 -73zM284 99q0 117 39 187q28 52 72 52 q59 0 59 -92q0 -53 -10 -110t-26 -88q-26 -53 -71 -53q-63 0 -63 104zM321 102q0 -73 32 -73q26 0 42 55q23 77 23 164q0 56 -28 56q-23 0 -39 -38q-30 -70 -30 -164z" />
<glyph unicode="&#x26;" horiz-adv-x="437" d="M311 0l-15 37q-55 -46 -115 -46q-59 0 -98 44t-39 110q0 117 122 219q-41 95 -41 149q0 61 44 105.5t104 44.5q46 0 75 -29.5t29 -76.5q0 -50 -31.5 -95.5t-108.5 -107.5l87 -218q24 24 52 56l35 -42q-22 -27 -66 -69l30 -81h-64zM215 402l7 5q41 29 68.5 70t27.5 73 q0 26 -15.5 42.5t-39.5 16.5q-34 0 -57.5 -26.5t-23.5 -65.5q0 -34 33 -115zM274 90l-87 220q-86 -80 -86 -154q0 -45 24 -74.5t60 -29.5q43 0 89 38z" />
<glyph unicode="'" horiz-adv-x="177" d="M87 402l19 265h73l-45 -265h-47z" />
<glyph unicode="(" horiz-adv-x="257" d="M170 -157l-51 -24q-67 159 -67 349q0 140 48 292.5t132 277.5l45 -24q-88 -146 -128.5 -275.5t-40.5 -265.5q0 -158 62 -330z" />
<glyph unicode=")" horiz-adv-x="257" d="M-8 -157q169 277 169 541q0 161 -62 330l51 24q67 -157 67 -348q0 -142 -48 -294.5t-132 -276.5z" />
<glyph unicode="*" horiz-adv-x="361" d="M141 468l-26 24l81 87l-107 50l15 33l106 -50l15 118l34 -4l-14 -119l115 23l7 -35l-115 -23l56 -104l-30 -17l-57 104z" />
<glyph unicode="+" horiz-adv-x="361" d="M166 191v122h-120v55h120v121h56v-121h120v-55h-120v-122h-56z" />
<glyph unicode="," horiz-adv-x="174" d="M56 83l58 -28l-111 -197l-40 20z" />
<glyph unicode="-" horiz-adv-x="136" d="M-3 202l9 70h136l-9 -70h-136z" />
<glyph unicode="." horiz-adv-x="174" d="M19 33q0 19 15.5 34.5t34.5 15.5q17 0 28 -11.5t11 -27.5q0 -20 -15 -35.5t-35 -15.5q-17 0 -28 11.5t-11 28.5z" />
<glyph unicode="/" horiz-adv-x="402" d="M-5 -173h-57l496 902h56z" />
<glyph unicode="0" d="M151 -9q-55 0 -85 51.5t-30 147.5q0 105 21 213.5t54 170.5q53 102 135 102q107 0 107 -173q0 -107 -21 -225t-51 -182q-50 -105 -130 -105zM162 48q28 0 48 27t38 89q47 164 47 338q0 117 -58 117q-48 0 -82 -81q-26 -65 -42.5 -159t-16.5 -181q0 -150 66 -150z" />
<glyph unicode="1" d="M131 0l75 609h-85l20 58h133l-82 -667h-61z" />
<glyph unicode="2" d="M8 0l170 283q65 109 88 164t23 103q0 32 -16 50.5t-44 18.5q-63 0 -83 -79q-5 -17 -9 -55h-60q10 66 22 95q17 45 53 70.5t82 25.5q54 0 85.5 -33t31.5 -90q0 -50 -26 -118q-22 -57 -95 -174l-125 -202h179l-7 -59h-269z" />
<glyph unicode="3" d="M141 511h-57q10 79 48 122t98 43q52 0 83 -31.5t31 -84.5q0 -148 -96 -191q64 -30 64 -128q0 -118 -42.5 -184t-119.5 -66q-120 0 -120 126q0 29 6 66h60q-4 -36 -4 -55q0 -77 64 -77q52 0 76 59q21 52 21 123q0 105 -95 105h-29l7 55h25q41 0 63 11.5t38 40.5 q22 41 22 102q0 69 -62 69q-48 0 -66 -43q-10 -23 -15 -62z" />
<glyph unicode="4" d="M181 0l22 179h-173l8 63l225 425h60l-53 -431h49l-7 -57h-49l-22 -179h-60zM95 236h115l25 210q3 28 23 123q-16 -44 -52 -114z" />
<glyph unicode="5" d="M23 29l24 61q48 -38 89 -38q49 0 81.5 52.5t32.5 130.5q0 55 -22.5 84t-65.5 29q-41 0 -92 -27l83 346h195l-7 -58h-141l-49 -204q24 3 36 3q58 0 91.5 -44.5t33.5 -121.5q0 -109 -51.5 -180t-130.5 -71q-61 0 -107 38z" />
<glyph unicode="6" d="M314 667l-167 -312q38 23 68 23q46 0 72.5 -37.5t26.5 -101.5q0 -122 -44 -187q-42 -61 -115 -61q-56 0 -87 38t-31 107q0 128 85 289l129 242h63zM164 45q47 0 70 59q22 55 22 133q0 41 -17 64.5t-46 23.5q-42 0 -69 -51t-27 -130q0 -47 17.5 -73t49.5 -26z" />
<glyph unicode="7" d="M30 0l260 609h-189l7 58h270l-284 -667h-64z" />
<glyph unicode="8" d="M34 132q0 91 29 154t80 83q-53 36 -53 110q0 87 43 142t111 55q50 0 78 -33t28 -93q0 -132 -89 -181q57 -34 57 -123q0 -55 -13.5 -107t-34.5 -83q-45 -65 -122 -65q-53 0 -83.5 37.5t-30.5 103.5zM207 397q37 0 60 39.5t23 102.5q0 80 -58 80q-39 0 -61 -37.5 t-22 -104.5q0 -80 58 -80zM158 48q51 0 78 62q24 58 24 135q0 44 -17.5 70t-47.5 26q-44 0 -72.5 -55t-28.5 -141q0 -97 64 -97z" />
<glyph unicode="9" d="M72 0l167 312q-37 -23 -68 -23q-45 0 -71.5 37.5t-26.5 101.5q0 122 44 187q40 61 114 61q56 0 87 -38t31 -106q0 -129 -85 -290l-128 -242h-64zM194 342q42 0 68.5 51t26.5 131q0 47 -17.5 73t-48.5 26q-46 0 -70 -60q-21 -57 -21 -132q0 -41 16.5 -65t45.5 -24z" />
<glyph unicode=":" horiz-adv-x="174" d="M104 370q-17 0 -28 11.5t-11 28.5q0 20 15.5 35t35.5 15q16 0 27.5 -11t11.5 -28q0 -20 -15.5 -35.5t-35.5 -15.5zM19 33q0 19 15.5 34.5t34.5 15.5q17 0 28 -11.5t11 -27.5q0 -20 -15 -35.5t-35 -15.5q-17 0 -28 11.5t-11 28.5z" />
<glyph unicode=";" horiz-adv-x="174" d="M108 370q-17 0 -28 11.5t-11 28.5q0 20 15.5 35t34.5 15q17 0 28 -11.5t11 -28.5q0 -20 -15 -35t-35 -15zM56 83l58 -28l-111 -197l-40 20z" />
<glyph unicode="&#x3c;" horiz-adv-x="500" d="M45 309v53l433 199v-60l-368 -165l368 -166v-59z" />
<glyph unicode="=" d="M46 366v55h296v-55h-296zM46 260v55h296v-55h-296z" />
<glyph unicode="&#x3e;" horiz-adv-x="500" d="M46 110v61l368 165l-368 165v60l433 -199v-53z" />
<glyph unicode="?" horiz-adv-x="327" d="M95 167l26 214h42q31 0 47.5 12t24.5 40q19 72 19 137q0 52 -43 52q-52 0 -62 -82l-5 -42h-59l6 47q17 131 130 131q43 0 68.5 -24.5t25.5 -66.5q0 -68 -21 -154q-24 -101 -121 -104l-20 -160h-58zM66 33q0 19 15 34.5t35 15.5q16 0 27.5 -11.5t11.5 -27.5 q0 -20 -15.5 -35.5t-35.5 -15.5q-16 0 -27 11.5t-11 28.5z" />
<glyph unicode="@" horiz-adv-x="651" d="M543 96l23 -51q-94 -54 -195 -54q-96 0 -169 47q-69 44 -108.5 123.5t-39.5 172.5q0 145 86.5 243.5t213.5 98.5q117 0 196.5 -84.5t79.5 -208.5q0 -97 -45 -167.5t-107 -70.5q-22 0 -40.5 15.5t-23.5 38.5l-3 14q-26 -42 -43.5 -56t-44.5 -14q-49 0 -81 50.5t-32 126.5 q0 82 39 137t97 55q42 0 65 -40l14 -28l7 59h51l-26 -222q-3 -25 -3 -47q0 -39 33 -39q37 0 65.5 55t28.5 126q0 107 -64.5 176.5t-162.5 69.5q-102 0 -172 -83.5t-70 -205.5q0 -79 32.5 -146.5t89.5 -105.5q58 -38 136 -38q89 0 173 53zM325 195q36 0 62.5 45.5t26.5 107.5 q0 49 -18 80.5t-45 31.5q-35 0 -59 -41.5t-24 -102.5q0 -53 16 -87t41 -34z" />
<glyph unicode="A" horiz-adv-x="320" d="M-27 0l211 667h57l50 -667h-65l-8 137h-139l-41 -137h-65zM95 190h120l-15 236q-3 53 -3 79q0 22 4 78q-15 -82 -36 -157z" />
<glyph unicode="B" horiz-adv-x="346" d="M26 0l82 667h96q67 0 93 -22q36 -31 36 -108q0 -96 -43 -151q-19 -25 -61 -44q43 -12 62 -38t19 -73q0 -119 -48 -177q-25 -31 -56.5 -42.5t-89.5 -11.5h-90zM133 372h33q50 0 71 27q34 45 34 144q0 39 -15.5 55t-53.5 16h-40zM94 53h32q70 0 95 48q25 47 25 114 q0 102 -84 102h-36z" />
<glyph unicode="C" horiz-adv-x="315" d="M280 82l-8 -63q-46 -28 -89 -28q-52 0 -92 40q-50 50 -50 170q0 102 23.5 212t57.5 167q59 97 151 97q48 0 77 -22l-8 -68q-42 30 -72 30q-78 0 -117 -105q-47 -125 -47 -305q0 -155 88 -155q38 0 86 30z" />
<glyph unicode="D" horiz-adv-x="365" d="M26 0l82 667h77q68 0 104 -21q62 -37 62 -151q0 -124 -26 -262q-16 -84 -39.5 -131.5t-62.5 -72.5q-42 -29 -116 -29h-81zM94 57h29q76 0 114 77q20 41 35 148t15 207q0 64 -23 92.5t-76 28.5h-26z" />
<glyph unicode="E" horiz-adv-x="297" d="M26 0l82 667h205l-7 -57h-144l-29 -235h141l-7 -57h-141l-32 -261h144l-6 -57h-206z" />
<glyph unicode="F" horiz-adv-x="291" d="M26 0l82 667h209l-7 -57h-148l-29 -235h141l-7 -57h-141l-39 -318h-61z" />
<glyph unicode="G" horiz-adv-x="368" d="M346 352l-16 -134q-11 -95 -34 -140q-44 -87 -134 -87q-122 0 -122 167q0 115 18.5 234.5t44.5 174.5q51 109 150 109q62 0 93 -47q16 -24 24 -79l-63 -24q-4 48 -18.5 69t-44.5 21q-78 0 -110 -150q-32 -148 -32 -295q0 -120 72 -120q50 0 70 49q17 41 27 133l7 62h-89 l7 57h150z" />
<glyph unicode="H" horiz-adv-x="380" d="M26 0l82 667h61l-33 -266h150l33 266h61l-82 -667h-61l42 344h-150l-42 -344h-61z" />
<glyph unicode="I" horiz-adv-x="169" d="M26 0l82 667h61l-82 -667h-61z" />
<glyph unicode="J" horiz-adv-x="221" d="M-26 8l8 64q29 -29 57 -29q31 0 44 27q5 11 10 57l66 540h61l-67 -553q-8 -67 -26 -90q-28 -34 -85 -34q-32 0 -68 18z" />
<glyph unicode="K" horiz-adv-x="324" d="M26 0l82 667h61l-37 -303l169 303h68l-181 -317l100 -350h-69l-91 336l-41 -336h-61z" />
<glyph unicode="L" horiz-adv-x="259" d="M26 0l82 667h61l-75 -610h143l-7 -57h-204z" />
<glyph unicode="M" horiz-adv-x="492" d="M-7 0l174 667h53l14 -457q0 -4 0.5 -25t0.5 -33q0 -28 -1 -48q8 42 25 104l133 459h52l-1 -667h-60l7 433q1 46 9 121q-3 -13 -4 -14l-5 -27q-5 -28 -20 -80l-126 -433h-50l-17 434v9q0 31 2 89l1 22q-15 -101 -20 -120l-107 -434h-60z" />
<glyph unicode="N" horiz-adv-x="381" d="M26 0l82 667h53l94 -453q2 -11 13 -79q1 48 7 97l53 435h53l-82 -667h-53l-91 440l-9 50q-5 30 -7 44q-2 -60 -9 -118l-51 -416h-53z" />
<glyph unicode="O" horiz-adv-x="398" d="M170 -9q-128 0 -128 209q0 111 21.5 219.5t55.5 165.5q53 91 134 91q47 0 76 -26q53 -47 53 -178q0 -110 -21.5 -221t-53.5 -169q-51 -91 -137 -91zM178 52q66 0 99 107q18 56 31 153.5t13 172.5q0 131 -73 131q-32 0 -55.5 -24.5t-41.5 -76.5q-20 -57 -33.5 -149 t-13.5 -175q0 -139 74 -139z" />
<glyph unicode="P" horiz-adv-x="324" d="M26 0l82 667h79q79 0 113.5 -30t34.5 -99q0 -58 -14.5 -107t-39.5 -73q-39 -39 -129 -39h-26l-39 -319h-61zM133 376h41q54 0 76 38q23 39 23 118q0 56 -36 72q-15 6 -45 6h-30z" />
<glyph unicode="Q" horiz-adv-x="398" d="M278 -49l-32 62q-31 -22 -78 -22q-126 0 -126 210q0 111 21.5 219t55.5 165q54 91 134 91q47 0 76 -26q53 -47 53 -180q0 -123 -26.5 -242.5t-64.5 -169.5l39 -76zM225 188l37 -72q25 58 42 165.5t17 204.5q0 130 -74 130q-61 0 -96 -101q-20 -57 -33.5 -149t-13.5 -176 q0 -138 75 -138q22 0 41 12l-47 92z" />
<glyph unicode="R" horiz-adv-x="370" d="M31 0l82 667h82q56 0 84 -7.5t47 -26.5q34 -35 34 -99q0 -111 -50 -168q-37 -41 -103 -46l113 -320h-70l-113 326l-40 -326h-66zM143 375h41q37 0 57 11.5t33 39.5q19 41 19 103q0 44 -20 62.5t-68 18.5h-33z" />
<glyph unicode="S" horiz-adv-x="342" d="M24 25l10 80q45 -54 99 -54q49 0 83 40.5t34 98.5q0 34 -18 60t-69 64q-56 42 -78.5 77t-22.5 81q0 84 51.5 144t123.5 60q53 0 98 -35l-9 -79q-23 30 -43.5 42t-48.5 12q-45 0 -77 -37t-32 -89q0 -35 16 -61t55 -55q67 -50 92 -86t25 -83q0 -87 -56.5 -151t-133.5 -64 q-56 0 -99 35z" />
<glyph unicode="T" horiz-adv-x="261" d="M72 0l75 610h-99l7 57h258l-7 -57h-98l-75 -610h-61z" />
<glyph unicode="U" horiz-adv-x="384" d="M384 667l-57 -467q-13 -109 -40 -146q-43 -63 -125 -63q-57 0 -88 32t-31 92q0 26 7 85l57 467h62l-57 -462q-8 -62 -8 -86q0 -31 18 -49t48 -18q48 0 69 37q15 25 27 116l57 462h61z" />
<glyph unicode="V" horiz-adv-x="321" d="M105 0l-50 667h62l29 -442q2 -42 2 -55q0 -18 -3 -79q16 75 32 132l134 444h63l-215 -667h-54z" />
<glyph unicode="W" horiz-adv-x="498" d="M78 0l-23 667h62l8 -420l1 -12q1 -19 -4 -96q0 -8 -1 -17q0 1 12.5 49.5t22.5 80.5l121 415h53l9 -422l1 -15q2 -26 1 -50l-1 -43v-15q10 47 32 126l116 419h62l-197 -667h-56l-11 434v14v23q0 26 2 60q0 2 0.5 5.5t1 10t0.5 11.5l-2 -8l-1.5 -6t-0.5 -3l-4 -21 q-7 -36 -22 -89l-126 -431h-56z" />
<glyph unicode="X" horiz-adv-x="313" d="M-27 0l169 339l-87 328h65l39 -165q15 -66 16 -117q11 37 46 113l79 169h66l-166 -328l84 -339h-65l-41 189q-14 68 -15 95q-7 -24 -40 -97l-85 -187h-65z" />
<glyph unicode="Y" horiz-adv-x="312" d="M101 0l36 292l-82 375h66l38 -195q11 -60 15 -119q14 50 44 122l80 192h66l-166 -375l-36 -292h-61z" />
<glyph unicode="Z" horiz-adv-x="275" d="M-20 0l257 610h-165l7 57h242l-259 -610h166l-7 -57h-241z" />
<glyph unicode="[" horiz-adv-x="263" d="M87 -126h100l-6 -47h-158l111 902h158l-6 -47h-100z" />
<glyph unicode="\" horiz-adv-x="402" d="M308 -173l-273 902h56l275 -902h-58z" />
<glyph unicode="]" horiz-adv-x="263" d="M-10 -126h100l100 808h-101l6 47h158l-111 -902h-158z" />
<glyph unicode="^" horiz-adv-x="500" d="M42 372l181 296h79l180 -296h-66l-155 249l-153 -249h-66z" />
<glyph unicode="_" horiz-adv-x="500" d="M12 -70h500v-56h-500v56z" />
<glyph unicode="`" horiz-adv-x="500" d="M287 507l-89 109l52 36l72 -121z" />
<glyph unicode="a" horiz-adv-x="326" d="M192 0l4 36q-37 -43 -81 -43q-84 0 -84 121q0 71 12 147.5t29 118.5q34 80 106 80q40 0 66 -38l4 31h56l-56 -453h-56zM138 40q40 0 58 45q14 34 26 114.5t12 135.5q0 78 -49 78q-43 0 -65 -66q-11 -34 -21 -105.5t-10 -121.5q0 -80 49 -80z" />
<glyph unicode="b" horiz-adv-x="321" d="M21 0l90 729h56l-38 -307q35 38 76 38q89 0 89 -125q0 -69 -12.5 -147t-31.5 -121q-31 -74 -97 -74q-43 0 -71 43l-5 -36h-56zM142 40q24 0 40 18t27 58q10 37 18.5 102.5t8.5 110.5q0 84 -50 84q-53 0 -71 -94q-23 -113 -23 -203q0 -76 50 -76z" />
<glyph unicode="c" horiz-adv-x="244" d="M208 87l-9 -71q-32 -23 -68 -23q-47 0 -75 44t-28 117q0 59 13.5 121.5t35.5 102.5q43 82 116 82q32 0 58 -17l-8 -67q-25 31 -51 31q-46 0 -76 -73q-29 -74 -29 -173q0 -53 16 -84t43 -31q28 0 62 41z" />
<glyph unicode="d" horiz-adv-x="321" d="M187 0l4 36q-37 -43 -81 -43q-84 0 -84 121q0 71 12 147.5t29 118.5q34 80 106 80q40 0 66 -38l37 307h57l-90 -729h-56zM133 40q40 0 58 45q14 34 26 114.5t12 135.5q0 78 -49 78q-43 0 -65 -66q-11 -34 -21 -105.5t-10 -121.5q0 -80 49 -80z" />
<glyph unicode="e" horiz-adv-x="312" d="M210 154h56q-13 -78 -46.5 -119.5t-84.5 -41.5q-107 0 -107 161q0 137 48 226q43 80 111 80q98 0 98 -154q0 -43 -8 -91h-189q-4 -35 -4 -61q0 -108 53 -108q54 0 73 108zM95 263h132q3 36 3 54q0 90 -47 90q-64 0 -88 -144z" />
<glyph unicode="f" horiz-adv-x="202" d="M37 0l50 400h-51l7 53h50l21 168q14 115 98 115q27 0 48 -10l-8 -62q-23 19 -38 19q-19 0 -31 -15q-8 -10 -13 -47l-20 -168h76l-6 -53h-77l-49 -400h-57z" />
<glyph unicode="g" horiz-adv-x="330" d="M16 -37h56q-2 -16 -2 -32q0 -58 52 -58q37 0 53 28q8 14 20 95l5 36q-35 -32 -76 -32q-92 0 -92 132q0 69 11.5 138t30.5 108q38 82 105 82q42 0 68 -38l4 31h57l-59 -480q-6 -46 -11 -64.5t-17 -37.5q-33 -51 -108 -51q-101 0 -101 101q0 17 4 42zM144 47q48 0 68 80 q9 37 17 101t8 101q0 40 -13.5 62t-38.5 22q-44 0 -64 -65q-12 -37 -21.5 -102t-9.5 -111q0 -88 54 -88z" />
<glyph unicode="h" horiz-adv-x="329" d="M21 0l90 729h56l-38 -312q43 43 91 43q36 0 56 -20.5t20 -56.5q0 -22 -3 -49l-42 -334h-56l40 325q4 40 4 44q0 19 -12 31.5t-30 12.5q-36 0 -58 -29q-17 -22 -24 -79l-38 -305h-56z" />
<glyph unicode="i" horiz-adv-x="155" d="M116 545q-16 0 -26.5 10.5t-10.5 26.5q0 20 14.5 34t33.5 14q16 0 26.5 -10.5t10.5 -26.5q0 -19 -14.5 -33.5t-33.5 -14.5zM21 0l56 453h56l-56 -453h-56z" />
<glyph unicode="j" horiz-adv-x="158" d="M119 545q-16 0 -26.5 10.5t-10.5 26.5q0 19 14.5 33.5t33.5 14.5q16 0 26.5 -10.5t10.5 -26.5q0 -19 -14.5 -33.5t-33.5 -14.5zM3 -173l77 626h56l-77 -626h-56z" />
<glyph unicode="k" horiz-adv-x="309" d="M21 0l90 729h56l-56 -460l133 184h64l-153 -203l132 -250h-71l-112 217l-27 -217h-56z" />
<glyph unicode="l" horiz-adv-x="155" d="M21 0l90 729h56l-90 -729h-56z" />
<glyph unicode="m" horiz-adv-x="506" d="M21 0l56 453h56l-5 -38q45 45 92 45q55 0 76 -53q26 29 48.5 41t50.5 12q37 0 58 -20.5t21 -56.5q0 -12 -4 -46l-41 -337h-57l42 335q2 20 2 28q0 50 -44 50q-39 0 -62 -36q-14 -23 -22 -88l-35 -289h-57l41 334q0 4 1 11.5t1.5 13t0.5 8.5q0 46 -40 46q-36 0 -58 -29 q-21 -28 -30 -103l-35 -281h-56z" />
<glyph unicode="n" horiz-adv-x="329" d="M21 0l56 453h56l-4 -36q43 43 92 43q35 0 55 -21.5t20 -59.5q0 -19 -3 -45l-42 -334h-56l40 325q4 40 4 44q0 19 -12 31.5t-30 12.5q-36 0 -58 -29q-17 -22 -24 -79l-38 -305h-56z" />
<glyph unicode="o" horiz-adv-x="322" d="M134 -7q-106 0 -106 163q0 131 45 221q43 83 118 83q50 0 76.5 -38t26.5 -108q0 -67 -12 -133.5t-31 -104.5q-42 -83 -117 -83zM140 46q41 0 65 65q30 82 30 196q0 100 -51 100q-42 0 -67 -65q-31 -81 -31 -196q0 -47 14 -73.5t40 -26.5z" />
<glyph unicode="p" horiz-adv-x="321" d="M82 36l-26 -209h-56l77 626h56l-3 -31q34 38 75 38q90 0 90 -125q0 -69 -12.5 -147t-31.5 -121q-31 -74 -97 -74q-44 0 -72 43zM92 115q0 -75 50 -75q25 0 41 18t27 58q11 38 19 103t8 111q0 83 -50 83q-52 0 -72 -94q-23 -111 -23 -204z" />
<glyph unicode="q" horiz-adv-x="326" d="M171 -173l25 209q-37 -43 -81 -43q-84 0 -84 121q0 71 12 147.5t29 118.5q34 80 106 80q40 0 66 -38l4 31h56l-77 -626h-56zM138 40q40 0 58 45q14 34 26 114.5t12 135.5q0 78 -49 78q-43 0 -65 -66q-11 -34 -21 -105.5t-10 -121.5q0 -80 49 -80z" />
<glyph unicode="r" horiz-adv-x="194" d="M21 0l56 453h56l-7 -60q37 67 83 67l-8 -67q-5 1 -11 1q-20 0 -39 -15t-27 -37q-7 -21 -13 -67l-34 -275h-56z" />
<glyph unicode="s" horiz-adv-x="247" d="M3 24l8 67q38 -45 74 -45q31 0 52.5 23.5t21.5 57.5q0 22 -10 38.5t-43 49.5q-65 65 -65 115q0 54 37 92t89 38q38 0 76 -29l-9 -70q-32 46 -70 46q-27 0 -45.5 -20t-18.5 -49q0 -35 52 -84q39 -36 52.5 -59.5t13.5 -54.5q0 -60 -40 -103.5t-96 -43.5q-42 0 -79 31z" />
<glyph unicode="t" horiz-adv-x="198" d="M38 0l49 400h-47l6 53h48l15 124h56l-15 -124h74l-6 -53h-74l-50 -400h-56z" />
<glyph unicode="u" horiz-adv-x="331" d="M310 453l-42 -343q-7 -54 -42.5 -85.5t-88.5 -31.5q-48 0 -75.5 26t-27.5 71q0 13 1 20l42 343h57l-36 -295q-5 -39 -5 -54q0 -58 51 -58q43 0 58 39q8 22 15 73l36 295h57z" />
<glyph unicode="v" horiz-adv-x="275" d="M81 0l-47 453h58l26 -271q4 -45 4 -97q11 47 27 95l89 273h58l-154 -453h-61z" />
<glyph unicode="w" horiz-adv-x="439" d="M72 0l-34 453h57l17 -275l1 -57q0 -19 -1 -38l12 44q4 16 13 48l79 278h57l10 -273l1 -12v-85q18 66 27 96l88 274h58l-154 -453h-58l-10 306v29q0 11 -0.5 18.5t-0.5 10.5v13q-1 -4 -7 -31t-10 -41l-87 -305h-58z" />
<glyph unicode="x" horiz-adv-x="279" d="M-21 0l131 231l-65 222h62l27 -111q10 -45 13 -81q14 43 35 84l55 108h63l-127 -222l71 -231h-63l-33 129q-12 44 -13 67q-12 -37 -28 -68l-65 -128h-63z" />
<glyph unicode="y" horiz-adv-x="289" d="M87 12l-53 441h58l25 -251q6 -60 6 -114q6 21 35 105l93 260h59l-229 -617h-60z" />
<glyph unicode="z" horiz-adv-x="271" d="M-23 0l226 400h-153l7 53h237l-229 -400h151l-7 -53h-232z" />
<glyph unicode="{" horiz-adv-x="271" d="M75 -27l23 184q2 20 2 28q0 52 -47 66l7 59q32 8 47.5 28t20.5 60l24 196q9 71 41.5 104t93.5 33h15l-6 -50h-11q-40 0 -56 -20.5t-24 -79.5l-23 -187q-7 -51 -22.5 -75t-51.5 -41q26 -16 37 -35t11 -50q0 -3 -0.5 -8.5t-1.5 -13t-1 -11.5l-22 -181q-4 -32 -4 -53 q0 -32 21 -43q10 -6 39 -7q5 0 10 -1l-6 -49q-41 0 -66 8q-53 17 -53 93q0 16 3 46z" />
<glyph unicode="|" horiz-adv-x="500" d="M232 -167v834h60v-834h-60z" />
<glyph unicode="}" horiz-adv-x="271" d="M77 -24l23 187q6 50 22 74.5t53 41.5q-26 16 -37 35t-11 50q0 11 2 33l22 181q4 18 4 53q0 32 -20 43q-12 7 -39 7h-10l6 50h14q104 0 104 -102q0 -9 -3 -45l-22 -185q0 -5 -1 -11.5t-1.5 -11t-0.5 -6.5q0 -51 48 -64l-8 -59q-31 -8 -46.5 -28t-20.5 -61l-24 -195 q-9 -71 -42 -104t-94 -33h-14l6 49l10 1h13q32 0 46 21.5t21 78.5z" />
<glyph unicode="~" horiz-adv-x="657" d="M142 587l-37 24q31 61 60.5 86t71.5 25q37 0 112 -36q70 -33 98 -33q29 0 49.5 15.5t43.5 54.5l37 -22q-54 -108 -138 -108q-21 0 -44.5 8.5t-91.5 40.5q-43 20 -70 20q-50 0 -91 -75z" />
<glyph unicode="&#xa1;" horiz-adv-x="233" d="M139 410q-17 0 -28.5 11.5t-11.5 28.5q0 20 15.5 35t35.5 15q16 0 27.5 -11t11.5 -28q0 -20 -15 -35.5t-35 -15.5zM37 -173l61 500h59l-61 -500h-59z" />
<glyph unicode="&#xa2;" d="M160 25l11 88q-80 33 -80 157q0 59 13.5 122t35.5 103q17 31 36.5 48.5t50.5 28.5l10 81h49l-9 -79q23 -5 38 -15l-8 -66q-26 30 -51 30q-49 0 -77 -73q-29 -72 -29 -173q0 -52 16 -83t43 -31q28 0 62 41l-8 -71q-17 -12 -43 -20l-11 -88h-49z" />
<glyph unicode="&#xa3;" d="M5 30q42 69 93 69q3 0 15 -2q37 47 37 96q0 37 -16 66h-92l6 42h70q-45 90 -45 158q0 85 49 141t123 56q52 0 86 -35.5t34 -90.5q0 -11 -1 -20l-58 -11v19q0 35 -20 56.5t-51 21.5q-44 0 -71.5 -36t-27.5 -95q0 -66 49 -164h103l-5 -42h-83q11 -30 11 -52q0 -71 -52 -126 q19 -13 22 -16q33 -25 49 -25q29 0 41 49l50 -17q-9 -41 -35.5 -66t-61.5 -25q-20 0 -33.5 6.5t-55.5 35.5q-23 17 -36 17q-28 0 -47 -40z" />
<glyph unicode="&#xa4;" horiz-adv-x="657" d="M112 85l-34 35l91 93q-52 64 -52 144q0 74 50 141l-92 94l35 35l92 -93q69 53 143 53t142 -52l92 92l34 -35l-91 -93q51 -68 51 -143t-51 -142l92 -94l-34 -35l-92 94q-66 -53 -142 -53q-73 0 -142 51zM345 181q71 0 121.5 51.5t50.5 123.5t-50 124t-120 52 q-73 0 -123.5 -51t-50.5 -125q0 -72 50.5 -123.5t121.5 -51.5z" />
<glyph unicode="&#xa5;" d="M127 0l34 270h-141l5 41h134l-14 65h-112l5 41h98l-54 250h63l38 -195q11 -53 15 -119q16 54 44 121l80 193h63l-110 -250h93l-5 -41h-107l-29 -65h128l-5 -41h-134l-33 -270h-56z" />
<glyph unicode="&#xa6;" horiz-adv-x="500" d="M232 337v330h60v-330h-60zM232 153h60v-320h-60v320z" />
<glyph unicode="&#xa7;" horiz-adv-x="361" d="M24 -29h58q-1 -10 -1 -25q0 -32 15 -50.5t41 -18.5q34 0 57 31.5t23 77.5q0 31 -17.5 54.5t-58.5 47.5q-55 31 -71 57q-24 37 -24 100q0 82 33.5 139t89.5 73q-65 48 -65 122q0 68 41 114.5t101 46.5q48 0 78 -32.5t30 -84.5q0 -13 -1 -21h-58q0 85 -57 85q-32 0 -55 -31 t-23 -75q0 -28 16 -50.5t54 -49.5q45 -31 60 -45t24 -32q15 -28 15 -83q0 -83 -31.5 -142t-83.5 -75q59 -41 59 -114q0 -71 -40.5 -118.5t-100.5 -47.5q-50 0 -79 33.5t-29 91.5v22zM170 140q49 0 75.5 48.5t26.5 137.5q0 43 -18.5 68t-50.5 25q-44 0 -72.5 -51t-28.5 -130 q0 -98 68 -98z" />
<glyph unicode="&#xa8;" horiz-adv-x="500" d="M351 517q-15 0 -26 11t-11 27q0 19 14.5 33.5t33.5 14.5q16 0 27 -10.5t11 -27.5q0 -19 -15 -33.5t-34 -14.5zM228 517q-15 0 -26 11t-11 27q0 19 14.5 33.5t33.5 14.5q17 0 27.5 -10.5t10.5 -27.5q0 -19 -15 -33.5t-34 -14.5z" />
<glyph unicode="&#xa9;" horiz-adv-x="745" d="M46 333q0 145 100 245.5t244 100.5q137 0 236 -102t99 -244q0 -143 -99.5 -244t-239.5 -101t-240 101.5t-100 243.5zM85 333q0 -127 88.5 -218t212.5 -91t212 91t88 218t-87.5 218.5t-208.5 91.5q-128 0 -216.5 -90t-88.5 -220zM425 199l-7 -52q-34 -19 -62 -19 q-45 0 -71 35.5t-26 96.5q0 60 14.5 123t35.5 96q38 60 101 60q31 0 54 -15l-6 -55q-34 22 -52 22q-35 0 -54 -32q-39 -65 -39 -192q0 -90 51 -90q21 0 61 22z" />
<glyph unicode="&#xaa;" horiz-adv-x="236" d="M166 372l2 18q-23 -22 -49 -22q-57 0 -57 80q0 108 26 170q23 53 71 53q25 0 41 -19l2 15h42l-37 -295h-41zM134 403q23 0 34 27q8 21 16 72.5t8 86.5q0 47 -29 47q-25 0 -39 -40q-19 -57 -19 -143q0 -50 29 -50zM33 284l4 33h184l-4 -33h-184z" />
<glyph unicode="&#xab;" horiz-adv-x="320" d="M227 43l-83 194l130 188l35 -21l-114 -167l73 -171zM117 43l-83 194l130 188l35 -21l-114 -167l73 -171z" />
<glyph unicode="&#xac;" horiz-adv-x="500" d="M45 211v56h433v-267h-60v211h-373z" />
<glyph unicode="&#xad;" horiz-adv-x="136" d="M-3 202l9 70h136l-9 -70h-136z" />
<glyph unicode="&#xae;" horiz-adv-x="745" d="M46 333q0 145 100 245.5t244 100.5q137 0 236 -102t99 -244q0 -143 -99.5 -244t-239.5 -101t-240 101.5t-100 243.5zM85 333q0 -127 88.5 -218t212.5 -91t212 91t88 218t-87.5 218.5t-208.5 91.5q-128 0 -216.5 -90t-88.5 -220zM275 133l49 400h55q55 0 78 -19t23 -64 q0 -118 -86 -130l66 -187h-55l-58 166l-20 -166h-52zM355 364h17q29 0 42.5 19.5t13.5 62.5q0 23 -9.5 32t-35.5 9h-13z" />
<glyph unicode="&#xaf;" horiz-adv-x="500" d="M193 530l7 53h202l-7 -53h-202z" />
<glyph unicode="&#xb0;" horiz-adv-x="361" d="M220 389q-61 0 -104 42.5t-43 102.5q0 61 43.5 103.5t105.5 42.5q59 0 102 -43t43 -103t-43 -102.5t-104 -42.5zM224 436q40 0 68 28.5t28 69.5t-28 70t-67 29q-40 0 -68.5 -29t-28.5 -70t28 -69.5t68 -28.5z" />
<glyph unicode="&#xb1;" d="M166 191v122h-120v55h120v121h56v-121h120v-55h-120v-122h-56zM46 93v55h296v-55h-296z" />
<glyph unicode="&#xb2;" horiz-adv-x="248" d="M34 266l108 172q41 65 54.5 96t13.5 60q0 39 -35 39q-47 0 -54 -80h-44q6 42 14 61q24 59 87 59q36 0 56.5 -20.5t20.5 -56.5q0 -31 -16 -71q-12 -28 -60 -103l-74 -115h110l-5 -41h-176z" />
<glyph unicode="&#xb3;" horiz-adv-x="248" d="M123 569h-42q14 104 95 104q34 0 54 -19.5t20 -54.5q0 -30 -11 -60t-43 -51q20 -13 28 -29.5t8 -47.5q0 -71 -27 -110t-77 -39q-78 0 -78 78q0 14 4 41h43q-2 -19 -2 -34q0 -44 37 -44q31 0 45 33q12 29 12 70q0 61 -57 61h-22l5 38h19q25 0 37.5 6t21.5 23q13 21 13 58 q0 39 -36 39q-22 0 -32 -13.5t-15 -48.5z" />
<glyph unicode="&#xb4;" horiz-adv-x="500" d="M300 507l-32 27l105 118l46 -43z" />
<glyph unicode="&#xb5;" horiz-adv-x="331" d="M75 13l-18 -180h-56l76 620h57l-37 -295q-4 -29 -4 -53q0 -59 51 -59q43 0 58 39q8 22 15 73l36 295h57l-43 -343q-7 -53 -41.5 -85t-85.5 -32q-34 0 -65 20z" />
<glyph unicode="&#xb6;" horiz-adv-x="361" d="M79 -99l54 437h-14q-40 0 -62.5 33.5t-22.5 92.5q0 95 49 155q39 48 112 48h207l-21 -58h-40l-87 -708h-59l87 708h-57l-87 -708h-59z" />
<glyph unicode="&#xb7;" horiz-adv-x="174" d="M82 192q-17 0 -28 11.5t-11 28.5q0 20 15.5 35t34.5 15q17 0 28 -11t11 -28q0 -20 -15 -35.5t-35 -15.5z" />
<glyph unicode="&#xb8;" horiz-adv-x="500" d="M151 -168l81 132l44 -28l-94 -126z" />
<glyph unicode="&#xb9;" horiz-adv-x="250" d="M114 267l44 359h-54l15 41h88l-49 -400h-44z" />
<glyph unicode="&#xba;" horiz-adv-x="236" d="M137 368q-71 0 -71 108q0 82 29 140q27 55 79 55q33 0 51 -24.5t18 -70.5q0 -97 -28.5 -152.5t-77.5 -55.5zM141 407q24 0 39 39q19 52 19 124q0 62 -30 62q-26 0 -41 -40q-20 -55 -20 -123q0 -62 33 -62zM33 284l4 33h184l-4 -33h-184z" />
<glyph unicode="&#xbb;" horiz-adv-x="320" d="M123 66l115 171l-73 167l40 21l84 -188l-131 -194zM48 43l-35 23l114 171l-72 167l40 21l84 -188z" />
<glyph unicode="&#xbc;" horiz-adv-x="612" d="M117 0l366 667h40l-366 -667h-40zM114 267l44 359h-54l15 41h88l-49 -400h-44zM380 106l5 40l141 254h43l-32 -255h31l-5 -39h-30l-13 -106h-44l13 106h-109zM429 145h64l15 121q1 7 7 44l-11 -24l-9 -16z" />
<glyph unicode="&#xbd;" horiz-adv-x="612" d="M117 0l366 667h40l-366 -667h-40zM114 267l44 359h-54l15 41h88l-49 -400h-44zM365 0l108 172q40 63 54 95.5t14 60.5q0 39 -35 39q-47 0 -54 -80h-43q4 37 13 60q24 59 87 59q35 0 56 -20.5t21 -55.5q0 -34 -15.5 -70t-59.5 -104l-75 -115h110l-5 -41h-176z" />
<glyph unicode="&#xbe;" horiz-adv-x="611" d="M123 569h-42q14 104 95 104q34 0 54 -19.5t20 -54.5q0 -30 -11 -60t-43 -51q20 -13 28 -29.5t8 -47.5q0 -71 -27 -110t-77 -39q-78 0 -78 78q0 14 4 41h43q-2 -19 -2 -34q0 -44 37 -44q31 0 45 33q12 29 12 70q0 61 -57 61h-22l5 38h19q25 0 37.5 6t21.5 23q13 21 13 58 q0 39 -36 39q-22 0 -32 -13.5t-15 -48.5zM116 0l366 667h40l-366 -667h-40zM379 106l5 40l141 254h43l-31 -255h30l-5 -39h-30l-13 -106h-44l13 106h-109zM428 145h65l14 121q4 27 8 44l-12 -24l-9 -16z" />
<glyph unicode="&#xbf;" horiz-adv-x="326" d="M214 410q-17 0 -28 11.5t-11 28.5q0 20 15.5 35t35.5 15q16 0 27 -11.5t11 -27.5q0 -20 -15 -35.5t-35 -15.5zM245 -5l-6 -47q-17 -130 -129 -130q-44 0 -69 24.5t-25 67.5q0 70 21 152q24 101 120 104l20 161h59l-27 -215h-41q-31 0 -47.5 -11.5t-24.5 -40.5 q-20 -76 -20 -135q0 -53 43 -53q52 0 62 82l5 41h59z" />
<glyph unicode="&#xc0;" horiz-adv-x="320" d="M205 713l-89 109l52 37l72 -122zM-27 0l211 667h57l50 -667h-65l-8 137h-139l-41 -137h-65zM95 190h120l-15 236q-3 53 -3 79q0 22 4 78q-15 -82 -36 -157z" />
<glyph unicode="&#xc1;" horiz-adv-x="320" d="M225 713l-32 27l105 119l46 -43zM-27 0l211 667h57l50 -667h-65l-8 137h-139l-41 -137h-65zM95 190h120l-15 236q-3 53 -3 79q0 22 4 78q-15 -82 -36 -157z" />
<glyph unicode="&#xc2;" horiz-adv-x="320" d="M139 713l-32 39l125 107l97 -110l-42 -36l-63 71zM-27 0l211 667h57l50 -667h-65l-8 137h-139l-41 -137h-65zM95 190h120l-15 236q-3 53 -3 79q0 22 4 78q-15 -82 -36 -157z" />
<glyph unicode="&#xc3;" horiz-adv-x="320" d="M107 733q17 76 75 76q19 0 47 -14q32 -15 41 -15q12 0 19 25h55q-14 -76 -76 -76q-26 0 -65 21q-14 8 -23 8q-13 0 -18 -25h-55zM-27 0l211 667h57l50 -667h-65l-8 137h-139l-41 -137h-65zM95 190h120l-15 236q-3 53 -3 79q0 22 4 78q-15 -82 -36 -157z" />
<glyph unicode="&#xc4;" horiz-adv-x="320" d="M283 723q-16 0 -26.5 11t-10.5 27q0 19 14.5 34t33.5 15q16 0 27 -11t11 -27q0 -20 -15 -34.5t-34 -14.5zM157 723q-16 0 -26.5 11t-10.5 27q0 19 14.5 34t33.5 15q16 0 27 -11t11 -27q0 -20 -15 -34.5t-34 -14.5zM-27 0l211 667h57l50 -667h-65l-8 137h-139l-41 -137 h-65zM95 190h120l-15 236q-3 53 -3 79q0 22 4 78q-15 -82 -36 -157z" />
<glyph unicode="&#xc5;" horiz-adv-x="321" d="M227 710q-31 0 -53.5 23t-22.5 54q0 32 22.5 54t54.5 22t54 -22.5t22 -53.5q0 -32 -22.5 -54.5t-54.5 -22.5zM227 750q16 0 26.5 10.5t10.5 26.5q0 15 -10.5 25.5t-25.5 10.5q-16 0 -26.5 -10.5t-10.5 -25.5t11 -26t25 -11zM-27 0l211 667h57l50 -667h-65l-8 137h-139 l-41 -137h-65zM95 190h120l-15 236q-3 53 -3 79q0 22 4 78q-15 -82 -36 -157z" />
<glyph unicode="&#xc6;" horiz-adv-x="455" d="M-27 0l211 667h219l3 -57h-141l13 -235h133l3 -57h-133l14 -261h138l2 -57h-203l-5 137h-149l-40 -137h-65zM95 190h130l-12 282q-1 7 -1 61q0 34 1 62l-34 -122z" />
<glyph unicode="&#xc7;" horiz-adv-x="315" d="M280 82l-8 -63q-46 -28 -89 -28q-52 0 -92 40q-50 50 -50 170q0 102 23.5 212t57.5 167q59 97 151 97q48 0 77 -22l-8 -68q-42 30 -72 30q-78 0 -117 -105q-47 -125 -47 -305q0 -155 88 -155q38 0 86 30zM150 -40l45 -28l-99 -132l-32 22z" />
<glyph unicode="&#xc8;" horiz-adv-x="297" d="M217 713l-89 109l52 37l72 -122zM26 0l82 667h205l-7 -57h-144l-29 -235h141l-7 -57h-141l-32 -261h144l-6 -57h-206z" />
<glyph unicode="&#xc9;" horiz-adv-x="297" d="M220 713l-32 27l105 119l46 -43zM26 0l82 667h205l-7 -57h-144l-29 -235h141l-7 -57h-141l-32 -261h144l-6 -57h-206z" />
<glyph unicode="&#xca;" horiz-adv-x="297" d="M141 713l-32 39l125 107l97 -110l-42 -36l-63 71zM26 0l82 667h205l-7 -57h-144l-29 -235h141l-7 -57h-141l-32 -261h144l-6 -57h-206z" />
<glyph unicode="&#xcb;" horiz-adv-x="297" d="M276 723q-16 0 -26.5 11t-10.5 27q0 19 14.5 34t33.5 15q17 0 27.5 -11t10.5 -27q0 -20 -14.5 -34.5t-34.5 -14.5zM150 723q-16 0 -26.5 11t-10.5 27q0 19 14.5 34t33.5 15q16 0 27 -11t11 -27q0 -20 -14.5 -34.5t-34.5 -14.5zM26 0l82 667h205l-7 -57h-144l-29 -235h141 l-7 -57h-141l-32 -261h144l-6 -57h-206z" />
<glyph unicode="&#xcc;" horiz-adv-x="169" d="M134 713l-82 109l52 37l66 -122zM26 0l82 667h61l-82 -667h-61z" />
<glyph unicode="&#xcd;" horiz-adv-x="169" d="M157 713l-32 27l99 119l44 -43zM26 0l82 667h61l-82 -667h-61z" />
<glyph unicode="&#xce;" horiz-adv-x="169" d="M72 713l-32 39l118 107l91 -110l-42 -36l-57 71zM26 0l82 667h61l-82 -667h-61z" />
<glyph unicode="&#xcf;" horiz-adv-x="169" d="M204 723q-16 0 -26.5 11t-10.5 27q0 19 14.5 34t33.5 15q16 0 27 -11t11 -27q0 -20 -14.5 -34.5t-34.5 -14.5zM86 723q-16 0 -26.5 11t-10.5 27q0 19 14.5 34t33.5 15q16 0 27 -11t11 -27q0 -20 -14.5 -34.5t-34.5 -14.5zM26 0l82 667h61l-82 -667h-61z" />
<glyph unicode="&#xd0;" horiz-adv-x="365" d="M26 0l40 321h-47l6 50h47l36 296h77q67 0 105 -21q62 -37 62 -152q0 -126 -26 -262q-16 -83 -39.5 -130.5t-62.5 -72.5q-43 -29 -117 -29h-81zM94 57h29q77 0 115 77q20 41 35 148t15 207q0 64 -23.5 92.5t-75.5 28.5h-27l-29 -239h88l-6 -50h-88z" />
<glyph unicode="&#xd1;" horiz-adv-x="381" d="M145 733q17 76 75 76q19 0 47 -14q32 -15 41 -15q12 0 19 25h55q-14 -76 -76 -76q-26 0 -65 21q-14 8 -23 8q-13 0 -18 -25h-55zM26 0l82 667h53l94 -453q2 -11 13 -79q1 48 7 97l53 435h53l-82 -667h-53l-91 440l-9 50q-5 30 -7 44q-2 -60 -9 -118l-51 -416h-53z" />
<glyph unicode="&#xd2;" horiz-adv-x="398" d="M269 713l-89 109l52 37l72 -122zM170 -9q-128 0 -128 209q0 111 21.5 219.5t55.5 165.5q53 91 134 91q47 0 76 -26q53 -47 53 -178q0 -110 -21.5 -221t-53.5 -169q-51 -91 -137 -91zM178 52q66 0 99 107q18 56 31 153.5t13 172.5q0 131 -73 131q-32 0 -55.5 -24.5 t-41.5 -76.5q-20 -57 -33.5 -149t-13.5 -175q0 -139 74 -139z" />
<glyph unicode="&#xd3;" horiz-adv-x="398" d="M275 713l-32 27l105 119l46 -43zM170 -9q-128 0 -128 209q0 111 21.5 219.5t55.5 165.5q53 91 134 91q47 0 76 -26q53 -47 53 -178q0 -110 -21.5 -221t-53.5 -169q-51 -91 -137 -91zM178 52q66 0 99 107q18 56 31 153.5t13 172.5q0 131 -73 131q-32 0 -55.5 -24.5 t-41.5 -76.5q-20 -57 -33.5 -149t-13.5 -175q0 -139 74 -139z" />
<glyph unicode="&#xd4;" horiz-adv-x="398" d="M190 713l-32 39l125 107l97 -110l-42 -36l-63 71zM170 -9q-128 0 -128 209q0 111 21.5 219.5t55.5 165.5q53 91 134 91q47 0 76 -26q53 -47 53 -178q0 -110 -21.5 -221t-53.5 -169q-51 -91 -137 -91zM178 52q66 0 99 107q18 56 31 153.5t13 172.5q0 131 -73 131 q-32 0 -55.5 -24.5t-41.5 -76.5q-20 -57 -33.5 -149t-13.5 -175q0 -139 74 -139z" />
<glyph unicode="&#xd5;" horiz-adv-x="398" d="M169 733q17 76 75 76q19 0 47 -14q32 -15 41 -15q12 0 19 25h55q-14 -76 -76 -76q-26 0 -65 21q-14 8 -23 8q-13 0 -18 -25h-55zM170 -9q-128 0 -128 209q0 111 21.5 219.5t55.5 165.5q53 91 134 91q47 0 76 -26q53 -47 53 -178q0 -110 -21.5 -221t-53.5 -169 q-51 -91 -137 -91zM178 52q66 0 99 107q18 56 31 153.5t13 172.5q0 131 -73 131q-32 0 -55.5 -24.5t-41.5 -76.5q-20 -57 -33.5 -149t-13.5 -175q0 -139 74 -139z" />
<glyph unicode="&#xd6;" horiz-adv-x="398" d="M325 723q-16 0 -26.5 11t-10.5 27q0 19 14.5 34t33.5 15q16 0 27 -11t11 -27q0 -20 -15 -34.5t-34 -14.5zM199 723q-16 0 -26.5 11t-10.5 27q0 19 14.5 34t33.5 15q16 0 27 -11t11 -27q0 -20 -15 -34.5t-34 -14.5zM170 -9q-128 0 -128 209q0 111 21.5 219.5t55.5 165.5 q53 91 134 91q47 0 76 -26q53 -47 53 -178q0 -110 -21.5 -221t-53.5 -169q-51 -91 -137 -91zM178 52q66 0 99 107q18 56 31 153.5t13 172.5q0 131 -73 131q-32 0 -55.5 -24.5t-41.5 -76.5q-20 -57 -33.5 -149t-13.5 -175q0 -139 74 -139z" />
<glyph unicode="&#xd7;" d="M103 210l-38 38l90 92l-90 91l39 39l90 -91l89 91l38 -39l-89 -91l90 -91l-39 -39l-90 91z" />
<glyph unicode="&#xd8;" horiz-adv-x="405" d="M6 12l50 87q-10 43 -10 101q0 112 21.5 219.5t55.5 165.5q53 91 135 91q70 0 100 -59l35 58l35 -19l-51 -89q9 -35 9 -91q0 -114 -21 -224.5t-54 -169.5q-51 -91 -137 -91q-68 0 -99 60l-36 -59zM108 177l209 380q-16 59 -66 59q-72 0 -108 -135q-36 -141 -36 -278 q0 -14 1 -26zM117 112q13 -60 64 -60q77 0 109 141q35 151 35 297z" />
<glyph unicode="&#xd9;" horiz-adv-x="384" d="M251 713l-89 109l52 37l72 -122zM384 667l-57 -467q-13 -109 -40 -146q-43 -63 -125 -63q-57 0 -88 32t-31 92q0 26 7 85l57 467h62l-57 -462q-8 -62 -8 -86q0 -31 18 -49t48 -18q48 0 69 37q15 25 27 116l57 462h61z" />
<glyph unicode="&#xda;" horiz-adv-x="384" d="M261 713l-32 27l105 119l46 -43zM384 667l-57 -467q-13 -109 -40 -146q-43 -63 -125 -63q-57 0 -88 32t-31 92q0 26 7 85l57 467h62l-57 -462q-8 -62 -8 -86q0 -31 18 -49t48 -18q48 0 69 37q15 25 27 116l57 462h61z" />
<glyph unicode="&#xdb;" horiz-adv-x="384" d="M175 713l-32 39l125 107l97 -110l-42 -36l-63 71zM384 667l-57 -467q-13 -109 -40 -146q-43 -63 -125 -63q-57 0 -88 32t-31 92q0 26 7 85l57 467h62l-57 -462q-8 -62 -8 -86q0 -31 18 -49t48 -18q48 0 69 37q15 25 27 116l57 462h61z" />
<glyph unicode="&#xdc;" horiz-adv-x="384" d="M318 723q-16 0 -26.5 11t-10.5 27q0 19 14.5 34t33.5 15q17 0 27.5 -11t10.5 -27q0 -20 -14.5 -34.5t-34.5 -14.5zM192 723q-16 0 -26.5 11t-10.5 27q0 19 14.5 34t33.5 15q16 0 27 -11t11 -27q0 -20 -14.5 -34.5t-34.5 -14.5zM384 667l-57 -467q-13 -109 -40 -146 q-43 -63 -125 -63q-57 0 -88 32t-31 92q0 26 7 85l57 467h62l-57 -462q-8 -62 -8 -86q0 -31 18 -49t48 -18q48 0 69 37q15 25 27 116l57 462h61z" />
<glyph unicode="&#xdd;" horiz-adv-x="312" d="M226 713l-32 27l105 119l46 -43zM101 0l36 292l-82 375h66l38 -195q11 -60 15 -119q14 50 44 122l80 192h66l-166 -375l-36 -292h-61z" />
<glyph unicode="&#xde;" horiz-adv-x="324" d="M26 0l82 667h61l-14 -117h17q79 0 113.5 -30t34.5 -99q0 -58 -14.5 -106.5t-39.5 -72.5q-39 -39 -129 -39h-25l-25 -203h-61zM119 260h41q55 0 75 38q23 39 23 116q0 57 -36 73q-15 6 -44 6h-30z" />
<glyph unicode="&#xdf;" horiz-adv-x="335" d="M28 0l50 409h-51l7 59h51l11 89q12 99 45 138q34 41 95 41q50 0 77 -30.5t27 -86.5q0 -144 -84 -180q28 -13 40 -39t12 -73q0 -77 -12.5 -147t-32.5 -106q-41 -74 -115 -74h-21l7 57h17q50 0 70 59q11 31 21 98t10 113q0 82 -57 82h-18l8 59h16q25 0 39 10t25 35 q15 38 15 95q0 75 -53 75q-32 0 -48.5 -26.5t-24.5 -92.5l-70 -564h-56z" />
<glyph unicode="&#xe0;" horiz-adv-x="326" d="M204 507l-89 109l52 36l72 -121zM192 0l4 36q-37 -43 -81 -43q-84 0 -84 121q0 71 12 147.5t29 118.5q34 80 106 80q40 0 66 -38l4 31h56l-56 -453h-56zM138 40q40 0 58 45q14 34 26 114.5t12 135.5q0 78 -49 78q-43 0 -65 -66q-11 -34 -21 -105.5t-10 -121.5 q0 -80 49 -80z" />
<glyph unicode="&#xe1;" horiz-adv-x="326" d="M207 507l-32 27l105 118l46 -43zM192 0l4 36q-37 -43 -81 -43q-84 0 -84 121q0 71 12 147.5t29 118.5q34 80 106 80q40 0 66 -38l4 31h56l-56 -453h-56zM138 40q40 0 58 45q14 34 26 114.5t12 135.5q0 78 -49 78q-43 0 -65 -66q-11 -34 -21 -105.5t-10 -121.5 q0 -80 49 -80z" />
<glyph unicode="&#xe2;" horiz-adv-x="326" d="M125 507l-31 38l118 108l91 -110l-41 -36l-58 71zM192 0l4 36q-37 -43 -81 -43q-84 0 -84 121q0 71 12 147.5t29 118.5q34 80 106 80q40 0 66 -38l4 31h56l-56 -453h-56zM138 40q40 0 58 45q14 34 26 114.5t12 135.5q0 78 -49 78q-43 0 -65 -66q-11 -34 -21 -105.5 t-10 -121.5q0 -80 49 -80z" />
<glyph unicode="&#xe3;" horiz-adv-x="326" d="M108 523q17 76 73 76q22 0 66 -22q9 -6 18 -6q12 0 18 24h55q-6 -37 -25.5 -56.5t-49.5 -19.5q-25 0 -61 21q-13 8 -21 8q-13 0 -18 -25h-55zM192 0l4 36q-37 -43 -81 -43q-84 0 -84 121q0 71 12 147.5t29 118.5q34 80 106 80q40 0 66 -38l4 31h56l-56 -453h-56zM138 40 q40 0 58 45q14 34 26 114.5t12 135.5q0 78 -49 78q-43 0 -65 -66q-11 -34 -21 -105.5t-10 -121.5q0 -80 49 -80z" />
<glyph unicode="&#xe4;" horiz-adv-x="326" d="M261 517q-15 0 -26 11t-11 27q0 19 14.5 33.5t33.5 14.5q16 0 27 -10.5t11 -27.5q0 -19 -15 -33.5t-34 -14.5zM138 517q-15 0 -26 11t-11 27q0 19 14.5 33.5t33.5 14.5q17 0 27.5 -10.5t10.5 -27.5q0 -19 -15 -33.5t-34 -14.5zM192 0l4 36q-37 -43 -81 -43q-84 0 -84 121 q0 71 12 147.5t29 118.5q34 80 106 80q40 0 66 -38l4 31h56l-56 -453h-56zM138 40q40 0 58 45q14 34 26 114.5t12 135.5q0 78 -49 78q-43 0 -65 -66q-11 -34 -21 -105.5t-10 -121.5q0 -80 49 -80z" />
<glyph unicode="&#xe5;" horiz-adv-x="326" d="M210 507q-31 0 -53.5 23t-22.5 54q0 32 22.5 54t54.5 22q31 0 53.5 -22t22.5 -54t-22.5 -54.5t-54.5 -22.5zM210 547q16 0 26.5 10.5t10.5 26.5q0 15 -10.5 25.5t-25.5 10.5q-16 0 -26.5 -10.5t-10.5 -25.5t11 -26t25 -11zM192 0l4 36q-37 -43 -81 -43q-84 0 -84 121 q0 71 12 147.5t29 118.5q34 80 106 80q40 0 66 -38l4 31h56l-56 -453h-56zM138 40q40 0 58 45q14 34 26 114.5t12 135.5q0 78 -49 78q-43 0 -65 -66q-11 -34 -21 -105.5t-10 -121.5q0 -80 49 -80z" />
<glyph unicode="&#xe6;" horiz-adv-x="506" d="M404 157h54q-12 -74 -49.5 -119t-87.5 -45q-61 0 -87 76q-18 -35 -49 -55.5t-67 -20.5q-46 0 -71.5 33t-25.5 92q0 82 37 133t96 51q49 0 75 -37q4 36 4 52q0 41 -20 65t-55 24q-31 0 -82 -35l8 63q43 26 85 26q80 0 104 -76q17 34 46 55t59 21q47 0 73.5 -42.5 t26.5 -119.5q0 -20 -6 -81h-197q-4 -31 -4 -55q0 -116 59 -116q58 0 74 111zM283 265h138q3 26 3 44q0 42 -15.5 70t-38.5 28q-32 0 -56 -39t-31 -103zM132 46q37 0 61 35.5t24 89.5q0 84 -59 84q-37 0 -59.5 -36t-22.5 -95q0 -78 56 -78z" />
<glyph unicode="&#xe7;" horiz-adv-x="244" d="M208 87l-9 -71q-32 -23 -68 -23q-47 0 -75 44t-28 117q0 59 13.5 121.5t35.5 102.5q43 82 116 82q32 0 58 -17l-8 -67q-25 31 -51 31q-48 0 -76 -73q-29 -74 -29 -173q0 -53 16 -84t43 -31q28 0 62 41zM105 -36l44 -28l-94 -126l-31 22z" />
<glyph unicode="&#xe8;" horiz-adv-x="312" d="M197 507l-89 109l52 36l72 -121zM210 154h56q-13 -78 -46.5 -119.5t-84.5 -41.5q-107 0 -107 161q0 137 48 226q43 80 111 80q98 0 98 -154q0 -43 -8 -91h-189q-4 -35 -4 -61q0 -108 53 -108q54 0 73 108zM95 263h132q3 36 3 54q0 90 -47 90q-64 0 -88 -144z" />
<glyph unicode="&#xe9;" horiz-adv-x="312" d="M199 507l-32 27l105 118l46 -43zM210 154h56q-13 -78 -46.5 -119.5t-84.5 -41.5q-107 0 -107 161q0 137 48 226q43 80 111 80q98 0 98 -154q0 -43 -8 -91h-189q-4 -35 -4 -61q0 -108 53 -108q54 0 73 108zM95 263h132q3 36 3 54q0 90 -47 90q-64 0 -88 -144z" />
<glyph unicode="&#xea;" horiz-adv-x="312" d="M121 507l-31 38l118 108l91 -110l-41 -36l-58 71zM210 154h56q-13 -78 -46.5 -119.5t-84.5 -41.5q-107 0 -107 161q0 137 48 226q43 80 111 80q98 0 98 -154q0 -43 -8 -91h-189q-4 -35 -4 -61q0 -108 53 -108q54 0 73 108zM95 263h132q3 36 3 54q0 90 -47 90 q-64 0 -88 -144z" />
<glyph unicode="&#xeb;" horiz-adv-x="312" d="M257 517q-15 0 -26 11t-11 27q0 19 14.5 33.5t33.5 14.5q16 0 27 -10.5t11 -27.5q0 -19 -15 -33.5t-34 -14.5zM134 517q-15 0 -26 11t-11 27q0 19 14.5 33.5t33.5 14.5q17 0 27.5 -10.5t10.5 -27.5q0 -19 -15 -33.5t-34 -14.5zM210 154h56q-13 -78 -46.5 -119.5 t-84.5 -41.5q-107 0 -107 161q0 137 48 226q43 80 111 80q98 0 98 -154q0 -43 -8 -91h-189q-4 -35 -4 -61q0 -108 53 -108q54 0 73 108zM95 263h132q3 36 3 54q0 90 -47 90q-64 0 -88 -144z" />
<glyph unicode="&#xec;" horiz-adv-x="155" d="M101 507l-82 109l52 36l66 -121zM22 0l55 453h57l-56 -453h-56z" />
<glyph unicode="&#xed;" horiz-adv-x="155" d="M126 507l-32 27l98 118l45 -43zM21 0l56 453h56l-56 -453h-56z" />
<glyph unicode="&#xee;" horiz-adv-x="155" d="M47 507l-31 37l111 109l84 -112l-40 -34l-52 71zM21 0l56 453h56l-55 -453h-57z" />
<glyph unicode="&#xef;" horiz-adv-x="155" d="M169 517q-14 0 -24 10t-10 25q0 18 13.5 31.5t30.5 13.5q15 0 25 -10t10 -25q0 -18 -13.5 -31.5t-31.5 -13.5zM62 517q-14 0 -24 10t-10 25q0 18 13.5 31.5t30.5 13.5q15 0 25 -10t10 -25q0 -18 -13.5 -31.5t-31.5 -13.5zM21 0l56 453h56l-56 -453h-56z" />
<glyph unicode="&#xf0;" horiz-adv-x="322" d="M317 681l-57 -37q26 -33 36.5 -72t10.5 -103q0 -87 -11 -189t-27 -158q-16 -59 -52.5 -94t-81.5 -35q-106 0 -106 165q0 130 46 220q43 82 115 82q40 0 56 -30q4 37 4 62q0 76 -31 127l-68 -42l-22 38l57 36q-19 16 -81 48l25 33q54 -19 99 -53l65 39zM140 46q41 0 65 65 q30 82 30 196q0 100 -51 100q-42 0 -67 -65q-31 -81 -31 -196q0 -47 14 -73.5t40 -26.5z" />
<glyph unicode="&#xf1;" horiz-adv-x="329" d="M97 523q17 76 73 76q22 0 66 -22q9 -6 18 -6q12 0 18 24h55q-6 -37 -25.5 -56.5t-49.5 -19.5q-25 0 -61 21q-13 8 -21 8q-13 0 -18 -25h-55zM21 0l56 453h56l-4 -36q43 43 92 43q35 0 55 -21.5t20 -59.5q0 -19 -3 -45l-42 -334h-56l40 325q4 40 4 44q0 19 -12 31.5 t-30 12.5q-36 0 -58 -29q-17 -22 -24 -79l-38 -305h-56z" />
<glyph unicode="&#xf2;" horiz-adv-x="322" d="M204 507l-89 109l52 36l72 -121zM134 -7q-106 0 -106 163q0 131 45 221q43 83 118 83q50 0 76.5 -38t26.5 -108q0 -67 -12 -133.5t-31 -104.5q-42 -83 -117 -83zM140 46q41 0 65 65q30 82 30 196q0 100 -51 100q-42 0 -67 -65q-31 -81 -31 -196q0 -47 14 -73.5t40 -26.5z " />
<glyph unicode="&#xf3;" horiz-adv-x="322" d="M212 507l-32 27l105 118l46 -43zM134 -7q-106 0 -106 163q0 131 45 221q43 83 118 83q50 0 76.5 -38t26.5 -108q0 -67 -12 -133.5t-31 -104.5q-42 -83 -117 -83zM140 46q41 0 65 65q30 82 30 196q0 100 -51 100q-42 0 -67 -65q-31 -81 -31 -196q0 -47 14 -73.5t40 -26.5z " />
<glyph unicode="&#xf4;" horiz-adv-x="322" d="M131 507l-31 38l118 108l91 -110l-41 -36l-58 71zM134 -7q-106 0 -106 163q0 131 45 221q43 83 118 83q50 0 76.5 -38t26.5 -108q0 -67 -12 -133.5t-31 -104.5q-42 -83 -117 -83zM140 46q41 0 65 65q30 82 30 196q0 100 -51 100q-42 0 -67 -65q-31 -81 -31 -196 q0 -47 14 -73.5t40 -26.5z" />
<glyph unicode="&#xf5;" horiz-adv-x="322" d="M106 523q17 76 73 76q22 0 66 -22q9 -6 18 -6q12 0 18 24h55q-6 -37 -25.5 -56.5t-49.5 -19.5q-25 0 -61 21q-13 8 -21 8q-13 0 -18 -25h-55zM134 -7q-106 0 -106 163q0 131 45 221q43 83 118 83q50 0 76.5 -38t26.5 -108q0 -67 -12 -133.5t-31 -104.5q-42 -83 -117 -83z M140 46q41 0 65 65q30 82 30 196q0 100 -51 100q-42 0 -67 -65q-31 -81 -31 -196q0 -47 14 -73.5t40 -26.5z" />
<glyph unicode="&#xf6;" horiz-adv-x="322" d="M269 517q-15 0 -26 11t-11 27q0 19 14.5 33.5t33.5 14.5q16 0 27 -10.5t11 -27.5q0 -19 -15 -33.5t-34 -14.5zM146 517q-15 0 -26 11t-11 27q0 19 14.5 33.5t33.5 14.5q17 0 27.5 -10.5t10.5 -27.5q0 -19 -15 -33.5t-34 -14.5zM134 -7q-106 0 -106 163q0 131 45 221 q43 83 118 83q50 0 76.5 -38t26.5 -108q0 -67 -12 -133.5t-31 -104.5q-42 -83 -117 -83zM140 46q41 0 65 65q30 82 30 196q0 100 -51 100q-42 0 -67 -65q-31 -81 -31 -196q0 -47 14 -73.5t40 -26.5z" />
<glyph unicode="&#xf7;" d="M195 421q-18 0 -30.5 12.5t-12.5 30.5q0 17 12.5 29.5t30.5 12.5q17 0 29.5 -12.5t12.5 -29.5q0 -18 -12.5 -30.5t-29.5 -12.5zM46 313v55h296v-55h-296zM195 173q-18 0 -30.5 12.5t-12.5 30.5q0 17 12.5 29.5t30.5 12.5q17 0 29.5 -12.5t12.5 -29.5q0 -18 -12.5 -30.5 t-29.5 -12.5z" />
<glyph unicode="&#xf8;" horiz-adv-x="335" d="M-1 13l44 65q-8 33 -8 79q0 130 45 220q41 83 119 83q48 0 78 -42l31 43l28 -19l-43 -63q8 -32 8 -65q0 -67 -12 -133.5t-31 -104.5q-42 -83 -116 -83q-56 0 -85 45l-32 -45zM92 140l143 226q-11 41 -44 41q-43 0 -69 -70.5t-30 -196.5zM100 90q13 -44 46 -44q47 0 71 83 q22 75 25 183z" />
<glyph unicode="&#xf9;" horiz-adv-x="331" d="M200 507l-89 109l52 36l72 -121zM310 453l-42 -343q-7 -54 -42.5 -85.5t-88.5 -31.5q-48 0 -75.5 26t-27.5 71q0 13 1 20l42 343h57l-36 -295q-5 -39 -5 -54q0 -58 51 -58q43 0 58 39q8 22 15 73l36 295h57z" />
<glyph unicode="&#xfa;" horiz-adv-x="331" d="M210 507l-32 27l105 118l46 -43zM310 453l-42 -343q-7 -54 -42.5 -85.5t-88.5 -31.5q-48 0 -75.5 26t-27.5 71q0 13 1 20l42 343h57l-36 -295q-5 -39 -5 -54q0 -58 51 -58q43 0 58 39q8 22 15 73l36 295h57z" />
<glyph unicode="&#xfb;" horiz-adv-x="331" d="M129 507l-31 38l118 108l91 -110l-41 -36l-58 71zM310 453l-42 -343q-7 -54 -42.5 -85.5t-88.5 -31.5q-48 0 -75.5 26t-27.5 71q0 13 1 20l42 343h57l-36 -295q-5 -39 -5 -54q0 -58 51 -58q43 0 58 39q8 22 15 73l36 295h57z" />
<glyph unicode="&#xfc;" horiz-adv-x="331" d="M265 517q-15 0 -26 11t-11 27q0 19 14.5 33.5t33.5 14.5q16 0 27 -10.5t11 -27.5q0 -19 -15 -33.5t-34 -14.5zM142 517q-15 0 -26 11t-11 27q0 19 14.5 33.5t33.5 14.5q17 0 27.5 -10.5t10.5 -27.5q0 -19 -15 -33.5t-34 -14.5zM310 453l-42 -343q-7 -54 -42.5 -85.5 t-88.5 -31.5q-48 0 -75.5 26t-27.5 71q0 13 1 20l42 343h57l-36 -295q-5 -39 -5 -54q0 -58 51 -58q43 0 58 39q8 22 15 73l36 295h57z" />
<glyph unicode="&#xfd;" horiz-adv-x="289" d="M185 507l-32 27l105 118l46 -43zM87 12l-53 441h58l25 -251q6 -60 6 -114q6 21 35 105l93 260h59l-229 -617h-60z" />
<glyph unicode="&#xfe;" horiz-adv-x="321" d="M82 36l-26 -209h-56l111 902h56l-37 -307q34 38 75 38q90 0 90 -125q0 -69 -12.5 -147t-31.5 -121q-31 -74 -97 -74q-44 0 -72 43zM142 40q25 0 40.5 17.5t26.5 58.5q11 38 19.5 102.5t8.5 110.5q0 84 -50 84q-54 0 -72 -94q-23 -113 -23 -203q0 -76 50 -76z" />
<glyph unicode="&#xff;" horiz-adv-x="289" d="M242 517q-15 0 -26 11t-11 27q0 19 14.5 33.5t33.5 14.5q17 0 27.5 -10.5t10.5 -27.5q0 -19 -15 -33.5t-34 -14.5zM119 517q-15 0 -26 11t-11 27q0 19 14.5 33.5t33.5 14.5q16 0 27 -10.5t11 -27.5q0 -19 -15 -33.5t-34 -14.5zM87 12l-53 441h58l25 -251q6 -60 6 -114 q6 21 35 105l93 260h59l-229 -617h-60z" />
<glyph unicode="&#x152;" horiz-adv-x="532" d="M264 0l9 70q-44 -80 -114 -80q-57 0 -87 51.5t-30 150.5q0 100 16.5 197.5t42.5 159.5q55 127 148 127q60 0 90 -69l7 60h203l-7 -57h-145l-29 -235h141l-7 -57h-141l-32 -261h145l-7 -57h-203zM173 51q65 0 98 107q17 54 29 149.5t12 177.5q0 131 -67 131q-31 0 -52 -22 t-39 -73q-22 -62 -37.5 -159.5t-15.5 -174.5q0 -136 72 -136z" />
<glyph unicode="&#x153;" horiz-adv-x="501" d="M397 156h53q-8 -75 -43 -119t-87 -44q-35 0 -58.5 25.5t-28.5 70.5q-36 -96 -107 -96q-47 0 -72 42t-25 119q0 134 44 220t112 86q33 0 55 -25.5t27 -69.5q15 43 46 69t66 26q44 0 69.5 -40.5t25.5 -110.5q0 -30 -7 -92h-193q-3 -41 -3 -60q0 -52 15.5 -81.5t42.5 -29.5 q57 0 68 110zM282 265h137q3 27 3 41q0 46 -14 73.5t-38 27.5q-33 0 -56.5 -38.5t-31.5 -103.5zM134 46q39 0 66.5 75t27.5 182q0 49 -13.5 76.5t-36.5 27.5q-40 0 -67.5 -72.5t-27.5 -176.5q0 -53 13.5 -82.5t37.5 -29.5z" />
<glyph unicode="&#x178;" horiz-adv-x="312" d="M285 723q-16 0 -26.5 11t-10.5 27q0 19 14.5 34t33.5 15q16 0 27 -11t11 -27q0 -20 -15 -34.5t-34 -14.5zM159 723q-16 0 -26.5 11t-10.5 27q0 19 14.5 34t33.5 15q16 0 27 -11t11 -27q0 -20 -15 -34.5t-34 -14.5zM101 0l36 292l-82 375h66l38 -195q11 -60 15 -119 q14 50 44 122l80 192h66l-166 -375l-36 -292h-61z" />
<glyph unicode="&#x2c6;" horiz-adv-x="500" d="M217 507l-31 38l118 108l91 -110l-41 -36l-58 71z" />
<glyph unicode="&#x2dc;" horiz-adv-x="500" d="M182 523q17 76 73 76q22 0 66 -22q9 -6 18 -6q12 0 18 24h55q-6 -37 -25.5 -56.5t-49.5 -19.5q-25 0 -61 21q-13 8 -21 8q-13 0 -18 -25h-55z" />
<glyph unicode="&#x2000;" horiz-adv-x="431" />
<glyph unicode="&#x2001;" horiz-adv-x="863" />
<glyph unicode="&#x2002;" horiz-adv-x="431" />
<glyph unicode="&#x2003;" horiz-adv-x="863" />
<glyph unicode="&#x2004;" horiz-adv-x="287" />
<glyph unicode="&#x2005;" horiz-adv-x="215" />
<glyph unicode="&#x2006;" horiz-adv-x="143" />
<glyph unicode="&#x2007;" horiz-adv-x="143" />
<glyph unicode="&#x2008;" horiz-adv-x="107" />
<glyph unicode="&#x2009;" horiz-adv-x="172" />
<glyph unicode="&#x200a;" horiz-adv-x="47" />
<glyph unicode="&#x2010;" horiz-adv-x="136" d="M-3 202l9 70h136l-9 -70h-136z" />
<glyph unicode="&#x2011;" horiz-adv-x="136" d="M-3 202l9 70h136l-9 -70h-136z" />
<glyph unicode="&#x2012;" horiz-adv-x="136" d="M-3 202l9 70h136l-9 -70h-136z" />
<glyph unicode="&#x2013;" horiz-adv-x="361" d="M62 202l9 70h230l-9 -70h-230z" />
<glyph unicode="&#x2014;" horiz-adv-x="408" d="M-3 202l9 70h407l-8 -70h-408z" />
<glyph unicode="&#x2018;" horiz-adv-x="201" d="M128 450l-58 28l111 198l40 -20z" />
<glyph unicode="&#x2019;" horiz-adv-x="201" d="M109 450l-40 20l93 206l58 -29z" />
<glyph unicode="&#x201a;" horiz-adv-x="201" d="M83 83l58 -28l-111 -197l-40 20z" />
<glyph unicode="&#x201c;" horiz-adv-x="318" d="M244 450l-58 28l112 198l39 -20zM128 450l-58 28l111 198l40 -20z" />
<glyph unicode="&#x201d;" horiz-adv-x="318" d="M225 450l-40 20l93 206l58 -29zM109 450l-40 20l93 206l58 -29z" />
<glyph unicode="&#x201e;" horiz-adv-x="318" d="M106 -122l93 205l58 -28l-111 -197zM83 83l58 -28l-111 -197l-40 20z" />
<glyph unicode="&#x2022;" horiz-adv-x="667" d="M208 338q0 58 41 98.5t100 40.5q55 0 95.5 -41t40.5 -97q0 -58 -40.5 -98.5t-97.5 -40.5t-98 41t-41 97z" />
<glyph unicode="&#x2026;" horiz-adv-x="483" d="M335 33q0 19 15.5 34.5t34.5 15.5q17 0 28 -11.5t11 -27.5q0 -20 -15 -35.5t-35 -15.5q-17 0 -28 11.5t-11 28.5zM174 33q0 19 15 34.5t35 15.5q16 0 27.5 -11.5t11.5 -27.5q0 -20 -15 -35.5t-35 -15.5q-17 0 -28 11.5t-11 28.5zM13 33q0 19 15.5 34.5t34.5 15.5 q17 0 28 -11.5t11 -27.5q0 -20 -15 -35.5t-35 -15.5q-17 0 -28 11.5t-11 28.5z" />
<glyph unicode="&#x202f;" horiz-adv-x="172" />
<glyph unicode="&#x2039;" horiz-adv-x="210" d="M117 43l-83 194l130 188l35 -21l-114 -167l73 -171z" />
<glyph unicode="&#x203a;" horiz-adv-x="210" d="M48 43l-35 23l114 171l-72 167l40 21l84 -188z" />
<glyph unicode="&#x205f;" horiz-adv-x="215" />
<glyph unicode="&#x20ac;" horiz-adv-x="396" d="M310 76l-7 -62q-40 -23 -81 -23q-66 0 -104 56.5t-38 154.5q0 32 3 73h-47l14 41h37q4 29 6 41h-47l14 41h40q26 124 61 182q57 97 152 97q47 0 76 -22l-20 -59q-34 21 -60 21q-79 0 -118 -106q-14 -36 -29 -113h145l-13 -41h-139l-5 -41h130l-14 -41h-119q-2 -52 -2 -71 q0 -152 88 -152q33 0 77 24z" />
<glyph unicode="&#x2122;" horiz-adv-x="448" d="M175 287l99 380h35l9 -281l82 281h35l-1 -380h-40l4 261l-76 -261h-34l-10 256l-63 -256h-40zM73 287l42 341h-55l5 39h151l-5 -39h-55l-42 -341h-41z" />
<glyph unicode="&#x25fc;" horiz-adv-x="455" d="M0 455h455v-455h-455v455z" />
</font>
</defs>
</svg>
